M48
; DRILL file {KiCad 9.0.1} date 2025-08-07T18:16:20+0200
; FORMAT={-:-/ absolute / metric / decimal}
; #@! TF.CreationDate,2025-08-07T18:16:20+02:00
; #@! TF.GenerationSoftware,Kicad,Pcbnew,9.0.1
; #@! TF.FileFunction,Plated,1,2,PTH
FMAT,2
METRIC
; #@! TA.AperFunction,Plated,PTH,ViaDrill
T1C0.350
; #@! TA.AperFunction,Plated,PTH,ViaDrill
T2C0.450
; #@! TA.AperFunction,Plated,PTH,ComponentDrill
T3C0.850
; #@! TA.AperFunction,Plated,PTH,ComponentDrill
T4C0.880
; #@! TA.AperFunction,Plated,PTH,ComponentDrill
T5C0.890
; #@! TA.AperFunction,Plated,PTH,ComponentDrill
T6C0.900
; #@! TA.AperFunction,Plated,PTH,ComponentDrill
T7C1.000
; #@! TA.AperFunction,Plated,PTH,ComponentDrill
T8C1.350
; #@! TA.AperFunction,Plated,PTH,ComponentDrill
T9C1.570
%
G90
G05
T1
X101.25Y-88.999
X102.25Y-89.004
X103.25Y-89.0
X106.5Y-99.0
X107.75Y-99.0
X108.75Y-99.0
X109.25Y-83.5
X112.5Y-94.75
X112.5Y-95.75
X113.25Y-91.25
X114.25Y-91.25
X114.458Y-95.769
X115.25Y-68.0
X115.25Y-91.25
X115.5Y-94.75
X116.0Y-73.75
X116.25Y-91.25
X117.405Y-90.905
X117.477Y-95.505
X118.112Y-91.612
X118.875Y-96.156
X119.0Y-83.0
X119.0Y-90.75
X121.0Y-60.75
X124.75Y-91.5
X124.75Y-93.25
X125.75Y-93.25
X126.75Y-93.25
X142.505Y-91.604
X144.679Y-89.429
X147.5Y-76.25
X147.5Y-77.5
X147.5Y-78.75
X148.0Y-87.0
X153.75Y-50.299
X154.729Y-50.502
X164.5Y-96.0
X165.0Y-72.5
X167.64Y-72.0
X172.75Y-71.5
X175.25Y-90.5
X177.683Y-89.966
X183.5Y-54.25
X183.75Y-89.5
X187.75Y-64.75
X189.0Y-54.25
X191.0Y-53.25
T2
X101.5Y-74.5
X108.0Y-84.5
X138.25Y-94.5
X149.25Y-58.5
X152.5Y-72.75
X164.25Y-77.25
X176.0Y-45.5
X176.0Y-46.75
X176.0Y-48.0
X176.25Y-77.25
X177.75Y-59.5
X179.0Y-59.5
X180.25Y-59.5
X182.0Y-62.25
X187.5Y-77.25
X192.5Y-83.75
T3
X136.0Y-68.0
X136.0Y-70.54
X137.27Y-69.27
T4
X159.75Y-85.0
X161.15Y-83.725
X161.15Y-86.275
T5
X107.405Y-65.78
X108.42Y-64.0
X109.435Y-65.78
X110.45Y-64.0
X111.47Y-65.78
X112.485Y-64.0
X113.5Y-65.78
X114.515Y-64.0
T6
X125.0Y-70.0
X127.5Y-70.0
X130.0Y-70.0
T7
X147.32Y-68.58
X147.32Y-93.98
X149.86Y-68.58
X149.86Y-93.98
X152.4Y-68.58
X152.4Y-93.98
X154.94Y-68.58
X154.94Y-93.98
X157.48Y-68.58
X157.48Y-93.98
X160.02Y-68.58
X160.02Y-93.98
X162.56Y-68.58
X162.56Y-93.98
X165.1Y-68.58
X165.1Y-93.98
X167.64Y-68.58
X167.64Y-93.98
X170.18Y-68.58
X170.18Y-93.98
X172.72Y-68.58
X172.72Y-93.98
X175.26Y-68.58
X175.26Y-93.98
X177.8Y-68.58
X177.8Y-93.98
X180.34Y-68.58
X180.34Y-93.98
X182.88Y-68.58
X182.88Y-93.98
X185.42Y-68.58
X185.42Y-93.98
X187.96Y-68.58
X187.96Y-93.98
X190.5Y-68.58
X190.5Y-93.98
X193.04Y-68.58
X193.04Y-93.98
T8
X124.95Y-63.805
X128.45Y-63.805
X131.95Y-63.805
X135.45Y-63.805
X141.25Y-63.805
X144.75Y-63.805
T9
X102.86Y-64.89
X119.06Y-64.89
M30
