%TF.GenerationSoftware,KiCad,Pcbnew,9.0.1*%
%TF.CreationDate,2025-08-07T18:16:20+02:00*%
%TF.ProjectId,Hauptmodul,48617570-746d-46f6-9475-6c2e6b696361,rev?*%
%TF.SameCoordinates,Original*%
%TF.FileFunction,Drillmap*%
%TF.FilePolarity,Positive*%
%FSLAX45Y45*%
G04 Gerber Fmt 4.5, Leading zero omitted, Abs format (unit mm)*
G04 Created by KiCad (PCBNEW 9.0.1) date 2025-08-07 18:16:20*
%MOMM*%
%LPD*%
G01*
G04 APERTURE LIST*
%ADD10C,0.050000*%
%ADD11C,0.200000*%
%ADD12C,0.100000*%
%ADD13C,0.120000*%
%ADD14C,0.320000*%
%ADD15C,0.325000*%
G04 APERTURE END LIST*
D10*
X15000000Y-5500000D02*
G75*
G02*
X14800000Y-5700000I-200000J0D01*
G01*
X10000000Y-10500000D02*
X20000000Y-10500000D01*
X10000000Y-10500000D02*
X10000000Y-5700000D01*
X15000000Y-5500000D02*
X15000000Y-4400000D01*
X10000000Y-5700000D02*
X14800000Y-5700000D01*
X20000000Y-10500000D02*
X20000000Y-4400000D01*
X20000000Y-4400000D02*
X15000000Y-4400000D01*
D11*
D12*
X12180000Y-9480000D02*
X12260000Y-9560000D01*
X12260000Y-9480000D02*
X12180000Y-9560000D01*
D13*
X10260000Y-9520000D02*
G75*
G02*
X10140000Y-9520000I-60000J0D01*
G01*
X10140000Y-9520000D02*
G75*
G02*
X10260000Y-9520000I60000J0D01*
G01*
D14*
X10375000Y-8215000D02*
X10375000Y-8535000D01*
X10215000Y-8375000D02*
X10535000Y-8375000D01*
X19625000Y-5915000D02*
X19625000Y-6235000D01*
X19465000Y-6075000D02*
X19785000Y-6075000D01*
D15*
X10575906Y-6260906D02*
X10575906Y-6031094D01*
X10346094Y-6031094D01*
X10346094Y-6260906D01*
X10575906Y-6260906D01*
X11845906Y-6260906D02*
X11845906Y-6031094D01*
X11616094Y-6031094D01*
X11616094Y-6260906D01*
X11845906Y-6260906D01*
D11*
X10258277Y-10813984D02*
X10258277Y-10613984D01*
X10258277Y-10613984D02*
X10305896Y-10613984D01*
X10305896Y-10613984D02*
X10334467Y-10623508D01*
X10334467Y-10623508D02*
X10353515Y-10642555D01*
X10353515Y-10642555D02*
X10363039Y-10661603D01*
X10363039Y-10661603D02*
X10372563Y-10699698D01*
X10372563Y-10699698D02*
X10372563Y-10728270D01*
X10372563Y-10728270D02*
X10363039Y-10766365D01*
X10363039Y-10766365D02*
X10353515Y-10785412D01*
X10353515Y-10785412D02*
X10334467Y-10804460D01*
X10334467Y-10804460D02*
X10305896Y-10813984D01*
X10305896Y-10813984D02*
X10258277Y-10813984D01*
X10458277Y-10813984D02*
X10458277Y-10680650D01*
X10458277Y-10718746D02*
X10467801Y-10699698D01*
X10467801Y-10699698D02*
X10477324Y-10690174D01*
X10477324Y-10690174D02*
X10496372Y-10680650D01*
X10496372Y-10680650D02*
X10515420Y-10680650D01*
X10582086Y-10813984D02*
X10582086Y-10680650D01*
X10582086Y-10613984D02*
X10572563Y-10623508D01*
X10572563Y-10623508D02*
X10582086Y-10633031D01*
X10582086Y-10633031D02*
X10591610Y-10623508D01*
X10591610Y-10623508D02*
X10582086Y-10613984D01*
X10582086Y-10613984D02*
X10582086Y-10633031D01*
X10705896Y-10813984D02*
X10686848Y-10804460D01*
X10686848Y-10804460D02*
X10677324Y-10785412D01*
X10677324Y-10785412D02*
X10677324Y-10613984D01*
X10810658Y-10813984D02*
X10791610Y-10804460D01*
X10791610Y-10804460D02*
X10782086Y-10785412D01*
X10782086Y-10785412D02*
X10782086Y-10613984D01*
X11039229Y-10813984D02*
X11039229Y-10613984D01*
X11039229Y-10613984D02*
X11105896Y-10756841D01*
X11105896Y-10756841D02*
X11172563Y-10613984D01*
X11172563Y-10613984D02*
X11172563Y-10813984D01*
X11353515Y-10813984D02*
X11353515Y-10709222D01*
X11353515Y-10709222D02*
X11343991Y-10690174D01*
X11343991Y-10690174D02*
X11324943Y-10680650D01*
X11324943Y-10680650D02*
X11286848Y-10680650D01*
X11286848Y-10680650D02*
X11267801Y-10690174D01*
X11353515Y-10804460D02*
X11334467Y-10813984D01*
X11334467Y-10813984D02*
X11286848Y-10813984D01*
X11286848Y-10813984D02*
X11267801Y-10804460D01*
X11267801Y-10804460D02*
X11258277Y-10785412D01*
X11258277Y-10785412D02*
X11258277Y-10766365D01*
X11258277Y-10766365D02*
X11267801Y-10747317D01*
X11267801Y-10747317D02*
X11286848Y-10737793D01*
X11286848Y-10737793D02*
X11334467Y-10737793D01*
X11334467Y-10737793D02*
X11353515Y-10728270D01*
X11448753Y-10680650D02*
X11448753Y-10880650D01*
X11448753Y-10690174D02*
X11467801Y-10680650D01*
X11467801Y-10680650D02*
X11505896Y-10680650D01*
X11505896Y-10680650D02*
X11524943Y-10690174D01*
X11524943Y-10690174D02*
X11534467Y-10699698D01*
X11534467Y-10699698D02*
X11543991Y-10718746D01*
X11543991Y-10718746D02*
X11543991Y-10775889D01*
X11543991Y-10775889D02*
X11534467Y-10794936D01*
X11534467Y-10794936D02*
X11524943Y-10804460D01*
X11524943Y-10804460D02*
X11505896Y-10813984D01*
X11505896Y-10813984D02*
X11467801Y-10813984D01*
X11467801Y-10813984D02*
X11448753Y-10804460D01*
X11629705Y-10794936D02*
X11639229Y-10804460D01*
X11639229Y-10804460D02*
X11629705Y-10813984D01*
X11629705Y-10813984D02*
X11620182Y-10804460D01*
X11620182Y-10804460D02*
X11629705Y-10794936D01*
X11629705Y-10794936D02*
X11629705Y-10813984D01*
X11629705Y-10690174D02*
X11639229Y-10699698D01*
X11639229Y-10699698D02*
X11629705Y-10709222D01*
X11629705Y-10709222D02*
X11620182Y-10699698D01*
X11620182Y-10699698D02*
X11629705Y-10690174D01*
X11629705Y-10690174D02*
X11629705Y-10709222D01*
D12*
X9917500Y-11102500D02*
X9997500Y-11182500D01*
X9997500Y-11102500D02*
X9917500Y-11182500D01*
D11*
X10296372Y-11033984D02*
X10315420Y-11033984D01*
X10315420Y-11033984D02*
X10334467Y-11043508D01*
X10334467Y-11043508D02*
X10343991Y-11053031D01*
X10343991Y-11053031D02*
X10353515Y-11072079D01*
X10353515Y-11072079D02*
X10363039Y-11110174D01*
X10363039Y-11110174D02*
X10363039Y-11157793D01*
X10363039Y-11157793D02*
X10353515Y-11195888D01*
X10353515Y-11195888D02*
X10343991Y-11214936D01*
X10343991Y-11214936D02*
X10334467Y-11224460D01*
X10334467Y-11224460D02*
X10315420Y-11233984D01*
X10315420Y-11233984D02*
X10296372Y-11233984D01*
X10296372Y-11233984D02*
X10277324Y-11224460D01*
X10277324Y-11224460D02*
X10267801Y-11214936D01*
X10267801Y-11214936D02*
X10258277Y-11195888D01*
X10258277Y-11195888D02*
X10248753Y-11157793D01*
X10248753Y-11157793D02*
X10248753Y-11110174D01*
X10248753Y-11110174D02*
X10258277Y-11072079D01*
X10258277Y-11072079D02*
X10267801Y-11053031D01*
X10267801Y-11053031D02*
X10277324Y-11043508D01*
X10277324Y-11043508D02*
X10296372Y-11033984D01*
X10448753Y-11214936D02*
X10458277Y-11224460D01*
X10458277Y-11224460D02*
X10448753Y-11233984D01*
X10448753Y-11233984D02*
X10439229Y-11224460D01*
X10439229Y-11224460D02*
X10448753Y-11214936D01*
X10448753Y-11214936D02*
X10448753Y-11233984D01*
X10572563Y-11119698D02*
X10553515Y-11110174D01*
X10553515Y-11110174D02*
X10543991Y-11100650D01*
X10543991Y-11100650D02*
X10534467Y-11081603D01*
X10534467Y-11081603D02*
X10534467Y-11072079D01*
X10534467Y-11072079D02*
X10543991Y-11053031D01*
X10543991Y-11053031D02*
X10553515Y-11043508D01*
X10553515Y-11043508D02*
X10572563Y-11033984D01*
X10572563Y-11033984D02*
X10610658Y-11033984D01*
X10610658Y-11033984D02*
X10629705Y-11043508D01*
X10629705Y-11043508D02*
X10639229Y-11053031D01*
X10639229Y-11053031D02*
X10648753Y-11072079D01*
X10648753Y-11072079D02*
X10648753Y-11081603D01*
X10648753Y-11081603D02*
X10639229Y-11100650D01*
X10639229Y-11100650D02*
X10629705Y-11110174D01*
X10629705Y-11110174D02*
X10610658Y-11119698D01*
X10610658Y-11119698D02*
X10572563Y-11119698D01*
X10572563Y-11119698D02*
X10553515Y-11129222D01*
X10553515Y-11129222D02*
X10543991Y-11138746D01*
X10543991Y-11138746D02*
X10534467Y-11157793D01*
X10534467Y-11157793D02*
X10534467Y-11195888D01*
X10534467Y-11195888D02*
X10543991Y-11214936D01*
X10543991Y-11214936D02*
X10553515Y-11224460D01*
X10553515Y-11224460D02*
X10572563Y-11233984D01*
X10572563Y-11233984D02*
X10610658Y-11233984D01*
X10610658Y-11233984D02*
X10629705Y-11224460D01*
X10629705Y-11224460D02*
X10639229Y-11214936D01*
X10639229Y-11214936D02*
X10648753Y-11195888D01*
X10648753Y-11195888D02*
X10648753Y-11157793D01*
X10648753Y-11157793D02*
X10639229Y-11138746D01*
X10639229Y-11138746D02*
X10629705Y-11129222D01*
X10629705Y-11129222D02*
X10610658Y-11119698D01*
X10772563Y-11033984D02*
X10791610Y-11033984D01*
X10791610Y-11033984D02*
X10810658Y-11043508D01*
X10810658Y-11043508D02*
X10820182Y-11053031D01*
X10820182Y-11053031D02*
X10829705Y-11072079D01*
X10829705Y-11072079D02*
X10839229Y-11110174D01*
X10839229Y-11110174D02*
X10839229Y-11157793D01*
X10839229Y-11157793D02*
X10829705Y-11195888D01*
X10829705Y-11195888D02*
X10820182Y-11214936D01*
X10820182Y-11214936D02*
X10810658Y-11224460D01*
X10810658Y-11224460D02*
X10791610Y-11233984D01*
X10791610Y-11233984D02*
X10772563Y-11233984D01*
X10772563Y-11233984D02*
X10753515Y-11224460D01*
X10753515Y-11224460D02*
X10743991Y-11214936D01*
X10743991Y-11214936D02*
X10734467Y-11195888D01*
X10734467Y-11195888D02*
X10724944Y-11157793D01*
X10724944Y-11157793D02*
X10724944Y-11110174D01*
X10724944Y-11110174D02*
X10734467Y-11072079D01*
X10734467Y-11072079D02*
X10743991Y-11053031D01*
X10743991Y-11053031D02*
X10753515Y-11043508D01*
X10753515Y-11043508D02*
X10772563Y-11033984D01*
X10963039Y-11033984D02*
X10982086Y-11033984D01*
X10982086Y-11033984D02*
X11001134Y-11043508D01*
X11001134Y-11043508D02*
X11010658Y-11053031D01*
X11010658Y-11053031D02*
X11020182Y-11072079D01*
X11020182Y-11072079D02*
X11029705Y-11110174D01*
X11029705Y-11110174D02*
X11029705Y-11157793D01*
X11029705Y-11157793D02*
X11020182Y-11195888D01*
X11020182Y-11195888D02*
X11010658Y-11214936D01*
X11010658Y-11214936D02*
X11001134Y-11224460D01*
X11001134Y-11224460D02*
X10982086Y-11233984D01*
X10982086Y-11233984D02*
X10963039Y-11233984D01*
X10963039Y-11233984D02*
X10943991Y-11224460D01*
X10943991Y-11224460D02*
X10934467Y-11214936D01*
X10934467Y-11214936D02*
X10924944Y-11195888D01*
X10924944Y-11195888D02*
X10915420Y-11157793D01*
X10915420Y-11157793D02*
X10915420Y-11110174D01*
X10915420Y-11110174D02*
X10924944Y-11072079D01*
X10924944Y-11072079D02*
X10934467Y-11053031D01*
X10934467Y-11053031D02*
X10943991Y-11043508D01*
X10943991Y-11043508D02*
X10963039Y-11033984D01*
X11115420Y-11233984D02*
X11115420Y-11100650D01*
X11115420Y-11119698D02*
X11124944Y-11110174D01*
X11124944Y-11110174D02*
X11143991Y-11100650D01*
X11143991Y-11100650D02*
X11172563Y-11100650D01*
X11172563Y-11100650D02*
X11191610Y-11110174D01*
X11191610Y-11110174D02*
X11201134Y-11129222D01*
X11201134Y-11129222D02*
X11201134Y-11233984D01*
X11201134Y-11129222D02*
X11210658Y-11110174D01*
X11210658Y-11110174D02*
X11229705Y-11100650D01*
X11229705Y-11100650D02*
X11258277Y-11100650D01*
X11258277Y-11100650D02*
X11277324Y-11110174D01*
X11277324Y-11110174D02*
X11286848Y-11129222D01*
X11286848Y-11129222D02*
X11286848Y-11233984D01*
X11382086Y-11233984D02*
X11382086Y-11100650D01*
X11382086Y-11119698D02*
X11391610Y-11110174D01*
X11391610Y-11110174D02*
X11410658Y-11100650D01*
X11410658Y-11100650D02*
X11439229Y-11100650D01*
X11439229Y-11100650D02*
X11458277Y-11110174D01*
X11458277Y-11110174D02*
X11467801Y-11129222D01*
X11467801Y-11129222D02*
X11467801Y-11233984D01*
X11467801Y-11129222D02*
X11477324Y-11110174D01*
X11477324Y-11110174D02*
X11496372Y-11100650D01*
X11496372Y-11100650D02*
X11524943Y-11100650D01*
X11524943Y-11100650D02*
X11543991Y-11110174D01*
X11543991Y-11110174D02*
X11553515Y-11129222D01*
X11553515Y-11129222D02*
X11553515Y-11233984D01*
X11943991Y-11024460D02*
X11772563Y-11281603D01*
X12201134Y-11033984D02*
X12220182Y-11033984D01*
X12220182Y-11033984D02*
X12239229Y-11043508D01*
X12239229Y-11043508D02*
X12248753Y-11053031D01*
X12248753Y-11053031D02*
X12258277Y-11072079D01*
X12258277Y-11072079D02*
X12267801Y-11110174D01*
X12267801Y-11110174D02*
X12267801Y-11157793D01*
X12267801Y-11157793D02*
X12258277Y-11195888D01*
X12258277Y-11195888D02*
X12248753Y-11214936D01*
X12248753Y-11214936D02*
X12239229Y-11224460D01*
X12239229Y-11224460D02*
X12220182Y-11233984D01*
X12220182Y-11233984D02*
X12201134Y-11233984D01*
X12201134Y-11233984D02*
X12182086Y-11224460D01*
X12182086Y-11224460D02*
X12172563Y-11214936D01*
X12172563Y-11214936D02*
X12163039Y-11195888D01*
X12163039Y-11195888D02*
X12153515Y-11157793D01*
X12153515Y-11157793D02*
X12153515Y-11110174D01*
X12153515Y-11110174D02*
X12163039Y-11072079D01*
X12163039Y-11072079D02*
X12172563Y-11053031D01*
X12172563Y-11053031D02*
X12182086Y-11043508D01*
X12182086Y-11043508D02*
X12201134Y-11033984D01*
X12353515Y-11214936D02*
X12363039Y-11224460D01*
X12363039Y-11224460D02*
X12353515Y-11233984D01*
X12353515Y-11233984D02*
X12343991Y-11224460D01*
X12343991Y-11224460D02*
X12353515Y-11214936D01*
X12353515Y-11214936D02*
X12353515Y-11233984D01*
X12486848Y-11033984D02*
X12505896Y-11033984D01*
X12505896Y-11033984D02*
X12524944Y-11043508D01*
X12524944Y-11043508D02*
X12534467Y-11053031D01*
X12534467Y-11053031D02*
X12543991Y-11072079D01*
X12543991Y-11072079D02*
X12553515Y-11110174D01*
X12553515Y-11110174D02*
X12553515Y-11157793D01*
X12553515Y-11157793D02*
X12543991Y-11195888D01*
X12543991Y-11195888D02*
X12534467Y-11214936D01*
X12534467Y-11214936D02*
X12524944Y-11224460D01*
X12524944Y-11224460D02*
X12505896Y-11233984D01*
X12505896Y-11233984D02*
X12486848Y-11233984D01*
X12486848Y-11233984D02*
X12467801Y-11224460D01*
X12467801Y-11224460D02*
X12458277Y-11214936D01*
X12458277Y-11214936D02*
X12448753Y-11195888D01*
X12448753Y-11195888D02*
X12439229Y-11157793D01*
X12439229Y-11157793D02*
X12439229Y-11110174D01*
X12439229Y-11110174D02*
X12448753Y-11072079D01*
X12448753Y-11072079D02*
X12458277Y-11053031D01*
X12458277Y-11053031D02*
X12467801Y-11043508D01*
X12467801Y-11043508D02*
X12486848Y-11033984D01*
X12620182Y-11033984D02*
X12743991Y-11033984D01*
X12743991Y-11033984D02*
X12677325Y-11110174D01*
X12677325Y-11110174D02*
X12705896Y-11110174D01*
X12705896Y-11110174D02*
X12724944Y-11119698D01*
X12724944Y-11119698D02*
X12734467Y-11129222D01*
X12734467Y-11129222D02*
X12743991Y-11148270D01*
X12743991Y-11148270D02*
X12743991Y-11195888D01*
X12743991Y-11195888D02*
X12734467Y-11214936D01*
X12734467Y-11214936D02*
X12724944Y-11224460D01*
X12724944Y-11224460D02*
X12705896Y-11233984D01*
X12705896Y-11233984D02*
X12648753Y-11233984D01*
X12648753Y-11233984D02*
X12629706Y-11224460D01*
X12629706Y-11224460D02*
X12620182Y-11214936D01*
X12934467Y-11233984D02*
X12820182Y-11233984D01*
X12877325Y-11233984D02*
X12877325Y-11033984D01*
X12877325Y-11033984D02*
X12858277Y-11062555D01*
X12858277Y-11062555D02*
X12839229Y-11081603D01*
X12839229Y-11081603D02*
X12820182Y-11091127D01*
X13115420Y-11033984D02*
X13020182Y-11033984D01*
X13020182Y-11033984D02*
X13010658Y-11129222D01*
X13010658Y-11129222D02*
X13020182Y-11119698D01*
X13020182Y-11119698D02*
X13039229Y-11110174D01*
X13039229Y-11110174D02*
X13086848Y-11110174D01*
X13086848Y-11110174D02*
X13105896Y-11119698D01*
X13105896Y-11119698D02*
X13115420Y-11129222D01*
X13115420Y-11129222D02*
X13124944Y-11148270D01*
X13124944Y-11148270D02*
X13124944Y-11195888D01*
X13124944Y-11195888D02*
X13115420Y-11214936D01*
X13115420Y-11214936D02*
X13105896Y-11224460D01*
X13105896Y-11224460D02*
X13086848Y-11233984D01*
X13086848Y-11233984D02*
X13039229Y-11233984D01*
X13039229Y-11233984D02*
X13020182Y-11224460D01*
X13020182Y-11224460D02*
X13010658Y-11214936D01*
X13201134Y-11033984D02*
X13201134Y-11072079D01*
X13277325Y-11033984D02*
X13277325Y-11072079D01*
X13572563Y-11310174D02*
X13563039Y-11300650D01*
X13563039Y-11300650D02*
X13543991Y-11272079D01*
X13543991Y-11272079D02*
X13534468Y-11253031D01*
X13534468Y-11253031D02*
X13524944Y-11224460D01*
X13524944Y-11224460D02*
X13515420Y-11176841D01*
X13515420Y-11176841D02*
X13515420Y-11138746D01*
X13515420Y-11138746D02*
X13524944Y-11091127D01*
X13524944Y-11091127D02*
X13534468Y-11062555D01*
X13534468Y-11062555D02*
X13543991Y-11043508D01*
X13543991Y-11043508D02*
X13563039Y-11014936D01*
X13563039Y-11014936D02*
X13572563Y-11005412D01*
X13753515Y-11233984D02*
X13639229Y-11233984D01*
X13696372Y-11233984D02*
X13696372Y-11033984D01*
X13696372Y-11033984D02*
X13677325Y-11062555D01*
X13677325Y-11062555D02*
X13658277Y-11081603D01*
X13658277Y-11081603D02*
X13639229Y-11091127D01*
X13991610Y-11233984D02*
X13991610Y-11033984D01*
X14077325Y-11233984D02*
X14077325Y-11129222D01*
X14077325Y-11129222D02*
X14067801Y-11110174D01*
X14067801Y-11110174D02*
X14048753Y-11100650D01*
X14048753Y-11100650D02*
X14020182Y-11100650D01*
X14020182Y-11100650D02*
X14001134Y-11110174D01*
X14001134Y-11110174D02*
X13991610Y-11119698D01*
X14201134Y-11233984D02*
X14182087Y-11224460D01*
X14182087Y-11224460D02*
X14172563Y-11214936D01*
X14172563Y-11214936D02*
X14163039Y-11195888D01*
X14163039Y-11195888D02*
X14163039Y-11138746D01*
X14163039Y-11138746D02*
X14172563Y-11119698D01*
X14172563Y-11119698D02*
X14182087Y-11110174D01*
X14182087Y-11110174D02*
X14201134Y-11100650D01*
X14201134Y-11100650D02*
X14229706Y-11100650D01*
X14229706Y-11100650D02*
X14248753Y-11110174D01*
X14248753Y-11110174D02*
X14258277Y-11119698D01*
X14258277Y-11119698D02*
X14267801Y-11138746D01*
X14267801Y-11138746D02*
X14267801Y-11195888D01*
X14267801Y-11195888D02*
X14258277Y-11214936D01*
X14258277Y-11214936D02*
X14248753Y-11224460D01*
X14248753Y-11224460D02*
X14229706Y-11233984D01*
X14229706Y-11233984D02*
X14201134Y-11233984D01*
X14382087Y-11233984D02*
X14363039Y-11224460D01*
X14363039Y-11224460D02*
X14353515Y-11205412D01*
X14353515Y-11205412D02*
X14353515Y-11033984D01*
X14534468Y-11224460D02*
X14515420Y-11233984D01*
X14515420Y-11233984D02*
X14477325Y-11233984D01*
X14477325Y-11233984D02*
X14458277Y-11224460D01*
X14458277Y-11224460D02*
X14448753Y-11205412D01*
X14448753Y-11205412D02*
X14448753Y-11129222D01*
X14448753Y-11129222D02*
X14458277Y-11110174D01*
X14458277Y-11110174D02*
X14477325Y-11100650D01*
X14477325Y-11100650D02*
X14515420Y-11100650D01*
X14515420Y-11100650D02*
X14534468Y-11110174D01*
X14534468Y-11110174D02*
X14543991Y-11129222D01*
X14543991Y-11129222D02*
X14543991Y-11148270D01*
X14543991Y-11148270D02*
X14448753Y-11167317D01*
X14610658Y-11310174D02*
X14620182Y-11300650D01*
X14620182Y-11300650D02*
X14639230Y-11272079D01*
X14639230Y-11272079D02*
X14648753Y-11253031D01*
X14648753Y-11253031D02*
X14658277Y-11224460D01*
X14658277Y-11224460D02*
X14667801Y-11176841D01*
X14667801Y-11176841D02*
X14667801Y-11138746D01*
X14667801Y-11138746D02*
X14658277Y-11091127D01*
X14658277Y-11091127D02*
X14648753Y-11062555D01*
X14648753Y-11062555D02*
X14639230Y-11043508D01*
X14639230Y-11043508D02*
X14620182Y-11014936D01*
X14620182Y-11014936D02*
X14610658Y-11005412D01*
X14972563Y-11310174D02*
X14963039Y-11300650D01*
X14963039Y-11300650D02*
X14943991Y-11272079D01*
X14943991Y-11272079D02*
X14934468Y-11253031D01*
X14934468Y-11253031D02*
X14924944Y-11224460D01*
X14924944Y-11224460D02*
X14915420Y-11176841D01*
X14915420Y-11176841D02*
X14915420Y-11138746D01*
X14915420Y-11138746D02*
X14924944Y-11091127D01*
X14924944Y-11091127D02*
X14934468Y-11062555D01*
X14934468Y-11062555D02*
X14943991Y-11043508D01*
X14943991Y-11043508D02*
X14963039Y-11014936D01*
X14963039Y-11014936D02*
X14972563Y-11005412D01*
X15048753Y-11100650D02*
X15048753Y-11233984D01*
X15048753Y-11119698D02*
X15058277Y-11110174D01*
X15058277Y-11110174D02*
X15077325Y-11100650D01*
X15077325Y-11100650D02*
X15105896Y-11100650D01*
X15105896Y-11100650D02*
X15124944Y-11110174D01*
X15124944Y-11110174D02*
X15134468Y-11129222D01*
X15134468Y-11129222D02*
X15134468Y-11233984D01*
X15258277Y-11233984D02*
X15239230Y-11224460D01*
X15239230Y-11224460D02*
X15229706Y-11214936D01*
X15229706Y-11214936D02*
X15220182Y-11195888D01*
X15220182Y-11195888D02*
X15220182Y-11138746D01*
X15220182Y-11138746D02*
X15229706Y-11119698D01*
X15229706Y-11119698D02*
X15239230Y-11110174D01*
X15239230Y-11110174D02*
X15258277Y-11100650D01*
X15258277Y-11100650D02*
X15286849Y-11100650D01*
X15286849Y-11100650D02*
X15305896Y-11110174D01*
X15305896Y-11110174D02*
X15315420Y-11119698D01*
X15315420Y-11119698D02*
X15324944Y-11138746D01*
X15324944Y-11138746D02*
X15324944Y-11195888D01*
X15324944Y-11195888D02*
X15315420Y-11214936D01*
X15315420Y-11214936D02*
X15305896Y-11224460D01*
X15305896Y-11224460D02*
X15286849Y-11233984D01*
X15286849Y-11233984D02*
X15258277Y-11233984D01*
X15382087Y-11100650D02*
X15458277Y-11100650D01*
X15410658Y-11033984D02*
X15410658Y-11205412D01*
X15410658Y-11205412D02*
X15420182Y-11224460D01*
X15420182Y-11224460D02*
X15439230Y-11233984D01*
X15439230Y-11233984D02*
X15458277Y-11233984D01*
X15677325Y-11100650D02*
X15677325Y-11300650D01*
X15677325Y-11110174D02*
X15696372Y-11100650D01*
X15696372Y-11100650D02*
X15734468Y-11100650D01*
X15734468Y-11100650D02*
X15753515Y-11110174D01*
X15753515Y-11110174D02*
X15763039Y-11119698D01*
X15763039Y-11119698D02*
X15772563Y-11138746D01*
X15772563Y-11138746D02*
X15772563Y-11195888D01*
X15772563Y-11195888D02*
X15763039Y-11214936D01*
X15763039Y-11214936D02*
X15753515Y-11224460D01*
X15753515Y-11224460D02*
X15734468Y-11233984D01*
X15734468Y-11233984D02*
X15696372Y-11233984D01*
X15696372Y-11233984D02*
X15677325Y-11224460D01*
X15886849Y-11233984D02*
X15867801Y-11224460D01*
X15867801Y-11224460D02*
X15858277Y-11205412D01*
X15858277Y-11205412D02*
X15858277Y-11033984D01*
X16048753Y-11233984D02*
X16048753Y-11129222D01*
X16048753Y-11129222D02*
X16039230Y-11110174D01*
X16039230Y-11110174D02*
X16020182Y-11100650D01*
X16020182Y-11100650D02*
X15982087Y-11100650D01*
X15982087Y-11100650D02*
X15963039Y-11110174D01*
X16048753Y-11224460D02*
X16029706Y-11233984D01*
X16029706Y-11233984D02*
X15982087Y-11233984D01*
X15982087Y-11233984D02*
X15963039Y-11224460D01*
X15963039Y-11224460D02*
X15953515Y-11205412D01*
X15953515Y-11205412D02*
X15953515Y-11186365D01*
X15953515Y-11186365D02*
X15963039Y-11167317D01*
X15963039Y-11167317D02*
X15982087Y-11157793D01*
X15982087Y-11157793D02*
X16029706Y-11157793D01*
X16029706Y-11157793D02*
X16048753Y-11148270D01*
X16115420Y-11100650D02*
X16191611Y-11100650D01*
X16143992Y-11033984D02*
X16143992Y-11205412D01*
X16143992Y-11205412D02*
X16153515Y-11224460D01*
X16153515Y-11224460D02*
X16172563Y-11233984D01*
X16172563Y-11233984D02*
X16191611Y-11233984D01*
X16334468Y-11224460D02*
X16315420Y-11233984D01*
X16315420Y-11233984D02*
X16277325Y-11233984D01*
X16277325Y-11233984D02*
X16258277Y-11224460D01*
X16258277Y-11224460D02*
X16248753Y-11205412D01*
X16248753Y-11205412D02*
X16248753Y-11129222D01*
X16248753Y-11129222D02*
X16258277Y-11110174D01*
X16258277Y-11110174D02*
X16277325Y-11100650D01*
X16277325Y-11100650D02*
X16315420Y-11100650D01*
X16315420Y-11100650D02*
X16334468Y-11110174D01*
X16334468Y-11110174D02*
X16343992Y-11129222D01*
X16343992Y-11129222D02*
X16343992Y-11148270D01*
X16343992Y-11148270D02*
X16248753Y-11167317D01*
X16515420Y-11233984D02*
X16515420Y-11033984D01*
X16515420Y-11224460D02*
X16496373Y-11233984D01*
X16496373Y-11233984D02*
X16458277Y-11233984D01*
X16458277Y-11233984D02*
X16439230Y-11224460D01*
X16439230Y-11224460D02*
X16429706Y-11214936D01*
X16429706Y-11214936D02*
X16420182Y-11195888D01*
X16420182Y-11195888D02*
X16420182Y-11138746D01*
X16420182Y-11138746D02*
X16429706Y-11119698D01*
X16429706Y-11119698D02*
X16439230Y-11110174D01*
X16439230Y-11110174D02*
X16458277Y-11100650D01*
X16458277Y-11100650D02*
X16496373Y-11100650D01*
X16496373Y-11100650D02*
X16515420Y-11110174D01*
X16591611Y-11310174D02*
X16601134Y-11300650D01*
X16601134Y-11300650D02*
X16620182Y-11272079D01*
X16620182Y-11272079D02*
X16629706Y-11253031D01*
X16629706Y-11253031D02*
X16639230Y-11224460D01*
X16639230Y-11224460D02*
X16648753Y-11176841D01*
X16648753Y-11176841D02*
X16648753Y-11138746D01*
X16648753Y-11138746D02*
X16639230Y-11091127D01*
X16639230Y-11091127D02*
X16629706Y-11062555D01*
X16629706Y-11062555D02*
X16620182Y-11043508D01*
X16620182Y-11043508D02*
X16601134Y-11014936D01*
X16601134Y-11014936D02*
X16591611Y-11005412D01*
D13*
X9997500Y-11406500D02*
G75*
G02*
X9877500Y-11406500I-60000J0D01*
G01*
X9877500Y-11406500D02*
G75*
G02*
X9997500Y-11406500I60000J0D01*
G01*
D11*
X10363039Y-11497984D02*
X10248753Y-11497984D01*
X10305896Y-11497984D02*
X10305896Y-11297984D01*
X10305896Y-11297984D02*
X10286848Y-11326555D01*
X10286848Y-11326555D02*
X10267801Y-11345603D01*
X10267801Y-11345603D02*
X10248753Y-11355127D01*
X10448753Y-11478936D02*
X10458277Y-11488460D01*
X10458277Y-11488460D02*
X10448753Y-11497984D01*
X10448753Y-11497984D02*
X10439229Y-11488460D01*
X10439229Y-11488460D02*
X10448753Y-11478936D01*
X10448753Y-11478936D02*
X10448753Y-11497984D01*
X10534467Y-11317031D02*
X10543991Y-11307508D01*
X10543991Y-11307508D02*
X10563039Y-11297984D01*
X10563039Y-11297984D02*
X10610658Y-11297984D01*
X10610658Y-11297984D02*
X10629705Y-11307508D01*
X10629705Y-11307508D02*
X10639229Y-11317031D01*
X10639229Y-11317031D02*
X10648753Y-11336079D01*
X10648753Y-11336079D02*
X10648753Y-11355127D01*
X10648753Y-11355127D02*
X10639229Y-11383698D01*
X10639229Y-11383698D02*
X10524944Y-11497984D01*
X10524944Y-11497984D02*
X10648753Y-11497984D01*
X10772563Y-11297984D02*
X10791610Y-11297984D01*
X10791610Y-11297984D02*
X10810658Y-11307508D01*
X10810658Y-11307508D02*
X10820182Y-11317031D01*
X10820182Y-11317031D02*
X10829705Y-11336079D01*
X10829705Y-11336079D02*
X10839229Y-11374174D01*
X10839229Y-11374174D02*
X10839229Y-11421793D01*
X10839229Y-11421793D02*
X10829705Y-11459888D01*
X10829705Y-11459888D02*
X10820182Y-11478936D01*
X10820182Y-11478936D02*
X10810658Y-11488460D01*
X10810658Y-11488460D02*
X10791610Y-11497984D01*
X10791610Y-11497984D02*
X10772563Y-11497984D01*
X10772563Y-11497984D02*
X10753515Y-11488460D01*
X10753515Y-11488460D02*
X10743991Y-11478936D01*
X10743991Y-11478936D02*
X10734467Y-11459888D01*
X10734467Y-11459888D02*
X10724944Y-11421793D01*
X10724944Y-11421793D02*
X10724944Y-11374174D01*
X10724944Y-11374174D02*
X10734467Y-11336079D01*
X10734467Y-11336079D02*
X10743991Y-11317031D01*
X10743991Y-11317031D02*
X10753515Y-11307508D01*
X10753515Y-11307508D02*
X10772563Y-11297984D01*
X10963039Y-11297984D02*
X10982086Y-11297984D01*
X10982086Y-11297984D02*
X11001134Y-11307508D01*
X11001134Y-11307508D02*
X11010658Y-11317031D01*
X11010658Y-11317031D02*
X11020182Y-11336079D01*
X11020182Y-11336079D02*
X11029705Y-11374174D01*
X11029705Y-11374174D02*
X11029705Y-11421793D01*
X11029705Y-11421793D02*
X11020182Y-11459888D01*
X11020182Y-11459888D02*
X11010658Y-11478936D01*
X11010658Y-11478936D02*
X11001134Y-11488460D01*
X11001134Y-11488460D02*
X10982086Y-11497984D01*
X10982086Y-11497984D02*
X10963039Y-11497984D01*
X10963039Y-11497984D02*
X10943991Y-11488460D01*
X10943991Y-11488460D02*
X10934467Y-11478936D01*
X10934467Y-11478936D02*
X10924944Y-11459888D01*
X10924944Y-11459888D02*
X10915420Y-11421793D01*
X10915420Y-11421793D02*
X10915420Y-11374174D01*
X10915420Y-11374174D02*
X10924944Y-11336079D01*
X10924944Y-11336079D02*
X10934467Y-11317031D01*
X10934467Y-11317031D02*
X10943991Y-11307508D01*
X10943991Y-11307508D02*
X10963039Y-11297984D01*
X11115420Y-11497984D02*
X11115420Y-11364650D01*
X11115420Y-11383698D02*
X11124944Y-11374174D01*
X11124944Y-11374174D02*
X11143991Y-11364650D01*
X11143991Y-11364650D02*
X11172563Y-11364650D01*
X11172563Y-11364650D02*
X11191610Y-11374174D01*
X11191610Y-11374174D02*
X11201134Y-11393222D01*
X11201134Y-11393222D02*
X11201134Y-11497984D01*
X11201134Y-11393222D02*
X11210658Y-11374174D01*
X11210658Y-11374174D02*
X11229705Y-11364650D01*
X11229705Y-11364650D02*
X11258277Y-11364650D01*
X11258277Y-11364650D02*
X11277324Y-11374174D01*
X11277324Y-11374174D02*
X11286848Y-11393222D01*
X11286848Y-11393222D02*
X11286848Y-11497984D01*
X11382086Y-11497984D02*
X11382086Y-11364650D01*
X11382086Y-11383698D02*
X11391610Y-11374174D01*
X11391610Y-11374174D02*
X11410658Y-11364650D01*
X11410658Y-11364650D02*
X11439229Y-11364650D01*
X11439229Y-11364650D02*
X11458277Y-11374174D01*
X11458277Y-11374174D02*
X11467801Y-11393222D01*
X11467801Y-11393222D02*
X11467801Y-11497984D01*
X11467801Y-11393222D02*
X11477324Y-11374174D01*
X11477324Y-11374174D02*
X11496372Y-11364650D01*
X11496372Y-11364650D02*
X11524943Y-11364650D01*
X11524943Y-11364650D02*
X11543991Y-11374174D01*
X11543991Y-11374174D02*
X11553515Y-11393222D01*
X11553515Y-11393222D02*
X11553515Y-11497984D01*
X11943991Y-11288460D02*
X11772563Y-11545603D01*
X12201134Y-11297984D02*
X12220182Y-11297984D01*
X12220182Y-11297984D02*
X12239229Y-11307508D01*
X12239229Y-11307508D02*
X12248753Y-11317031D01*
X12248753Y-11317031D02*
X12258277Y-11336079D01*
X12258277Y-11336079D02*
X12267801Y-11374174D01*
X12267801Y-11374174D02*
X12267801Y-11421793D01*
X12267801Y-11421793D02*
X12258277Y-11459888D01*
X12258277Y-11459888D02*
X12248753Y-11478936D01*
X12248753Y-11478936D02*
X12239229Y-11488460D01*
X12239229Y-11488460D02*
X12220182Y-11497984D01*
X12220182Y-11497984D02*
X12201134Y-11497984D01*
X12201134Y-11497984D02*
X12182086Y-11488460D01*
X12182086Y-11488460D02*
X12172563Y-11478936D01*
X12172563Y-11478936D02*
X12163039Y-11459888D01*
X12163039Y-11459888D02*
X12153515Y-11421793D01*
X12153515Y-11421793D02*
X12153515Y-11374174D01*
X12153515Y-11374174D02*
X12163039Y-11336079D01*
X12163039Y-11336079D02*
X12172563Y-11317031D01*
X12172563Y-11317031D02*
X12182086Y-11307508D01*
X12182086Y-11307508D02*
X12201134Y-11297984D01*
X12353515Y-11478936D02*
X12363039Y-11488460D01*
X12363039Y-11488460D02*
X12353515Y-11497984D01*
X12353515Y-11497984D02*
X12343991Y-11488460D01*
X12343991Y-11488460D02*
X12353515Y-11478936D01*
X12353515Y-11478936D02*
X12353515Y-11497984D01*
X12486848Y-11297984D02*
X12505896Y-11297984D01*
X12505896Y-11297984D02*
X12524944Y-11307508D01*
X12524944Y-11307508D02*
X12534467Y-11317031D01*
X12534467Y-11317031D02*
X12543991Y-11336079D01*
X12543991Y-11336079D02*
X12553515Y-11374174D01*
X12553515Y-11374174D02*
X12553515Y-11421793D01*
X12553515Y-11421793D02*
X12543991Y-11459888D01*
X12543991Y-11459888D02*
X12534467Y-11478936D01*
X12534467Y-11478936D02*
X12524944Y-11488460D01*
X12524944Y-11488460D02*
X12505896Y-11497984D01*
X12505896Y-11497984D02*
X12486848Y-11497984D01*
X12486848Y-11497984D02*
X12467801Y-11488460D01*
X12467801Y-11488460D02*
X12458277Y-11478936D01*
X12458277Y-11478936D02*
X12448753Y-11459888D01*
X12448753Y-11459888D02*
X12439229Y-11421793D01*
X12439229Y-11421793D02*
X12439229Y-11374174D01*
X12439229Y-11374174D02*
X12448753Y-11336079D01*
X12448753Y-11336079D02*
X12458277Y-11317031D01*
X12458277Y-11317031D02*
X12467801Y-11307508D01*
X12467801Y-11307508D02*
X12486848Y-11297984D01*
X12724944Y-11364650D02*
X12724944Y-11497984D01*
X12677325Y-11288460D02*
X12629706Y-11431317D01*
X12629706Y-11431317D02*
X12753515Y-11431317D01*
X12810658Y-11297984D02*
X12943991Y-11297984D01*
X12943991Y-11297984D02*
X12858277Y-11497984D01*
X13010658Y-11317031D02*
X13020182Y-11307508D01*
X13020182Y-11307508D02*
X13039229Y-11297984D01*
X13039229Y-11297984D02*
X13086848Y-11297984D01*
X13086848Y-11297984D02*
X13105896Y-11307508D01*
X13105896Y-11307508D02*
X13115420Y-11317031D01*
X13115420Y-11317031D02*
X13124944Y-11336079D01*
X13124944Y-11336079D02*
X13124944Y-11355127D01*
X13124944Y-11355127D02*
X13115420Y-11383698D01*
X13115420Y-11383698D02*
X13001134Y-11497984D01*
X13001134Y-11497984D02*
X13124944Y-11497984D01*
X13201134Y-11297984D02*
X13201134Y-11336079D01*
X13277325Y-11297984D02*
X13277325Y-11336079D01*
X13572563Y-11574174D02*
X13563039Y-11564650D01*
X13563039Y-11564650D02*
X13543991Y-11536079D01*
X13543991Y-11536079D02*
X13534468Y-11517031D01*
X13534468Y-11517031D02*
X13524944Y-11488460D01*
X13524944Y-11488460D02*
X13515420Y-11440841D01*
X13515420Y-11440841D02*
X13515420Y-11402746D01*
X13515420Y-11402746D02*
X13524944Y-11355127D01*
X13524944Y-11355127D02*
X13534468Y-11326555D01*
X13534468Y-11326555D02*
X13543991Y-11307508D01*
X13543991Y-11307508D02*
X13563039Y-11278936D01*
X13563039Y-11278936D02*
X13572563Y-11269412D01*
X13753515Y-11497984D02*
X13639229Y-11497984D01*
X13696372Y-11497984D02*
X13696372Y-11297984D01*
X13696372Y-11297984D02*
X13677325Y-11326555D01*
X13677325Y-11326555D02*
X13658277Y-11345603D01*
X13658277Y-11345603D02*
X13639229Y-11355127D01*
X13991610Y-11497984D02*
X13991610Y-11297984D01*
X14077325Y-11497984D02*
X14077325Y-11393222D01*
X14077325Y-11393222D02*
X14067801Y-11374174D01*
X14067801Y-11374174D02*
X14048753Y-11364650D01*
X14048753Y-11364650D02*
X14020182Y-11364650D01*
X14020182Y-11364650D02*
X14001134Y-11374174D01*
X14001134Y-11374174D02*
X13991610Y-11383698D01*
X14201134Y-11497984D02*
X14182087Y-11488460D01*
X14182087Y-11488460D02*
X14172563Y-11478936D01*
X14172563Y-11478936D02*
X14163039Y-11459888D01*
X14163039Y-11459888D02*
X14163039Y-11402746D01*
X14163039Y-11402746D02*
X14172563Y-11383698D01*
X14172563Y-11383698D02*
X14182087Y-11374174D01*
X14182087Y-11374174D02*
X14201134Y-11364650D01*
X14201134Y-11364650D02*
X14229706Y-11364650D01*
X14229706Y-11364650D02*
X14248753Y-11374174D01*
X14248753Y-11374174D02*
X14258277Y-11383698D01*
X14258277Y-11383698D02*
X14267801Y-11402746D01*
X14267801Y-11402746D02*
X14267801Y-11459888D01*
X14267801Y-11459888D02*
X14258277Y-11478936D01*
X14258277Y-11478936D02*
X14248753Y-11488460D01*
X14248753Y-11488460D02*
X14229706Y-11497984D01*
X14229706Y-11497984D02*
X14201134Y-11497984D01*
X14382087Y-11497984D02*
X14363039Y-11488460D01*
X14363039Y-11488460D02*
X14353515Y-11469412D01*
X14353515Y-11469412D02*
X14353515Y-11297984D01*
X14534468Y-11488460D02*
X14515420Y-11497984D01*
X14515420Y-11497984D02*
X14477325Y-11497984D01*
X14477325Y-11497984D02*
X14458277Y-11488460D01*
X14458277Y-11488460D02*
X14448753Y-11469412D01*
X14448753Y-11469412D02*
X14448753Y-11393222D01*
X14448753Y-11393222D02*
X14458277Y-11374174D01*
X14458277Y-11374174D02*
X14477325Y-11364650D01*
X14477325Y-11364650D02*
X14515420Y-11364650D01*
X14515420Y-11364650D02*
X14534468Y-11374174D01*
X14534468Y-11374174D02*
X14543991Y-11393222D01*
X14543991Y-11393222D02*
X14543991Y-11412269D01*
X14543991Y-11412269D02*
X14448753Y-11431317D01*
X14610658Y-11574174D02*
X14620182Y-11564650D01*
X14620182Y-11564650D02*
X14639230Y-11536079D01*
X14639230Y-11536079D02*
X14648753Y-11517031D01*
X14648753Y-11517031D02*
X14658277Y-11488460D01*
X14658277Y-11488460D02*
X14667801Y-11440841D01*
X14667801Y-11440841D02*
X14667801Y-11402746D01*
X14667801Y-11402746D02*
X14658277Y-11355127D01*
X14658277Y-11355127D02*
X14648753Y-11326555D01*
X14648753Y-11326555D02*
X14639230Y-11307508D01*
X14639230Y-11307508D02*
X14620182Y-11278936D01*
X14620182Y-11278936D02*
X14610658Y-11269412D01*
X14972563Y-11574174D02*
X14963039Y-11564650D01*
X14963039Y-11564650D02*
X14943991Y-11536079D01*
X14943991Y-11536079D02*
X14934468Y-11517031D01*
X14934468Y-11517031D02*
X14924944Y-11488460D01*
X14924944Y-11488460D02*
X14915420Y-11440841D01*
X14915420Y-11440841D02*
X14915420Y-11402746D01*
X14915420Y-11402746D02*
X14924944Y-11355127D01*
X14924944Y-11355127D02*
X14934468Y-11326555D01*
X14934468Y-11326555D02*
X14943991Y-11307508D01*
X14943991Y-11307508D02*
X14963039Y-11278936D01*
X14963039Y-11278936D02*
X14972563Y-11269412D01*
X15048753Y-11364650D02*
X15048753Y-11497984D01*
X15048753Y-11383698D02*
X15058277Y-11374174D01*
X15058277Y-11374174D02*
X15077325Y-11364650D01*
X15077325Y-11364650D02*
X15105896Y-11364650D01*
X15105896Y-11364650D02*
X15124944Y-11374174D01*
X15124944Y-11374174D02*
X15134468Y-11393222D01*
X15134468Y-11393222D02*
X15134468Y-11497984D01*
X15258277Y-11497984D02*
X15239230Y-11488460D01*
X15239230Y-11488460D02*
X15229706Y-11478936D01*
X15229706Y-11478936D02*
X15220182Y-11459888D01*
X15220182Y-11459888D02*
X15220182Y-11402746D01*
X15220182Y-11402746D02*
X15229706Y-11383698D01*
X15229706Y-11383698D02*
X15239230Y-11374174D01*
X15239230Y-11374174D02*
X15258277Y-11364650D01*
X15258277Y-11364650D02*
X15286849Y-11364650D01*
X15286849Y-11364650D02*
X15305896Y-11374174D01*
X15305896Y-11374174D02*
X15315420Y-11383698D01*
X15315420Y-11383698D02*
X15324944Y-11402746D01*
X15324944Y-11402746D02*
X15324944Y-11459888D01*
X15324944Y-11459888D02*
X15315420Y-11478936D01*
X15315420Y-11478936D02*
X15305896Y-11488460D01*
X15305896Y-11488460D02*
X15286849Y-11497984D01*
X15286849Y-11497984D02*
X15258277Y-11497984D01*
X15382087Y-11364650D02*
X15458277Y-11364650D01*
X15410658Y-11297984D02*
X15410658Y-11469412D01*
X15410658Y-11469412D02*
X15420182Y-11488460D01*
X15420182Y-11488460D02*
X15439230Y-11497984D01*
X15439230Y-11497984D02*
X15458277Y-11497984D01*
X15677325Y-11364650D02*
X15677325Y-11564650D01*
X15677325Y-11374174D02*
X15696372Y-11364650D01*
X15696372Y-11364650D02*
X15734468Y-11364650D01*
X15734468Y-11364650D02*
X15753515Y-11374174D01*
X15753515Y-11374174D02*
X15763039Y-11383698D01*
X15763039Y-11383698D02*
X15772563Y-11402746D01*
X15772563Y-11402746D02*
X15772563Y-11459888D01*
X15772563Y-11459888D02*
X15763039Y-11478936D01*
X15763039Y-11478936D02*
X15753515Y-11488460D01*
X15753515Y-11488460D02*
X15734468Y-11497984D01*
X15734468Y-11497984D02*
X15696372Y-11497984D01*
X15696372Y-11497984D02*
X15677325Y-11488460D01*
X15886849Y-11497984D02*
X15867801Y-11488460D01*
X15867801Y-11488460D02*
X15858277Y-11469412D01*
X15858277Y-11469412D02*
X15858277Y-11297984D01*
X16048753Y-11497984D02*
X16048753Y-11393222D01*
X16048753Y-11393222D02*
X16039230Y-11374174D01*
X16039230Y-11374174D02*
X16020182Y-11364650D01*
X16020182Y-11364650D02*
X15982087Y-11364650D01*
X15982087Y-11364650D02*
X15963039Y-11374174D01*
X16048753Y-11488460D02*
X16029706Y-11497984D01*
X16029706Y-11497984D02*
X15982087Y-11497984D01*
X15982087Y-11497984D02*
X15963039Y-11488460D01*
X15963039Y-11488460D02*
X15953515Y-11469412D01*
X15953515Y-11469412D02*
X15953515Y-11450365D01*
X15953515Y-11450365D02*
X15963039Y-11431317D01*
X15963039Y-11431317D02*
X15982087Y-11421793D01*
X15982087Y-11421793D02*
X16029706Y-11421793D01*
X16029706Y-11421793D02*
X16048753Y-11412269D01*
X16115420Y-11364650D02*
X16191611Y-11364650D01*
X16143992Y-11297984D02*
X16143992Y-11469412D01*
X16143992Y-11469412D02*
X16153515Y-11488460D01*
X16153515Y-11488460D02*
X16172563Y-11497984D01*
X16172563Y-11497984D02*
X16191611Y-11497984D01*
X16334468Y-11488460D02*
X16315420Y-11497984D01*
X16315420Y-11497984D02*
X16277325Y-11497984D01*
X16277325Y-11497984D02*
X16258277Y-11488460D01*
X16258277Y-11488460D02*
X16248753Y-11469412D01*
X16248753Y-11469412D02*
X16248753Y-11393222D01*
X16248753Y-11393222D02*
X16258277Y-11374174D01*
X16258277Y-11374174D02*
X16277325Y-11364650D01*
X16277325Y-11364650D02*
X16315420Y-11364650D01*
X16315420Y-11364650D02*
X16334468Y-11374174D01*
X16334468Y-11374174D02*
X16343992Y-11393222D01*
X16343992Y-11393222D02*
X16343992Y-11412269D01*
X16343992Y-11412269D02*
X16248753Y-11431317D01*
X16515420Y-11497984D02*
X16515420Y-11297984D01*
X16515420Y-11488460D02*
X16496373Y-11497984D01*
X16496373Y-11497984D02*
X16458277Y-11497984D01*
X16458277Y-11497984D02*
X16439230Y-11488460D01*
X16439230Y-11488460D02*
X16429706Y-11478936D01*
X16429706Y-11478936D02*
X16420182Y-11459888D01*
X16420182Y-11459888D02*
X16420182Y-11402746D01*
X16420182Y-11402746D02*
X16429706Y-11383698D01*
X16429706Y-11383698D02*
X16439230Y-11374174D01*
X16439230Y-11374174D02*
X16458277Y-11364650D01*
X16458277Y-11364650D02*
X16496373Y-11364650D01*
X16496373Y-11364650D02*
X16515420Y-11374174D01*
X16591611Y-11574174D02*
X16601134Y-11564650D01*
X16601134Y-11564650D02*
X16620182Y-11536079D01*
X16620182Y-11536079D02*
X16629706Y-11517031D01*
X16629706Y-11517031D02*
X16639230Y-11488460D01*
X16639230Y-11488460D02*
X16648753Y-11440841D01*
X16648753Y-11440841D02*
X16648753Y-11402746D01*
X16648753Y-11402746D02*
X16639230Y-11355127D01*
X16639230Y-11355127D02*
X16629706Y-11326555D01*
X16629706Y-11326555D02*
X16620182Y-11307508D01*
X16620182Y-11307508D02*
X16601134Y-11278936D01*
X16601134Y-11278936D02*
X16591611Y-11269412D01*
X9897500Y-11570500D02*
X9897500Y-11770500D01*
X9797500Y-11670500D02*
X9997500Y-11670500D01*
X10239229Y-11561984D02*
X10363039Y-11561984D01*
X10363039Y-11561984D02*
X10296372Y-11638174D01*
X10296372Y-11638174D02*
X10324944Y-11638174D01*
X10324944Y-11638174D02*
X10343991Y-11647698D01*
X10343991Y-11647698D02*
X10353515Y-11657222D01*
X10353515Y-11657222D02*
X10363039Y-11676269D01*
X10363039Y-11676269D02*
X10363039Y-11723888D01*
X10363039Y-11723888D02*
X10353515Y-11742936D01*
X10353515Y-11742936D02*
X10343991Y-11752460D01*
X10343991Y-11752460D02*
X10324944Y-11761984D01*
X10324944Y-11761984D02*
X10267801Y-11761984D01*
X10267801Y-11761984D02*
X10248753Y-11752460D01*
X10248753Y-11752460D02*
X10239229Y-11742936D01*
X10448753Y-11742936D02*
X10458277Y-11752460D01*
X10458277Y-11752460D02*
X10448753Y-11761984D01*
X10448753Y-11761984D02*
X10439229Y-11752460D01*
X10439229Y-11752460D02*
X10448753Y-11742936D01*
X10448753Y-11742936D02*
X10448753Y-11761984D01*
X10534467Y-11581031D02*
X10543991Y-11571508D01*
X10543991Y-11571508D02*
X10563039Y-11561984D01*
X10563039Y-11561984D02*
X10610658Y-11561984D01*
X10610658Y-11561984D02*
X10629705Y-11571508D01*
X10629705Y-11571508D02*
X10639229Y-11581031D01*
X10639229Y-11581031D02*
X10648753Y-11600079D01*
X10648753Y-11600079D02*
X10648753Y-11619127D01*
X10648753Y-11619127D02*
X10639229Y-11647698D01*
X10639229Y-11647698D02*
X10524944Y-11761984D01*
X10524944Y-11761984D02*
X10648753Y-11761984D01*
X10772563Y-11561984D02*
X10791610Y-11561984D01*
X10791610Y-11561984D02*
X10810658Y-11571508D01*
X10810658Y-11571508D02*
X10820182Y-11581031D01*
X10820182Y-11581031D02*
X10829705Y-11600079D01*
X10829705Y-11600079D02*
X10839229Y-11638174D01*
X10839229Y-11638174D02*
X10839229Y-11685793D01*
X10839229Y-11685793D02*
X10829705Y-11723888D01*
X10829705Y-11723888D02*
X10820182Y-11742936D01*
X10820182Y-11742936D02*
X10810658Y-11752460D01*
X10810658Y-11752460D02*
X10791610Y-11761984D01*
X10791610Y-11761984D02*
X10772563Y-11761984D01*
X10772563Y-11761984D02*
X10753515Y-11752460D01*
X10753515Y-11752460D02*
X10743991Y-11742936D01*
X10743991Y-11742936D02*
X10734467Y-11723888D01*
X10734467Y-11723888D02*
X10724944Y-11685793D01*
X10724944Y-11685793D02*
X10724944Y-11638174D01*
X10724944Y-11638174D02*
X10734467Y-11600079D01*
X10734467Y-11600079D02*
X10743991Y-11581031D01*
X10743991Y-11581031D02*
X10753515Y-11571508D01*
X10753515Y-11571508D02*
X10772563Y-11561984D01*
X10963039Y-11561984D02*
X10982086Y-11561984D01*
X10982086Y-11561984D02*
X11001134Y-11571508D01*
X11001134Y-11571508D02*
X11010658Y-11581031D01*
X11010658Y-11581031D02*
X11020182Y-11600079D01*
X11020182Y-11600079D02*
X11029705Y-11638174D01*
X11029705Y-11638174D02*
X11029705Y-11685793D01*
X11029705Y-11685793D02*
X11020182Y-11723888D01*
X11020182Y-11723888D02*
X11010658Y-11742936D01*
X11010658Y-11742936D02*
X11001134Y-11752460D01*
X11001134Y-11752460D02*
X10982086Y-11761984D01*
X10982086Y-11761984D02*
X10963039Y-11761984D01*
X10963039Y-11761984D02*
X10943991Y-11752460D01*
X10943991Y-11752460D02*
X10934467Y-11742936D01*
X10934467Y-11742936D02*
X10924944Y-11723888D01*
X10924944Y-11723888D02*
X10915420Y-11685793D01*
X10915420Y-11685793D02*
X10915420Y-11638174D01*
X10915420Y-11638174D02*
X10924944Y-11600079D01*
X10924944Y-11600079D02*
X10934467Y-11581031D01*
X10934467Y-11581031D02*
X10943991Y-11571508D01*
X10943991Y-11571508D02*
X10963039Y-11561984D01*
X11115420Y-11761984D02*
X11115420Y-11628650D01*
X11115420Y-11647698D02*
X11124944Y-11638174D01*
X11124944Y-11638174D02*
X11143991Y-11628650D01*
X11143991Y-11628650D02*
X11172563Y-11628650D01*
X11172563Y-11628650D02*
X11191610Y-11638174D01*
X11191610Y-11638174D02*
X11201134Y-11657222D01*
X11201134Y-11657222D02*
X11201134Y-11761984D01*
X11201134Y-11657222D02*
X11210658Y-11638174D01*
X11210658Y-11638174D02*
X11229705Y-11628650D01*
X11229705Y-11628650D02*
X11258277Y-11628650D01*
X11258277Y-11628650D02*
X11277324Y-11638174D01*
X11277324Y-11638174D02*
X11286848Y-11657222D01*
X11286848Y-11657222D02*
X11286848Y-11761984D01*
X11382086Y-11761984D02*
X11382086Y-11628650D01*
X11382086Y-11647698D02*
X11391610Y-11638174D01*
X11391610Y-11638174D02*
X11410658Y-11628650D01*
X11410658Y-11628650D02*
X11439229Y-11628650D01*
X11439229Y-11628650D02*
X11458277Y-11638174D01*
X11458277Y-11638174D02*
X11467801Y-11657222D01*
X11467801Y-11657222D02*
X11467801Y-11761984D01*
X11467801Y-11657222D02*
X11477324Y-11638174D01*
X11477324Y-11638174D02*
X11496372Y-11628650D01*
X11496372Y-11628650D02*
X11524943Y-11628650D01*
X11524943Y-11628650D02*
X11543991Y-11638174D01*
X11543991Y-11638174D02*
X11553515Y-11657222D01*
X11553515Y-11657222D02*
X11553515Y-11761984D01*
X11943991Y-11552460D02*
X11772563Y-11809603D01*
X12201134Y-11561984D02*
X12220182Y-11561984D01*
X12220182Y-11561984D02*
X12239229Y-11571508D01*
X12239229Y-11571508D02*
X12248753Y-11581031D01*
X12248753Y-11581031D02*
X12258277Y-11600079D01*
X12258277Y-11600079D02*
X12267801Y-11638174D01*
X12267801Y-11638174D02*
X12267801Y-11685793D01*
X12267801Y-11685793D02*
X12258277Y-11723888D01*
X12258277Y-11723888D02*
X12248753Y-11742936D01*
X12248753Y-11742936D02*
X12239229Y-11752460D01*
X12239229Y-11752460D02*
X12220182Y-11761984D01*
X12220182Y-11761984D02*
X12201134Y-11761984D01*
X12201134Y-11761984D02*
X12182086Y-11752460D01*
X12182086Y-11752460D02*
X12172563Y-11742936D01*
X12172563Y-11742936D02*
X12163039Y-11723888D01*
X12163039Y-11723888D02*
X12153515Y-11685793D01*
X12153515Y-11685793D02*
X12153515Y-11638174D01*
X12153515Y-11638174D02*
X12163039Y-11600079D01*
X12163039Y-11600079D02*
X12172563Y-11581031D01*
X12172563Y-11581031D02*
X12182086Y-11571508D01*
X12182086Y-11571508D02*
X12201134Y-11561984D01*
X12353515Y-11742936D02*
X12363039Y-11752460D01*
X12363039Y-11752460D02*
X12353515Y-11761984D01*
X12353515Y-11761984D02*
X12343991Y-11752460D01*
X12343991Y-11752460D02*
X12353515Y-11742936D01*
X12353515Y-11742936D02*
X12353515Y-11761984D01*
X12553515Y-11761984D02*
X12439229Y-11761984D01*
X12496372Y-11761984D02*
X12496372Y-11561984D01*
X12496372Y-11561984D02*
X12477325Y-11590555D01*
X12477325Y-11590555D02*
X12458277Y-11609603D01*
X12458277Y-11609603D02*
X12439229Y-11619127D01*
X12629706Y-11581031D02*
X12639229Y-11571508D01*
X12639229Y-11571508D02*
X12658277Y-11561984D01*
X12658277Y-11561984D02*
X12705896Y-11561984D01*
X12705896Y-11561984D02*
X12724944Y-11571508D01*
X12724944Y-11571508D02*
X12734467Y-11581031D01*
X12734467Y-11581031D02*
X12743991Y-11600079D01*
X12743991Y-11600079D02*
X12743991Y-11619127D01*
X12743991Y-11619127D02*
X12734467Y-11647698D01*
X12734467Y-11647698D02*
X12620182Y-11761984D01*
X12620182Y-11761984D02*
X12743991Y-11761984D01*
X12915420Y-11561984D02*
X12877325Y-11561984D01*
X12877325Y-11561984D02*
X12858277Y-11571508D01*
X12858277Y-11571508D02*
X12848753Y-11581031D01*
X12848753Y-11581031D02*
X12829706Y-11609603D01*
X12829706Y-11609603D02*
X12820182Y-11647698D01*
X12820182Y-11647698D02*
X12820182Y-11723888D01*
X12820182Y-11723888D02*
X12829706Y-11742936D01*
X12829706Y-11742936D02*
X12839229Y-11752460D01*
X12839229Y-11752460D02*
X12858277Y-11761984D01*
X12858277Y-11761984D02*
X12896372Y-11761984D01*
X12896372Y-11761984D02*
X12915420Y-11752460D01*
X12915420Y-11752460D02*
X12924944Y-11742936D01*
X12924944Y-11742936D02*
X12934467Y-11723888D01*
X12934467Y-11723888D02*
X12934467Y-11676269D01*
X12934467Y-11676269D02*
X12924944Y-11657222D01*
X12924944Y-11657222D02*
X12915420Y-11647698D01*
X12915420Y-11647698D02*
X12896372Y-11638174D01*
X12896372Y-11638174D02*
X12858277Y-11638174D01*
X12858277Y-11638174D02*
X12839229Y-11647698D01*
X12839229Y-11647698D02*
X12829706Y-11657222D01*
X12829706Y-11657222D02*
X12820182Y-11676269D01*
X13058277Y-11561984D02*
X13077325Y-11561984D01*
X13077325Y-11561984D02*
X13096372Y-11571508D01*
X13096372Y-11571508D02*
X13105896Y-11581031D01*
X13105896Y-11581031D02*
X13115420Y-11600079D01*
X13115420Y-11600079D02*
X13124944Y-11638174D01*
X13124944Y-11638174D02*
X13124944Y-11685793D01*
X13124944Y-11685793D02*
X13115420Y-11723888D01*
X13115420Y-11723888D02*
X13105896Y-11742936D01*
X13105896Y-11742936D02*
X13096372Y-11752460D01*
X13096372Y-11752460D02*
X13077325Y-11761984D01*
X13077325Y-11761984D02*
X13058277Y-11761984D01*
X13058277Y-11761984D02*
X13039229Y-11752460D01*
X13039229Y-11752460D02*
X13029706Y-11742936D01*
X13029706Y-11742936D02*
X13020182Y-11723888D01*
X13020182Y-11723888D02*
X13010658Y-11685793D01*
X13010658Y-11685793D02*
X13010658Y-11638174D01*
X13010658Y-11638174D02*
X13020182Y-11600079D01*
X13020182Y-11600079D02*
X13029706Y-11581031D01*
X13029706Y-11581031D02*
X13039229Y-11571508D01*
X13039229Y-11571508D02*
X13058277Y-11561984D01*
X13201134Y-11561984D02*
X13201134Y-11600079D01*
X13277325Y-11561984D02*
X13277325Y-11600079D01*
X13572563Y-11838174D02*
X13563039Y-11828650D01*
X13563039Y-11828650D02*
X13543991Y-11800079D01*
X13543991Y-11800079D02*
X13534468Y-11781031D01*
X13534468Y-11781031D02*
X13524944Y-11752460D01*
X13524944Y-11752460D02*
X13515420Y-11704841D01*
X13515420Y-11704841D02*
X13515420Y-11666746D01*
X13515420Y-11666746D02*
X13524944Y-11619127D01*
X13524944Y-11619127D02*
X13534468Y-11590555D01*
X13534468Y-11590555D02*
X13543991Y-11571508D01*
X13543991Y-11571508D02*
X13563039Y-11542936D01*
X13563039Y-11542936D02*
X13572563Y-11533412D01*
X13639229Y-11581031D02*
X13648753Y-11571508D01*
X13648753Y-11571508D02*
X13667801Y-11561984D01*
X13667801Y-11561984D02*
X13715420Y-11561984D01*
X13715420Y-11561984D02*
X13734468Y-11571508D01*
X13734468Y-11571508D02*
X13743991Y-11581031D01*
X13743991Y-11581031D02*
X13753515Y-11600079D01*
X13753515Y-11600079D02*
X13753515Y-11619127D01*
X13753515Y-11619127D02*
X13743991Y-11647698D01*
X13743991Y-11647698D02*
X13629706Y-11761984D01*
X13629706Y-11761984D02*
X13753515Y-11761984D01*
X13991610Y-11761984D02*
X13991610Y-11561984D01*
X14077325Y-11761984D02*
X14077325Y-11657222D01*
X14077325Y-11657222D02*
X14067801Y-11638174D01*
X14067801Y-11638174D02*
X14048753Y-11628650D01*
X14048753Y-11628650D02*
X14020182Y-11628650D01*
X14020182Y-11628650D02*
X14001134Y-11638174D01*
X14001134Y-11638174D02*
X13991610Y-11647698D01*
X14201134Y-11761984D02*
X14182087Y-11752460D01*
X14182087Y-11752460D02*
X14172563Y-11742936D01*
X14172563Y-11742936D02*
X14163039Y-11723888D01*
X14163039Y-11723888D02*
X14163039Y-11666746D01*
X14163039Y-11666746D02*
X14172563Y-11647698D01*
X14172563Y-11647698D02*
X14182087Y-11638174D01*
X14182087Y-11638174D02*
X14201134Y-11628650D01*
X14201134Y-11628650D02*
X14229706Y-11628650D01*
X14229706Y-11628650D02*
X14248753Y-11638174D01*
X14248753Y-11638174D02*
X14258277Y-11647698D01*
X14258277Y-11647698D02*
X14267801Y-11666746D01*
X14267801Y-11666746D02*
X14267801Y-11723888D01*
X14267801Y-11723888D02*
X14258277Y-11742936D01*
X14258277Y-11742936D02*
X14248753Y-11752460D01*
X14248753Y-11752460D02*
X14229706Y-11761984D01*
X14229706Y-11761984D02*
X14201134Y-11761984D01*
X14382087Y-11761984D02*
X14363039Y-11752460D01*
X14363039Y-11752460D02*
X14353515Y-11733412D01*
X14353515Y-11733412D02*
X14353515Y-11561984D01*
X14534468Y-11752460D02*
X14515420Y-11761984D01*
X14515420Y-11761984D02*
X14477325Y-11761984D01*
X14477325Y-11761984D02*
X14458277Y-11752460D01*
X14458277Y-11752460D02*
X14448753Y-11733412D01*
X14448753Y-11733412D02*
X14448753Y-11657222D01*
X14448753Y-11657222D02*
X14458277Y-11638174D01*
X14458277Y-11638174D02*
X14477325Y-11628650D01*
X14477325Y-11628650D02*
X14515420Y-11628650D01*
X14515420Y-11628650D02*
X14534468Y-11638174D01*
X14534468Y-11638174D02*
X14543991Y-11657222D01*
X14543991Y-11657222D02*
X14543991Y-11676269D01*
X14543991Y-11676269D02*
X14448753Y-11695317D01*
X14620182Y-11752460D02*
X14639230Y-11761984D01*
X14639230Y-11761984D02*
X14677325Y-11761984D01*
X14677325Y-11761984D02*
X14696372Y-11752460D01*
X14696372Y-11752460D02*
X14705896Y-11733412D01*
X14705896Y-11733412D02*
X14705896Y-11723888D01*
X14705896Y-11723888D02*
X14696372Y-11704841D01*
X14696372Y-11704841D02*
X14677325Y-11695317D01*
X14677325Y-11695317D02*
X14648753Y-11695317D01*
X14648753Y-11695317D02*
X14629706Y-11685793D01*
X14629706Y-11685793D02*
X14620182Y-11666746D01*
X14620182Y-11666746D02*
X14620182Y-11657222D01*
X14620182Y-11657222D02*
X14629706Y-11638174D01*
X14629706Y-11638174D02*
X14648753Y-11628650D01*
X14648753Y-11628650D02*
X14677325Y-11628650D01*
X14677325Y-11628650D02*
X14696372Y-11638174D01*
X14772563Y-11838174D02*
X14782087Y-11828650D01*
X14782087Y-11828650D02*
X14801134Y-11800079D01*
X14801134Y-11800079D02*
X14810658Y-11781031D01*
X14810658Y-11781031D02*
X14820182Y-11752460D01*
X14820182Y-11752460D02*
X14829706Y-11704841D01*
X14829706Y-11704841D02*
X14829706Y-11666746D01*
X14829706Y-11666746D02*
X14820182Y-11619127D01*
X14820182Y-11619127D02*
X14810658Y-11590555D01*
X14810658Y-11590555D02*
X14801134Y-11571508D01*
X14801134Y-11571508D02*
X14782087Y-11542936D01*
X14782087Y-11542936D02*
X14772563Y-11533412D01*
X15134468Y-11838174D02*
X15124944Y-11828650D01*
X15124944Y-11828650D02*
X15105896Y-11800079D01*
X15105896Y-11800079D02*
X15096372Y-11781031D01*
X15096372Y-11781031D02*
X15086849Y-11752460D01*
X15086849Y-11752460D02*
X15077325Y-11704841D01*
X15077325Y-11704841D02*
X15077325Y-11666746D01*
X15077325Y-11666746D02*
X15086849Y-11619127D01*
X15086849Y-11619127D02*
X15096372Y-11590555D01*
X15096372Y-11590555D02*
X15105896Y-11571508D01*
X15105896Y-11571508D02*
X15124944Y-11542936D01*
X15124944Y-11542936D02*
X15134468Y-11533412D01*
X15210658Y-11628650D02*
X15210658Y-11761984D01*
X15210658Y-11647698D02*
X15220182Y-11638174D01*
X15220182Y-11638174D02*
X15239230Y-11628650D01*
X15239230Y-11628650D02*
X15267801Y-11628650D01*
X15267801Y-11628650D02*
X15286849Y-11638174D01*
X15286849Y-11638174D02*
X15296372Y-11657222D01*
X15296372Y-11657222D02*
X15296372Y-11761984D01*
X15420182Y-11761984D02*
X15401134Y-11752460D01*
X15401134Y-11752460D02*
X15391611Y-11742936D01*
X15391611Y-11742936D02*
X15382087Y-11723888D01*
X15382087Y-11723888D02*
X15382087Y-11666746D01*
X15382087Y-11666746D02*
X15391611Y-11647698D01*
X15391611Y-11647698D02*
X15401134Y-11638174D01*
X15401134Y-11638174D02*
X15420182Y-11628650D01*
X15420182Y-11628650D02*
X15448753Y-11628650D01*
X15448753Y-11628650D02*
X15467801Y-11638174D01*
X15467801Y-11638174D02*
X15477325Y-11647698D01*
X15477325Y-11647698D02*
X15486849Y-11666746D01*
X15486849Y-11666746D02*
X15486849Y-11723888D01*
X15486849Y-11723888D02*
X15477325Y-11742936D01*
X15477325Y-11742936D02*
X15467801Y-11752460D01*
X15467801Y-11752460D02*
X15448753Y-11761984D01*
X15448753Y-11761984D02*
X15420182Y-11761984D01*
X15543992Y-11628650D02*
X15620182Y-11628650D01*
X15572563Y-11561984D02*
X15572563Y-11733412D01*
X15572563Y-11733412D02*
X15582087Y-11752460D01*
X15582087Y-11752460D02*
X15601134Y-11761984D01*
X15601134Y-11761984D02*
X15620182Y-11761984D01*
X15839230Y-11628650D02*
X15839230Y-11828650D01*
X15839230Y-11638174D02*
X15858277Y-11628650D01*
X15858277Y-11628650D02*
X15896373Y-11628650D01*
X15896373Y-11628650D02*
X15915420Y-11638174D01*
X15915420Y-11638174D02*
X15924944Y-11647698D01*
X15924944Y-11647698D02*
X15934468Y-11666746D01*
X15934468Y-11666746D02*
X15934468Y-11723888D01*
X15934468Y-11723888D02*
X15924944Y-11742936D01*
X15924944Y-11742936D02*
X15915420Y-11752460D01*
X15915420Y-11752460D02*
X15896373Y-11761984D01*
X15896373Y-11761984D02*
X15858277Y-11761984D01*
X15858277Y-11761984D02*
X15839230Y-11752460D01*
X16048753Y-11761984D02*
X16029706Y-11752460D01*
X16029706Y-11752460D02*
X16020182Y-11733412D01*
X16020182Y-11733412D02*
X16020182Y-11561984D01*
X16210658Y-11761984D02*
X16210658Y-11657222D01*
X16210658Y-11657222D02*
X16201134Y-11638174D01*
X16201134Y-11638174D02*
X16182087Y-11628650D01*
X16182087Y-11628650D02*
X16143992Y-11628650D01*
X16143992Y-11628650D02*
X16124944Y-11638174D01*
X16210658Y-11752460D02*
X16191611Y-11761984D01*
X16191611Y-11761984D02*
X16143992Y-11761984D01*
X16143992Y-11761984D02*
X16124944Y-11752460D01*
X16124944Y-11752460D02*
X16115420Y-11733412D01*
X16115420Y-11733412D02*
X16115420Y-11714365D01*
X16115420Y-11714365D02*
X16124944Y-11695317D01*
X16124944Y-11695317D02*
X16143992Y-11685793D01*
X16143992Y-11685793D02*
X16191611Y-11685793D01*
X16191611Y-11685793D02*
X16210658Y-11676269D01*
X16277325Y-11628650D02*
X16353515Y-11628650D01*
X16305896Y-11561984D02*
X16305896Y-11733412D01*
X16305896Y-11733412D02*
X16315420Y-11752460D01*
X16315420Y-11752460D02*
X16334468Y-11761984D01*
X16334468Y-11761984D02*
X16353515Y-11761984D01*
X16496373Y-11752460D02*
X16477325Y-11761984D01*
X16477325Y-11761984D02*
X16439230Y-11761984D01*
X16439230Y-11761984D02*
X16420182Y-11752460D01*
X16420182Y-11752460D02*
X16410658Y-11733412D01*
X16410658Y-11733412D02*
X16410658Y-11657222D01*
X16410658Y-11657222D02*
X16420182Y-11638174D01*
X16420182Y-11638174D02*
X16439230Y-11628650D01*
X16439230Y-11628650D02*
X16477325Y-11628650D01*
X16477325Y-11628650D02*
X16496373Y-11638174D01*
X16496373Y-11638174D02*
X16505896Y-11657222D01*
X16505896Y-11657222D02*
X16505896Y-11676269D01*
X16505896Y-11676269D02*
X16410658Y-11695317D01*
X16677325Y-11761984D02*
X16677325Y-11561984D01*
X16677325Y-11752460D02*
X16658277Y-11761984D01*
X16658277Y-11761984D02*
X16620182Y-11761984D01*
X16620182Y-11761984D02*
X16601134Y-11752460D01*
X16601134Y-11752460D02*
X16591611Y-11742936D01*
X16591611Y-11742936D02*
X16582087Y-11723888D01*
X16582087Y-11723888D02*
X16582087Y-11666746D01*
X16582087Y-11666746D02*
X16591611Y-11647698D01*
X16591611Y-11647698D02*
X16601134Y-11638174D01*
X16601134Y-11638174D02*
X16620182Y-11628650D01*
X16620182Y-11628650D02*
X16658277Y-11628650D01*
X16658277Y-11628650D02*
X16677325Y-11638174D01*
X16753515Y-11838174D02*
X16763039Y-11828650D01*
X16763039Y-11828650D02*
X16782087Y-11800079D01*
X16782087Y-11800079D02*
X16791611Y-11781031D01*
X16791611Y-11781031D02*
X16801135Y-11752460D01*
X16801135Y-11752460D02*
X16810658Y-11704841D01*
X16810658Y-11704841D02*
X16810658Y-11666746D01*
X16810658Y-11666746D02*
X16801135Y-11619127D01*
X16801135Y-11619127D02*
X16791611Y-11590555D01*
X16791611Y-11590555D02*
X16782087Y-11571508D01*
X16782087Y-11571508D02*
X16763039Y-11542936D01*
X16763039Y-11542936D02*
X16753515Y-11533412D01*
X9968211Y-12061211D02*
X9968211Y-11919789D01*
X9826789Y-11919789D01*
X9826789Y-12061211D01*
X9968211Y-12061211D01*
X10239229Y-11881984D02*
X10363039Y-11881984D01*
X10363039Y-11881984D02*
X10296372Y-11958174D01*
X10296372Y-11958174D02*
X10324944Y-11958174D01*
X10324944Y-11958174D02*
X10343991Y-11967698D01*
X10343991Y-11967698D02*
X10353515Y-11977222D01*
X10353515Y-11977222D02*
X10363039Y-11996269D01*
X10363039Y-11996269D02*
X10363039Y-12043888D01*
X10363039Y-12043888D02*
X10353515Y-12062936D01*
X10353515Y-12062936D02*
X10343991Y-12072460D01*
X10343991Y-12072460D02*
X10324944Y-12081984D01*
X10324944Y-12081984D02*
X10267801Y-12081984D01*
X10267801Y-12081984D02*
X10248753Y-12072460D01*
X10248753Y-12072460D02*
X10239229Y-12062936D01*
X10448753Y-12062936D02*
X10458277Y-12072460D01*
X10458277Y-12072460D02*
X10448753Y-12081984D01*
X10448753Y-12081984D02*
X10439229Y-12072460D01*
X10439229Y-12072460D02*
X10448753Y-12062936D01*
X10448753Y-12062936D02*
X10448753Y-12081984D01*
X10534467Y-11901031D02*
X10543991Y-11891508D01*
X10543991Y-11891508D02*
X10563039Y-11881984D01*
X10563039Y-11881984D02*
X10610658Y-11881984D01*
X10610658Y-11881984D02*
X10629705Y-11891508D01*
X10629705Y-11891508D02*
X10639229Y-11901031D01*
X10639229Y-11901031D02*
X10648753Y-11920079D01*
X10648753Y-11920079D02*
X10648753Y-11939127D01*
X10648753Y-11939127D02*
X10639229Y-11967698D01*
X10639229Y-11967698D02*
X10524944Y-12081984D01*
X10524944Y-12081984D02*
X10648753Y-12081984D01*
X10829705Y-11881984D02*
X10734467Y-11881984D01*
X10734467Y-11881984D02*
X10724944Y-11977222D01*
X10724944Y-11977222D02*
X10734467Y-11967698D01*
X10734467Y-11967698D02*
X10753515Y-11958174D01*
X10753515Y-11958174D02*
X10801134Y-11958174D01*
X10801134Y-11958174D02*
X10820182Y-11967698D01*
X10820182Y-11967698D02*
X10829705Y-11977222D01*
X10829705Y-11977222D02*
X10839229Y-11996269D01*
X10839229Y-11996269D02*
X10839229Y-12043888D01*
X10839229Y-12043888D02*
X10829705Y-12062936D01*
X10829705Y-12062936D02*
X10820182Y-12072460D01*
X10820182Y-12072460D02*
X10801134Y-12081984D01*
X10801134Y-12081984D02*
X10753515Y-12081984D01*
X10753515Y-12081984D02*
X10734467Y-12072460D01*
X10734467Y-12072460D02*
X10724944Y-12062936D01*
X10963039Y-11881984D02*
X10982086Y-11881984D01*
X10982086Y-11881984D02*
X11001134Y-11891508D01*
X11001134Y-11891508D02*
X11010658Y-11901031D01*
X11010658Y-11901031D02*
X11020182Y-11920079D01*
X11020182Y-11920079D02*
X11029705Y-11958174D01*
X11029705Y-11958174D02*
X11029705Y-12005793D01*
X11029705Y-12005793D02*
X11020182Y-12043888D01*
X11020182Y-12043888D02*
X11010658Y-12062936D01*
X11010658Y-12062936D02*
X11001134Y-12072460D01*
X11001134Y-12072460D02*
X10982086Y-12081984D01*
X10982086Y-12081984D02*
X10963039Y-12081984D01*
X10963039Y-12081984D02*
X10943991Y-12072460D01*
X10943991Y-12072460D02*
X10934467Y-12062936D01*
X10934467Y-12062936D02*
X10924944Y-12043888D01*
X10924944Y-12043888D02*
X10915420Y-12005793D01*
X10915420Y-12005793D02*
X10915420Y-11958174D01*
X10915420Y-11958174D02*
X10924944Y-11920079D01*
X10924944Y-11920079D02*
X10934467Y-11901031D01*
X10934467Y-11901031D02*
X10943991Y-11891508D01*
X10943991Y-11891508D02*
X10963039Y-11881984D01*
X11115420Y-12081984D02*
X11115420Y-11948650D01*
X11115420Y-11967698D02*
X11124944Y-11958174D01*
X11124944Y-11958174D02*
X11143991Y-11948650D01*
X11143991Y-11948650D02*
X11172563Y-11948650D01*
X11172563Y-11948650D02*
X11191610Y-11958174D01*
X11191610Y-11958174D02*
X11201134Y-11977222D01*
X11201134Y-11977222D02*
X11201134Y-12081984D01*
X11201134Y-11977222D02*
X11210658Y-11958174D01*
X11210658Y-11958174D02*
X11229705Y-11948650D01*
X11229705Y-11948650D02*
X11258277Y-11948650D01*
X11258277Y-11948650D02*
X11277324Y-11958174D01*
X11277324Y-11958174D02*
X11286848Y-11977222D01*
X11286848Y-11977222D02*
X11286848Y-12081984D01*
X11382086Y-12081984D02*
X11382086Y-11948650D01*
X11382086Y-11967698D02*
X11391610Y-11958174D01*
X11391610Y-11958174D02*
X11410658Y-11948650D01*
X11410658Y-11948650D02*
X11439229Y-11948650D01*
X11439229Y-11948650D02*
X11458277Y-11958174D01*
X11458277Y-11958174D02*
X11467801Y-11977222D01*
X11467801Y-11977222D02*
X11467801Y-12081984D01*
X11467801Y-11977222D02*
X11477324Y-11958174D01*
X11477324Y-11958174D02*
X11496372Y-11948650D01*
X11496372Y-11948650D02*
X11524943Y-11948650D01*
X11524943Y-11948650D02*
X11543991Y-11958174D01*
X11543991Y-11958174D02*
X11553515Y-11977222D01*
X11553515Y-11977222D02*
X11553515Y-12081984D01*
X11943991Y-11872460D02*
X11772563Y-12129603D01*
X12201134Y-11881984D02*
X12220182Y-11881984D01*
X12220182Y-11881984D02*
X12239229Y-11891508D01*
X12239229Y-11891508D02*
X12248753Y-11901031D01*
X12248753Y-11901031D02*
X12258277Y-11920079D01*
X12258277Y-11920079D02*
X12267801Y-11958174D01*
X12267801Y-11958174D02*
X12267801Y-12005793D01*
X12267801Y-12005793D02*
X12258277Y-12043888D01*
X12258277Y-12043888D02*
X12248753Y-12062936D01*
X12248753Y-12062936D02*
X12239229Y-12072460D01*
X12239229Y-12072460D02*
X12220182Y-12081984D01*
X12220182Y-12081984D02*
X12201134Y-12081984D01*
X12201134Y-12081984D02*
X12182086Y-12072460D01*
X12182086Y-12072460D02*
X12172563Y-12062936D01*
X12172563Y-12062936D02*
X12163039Y-12043888D01*
X12163039Y-12043888D02*
X12153515Y-12005793D01*
X12153515Y-12005793D02*
X12153515Y-11958174D01*
X12153515Y-11958174D02*
X12163039Y-11920079D01*
X12163039Y-11920079D02*
X12172563Y-11901031D01*
X12172563Y-11901031D02*
X12182086Y-11891508D01*
X12182086Y-11891508D02*
X12201134Y-11881984D01*
X12353515Y-12062936D02*
X12363039Y-12072460D01*
X12363039Y-12072460D02*
X12353515Y-12081984D01*
X12353515Y-12081984D02*
X12343991Y-12072460D01*
X12343991Y-12072460D02*
X12353515Y-12062936D01*
X12353515Y-12062936D02*
X12353515Y-12081984D01*
X12553515Y-12081984D02*
X12439229Y-12081984D01*
X12496372Y-12081984D02*
X12496372Y-11881984D01*
X12496372Y-11881984D02*
X12477325Y-11910555D01*
X12477325Y-11910555D02*
X12458277Y-11929603D01*
X12458277Y-11929603D02*
X12439229Y-11939127D01*
X12629706Y-11901031D02*
X12639229Y-11891508D01*
X12639229Y-11891508D02*
X12658277Y-11881984D01*
X12658277Y-11881984D02*
X12705896Y-11881984D01*
X12705896Y-11881984D02*
X12724944Y-11891508D01*
X12724944Y-11891508D02*
X12734467Y-11901031D01*
X12734467Y-11901031D02*
X12743991Y-11920079D01*
X12743991Y-11920079D02*
X12743991Y-11939127D01*
X12743991Y-11939127D02*
X12734467Y-11967698D01*
X12734467Y-11967698D02*
X12620182Y-12081984D01*
X12620182Y-12081984D02*
X12743991Y-12081984D01*
X12858277Y-11967698D02*
X12839229Y-11958174D01*
X12839229Y-11958174D02*
X12829706Y-11948650D01*
X12829706Y-11948650D02*
X12820182Y-11929603D01*
X12820182Y-11929603D02*
X12820182Y-11920079D01*
X12820182Y-11920079D02*
X12829706Y-11901031D01*
X12829706Y-11901031D02*
X12839229Y-11891508D01*
X12839229Y-11891508D02*
X12858277Y-11881984D01*
X12858277Y-11881984D02*
X12896372Y-11881984D01*
X12896372Y-11881984D02*
X12915420Y-11891508D01*
X12915420Y-11891508D02*
X12924944Y-11901031D01*
X12924944Y-11901031D02*
X12934467Y-11920079D01*
X12934467Y-11920079D02*
X12934467Y-11929603D01*
X12934467Y-11929603D02*
X12924944Y-11948650D01*
X12924944Y-11948650D02*
X12915420Y-11958174D01*
X12915420Y-11958174D02*
X12896372Y-11967698D01*
X12896372Y-11967698D02*
X12858277Y-11967698D01*
X12858277Y-11967698D02*
X12839229Y-11977222D01*
X12839229Y-11977222D02*
X12829706Y-11986746D01*
X12829706Y-11986746D02*
X12820182Y-12005793D01*
X12820182Y-12005793D02*
X12820182Y-12043888D01*
X12820182Y-12043888D02*
X12829706Y-12062936D01*
X12829706Y-12062936D02*
X12839229Y-12072460D01*
X12839229Y-12072460D02*
X12858277Y-12081984D01*
X12858277Y-12081984D02*
X12896372Y-12081984D01*
X12896372Y-12081984D02*
X12915420Y-12072460D01*
X12915420Y-12072460D02*
X12924944Y-12062936D01*
X12924944Y-12062936D02*
X12934467Y-12043888D01*
X12934467Y-12043888D02*
X12934467Y-12005793D01*
X12934467Y-12005793D02*
X12924944Y-11986746D01*
X12924944Y-11986746D02*
X12915420Y-11977222D01*
X12915420Y-11977222D02*
X12896372Y-11967698D01*
X13058277Y-11881984D02*
X13077325Y-11881984D01*
X13077325Y-11881984D02*
X13096372Y-11891508D01*
X13096372Y-11891508D02*
X13105896Y-11901031D01*
X13105896Y-11901031D02*
X13115420Y-11920079D01*
X13115420Y-11920079D02*
X13124944Y-11958174D01*
X13124944Y-11958174D02*
X13124944Y-12005793D01*
X13124944Y-12005793D02*
X13115420Y-12043888D01*
X13115420Y-12043888D02*
X13105896Y-12062936D01*
X13105896Y-12062936D02*
X13096372Y-12072460D01*
X13096372Y-12072460D02*
X13077325Y-12081984D01*
X13077325Y-12081984D02*
X13058277Y-12081984D01*
X13058277Y-12081984D02*
X13039229Y-12072460D01*
X13039229Y-12072460D02*
X13029706Y-12062936D01*
X13029706Y-12062936D02*
X13020182Y-12043888D01*
X13020182Y-12043888D02*
X13010658Y-12005793D01*
X13010658Y-12005793D02*
X13010658Y-11958174D01*
X13010658Y-11958174D02*
X13020182Y-11920079D01*
X13020182Y-11920079D02*
X13029706Y-11901031D01*
X13029706Y-11901031D02*
X13039229Y-11891508D01*
X13039229Y-11891508D02*
X13058277Y-11881984D01*
X13201134Y-11881984D02*
X13201134Y-11920079D01*
X13277325Y-11881984D02*
X13277325Y-11920079D01*
X13572563Y-12158174D02*
X13563039Y-12148650D01*
X13563039Y-12148650D02*
X13543991Y-12120079D01*
X13543991Y-12120079D02*
X13534468Y-12101031D01*
X13534468Y-12101031D02*
X13524944Y-12072460D01*
X13524944Y-12072460D02*
X13515420Y-12024841D01*
X13515420Y-12024841D02*
X13515420Y-11986746D01*
X13515420Y-11986746D02*
X13524944Y-11939127D01*
X13524944Y-11939127D02*
X13534468Y-11910555D01*
X13534468Y-11910555D02*
X13543991Y-11891508D01*
X13543991Y-11891508D02*
X13563039Y-11862936D01*
X13563039Y-11862936D02*
X13572563Y-11853412D01*
X13639229Y-11901031D02*
X13648753Y-11891508D01*
X13648753Y-11891508D02*
X13667801Y-11881984D01*
X13667801Y-11881984D02*
X13715420Y-11881984D01*
X13715420Y-11881984D02*
X13734468Y-11891508D01*
X13734468Y-11891508D02*
X13743991Y-11901031D01*
X13743991Y-11901031D02*
X13753515Y-11920079D01*
X13753515Y-11920079D02*
X13753515Y-11939127D01*
X13753515Y-11939127D02*
X13743991Y-11967698D01*
X13743991Y-11967698D02*
X13629706Y-12081984D01*
X13629706Y-12081984D02*
X13753515Y-12081984D01*
X13991610Y-12081984D02*
X13991610Y-11881984D01*
X14077325Y-12081984D02*
X14077325Y-11977222D01*
X14077325Y-11977222D02*
X14067801Y-11958174D01*
X14067801Y-11958174D02*
X14048753Y-11948650D01*
X14048753Y-11948650D02*
X14020182Y-11948650D01*
X14020182Y-11948650D02*
X14001134Y-11958174D01*
X14001134Y-11958174D02*
X13991610Y-11967698D01*
X14201134Y-12081984D02*
X14182087Y-12072460D01*
X14182087Y-12072460D02*
X14172563Y-12062936D01*
X14172563Y-12062936D02*
X14163039Y-12043888D01*
X14163039Y-12043888D02*
X14163039Y-11986746D01*
X14163039Y-11986746D02*
X14172563Y-11967698D01*
X14172563Y-11967698D02*
X14182087Y-11958174D01*
X14182087Y-11958174D02*
X14201134Y-11948650D01*
X14201134Y-11948650D02*
X14229706Y-11948650D01*
X14229706Y-11948650D02*
X14248753Y-11958174D01*
X14248753Y-11958174D02*
X14258277Y-11967698D01*
X14258277Y-11967698D02*
X14267801Y-11986746D01*
X14267801Y-11986746D02*
X14267801Y-12043888D01*
X14267801Y-12043888D02*
X14258277Y-12062936D01*
X14258277Y-12062936D02*
X14248753Y-12072460D01*
X14248753Y-12072460D02*
X14229706Y-12081984D01*
X14229706Y-12081984D02*
X14201134Y-12081984D01*
X14382087Y-12081984D02*
X14363039Y-12072460D01*
X14363039Y-12072460D02*
X14353515Y-12053412D01*
X14353515Y-12053412D02*
X14353515Y-11881984D01*
X14534468Y-12072460D02*
X14515420Y-12081984D01*
X14515420Y-12081984D02*
X14477325Y-12081984D01*
X14477325Y-12081984D02*
X14458277Y-12072460D01*
X14458277Y-12072460D02*
X14448753Y-12053412D01*
X14448753Y-12053412D02*
X14448753Y-11977222D01*
X14448753Y-11977222D02*
X14458277Y-11958174D01*
X14458277Y-11958174D02*
X14477325Y-11948650D01*
X14477325Y-11948650D02*
X14515420Y-11948650D01*
X14515420Y-11948650D02*
X14534468Y-11958174D01*
X14534468Y-11958174D02*
X14543991Y-11977222D01*
X14543991Y-11977222D02*
X14543991Y-11996269D01*
X14543991Y-11996269D02*
X14448753Y-12015317D01*
X14620182Y-12072460D02*
X14639230Y-12081984D01*
X14639230Y-12081984D02*
X14677325Y-12081984D01*
X14677325Y-12081984D02*
X14696372Y-12072460D01*
X14696372Y-12072460D02*
X14705896Y-12053412D01*
X14705896Y-12053412D02*
X14705896Y-12043888D01*
X14705896Y-12043888D02*
X14696372Y-12024841D01*
X14696372Y-12024841D02*
X14677325Y-12015317D01*
X14677325Y-12015317D02*
X14648753Y-12015317D01*
X14648753Y-12015317D02*
X14629706Y-12005793D01*
X14629706Y-12005793D02*
X14620182Y-11986746D01*
X14620182Y-11986746D02*
X14620182Y-11977222D01*
X14620182Y-11977222D02*
X14629706Y-11958174D01*
X14629706Y-11958174D02*
X14648753Y-11948650D01*
X14648753Y-11948650D02*
X14677325Y-11948650D01*
X14677325Y-11948650D02*
X14696372Y-11958174D01*
X14772563Y-12158174D02*
X14782087Y-12148650D01*
X14782087Y-12148650D02*
X14801134Y-12120079D01*
X14801134Y-12120079D02*
X14810658Y-12101031D01*
X14810658Y-12101031D02*
X14820182Y-12072460D01*
X14820182Y-12072460D02*
X14829706Y-12024841D01*
X14829706Y-12024841D02*
X14829706Y-11986746D01*
X14829706Y-11986746D02*
X14820182Y-11939127D01*
X14820182Y-11939127D02*
X14810658Y-11910555D01*
X14810658Y-11910555D02*
X14801134Y-11891508D01*
X14801134Y-11891508D02*
X14782087Y-11862936D01*
X14782087Y-11862936D02*
X14772563Y-11853412D01*
X15134468Y-12158174D02*
X15124944Y-12148650D01*
X15124944Y-12148650D02*
X15105896Y-12120079D01*
X15105896Y-12120079D02*
X15096372Y-12101031D01*
X15096372Y-12101031D02*
X15086849Y-12072460D01*
X15086849Y-12072460D02*
X15077325Y-12024841D01*
X15077325Y-12024841D02*
X15077325Y-11986746D01*
X15077325Y-11986746D02*
X15086849Y-11939127D01*
X15086849Y-11939127D02*
X15096372Y-11910555D01*
X15096372Y-11910555D02*
X15105896Y-11891508D01*
X15105896Y-11891508D02*
X15124944Y-11862936D01*
X15124944Y-11862936D02*
X15134468Y-11853412D01*
X15210658Y-11948650D02*
X15210658Y-12081984D01*
X15210658Y-11967698D02*
X15220182Y-11958174D01*
X15220182Y-11958174D02*
X15239230Y-11948650D01*
X15239230Y-11948650D02*
X15267801Y-11948650D01*
X15267801Y-11948650D02*
X15286849Y-11958174D01*
X15286849Y-11958174D02*
X15296372Y-11977222D01*
X15296372Y-11977222D02*
X15296372Y-12081984D01*
X15420182Y-12081984D02*
X15401134Y-12072460D01*
X15401134Y-12072460D02*
X15391611Y-12062936D01*
X15391611Y-12062936D02*
X15382087Y-12043888D01*
X15382087Y-12043888D02*
X15382087Y-11986746D01*
X15382087Y-11986746D02*
X15391611Y-11967698D01*
X15391611Y-11967698D02*
X15401134Y-11958174D01*
X15401134Y-11958174D02*
X15420182Y-11948650D01*
X15420182Y-11948650D02*
X15448753Y-11948650D01*
X15448753Y-11948650D02*
X15467801Y-11958174D01*
X15467801Y-11958174D02*
X15477325Y-11967698D01*
X15477325Y-11967698D02*
X15486849Y-11986746D01*
X15486849Y-11986746D02*
X15486849Y-12043888D01*
X15486849Y-12043888D02*
X15477325Y-12062936D01*
X15477325Y-12062936D02*
X15467801Y-12072460D01*
X15467801Y-12072460D02*
X15448753Y-12081984D01*
X15448753Y-12081984D02*
X15420182Y-12081984D01*
X15543992Y-11948650D02*
X15620182Y-11948650D01*
X15572563Y-11881984D02*
X15572563Y-12053412D01*
X15572563Y-12053412D02*
X15582087Y-12072460D01*
X15582087Y-12072460D02*
X15601134Y-12081984D01*
X15601134Y-12081984D02*
X15620182Y-12081984D01*
X15839230Y-11948650D02*
X15839230Y-12148650D01*
X15839230Y-11958174D02*
X15858277Y-11948650D01*
X15858277Y-11948650D02*
X15896373Y-11948650D01*
X15896373Y-11948650D02*
X15915420Y-11958174D01*
X15915420Y-11958174D02*
X15924944Y-11967698D01*
X15924944Y-11967698D02*
X15934468Y-11986746D01*
X15934468Y-11986746D02*
X15934468Y-12043888D01*
X15934468Y-12043888D02*
X15924944Y-12062936D01*
X15924944Y-12062936D02*
X15915420Y-12072460D01*
X15915420Y-12072460D02*
X15896373Y-12081984D01*
X15896373Y-12081984D02*
X15858277Y-12081984D01*
X15858277Y-12081984D02*
X15839230Y-12072460D01*
X16048753Y-12081984D02*
X16029706Y-12072460D01*
X16029706Y-12072460D02*
X16020182Y-12053412D01*
X16020182Y-12053412D02*
X16020182Y-11881984D01*
X16210658Y-12081984D02*
X16210658Y-11977222D01*
X16210658Y-11977222D02*
X16201134Y-11958174D01*
X16201134Y-11958174D02*
X16182087Y-11948650D01*
X16182087Y-11948650D02*
X16143992Y-11948650D01*
X16143992Y-11948650D02*
X16124944Y-11958174D01*
X16210658Y-12072460D02*
X16191611Y-12081984D01*
X16191611Y-12081984D02*
X16143992Y-12081984D01*
X16143992Y-12081984D02*
X16124944Y-12072460D01*
X16124944Y-12072460D02*
X16115420Y-12053412D01*
X16115420Y-12053412D02*
X16115420Y-12034365D01*
X16115420Y-12034365D02*
X16124944Y-12015317D01*
X16124944Y-12015317D02*
X16143992Y-12005793D01*
X16143992Y-12005793D02*
X16191611Y-12005793D01*
X16191611Y-12005793D02*
X16210658Y-11996269D01*
X16277325Y-11948650D02*
X16353515Y-11948650D01*
X16305896Y-11881984D02*
X16305896Y-12053412D01*
X16305896Y-12053412D02*
X16315420Y-12072460D01*
X16315420Y-12072460D02*
X16334468Y-12081984D01*
X16334468Y-12081984D02*
X16353515Y-12081984D01*
X16496373Y-12072460D02*
X16477325Y-12081984D01*
X16477325Y-12081984D02*
X16439230Y-12081984D01*
X16439230Y-12081984D02*
X16420182Y-12072460D01*
X16420182Y-12072460D02*
X16410658Y-12053412D01*
X16410658Y-12053412D02*
X16410658Y-11977222D01*
X16410658Y-11977222D02*
X16420182Y-11958174D01*
X16420182Y-11958174D02*
X16439230Y-11948650D01*
X16439230Y-11948650D02*
X16477325Y-11948650D01*
X16477325Y-11948650D02*
X16496373Y-11958174D01*
X16496373Y-11958174D02*
X16505896Y-11977222D01*
X16505896Y-11977222D02*
X16505896Y-11996269D01*
X16505896Y-11996269D02*
X16410658Y-12015317D01*
X16677325Y-12081984D02*
X16677325Y-11881984D01*
X16677325Y-12072460D02*
X16658277Y-12081984D01*
X16658277Y-12081984D02*
X16620182Y-12081984D01*
X16620182Y-12081984D02*
X16601134Y-12072460D01*
X16601134Y-12072460D02*
X16591611Y-12062936D01*
X16591611Y-12062936D02*
X16582087Y-12043888D01*
X16582087Y-12043888D02*
X16582087Y-11986746D01*
X16582087Y-11986746D02*
X16591611Y-11967698D01*
X16591611Y-11967698D02*
X16601134Y-11958174D01*
X16601134Y-11958174D02*
X16620182Y-11948650D01*
X16620182Y-11948650D02*
X16658277Y-11948650D01*
X16658277Y-11948650D02*
X16677325Y-11958174D01*
X16753515Y-12158174D02*
X16763039Y-12148650D01*
X16763039Y-12148650D02*
X16782087Y-12120079D01*
X16782087Y-12120079D02*
X16791611Y-12101031D01*
X16791611Y-12101031D02*
X16801135Y-12072460D01*
X16801135Y-12072460D02*
X16810658Y-12024841D01*
X16810658Y-12024841D02*
X16810658Y-11986746D01*
X16810658Y-11986746D02*
X16801135Y-11939127D01*
X16801135Y-11939127D02*
X16791611Y-11910555D01*
X16791611Y-11910555D02*
X16782087Y-11891508D01*
X16782087Y-11891508D02*
X16763039Y-11862936D01*
X16763039Y-11862936D02*
X16753515Y-11853412D01*
M02*
