%TF.GenerationSoftware,KiCad,Pcbnew,9.0.1*%
%TF.CreationDate,2025-08-07T18:15:33+02:00*%
%TF.ProjectId,Hauptmodul,48617570-746d-46f6-9475-6c2e6b696361,rev?*%
%TF.SameCoordinates,Original*%
%TF.FileFunction,Paste,Bot*%
%TF.FilePolarity,Positive*%
%FSLAX46Y46*%
G04 Gerber Fmt 4.6, Leading zero omitted, Abs format (unit mm)*
G04 Created by KiCad (PCBNEW 9.0.1) date 2025-08-07 18:15:33*
%MOMM*%
%LPD*%
G01*
G04 APERTURE LIST*
G04 Aperture macros list*
%AMRoundRect*
0 Rectangle with rounded corners*
0 $1 Rounding radius*
0 $2 $3 $4 $5 $6 $7 $8 $9 X,Y pos of 4 corners*
0 Add a 4 corners polygon primitive as box body*
4,1,4,$2,$3,$4,$5,$6,$7,$8,$9,$2,$3,0*
0 Add four circle primitives for the rounded corners*
1,1,$1+$1,$2,$3*
1,1,$1+$1,$4,$5*
1,1,$1+$1,$6,$7*
1,1,$1+$1,$8,$9*
0 Add four rect primitives between the rounded corners*
20,1,$1+$1,$2,$3,$4,$5,0*
20,1,$1+$1,$4,$5,$6,$7,0*
20,1,$1+$1,$6,$7,$8,$9,0*
20,1,$1+$1,$8,$9,$2,$3,0*%
G04 Aperture macros list end*
%ADD10RoundRect,0.250000X0.312500X0.625000X-0.312500X0.625000X-0.312500X-0.625000X0.312500X-0.625000X0*%
%ADD11RoundRect,0.250000X0.625000X-0.312500X0.625000X0.312500X-0.625000X0.312500X-0.625000X-0.312500X0*%
%ADD12RoundRect,0.250000X0.325000X0.650000X-0.325000X0.650000X-0.325000X-0.650000X0.325000X-0.650000X0*%
%ADD13R,1.300000X1.450000*%
%ADD14R,1.400000X2.500000*%
%ADD15RoundRect,0.250000X0.650000X-0.325000X0.650000X0.325000X-0.650000X0.325000X-0.650000X-0.325000X0*%
%ADD16R,1.500000X0.650000*%
%ADD17RoundRect,0.250000X-0.312500X-0.625000X0.312500X-0.625000X0.312500X0.625000X-0.312500X0.625000X0*%
%ADD18R,1.050000X0.600000*%
G04 APERTURE END LIST*
D10*
%TO.C,R6*%
X114000000Y-75500000D03*
X111075000Y-75500000D03*
%TD*%
D11*
%TO.C,R10*%
X189000000Y-53000000D03*
X189000000Y-50075000D03*
%TD*%
D12*
%TO.C,C6*%
X148975000Y-74500000D03*
X146025000Y-74500000D03*
%TD*%
D13*
%TO.C,LED2*%
X192050000Y-46500000D03*
X188950000Y-46500000D03*
%TD*%
%TO.C,LED3*%
X151400000Y-47000000D03*
X154500000Y-47000000D03*
%TD*%
D12*
%TO.C,C4*%
X137250000Y-83000000D03*
X134300000Y-83000000D03*
%TD*%
D13*
%TO.C,LED4*%
X181050000Y-46500000D03*
X177950000Y-46500000D03*
%TD*%
D10*
%TO.C,R2*%
X132000000Y-74500000D03*
X129075000Y-74500000D03*
%TD*%
D14*
%TO.C,PS1*%
X157960000Y-46750000D03*
X160500000Y-46750000D03*
X170660000Y-46750000D03*
X173200000Y-46750000D03*
X173200000Y-62250000D03*
X170660000Y-62250000D03*
X157960000Y-62250000D03*
%TD*%
D15*
%TO.C,C5*%
X116075000Y-78500000D03*
X116075000Y-75550000D03*
%TD*%
%TO.C,C3*%
X153500000Y-62200000D03*
X153500000Y-59250000D03*
%TD*%
D13*
%TO.C,LED1*%
X186550000Y-46500000D03*
X183450000Y-46500000D03*
%TD*%
D16*
%TO.C,IC1*%
X135850000Y-76900000D03*
X135850000Y-78170000D03*
X135850000Y-79440000D03*
X135850000Y-80710000D03*
X130450000Y-80710000D03*
X130450000Y-79440000D03*
X130450000Y-78170000D03*
X130450000Y-76900000D03*
%TD*%
%TO.C,IC4*%
X145850000Y-76900000D03*
X145850000Y-78170000D03*
X145850000Y-79440000D03*
X145850000Y-80710000D03*
X140450000Y-80710000D03*
X140450000Y-79440000D03*
X140450000Y-78170000D03*
X140450000Y-76900000D03*
%TD*%
D17*
%TO.C,R5*%
X111150000Y-78500000D03*
X114075000Y-78500000D03*
%TD*%
D11*
%TO.C,R8*%
X183500000Y-52925000D03*
X183500000Y-50000000D03*
%TD*%
D18*
%TO.C,D3*%
X105575000Y-76000000D03*
X105575000Y-77900000D03*
X103375000Y-76950000D03*
%TD*%
D11*
%TO.C,R13*%
X178000000Y-52925000D03*
X178000000Y-50000000D03*
%TD*%
M02*
