%TF.GenerationSoftware,KiCad,Pcbnew,9.0.1*%
%TF.CreationDate,2025-08-07T18:16:20+02:00*%
%TF.ProjectId,Hauptmodul,48617570-746d-46f6-9475-6c2e6b696361,rev?*%
%TF.SameCoordinates,Original*%
%TF.FileFunction,Drillmap*%
%TF.FilePolarity,Positive*%
%FSLAX45Y45*%
G04 Gerber Fmt 4.5, Leading zero omitted, Abs format (unit mm)*
G04 Created by KiCad (PCBNEW 9.0.1) date 2025-08-07 18:16:20*
%MOMM*%
%LPD*%
G01*
G04 APERTURE LIST*
%ADD10C,0.050000*%
%ADD11C,0.200000*%
%ADD12C,0.100000*%
%ADD13C,0.135000*%
%ADD14C,0.157000*%
G04 APERTURE END LIST*
D10*
X15000000Y-5500000D02*
G75*
G02*
X14800000Y-5700000I-200000J0D01*
G01*
X10000000Y-10500000D02*
X20000000Y-10500000D01*
X10000000Y-10500000D02*
X10000000Y-5700000D01*
X15000000Y-5500000D02*
X15000000Y-4400000D01*
X10000000Y-5700000D02*
X14800000Y-5700000D01*
X20000000Y-10500000D02*
X20000000Y-4400000D01*
X20000000Y-4400000D02*
X15000000Y-4400000D01*
D11*
D12*
X10107502Y-8882368D02*
X10142502Y-8917368D01*
X10142502Y-8882368D02*
X10107502Y-8917368D01*
X10207501Y-8882895D02*
X10242501Y-8917895D01*
X10242501Y-8882895D02*
X10207501Y-8917895D01*
X10307500Y-8882500D02*
X10342500Y-8917500D01*
X10342500Y-8882500D02*
X10307500Y-8917500D01*
X10632500Y-9882500D02*
X10667500Y-9917500D01*
X10667500Y-9882500D02*
X10632500Y-9917500D01*
X10757500Y-9882500D02*
X10792500Y-9917500D01*
X10792500Y-9882500D02*
X10757500Y-9917500D01*
X10857500Y-9882500D02*
X10892500Y-9917500D01*
X10892500Y-9882500D02*
X10857500Y-9917500D01*
X10907500Y-8332500D02*
X10942500Y-8367500D01*
X10942500Y-8332500D02*
X10907500Y-8367500D01*
X11232500Y-9457500D02*
X11267500Y-9492500D01*
X11267500Y-9457500D02*
X11232500Y-9492500D01*
X11232500Y-9557500D02*
X11267500Y-9592500D01*
X11267500Y-9557500D02*
X11232500Y-9592500D01*
X11307500Y-9107500D02*
X11342500Y-9142500D01*
X11342500Y-9107500D02*
X11307500Y-9142500D01*
X11407500Y-9107500D02*
X11442500Y-9142500D01*
X11442500Y-9107500D02*
X11407500Y-9142500D01*
X11428310Y-9559377D02*
X11463310Y-9594377D01*
X11463310Y-9559377D02*
X11428310Y-9594377D01*
X11507500Y-6782500D02*
X11542500Y-6817500D01*
X11542500Y-6782500D02*
X11507500Y-6817500D01*
X11507500Y-9107500D02*
X11542500Y-9142500D01*
X11542500Y-9107500D02*
X11507500Y-9142500D01*
X11532500Y-9457500D02*
X11567500Y-9492500D01*
X11567500Y-9457500D02*
X11532500Y-9492500D01*
X11582500Y-7357500D02*
X11617500Y-7392500D01*
X11617500Y-7357500D02*
X11582500Y-7392500D01*
X11607501Y-9107500D02*
X11642501Y-9142500D01*
X11642501Y-9107500D02*
X11607501Y-9142500D01*
X11723033Y-9073033D02*
X11758033Y-9108033D01*
X11758033Y-9073033D02*
X11723033Y-9108033D01*
X11730163Y-9533022D02*
X11765163Y-9568022D01*
X11765163Y-9533022D02*
X11730163Y-9568022D01*
X11793744Y-9143744D02*
X11828744Y-9178744D01*
X11828744Y-9143744D02*
X11793744Y-9178744D01*
X11869966Y-9598086D02*
X11904966Y-9633086D01*
X11904966Y-9598086D02*
X11869966Y-9633086D01*
X11882500Y-8282500D02*
X11917500Y-8317500D01*
X11917500Y-8282500D02*
X11882500Y-8317500D01*
X11882500Y-9057500D02*
X11917500Y-9092500D01*
X11917500Y-9057500D02*
X11882500Y-9092500D01*
X12082500Y-6057500D02*
X12117500Y-6092500D01*
X12117500Y-6057500D02*
X12082500Y-6092500D01*
X12457500Y-9132500D02*
X12492500Y-9167500D01*
X12492500Y-9132500D02*
X12457500Y-9167500D01*
X12457500Y-9307500D02*
X12492500Y-9342500D01*
X12492500Y-9307500D02*
X12457500Y-9342500D01*
X12557500Y-9307500D02*
X12592500Y-9342500D01*
X12592500Y-9307500D02*
X12557500Y-9342500D01*
X12657500Y-9307500D02*
X12692500Y-9342500D01*
X12692500Y-9307500D02*
X12657500Y-9342500D01*
X14232951Y-9142864D02*
X14267951Y-9177864D01*
X14267951Y-9142864D02*
X14232951Y-9177864D01*
X14450408Y-8925408D02*
X14485408Y-8960408D01*
X14485408Y-8925408D02*
X14450408Y-8960408D01*
X14732500Y-7607500D02*
X14767500Y-7642500D01*
X14767500Y-7607500D02*
X14732500Y-7642500D01*
X14732500Y-7732500D02*
X14767500Y-7767500D01*
X14767500Y-7732500D02*
X14732500Y-7767500D01*
X14732500Y-7857500D02*
X14767500Y-7892500D01*
X14767500Y-7857500D02*
X14732500Y-7892500D01*
X14782500Y-8682500D02*
X14817500Y-8717500D01*
X14817500Y-8682500D02*
X14782500Y-8717500D01*
X15357500Y-5012400D02*
X15392500Y-5047400D01*
X15392500Y-5012400D02*
X15357500Y-5047400D01*
X15455414Y-5032721D02*
X15490414Y-5067721D01*
X15490414Y-5032721D02*
X15455414Y-5067721D01*
X16432500Y-9582500D02*
X16467500Y-9617500D01*
X16467500Y-9582500D02*
X16432500Y-9617500D01*
X16482500Y-7232500D02*
X16517500Y-7267500D01*
X16517500Y-7232500D02*
X16482500Y-7267500D01*
X16746500Y-7182500D02*
X16781500Y-7217500D01*
X16781500Y-7182500D02*
X16746500Y-7217500D01*
X17257500Y-7132500D02*
X17292500Y-7167500D01*
X17292500Y-7132500D02*
X17257500Y-7167500D01*
X17507500Y-9032500D02*
X17542500Y-9067500D01*
X17542500Y-9032500D02*
X17507500Y-9067500D01*
X17750762Y-8979097D02*
X17785762Y-9014097D01*
X17785762Y-8979097D02*
X17750762Y-9014097D01*
X18332500Y-5407500D02*
X18367500Y-5442500D01*
X18367500Y-5407500D02*
X18332500Y-5442500D01*
X18357500Y-8932500D02*
X18392500Y-8967500D01*
X18392500Y-8932500D02*
X18357500Y-8967500D01*
X18757500Y-6457500D02*
X18792500Y-6492500D01*
X18792500Y-6457500D02*
X18757500Y-6492500D01*
X18882500Y-5407500D02*
X18917500Y-5442500D01*
X18917500Y-5407500D02*
X18882500Y-5442500D01*
X19082500Y-5307500D02*
X19117500Y-5342500D01*
X19117500Y-5307500D02*
X19082500Y-5342500D01*
X10172500Y-7450000D02*
G75*
G02*
X10127500Y-7450000I-22500J0D01*
G01*
X10127500Y-7450000D02*
G75*
G02*
X10172500Y-7450000I22500J0D01*
G01*
X10822500Y-8450000D02*
G75*
G02*
X10777500Y-8450000I-22500J0D01*
G01*
X10777500Y-8450000D02*
G75*
G02*
X10822500Y-8450000I22500J0D01*
G01*
X13847500Y-9450000D02*
G75*
G02*
X13802500Y-9450000I-22500J0D01*
G01*
X13802500Y-9450000D02*
G75*
G02*
X13847500Y-9450000I22500J0D01*
G01*
X14947500Y-5850000D02*
G75*
G02*
X14902500Y-5850000I-22500J0D01*
G01*
X14902500Y-5850000D02*
G75*
G02*
X14947500Y-5850000I22500J0D01*
G01*
X15272500Y-7275000D02*
G75*
G02*
X15227500Y-7275000I-22500J0D01*
G01*
X15227500Y-7275000D02*
G75*
G02*
X15272500Y-7275000I22500J0D01*
G01*
X16447500Y-7725000D02*
G75*
G02*
X16402500Y-7725000I-22500J0D01*
G01*
X16402500Y-7725000D02*
G75*
G02*
X16447500Y-7725000I22500J0D01*
G01*
X17622500Y-4550000D02*
G75*
G02*
X17577500Y-4550000I-22500J0D01*
G01*
X17577500Y-4550000D02*
G75*
G02*
X17622500Y-4550000I22500J0D01*
G01*
X17622500Y-4675000D02*
G75*
G02*
X17577500Y-4675000I-22500J0D01*
G01*
X17577500Y-4675000D02*
G75*
G02*
X17622500Y-4675000I22500J0D01*
G01*
X17622500Y-4800000D02*
G75*
G02*
X17577500Y-4800000I-22500J0D01*
G01*
X17577500Y-4800000D02*
G75*
G02*
X17622500Y-4800000I22500J0D01*
G01*
X17647500Y-7725000D02*
G75*
G02*
X17602500Y-7725000I-22500J0D01*
G01*
X17602500Y-7725000D02*
G75*
G02*
X17647500Y-7725000I22500J0D01*
G01*
X17797500Y-5950000D02*
G75*
G02*
X17752500Y-5950000I-22500J0D01*
G01*
X17752500Y-5950000D02*
G75*
G02*
X17797500Y-5950000I22500J0D01*
G01*
X17922500Y-5950000D02*
G75*
G02*
X17877500Y-5950000I-22500J0D01*
G01*
X17877500Y-5950000D02*
G75*
G02*
X17922500Y-5950000I22500J0D01*
G01*
X18047500Y-5950000D02*
G75*
G02*
X18002500Y-5950000I-22500J0D01*
G01*
X18002500Y-5950000D02*
G75*
G02*
X18047500Y-5950000I22500J0D01*
G01*
X18222500Y-6225000D02*
G75*
G02*
X18177500Y-6225000I-22500J0D01*
G01*
X18177500Y-6225000D02*
G75*
G02*
X18222500Y-6225000I22500J0D01*
G01*
X18772500Y-7725000D02*
G75*
G02*
X18727500Y-7725000I-22500J0D01*
G01*
X18727500Y-7725000D02*
G75*
G02*
X18772500Y-7725000I22500J0D01*
G01*
X19272500Y-8375000D02*
G75*
G02*
X19227500Y-8375000I-22500J0D01*
G01*
X19227500Y-8375000D02*
G75*
G02*
X19272500Y-8375000I22500J0D01*
G01*
X13600000Y-6757500D02*
X13600000Y-6842500D01*
X13557500Y-6800000D02*
X13642500Y-6800000D01*
X13600000Y-7011500D02*
X13600000Y-7096500D01*
X13557500Y-7054000D02*
X13642500Y-7054000D01*
X13727000Y-6884500D02*
X13727000Y-6969500D01*
X13684500Y-6927000D02*
X13769500Y-6927000D01*
X16006113Y-8531113D02*
X16006113Y-8468887D01*
X15943887Y-8468887D01*
X15943887Y-8531113D01*
X16006113Y-8531113D01*
X16146113Y-8403613D02*
X16146113Y-8341387D01*
X16083887Y-8341387D01*
X16083887Y-8403613D01*
X16146113Y-8403613D01*
X16146113Y-8658613D02*
X16146113Y-8596387D01*
X16083887Y-8596387D01*
X16083887Y-8658613D01*
X16146113Y-8658613D01*
X10740500Y-6622500D02*
X10785000Y-6578000D01*
X10740500Y-6533500D01*
X10696000Y-6578000D01*
X10740500Y-6622500D01*
X10842000Y-6444500D02*
X10886500Y-6400000D01*
X10842000Y-6355500D01*
X10797500Y-6400000D01*
X10842000Y-6444500D01*
X10943500Y-6622500D02*
X10988000Y-6578000D01*
X10943500Y-6533500D01*
X10899000Y-6578000D01*
X10943500Y-6622500D01*
X11045000Y-6444500D02*
X11089500Y-6400000D01*
X11045000Y-6355500D01*
X11000500Y-6400000D01*
X11045000Y-6444500D01*
X11147000Y-6622500D02*
X11191500Y-6578000D01*
X11147000Y-6533500D01*
X11102500Y-6578000D01*
X11147000Y-6622500D01*
X11248500Y-6444500D02*
X11293000Y-6400000D01*
X11248500Y-6355500D01*
X11204000Y-6400000D01*
X11248500Y-6444500D01*
X11350000Y-6622500D02*
X11394500Y-6578000D01*
X11350000Y-6533500D01*
X11305500Y-6578000D01*
X11350000Y-6622500D01*
X11451500Y-6444500D02*
X11496000Y-6400000D01*
X11451500Y-6355500D01*
X11407000Y-6400000D01*
X11451500Y-6444500D01*
X12455000Y-6955000D02*
X12545000Y-7045000D01*
X12545000Y-6955000D02*
X12455000Y-7045000D01*
X12545000Y-7000000D02*
G75*
G02*
X12455000Y-7000000I-45000J0D01*
G01*
X12455000Y-7000000D02*
G75*
G02*
X12545000Y-7000000I45000J0D01*
G01*
X12705000Y-6955000D02*
X12795000Y-7045000D01*
X12795000Y-6955000D02*
X12705000Y-7045000D01*
X12795000Y-7000000D02*
G75*
G02*
X12705000Y-7000000I-45000J0D01*
G01*
X12705000Y-7000000D02*
G75*
G02*
X12795000Y-7000000I45000J0D01*
G01*
X12955000Y-6955000D02*
X13045000Y-7045000D01*
X13045000Y-6955000D02*
X12955000Y-7045000D01*
X13045000Y-7000000D02*
G75*
G02*
X12955000Y-7000000I-45000J0D01*
G01*
X12955000Y-7000000D02*
G75*
G02*
X13045000Y-7000000I45000J0D01*
G01*
X14682000Y-6808000D02*
X14782000Y-6908000D01*
X14782000Y-6808000D02*
X14682000Y-6908000D01*
X14732000Y-6808000D02*
X14732000Y-6908000D01*
X14682000Y-6858000D02*
X14782000Y-6858000D01*
X14682000Y-9348000D02*
X14782000Y-9448000D01*
X14782000Y-9348000D02*
X14682000Y-9448000D01*
X14732000Y-9348000D02*
X14732000Y-9448000D01*
X14682000Y-9398000D02*
X14782000Y-9398000D01*
X14936000Y-6808000D02*
X15036000Y-6908000D01*
X15036000Y-6808000D02*
X14936000Y-6908000D01*
X14986000Y-6808000D02*
X14986000Y-6908000D01*
X14936000Y-6858000D02*
X15036000Y-6858000D01*
X14936000Y-9348000D02*
X15036000Y-9448000D01*
X15036000Y-9348000D02*
X14936000Y-9448000D01*
X14986000Y-9348000D02*
X14986000Y-9448000D01*
X14936000Y-9398000D02*
X15036000Y-9398000D01*
X15190000Y-6808000D02*
X15290000Y-6908000D01*
X15290000Y-6808000D02*
X15190000Y-6908000D01*
X15240000Y-6808000D02*
X15240000Y-6908000D01*
X15190000Y-6858000D02*
X15290000Y-6858000D01*
X15190000Y-9348000D02*
X15290000Y-9448000D01*
X15290000Y-9348000D02*
X15190000Y-9448000D01*
X15240000Y-9348000D02*
X15240000Y-9448000D01*
X15190000Y-9398000D02*
X15290000Y-9398000D01*
X15444000Y-6808000D02*
X15544000Y-6908000D01*
X15544000Y-6808000D02*
X15444000Y-6908000D01*
X15494000Y-6808000D02*
X15494000Y-6908000D01*
X15444000Y-6858000D02*
X15544000Y-6858000D01*
X15444000Y-9348000D02*
X15544000Y-9448000D01*
X15544000Y-9348000D02*
X15444000Y-9448000D01*
X15494000Y-9348000D02*
X15494000Y-9448000D01*
X15444000Y-9398000D02*
X15544000Y-9398000D01*
X15698000Y-6808000D02*
X15798000Y-6908000D01*
X15798000Y-6808000D02*
X15698000Y-6908000D01*
X15748000Y-6808000D02*
X15748000Y-6908000D01*
X15698000Y-6858000D02*
X15798000Y-6858000D01*
X15698000Y-9348000D02*
X15798000Y-9448000D01*
X15798000Y-9348000D02*
X15698000Y-9448000D01*
X15748000Y-9348000D02*
X15748000Y-9448000D01*
X15698000Y-9398000D02*
X15798000Y-9398000D01*
X15952000Y-6808000D02*
X16052000Y-6908000D01*
X16052000Y-6808000D02*
X15952000Y-6908000D01*
X16002000Y-6808000D02*
X16002000Y-6908000D01*
X15952000Y-6858000D02*
X16052000Y-6858000D01*
X15952000Y-9348000D02*
X16052000Y-9448000D01*
X16052000Y-9348000D02*
X15952000Y-9448000D01*
X16002000Y-9348000D02*
X16002000Y-9448000D01*
X15952000Y-9398000D02*
X16052000Y-9398000D01*
X16206000Y-6808000D02*
X16306000Y-6908000D01*
X16306000Y-6808000D02*
X16206000Y-6908000D01*
X16256000Y-6808000D02*
X16256000Y-6908000D01*
X16206000Y-6858000D02*
X16306000Y-6858000D01*
X16206000Y-9348000D02*
X16306000Y-9448000D01*
X16306000Y-9348000D02*
X16206000Y-9448000D01*
X16256000Y-9348000D02*
X16256000Y-9448000D01*
X16206000Y-9398000D02*
X16306000Y-9398000D01*
X16460000Y-6808000D02*
X16560000Y-6908000D01*
X16560000Y-6808000D02*
X16460000Y-6908000D01*
X16510000Y-6808000D02*
X16510000Y-6908000D01*
X16460000Y-6858000D02*
X16560000Y-6858000D01*
X16460000Y-9348000D02*
X16560000Y-9448000D01*
X16560000Y-9348000D02*
X16460000Y-9448000D01*
X16510000Y-9348000D02*
X16510000Y-9448000D01*
X16460000Y-9398000D02*
X16560000Y-9398000D01*
X16714000Y-6808000D02*
X16814000Y-6908000D01*
X16814000Y-6808000D02*
X16714000Y-6908000D01*
X16764000Y-6808000D02*
X16764000Y-6908000D01*
X16714000Y-6858000D02*
X16814000Y-6858000D01*
X16714000Y-9348000D02*
X16814000Y-9448000D01*
X16814000Y-9348000D02*
X16714000Y-9448000D01*
X16764000Y-9348000D02*
X16764000Y-9448000D01*
X16714000Y-9398000D02*
X16814000Y-9398000D01*
X16968000Y-6808000D02*
X17068000Y-6908000D01*
X17068000Y-6808000D02*
X16968000Y-6908000D01*
X17018000Y-6808000D02*
X17018000Y-6908000D01*
X16968000Y-6858000D02*
X17068000Y-6858000D01*
X16968000Y-9348000D02*
X17068000Y-9448000D01*
X17068000Y-9348000D02*
X16968000Y-9448000D01*
X17018000Y-9348000D02*
X17018000Y-9448000D01*
X16968000Y-9398000D02*
X17068000Y-9398000D01*
X17222000Y-6808000D02*
X17322000Y-6908000D01*
X17322000Y-6808000D02*
X17222000Y-6908000D01*
X17272000Y-6808000D02*
X17272000Y-6908000D01*
X17222000Y-6858000D02*
X17322000Y-6858000D01*
X17222000Y-9348000D02*
X17322000Y-9448000D01*
X17322000Y-9348000D02*
X17222000Y-9448000D01*
X17272000Y-9348000D02*
X17272000Y-9448000D01*
X17222000Y-9398000D02*
X17322000Y-9398000D01*
X17476000Y-6808000D02*
X17576000Y-6908000D01*
X17576000Y-6808000D02*
X17476000Y-6908000D01*
X17526000Y-6808000D02*
X17526000Y-6908000D01*
X17476000Y-6858000D02*
X17576000Y-6858000D01*
X17476000Y-9348000D02*
X17576000Y-9448000D01*
X17576000Y-9348000D02*
X17476000Y-9448000D01*
X17526000Y-9348000D02*
X17526000Y-9448000D01*
X17476000Y-9398000D02*
X17576000Y-9398000D01*
X17730000Y-6808000D02*
X17830000Y-6908000D01*
X17830000Y-6808000D02*
X17730000Y-6908000D01*
X17780000Y-6808000D02*
X17780000Y-6908000D01*
X17730000Y-6858000D02*
X17830000Y-6858000D01*
X17730000Y-9348000D02*
X17830000Y-9448000D01*
X17830000Y-9348000D02*
X17730000Y-9448000D01*
X17780000Y-9348000D02*
X17780000Y-9448000D01*
X17730000Y-9398000D02*
X17830000Y-9398000D01*
X17984000Y-6808000D02*
X18084000Y-6908000D01*
X18084000Y-6808000D02*
X17984000Y-6908000D01*
X18034000Y-6808000D02*
X18034000Y-6908000D01*
X17984000Y-6858000D02*
X18084000Y-6858000D01*
X17984000Y-9348000D02*
X18084000Y-9448000D01*
X18084000Y-9348000D02*
X17984000Y-9448000D01*
X18034000Y-9348000D02*
X18034000Y-9448000D01*
X17984000Y-9398000D02*
X18084000Y-9398000D01*
X18238000Y-6808000D02*
X18338000Y-6908000D01*
X18338000Y-6808000D02*
X18238000Y-6908000D01*
X18288000Y-6808000D02*
X18288000Y-6908000D01*
X18238000Y-6858000D02*
X18338000Y-6858000D01*
X18238000Y-9348000D02*
X18338000Y-9448000D01*
X18338000Y-9348000D02*
X18238000Y-9448000D01*
X18288000Y-9348000D02*
X18288000Y-9448000D01*
X18238000Y-9398000D02*
X18338000Y-9398000D01*
X18492000Y-6808000D02*
X18592000Y-6908000D01*
X18592000Y-6808000D02*
X18492000Y-6908000D01*
X18542000Y-6808000D02*
X18542000Y-6908000D01*
X18492000Y-6858000D02*
X18592000Y-6858000D01*
X18492000Y-9348000D02*
X18592000Y-9448000D01*
X18592000Y-9348000D02*
X18492000Y-9448000D01*
X18542000Y-9348000D02*
X18542000Y-9448000D01*
X18492000Y-9398000D02*
X18592000Y-9398000D01*
X18746000Y-6808000D02*
X18846000Y-6908000D01*
X18846000Y-6808000D02*
X18746000Y-6908000D01*
X18796000Y-6808000D02*
X18796000Y-6908000D01*
X18746000Y-6858000D02*
X18846000Y-6858000D01*
X18746000Y-9348000D02*
X18846000Y-9448000D01*
X18846000Y-9348000D02*
X18746000Y-9448000D01*
X18796000Y-9348000D02*
X18796000Y-9448000D01*
X18746000Y-9398000D02*
X18846000Y-9398000D01*
X19000000Y-6808000D02*
X19100000Y-6908000D01*
X19100000Y-6808000D02*
X19000000Y-6908000D01*
X19050000Y-6808000D02*
X19050000Y-6908000D01*
X19000000Y-6858000D02*
X19100000Y-6858000D01*
X19000000Y-9348000D02*
X19100000Y-9448000D01*
X19100000Y-9348000D02*
X19000000Y-9448000D01*
X19050000Y-9348000D02*
X19050000Y-9448000D01*
X19000000Y-9398000D02*
X19100000Y-9398000D01*
X19254000Y-6808000D02*
X19354000Y-6908000D01*
X19354000Y-6808000D02*
X19254000Y-6908000D01*
X19304000Y-6808000D02*
X19304000Y-6908000D01*
X19254000Y-6858000D02*
X19354000Y-6858000D01*
X19254000Y-9348000D02*
X19354000Y-9448000D01*
X19354000Y-9348000D02*
X19254000Y-9448000D01*
X19304000Y-9348000D02*
X19304000Y-9448000D01*
X19254000Y-9398000D02*
X19354000Y-9398000D01*
D13*
X12427500Y-6313000D02*
X12562500Y-6448000D01*
X12562500Y-6313000D02*
X12427500Y-6448000D01*
X12542730Y-6428230D02*
X12542730Y-6332770D01*
X12447270Y-6332770D01*
X12447270Y-6428230D01*
X12542730Y-6428230D01*
X12777500Y-6313000D02*
X12912500Y-6448000D01*
X12912500Y-6313000D02*
X12777500Y-6448000D01*
X12892730Y-6428230D02*
X12892730Y-6332770D01*
X12797270Y-6332770D01*
X12797270Y-6428230D01*
X12892730Y-6428230D01*
X13127500Y-6313000D02*
X13262500Y-6448000D01*
X13262500Y-6313000D02*
X13127500Y-6448000D01*
X13242730Y-6428230D02*
X13242730Y-6332770D01*
X13147270Y-6332770D01*
X13147270Y-6428230D01*
X13242730Y-6428230D01*
X13477500Y-6313000D02*
X13612500Y-6448000D01*
X13612500Y-6313000D02*
X13477500Y-6448000D01*
X13592730Y-6428230D02*
X13592730Y-6332770D01*
X13497270Y-6332770D01*
X13497270Y-6428230D01*
X13592730Y-6428230D01*
X14057500Y-6313000D02*
X14192500Y-6448000D01*
X14192500Y-6313000D02*
X14057500Y-6448000D01*
X14172730Y-6428230D02*
X14172730Y-6332770D01*
X14077270Y-6332770D01*
X14077270Y-6428230D01*
X14172730Y-6428230D01*
X14407500Y-6313000D02*
X14542500Y-6448000D01*
X14542500Y-6313000D02*
X14407500Y-6448000D01*
X14522730Y-6428230D02*
X14522730Y-6332770D01*
X14427270Y-6332770D01*
X14427270Y-6428230D01*
X14522730Y-6428230D01*
D14*
X10207500Y-6410500D02*
X10364500Y-6567500D01*
X10364500Y-6410500D02*
X10207500Y-6567500D01*
X10286000Y-6567500D02*
X10364500Y-6489000D01*
X10286000Y-6410500D01*
X10207500Y-6489000D01*
X10286000Y-6567500D01*
X11827500Y-6410500D02*
X11984500Y-6567500D01*
X11984500Y-6410500D02*
X11827500Y-6567500D01*
X11906000Y-6567500D02*
X11984500Y-6489000D01*
X11906000Y-6410500D01*
X11827500Y-6489000D01*
X11906000Y-6567500D01*
D11*
X10258277Y-10813984D02*
X10258277Y-10613984D01*
X10258277Y-10613984D02*
X10305896Y-10613984D01*
X10305896Y-10613984D02*
X10334467Y-10623508D01*
X10334467Y-10623508D02*
X10353515Y-10642555D01*
X10353515Y-10642555D02*
X10363039Y-10661603D01*
X10363039Y-10661603D02*
X10372563Y-10699698D01*
X10372563Y-10699698D02*
X10372563Y-10728270D01*
X10372563Y-10728270D02*
X10363039Y-10766365D01*
X10363039Y-10766365D02*
X10353515Y-10785412D01*
X10353515Y-10785412D02*
X10334467Y-10804460D01*
X10334467Y-10804460D02*
X10305896Y-10813984D01*
X10305896Y-10813984D02*
X10258277Y-10813984D01*
X10458277Y-10813984D02*
X10458277Y-10680650D01*
X10458277Y-10718746D02*
X10467801Y-10699698D01*
X10467801Y-10699698D02*
X10477324Y-10690174D01*
X10477324Y-10690174D02*
X10496372Y-10680650D01*
X10496372Y-10680650D02*
X10515420Y-10680650D01*
X10582086Y-10813984D02*
X10582086Y-10680650D01*
X10582086Y-10613984D02*
X10572563Y-10623508D01*
X10572563Y-10623508D02*
X10582086Y-10633031D01*
X10582086Y-10633031D02*
X10591610Y-10623508D01*
X10591610Y-10623508D02*
X10582086Y-10613984D01*
X10582086Y-10613984D02*
X10582086Y-10633031D01*
X10705896Y-10813984D02*
X10686848Y-10804460D01*
X10686848Y-10804460D02*
X10677324Y-10785412D01*
X10677324Y-10785412D02*
X10677324Y-10613984D01*
X10810658Y-10813984D02*
X10791610Y-10804460D01*
X10791610Y-10804460D02*
X10782086Y-10785412D01*
X10782086Y-10785412D02*
X10782086Y-10613984D01*
X11039229Y-10813984D02*
X11039229Y-10613984D01*
X11039229Y-10613984D02*
X11105896Y-10756841D01*
X11105896Y-10756841D02*
X11172563Y-10613984D01*
X11172563Y-10613984D02*
X11172563Y-10813984D01*
X11353515Y-10813984D02*
X11353515Y-10709222D01*
X11353515Y-10709222D02*
X11343991Y-10690174D01*
X11343991Y-10690174D02*
X11324943Y-10680650D01*
X11324943Y-10680650D02*
X11286848Y-10680650D01*
X11286848Y-10680650D02*
X11267801Y-10690174D01*
X11353515Y-10804460D02*
X11334467Y-10813984D01*
X11334467Y-10813984D02*
X11286848Y-10813984D01*
X11286848Y-10813984D02*
X11267801Y-10804460D01*
X11267801Y-10804460D02*
X11258277Y-10785412D01*
X11258277Y-10785412D02*
X11258277Y-10766365D01*
X11258277Y-10766365D02*
X11267801Y-10747317D01*
X11267801Y-10747317D02*
X11286848Y-10737793D01*
X11286848Y-10737793D02*
X11334467Y-10737793D01*
X11334467Y-10737793D02*
X11353515Y-10728270D01*
X11448753Y-10680650D02*
X11448753Y-10880650D01*
X11448753Y-10690174D02*
X11467801Y-10680650D01*
X11467801Y-10680650D02*
X11505896Y-10680650D01*
X11505896Y-10680650D02*
X11524943Y-10690174D01*
X11524943Y-10690174D02*
X11534467Y-10699698D01*
X11534467Y-10699698D02*
X11543991Y-10718746D01*
X11543991Y-10718746D02*
X11543991Y-10775889D01*
X11543991Y-10775889D02*
X11534467Y-10794936D01*
X11534467Y-10794936D02*
X11524943Y-10804460D01*
X11524943Y-10804460D02*
X11505896Y-10813984D01*
X11505896Y-10813984D02*
X11467801Y-10813984D01*
X11467801Y-10813984D02*
X11448753Y-10804460D01*
X11629705Y-10794936D02*
X11639229Y-10804460D01*
X11639229Y-10804460D02*
X11629705Y-10813984D01*
X11629705Y-10813984D02*
X11620182Y-10804460D01*
X11620182Y-10804460D02*
X11629705Y-10794936D01*
X11629705Y-10794936D02*
X11629705Y-10813984D01*
X11629705Y-10690174D02*
X11639229Y-10699698D01*
X11639229Y-10699698D02*
X11629705Y-10709222D01*
X11629705Y-10709222D02*
X11620182Y-10699698D01*
X11620182Y-10699698D02*
X11629705Y-10690174D01*
X11629705Y-10690174D02*
X11629705Y-10709222D01*
D12*
X9962500Y-11125000D02*
X9997500Y-11160000D01*
X9997500Y-11125000D02*
X9962500Y-11160000D01*
D11*
X10296372Y-11033984D02*
X10315420Y-11033984D01*
X10315420Y-11033984D02*
X10334467Y-11043508D01*
X10334467Y-11043508D02*
X10343991Y-11053031D01*
X10343991Y-11053031D02*
X10353515Y-11072079D01*
X10353515Y-11072079D02*
X10363039Y-11110174D01*
X10363039Y-11110174D02*
X10363039Y-11157793D01*
X10363039Y-11157793D02*
X10353515Y-11195888D01*
X10353515Y-11195888D02*
X10343991Y-11214936D01*
X10343991Y-11214936D02*
X10334467Y-11224460D01*
X10334467Y-11224460D02*
X10315420Y-11233984D01*
X10315420Y-11233984D02*
X10296372Y-11233984D01*
X10296372Y-11233984D02*
X10277324Y-11224460D01*
X10277324Y-11224460D02*
X10267801Y-11214936D01*
X10267801Y-11214936D02*
X10258277Y-11195888D01*
X10258277Y-11195888D02*
X10248753Y-11157793D01*
X10248753Y-11157793D02*
X10248753Y-11110174D01*
X10248753Y-11110174D02*
X10258277Y-11072079D01*
X10258277Y-11072079D02*
X10267801Y-11053031D01*
X10267801Y-11053031D02*
X10277324Y-11043508D01*
X10277324Y-11043508D02*
X10296372Y-11033984D01*
X10448753Y-11214936D02*
X10458277Y-11224460D01*
X10458277Y-11224460D02*
X10448753Y-11233984D01*
X10448753Y-11233984D02*
X10439229Y-11224460D01*
X10439229Y-11224460D02*
X10448753Y-11214936D01*
X10448753Y-11214936D02*
X10448753Y-11233984D01*
X10524944Y-11033984D02*
X10648753Y-11033984D01*
X10648753Y-11033984D02*
X10582086Y-11110174D01*
X10582086Y-11110174D02*
X10610658Y-11110174D01*
X10610658Y-11110174D02*
X10629705Y-11119698D01*
X10629705Y-11119698D02*
X10639229Y-11129222D01*
X10639229Y-11129222D02*
X10648753Y-11148270D01*
X10648753Y-11148270D02*
X10648753Y-11195888D01*
X10648753Y-11195888D02*
X10639229Y-11214936D01*
X10639229Y-11214936D02*
X10629705Y-11224460D01*
X10629705Y-11224460D02*
X10610658Y-11233984D01*
X10610658Y-11233984D02*
X10553515Y-11233984D01*
X10553515Y-11233984D02*
X10534467Y-11224460D01*
X10534467Y-11224460D02*
X10524944Y-11214936D01*
X10829705Y-11033984D02*
X10734467Y-11033984D01*
X10734467Y-11033984D02*
X10724944Y-11129222D01*
X10724944Y-11129222D02*
X10734467Y-11119698D01*
X10734467Y-11119698D02*
X10753515Y-11110174D01*
X10753515Y-11110174D02*
X10801134Y-11110174D01*
X10801134Y-11110174D02*
X10820182Y-11119698D01*
X10820182Y-11119698D02*
X10829705Y-11129222D01*
X10829705Y-11129222D02*
X10839229Y-11148270D01*
X10839229Y-11148270D02*
X10839229Y-11195888D01*
X10839229Y-11195888D02*
X10829705Y-11214936D01*
X10829705Y-11214936D02*
X10820182Y-11224460D01*
X10820182Y-11224460D02*
X10801134Y-11233984D01*
X10801134Y-11233984D02*
X10753515Y-11233984D01*
X10753515Y-11233984D02*
X10734467Y-11224460D01*
X10734467Y-11224460D02*
X10724944Y-11214936D01*
X10963039Y-11033984D02*
X10982086Y-11033984D01*
X10982086Y-11033984D02*
X11001134Y-11043508D01*
X11001134Y-11043508D02*
X11010658Y-11053031D01*
X11010658Y-11053031D02*
X11020182Y-11072079D01*
X11020182Y-11072079D02*
X11029705Y-11110174D01*
X11029705Y-11110174D02*
X11029705Y-11157793D01*
X11029705Y-11157793D02*
X11020182Y-11195888D01*
X11020182Y-11195888D02*
X11010658Y-11214936D01*
X11010658Y-11214936D02*
X11001134Y-11224460D01*
X11001134Y-11224460D02*
X10982086Y-11233984D01*
X10982086Y-11233984D02*
X10963039Y-11233984D01*
X10963039Y-11233984D02*
X10943991Y-11224460D01*
X10943991Y-11224460D02*
X10934467Y-11214936D01*
X10934467Y-11214936D02*
X10924944Y-11195888D01*
X10924944Y-11195888D02*
X10915420Y-11157793D01*
X10915420Y-11157793D02*
X10915420Y-11110174D01*
X10915420Y-11110174D02*
X10924944Y-11072079D01*
X10924944Y-11072079D02*
X10934467Y-11053031D01*
X10934467Y-11053031D02*
X10943991Y-11043508D01*
X10943991Y-11043508D02*
X10963039Y-11033984D01*
X11115420Y-11233984D02*
X11115420Y-11100650D01*
X11115420Y-11119698D02*
X11124944Y-11110174D01*
X11124944Y-11110174D02*
X11143991Y-11100650D01*
X11143991Y-11100650D02*
X11172563Y-11100650D01*
X11172563Y-11100650D02*
X11191610Y-11110174D01*
X11191610Y-11110174D02*
X11201134Y-11129222D01*
X11201134Y-11129222D02*
X11201134Y-11233984D01*
X11201134Y-11129222D02*
X11210658Y-11110174D01*
X11210658Y-11110174D02*
X11229705Y-11100650D01*
X11229705Y-11100650D02*
X11258277Y-11100650D01*
X11258277Y-11100650D02*
X11277324Y-11110174D01*
X11277324Y-11110174D02*
X11286848Y-11129222D01*
X11286848Y-11129222D02*
X11286848Y-11233984D01*
X11382086Y-11233984D02*
X11382086Y-11100650D01*
X11382086Y-11119698D02*
X11391610Y-11110174D01*
X11391610Y-11110174D02*
X11410658Y-11100650D01*
X11410658Y-11100650D02*
X11439229Y-11100650D01*
X11439229Y-11100650D02*
X11458277Y-11110174D01*
X11458277Y-11110174D02*
X11467801Y-11129222D01*
X11467801Y-11129222D02*
X11467801Y-11233984D01*
X11467801Y-11129222D02*
X11477324Y-11110174D01*
X11477324Y-11110174D02*
X11496372Y-11100650D01*
X11496372Y-11100650D02*
X11524943Y-11100650D01*
X11524943Y-11100650D02*
X11543991Y-11110174D01*
X11543991Y-11110174D02*
X11553515Y-11129222D01*
X11553515Y-11129222D02*
X11553515Y-11233984D01*
X11943991Y-11024460D02*
X11772563Y-11281603D01*
X12201134Y-11033984D02*
X12220182Y-11033984D01*
X12220182Y-11033984D02*
X12239229Y-11043508D01*
X12239229Y-11043508D02*
X12248753Y-11053031D01*
X12248753Y-11053031D02*
X12258277Y-11072079D01*
X12258277Y-11072079D02*
X12267801Y-11110174D01*
X12267801Y-11110174D02*
X12267801Y-11157793D01*
X12267801Y-11157793D02*
X12258277Y-11195888D01*
X12258277Y-11195888D02*
X12248753Y-11214936D01*
X12248753Y-11214936D02*
X12239229Y-11224460D01*
X12239229Y-11224460D02*
X12220182Y-11233984D01*
X12220182Y-11233984D02*
X12201134Y-11233984D01*
X12201134Y-11233984D02*
X12182086Y-11224460D01*
X12182086Y-11224460D02*
X12172563Y-11214936D01*
X12172563Y-11214936D02*
X12163039Y-11195888D01*
X12163039Y-11195888D02*
X12153515Y-11157793D01*
X12153515Y-11157793D02*
X12153515Y-11110174D01*
X12153515Y-11110174D02*
X12163039Y-11072079D01*
X12163039Y-11072079D02*
X12172563Y-11053031D01*
X12172563Y-11053031D02*
X12182086Y-11043508D01*
X12182086Y-11043508D02*
X12201134Y-11033984D01*
X12353515Y-11214936D02*
X12363039Y-11224460D01*
X12363039Y-11224460D02*
X12353515Y-11233984D01*
X12353515Y-11233984D02*
X12343991Y-11224460D01*
X12343991Y-11224460D02*
X12353515Y-11214936D01*
X12353515Y-11214936D02*
X12353515Y-11233984D01*
X12486848Y-11033984D02*
X12505896Y-11033984D01*
X12505896Y-11033984D02*
X12524944Y-11043508D01*
X12524944Y-11043508D02*
X12534467Y-11053031D01*
X12534467Y-11053031D02*
X12543991Y-11072079D01*
X12543991Y-11072079D02*
X12553515Y-11110174D01*
X12553515Y-11110174D02*
X12553515Y-11157793D01*
X12553515Y-11157793D02*
X12543991Y-11195888D01*
X12543991Y-11195888D02*
X12534467Y-11214936D01*
X12534467Y-11214936D02*
X12524944Y-11224460D01*
X12524944Y-11224460D02*
X12505896Y-11233984D01*
X12505896Y-11233984D02*
X12486848Y-11233984D01*
X12486848Y-11233984D02*
X12467801Y-11224460D01*
X12467801Y-11224460D02*
X12458277Y-11214936D01*
X12458277Y-11214936D02*
X12448753Y-11195888D01*
X12448753Y-11195888D02*
X12439229Y-11157793D01*
X12439229Y-11157793D02*
X12439229Y-11110174D01*
X12439229Y-11110174D02*
X12448753Y-11072079D01*
X12448753Y-11072079D02*
X12458277Y-11053031D01*
X12458277Y-11053031D02*
X12467801Y-11043508D01*
X12467801Y-11043508D02*
X12486848Y-11033984D01*
X12743991Y-11233984D02*
X12629706Y-11233984D01*
X12686848Y-11233984D02*
X12686848Y-11033984D01*
X12686848Y-11033984D02*
X12667801Y-11062555D01*
X12667801Y-11062555D02*
X12648753Y-11081603D01*
X12648753Y-11081603D02*
X12629706Y-11091127D01*
X12810658Y-11033984D02*
X12934467Y-11033984D01*
X12934467Y-11033984D02*
X12867801Y-11110174D01*
X12867801Y-11110174D02*
X12896372Y-11110174D01*
X12896372Y-11110174D02*
X12915420Y-11119698D01*
X12915420Y-11119698D02*
X12924944Y-11129222D01*
X12924944Y-11129222D02*
X12934467Y-11148270D01*
X12934467Y-11148270D02*
X12934467Y-11195888D01*
X12934467Y-11195888D02*
X12924944Y-11214936D01*
X12924944Y-11214936D02*
X12915420Y-11224460D01*
X12915420Y-11224460D02*
X12896372Y-11233984D01*
X12896372Y-11233984D02*
X12839229Y-11233984D01*
X12839229Y-11233984D02*
X12820182Y-11224460D01*
X12820182Y-11224460D02*
X12810658Y-11214936D01*
X13048753Y-11119698D02*
X13029706Y-11110174D01*
X13029706Y-11110174D02*
X13020182Y-11100650D01*
X13020182Y-11100650D02*
X13010658Y-11081603D01*
X13010658Y-11081603D02*
X13010658Y-11072079D01*
X13010658Y-11072079D02*
X13020182Y-11053031D01*
X13020182Y-11053031D02*
X13029706Y-11043508D01*
X13029706Y-11043508D02*
X13048753Y-11033984D01*
X13048753Y-11033984D02*
X13086848Y-11033984D01*
X13086848Y-11033984D02*
X13105896Y-11043508D01*
X13105896Y-11043508D02*
X13115420Y-11053031D01*
X13115420Y-11053031D02*
X13124944Y-11072079D01*
X13124944Y-11072079D02*
X13124944Y-11081603D01*
X13124944Y-11081603D02*
X13115420Y-11100650D01*
X13115420Y-11100650D02*
X13105896Y-11110174D01*
X13105896Y-11110174D02*
X13086848Y-11119698D01*
X13086848Y-11119698D02*
X13048753Y-11119698D01*
X13048753Y-11119698D02*
X13029706Y-11129222D01*
X13029706Y-11129222D02*
X13020182Y-11138746D01*
X13020182Y-11138746D02*
X13010658Y-11157793D01*
X13010658Y-11157793D02*
X13010658Y-11195888D01*
X13010658Y-11195888D02*
X13020182Y-11214936D01*
X13020182Y-11214936D02*
X13029706Y-11224460D01*
X13029706Y-11224460D02*
X13048753Y-11233984D01*
X13048753Y-11233984D02*
X13086848Y-11233984D01*
X13086848Y-11233984D02*
X13105896Y-11224460D01*
X13105896Y-11224460D02*
X13115420Y-11214936D01*
X13115420Y-11214936D02*
X13124944Y-11195888D01*
X13124944Y-11195888D02*
X13124944Y-11157793D01*
X13124944Y-11157793D02*
X13115420Y-11138746D01*
X13115420Y-11138746D02*
X13105896Y-11129222D01*
X13105896Y-11129222D02*
X13086848Y-11119698D01*
X13201134Y-11033984D02*
X13201134Y-11072079D01*
X13277325Y-11033984D02*
X13277325Y-11072079D01*
X13572563Y-11310174D02*
X13563039Y-11300650D01*
X13563039Y-11300650D02*
X13543991Y-11272079D01*
X13543991Y-11272079D02*
X13534468Y-11253031D01*
X13534468Y-11253031D02*
X13524944Y-11224460D01*
X13524944Y-11224460D02*
X13515420Y-11176841D01*
X13515420Y-11176841D02*
X13515420Y-11138746D01*
X13515420Y-11138746D02*
X13524944Y-11091127D01*
X13524944Y-11091127D02*
X13534468Y-11062555D01*
X13534468Y-11062555D02*
X13543991Y-11043508D01*
X13543991Y-11043508D02*
X13563039Y-11014936D01*
X13563039Y-11014936D02*
X13572563Y-11005412D01*
X13734468Y-11100650D02*
X13734468Y-11233984D01*
X13686848Y-11024460D02*
X13639229Y-11167317D01*
X13639229Y-11167317D02*
X13763039Y-11167317D01*
X13820182Y-11033984D02*
X13953515Y-11033984D01*
X13953515Y-11033984D02*
X13867801Y-11233984D01*
X14182087Y-11233984D02*
X14182087Y-11033984D01*
X14267801Y-11233984D02*
X14267801Y-11129222D01*
X14267801Y-11129222D02*
X14258277Y-11110174D01*
X14258277Y-11110174D02*
X14239230Y-11100650D01*
X14239230Y-11100650D02*
X14210658Y-11100650D01*
X14210658Y-11100650D02*
X14191610Y-11110174D01*
X14191610Y-11110174D02*
X14182087Y-11119698D01*
X14391610Y-11233984D02*
X14372563Y-11224460D01*
X14372563Y-11224460D02*
X14363039Y-11214936D01*
X14363039Y-11214936D02*
X14353515Y-11195888D01*
X14353515Y-11195888D02*
X14353515Y-11138746D01*
X14353515Y-11138746D02*
X14363039Y-11119698D01*
X14363039Y-11119698D02*
X14372563Y-11110174D01*
X14372563Y-11110174D02*
X14391610Y-11100650D01*
X14391610Y-11100650D02*
X14420182Y-11100650D01*
X14420182Y-11100650D02*
X14439230Y-11110174D01*
X14439230Y-11110174D02*
X14448753Y-11119698D01*
X14448753Y-11119698D02*
X14458277Y-11138746D01*
X14458277Y-11138746D02*
X14458277Y-11195888D01*
X14458277Y-11195888D02*
X14448753Y-11214936D01*
X14448753Y-11214936D02*
X14439230Y-11224460D01*
X14439230Y-11224460D02*
X14420182Y-11233984D01*
X14420182Y-11233984D02*
X14391610Y-11233984D01*
X14572563Y-11233984D02*
X14553515Y-11224460D01*
X14553515Y-11224460D02*
X14543991Y-11205412D01*
X14543991Y-11205412D02*
X14543991Y-11033984D01*
X14724944Y-11224460D02*
X14705896Y-11233984D01*
X14705896Y-11233984D02*
X14667801Y-11233984D01*
X14667801Y-11233984D02*
X14648753Y-11224460D01*
X14648753Y-11224460D02*
X14639230Y-11205412D01*
X14639230Y-11205412D02*
X14639230Y-11129222D01*
X14639230Y-11129222D02*
X14648753Y-11110174D01*
X14648753Y-11110174D02*
X14667801Y-11100650D01*
X14667801Y-11100650D02*
X14705896Y-11100650D01*
X14705896Y-11100650D02*
X14724944Y-11110174D01*
X14724944Y-11110174D02*
X14734468Y-11129222D01*
X14734468Y-11129222D02*
X14734468Y-11148270D01*
X14734468Y-11148270D02*
X14639230Y-11167317D01*
X14810658Y-11224460D02*
X14829706Y-11233984D01*
X14829706Y-11233984D02*
X14867801Y-11233984D01*
X14867801Y-11233984D02*
X14886849Y-11224460D01*
X14886849Y-11224460D02*
X14896372Y-11205412D01*
X14896372Y-11205412D02*
X14896372Y-11195888D01*
X14896372Y-11195888D02*
X14886849Y-11176841D01*
X14886849Y-11176841D02*
X14867801Y-11167317D01*
X14867801Y-11167317D02*
X14839230Y-11167317D01*
X14839230Y-11167317D02*
X14820182Y-11157793D01*
X14820182Y-11157793D02*
X14810658Y-11138746D01*
X14810658Y-11138746D02*
X14810658Y-11129222D01*
X14810658Y-11129222D02*
X14820182Y-11110174D01*
X14820182Y-11110174D02*
X14839230Y-11100650D01*
X14839230Y-11100650D02*
X14867801Y-11100650D01*
X14867801Y-11100650D02*
X14886849Y-11110174D01*
X14963039Y-11310174D02*
X14972563Y-11300650D01*
X14972563Y-11300650D02*
X14991611Y-11272079D01*
X14991611Y-11272079D02*
X15001134Y-11253031D01*
X15001134Y-11253031D02*
X15010658Y-11224460D01*
X15010658Y-11224460D02*
X15020182Y-11176841D01*
X15020182Y-11176841D02*
X15020182Y-11138746D01*
X15020182Y-11138746D02*
X15010658Y-11091127D01*
X15010658Y-11091127D02*
X15001134Y-11062555D01*
X15001134Y-11062555D02*
X14991611Y-11043508D01*
X14991611Y-11043508D02*
X14972563Y-11014936D01*
X14972563Y-11014936D02*
X14963039Y-11005412D01*
D12*
X9997500Y-11406500D02*
G75*
G02*
X9952500Y-11406500I-22500J0D01*
G01*
X9952500Y-11406500D02*
G75*
G02*
X9997500Y-11406500I22500J0D01*
G01*
D11*
X10296372Y-11297984D02*
X10315420Y-11297984D01*
X10315420Y-11297984D02*
X10334467Y-11307508D01*
X10334467Y-11307508D02*
X10343991Y-11317031D01*
X10343991Y-11317031D02*
X10353515Y-11336079D01*
X10353515Y-11336079D02*
X10363039Y-11374174D01*
X10363039Y-11374174D02*
X10363039Y-11421793D01*
X10363039Y-11421793D02*
X10353515Y-11459888D01*
X10353515Y-11459888D02*
X10343991Y-11478936D01*
X10343991Y-11478936D02*
X10334467Y-11488460D01*
X10334467Y-11488460D02*
X10315420Y-11497984D01*
X10315420Y-11497984D02*
X10296372Y-11497984D01*
X10296372Y-11497984D02*
X10277324Y-11488460D01*
X10277324Y-11488460D02*
X10267801Y-11478936D01*
X10267801Y-11478936D02*
X10258277Y-11459888D01*
X10258277Y-11459888D02*
X10248753Y-11421793D01*
X10248753Y-11421793D02*
X10248753Y-11374174D01*
X10248753Y-11374174D02*
X10258277Y-11336079D01*
X10258277Y-11336079D02*
X10267801Y-11317031D01*
X10267801Y-11317031D02*
X10277324Y-11307508D01*
X10277324Y-11307508D02*
X10296372Y-11297984D01*
X10448753Y-11478936D02*
X10458277Y-11488460D01*
X10458277Y-11488460D02*
X10448753Y-11497984D01*
X10448753Y-11497984D02*
X10439229Y-11488460D01*
X10439229Y-11488460D02*
X10448753Y-11478936D01*
X10448753Y-11478936D02*
X10448753Y-11497984D01*
X10629705Y-11364650D02*
X10629705Y-11497984D01*
X10582086Y-11288460D02*
X10534467Y-11431317D01*
X10534467Y-11431317D02*
X10658277Y-11431317D01*
X10829705Y-11297984D02*
X10734467Y-11297984D01*
X10734467Y-11297984D02*
X10724944Y-11393222D01*
X10724944Y-11393222D02*
X10734467Y-11383698D01*
X10734467Y-11383698D02*
X10753515Y-11374174D01*
X10753515Y-11374174D02*
X10801134Y-11374174D01*
X10801134Y-11374174D02*
X10820182Y-11383698D01*
X10820182Y-11383698D02*
X10829705Y-11393222D01*
X10829705Y-11393222D02*
X10839229Y-11412269D01*
X10839229Y-11412269D02*
X10839229Y-11459888D01*
X10839229Y-11459888D02*
X10829705Y-11478936D01*
X10829705Y-11478936D02*
X10820182Y-11488460D01*
X10820182Y-11488460D02*
X10801134Y-11497984D01*
X10801134Y-11497984D02*
X10753515Y-11497984D01*
X10753515Y-11497984D02*
X10734467Y-11488460D01*
X10734467Y-11488460D02*
X10724944Y-11478936D01*
X10963039Y-11297984D02*
X10982086Y-11297984D01*
X10982086Y-11297984D02*
X11001134Y-11307508D01*
X11001134Y-11307508D02*
X11010658Y-11317031D01*
X11010658Y-11317031D02*
X11020182Y-11336079D01*
X11020182Y-11336079D02*
X11029705Y-11374174D01*
X11029705Y-11374174D02*
X11029705Y-11421793D01*
X11029705Y-11421793D02*
X11020182Y-11459888D01*
X11020182Y-11459888D02*
X11010658Y-11478936D01*
X11010658Y-11478936D02*
X11001134Y-11488460D01*
X11001134Y-11488460D02*
X10982086Y-11497984D01*
X10982086Y-11497984D02*
X10963039Y-11497984D01*
X10963039Y-11497984D02*
X10943991Y-11488460D01*
X10943991Y-11488460D02*
X10934467Y-11478936D01*
X10934467Y-11478936D02*
X10924944Y-11459888D01*
X10924944Y-11459888D02*
X10915420Y-11421793D01*
X10915420Y-11421793D02*
X10915420Y-11374174D01*
X10915420Y-11374174D02*
X10924944Y-11336079D01*
X10924944Y-11336079D02*
X10934467Y-11317031D01*
X10934467Y-11317031D02*
X10943991Y-11307508D01*
X10943991Y-11307508D02*
X10963039Y-11297984D01*
X11115420Y-11497984D02*
X11115420Y-11364650D01*
X11115420Y-11383698D02*
X11124944Y-11374174D01*
X11124944Y-11374174D02*
X11143991Y-11364650D01*
X11143991Y-11364650D02*
X11172563Y-11364650D01*
X11172563Y-11364650D02*
X11191610Y-11374174D01*
X11191610Y-11374174D02*
X11201134Y-11393222D01*
X11201134Y-11393222D02*
X11201134Y-11497984D01*
X11201134Y-11393222D02*
X11210658Y-11374174D01*
X11210658Y-11374174D02*
X11229705Y-11364650D01*
X11229705Y-11364650D02*
X11258277Y-11364650D01*
X11258277Y-11364650D02*
X11277324Y-11374174D01*
X11277324Y-11374174D02*
X11286848Y-11393222D01*
X11286848Y-11393222D02*
X11286848Y-11497984D01*
X11382086Y-11497984D02*
X11382086Y-11364650D01*
X11382086Y-11383698D02*
X11391610Y-11374174D01*
X11391610Y-11374174D02*
X11410658Y-11364650D01*
X11410658Y-11364650D02*
X11439229Y-11364650D01*
X11439229Y-11364650D02*
X11458277Y-11374174D01*
X11458277Y-11374174D02*
X11467801Y-11393222D01*
X11467801Y-11393222D02*
X11467801Y-11497984D01*
X11467801Y-11393222D02*
X11477324Y-11374174D01*
X11477324Y-11374174D02*
X11496372Y-11364650D01*
X11496372Y-11364650D02*
X11524943Y-11364650D01*
X11524943Y-11364650D02*
X11543991Y-11374174D01*
X11543991Y-11374174D02*
X11553515Y-11393222D01*
X11553515Y-11393222D02*
X11553515Y-11497984D01*
X11943991Y-11288460D02*
X11772563Y-11545603D01*
X12201134Y-11297984D02*
X12220182Y-11297984D01*
X12220182Y-11297984D02*
X12239229Y-11307508D01*
X12239229Y-11307508D02*
X12248753Y-11317031D01*
X12248753Y-11317031D02*
X12258277Y-11336079D01*
X12258277Y-11336079D02*
X12267801Y-11374174D01*
X12267801Y-11374174D02*
X12267801Y-11421793D01*
X12267801Y-11421793D02*
X12258277Y-11459888D01*
X12258277Y-11459888D02*
X12248753Y-11478936D01*
X12248753Y-11478936D02*
X12239229Y-11488460D01*
X12239229Y-11488460D02*
X12220182Y-11497984D01*
X12220182Y-11497984D02*
X12201134Y-11497984D01*
X12201134Y-11497984D02*
X12182086Y-11488460D01*
X12182086Y-11488460D02*
X12172563Y-11478936D01*
X12172563Y-11478936D02*
X12163039Y-11459888D01*
X12163039Y-11459888D02*
X12153515Y-11421793D01*
X12153515Y-11421793D02*
X12153515Y-11374174D01*
X12153515Y-11374174D02*
X12163039Y-11336079D01*
X12163039Y-11336079D02*
X12172563Y-11317031D01*
X12172563Y-11317031D02*
X12182086Y-11307508D01*
X12182086Y-11307508D02*
X12201134Y-11297984D01*
X12353515Y-11478936D02*
X12363039Y-11488460D01*
X12363039Y-11488460D02*
X12353515Y-11497984D01*
X12353515Y-11497984D02*
X12343991Y-11488460D01*
X12343991Y-11488460D02*
X12353515Y-11478936D01*
X12353515Y-11478936D02*
X12353515Y-11497984D01*
X12486848Y-11297984D02*
X12505896Y-11297984D01*
X12505896Y-11297984D02*
X12524944Y-11307508D01*
X12524944Y-11307508D02*
X12534467Y-11317031D01*
X12534467Y-11317031D02*
X12543991Y-11336079D01*
X12543991Y-11336079D02*
X12553515Y-11374174D01*
X12553515Y-11374174D02*
X12553515Y-11421793D01*
X12553515Y-11421793D02*
X12543991Y-11459888D01*
X12543991Y-11459888D02*
X12534467Y-11478936D01*
X12534467Y-11478936D02*
X12524944Y-11488460D01*
X12524944Y-11488460D02*
X12505896Y-11497984D01*
X12505896Y-11497984D02*
X12486848Y-11497984D01*
X12486848Y-11497984D02*
X12467801Y-11488460D01*
X12467801Y-11488460D02*
X12458277Y-11478936D01*
X12458277Y-11478936D02*
X12448753Y-11459888D01*
X12448753Y-11459888D02*
X12439229Y-11421793D01*
X12439229Y-11421793D02*
X12439229Y-11374174D01*
X12439229Y-11374174D02*
X12448753Y-11336079D01*
X12448753Y-11336079D02*
X12458277Y-11317031D01*
X12458277Y-11317031D02*
X12467801Y-11307508D01*
X12467801Y-11307508D02*
X12486848Y-11297984D01*
X12743991Y-11497984D02*
X12629706Y-11497984D01*
X12686848Y-11497984D02*
X12686848Y-11297984D01*
X12686848Y-11297984D02*
X12667801Y-11326555D01*
X12667801Y-11326555D02*
X12648753Y-11345603D01*
X12648753Y-11345603D02*
X12629706Y-11355127D01*
X12810658Y-11297984D02*
X12943991Y-11297984D01*
X12943991Y-11297984D02*
X12858277Y-11497984D01*
X13001134Y-11297984D02*
X13134467Y-11297984D01*
X13134467Y-11297984D02*
X13048753Y-11497984D01*
X13201134Y-11297984D02*
X13201134Y-11336079D01*
X13277325Y-11297984D02*
X13277325Y-11336079D01*
X13572563Y-11574174D02*
X13563039Y-11564650D01*
X13563039Y-11564650D02*
X13543991Y-11536079D01*
X13543991Y-11536079D02*
X13534468Y-11517031D01*
X13534468Y-11517031D02*
X13524944Y-11488460D01*
X13524944Y-11488460D02*
X13515420Y-11440841D01*
X13515420Y-11440841D02*
X13515420Y-11402746D01*
X13515420Y-11402746D02*
X13524944Y-11355127D01*
X13524944Y-11355127D02*
X13534468Y-11326555D01*
X13534468Y-11326555D02*
X13543991Y-11307508D01*
X13543991Y-11307508D02*
X13563039Y-11278936D01*
X13563039Y-11278936D02*
X13572563Y-11269412D01*
X13753515Y-11497984D02*
X13639229Y-11497984D01*
X13696372Y-11497984D02*
X13696372Y-11297984D01*
X13696372Y-11297984D02*
X13677325Y-11326555D01*
X13677325Y-11326555D02*
X13658277Y-11345603D01*
X13658277Y-11345603D02*
X13639229Y-11355127D01*
X13924944Y-11297984D02*
X13886848Y-11297984D01*
X13886848Y-11297984D02*
X13867801Y-11307508D01*
X13867801Y-11307508D02*
X13858277Y-11317031D01*
X13858277Y-11317031D02*
X13839229Y-11345603D01*
X13839229Y-11345603D02*
X13829706Y-11383698D01*
X13829706Y-11383698D02*
X13829706Y-11459888D01*
X13829706Y-11459888D02*
X13839229Y-11478936D01*
X13839229Y-11478936D02*
X13848753Y-11488460D01*
X13848753Y-11488460D02*
X13867801Y-11497984D01*
X13867801Y-11497984D02*
X13905896Y-11497984D01*
X13905896Y-11497984D02*
X13924944Y-11488460D01*
X13924944Y-11488460D02*
X13934468Y-11478936D01*
X13934468Y-11478936D02*
X13943991Y-11459888D01*
X13943991Y-11459888D02*
X13943991Y-11412269D01*
X13943991Y-11412269D02*
X13934468Y-11393222D01*
X13934468Y-11393222D02*
X13924944Y-11383698D01*
X13924944Y-11383698D02*
X13905896Y-11374174D01*
X13905896Y-11374174D02*
X13867801Y-11374174D01*
X13867801Y-11374174D02*
X13848753Y-11383698D01*
X13848753Y-11383698D02*
X13839229Y-11393222D01*
X13839229Y-11393222D02*
X13829706Y-11412269D01*
X14182087Y-11497984D02*
X14182087Y-11297984D01*
X14267801Y-11497984D02*
X14267801Y-11393222D01*
X14267801Y-11393222D02*
X14258277Y-11374174D01*
X14258277Y-11374174D02*
X14239230Y-11364650D01*
X14239230Y-11364650D02*
X14210658Y-11364650D01*
X14210658Y-11364650D02*
X14191610Y-11374174D01*
X14191610Y-11374174D02*
X14182087Y-11383698D01*
X14391610Y-11497984D02*
X14372563Y-11488460D01*
X14372563Y-11488460D02*
X14363039Y-11478936D01*
X14363039Y-11478936D02*
X14353515Y-11459888D01*
X14353515Y-11459888D02*
X14353515Y-11402746D01*
X14353515Y-11402746D02*
X14363039Y-11383698D01*
X14363039Y-11383698D02*
X14372563Y-11374174D01*
X14372563Y-11374174D02*
X14391610Y-11364650D01*
X14391610Y-11364650D02*
X14420182Y-11364650D01*
X14420182Y-11364650D02*
X14439230Y-11374174D01*
X14439230Y-11374174D02*
X14448753Y-11383698D01*
X14448753Y-11383698D02*
X14458277Y-11402746D01*
X14458277Y-11402746D02*
X14458277Y-11459888D01*
X14458277Y-11459888D02*
X14448753Y-11478936D01*
X14448753Y-11478936D02*
X14439230Y-11488460D01*
X14439230Y-11488460D02*
X14420182Y-11497984D01*
X14420182Y-11497984D02*
X14391610Y-11497984D01*
X14572563Y-11497984D02*
X14553515Y-11488460D01*
X14553515Y-11488460D02*
X14543991Y-11469412D01*
X14543991Y-11469412D02*
X14543991Y-11297984D01*
X14724944Y-11488460D02*
X14705896Y-11497984D01*
X14705896Y-11497984D02*
X14667801Y-11497984D01*
X14667801Y-11497984D02*
X14648753Y-11488460D01*
X14648753Y-11488460D02*
X14639230Y-11469412D01*
X14639230Y-11469412D02*
X14639230Y-11393222D01*
X14639230Y-11393222D02*
X14648753Y-11374174D01*
X14648753Y-11374174D02*
X14667801Y-11364650D01*
X14667801Y-11364650D02*
X14705896Y-11364650D01*
X14705896Y-11364650D02*
X14724944Y-11374174D01*
X14724944Y-11374174D02*
X14734468Y-11393222D01*
X14734468Y-11393222D02*
X14734468Y-11412269D01*
X14734468Y-11412269D02*
X14639230Y-11431317D01*
X14810658Y-11488460D02*
X14829706Y-11497984D01*
X14829706Y-11497984D02*
X14867801Y-11497984D01*
X14867801Y-11497984D02*
X14886849Y-11488460D01*
X14886849Y-11488460D02*
X14896372Y-11469412D01*
X14896372Y-11469412D02*
X14896372Y-11459888D01*
X14896372Y-11459888D02*
X14886849Y-11440841D01*
X14886849Y-11440841D02*
X14867801Y-11431317D01*
X14867801Y-11431317D02*
X14839230Y-11431317D01*
X14839230Y-11431317D02*
X14820182Y-11421793D01*
X14820182Y-11421793D02*
X14810658Y-11402746D01*
X14810658Y-11402746D02*
X14810658Y-11393222D01*
X14810658Y-11393222D02*
X14820182Y-11374174D01*
X14820182Y-11374174D02*
X14839230Y-11364650D01*
X14839230Y-11364650D02*
X14867801Y-11364650D01*
X14867801Y-11364650D02*
X14886849Y-11374174D01*
X14963039Y-11574174D02*
X14972563Y-11564650D01*
X14972563Y-11564650D02*
X14991611Y-11536079D01*
X14991611Y-11536079D02*
X15001134Y-11517031D01*
X15001134Y-11517031D02*
X15010658Y-11488460D01*
X15010658Y-11488460D02*
X15020182Y-11440841D01*
X15020182Y-11440841D02*
X15020182Y-11402746D01*
X15020182Y-11402746D02*
X15010658Y-11355127D01*
X15010658Y-11355127D02*
X15001134Y-11326555D01*
X15001134Y-11326555D02*
X14991611Y-11307508D01*
X14991611Y-11307508D02*
X14972563Y-11278936D01*
X14972563Y-11278936D02*
X14963039Y-11269412D01*
D12*
X9955000Y-11628000D02*
X9955000Y-11713000D01*
X9912500Y-11670500D02*
X9997500Y-11670500D01*
D11*
X10296372Y-11561984D02*
X10315420Y-11561984D01*
X10315420Y-11561984D02*
X10334467Y-11571508D01*
X10334467Y-11571508D02*
X10343991Y-11581031D01*
X10343991Y-11581031D02*
X10353515Y-11600079D01*
X10353515Y-11600079D02*
X10363039Y-11638174D01*
X10363039Y-11638174D02*
X10363039Y-11685793D01*
X10363039Y-11685793D02*
X10353515Y-11723888D01*
X10353515Y-11723888D02*
X10343991Y-11742936D01*
X10343991Y-11742936D02*
X10334467Y-11752460D01*
X10334467Y-11752460D02*
X10315420Y-11761984D01*
X10315420Y-11761984D02*
X10296372Y-11761984D01*
X10296372Y-11761984D02*
X10277324Y-11752460D01*
X10277324Y-11752460D02*
X10267801Y-11742936D01*
X10267801Y-11742936D02*
X10258277Y-11723888D01*
X10258277Y-11723888D02*
X10248753Y-11685793D01*
X10248753Y-11685793D02*
X10248753Y-11638174D01*
X10248753Y-11638174D02*
X10258277Y-11600079D01*
X10258277Y-11600079D02*
X10267801Y-11581031D01*
X10267801Y-11581031D02*
X10277324Y-11571508D01*
X10277324Y-11571508D02*
X10296372Y-11561984D01*
X10448753Y-11742936D02*
X10458277Y-11752460D01*
X10458277Y-11752460D02*
X10448753Y-11761984D01*
X10448753Y-11761984D02*
X10439229Y-11752460D01*
X10439229Y-11752460D02*
X10448753Y-11742936D01*
X10448753Y-11742936D02*
X10448753Y-11761984D01*
X10572563Y-11647698D02*
X10553515Y-11638174D01*
X10553515Y-11638174D02*
X10543991Y-11628650D01*
X10543991Y-11628650D02*
X10534467Y-11609603D01*
X10534467Y-11609603D02*
X10534467Y-11600079D01*
X10534467Y-11600079D02*
X10543991Y-11581031D01*
X10543991Y-11581031D02*
X10553515Y-11571508D01*
X10553515Y-11571508D02*
X10572563Y-11561984D01*
X10572563Y-11561984D02*
X10610658Y-11561984D01*
X10610658Y-11561984D02*
X10629705Y-11571508D01*
X10629705Y-11571508D02*
X10639229Y-11581031D01*
X10639229Y-11581031D02*
X10648753Y-11600079D01*
X10648753Y-11600079D02*
X10648753Y-11609603D01*
X10648753Y-11609603D02*
X10639229Y-11628650D01*
X10639229Y-11628650D02*
X10629705Y-11638174D01*
X10629705Y-11638174D02*
X10610658Y-11647698D01*
X10610658Y-11647698D02*
X10572563Y-11647698D01*
X10572563Y-11647698D02*
X10553515Y-11657222D01*
X10553515Y-11657222D02*
X10543991Y-11666746D01*
X10543991Y-11666746D02*
X10534467Y-11685793D01*
X10534467Y-11685793D02*
X10534467Y-11723888D01*
X10534467Y-11723888D02*
X10543991Y-11742936D01*
X10543991Y-11742936D02*
X10553515Y-11752460D01*
X10553515Y-11752460D02*
X10572563Y-11761984D01*
X10572563Y-11761984D02*
X10610658Y-11761984D01*
X10610658Y-11761984D02*
X10629705Y-11752460D01*
X10629705Y-11752460D02*
X10639229Y-11742936D01*
X10639229Y-11742936D02*
X10648753Y-11723888D01*
X10648753Y-11723888D02*
X10648753Y-11685793D01*
X10648753Y-11685793D02*
X10639229Y-11666746D01*
X10639229Y-11666746D02*
X10629705Y-11657222D01*
X10629705Y-11657222D02*
X10610658Y-11647698D01*
X10829705Y-11561984D02*
X10734467Y-11561984D01*
X10734467Y-11561984D02*
X10724944Y-11657222D01*
X10724944Y-11657222D02*
X10734467Y-11647698D01*
X10734467Y-11647698D02*
X10753515Y-11638174D01*
X10753515Y-11638174D02*
X10801134Y-11638174D01*
X10801134Y-11638174D02*
X10820182Y-11647698D01*
X10820182Y-11647698D02*
X10829705Y-11657222D01*
X10829705Y-11657222D02*
X10839229Y-11676269D01*
X10839229Y-11676269D02*
X10839229Y-11723888D01*
X10839229Y-11723888D02*
X10829705Y-11742936D01*
X10829705Y-11742936D02*
X10820182Y-11752460D01*
X10820182Y-11752460D02*
X10801134Y-11761984D01*
X10801134Y-11761984D02*
X10753515Y-11761984D01*
X10753515Y-11761984D02*
X10734467Y-11752460D01*
X10734467Y-11752460D02*
X10724944Y-11742936D01*
X10963039Y-11561984D02*
X10982086Y-11561984D01*
X10982086Y-11561984D02*
X11001134Y-11571508D01*
X11001134Y-11571508D02*
X11010658Y-11581031D01*
X11010658Y-11581031D02*
X11020182Y-11600079D01*
X11020182Y-11600079D02*
X11029705Y-11638174D01*
X11029705Y-11638174D02*
X11029705Y-11685793D01*
X11029705Y-11685793D02*
X11020182Y-11723888D01*
X11020182Y-11723888D02*
X11010658Y-11742936D01*
X11010658Y-11742936D02*
X11001134Y-11752460D01*
X11001134Y-11752460D02*
X10982086Y-11761984D01*
X10982086Y-11761984D02*
X10963039Y-11761984D01*
X10963039Y-11761984D02*
X10943991Y-11752460D01*
X10943991Y-11752460D02*
X10934467Y-11742936D01*
X10934467Y-11742936D02*
X10924944Y-11723888D01*
X10924944Y-11723888D02*
X10915420Y-11685793D01*
X10915420Y-11685793D02*
X10915420Y-11638174D01*
X10915420Y-11638174D02*
X10924944Y-11600079D01*
X10924944Y-11600079D02*
X10934467Y-11581031D01*
X10934467Y-11581031D02*
X10943991Y-11571508D01*
X10943991Y-11571508D02*
X10963039Y-11561984D01*
X11115420Y-11761984D02*
X11115420Y-11628650D01*
X11115420Y-11647698D02*
X11124944Y-11638174D01*
X11124944Y-11638174D02*
X11143991Y-11628650D01*
X11143991Y-11628650D02*
X11172563Y-11628650D01*
X11172563Y-11628650D02*
X11191610Y-11638174D01*
X11191610Y-11638174D02*
X11201134Y-11657222D01*
X11201134Y-11657222D02*
X11201134Y-11761984D01*
X11201134Y-11657222D02*
X11210658Y-11638174D01*
X11210658Y-11638174D02*
X11229705Y-11628650D01*
X11229705Y-11628650D02*
X11258277Y-11628650D01*
X11258277Y-11628650D02*
X11277324Y-11638174D01*
X11277324Y-11638174D02*
X11286848Y-11657222D01*
X11286848Y-11657222D02*
X11286848Y-11761984D01*
X11382086Y-11761984D02*
X11382086Y-11628650D01*
X11382086Y-11647698D02*
X11391610Y-11638174D01*
X11391610Y-11638174D02*
X11410658Y-11628650D01*
X11410658Y-11628650D02*
X11439229Y-11628650D01*
X11439229Y-11628650D02*
X11458277Y-11638174D01*
X11458277Y-11638174D02*
X11467801Y-11657222D01*
X11467801Y-11657222D02*
X11467801Y-11761984D01*
X11467801Y-11657222D02*
X11477324Y-11638174D01*
X11477324Y-11638174D02*
X11496372Y-11628650D01*
X11496372Y-11628650D02*
X11524943Y-11628650D01*
X11524943Y-11628650D02*
X11543991Y-11638174D01*
X11543991Y-11638174D02*
X11553515Y-11657222D01*
X11553515Y-11657222D02*
X11553515Y-11761984D01*
X11943991Y-11552460D02*
X11772563Y-11809603D01*
X12201134Y-11561984D02*
X12220182Y-11561984D01*
X12220182Y-11561984D02*
X12239229Y-11571508D01*
X12239229Y-11571508D02*
X12248753Y-11581031D01*
X12248753Y-11581031D02*
X12258277Y-11600079D01*
X12258277Y-11600079D02*
X12267801Y-11638174D01*
X12267801Y-11638174D02*
X12267801Y-11685793D01*
X12267801Y-11685793D02*
X12258277Y-11723888D01*
X12258277Y-11723888D02*
X12248753Y-11742936D01*
X12248753Y-11742936D02*
X12239229Y-11752460D01*
X12239229Y-11752460D02*
X12220182Y-11761984D01*
X12220182Y-11761984D02*
X12201134Y-11761984D01*
X12201134Y-11761984D02*
X12182086Y-11752460D01*
X12182086Y-11752460D02*
X12172563Y-11742936D01*
X12172563Y-11742936D02*
X12163039Y-11723888D01*
X12163039Y-11723888D02*
X12153515Y-11685793D01*
X12153515Y-11685793D02*
X12153515Y-11638174D01*
X12153515Y-11638174D02*
X12163039Y-11600079D01*
X12163039Y-11600079D02*
X12172563Y-11581031D01*
X12172563Y-11581031D02*
X12182086Y-11571508D01*
X12182086Y-11571508D02*
X12201134Y-11561984D01*
X12353515Y-11742936D02*
X12363039Y-11752460D01*
X12363039Y-11752460D02*
X12353515Y-11761984D01*
X12353515Y-11761984D02*
X12343991Y-11752460D01*
X12343991Y-11752460D02*
X12353515Y-11742936D01*
X12353515Y-11742936D02*
X12353515Y-11761984D01*
X12486848Y-11561984D02*
X12505896Y-11561984D01*
X12505896Y-11561984D02*
X12524944Y-11571508D01*
X12524944Y-11571508D02*
X12534467Y-11581031D01*
X12534467Y-11581031D02*
X12543991Y-11600079D01*
X12543991Y-11600079D02*
X12553515Y-11638174D01*
X12553515Y-11638174D02*
X12553515Y-11685793D01*
X12553515Y-11685793D02*
X12543991Y-11723888D01*
X12543991Y-11723888D02*
X12534467Y-11742936D01*
X12534467Y-11742936D02*
X12524944Y-11752460D01*
X12524944Y-11752460D02*
X12505896Y-11761984D01*
X12505896Y-11761984D02*
X12486848Y-11761984D01*
X12486848Y-11761984D02*
X12467801Y-11752460D01*
X12467801Y-11752460D02*
X12458277Y-11742936D01*
X12458277Y-11742936D02*
X12448753Y-11723888D01*
X12448753Y-11723888D02*
X12439229Y-11685793D01*
X12439229Y-11685793D02*
X12439229Y-11638174D01*
X12439229Y-11638174D02*
X12448753Y-11600079D01*
X12448753Y-11600079D02*
X12458277Y-11581031D01*
X12458277Y-11581031D02*
X12467801Y-11571508D01*
X12467801Y-11571508D02*
X12486848Y-11561984D01*
X12620182Y-11561984D02*
X12743991Y-11561984D01*
X12743991Y-11561984D02*
X12677325Y-11638174D01*
X12677325Y-11638174D02*
X12705896Y-11638174D01*
X12705896Y-11638174D02*
X12724944Y-11647698D01*
X12724944Y-11647698D02*
X12734467Y-11657222D01*
X12734467Y-11657222D02*
X12743991Y-11676269D01*
X12743991Y-11676269D02*
X12743991Y-11723888D01*
X12743991Y-11723888D02*
X12734467Y-11742936D01*
X12734467Y-11742936D02*
X12724944Y-11752460D01*
X12724944Y-11752460D02*
X12705896Y-11761984D01*
X12705896Y-11761984D02*
X12648753Y-11761984D01*
X12648753Y-11761984D02*
X12629706Y-11752460D01*
X12629706Y-11752460D02*
X12620182Y-11742936D01*
X12810658Y-11561984D02*
X12934467Y-11561984D01*
X12934467Y-11561984D02*
X12867801Y-11638174D01*
X12867801Y-11638174D02*
X12896372Y-11638174D01*
X12896372Y-11638174D02*
X12915420Y-11647698D01*
X12915420Y-11647698D02*
X12924944Y-11657222D01*
X12924944Y-11657222D02*
X12934467Y-11676269D01*
X12934467Y-11676269D02*
X12934467Y-11723888D01*
X12934467Y-11723888D02*
X12924944Y-11742936D01*
X12924944Y-11742936D02*
X12915420Y-11752460D01*
X12915420Y-11752460D02*
X12896372Y-11761984D01*
X12896372Y-11761984D02*
X12839229Y-11761984D01*
X12839229Y-11761984D02*
X12820182Y-11752460D01*
X12820182Y-11752460D02*
X12810658Y-11742936D01*
X13115420Y-11561984D02*
X13020182Y-11561984D01*
X13020182Y-11561984D02*
X13010658Y-11657222D01*
X13010658Y-11657222D02*
X13020182Y-11647698D01*
X13020182Y-11647698D02*
X13039229Y-11638174D01*
X13039229Y-11638174D02*
X13086848Y-11638174D01*
X13086848Y-11638174D02*
X13105896Y-11647698D01*
X13105896Y-11647698D02*
X13115420Y-11657222D01*
X13115420Y-11657222D02*
X13124944Y-11676269D01*
X13124944Y-11676269D02*
X13124944Y-11723888D01*
X13124944Y-11723888D02*
X13115420Y-11742936D01*
X13115420Y-11742936D02*
X13105896Y-11752460D01*
X13105896Y-11752460D02*
X13086848Y-11761984D01*
X13086848Y-11761984D02*
X13039229Y-11761984D01*
X13039229Y-11761984D02*
X13020182Y-11752460D01*
X13020182Y-11752460D02*
X13010658Y-11742936D01*
X13201134Y-11561984D02*
X13201134Y-11600079D01*
X13277325Y-11561984D02*
X13277325Y-11600079D01*
X13572563Y-11838174D02*
X13563039Y-11828650D01*
X13563039Y-11828650D02*
X13543991Y-11800079D01*
X13543991Y-11800079D02*
X13534468Y-11781031D01*
X13534468Y-11781031D02*
X13524944Y-11752460D01*
X13524944Y-11752460D02*
X13515420Y-11704841D01*
X13515420Y-11704841D02*
X13515420Y-11666746D01*
X13515420Y-11666746D02*
X13524944Y-11619127D01*
X13524944Y-11619127D02*
X13534468Y-11590555D01*
X13534468Y-11590555D02*
X13543991Y-11571508D01*
X13543991Y-11571508D02*
X13563039Y-11542936D01*
X13563039Y-11542936D02*
X13572563Y-11533412D01*
X13629706Y-11561984D02*
X13753515Y-11561984D01*
X13753515Y-11561984D02*
X13686848Y-11638174D01*
X13686848Y-11638174D02*
X13715420Y-11638174D01*
X13715420Y-11638174D02*
X13734468Y-11647698D01*
X13734468Y-11647698D02*
X13743991Y-11657222D01*
X13743991Y-11657222D02*
X13753515Y-11676269D01*
X13753515Y-11676269D02*
X13753515Y-11723888D01*
X13753515Y-11723888D02*
X13743991Y-11742936D01*
X13743991Y-11742936D02*
X13734468Y-11752460D01*
X13734468Y-11752460D02*
X13715420Y-11761984D01*
X13715420Y-11761984D02*
X13658277Y-11761984D01*
X13658277Y-11761984D02*
X13639229Y-11752460D01*
X13639229Y-11752460D02*
X13629706Y-11742936D01*
X13991610Y-11761984D02*
X13991610Y-11561984D01*
X14077325Y-11761984D02*
X14077325Y-11657222D01*
X14077325Y-11657222D02*
X14067801Y-11638174D01*
X14067801Y-11638174D02*
X14048753Y-11628650D01*
X14048753Y-11628650D02*
X14020182Y-11628650D01*
X14020182Y-11628650D02*
X14001134Y-11638174D01*
X14001134Y-11638174D02*
X13991610Y-11647698D01*
X14201134Y-11761984D02*
X14182087Y-11752460D01*
X14182087Y-11752460D02*
X14172563Y-11742936D01*
X14172563Y-11742936D02*
X14163039Y-11723888D01*
X14163039Y-11723888D02*
X14163039Y-11666746D01*
X14163039Y-11666746D02*
X14172563Y-11647698D01*
X14172563Y-11647698D02*
X14182087Y-11638174D01*
X14182087Y-11638174D02*
X14201134Y-11628650D01*
X14201134Y-11628650D02*
X14229706Y-11628650D01*
X14229706Y-11628650D02*
X14248753Y-11638174D01*
X14248753Y-11638174D02*
X14258277Y-11647698D01*
X14258277Y-11647698D02*
X14267801Y-11666746D01*
X14267801Y-11666746D02*
X14267801Y-11723888D01*
X14267801Y-11723888D02*
X14258277Y-11742936D01*
X14258277Y-11742936D02*
X14248753Y-11752460D01*
X14248753Y-11752460D02*
X14229706Y-11761984D01*
X14229706Y-11761984D02*
X14201134Y-11761984D01*
X14382087Y-11761984D02*
X14363039Y-11752460D01*
X14363039Y-11752460D02*
X14353515Y-11733412D01*
X14353515Y-11733412D02*
X14353515Y-11561984D01*
X14534468Y-11752460D02*
X14515420Y-11761984D01*
X14515420Y-11761984D02*
X14477325Y-11761984D01*
X14477325Y-11761984D02*
X14458277Y-11752460D01*
X14458277Y-11752460D02*
X14448753Y-11733412D01*
X14448753Y-11733412D02*
X14448753Y-11657222D01*
X14448753Y-11657222D02*
X14458277Y-11638174D01*
X14458277Y-11638174D02*
X14477325Y-11628650D01*
X14477325Y-11628650D02*
X14515420Y-11628650D01*
X14515420Y-11628650D02*
X14534468Y-11638174D01*
X14534468Y-11638174D02*
X14543991Y-11657222D01*
X14543991Y-11657222D02*
X14543991Y-11676269D01*
X14543991Y-11676269D02*
X14448753Y-11695317D01*
X14620182Y-11752460D02*
X14639230Y-11761984D01*
X14639230Y-11761984D02*
X14677325Y-11761984D01*
X14677325Y-11761984D02*
X14696372Y-11752460D01*
X14696372Y-11752460D02*
X14705896Y-11733412D01*
X14705896Y-11733412D02*
X14705896Y-11723888D01*
X14705896Y-11723888D02*
X14696372Y-11704841D01*
X14696372Y-11704841D02*
X14677325Y-11695317D01*
X14677325Y-11695317D02*
X14648753Y-11695317D01*
X14648753Y-11695317D02*
X14629706Y-11685793D01*
X14629706Y-11685793D02*
X14620182Y-11666746D01*
X14620182Y-11666746D02*
X14620182Y-11657222D01*
X14620182Y-11657222D02*
X14629706Y-11638174D01*
X14629706Y-11638174D02*
X14648753Y-11628650D01*
X14648753Y-11628650D02*
X14677325Y-11628650D01*
X14677325Y-11628650D02*
X14696372Y-11638174D01*
X14772563Y-11838174D02*
X14782087Y-11828650D01*
X14782087Y-11828650D02*
X14801134Y-11800079D01*
X14801134Y-11800079D02*
X14810658Y-11781031D01*
X14810658Y-11781031D02*
X14820182Y-11752460D01*
X14820182Y-11752460D02*
X14829706Y-11704841D01*
X14829706Y-11704841D02*
X14829706Y-11666746D01*
X14829706Y-11666746D02*
X14820182Y-11619127D01*
X14820182Y-11619127D02*
X14810658Y-11590555D01*
X14810658Y-11590555D02*
X14801134Y-11571508D01*
X14801134Y-11571508D02*
X14782087Y-11542936D01*
X14782087Y-11542936D02*
X14772563Y-11533412D01*
D12*
X9984613Y-11965613D02*
X9984613Y-11903387D01*
X9922387Y-11903387D01*
X9922387Y-11965613D01*
X9984613Y-11965613D01*
D11*
X10296372Y-11825984D02*
X10315420Y-11825984D01*
X10315420Y-11825984D02*
X10334467Y-11835508D01*
X10334467Y-11835508D02*
X10343991Y-11845031D01*
X10343991Y-11845031D02*
X10353515Y-11864079D01*
X10353515Y-11864079D02*
X10363039Y-11902174D01*
X10363039Y-11902174D02*
X10363039Y-11949793D01*
X10363039Y-11949793D02*
X10353515Y-11987888D01*
X10353515Y-11987888D02*
X10343991Y-12006936D01*
X10343991Y-12006936D02*
X10334467Y-12016460D01*
X10334467Y-12016460D02*
X10315420Y-12025984D01*
X10315420Y-12025984D02*
X10296372Y-12025984D01*
X10296372Y-12025984D02*
X10277324Y-12016460D01*
X10277324Y-12016460D02*
X10267801Y-12006936D01*
X10267801Y-12006936D02*
X10258277Y-11987888D01*
X10258277Y-11987888D02*
X10248753Y-11949793D01*
X10248753Y-11949793D02*
X10248753Y-11902174D01*
X10248753Y-11902174D02*
X10258277Y-11864079D01*
X10258277Y-11864079D02*
X10267801Y-11845031D01*
X10267801Y-11845031D02*
X10277324Y-11835508D01*
X10277324Y-11835508D02*
X10296372Y-11825984D01*
X10448753Y-12006936D02*
X10458277Y-12016460D01*
X10458277Y-12016460D02*
X10448753Y-12025984D01*
X10448753Y-12025984D02*
X10439229Y-12016460D01*
X10439229Y-12016460D02*
X10448753Y-12006936D01*
X10448753Y-12006936D02*
X10448753Y-12025984D01*
X10572563Y-11911698D02*
X10553515Y-11902174D01*
X10553515Y-11902174D02*
X10543991Y-11892650D01*
X10543991Y-11892650D02*
X10534467Y-11873603D01*
X10534467Y-11873603D02*
X10534467Y-11864079D01*
X10534467Y-11864079D02*
X10543991Y-11845031D01*
X10543991Y-11845031D02*
X10553515Y-11835508D01*
X10553515Y-11835508D02*
X10572563Y-11825984D01*
X10572563Y-11825984D02*
X10610658Y-11825984D01*
X10610658Y-11825984D02*
X10629705Y-11835508D01*
X10629705Y-11835508D02*
X10639229Y-11845031D01*
X10639229Y-11845031D02*
X10648753Y-11864079D01*
X10648753Y-11864079D02*
X10648753Y-11873603D01*
X10648753Y-11873603D02*
X10639229Y-11892650D01*
X10639229Y-11892650D02*
X10629705Y-11902174D01*
X10629705Y-11902174D02*
X10610658Y-11911698D01*
X10610658Y-11911698D02*
X10572563Y-11911698D01*
X10572563Y-11911698D02*
X10553515Y-11921222D01*
X10553515Y-11921222D02*
X10543991Y-11930746D01*
X10543991Y-11930746D02*
X10534467Y-11949793D01*
X10534467Y-11949793D02*
X10534467Y-11987888D01*
X10534467Y-11987888D02*
X10543991Y-12006936D01*
X10543991Y-12006936D02*
X10553515Y-12016460D01*
X10553515Y-12016460D02*
X10572563Y-12025984D01*
X10572563Y-12025984D02*
X10610658Y-12025984D01*
X10610658Y-12025984D02*
X10629705Y-12016460D01*
X10629705Y-12016460D02*
X10639229Y-12006936D01*
X10639229Y-12006936D02*
X10648753Y-11987888D01*
X10648753Y-11987888D02*
X10648753Y-11949793D01*
X10648753Y-11949793D02*
X10639229Y-11930746D01*
X10639229Y-11930746D02*
X10629705Y-11921222D01*
X10629705Y-11921222D02*
X10610658Y-11911698D01*
X10763039Y-11911698D02*
X10743991Y-11902174D01*
X10743991Y-11902174D02*
X10734467Y-11892650D01*
X10734467Y-11892650D02*
X10724944Y-11873603D01*
X10724944Y-11873603D02*
X10724944Y-11864079D01*
X10724944Y-11864079D02*
X10734467Y-11845031D01*
X10734467Y-11845031D02*
X10743991Y-11835508D01*
X10743991Y-11835508D02*
X10763039Y-11825984D01*
X10763039Y-11825984D02*
X10801134Y-11825984D01*
X10801134Y-11825984D02*
X10820182Y-11835508D01*
X10820182Y-11835508D02*
X10829705Y-11845031D01*
X10829705Y-11845031D02*
X10839229Y-11864079D01*
X10839229Y-11864079D02*
X10839229Y-11873603D01*
X10839229Y-11873603D02*
X10829705Y-11892650D01*
X10829705Y-11892650D02*
X10820182Y-11902174D01*
X10820182Y-11902174D02*
X10801134Y-11911698D01*
X10801134Y-11911698D02*
X10763039Y-11911698D01*
X10763039Y-11911698D02*
X10743991Y-11921222D01*
X10743991Y-11921222D02*
X10734467Y-11930746D01*
X10734467Y-11930746D02*
X10724944Y-11949793D01*
X10724944Y-11949793D02*
X10724944Y-11987888D01*
X10724944Y-11987888D02*
X10734467Y-12006936D01*
X10734467Y-12006936D02*
X10743991Y-12016460D01*
X10743991Y-12016460D02*
X10763039Y-12025984D01*
X10763039Y-12025984D02*
X10801134Y-12025984D01*
X10801134Y-12025984D02*
X10820182Y-12016460D01*
X10820182Y-12016460D02*
X10829705Y-12006936D01*
X10829705Y-12006936D02*
X10839229Y-11987888D01*
X10839229Y-11987888D02*
X10839229Y-11949793D01*
X10839229Y-11949793D02*
X10829705Y-11930746D01*
X10829705Y-11930746D02*
X10820182Y-11921222D01*
X10820182Y-11921222D02*
X10801134Y-11911698D01*
X10963039Y-11825984D02*
X10982086Y-11825984D01*
X10982086Y-11825984D02*
X11001134Y-11835508D01*
X11001134Y-11835508D02*
X11010658Y-11845031D01*
X11010658Y-11845031D02*
X11020182Y-11864079D01*
X11020182Y-11864079D02*
X11029705Y-11902174D01*
X11029705Y-11902174D02*
X11029705Y-11949793D01*
X11029705Y-11949793D02*
X11020182Y-11987888D01*
X11020182Y-11987888D02*
X11010658Y-12006936D01*
X11010658Y-12006936D02*
X11001134Y-12016460D01*
X11001134Y-12016460D02*
X10982086Y-12025984D01*
X10982086Y-12025984D02*
X10963039Y-12025984D01*
X10963039Y-12025984D02*
X10943991Y-12016460D01*
X10943991Y-12016460D02*
X10934467Y-12006936D01*
X10934467Y-12006936D02*
X10924944Y-11987888D01*
X10924944Y-11987888D02*
X10915420Y-11949793D01*
X10915420Y-11949793D02*
X10915420Y-11902174D01*
X10915420Y-11902174D02*
X10924944Y-11864079D01*
X10924944Y-11864079D02*
X10934467Y-11845031D01*
X10934467Y-11845031D02*
X10943991Y-11835508D01*
X10943991Y-11835508D02*
X10963039Y-11825984D01*
X11115420Y-12025984D02*
X11115420Y-11892650D01*
X11115420Y-11911698D02*
X11124944Y-11902174D01*
X11124944Y-11902174D02*
X11143991Y-11892650D01*
X11143991Y-11892650D02*
X11172563Y-11892650D01*
X11172563Y-11892650D02*
X11191610Y-11902174D01*
X11191610Y-11902174D02*
X11201134Y-11921222D01*
X11201134Y-11921222D02*
X11201134Y-12025984D01*
X11201134Y-11921222D02*
X11210658Y-11902174D01*
X11210658Y-11902174D02*
X11229705Y-11892650D01*
X11229705Y-11892650D02*
X11258277Y-11892650D01*
X11258277Y-11892650D02*
X11277324Y-11902174D01*
X11277324Y-11902174D02*
X11286848Y-11921222D01*
X11286848Y-11921222D02*
X11286848Y-12025984D01*
X11382086Y-12025984D02*
X11382086Y-11892650D01*
X11382086Y-11911698D02*
X11391610Y-11902174D01*
X11391610Y-11902174D02*
X11410658Y-11892650D01*
X11410658Y-11892650D02*
X11439229Y-11892650D01*
X11439229Y-11892650D02*
X11458277Y-11902174D01*
X11458277Y-11902174D02*
X11467801Y-11921222D01*
X11467801Y-11921222D02*
X11467801Y-12025984D01*
X11467801Y-11921222D02*
X11477324Y-11902174D01*
X11477324Y-11902174D02*
X11496372Y-11892650D01*
X11496372Y-11892650D02*
X11524943Y-11892650D01*
X11524943Y-11892650D02*
X11543991Y-11902174D01*
X11543991Y-11902174D02*
X11553515Y-11921222D01*
X11553515Y-11921222D02*
X11553515Y-12025984D01*
X11943991Y-11816460D02*
X11772563Y-12073603D01*
X12201134Y-11825984D02*
X12220182Y-11825984D01*
X12220182Y-11825984D02*
X12239229Y-11835508D01*
X12239229Y-11835508D02*
X12248753Y-11845031D01*
X12248753Y-11845031D02*
X12258277Y-11864079D01*
X12258277Y-11864079D02*
X12267801Y-11902174D01*
X12267801Y-11902174D02*
X12267801Y-11949793D01*
X12267801Y-11949793D02*
X12258277Y-11987888D01*
X12258277Y-11987888D02*
X12248753Y-12006936D01*
X12248753Y-12006936D02*
X12239229Y-12016460D01*
X12239229Y-12016460D02*
X12220182Y-12025984D01*
X12220182Y-12025984D02*
X12201134Y-12025984D01*
X12201134Y-12025984D02*
X12182086Y-12016460D01*
X12182086Y-12016460D02*
X12172563Y-12006936D01*
X12172563Y-12006936D02*
X12163039Y-11987888D01*
X12163039Y-11987888D02*
X12153515Y-11949793D01*
X12153515Y-11949793D02*
X12153515Y-11902174D01*
X12153515Y-11902174D02*
X12163039Y-11864079D01*
X12163039Y-11864079D02*
X12172563Y-11845031D01*
X12172563Y-11845031D02*
X12182086Y-11835508D01*
X12182086Y-11835508D02*
X12201134Y-11825984D01*
X12353515Y-12006936D02*
X12363039Y-12016460D01*
X12363039Y-12016460D02*
X12353515Y-12025984D01*
X12353515Y-12025984D02*
X12343991Y-12016460D01*
X12343991Y-12016460D02*
X12353515Y-12006936D01*
X12353515Y-12006936D02*
X12353515Y-12025984D01*
X12486848Y-11825984D02*
X12505896Y-11825984D01*
X12505896Y-11825984D02*
X12524944Y-11835508D01*
X12524944Y-11835508D02*
X12534467Y-11845031D01*
X12534467Y-11845031D02*
X12543991Y-11864079D01*
X12543991Y-11864079D02*
X12553515Y-11902174D01*
X12553515Y-11902174D02*
X12553515Y-11949793D01*
X12553515Y-11949793D02*
X12543991Y-11987888D01*
X12543991Y-11987888D02*
X12534467Y-12006936D01*
X12534467Y-12006936D02*
X12524944Y-12016460D01*
X12524944Y-12016460D02*
X12505896Y-12025984D01*
X12505896Y-12025984D02*
X12486848Y-12025984D01*
X12486848Y-12025984D02*
X12467801Y-12016460D01*
X12467801Y-12016460D02*
X12458277Y-12006936D01*
X12458277Y-12006936D02*
X12448753Y-11987888D01*
X12448753Y-11987888D02*
X12439229Y-11949793D01*
X12439229Y-11949793D02*
X12439229Y-11902174D01*
X12439229Y-11902174D02*
X12448753Y-11864079D01*
X12448753Y-11864079D02*
X12458277Y-11845031D01*
X12458277Y-11845031D02*
X12467801Y-11835508D01*
X12467801Y-11835508D02*
X12486848Y-11825984D01*
X12620182Y-11825984D02*
X12743991Y-11825984D01*
X12743991Y-11825984D02*
X12677325Y-11902174D01*
X12677325Y-11902174D02*
X12705896Y-11902174D01*
X12705896Y-11902174D02*
X12724944Y-11911698D01*
X12724944Y-11911698D02*
X12734467Y-11921222D01*
X12734467Y-11921222D02*
X12743991Y-11940269D01*
X12743991Y-11940269D02*
X12743991Y-11987888D01*
X12743991Y-11987888D02*
X12734467Y-12006936D01*
X12734467Y-12006936D02*
X12724944Y-12016460D01*
X12724944Y-12016460D02*
X12705896Y-12025984D01*
X12705896Y-12025984D02*
X12648753Y-12025984D01*
X12648753Y-12025984D02*
X12629706Y-12016460D01*
X12629706Y-12016460D02*
X12620182Y-12006936D01*
X12915420Y-11892650D02*
X12915420Y-12025984D01*
X12867801Y-11816460D02*
X12820182Y-11959317D01*
X12820182Y-11959317D02*
X12943991Y-11959317D01*
X13105896Y-11825984D02*
X13067801Y-11825984D01*
X13067801Y-11825984D02*
X13048753Y-11835508D01*
X13048753Y-11835508D02*
X13039229Y-11845031D01*
X13039229Y-11845031D02*
X13020182Y-11873603D01*
X13020182Y-11873603D02*
X13010658Y-11911698D01*
X13010658Y-11911698D02*
X13010658Y-11987888D01*
X13010658Y-11987888D02*
X13020182Y-12006936D01*
X13020182Y-12006936D02*
X13029706Y-12016460D01*
X13029706Y-12016460D02*
X13048753Y-12025984D01*
X13048753Y-12025984D02*
X13086848Y-12025984D01*
X13086848Y-12025984D02*
X13105896Y-12016460D01*
X13105896Y-12016460D02*
X13115420Y-12006936D01*
X13115420Y-12006936D02*
X13124944Y-11987888D01*
X13124944Y-11987888D02*
X13124944Y-11940269D01*
X13124944Y-11940269D02*
X13115420Y-11921222D01*
X13115420Y-11921222D02*
X13105896Y-11911698D01*
X13105896Y-11911698D02*
X13086848Y-11902174D01*
X13086848Y-11902174D02*
X13048753Y-11902174D01*
X13048753Y-11902174D02*
X13029706Y-11911698D01*
X13029706Y-11911698D02*
X13020182Y-11921222D01*
X13020182Y-11921222D02*
X13010658Y-11940269D01*
X13201134Y-11825984D02*
X13201134Y-11864079D01*
X13277325Y-11825984D02*
X13277325Y-11864079D01*
X13572563Y-12102174D02*
X13563039Y-12092650D01*
X13563039Y-12092650D02*
X13543991Y-12064079D01*
X13543991Y-12064079D02*
X13534468Y-12045031D01*
X13534468Y-12045031D02*
X13524944Y-12016460D01*
X13524944Y-12016460D02*
X13515420Y-11968841D01*
X13515420Y-11968841D02*
X13515420Y-11930746D01*
X13515420Y-11930746D02*
X13524944Y-11883127D01*
X13524944Y-11883127D02*
X13534468Y-11854555D01*
X13534468Y-11854555D02*
X13543991Y-11835508D01*
X13543991Y-11835508D02*
X13563039Y-11806936D01*
X13563039Y-11806936D02*
X13572563Y-11797412D01*
X13629706Y-11825984D02*
X13753515Y-11825984D01*
X13753515Y-11825984D02*
X13686848Y-11902174D01*
X13686848Y-11902174D02*
X13715420Y-11902174D01*
X13715420Y-11902174D02*
X13734468Y-11911698D01*
X13734468Y-11911698D02*
X13743991Y-11921222D01*
X13743991Y-11921222D02*
X13753515Y-11940269D01*
X13753515Y-11940269D02*
X13753515Y-11987888D01*
X13753515Y-11987888D02*
X13743991Y-12006936D01*
X13743991Y-12006936D02*
X13734468Y-12016460D01*
X13734468Y-12016460D02*
X13715420Y-12025984D01*
X13715420Y-12025984D02*
X13658277Y-12025984D01*
X13658277Y-12025984D02*
X13639229Y-12016460D01*
X13639229Y-12016460D02*
X13629706Y-12006936D01*
X13991610Y-12025984D02*
X13991610Y-11825984D01*
X14077325Y-12025984D02*
X14077325Y-11921222D01*
X14077325Y-11921222D02*
X14067801Y-11902174D01*
X14067801Y-11902174D02*
X14048753Y-11892650D01*
X14048753Y-11892650D02*
X14020182Y-11892650D01*
X14020182Y-11892650D02*
X14001134Y-11902174D01*
X14001134Y-11902174D02*
X13991610Y-11911698D01*
X14201134Y-12025984D02*
X14182087Y-12016460D01*
X14182087Y-12016460D02*
X14172563Y-12006936D01*
X14172563Y-12006936D02*
X14163039Y-11987888D01*
X14163039Y-11987888D02*
X14163039Y-11930746D01*
X14163039Y-11930746D02*
X14172563Y-11911698D01*
X14172563Y-11911698D02*
X14182087Y-11902174D01*
X14182087Y-11902174D02*
X14201134Y-11892650D01*
X14201134Y-11892650D02*
X14229706Y-11892650D01*
X14229706Y-11892650D02*
X14248753Y-11902174D01*
X14248753Y-11902174D02*
X14258277Y-11911698D01*
X14258277Y-11911698D02*
X14267801Y-11930746D01*
X14267801Y-11930746D02*
X14267801Y-11987888D01*
X14267801Y-11987888D02*
X14258277Y-12006936D01*
X14258277Y-12006936D02*
X14248753Y-12016460D01*
X14248753Y-12016460D02*
X14229706Y-12025984D01*
X14229706Y-12025984D02*
X14201134Y-12025984D01*
X14382087Y-12025984D02*
X14363039Y-12016460D01*
X14363039Y-12016460D02*
X14353515Y-11997412D01*
X14353515Y-11997412D02*
X14353515Y-11825984D01*
X14534468Y-12016460D02*
X14515420Y-12025984D01*
X14515420Y-12025984D02*
X14477325Y-12025984D01*
X14477325Y-12025984D02*
X14458277Y-12016460D01*
X14458277Y-12016460D02*
X14448753Y-11997412D01*
X14448753Y-11997412D02*
X14448753Y-11921222D01*
X14448753Y-11921222D02*
X14458277Y-11902174D01*
X14458277Y-11902174D02*
X14477325Y-11892650D01*
X14477325Y-11892650D02*
X14515420Y-11892650D01*
X14515420Y-11892650D02*
X14534468Y-11902174D01*
X14534468Y-11902174D02*
X14543991Y-11921222D01*
X14543991Y-11921222D02*
X14543991Y-11940269D01*
X14543991Y-11940269D02*
X14448753Y-11959317D01*
X14620182Y-12016460D02*
X14639230Y-12025984D01*
X14639230Y-12025984D02*
X14677325Y-12025984D01*
X14677325Y-12025984D02*
X14696372Y-12016460D01*
X14696372Y-12016460D02*
X14705896Y-11997412D01*
X14705896Y-11997412D02*
X14705896Y-11987888D01*
X14705896Y-11987888D02*
X14696372Y-11968841D01*
X14696372Y-11968841D02*
X14677325Y-11959317D01*
X14677325Y-11959317D02*
X14648753Y-11959317D01*
X14648753Y-11959317D02*
X14629706Y-11949793D01*
X14629706Y-11949793D02*
X14620182Y-11930746D01*
X14620182Y-11930746D02*
X14620182Y-11921222D01*
X14620182Y-11921222D02*
X14629706Y-11902174D01*
X14629706Y-11902174D02*
X14648753Y-11892650D01*
X14648753Y-11892650D02*
X14677325Y-11892650D01*
X14677325Y-11892650D02*
X14696372Y-11902174D01*
X14772563Y-12102174D02*
X14782087Y-12092650D01*
X14782087Y-12092650D02*
X14801134Y-12064079D01*
X14801134Y-12064079D02*
X14810658Y-12045031D01*
X14810658Y-12045031D02*
X14820182Y-12016460D01*
X14820182Y-12016460D02*
X14829706Y-11968841D01*
X14829706Y-11968841D02*
X14829706Y-11930746D01*
X14829706Y-11930746D02*
X14820182Y-11883127D01*
X14820182Y-11883127D02*
X14810658Y-11854555D01*
X14810658Y-11854555D02*
X14801134Y-11835508D01*
X14801134Y-11835508D02*
X14782087Y-11806936D01*
X14782087Y-11806936D02*
X14772563Y-11797412D01*
D12*
X9953000Y-12243000D02*
X9997500Y-12198500D01*
X9953000Y-12154000D01*
X9908500Y-12198500D01*
X9953000Y-12243000D01*
D11*
X10296372Y-12089984D02*
X10315420Y-12089984D01*
X10315420Y-12089984D02*
X10334467Y-12099508D01*
X10334467Y-12099508D02*
X10343991Y-12109031D01*
X10343991Y-12109031D02*
X10353515Y-12128079D01*
X10353515Y-12128079D02*
X10363039Y-12166174D01*
X10363039Y-12166174D02*
X10363039Y-12213793D01*
X10363039Y-12213793D02*
X10353515Y-12251888D01*
X10353515Y-12251888D02*
X10343991Y-12270936D01*
X10343991Y-12270936D02*
X10334467Y-12280460D01*
X10334467Y-12280460D02*
X10315420Y-12289984D01*
X10315420Y-12289984D02*
X10296372Y-12289984D01*
X10296372Y-12289984D02*
X10277324Y-12280460D01*
X10277324Y-12280460D02*
X10267801Y-12270936D01*
X10267801Y-12270936D02*
X10258277Y-12251888D01*
X10258277Y-12251888D02*
X10248753Y-12213793D01*
X10248753Y-12213793D02*
X10248753Y-12166174D01*
X10248753Y-12166174D02*
X10258277Y-12128079D01*
X10258277Y-12128079D02*
X10267801Y-12109031D01*
X10267801Y-12109031D02*
X10277324Y-12099508D01*
X10277324Y-12099508D02*
X10296372Y-12089984D01*
X10448753Y-12270936D02*
X10458277Y-12280460D01*
X10458277Y-12280460D02*
X10448753Y-12289984D01*
X10448753Y-12289984D02*
X10439229Y-12280460D01*
X10439229Y-12280460D02*
X10448753Y-12270936D01*
X10448753Y-12270936D02*
X10448753Y-12289984D01*
X10572563Y-12175698D02*
X10553515Y-12166174D01*
X10553515Y-12166174D02*
X10543991Y-12156650D01*
X10543991Y-12156650D02*
X10534467Y-12137603D01*
X10534467Y-12137603D02*
X10534467Y-12128079D01*
X10534467Y-12128079D02*
X10543991Y-12109031D01*
X10543991Y-12109031D02*
X10553515Y-12099508D01*
X10553515Y-12099508D02*
X10572563Y-12089984D01*
X10572563Y-12089984D02*
X10610658Y-12089984D01*
X10610658Y-12089984D02*
X10629705Y-12099508D01*
X10629705Y-12099508D02*
X10639229Y-12109031D01*
X10639229Y-12109031D02*
X10648753Y-12128079D01*
X10648753Y-12128079D02*
X10648753Y-12137603D01*
X10648753Y-12137603D02*
X10639229Y-12156650D01*
X10639229Y-12156650D02*
X10629705Y-12166174D01*
X10629705Y-12166174D02*
X10610658Y-12175698D01*
X10610658Y-12175698D02*
X10572563Y-12175698D01*
X10572563Y-12175698D02*
X10553515Y-12185222D01*
X10553515Y-12185222D02*
X10543991Y-12194746D01*
X10543991Y-12194746D02*
X10534467Y-12213793D01*
X10534467Y-12213793D02*
X10534467Y-12251888D01*
X10534467Y-12251888D02*
X10543991Y-12270936D01*
X10543991Y-12270936D02*
X10553515Y-12280460D01*
X10553515Y-12280460D02*
X10572563Y-12289984D01*
X10572563Y-12289984D02*
X10610658Y-12289984D01*
X10610658Y-12289984D02*
X10629705Y-12280460D01*
X10629705Y-12280460D02*
X10639229Y-12270936D01*
X10639229Y-12270936D02*
X10648753Y-12251888D01*
X10648753Y-12251888D02*
X10648753Y-12213793D01*
X10648753Y-12213793D02*
X10639229Y-12194746D01*
X10639229Y-12194746D02*
X10629705Y-12185222D01*
X10629705Y-12185222D02*
X10610658Y-12175698D01*
X10743991Y-12289984D02*
X10782086Y-12289984D01*
X10782086Y-12289984D02*
X10801134Y-12280460D01*
X10801134Y-12280460D02*
X10810658Y-12270936D01*
X10810658Y-12270936D02*
X10829705Y-12242365D01*
X10829705Y-12242365D02*
X10839229Y-12204269D01*
X10839229Y-12204269D02*
X10839229Y-12128079D01*
X10839229Y-12128079D02*
X10829705Y-12109031D01*
X10829705Y-12109031D02*
X10820182Y-12099508D01*
X10820182Y-12099508D02*
X10801134Y-12089984D01*
X10801134Y-12089984D02*
X10763039Y-12089984D01*
X10763039Y-12089984D02*
X10743991Y-12099508D01*
X10743991Y-12099508D02*
X10734467Y-12109031D01*
X10734467Y-12109031D02*
X10724944Y-12128079D01*
X10724944Y-12128079D02*
X10724944Y-12175698D01*
X10724944Y-12175698D02*
X10734467Y-12194746D01*
X10734467Y-12194746D02*
X10743991Y-12204269D01*
X10743991Y-12204269D02*
X10763039Y-12213793D01*
X10763039Y-12213793D02*
X10801134Y-12213793D01*
X10801134Y-12213793D02*
X10820182Y-12204269D01*
X10820182Y-12204269D02*
X10829705Y-12194746D01*
X10829705Y-12194746D02*
X10839229Y-12175698D01*
X10963039Y-12089984D02*
X10982086Y-12089984D01*
X10982086Y-12089984D02*
X11001134Y-12099508D01*
X11001134Y-12099508D02*
X11010658Y-12109031D01*
X11010658Y-12109031D02*
X11020182Y-12128079D01*
X11020182Y-12128079D02*
X11029705Y-12166174D01*
X11029705Y-12166174D02*
X11029705Y-12213793D01*
X11029705Y-12213793D02*
X11020182Y-12251888D01*
X11020182Y-12251888D02*
X11010658Y-12270936D01*
X11010658Y-12270936D02*
X11001134Y-12280460D01*
X11001134Y-12280460D02*
X10982086Y-12289984D01*
X10982086Y-12289984D02*
X10963039Y-12289984D01*
X10963039Y-12289984D02*
X10943991Y-12280460D01*
X10943991Y-12280460D02*
X10934467Y-12270936D01*
X10934467Y-12270936D02*
X10924944Y-12251888D01*
X10924944Y-12251888D02*
X10915420Y-12213793D01*
X10915420Y-12213793D02*
X10915420Y-12166174D01*
X10915420Y-12166174D02*
X10924944Y-12128079D01*
X10924944Y-12128079D02*
X10934467Y-12109031D01*
X10934467Y-12109031D02*
X10943991Y-12099508D01*
X10943991Y-12099508D02*
X10963039Y-12089984D01*
X11115420Y-12289984D02*
X11115420Y-12156650D01*
X11115420Y-12175698D02*
X11124944Y-12166174D01*
X11124944Y-12166174D02*
X11143991Y-12156650D01*
X11143991Y-12156650D02*
X11172563Y-12156650D01*
X11172563Y-12156650D02*
X11191610Y-12166174D01*
X11191610Y-12166174D02*
X11201134Y-12185222D01*
X11201134Y-12185222D02*
X11201134Y-12289984D01*
X11201134Y-12185222D02*
X11210658Y-12166174D01*
X11210658Y-12166174D02*
X11229705Y-12156650D01*
X11229705Y-12156650D02*
X11258277Y-12156650D01*
X11258277Y-12156650D02*
X11277324Y-12166174D01*
X11277324Y-12166174D02*
X11286848Y-12185222D01*
X11286848Y-12185222D02*
X11286848Y-12289984D01*
X11382086Y-12289984D02*
X11382086Y-12156650D01*
X11382086Y-12175698D02*
X11391610Y-12166174D01*
X11391610Y-12166174D02*
X11410658Y-12156650D01*
X11410658Y-12156650D02*
X11439229Y-12156650D01*
X11439229Y-12156650D02*
X11458277Y-12166174D01*
X11458277Y-12166174D02*
X11467801Y-12185222D01*
X11467801Y-12185222D02*
X11467801Y-12289984D01*
X11467801Y-12185222D02*
X11477324Y-12166174D01*
X11477324Y-12166174D02*
X11496372Y-12156650D01*
X11496372Y-12156650D02*
X11524943Y-12156650D01*
X11524943Y-12156650D02*
X11543991Y-12166174D01*
X11543991Y-12166174D02*
X11553515Y-12185222D01*
X11553515Y-12185222D02*
X11553515Y-12289984D01*
X11943991Y-12080460D02*
X11772563Y-12337603D01*
X12201134Y-12089984D02*
X12220182Y-12089984D01*
X12220182Y-12089984D02*
X12239229Y-12099508D01*
X12239229Y-12099508D02*
X12248753Y-12109031D01*
X12248753Y-12109031D02*
X12258277Y-12128079D01*
X12258277Y-12128079D02*
X12267801Y-12166174D01*
X12267801Y-12166174D02*
X12267801Y-12213793D01*
X12267801Y-12213793D02*
X12258277Y-12251888D01*
X12258277Y-12251888D02*
X12248753Y-12270936D01*
X12248753Y-12270936D02*
X12239229Y-12280460D01*
X12239229Y-12280460D02*
X12220182Y-12289984D01*
X12220182Y-12289984D02*
X12201134Y-12289984D01*
X12201134Y-12289984D02*
X12182086Y-12280460D01*
X12182086Y-12280460D02*
X12172563Y-12270936D01*
X12172563Y-12270936D02*
X12163039Y-12251888D01*
X12163039Y-12251888D02*
X12153515Y-12213793D01*
X12153515Y-12213793D02*
X12153515Y-12166174D01*
X12153515Y-12166174D02*
X12163039Y-12128079D01*
X12163039Y-12128079D02*
X12172563Y-12109031D01*
X12172563Y-12109031D02*
X12182086Y-12099508D01*
X12182086Y-12099508D02*
X12201134Y-12089984D01*
X12353515Y-12270936D02*
X12363039Y-12280460D01*
X12363039Y-12280460D02*
X12353515Y-12289984D01*
X12353515Y-12289984D02*
X12343991Y-12280460D01*
X12343991Y-12280460D02*
X12353515Y-12270936D01*
X12353515Y-12270936D02*
X12353515Y-12289984D01*
X12486848Y-12089984D02*
X12505896Y-12089984D01*
X12505896Y-12089984D02*
X12524944Y-12099508D01*
X12524944Y-12099508D02*
X12534467Y-12109031D01*
X12534467Y-12109031D02*
X12543991Y-12128079D01*
X12543991Y-12128079D02*
X12553515Y-12166174D01*
X12553515Y-12166174D02*
X12553515Y-12213793D01*
X12553515Y-12213793D02*
X12543991Y-12251888D01*
X12543991Y-12251888D02*
X12534467Y-12270936D01*
X12534467Y-12270936D02*
X12524944Y-12280460D01*
X12524944Y-12280460D02*
X12505896Y-12289984D01*
X12505896Y-12289984D02*
X12486848Y-12289984D01*
X12486848Y-12289984D02*
X12467801Y-12280460D01*
X12467801Y-12280460D02*
X12458277Y-12270936D01*
X12458277Y-12270936D02*
X12448753Y-12251888D01*
X12448753Y-12251888D02*
X12439229Y-12213793D01*
X12439229Y-12213793D02*
X12439229Y-12166174D01*
X12439229Y-12166174D02*
X12448753Y-12128079D01*
X12448753Y-12128079D02*
X12458277Y-12109031D01*
X12458277Y-12109031D02*
X12467801Y-12099508D01*
X12467801Y-12099508D02*
X12486848Y-12089984D01*
X12620182Y-12089984D02*
X12743991Y-12089984D01*
X12743991Y-12089984D02*
X12677325Y-12166174D01*
X12677325Y-12166174D02*
X12705896Y-12166174D01*
X12705896Y-12166174D02*
X12724944Y-12175698D01*
X12724944Y-12175698D02*
X12734467Y-12185222D01*
X12734467Y-12185222D02*
X12743991Y-12204269D01*
X12743991Y-12204269D02*
X12743991Y-12251888D01*
X12743991Y-12251888D02*
X12734467Y-12270936D01*
X12734467Y-12270936D02*
X12724944Y-12280460D01*
X12724944Y-12280460D02*
X12705896Y-12289984D01*
X12705896Y-12289984D02*
X12648753Y-12289984D01*
X12648753Y-12289984D02*
X12629706Y-12280460D01*
X12629706Y-12280460D02*
X12620182Y-12270936D01*
X12924944Y-12089984D02*
X12829706Y-12089984D01*
X12829706Y-12089984D02*
X12820182Y-12185222D01*
X12820182Y-12185222D02*
X12829706Y-12175698D01*
X12829706Y-12175698D02*
X12848753Y-12166174D01*
X12848753Y-12166174D02*
X12896372Y-12166174D01*
X12896372Y-12166174D02*
X12915420Y-12175698D01*
X12915420Y-12175698D02*
X12924944Y-12185222D01*
X12924944Y-12185222D02*
X12934467Y-12204269D01*
X12934467Y-12204269D02*
X12934467Y-12251888D01*
X12934467Y-12251888D02*
X12924944Y-12270936D01*
X12924944Y-12270936D02*
X12915420Y-12280460D01*
X12915420Y-12280460D02*
X12896372Y-12289984D01*
X12896372Y-12289984D02*
X12848753Y-12289984D01*
X12848753Y-12289984D02*
X12829706Y-12280460D01*
X12829706Y-12280460D02*
X12820182Y-12270936D01*
X13058277Y-12089984D02*
X13077325Y-12089984D01*
X13077325Y-12089984D02*
X13096372Y-12099508D01*
X13096372Y-12099508D02*
X13105896Y-12109031D01*
X13105896Y-12109031D02*
X13115420Y-12128079D01*
X13115420Y-12128079D02*
X13124944Y-12166174D01*
X13124944Y-12166174D02*
X13124944Y-12213793D01*
X13124944Y-12213793D02*
X13115420Y-12251888D01*
X13115420Y-12251888D02*
X13105896Y-12270936D01*
X13105896Y-12270936D02*
X13096372Y-12280460D01*
X13096372Y-12280460D02*
X13077325Y-12289984D01*
X13077325Y-12289984D02*
X13058277Y-12289984D01*
X13058277Y-12289984D02*
X13039229Y-12280460D01*
X13039229Y-12280460D02*
X13029706Y-12270936D01*
X13029706Y-12270936D02*
X13020182Y-12251888D01*
X13020182Y-12251888D02*
X13010658Y-12213793D01*
X13010658Y-12213793D02*
X13010658Y-12166174D01*
X13010658Y-12166174D02*
X13020182Y-12128079D01*
X13020182Y-12128079D02*
X13029706Y-12109031D01*
X13029706Y-12109031D02*
X13039229Y-12099508D01*
X13039229Y-12099508D02*
X13058277Y-12089984D01*
X13201134Y-12089984D02*
X13201134Y-12128079D01*
X13277325Y-12089984D02*
X13277325Y-12128079D01*
X13572563Y-12366174D02*
X13563039Y-12356650D01*
X13563039Y-12356650D02*
X13543991Y-12328079D01*
X13543991Y-12328079D02*
X13534468Y-12309031D01*
X13534468Y-12309031D02*
X13524944Y-12280460D01*
X13524944Y-12280460D02*
X13515420Y-12232841D01*
X13515420Y-12232841D02*
X13515420Y-12194746D01*
X13515420Y-12194746D02*
X13524944Y-12147127D01*
X13524944Y-12147127D02*
X13534468Y-12118555D01*
X13534468Y-12118555D02*
X13543991Y-12099508D01*
X13543991Y-12099508D02*
X13563039Y-12070936D01*
X13563039Y-12070936D02*
X13572563Y-12061412D01*
X13677325Y-12175698D02*
X13658277Y-12166174D01*
X13658277Y-12166174D02*
X13648753Y-12156650D01*
X13648753Y-12156650D02*
X13639229Y-12137603D01*
X13639229Y-12137603D02*
X13639229Y-12128079D01*
X13639229Y-12128079D02*
X13648753Y-12109031D01*
X13648753Y-12109031D02*
X13658277Y-12099508D01*
X13658277Y-12099508D02*
X13677325Y-12089984D01*
X13677325Y-12089984D02*
X13715420Y-12089984D01*
X13715420Y-12089984D02*
X13734468Y-12099508D01*
X13734468Y-12099508D02*
X13743991Y-12109031D01*
X13743991Y-12109031D02*
X13753515Y-12128079D01*
X13753515Y-12128079D02*
X13753515Y-12137603D01*
X13753515Y-12137603D02*
X13743991Y-12156650D01*
X13743991Y-12156650D02*
X13734468Y-12166174D01*
X13734468Y-12166174D02*
X13715420Y-12175698D01*
X13715420Y-12175698D02*
X13677325Y-12175698D01*
X13677325Y-12175698D02*
X13658277Y-12185222D01*
X13658277Y-12185222D02*
X13648753Y-12194746D01*
X13648753Y-12194746D02*
X13639229Y-12213793D01*
X13639229Y-12213793D02*
X13639229Y-12251888D01*
X13639229Y-12251888D02*
X13648753Y-12270936D01*
X13648753Y-12270936D02*
X13658277Y-12280460D01*
X13658277Y-12280460D02*
X13677325Y-12289984D01*
X13677325Y-12289984D02*
X13715420Y-12289984D01*
X13715420Y-12289984D02*
X13734468Y-12280460D01*
X13734468Y-12280460D02*
X13743991Y-12270936D01*
X13743991Y-12270936D02*
X13753515Y-12251888D01*
X13753515Y-12251888D02*
X13753515Y-12213793D01*
X13753515Y-12213793D02*
X13743991Y-12194746D01*
X13743991Y-12194746D02*
X13734468Y-12185222D01*
X13734468Y-12185222D02*
X13715420Y-12175698D01*
X13991610Y-12289984D02*
X13991610Y-12089984D01*
X14077325Y-12289984D02*
X14077325Y-12185222D01*
X14077325Y-12185222D02*
X14067801Y-12166174D01*
X14067801Y-12166174D02*
X14048753Y-12156650D01*
X14048753Y-12156650D02*
X14020182Y-12156650D01*
X14020182Y-12156650D02*
X14001134Y-12166174D01*
X14001134Y-12166174D02*
X13991610Y-12175698D01*
X14201134Y-12289984D02*
X14182087Y-12280460D01*
X14182087Y-12280460D02*
X14172563Y-12270936D01*
X14172563Y-12270936D02*
X14163039Y-12251888D01*
X14163039Y-12251888D02*
X14163039Y-12194746D01*
X14163039Y-12194746D02*
X14172563Y-12175698D01*
X14172563Y-12175698D02*
X14182087Y-12166174D01*
X14182087Y-12166174D02*
X14201134Y-12156650D01*
X14201134Y-12156650D02*
X14229706Y-12156650D01*
X14229706Y-12156650D02*
X14248753Y-12166174D01*
X14248753Y-12166174D02*
X14258277Y-12175698D01*
X14258277Y-12175698D02*
X14267801Y-12194746D01*
X14267801Y-12194746D02*
X14267801Y-12251888D01*
X14267801Y-12251888D02*
X14258277Y-12270936D01*
X14258277Y-12270936D02*
X14248753Y-12280460D01*
X14248753Y-12280460D02*
X14229706Y-12289984D01*
X14229706Y-12289984D02*
X14201134Y-12289984D01*
X14382087Y-12289984D02*
X14363039Y-12280460D01*
X14363039Y-12280460D02*
X14353515Y-12261412D01*
X14353515Y-12261412D02*
X14353515Y-12089984D01*
X14534468Y-12280460D02*
X14515420Y-12289984D01*
X14515420Y-12289984D02*
X14477325Y-12289984D01*
X14477325Y-12289984D02*
X14458277Y-12280460D01*
X14458277Y-12280460D02*
X14448753Y-12261412D01*
X14448753Y-12261412D02*
X14448753Y-12185222D01*
X14448753Y-12185222D02*
X14458277Y-12166174D01*
X14458277Y-12166174D02*
X14477325Y-12156650D01*
X14477325Y-12156650D02*
X14515420Y-12156650D01*
X14515420Y-12156650D02*
X14534468Y-12166174D01*
X14534468Y-12166174D02*
X14543991Y-12185222D01*
X14543991Y-12185222D02*
X14543991Y-12204269D01*
X14543991Y-12204269D02*
X14448753Y-12223317D01*
X14620182Y-12280460D02*
X14639230Y-12289984D01*
X14639230Y-12289984D02*
X14677325Y-12289984D01*
X14677325Y-12289984D02*
X14696372Y-12280460D01*
X14696372Y-12280460D02*
X14705896Y-12261412D01*
X14705896Y-12261412D02*
X14705896Y-12251888D01*
X14705896Y-12251888D02*
X14696372Y-12232841D01*
X14696372Y-12232841D02*
X14677325Y-12223317D01*
X14677325Y-12223317D02*
X14648753Y-12223317D01*
X14648753Y-12223317D02*
X14629706Y-12213793D01*
X14629706Y-12213793D02*
X14620182Y-12194746D01*
X14620182Y-12194746D02*
X14620182Y-12185222D01*
X14620182Y-12185222D02*
X14629706Y-12166174D01*
X14629706Y-12166174D02*
X14648753Y-12156650D01*
X14648753Y-12156650D02*
X14677325Y-12156650D01*
X14677325Y-12156650D02*
X14696372Y-12166174D01*
X14772563Y-12366174D02*
X14782087Y-12356650D01*
X14782087Y-12356650D02*
X14801134Y-12328079D01*
X14801134Y-12328079D02*
X14810658Y-12309031D01*
X14810658Y-12309031D02*
X14820182Y-12280460D01*
X14820182Y-12280460D02*
X14829706Y-12232841D01*
X14829706Y-12232841D02*
X14829706Y-12194746D01*
X14829706Y-12194746D02*
X14820182Y-12147127D01*
X14820182Y-12147127D02*
X14810658Y-12118555D01*
X14810658Y-12118555D02*
X14801134Y-12099508D01*
X14801134Y-12099508D02*
X14782087Y-12070936D01*
X14782087Y-12070936D02*
X14772563Y-12061412D01*
D12*
X9907500Y-12417500D02*
X9997500Y-12507500D01*
X9997500Y-12417500D02*
X9907500Y-12507500D01*
X9997500Y-12462500D02*
G75*
G02*
X9907500Y-12462500I-45000J0D01*
G01*
X9907500Y-12462500D02*
G75*
G02*
X9997500Y-12462500I45000J0D01*
G01*
D11*
X10296372Y-12353984D02*
X10315420Y-12353984D01*
X10315420Y-12353984D02*
X10334467Y-12363508D01*
X10334467Y-12363508D02*
X10343991Y-12373031D01*
X10343991Y-12373031D02*
X10353515Y-12392079D01*
X10353515Y-12392079D02*
X10363039Y-12430174D01*
X10363039Y-12430174D02*
X10363039Y-12477793D01*
X10363039Y-12477793D02*
X10353515Y-12515888D01*
X10353515Y-12515888D02*
X10343991Y-12534936D01*
X10343991Y-12534936D02*
X10334467Y-12544460D01*
X10334467Y-12544460D02*
X10315420Y-12553984D01*
X10315420Y-12553984D02*
X10296372Y-12553984D01*
X10296372Y-12553984D02*
X10277324Y-12544460D01*
X10277324Y-12544460D02*
X10267801Y-12534936D01*
X10267801Y-12534936D02*
X10258277Y-12515888D01*
X10258277Y-12515888D02*
X10248753Y-12477793D01*
X10248753Y-12477793D02*
X10248753Y-12430174D01*
X10248753Y-12430174D02*
X10258277Y-12392079D01*
X10258277Y-12392079D02*
X10267801Y-12373031D01*
X10267801Y-12373031D02*
X10277324Y-12363508D01*
X10277324Y-12363508D02*
X10296372Y-12353984D01*
X10448753Y-12534936D02*
X10458277Y-12544460D01*
X10458277Y-12544460D02*
X10448753Y-12553984D01*
X10448753Y-12553984D02*
X10439229Y-12544460D01*
X10439229Y-12544460D02*
X10448753Y-12534936D01*
X10448753Y-12534936D02*
X10448753Y-12553984D01*
X10553515Y-12553984D02*
X10591610Y-12553984D01*
X10591610Y-12553984D02*
X10610658Y-12544460D01*
X10610658Y-12544460D02*
X10620182Y-12534936D01*
X10620182Y-12534936D02*
X10639229Y-12506365D01*
X10639229Y-12506365D02*
X10648753Y-12468269D01*
X10648753Y-12468269D02*
X10648753Y-12392079D01*
X10648753Y-12392079D02*
X10639229Y-12373031D01*
X10639229Y-12373031D02*
X10629705Y-12363508D01*
X10629705Y-12363508D02*
X10610658Y-12353984D01*
X10610658Y-12353984D02*
X10572563Y-12353984D01*
X10572563Y-12353984D02*
X10553515Y-12363508D01*
X10553515Y-12363508D02*
X10543991Y-12373031D01*
X10543991Y-12373031D02*
X10534467Y-12392079D01*
X10534467Y-12392079D02*
X10534467Y-12439698D01*
X10534467Y-12439698D02*
X10543991Y-12458746D01*
X10543991Y-12458746D02*
X10553515Y-12468269D01*
X10553515Y-12468269D02*
X10572563Y-12477793D01*
X10572563Y-12477793D02*
X10610658Y-12477793D01*
X10610658Y-12477793D02*
X10629705Y-12468269D01*
X10629705Y-12468269D02*
X10639229Y-12458746D01*
X10639229Y-12458746D02*
X10648753Y-12439698D01*
X10772563Y-12353984D02*
X10791610Y-12353984D01*
X10791610Y-12353984D02*
X10810658Y-12363508D01*
X10810658Y-12363508D02*
X10820182Y-12373031D01*
X10820182Y-12373031D02*
X10829705Y-12392079D01*
X10829705Y-12392079D02*
X10839229Y-12430174D01*
X10839229Y-12430174D02*
X10839229Y-12477793D01*
X10839229Y-12477793D02*
X10829705Y-12515888D01*
X10829705Y-12515888D02*
X10820182Y-12534936D01*
X10820182Y-12534936D02*
X10810658Y-12544460D01*
X10810658Y-12544460D02*
X10791610Y-12553984D01*
X10791610Y-12553984D02*
X10772563Y-12553984D01*
X10772563Y-12553984D02*
X10753515Y-12544460D01*
X10753515Y-12544460D02*
X10743991Y-12534936D01*
X10743991Y-12534936D02*
X10734467Y-12515888D01*
X10734467Y-12515888D02*
X10724944Y-12477793D01*
X10724944Y-12477793D02*
X10724944Y-12430174D01*
X10724944Y-12430174D02*
X10734467Y-12392079D01*
X10734467Y-12392079D02*
X10743991Y-12373031D01*
X10743991Y-12373031D02*
X10753515Y-12363508D01*
X10753515Y-12363508D02*
X10772563Y-12353984D01*
X10963039Y-12353984D02*
X10982086Y-12353984D01*
X10982086Y-12353984D02*
X11001134Y-12363508D01*
X11001134Y-12363508D02*
X11010658Y-12373031D01*
X11010658Y-12373031D02*
X11020182Y-12392079D01*
X11020182Y-12392079D02*
X11029705Y-12430174D01*
X11029705Y-12430174D02*
X11029705Y-12477793D01*
X11029705Y-12477793D02*
X11020182Y-12515888D01*
X11020182Y-12515888D02*
X11010658Y-12534936D01*
X11010658Y-12534936D02*
X11001134Y-12544460D01*
X11001134Y-12544460D02*
X10982086Y-12553984D01*
X10982086Y-12553984D02*
X10963039Y-12553984D01*
X10963039Y-12553984D02*
X10943991Y-12544460D01*
X10943991Y-12544460D02*
X10934467Y-12534936D01*
X10934467Y-12534936D02*
X10924944Y-12515888D01*
X10924944Y-12515888D02*
X10915420Y-12477793D01*
X10915420Y-12477793D02*
X10915420Y-12430174D01*
X10915420Y-12430174D02*
X10924944Y-12392079D01*
X10924944Y-12392079D02*
X10934467Y-12373031D01*
X10934467Y-12373031D02*
X10943991Y-12363508D01*
X10943991Y-12363508D02*
X10963039Y-12353984D01*
X11115420Y-12553984D02*
X11115420Y-12420650D01*
X11115420Y-12439698D02*
X11124944Y-12430174D01*
X11124944Y-12430174D02*
X11143991Y-12420650D01*
X11143991Y-12420650D02*
X11172563Y-12420650D01*
X11172563Y-12420650D02*
X11191610Y-12430174D01*
X11191610Y-12430174D02*
X11201134Y-12449222D01*
X11201134Y-12449222D02*
X11201134Y-12553984D01*
X11201134Y-12449222D02*
X11210658Y-12430174D01*
X11210658Y-12430174D02*
X11229705Y-12420650D01*
X11229705Y-12420650D02*
X11258277Y-12420650D01*
X11258277Y-12420650D02*
X11277324Y-12430174D01*
X11277324Y-12430174D02*
X11286848Y-12449222D01*
X11286848Y-12449222D02*
X11286848Y-12553984D01*
X11382086Y-12553984D02*
X11382086Y-12420650D01*
X11382086Y-12439698D02*
X11391610Y-12430174D01*
X11391610Y-12430174D02*
X11410658Y-12420650D01*
X11410658Y-12420650D02*
X11439229Y-12420650D01*
X11439229Y-12420650D02*
X11458277Y-12430174D01*
X11458277Y-12430174D02*
X11467801Y-12449222D01*
X11467801Y-12449222D02*
X11467801Y-12553984D01*
X11467801Y-12449222D02*
X11477324Y-12430174D01*
X11477324Y-12430174D02*
X11496372Y-12420650D01*
X11496372Y-12420650D02*
X11524943Y-12420650D01*
X11524943Y-12420650D02*
X11543991Y-12430174D01*
X11543991Y-12430174D02*
X11553515Y-12449222D01*
X11553515Y-12449222D02*
X11553515Y-12553984D01*
X11943991Y-12344460D02*
X11772563Y-12601603D01*
X12201134Y-12353984D02*
X12220182Y-12353984D01*
X12220182Y-12353984D02*
X12239229Y-12363508D01*
X12239229Y-12363508D02*
X12248753Y-12373031D01*
X12248753Y-12373031D02*
X12258277Y-12392079D01*
X12258277Y-12392079D02*
X12267801Y-12430174D01*
X12267801Y-12430174D02*
X12267801Y-12477793D01*
X12267801Y-12477793D02*
X12258277Y-12515888D01*
X12258277Y-12515888D02*
X12248753Y-12534936D01*
X12248753Y-12534936D02*
X12239229Y-12544460D01*
X12239229Y-12544460D02*
X12220182Y-12553984D01*
X12220182Y-12553984D02*
X12201134Y-12553984D01*
X12201134Y-12553984D02*
X12182086Y-12544460D01*
X12182086Y-12544460D02*
X12172563Y-12534936D01*
X12172563Y-12534936D02*
X12163039Y-12515888D01*
X12163039Y-12515888D02*
X12153515Y-12477793D01*
X12153515Y-12477793D02*
X12153515Y-12430174D01*
X12153515Y-12430174D02*
X12163039Y-12392079D01*
X12163039Y-12392079D02*
X12172563Y-12373031D01*
X12172563Y-12373031D02*
X12182086Y-12363508D01*
X12182086Y-12363508D02*
X12201134Y-12353984D01*
X12353515Y-12534936D02*
X12363039Y-12544460D01*
X12363039Y-12544460D02*
X12353515Y-12553984D01*
X12353515Y-12553984D02*
X12343991Y-12544460D01*
X12343991Y-12544460D02*
X12353515Y-12534936D01*
X12353515Y-12534936D02*
X12353515Y-12553984D01*
X12486848Y-12353984D02*
X12505896Y-12353984D01*
X12505896Y-12353984D02*
X12524944Y-12363508D01*
X12524944Y-12363508D02*
X12534467Y-12373031D01*
X12534467Y-12373031D02*
X12543991Y-12392079D01*
X12543991Y-12392079D02*
X12553515Y-12430174D01*
X12553515Y-12430174D02*
X12553515Y-12477793D01*
X12553515Y-12477793D02*
X12543991Y-12515888D01*
X12543991Y-12515888D02*
X12534467Y-12534936D01*
X12534467Y-12534936D02*
X12524944Y-12544460D01*
X12524944Y-12544460D02*
X12505896Y-12553984D01*
X12505896Y-12553984D02*
X12486848Y-12553984D01*
X12486848Y-12553984D02*
X12467801Y-12544460D01*
X12467801Y-12544460D02*
X12458277Y-12534936D01*
X12458277Y-12534936D02*
X12448753Y-12515888D01*
X12448753Y-12515888D02*
X12439229Y-12477793D01*
X12439229Y-12477793D02*
X12439229Y-12430174D01*
X12439229Y-12430174D02*
X12448753Y-12392079D01*
X12448753Y-12392079D02*
X12458277Y-12373031D01*
X12458277Y-12373031D02*
X12467801Y-12363508D01*
X12467801Y-12363508D02*
X12486848Y-12353984D01*
X12620182Y-12353984D02*
X12743991Y-12353984D01*
X12743991Y-12353984D02*
X12677325Y-12430174D01*
X12677325Y-12430174D02*
X12705896Y-12430174D01*
X12705896Y-12430174D02*
X12724944Y-12439698D01*
X12724944Y-12439698D02*
X12734467Y-12449222D01*
X12734467Y-12449222D02*
X12743991Y-12468269D01*
X12743991Y-12468269D02*
X12743991Y-12515888D01*
X12743991Y-12515888D02*
X12734467Y-12534936D01*
X12734467Y-12534936D02*
X12724944Y-12544460D01*
X12724944Y-12544460D02*
X12705896Y-12553984D01*
X12705896Y-12553984D02*
X12648753Y-12553984D01*
X12648753Y-12553984D02*
X12629706Y-12544460D01*
X12629706Y-12544460D02*
X12620182Y-12534936D01*
X12924944Y-12353984D02*
X12829706Y-12353984D01*
X12829706Y-12353984D02*
X12820182Y-12449222D01*
X12820182Y-12449222D02*
X12829706Y-12439698D01*
X12829706Y-12439698D02*
X12848753Y-12430174D01*
X12848753Y-12430174D02*
X12896372Y-12430174D01*
X12896372Y-12430174D02*
X12915420Y-12439698D01*
X12915420Y-12439698D02*
X12924944Y-12449222D01*
X12924944Y-12449222D02*
X12934467Y-12468269D01*
X12934467Y-12468269D02*
X12934467Y-12515888D01*
X12934467Y-12515888D02*
X12924944Y-12534936D01*
X12924944Y-12534936D02*
X12915420Y-12544460D01*
X12915420Y-12544460D02*
X12896372Y-12553984D01*
X12896372Y-12553984D02*
X12848753Y-12553984D01*
X12848753Y-12553984D02*
X12829706Y-12544460D01*
X12829706Y-12544460D02*
X12820182Y-12534936D01*
X13105896Y-12420650D02*
X13105896Y-12553984D01*
X13058277Y-12344460D02*
X13010658Y-12487317D01*
X13010658Y-12487317D02*
X13134467Y-12487317D01*
X13201134Y-12353984D02*
X13201134Y-12392079D01*
X13277325Y-12353984D02*
X13277325Y-12392079D01*
X13572563Y-12630174D02*
X13563039Y-12620650D01*
X13563039Y-12620650D02*
X13543991Y-12592079D01*
X13543991Y-12592079D02*
X13534468Y-12573031D01*
X13534468Y-12573031D02*
X13524944Y-12544460D01*
X13524944Y-12544460D02*
X13515420Y-12496841D01*
X13515420Y-12496841D02*
X13515420Y-12458746D01*
X13515420Y-12458746D02*
X13524944Y-12411127D01*
X13524944Y-12411127D02*
X13534468Y-12382555D01*
X13534468Y-12382555D02*
X13543991Y-12363508D01*
X13543991Y-12363508D02*
X13563039Y-12334936D01*
X13563039Y-12334936D02*
X13572563Y-12325412D01*
X13629706Y-12353984D02*
X13753515Y-12353984D01*
X13753515Y-12353984D02*
X13686848Y-12430174D01*
X13686848Y-12430174D02*
X13715420Y-12430174D01*
X13715420Y-12430174D02*
X13734468Y-12439698D01*
X13734468Y-12439698D02*
X13743991Y-12449222D01*
X13743991Y-12449222D02*
X13753515Y-12468269D01*
X13753515Y-12468269D02*
X13753515Y-12515888D01*
X13753515Y-12515888D02*
X13743991Y-12534936D01*
X13743991Y-12534936D02*
X13734468Y-12544460D01*
X13734468Y-12544460D02*
X13715420Y-12553984D01*
X13715420Y-12553984D02*
X13658277Y-12553984D01*
X13658277Y-12553984D02*
X13639229Y-12544460D01*
X13639229Y-12544460D02*
X13629706Y-12534936D01*
X13991610Y-12553984D02*
X13991610Y-12353984D01*
X14077325Y-12553984D02*
X14077325Y-12449222D01*
X14077325Y-12449222D02*
X14067801Y-12430174D01*
X14067801Y-12430174D02*
X14048753Y-12420650D01*
X14048753Y-12420650D02*
X14020182Y-12420650D01*
X14020182Y-12420650D02*
X14001134Y-12430174D01*
X14001134Y-12430174D02*
X13991610Y-12439698D01*
X14201134Y-12553984D02*
X14182087Y-12544460D01*
X14182087Y-12544460D02*
X14172563Y-12534936D01*
X14172563Y-12534936D02*
X14163039Y-12515888D01*
X14163039Y-12515888D02*
X14163039Y-12458746D01*
X14163039Y-12458746D02*
X14172563Y-12439698D01*
X14172563Y-12439698D02*
X14182087Y-12430174D01*
X14182087Y-12430174D02*
X14201134Y-12420650D01*
X14201134Y-12420650D02*
X14229706Y-12420650D01*
X14229706Y-12420650D02*
X14248753Y-12430174D01*
X14248753Y-12430174D02*
X14258277Y-12439698D01*
X14258277Y-12439698D02*
X14267801Y-12458746D01*
X14267801Y-12458746D02*
X14267801Y-12515888D01*
X14267801Y-12515888D02*
X14258277Y-12534936D01*
X14258277Y-12534936D02*
X14248753Y-12544460D01*
X14248753Y-12544460D02*
X14229706Y-12553984D01*
X14229706Y-12553984D02*
X14201134Y-12553984D01*
X14382087Y-12553984D02*
X14363039Y-12544460D01*
X14363039Y-12544460D02*
X14353515Y-12525412D01*
X14353515Y-12525412D02*
X14353515Y-12353984D01*
X14534468Y-12544460D02*
X14515420Y-12553984D01*
X14515420Y-12553984D02*
X14477325Y-12553984D01*
X14477325Y-12553984D02*
X14458277Y-12544460D01*
X14458277Y-12544460D02*
X14448753Y-12525412D01*
X14448753Y-12525412D02*
X14448753Y-12449222D01*
X14448753Y-12449222D02*
X14458277Y-12430174D01*
X14458277Y-12430174D02*
X14477325Y-12420650D01*
X14477325Y-12420650D02*
X14515420Y-12420650D01*
X14515420Y-12420650D02*
X14534468Y-12430174D01*
X14534468Y-12430174D02*
X14543991Y-12449222D01*
X14543991Y-12449222D02*
X14543991Y-12468269D01*
X14543991Y-12468269D02*
X14448753Y-12487317D01*
X14620182Y-12544460D02*
X14639230Y-12553984D01*
X14639230Y-12553984D02*
X14677325Y-12553984D01*
X14677325Y-12553984D02*
X14696372Y-12544460D01*
X14696372Y-12544460D02*
X14705896Y-12525412D01*
X14705896Y-12525412D02*
X14705896Y-12515888D01*
X14705896Y-12515888D02*
X14696372Y-12496841D01*
X14696372Y-12496841D02*
X14677325Y-12487317D01*
X14677325Y-12487317D02*
X14648753Y-12487317D01*
X14648753Y-12487317D02*
X14629706Y-12477793D01*
X14629706Y-12477793D02*
X14620182Y-12458746D01*
X14620182Y-12458746D02*
X14620182Y-12449222D01*
X14620182Y-12449222D02*
X14629706Y-12430174D01*
X14629706Y-12430174D02*
X14648753Y-12420650D01*
X14648753Y-12420650D02*
X14677325Y-12420650D01*
X14677325Y-12420650D02*
X14696372Y-12430174D01*
X14772563Y-12630174D02*
X14782087Y-12620650D01*
X14782087Y-12620650D02*
X14801134Y-12592079D01*
X14801134Y-12592079D02*
X14810658Y-12573031D01*
X14810658Y-12573031D02*
X14820182Y-12544460D01*
X14820182Y-12544460D02*
X14829706Y-12496841D01*
X14829706Y-12496841D02*
X14829706Y-12458746D01*
X14829706Y-12458746D02*
X14820182Y-12411127D01*
X14820182Y-12411127D02*
X14810658Y-12382555D01*
X14810658Y-12382555D02*
X14801134Y-12363508D01*
X14801134Y-12363508D02*
X14782087Y-12334936D01*
X14782087Y-12334936D02*
X14772563Y-12325412D01*
D12*
X9897500Y-12676500D02*
X9997500Y-12776500D01*
X9997500Y-12676500D02*
X9897500Y-12776500D01*
X9947500Y-12676500D02*
X9947500Y-12776500D01*
X9897500Y-12726500D02*
X9997500Y-12726500D01*
D11*
X10363039Y-12817984D02*
X10248753Y-12817984D01*
X10305896Y-12817984D02*
X10305896Y-12617984D01*
X10305896Y-12617984D02*
X10286848Y-12646555D01*
X10286848Y-12646555D02*
X10267801Y-12665603D01*
X10267801Y-12665603D02*
X10248753Y-12675127D01*
X10448753Y-12798936D02*
X10458277Y-12808460D01*
X10458277Y-12808460D02*
X10448753Y-12817984D01*
X10448753Y-12817984D02*
X10439229Y-12808460D01*
X10439229Y-12808460D02*
X10448753Y-12798936D01*
X10448753Y-12798936D02*
X10448753Y-12817984D01*
X10582086Y-12617984D02*
X10601134Y-12617984D01*
X10601134Y-12617984D02*
X10620182Y-12627508D01*
X10620182Y-12627508D02*
X10629705Y-12637031D01*
X10629705Y-12637031D02*
X10639229Y-12656079D01*
X10639229Y-12656079D02*
X10648753Y-12694174D01*
X10648753Y-12694174D02*
X10648753Y-12741793D01*
X10648753Y-12741793D02*
X10639229Y-12779888D01*
X10639229Y-12779888D02*
X10629705Y-12798936D01*
X10629705Y-12798936D02*
X10620182Y-12808460D01*
X10620182Y-12808460D02*
X10601134Y-12817984D01*
X10601134Y-12817984D02*
X10582086Y-12817984D01*
X10582086Y-12817984D02*
X10563039Y-12808460D01*
X10563039Y-12808460D02*
X10553515Y-12798936D01*
X10553515Y-12798936D02*
X10543991Y-12779888D01*
X10543991Y-12779888D02*
X10534467Y-12741793D01*
X10534467Y-12741793D02*
X10534467Y-12694174D01*
X10534467Y-12694174D02*
X10543991Y-12656079D01*
X10543991Y-12656079D02*
X10553515Y-12637031D01*
X10553515Y-12637031D02*
X10563039Y-12627508D01*
X10563039Y-12627508D02*
X10582086Y-12617984D01*
X10772563Y-12617984D02*
X10791610Y-12617984D01*
X10791610Y-12617984D02*
X10810658Y-12627508D01*
X10810658Y-12627508D02*
X10820182Y-12637031D01*
X10820182Y-12637031D02*
X10829705Y-12656079D01*
X10829705Y-12656079D02*
X10839229Y-12694174D01*
X10839229Y-12694174D02*
X10839229Y-12741793D01*
X10839229Y-12741793D02*
X10829705Y-12779888D01*
X10829705Y-12779888D02*
X10820182Y-12798936D01*
X10820182Y-12798936D02*
X10810658Y-12808460D01*
X10810658Y-12808460D02*
X10791610Y-12817984D01*
X10791610Y-12817984D02*
X10772563Y-12817984D01*
X10772563Y-12817984D02*
X10753515Y-12808460D01*
X10753515Y-12808460D02*
X10743991Y-12798936D01*
X10743991Y-12798936D02*
X10734467Y-12779888D01*
X10734467Y-12779888D02*
X10724944Y-12741793D01*
X10724944Y-12741793D02*
X10724944Y-12694174D01*
X10724944Y-12694174D02*
X10734467Y-12656079D01*
X10734467Y-12656079D02*
X10743991Y-12637031D01*
X10743991Y-12637031D02*
X10753515Y-12627508D01*
X10753515Y-12627508D02*
X10772563Y-12617984D01*
X10963039Y-12617984D02*
X10982086Y-12617984D01*
X10982086Y-12617984D02*
X11001134Y-12627508D01*
X11001134Y-12627508D02*
X11010658Y-12637031D01*
X11010658Y-12637031D02*
X11020182Y-12656079D01*
X11020182Y-12656079D02*
X11029705Y-12694174D01*
X11029705Y-12694174D02*
X11029705Y-12741793D01*
X11029705Y-12741793D02*
X11020182Y-12779888D01*
X11020182Y-12779888D02*
X11010658Y-12798936D01*
X11010658Y-12798936D02*
X11001134Y-12808460D01*
X11001134Y-12808460D02*
X10982086Y-12817984D01*
X10982086Y-12817984D02*
X10963039Y-12817984D01*
X10963039Y-12817984D02*
X10943991Y-12808460D01*
X10943991Y-12808460D02*
X10934467Y-12798936D01*
X10934467Y-12798936D02*
X10924944Y-12779888D01*
X10924944Y-12779888D02*
X10915420Y-12741793D01*
X10915420Y-12741793D02*
X10915420Y-12694174D01*
X10915420Y-12694174D02*
X10924944Y-12656079D01*
X10924944Y-12656079D02*
X10934467Y-12637031D01*
X10934467Y-12637031D02*
X10943991Y-12627508D01*
X10943991Y-12627508D02*
X10963039Y-12617984D01*
X11115420Y-12817984D02*
X11115420Y-12684650D01*
X11115420Y-12703698D02*
X11124944Y-12694174D01*
X11124944Y-12694174D02*
X11143991Y-12684650D01*
X11143991Y-12684650D02*
X11172563Y-12684650D01*
X11172563Y-12684650D02*
X11191610Y-12694174D01*
X11191610Y-12694174D02*
X11201134Y-12713222D01*
X11201134Y-12713222D02*
X11201134Y-12817984D01*
X11201134Y-12713222D02*
X11210658Y-12694174D01*
X11210658Y-12694174D02*
X11229705Y-12684650D01*
X11229705Y-12684650D02*
X11258277Y-12684650D01*
X11258277Y-12684650D02*
X11277324Y-12694174D01*
X11277324Y-12694174D02*
X11286848Y-12713222D01*
X11286848Y-12713222D02*
X11286848Y-12817984D01*
X11382086Y-12817984D02*
X11382086Y-12684650D01*
X11382086Y-12703698D02*
X11391610Y-12694174D01*
X11391610Y-12694174D02*
X11410658Y-12684650D01*
X11410658Y-12684650D02*
X11439229Y-12684650D01*
X11439229Y-12684650D02*
X11458277Y-12694174D01*
X11458277Y-12694174D02*
X11467801Y-12713222D01*
X11467801Y-12713222D02*
X11467801Y-12817984D01*
X11467801Y-12713222D02*
X11477324Y-12694174D01*
X11477324Y-12694174D02*
X11496372Y-12684650D01*
X11496372Y-12684650D02*
X11524943Y-12684650D01*
X11524943Y-12684650D02*
X11543991Y-12694174D01*
X11543991Y-12694174D02*
X11553515Y-12713222D01*
X11553515Y-12713222D02*
X11553515Y-12817984D01*
X11943991Y-12608460D02*
X11772563Y-12865603D01*
X12201134Y-12617984D02*
X12220182Y-12617984D01*
X12220182Y-12617984D02*
X12239229Y-12627508D01*
X12239229Y-12627508D02*
X12248753Y-12637031D01*
X12248753Y-12637031D02*
X12258277Y-12656079D01*
X12258277Y-12656079D02*
X12267801Y-12694174D01*
X12267801Y-12694174D02*
X12267801Y-12741793D01*
X12267801Y-12741793D02*
X12258277Y-12779888D01*
X12258277Y-12779888D02*
X12248753Y-12798936D01*
X12248753Y-12798936D02*
X12239229Y-12808460D01*
X12239229Y-12808460D02*
X12220182Y-12817984D01*
X12220182Y-12817984D02*
X12201134Y-12817984D01*
X12201134Y-12817984D02*
X12182086Y-12808460D01*
X12182086Y-12808460D02*
X12172563Y-12798936D01*
X12172563Y-12798936D02*
X12163039Y-12779888D01*
X12163039Y-12779888D02*
X12153515Y-12741793D01*
X12153515Y-12741793D02*
X12153515Y-12694174D01*
X12153515Y-12694174D02*
X12163039Y-12656079D01*
X12163039Y-12656079D02*
X12172563Y-12637031D01*
X12172563Y-12637031D02*
X12182086Y-12627508D01*
X12182086Y-12627508D02*
X12201134Y-12617984D01*
X12353515Y-12798936D02*
X12363039Y-12808460D01*
X12363039Y-12808460D02*
X12353515Y-12817984D01*
X12353515Y-12817984D02*
X12343991Y-12808460D01*
X12343991Y-12808460D02*
X12353515Y-12798936D01*
X12353515Y-12798936D02*
X12353515Y-12817984D01*
X12486848Y-12617984D02*
X12505896Y-12617984D01*
X12505896Y-12617984D02*
X12524944Y-12627508D01*
X12524944Y-12627508D02*
X12534467Y-12637031D01*
X12534467Y-12637031D02*
X12543991Y-12656079D01*
X12543991Y-12656079D02*
X12553515Y-12694174D01*
X12553515Y-12694174D02*
X12553515Y-12741793D01*
X12553515Y-12741793D02*
X12543991Y-12779888D01*
X12543991Y-12779888D02*
X12534467Y-12798936D01*
X12534467Y-12798936D02*
X12524944Y-12808460D01*
X12524944Y-12808460D02*
X12505896Y-12817984D01*
X12505896Y-12817984D02*
X12486848Y-12817984D01*
X12486848Y-12817984D02*
X12467801Y-12808460D01*
X12467801Y-12808460D02*
X12458277Y-12798936D01*
X12458277Y-12798936D02*
X12448753Y-12779888D01*
X12448753Y-12779888D02*
X12439229Y-12741793D01*
X12439229Y-12741793D02*
X12439229Y-12694174D01*
X12439229Y-12694174D02*
X12448753Y-12656079D01*
X12448753Y-12656079D02*
X12458277Y-12637031D01*
X12458277Y-12637031D02*
X12467801Y-12627508D01*
X12467801Y-12627508D02*
X12486848Y-12617984D01*
X12620182Y-12617984D02*
X12743991Y-12617984D01*
X12743991Y-12617984D02*
X12677325Y-12694174D01*
X12677325Y-12694174D02*
X12705896Y-12694174D01*
X12705896Y-12694174D02*
X12724944Y-12703698D01*
X12724944Y-12703698D02*
X12734467Y-12713222D01*
X12734467Y-12713222D02*
X12743991Y-12732269D01*
X12743991Y-12732269D02*
X12743991Y-12779888D01*
X12743991Y-12779888D02*
X12734467Y-12798936D01*
X12734467Y-12798936D02*
X12724944Y-12808460D01*
X12724944Y-12808460D02*
X12705896Y-12817984D01*
X12705896Y-12817984D02*
X12648753Y-12817984D01*
X12648753Y-12817984D02*
X12629706Y-12808460D01*
X12629706Y-12808460D02*
X12620182Y-12798936D01*
X12839229Y-12817984D02*
X12877325Y-12817984D01*
X12877325Y-12817984D02*
X12896372Y-12808460D01*
X12896372Y-12808460D02*
X12905896Y-12798936D01*
X12905896Y-12798936D02*
X12924944Y-12770365D01*
X12924944Y-12770365D02*
X12934467Y-12732269D01*
X12934467Y-12732269D02*
X12934467Y-12656079D01*
X12934467Y-12656079D02*
X12924944Y-12637031D01*
X12924944Y-12637031D02*
X12915420Y-12627508D01*
X12915420Y-12627508D02*
X12896372Y-12617984D01*
X12896372Y-12617984D02*
X12858277Y-12617984D01*
X12858277Y-12617984D02*
X12839229Y-12627508D01*
X12839229Y-12627508D02*
X12829706Y-12637031D01*
X12829706Y-12637031D02*
X12820182Y-12656079D01*
X12820182Y-12656079D02*
X12820182Y-12703698D01*
X12820182Y-12703698D02*
X12829706Y-12722746D01*
X12829706Y-12722746D02*
X12839229Y-12732269D01*
X12839229Y-12732269D02*
X12858277Y-12741793D01*
X12858277Y-12741793D02*
X12896372Y-12741793D01*
X12896372Y-12741793D02*
X12915420Y-12732269D01*
X12915420Y-12732269D02*
X12924944Y-12722746D01*
X12924944Y-12722746D02*
X12934467Y-12703698D01*
X13105896Y-12684650D02*
X13105896Y-12817984D01*
X13058277Y-12608460D02*
X13010658Y-12751317D01*
X13010658Y-12751317D02*
X13134467Y-12751317D01*
X13201134Y-12617984D02*
X13201134Y-12656079D01*
X13277325Y-12617984D02*
X13277325Y-12656079D01*
X13572563Y-12894174D02*
X13563039Y-12884650D01*
X13563039Y-12884650D02*
X13543991Y-12856079D01*
X13543991Y-12856079D02*
X13534468Y-12837031D01*
X13534468Y-12837031D02*
X13524944Y-12808460D01*
X13524944Y-12808460D02*
X13515420Y-12760841D01*
X13515420Y-12760841D02*
X13515420Y-12722746D01*
X13515420Y-12722746D02*
X13524944Y-12675127D01*
X13524944Y-12675127D02*
X13534468Y-12646555D01*
X13534468Y-12646555D02*
X13543991Y-12627508D01*
X13543991Y-12627508D02*
X13563039Y-12598936D01*
X13563039Y-12598936D02*
X13572563Y-12589412D01*
X13629706Y-12617984D02*
X13753515Y-12617984D01*
X13753515Y-12617984D02*
X13686848Y-12694174D01*
X13686848Y-12694174D02*
X13715420Y-12694174D01*
X13715420Y-12694174D02*
X13734468Y-12703698D01*
X13734468Y-12703698D02*
X13743991Y-12713222D01*
X13743991Y-12713222D02*
X13753515Y-12732269D01*
X13753515Y-12732269D02*
X13753515Y-12779888D01*
X13753515Y-12779888D02*
X13743991Y-12798936D01*
X13743991Y-12798936D02*
X13734468Y-12808460D01*
X13734468Y-12808460D02*
X13715420Y-12817984D01*
X13715420Y-12817984D02*
X13658277Y-12817984D01*
X13658277Y-12817984D02*
X13639229Y-12808460D01*
X13639229Y-12808460D02*
X13629706Y-12798936D01*
X13867801Y-12703698D02*
X13848753Y-12694174D01*
X13848753Y-12694174D02*
X13839229Y-12684650D01*
X13839229Y-12684650D02*
X13829706Y-12665603D01*
X13829706Y-12665603D02*
X13829706Y-12656079D01*
X13829706Y-12656079D02*
X13839229Y-12637031D01*
X13839229Y-12637031D02*
X13848753Y-12627508D01*
X13848753Y-12627508D02*
X13867801Y-12617984D01*
X13867801Y-12617984D02*
X13905896Y-12617984D01*
X13905896Y-12617984D02*
X13924944Y-12627508D01*
X13924944Y-12627508D02*
X13934468Y-12637031D01*
X13934468Y-12637031D02*
X13943991Y-12656079D01*
X13943991Y-12656079D02*
X13943991Y-12665603D01*
X13943991Y-12665603D02*
X13934468Y-12684650D01*
X13934468Y-12684650D02*
X13924944Y-12694174D01*
X13924944Y-12694174D02*
X13905896Y-12703698D01*
X13905896Y-12703698D02*
X13867801Y-12703698D01*
X13867801Y-12703698D02*
X13848753Y-12713222D01*
X13848753Y-12713222D02*
X13839229Y-12722746D01*
X13839229Y-12722746D02*
X13829706Y-12741793D01*
X13829706Y-12741793D02*
X13829706Y-12779888D01*
X13829706Y-12779888D02*
X13839229Y-12798936D01*
X13839229Y-12798936D02*
X13848753Y-12808460D01*
X13848753Y-12808460D02*
X13867801Y-12817984D01*
X13867801Y-12817984D02*
X13905896Y-12817984D01*
X13905896Y-12817984D02*
X13924944Y-12808460D01*
X13924944Y-12808460D02*
X13934468Y-12798936D01*
X13934468Y-12798936D02*
X13943991Y-12779888D01*
X13943991Y-12779888D02*
X13943991Y-12741793D01*
X13943991Y-12741793D02*
X13934468Y-12722746D01*
X13934468Y-12722746D02*
X13924944Y-12713222D01*
X13924944Y-12713222D02*
X13905896Y-12703698D01*
X14182087Y-12817984D02*
X14182087Y-12617984D01*
X14267801Y-12817984D02*
X14267801Y-12713222D01*
X14267801Y-12713222D02*
X14258277Y-12694174D01*
X14258277Y-12694174D02*
X14239230Y-12684650D01*
X14239230Y-12684650D02*
X14210658Y-12684650D01*
X14210658Y-12684650D02*
X14191610Y-12694174D01*
X14191610Y-12694174D02*
X14182087Y-12703698D01*
X14391610Y-12817984D02*
X14372563Y-12808460D01*
X14372563Y-12808460D02*
X14363039Y-12798936D01*
X14363039Y-12798936D02*
X14353515Y-12779888D01*
X14353515Y-12779888D02*
X14353515Y-12722746D01*
X14353515Y-12722746D02*
X14363039Y-12703698D01*
X14363039Y-12703698D02*
X14372563Y-12694174D01*
X14372563Y-12694174D02*
X14391610Y-12684650D01*
X14391610Y-12684650D02*
X14420182Y-12684650D01*
X14420182Y-12684650D02*
X14439230Y-12694174D01*
X14439230Y-12694174D02*
X14448753Y-12703698D01*
X14448753Y-12703698D02*
X14458277Y-12722746D01*
X14458277Y-12722746D02*
X14458277Y-12779888D01*
X14458277Y-12779888D02*
X14448753Y-12798936D01*
X14448753Y-12798936D02*
X14439230Y-12808460D01*
X14439230Y-12808460D02*
X14420182Y-12817984D01*
X14420182Y-12817984D02*
X14391610Y-12817984D01*
X14572563Y-12817984D02*
X14553515Y-12808460D01*
X14553515Y-12808460D02*
X14543991Y-12789412D01*
X14543991Y-12789412D02*
X14543991Y-12617984D01*
X14724944Y-12808460D02*
X14705896Y-12817984D01*
X14705896Y-12817984D02*
X14667801Y-12817984D01*
X14667801Y-12817984D02*
X14648753Y-12808460D01*
X14648753Y-12808460D02*
X14639230Y-12789412D01*
X14639230Y-12789412D02*
X14639230Y-12713222D01*
X14639230Y-12713222D02*
X14648753Y-12694174D01*
X14648753Y-12694174D02*
X14667801Y-12684650D01*
X14667801Y-12684650D02*
X14705896Y-12684650D01*
X14705896Y-12684650D02*
X14724944Y-12694174D01*
X14724944Y-12694174D02*
X14734468Y-12713222D01*
X14734468Y-12713222D02*
X14734468Y-12732269D01*
X14734468Y-12732269D02*
X14639230Y-12751317D01*
X14810658Y-12808460D02*
X14829706Y-12817984D01*
X14829706Y-12817984D02*
X14867801Y-12817984D01*
X14867801Y-12817984D02*
X14886849Y-12808460D01*
X14886849Y-12808460D02*
X14896372Y-12789412D01*
X14896372Y-12789412D02*
X14896372Y-12779888D01*
X14896372Y-12779888D02*
X14886849Y-12760841D01*
X14886849Y-12760841D02*
X14867801Y-12751317D01*
X14867801Y-12751317D02*
X14839230Y-12751317D01*
X14839230Y-12751317D02*
X14820182Y-12741793D01*
X14820182Y-12741793D02*
X14810658Y-12722746D01*
X14810658Y-12722746D02*
X14810658Y-12713222D01*
X14810658Y-12713222D02*
X14820182Y-12694174D01*
X14820182Y-12694174D02*
X14839230Y-12684650D01*
X14839230Y-12684650D02*
X14867801Y-12684650D01*
X14867801Y-12684650D02*
X14886849Y-12694174D01*
X14963039Y-12894174D02*
X14972563Y-12884650D01*
X14972563Y-12884650D02*
X14991611Y-12856079D01*
X14991611Y-12856079D02*
X15001134Y-12837031D01*
X15001134Y-12837031D02*
X15010658Y-12808460D01*
X15010658Y-12808460D02*
X15020182Y-12760841D01*
X15020182Y-12760841D02*
X15020182Y-12722746D01*
X15020182Y-12722746D02*
X15010658Y-12675127D01*
X15010658Y-12675127D02*
X15001134Y-12646555D01*
X15001134Y-12646555D02*
X14991611Y-12627508D01*
X14991611Y-12627508D02*
X14972563Y-12598936D01*
X14972563Y-12598936D02*
X14963039Y-12589412D01*
D13*
X9862500Y-12923000D02*
X9997500Y-13058000D01*
X9997500Y-12923000D02*
X9862500Y-13058000D01*
X9977730Y-13038230D02*
X9977730Y-12942770D01*
X9882270Y-12942770D01*
X9882270Y-13038230D01*
X9977730Y-13038230D01*
D11*
X10363039Y-13081984D02*
X10248753Y-13081984D01*
X10305896Y-13081984D02*
X10305896Y-12881984D01*
X10305896Y-12881984D02*
X10286848Y-12910555D01*
X10286848Y-12910555D02*
X10267801Y-12929603D01*
X10267801Y-12929603D02*
X10248753Y-12939127D01*
X10448753Y-13062936D02*
X10458277Y-13072460D01*
X10458277Y-13072460D02*
X10448753Y-13081984D01*
X10448753Y-13081984D02*
X10439229Y-13072460D01*
X10439229Y-13072460D02*
X10448753Y-13062936D01*
X10448753Y-13062936D02*
X10448753Y-13081984D01*
X10524944Y-12881984D02*
X10648753Y-12881984D01*
X10648753Y-12881984D02*
X10582086Y-12958174D01*
X10582086Y-12958174D02*
X10610658Y-12958174D01*
X10610658Y-12958174D02*
X10629705Y-12967698D01*
X10629705Y-12967698D02*
X10639229Y-12977222D01*
X10639229Y-12977222D02*
X10648753Y-12996269D01*
X10648753Y-12996269D02*
X10648753Y-13043888D01*
X10648753Y-13043888D02*
X10639229Y-13062936D01*
X10639229Y-13062936D02*
X10629705Y-13072460D01*
X10629705Y-13072460D02*
X10610658Y-13081984D01*
X10610658Y-13081984D02*
X10553515Y-13081984D01*
X10553515Y-13081984D02*
X10534467Y-13072460D01*
X10534467Y-13072460D02*
X10524944Y-13062936D01*
X10829705Y-12881984D02*
X10734467Y-12881984D01*
X10734467Y-12881984D02*
X10724944Y-12977222D01*
X10724944Y-12977222D02*
X10734467Y-12967698D01*
X10734467Y-12967698D02*
X10753515Y-12958174D01*
X10753515Y-12958174D02*
X10801134Y-12958174D01*
X10801134Y-12958174D02*
X10820182Y-12967698D01*
X10820182Y-12967698D02*
X10829705Y-12977222D01*
X10829705Y-12977222D02*
X10839229Y-12996269D01*
X10839229Y-12996269D02*
X10839229Y-13043888D01*
X10839229Y-13043888D02*
X10829705Y-13062936D01*
X10829705Y-13062936D02*
X10820182Y-13072460D01*
X10820182Y-13072460D02*
X10801134Y-13081984D01*
X10801134Y-13081984D02*
X10753515Y-13081984D01*
X10753515Y-13081984D02*
X10734467Y-13072460D01*
X10734467Y-13072460D02*
X10724944Y-13062936D01*
X10963039Y-12881984D02*
X10982086Y-12881984D01*
X10982086Y-12881984D02*
X11001134Y-12891508D01*
X11001134Y-12891508D02*
X11010658Y-12901031D01*
X11010658Y-12901031D02*
X11020182Y-12920079D01*
X11020182Y-12920079D02*
X11029705Y-12958174D01*
X11029705Y-12958174D02*
X11029705Y-13005793D01*
X11029705Y-13005793D02*
X11020182Y-13043888D01*
X11020182Y-13043888D02*
X11010658Y-13062936D01*
X11010658Y-13062936D02*
X11001134Y-13072460D01*
X11001134Y-13072460D02*
X10982086Y-13081984D01*
X10982086Y-13081984D02*
X10963039Y-13081984D01*
X10963039Y-13081984D02*
X10943991Y-13072460D01*
X10943991Y-13072460D02*
X10934467Y-13062936D01*
X10934467Y-13062936D02*
X10924944Y-13043888D01*
X10924944Y-13043888D02*
X10915420Y-13005793D01*
X10915420Y-13005793D02*
X10915420Y-12958174D01*
X10915420Y-12958174D02*
X10924944Y-12920079D01*
X10924944Y-12920079D02*
X10934467Y-12901031D01*
X10934467Y-12901031D02*
X10943991Y-12891508D01*
X10943991Y-12891508D02*
X10963039Y-12881984D01*
X11115420Y-13081984D02*
X11115420Y-12948650D01*
X11115420Y-12967698D02*
X11124944Y-12958174D01*
X11124944Y-12958174D02*
X11143991Y-12948650D01*
X11143991Y-12948650D02*
X11172563Y-12948650D01*
X11172563Y-12948650D02*
X11191610Y-12958174D01*
X11191610Y-12958174D02*
X11201134Y-12977222D01*
X11201134Y-12977222D02*
X11201134Y-13081984D01*
X11201134Y-12977222D02*
X11210658Y-12958174D01*
X11210658Y-12958174D02*
X11229705Y-12948650D01*
X11229705Y-12948650D02*
X11258277Y-12948650D01*
X11258277Y-12948650D02*
X11277324Y-12958174D01*
X11277324Y-12958174D02*
X11286848Y-12977222D01*
X11286848Y-12977222D02*
X11286848Y-13081984D01*
X11382086Y-13081984D02*
X11382086Y-12948650D01*
X11382086Y-12967698D02*
X11391610Y-12958174D01*
X11391610Y-12958174D02*
X11410658Y-12948650D01*
X11410658Y-12948650D02*
X11439229Y-12948650D01*
X11439229Y-12948650D02*
X11458277Y-12958174D01*
X11458277Y-12958174D02*
X11467801Y-12977222D01*
X11467801Y-12977222D02*
X11467801Y-13081984D01*
X11467801Y-12977222D02*
X11477324Y-12958174D01*
X11477324Y-12958174D02*
X11496372Y-12948650D01*
X11496372Y-12948650D02*
X11524943Y-12948650D01*
X11524943Y-12948650D02*
X11543991Y-12958174D01*
X11543991Y-12958174D02*
X11553515Y-12977222D01*
X11553515Y-12977222D02*
X11553515Y-13081984D01*
X11943991Y-12872460D02*
X11772563Y-13129603D01*
X12201134Y-12881984D02*
X12220182Y-12881984D01*
X12220182Y-12881984D02*
X12239229Y-12891508D01*
X12239229Y-12891508D02*
X12248753Y-12901031D01*
X12248753Y-12901031D02*
X12258277Y-12920079D01*
X12258277Y-12920079D02*
X12267801Y-12958174D01*
X12267801Y-12958174D02*
X12267801Y-13005793D01*
X12267801Y-13005793D02*
X12258277Y-13043888D01*
X12258277Y-13043888D02*
X12248753Y-13062936D01*
X12248753Y-13062936D02*
X12239229Y-13072460D01*
X12239229Y-13072460D02*
X12220182Y-13081984D01*
X12220182Y-13081984D02*
X12201134Y-13081984D01*
X12201134Y-13081984D02*
X12182086Y-13072460D01*
X12182086Y-13072460D02*
X12172563Y-13062936D01*
X12172563Y-13062936D02*
X12163039Y-13043888D01*
X12163039Y-13043888D02*
X12153515Y-13005793D01*
X12153515Y-13005793D02*
X12153515Y-12958174D01*
X12153515Y-12958174D02*
X12163039Y-12920079D01*
X12163039Y-12920079D02*
X12172563Y-12901031D01*
X12172563Y-12901031D02*
X12182086Y-12891508D01*
X12182086Y-12891508D02*
X12201134Y-12881984D01*
X12353515Y-13062936D02*
X12363039Y-13072460D01*
X12363039Y-13072460D02*
X12353515Y-13081984D01*
X12353515Y-13081984D02*
X12343991Y-13072460D01*
X12343991Y-13072460D02*
X12353515Y-13062936D01*
X12353515Y-13062936D02*
X12353515Y-13081984D01*
X12486848Y-12881984D02*
X12505896Y-12881984D01*
X12505896Y-12881984D02*
X12524944Y-12891508D01*
X12524944Y-12891508D02*
X12534467Y-12901031D01*
X12534467Y-12901031D02*
X12543991Y-12920079D01*
X12543991Y-12920079D02*
X12553515Y-12958174D01*
X12553515Y-12958174D02*
X12553515Y-13005793D01*
X12553515Y-13005793D02*
X12543991Y-13043888D01*
X12543991Y-13043888D02*
X12534467Y-13062936D01*
X12534467Y-13062936D02*
X12524944Y-13072460D01*
X12524944Y-13072460D02*
X12505896Y-13081984D01*
X12505896Y-13081984D02*
X12486848Y-13081984D01*
X12486848Y-13081984D02*
X12467801Y-13072460D01*
X12467801Y-13072460D02*
X12458277Y-13062936D01*
X12458277Y-13062936D02*
X12448753Y-13043888D01*
X12448753Y-13043888D02*
X12439229Y-13005793D01*
X12439229Y-13005793D02*
X12439229Y-12958174D01*
X12439229Y-12958174D02*
X12448753Y-12920079D01*
X12448753Y-12920079D02*
X12458277Y-12901031D01*
X12458277Y-12901031D02*
X12467801Y-12891508D01*
X12467801Y-12891508D02*
X12486848Y-12881984D01*
X12734467Y-12881984D02*
X12639229Y-12881984D01*
X12639229Y-12881984D02*
X12629706Y-12977222D01*
X12629706Y-12977222D02*
X12639229Y-12967698D01*
X12639229Y-12967698D02*
X12658277Y-12958174D01*
X12658277Y-12958174D02*
X12705896Y-12958174D01*
X12705896Y-12958174D02*
X12724944Y-12967698D01*
X12724944Y-12967698D02*
X12734467Y-12977222D01*
X12734467Y-12977222D02*
X12743991Y-12996269D01*
X12743991Y-12996269D02*
X12743991Y-13043888D01*
X12743991Y-13043888D02*
X12734467Y-13062936D01*
X12734467Y-13062936D02*
X12724944Y-13072460D01*
X12724944Y-13072460D02*
X12705896Y-13081984D01*
X12705896Y-13081984D02*
X12658277Y-13081984D01*
X12658277Y-13081984D02*
X12639229Y-13072460D01*
X12639229Y-13072460D02*
X12629706Y-13062936D01*
X12810658Y-12881984D02*
X12934467Y-12881984D01*
X12934467Y-12881984D02*
X12867801Y-12958174D01*
X12867801Y-12958174D02*
X12896372Y-12958174D01*
X12896372Y-12958174D02*
X12915420Y-12967698D01*
X12915420Y-12967698D02*
X12924944Y-12977222D01*
X12924944Y-12977222D02*
X12934467Y-12996269D01*
X12934467Y-12996269D02*
X12934467Y-13043888D01*
X12934467Y-13043888D02*
X12924944Y-13062936D01*
X12924944Y-13062936D02*
X12915420Y-13072460D01*
X12915420Y-13072460D02*
X12896372Y-13081984D01*
X12896372Y-13081984D02*
X12839229Y-13081984D01*
X12839229Y-13081984D02*
X12820182Y-13072460D01*
X12820182Y-13072460D02*
X12810658Y-13062936D01*
X13124944Y-13081984D02*
X13010658Y-13081984D01*
X13067801Y-13081984D02*
X13067801Y-12881984D01*
X13067801Y-12881984D02*
X13048753Y-12910555D01*
X13048753Y-12910555D02*
X13029706Y-12929603D01*
X13029706Y-12929603D02*
X13010658Y-12939127D01*
X13201134Y-12881984D02*
X13201134Y-12920079D01*
X13277325Y-12881984D02*
X13277325Y-12920079D01*
X13572563Y-13158174D02*
X13563039Y-13148650D01*
X13563039Y-13148650D02*
X13543991Y-13120079D01*
X13543991Y-13120079D02*
X13534468Y-13101031D01*
X13534468Y-13101031D02*
X13524944Y-13072460D01*
X13524944Y-13072460D02*
X13515420Y-13024841D01*
X13515420Y-13024841D02*
X13515420Y-12986746D01*
X13515420Y-12986746D02*
X13524944Y-12939127D01*
X13524944Y-12939127D02*
X13534468Y-12910555D01*
X13534468Y-12910555D02*
X13543991Y-12891508D01*
X13543991Y-12891508D02*
X13563039Y-12862936D01*
X13563039Y-12862936D02*
X13572563Y-12853412D01*
X13734468Y-12881984D02*
X13696372Y-12881984D01*
X13696372Y-12881984D02*
X13677325Y-12891508D01*
X13677325Y-12891508D02*
X13667801Y-12901031D01*
X13667801Y-12901031D02*
X13648753Y-12929603D01*
X13648753Y-12929603D02*
X13639229Y-12967698D01*
X13639229Y-12967698D02*
X13639229Y-13043888D01*
X13639229Y-13043888D02*
X13648753Y-13062936D01*
X13648753Y-13062936D02*
X13658277Y-13072460D01*
X13658277Y-13072460D02*
X13677325Y-13081984D01*
X13677325Y-13081984D02*
X13715420Y-13081984D01*
X13715420Y-13081984D02*
X13734468Y-13072460D01*
X13734468Y-13072460D02*
X13743991Y-13062936D01*
X13743991Y-13062936D02*
X13753515Y-13043888D01*
X13753515Y-13043888D02*
X13753515Y-12996269D01*
X13753515Y-12996269D02*
X13743991Y-12977222D01*
X13743991Y-12977222D02*
X13734468Y-12967698D01*
X13734468Y-12967698D02*
X13715420Y-12958174D01*
X13715420Y-12958174D02*
X13677325Y-12958174D01*
X13677325Y-12958174D02*
X13658277Y-12967698D01*
X13658277Y-12967698D02*
X13648753Y-12977222D01*
X13648753Y-12977222D02*
X13639229Y-12996269D01*
X13991610Y-13081984D02*
X13991610Y-12881984D01*
X14077325Y-13081984D02*
X14077325Y-12977222D01*
X14077325Y-12977222D02*
X14067801Y-12958174D01*
X14067801Y-12958174D02*
X14048753Y-12948650D01*
X14048753Y-12948650D02*
X14020182Y-12948650D01*
X14020182Y-12948650D02*
X14001134Y-12958174D01*
X14001134Y-12958174D02*
X13991610Y-12967698D01*
X14201134Y-13081984D02*
X14182087Y-13072460D01*
X14182087Y-13072460D02*
X14172563Y-13062936D01*
X14172563Y-13062936D02*
X14163039Y-13043888D01*
X14163039Y-13043888D02*
X14163039Y-12986746D01*
X14163039Y-12986746D02*
X14172563Y-12967698D01*
X14172563Y-12967698D02*
X14182087Y-12958174D01*
X14182087Y-12958174D02*
X14201134Y-12948650D01*
X14201134Y-12948650D02*
X14229706Y-12948650D01*
X14229706Y-12948650D02*
X14248753Y-12958174D01*
X14248753Y-12958174D02*
X14258277Y-12967698D01*
X14258277Y-12967698D02*
X14267801Y-12986746D01*
X14267801Y-12986746D02*
X14267801Y-13043888D01*
X14267801Y-13043888D02*
X14258277Y-13062936D01*
X14258277Y-13062936D02*
X14248753Y-13072460D01*
X14248753Y-13072460D02*
X14229706Y-13081984D01*
X14229706Y-13081984D02*
X14201134Y-13081984D01*
X14382087Y-13081984D02*
X14363039Y-13072460D01*
X14363039Y-13072460D02*
X14353515Y-13053412D01*
X14353515Y-13053412D02*
X14353515Y-12881984D01*
X14534468Y-13072460D02*
X14515420Y-13081984D01*
X14515420Y-13081984D02*
X14477325Y-13081984D01*
X14477325Y-13081984D02*
X14458277Y-13072460D01*
X14458277Y-13072460D02*
X14448753Y-13053412D01*
X14448753Y-13053412D02*
X14448753Y-12977222D01*
X14448753Y-12977222D02*
X14458277Y-12958174D01*
X14458277Y-12958174D02*
X14477325Y-12948650D01*
X14477325Y-12948650D02*
X14515420Y-12948650D01*
X14515420Y-12948650D02*
X14534468Y-12958174D01*
X14534468Y-12958174D02*
X14543991Y-12977222D01*
X14543991Y-12977222D02*
X14543991Y-12996269D01*
X14543991Y-12996269D02*
X14448753Y-13015317D01*
X14620182Y-13072460D02*
X14639230Y-13081984D01*
X14639230Y-13081984D02*
X14677325Y-13081984D01*
X14677325Y-13081984D02*
X14696372Y-13072460D01*
X14696372Y-13072460D02*
X14705896Y-13053412D01*
X14705896Y-13053412D02*
X14705896Y-13043888D01*
X14705896Y-13043888D02*
X14696372Y-13024841D01*
X14696372Y-13024841D02*
X14677325Y-13015317D01*
X14677325Y-13015317D02*
X14648753Y-13015317D01*
X14648753Y-13015317D02*
X14629706Y-13005793D01*
X14629706Y-13005793D02*
X14620182Y-12986746D01*
X14620182Y-12986746D02*
X14620182Y-12977222D01*
X14620182Y-12977222D02*
X14629706Y-12958174D01*
X14629706Y-12958174D02*
X14648753Y-12948650D01*
X14648753Y-12948650D02*
X14677325Y-12948650D01*
X14677325Y-12948650D02*
X14696372Y-12958174D01*
X14772563Y-13158174D02*
X14782087Y-13148650D01*
X14782087Y-13148650D02*
X14801134Y-13120079D01*
X14801134Y-13120079D02*
X14810658Y-13101031D01*
X14810658Y-13101031D02*
X14820182Y-13072460D01*
X14820182Y-13072460D02*
X14829706Y-13024841D01*
X14829706Y-13024841D02*
X14829706Y-12986746D01*
X14829706Y-12986746D02*
X14820182Y-12939127D01*
X14820182Y-12939127D02*
X14810658Y-12910555D01*
X14810658Y-12910555D02*
X14801134Y-12891508D01*
X14801134Y-12891508D02*
X14782087Y-12862936D01*
X14782087Y-12862936D02*
X14772563Y-12853412D01*
D14*
X9840500Y-13176000D02*
X9997500Y-13333000D01*
X9997500Y-13176000D02*
X9840500Y-13333000D01*
X9919000Y-13333000D02*
X9997500Y-13254500D01*
X9919000Y-13176000D01*
X9840500Y-13254500D01*
X9919000Y-13333000D01*
D11*
X10363039Y-13345984D02*
X10248753Y-13345984D01*
X10305896Y-13345984D02*
X10305896Y-13145984D01*
X10305896Y-13145984D02*
X10286848Y-13174555D01*
X10286848Y-13174555D02*
X10267801Y-13193603D01*
X10267801Y-13193603D02*
X10248753Y-13203127D01*
X10448753Y-13326936D02*
X10458277Y-13336460D01*
X10458277Y-13336460D02*
X10448753Y-13345984D01*
X10448753Y-13345984D02*
X10439229Y-13336460D01*
X10439229Y-13336460D02*
X10448753Y-13326936D01*
X10448753Y-13326936D02*
X10448753Y-13345984D01*
X10639229Y-13145984D02*
X10543991Y-13145984D01*
X10543991Y-13145984D02*
X10534467Y-13241222D01*
X10534467Y-13241222D02*
X10543991Y-13231698D01*
X10543991Y-13231698D02*
X10563039Y-13222174D01*
X10563039Y-13222174D02*
X10610658Y-13222174D01*
X10610658Y-13222174D02*
X10629705Y-13231698D01*
X10629705Y-13231698D02*
X10639229Y-13241222D01*
X10639229Y-13241222D02*
X10648753Y-13260269D01*
X10648753Y-13260269D02*
X10648753Y-13307888D01*
X10648753Y-13307888D02*
X10639229Y-13326936D01*
X10639229Y-13326936D02*
X10629705Y-13336460D01*
X10629705Y-13336460D02*
X10610658Y-13345984D01*
X10610658Y-13345984D02*
X10563039Y-13345984D01*
X10563039Y-13345984D02*
X10543991Y-13336460D01*
X10543991Y-13336460D02*
X10534467Y-13326936D01*
X10715420Y-13145984D02*
X10848753Y-13145984D01*
X10848753Y-13145984D02*
X10763039Y-13345984D01*
X10963039Y-13145984D02*
X10982086Y-13145984D01*
X10982086Y-13145984D02*
X11001134Y-13155508D01*
X11001134Y-13155508D02*
X11010658Y-13165031D01*
X11010658Y-13165031D02*
X11020182Y-13184079D01*
X11020182Y-13184079D02*
X11029705Y-13222174D01*
X11029705Y-13222174D02*
X11029705Y-13269793D01*
X11029705Y-13269793D02*
X11020182Y-13307888D01*
X11020182Y-13307888D02*
X11010658Y-13326936D01*
X11010658Y-13326936D02*
X11001134Y-13336460D01*
X11001134Y-13336460D02*
X10982086Y-13345984D01*
X10982086Y-13345984D02*
X10963039Y-13345984D01*
X10963039Y-13345984D02*
X10943991Y-13336460D01*
X10943991Y-13336460D02*
X10934467Y-13326936D01*
X10934467Y-13326936D02*
X10924944Y-13307888D01*
X10924944Y-13307888D02*
X10915420Y-13269793D01*
X10915420Y-13269793D02*
X10915420Y-13222174D01*
X10915420Y-13222174D02*
X10924944Y-13184079D01*
X10924944Y-13184079D02*
X10934467Y-13165031D01*
X10934467Y-13165031D02*
X10943991Y-13155508D01*
X10943991Y-13155508D02*
X10963039Y-13145984D01*
X11115420Y-13345984D02*
X11115420Y-13212650D01*
X11115420Y-13231698D02*
X11124944Y-13222174D01*
X11124944Y-13222174D02*
X11143991Y-13212650D01*
X11143991Y-13212650D02*
X11172563Y-13212650D01*
X11172563Y-13212650D02*
X11191610Y-13222174D01*
X11191610Y-13222174D02*
X11201134Y-13241222D01*
X11201134Y-13241222D02*
X11201134Y-13345984D01*
X11201134Y-13241222D02*
X11210658Y-13222174D01*
X11210658Y-13222174D02*
X11229705Y-13212650D01*
X11229705Y-13212650D02*
X11258277Y-13212650D01*
X11258277Y-13212650D02*
X11277324Y-13222174D01*
X11277324Y-13222174D02*
X11286848Y-13241222D01*
X11286848Y-13241222D02*
X11286848Y-13345984D01*
X11382086Y-13345984D02*
X11382086Y-13212650D01*
X11382086Y-13231698D02*
X11391610Y-13222174D01*
X11391610Y-13222174D02*
X11410658Y-13212650D01*
X11410658Y-13212650D02*
X11439229Y-13212650D01*
X11439229Y-13212650D02*
X11458277Y-13222174D01*
X11458277Y-13222174D02*
X11467801Y-13241222D01*
X11467801Y-13241222D02*
X11467801Y-13345984D01*
X11467801Y-13241222D02*
X11477324Y-13222174D01*
X11477324Y-13222174D02*
X11496372Y-13212650D01*
X11496372Y-13212650D02*
X11524943Y-13212650D01*
X11524943Y-13212650D02*
X11543991Y-13222174D01*
X11543991Y-13222174D02*
X11553515Y-13241222D01*
X11553515Y-13241222D02*
X11553515Y-13345984D01*
X11943991Y-13136460D02*
X11772563Y-13393603D01*
X12201134Y-13145984D02*
X12220182Y-13145984D01*
X12220182Y-13145984D02*
X12239229Y-13155508D01*
X12239229Y-13155508D02*
X12248753Y-13165031D01*
X12248753Y-13165031D02*
X12258277Y-13184079D01*
X12258277Y-13184079D02*
X12267801Y-13222174D01*
X12267801Y-13222174D02*
X12267801Y-13269793D01*
X12267801Y-13269793D02*
X12258277Y-13307888D01*
X12258277Y-13307888D02*
X12248753Y-13326936D01*
X12248753Y-13326936D02*
X12239229Y-13336460D01*
X12239229Y-13336460D02*
X12220182Y-13345984D01*
X12220182Y-13345984D02*
X12201134Y-13345984D01*
X12201134Y-13345984D02*
X12182086Y-13336460D01*
X12182086Y-13336460D02*
X12172563Y-13326936D01*
X12172563Y-13326936D02*
X12163039Y-13307888D01*
X12163039Y-13307888D02*
X12153515Y-13269793D01*
X12153515Y-13269793D02*
X12153515Y-13222174D01*
X12153515Y-13222174D02*
X12163039Y-13184079D01*
X12163039Y-13184079D02*
X12172563Y-13165031D01*
X12172563Y-13165031D02*
X12182086Y-13155508D01*
X12182086Y-13155508D02*
X12201134Y-13145984D01*
X12353515Y-13326936D02*
X12363039Y-13336460D01*
X12363039Y-13336460D02*
X12353515Y-13345984D01*
X12353515Y-13345984D02*
X12343991Y-13336460D01*
X12343991Y-13336460D02*
X12353515Y-13326936D01*
X12353515Y-13326936D02*
X12353515Y-13345984D01*
X12486848Y-13145984D02*
X12505896Y-13145984D01*
X12505896Y-13145984D02*
X12524944Y-13155508D01*
X12524944Y-13155508D02*
X12534467Y-13165031D01*
X12534467Y-13165031D02*
X12543991Y-13184079D01*
X12543991Y-13184079D02*
X12553515Y-13222174D01*
X12553515Y-13222174D02*
X12553515Y-13269793D01*
X12553515Y-13269793D02*
X12543991Y-13307888D01*
X12543991Y-13307888D02*
X12534467Y-13326936D01*
X12534467Y-13326936D02*
X12524944Y-13336460D01*
X12524944Y-13336460D02*
X12505896Y-13345984D01*
X12505896Y-13345984D02*
X12486848Y-13345984D01*
X12486848Y-13345984D02*
X12467801Y-13336460D01*
X12467801Y-13336460D02*
X12458277Y-13326936D01*
X12458277Y-13326936D02*
X12448753Y-13307888D01*
X12448753Y-13307888D02*
X12439229Y-13269793D01*
X12439229Y-13269793D02*
X12439229Y-13222174D01*
X12439229Y-13222174D02*
X12448753Y-13184079D01*
X12448753Y-13184079D02*
X12458277Y-13165031D01*
X12458277Y-13165031D02*
X12467801Y-13155508D01*
X12467801Y-13155508D02*
X12486848Y-13145984D01*
X12724944Y-13145984D02*
X12686848Y-13145984D01*
X12686848Y-13145984D02*
X12667801Y-13155508D01*
X12667801Y-13155508D02*
X12658277Y-13165031D01*
X12658277Y-13165031D02*
X12639229Y-13193603D01*
X12639229Y-13193603D02*
X12629706Y-13231698D01*
X12629706Y-13231698D02*
X12629706Y-13307888D01*
X12629706Y-13307888D02*
X12639229Y-13326936D01*
X12639229Y-13326936D02*
X12648753Y-13336460D01*
X12648753Y-13336460D02*
X12667801Y-13345984D01*
X12667801Y-13345984D02*
X12705896Y-13345984D01*
X12705896Y-13345984D02*
X12724944Y-13336460D01*
X12724944Y-13336460D02*
X12734467Y-13326936D01*
X12734467Y-13326936D02*
X12743991Y-13307888D01*
X12743991Y-13307888D02*
X12743991Y-13260269D01*
X12743991Y-13260269D02*
X12734467Y-13241222D01*
X12734467Y-13241222D02*
X12724944Y-13231698D01*
X12724944Y-13231698D02*
X12705896Y-13222174D01*
X12705896Y-13222174D02*
X12667801Y-13222174D01*
X12667801Y-13222174D02*
X12648753Y-13231698D01*
X12648753Y-13231698D02*
X12639229Y-13241222D01*
X12639229Y-13241222D02*
X12629706Y-13260269D01*
X12934467Y-13345984D02*
X12820182Y-13345984D01*
X12877325Y-13345984D02*
X12877325Y-13145984D01*
X12877325Y-13145984D02*
X12858277Y-13174555D01*
X12858277Y-13174555D02*
X12839229Y-13193603D01*
X12839229Y-13193603D02*
X12820182Y-13203127D01*
X13048753Y-13231698D02*
X13029706Y-13222174D01*
X13029706Y-13222174D02*
X13020182Y-13212650D01*
X13020182Y-13212650D02*
X13010658Y-13193603D01*
X13010658Y-13193603D02*
X13010658Y-13184079D01*
X13010658Y-13184079D02*
X13020182Y-13165031D01*
X13020182Y-13165031D02*
X13029706Y-13155508D01*
X13029706Y-13155508D02*
X13048753Y-13145984D01*
X13048753Y-13145984D02*
X13086848Y-13145984D01*
X13086848Y-13145984D02*
X13105896Y-13155508D01*
X13105896Y-13155508D02*
X13115420Y-13165031D01*
X13115420Y-13165031D02*
X13124944Y-13184079D01*
X13124944Y-13184079D02*
X13124944Y-13193603D01*
X13124944Y-13193603D02*
X13115420Y-13212650D01*
X13115420Y-13212650D02*
X13105896Y-13222174D01*
X13105896Y-13222174D02*
X13086848Y-13231698D01*
X13086848Y-13231698D02*
X13048753Y-13231698D01*
X13048753Y-13231698D02*
X13029706Y-13241222D01*
X13029706Y-13241222D02*
X13020182Y-13250746D01*
X13020182Y-13250746D02*
X13010658Y-13269793D01*
X13010658Y-13269793D02*
X13010658Y-13307888D01*
X13010658Y-13307888D02*
X13020182Y-13326936D01*
X13020182Y-13326936D02*
X13029706Y-13336460D01*
X13029706Y-13336460D02*
X13048753Y-13345984D01*
X13048753Y-13345984D02*
X13086848Y-13345984D01*
X13086848Y-13345984D02*
X13105896Y-13336460D01*
X13105896Y-13336460D02*
X13115420Y-13326936D01*
X13115420Y-13326936D02*
X13124944Y-13307888D01*
X13124944Y-13307888D02*
X13124944Y-13269793D01*
X13124944Y-13269793D02*
X13115420Y-13250746D01*
X13115420Y-13250746D02*
X13105896Y-13241222D01*
X13105896Y-13241222D02*
X13086848Y-13231698D01*
X13201134Y-13145984D02*
X13201134Y-13184079D01*
X13277325Y-13145984D02*
X13277325Y-13184079D01*
X13572563Y-13422174D02*
X13563039Y-13412650D01*
X13563039Y-13412650D02*
X13543991Y-13384079D01*
X13543991Y-13384079D02*
X13534468Y-13365031D01*
X13534468Y-13365031D02*
X13524944Y-13336460D01*
X13524944Y-13336460D02*
X13515420Y-13288841D01*
X13515420Y-13288841D02*
X13515420Y-13250746D01*
X13515420Y-13250746D02*
X13524944Y-13203127D01*
X13524944Y-13203127D02*
X13534468Y-13174555D01*
X13534468Y-13174555D02*
X13543991Y-13155508D01*
X13543991Y-13155508D02*
X13563039Y-13126936D01*
X13563039Y-13126936D02*
X13572563Y-13117412D01*
X13639229Y-13165031D02*
X13648753Y-13155508D01*
X13648753Y-13155508D02*
X13667801Y-13145984D01*
X13667801Y-13145984D02*
X13715420Y-13145984D01*
X13715420Y-13145984D02*
X13734468Y-13155508D01*
X13734468Y-13155508D02*
X13743991Y-13165031D01*
X13743991Y-13165031D02*
X13753515Y-13184079D01*
X13753515Y-13184079D02*
X13753515Y-13203127D01*
X13753515Y-13203127D02*
X13743991Y-13231698D01*
X13743991Y-13231698D02*
X13629706Y-13345984D01*
X13629706Y-13345984D02*
X13753515Y-13345984D01*
X13991610Y-13345984D02*
X13991610Y-13145984D01*
X14077325Y-13345984D02*
X14077325Y-13241222D01*
X14077325Y-13241222D02*
X14067801Y-13222174D01*
X14067801Y-13222174D02*
X14048753Y-13212650D01*
X14048753Y-13212650D02*
X14020182Y-13212650D01*
X14020182Y-13212650D02*
X14001134Y-13222174D01*
X14001134Y-13222174D02*
X13991610Y-13231698D01*
X14201134Y-13345984D02*
X14182087Y-13336460D01*
X14182087Y-13336460D02*
X14172563Y-13326936D01*
X14172563Y-13326936D02*
X14163039Y-13307888D01*
X14163039Y-13307888D02*
X14163039Y-13250746D01*
X14163039Y-13250746D02*
X14172563Y-13231698D01*
X14172563Y-13231698D02*
X14182087Y-13222174D01*
X14182087Y-13222174D02*
X14201134Y-13212650D01*
X14201134Y-13212650D02*
X14229706Y-13212650D01*
X14229706Y-13212650D02*
X14248753Y-13222174D01*
X14248753Y-13222174D02*
X14258277Y-13231698D01*
X14258277Y-13231698D02*
X14267801Y-13250746D01*
X14267801Y-13250746D02*
X14267801Y-13307888D01*
X14267801Y-13307888D02*
X14258277Y-13326936D01*
X14258277Y-13326936D02*
X14248753Y-13336460D01*
X14248753Y-13336460D02*
X14229706Y-13345984D01*
X14229706Y-13345984D02*
X14201134Y-13345984D01*
X14382087Y-13345984D02*
X14363039Y-13336460D01*
X14363039Y-13336460D02*
X14353515Y-13317412D01*
X14353515Y-13317412D02*
X14353515Y-13145984D01*
X14534468Y-13336460D02*
X14515420Y-13345984D01*
X14515420Y-13345984D02*
X14477325Y-13345984D01*
X14477325Y-13345984D02*
X14458277Y-13336460D01*
X14458277Y-13336460D02*
X14448753Y-13317412D01*
X14448753Y-13317412D02*
X14448753Y-13241222D01*
X14448753Y-13241222D02*
X14458277Y-13222174D01*
X14458277Y-13222174D02*
X14477325Y-13212650D01*
X14477325Y-13212650D02*
X14515420Y-13212650D01*
X14515420Y-13212650D02*
X14534468Y-13222174D01*
X14534468Y-13222174D02*
X14543991Y-13241222D01*
X14543991Y-13241222D02*
X14543991Y-13260269D01*
X14543991Y-13260269D02*
X14448753Y-13279317D01*
X14620182Y-13336460D02*
X14639230Y-13345984D01*
X14639230Y-13345984D02*
X14677325Y-13345984D01*
X14677325Y-13345984D02*
X14696372Y-13336460D01*
X14696372Y-13336460D02*
X14705896Y-13317412D01*
X14705896Y-13317412D02*
X14705896Y-13307888D01*
X14705896Y-13307888D02*
X14696372Y-13288841D01*
X14696372Y-13288841D02*
X14677325Y-13279317D01*
X14677325Y-13279317D02*
X14648753Y-13279317D01*
X14648753Y-13279317D02*
X14629706Y-13269793D01*
X14629706Y-13269793D02*
X14620182Y-13250746D01*
X14620182Y-13250746D02*
X14620182Y-13241222D01*
X14620182Y-13241222D02*
X14629706Y-13222174D01*
X14629706Y-13222174D02*
X14648753Y-13212650D01*
X14648753Y-13212650D02*
X14677325Y-13212650D01*
X14677325Y-13212650D02*
X14696372Y-13222174D01*
X14772563Y-13422174D02*
X14782087Y-13412650D01*
X14782087Y-13412650D02*
X14801134Y-13384079D01*
X14801134Y-13384079D02*
X14810658Y-13365031D01*
X14810658Y-13365031D02*
X14820182Y-13336460D01*
X14820182Y-13336460D02*
X14829706Y-13288841D01*
X14829706Y-13288841D02*
X14829706Y-13250746D01*
X14829706Y-13250746D02*
X14820182Y-13203127D01*
X14820182Y-13203127D02*
X14810658Y-13174555D01*
X14810658Y-13174555D02*
X14801134Y-13155508D01*
X14801134Y-13155508D02*
X14782087Y-13126936D01*
X14782087Y-13126936D02*
X14772563Y-13117412D01*
M02*
