%TF.GenerationSoftware,KiCad,Pcbnew,9.0.1*%
%TF.CreationDate,2025-08-07T18:15:33+02:00*%
%TF.ProjectId,Hauptmodul,48617570-746d-46f6-9475-6c2e6b696361,rev?*%
%TF.SameCoordinates,Original*%
%TF.FileFunction,Copper,L1,Top*%
%TF.FilePolarity,Positive*%
%FSLAX46Y46*%
G04 Gerber Fmt 4.6, Leading zero omitted, Abs format (unit mm)*
G04 Created by KiCad (PCBNEW 9.0.1) date 2025-08-07 18:15:33*
%MOMM*%
%LPD*%
G01*
G04 APERTURE LIST*
G04 Aperture macros list*
%AMRoundRect*
0 Rectangle with rounded corners*
0 $1 Rounding radius*
0 $2 $3 $4 $5 $6 $7 $8 $9 X,Y pos of 4 corners*
0 Add a 4 corners polygon primitive as box body*
4,1,4,$2,$3,$4,$5,$6,$7,$8,$9,$2,$3,0*
0 Add four circle primitives for the rounded corners*
1,1,$1+$1,$2,$3*
1,1,$1+$1,$4,$5*
1,1,$1+$1,$6,$7*
1,1,$1+$1,$8,$9*
0 Add four rect primitives between the rounded corners*
20,1,$1+$1,$2,$3,$4,$5,0*
20,1,$1+$1,$4,$5,$6,$7,0*
20,1,$1+$1,$6,$7,$8,$9,0*
20,1,$1+$1,$8,$9,$2,$3,0*%
G04 Aperture macros list end*
%TA.AperFunction,SMDPad,CuDef*%
%ADD10R,1.200000X1.200000*%
%TD*%
%TA.AperFunction,SMDPad,CuDef*%
%ADD11R,1.500000X1.600000*%
%TD*%
%TA.AperFunction,SMDPad,CuDef*%
%ADD12RoundRect,0.250000X0.650000X-0.325000X0.650000X0.325000X-0.650000X0.325000X-0.650000X-0.325000X0*%
%TD*%
%TA.AperFunction,SMDPad,CuDef*%
%ADD13R,0.500000X2.000000*%
%TD*%
%TA.AperFunction,SMDPad,CuDef*%
%ADD14RoundRect,0.250000X-0.650000X0.325000X-0.650000X-0.325000X0.650000X-0.325000X0.650000X0.325000X0*%
%TD*%
%TA.AperFunction,SMDPad,CuDef*%
%ADD15RoundRect,0.250000X-0.625000X0.312500X-0.625000X-0.312500X0.625000X-0.312500X0.625000X0.312500X0*%
%TD*%
%TA.AperFunction,SMDPad,CuDef*%
%ADD16R,0.700000X1.000000*%
%TD*%
%TA.AperFunction,SMDPad,CuDef*%
%ADD17R,0.800000X1.750000*%
%TD*%
%TA.AperFunction,SMDPad,CuDef*%
%ADD18R,0.700000X1.750000*%
%TD*%
%TA.AperFunction,SMDPad,CuDef*%
%ADD19RoundRect,0.250000X-0.312500X-0.625000X0.312500X-0.625000X0.312500X0.625000X-0.312500X0.625000X0*%
%TD*%
%TA.AperFunction,SMDPad,CuDef*%
%ADD20R,1.850000X0.650000*%
%TD*%
%TA.AperFunction,SMDPad,CuDef*%
%ADD21R,0.650000X1.500000*%
%TD*%
%TA.AperFunction,SMDPad,CuDef*%
%ADD22R,1.350000X2.100000*%
%TD*%
%TA.AperFunction,SMDPad,CuDef*%
%ADD23RoundRect,0.250000X0.312500X0.625000X-0.312500X0.625000X-0.312500X-0.625000X0.312500X-0.625000X0*%
%TD*%
%TA.AperFunction,SMDPad,CuDef*%
%ADD24RoundRect,0.250000X0.625000X-0.312500X0.625000X0.312500X-0.625000X0.312500X-0.625000X-0.312500X0*%
%TD*%
%TA.AperFunction,ComponentPad*%
%ADD25R,2.025000X2.025000*%
%TD*%
%TA.AperFunction,ComponentPad*%
%ADD26C,2.025000*%
%TD*%
%TA.AperFunction,ComponentPad*%
%ADD27R,1.446000X1.446000*%
%TD*%
%TA.AperFunction,ComponentPad*%
%ADD28C,1.446000*%
%TD*%
%TA.AperFunction,ComponentPad*%
%ADD29C,2.355000*%
%TD*%
%TA.AperFunction,ComponentPad*%
%ADD30R,1.700000X1.700000*%
%TD*%
%TA.AperFunction,ComponentPad*%
%ADD31C,1.700000*%
%TD*%
%TA.AperFunction,ComponentPad*%
%ADD32C,1.400000*%
%TD*%
%TA.AperFunction,ComponentPad*%
%ADD33R,1.320000X1.320000*%
%TD*%
%TA.AperFunction,ComponentPad*%
%ADD34C,1.320000*%
%TD*%
%TA.AperFunction,ComponentPad*%
%ADD35R,1.200000X1.200000*%
%TD*%
%TA.AperFunction,ComponentPad*%
%ADD36C,1.200000*%
%TD*%
%TA.AperFunction,ViaPad*%
%ADD37C,0.750000*%
%TD*%
%TA.AperFunction,ViaPad*%
%ADD38C,1.000000*%
%TD*%
%TA.AperFunction,Conductor*%
%ADD39C,0.500000*%
%TD*%
%TA.AperFunction,Conductor*%
%ADD40C,0.250000*%
%TD*%
%TA.AperFunction,Conductor*%
%ADD41C,0.400000*%
%TD*%
G04 APERTURE END LIST*
D10*
%TO.P,VR1,1,CCW*%
%TO.N,+5VD*%
X193500000Y-50000000D03*
D11*
%TO.P,VR1,2,WIPER*%
%TO.N,Net-(IC6-VINA+)*%
X196750000Y-51000000D03*
D10*
%TO.P,VR1,3,CW*%
%TO.N,GNDD*%
X193500000Y-52000000D03*
%TD*%
D12*
%TO.P,C8,1*%
%TO.N,GNDD*%
X156500000Y-86450000D03*
%TO.P,C8,2*%
%TO.N,+5VD*%
X156500000Y-83500000D03*
%TD*%
D13*
%TO.P,J7,1,1*%
%TO.N,+5VD*%
X119700000Y-97400000D03*
%TO.P,J7,2,2*%
%TO.N,+3V3D*%
X119700000Y-93000000D03*
%TO.P,J7,3,3*%
%TO.N,GNDD*%
X118900000Y-97400000D03*
%TO.P,J7,4,4*%
%TO.N,/SPI_COPI*%
X118900000Y-93000000D03*
%TO.P,J7,5,5*%
%TO.N,/SPI_CIPO*%
X118100000Y-97400000D03*
%TO.P,J7,6,6*%
%TO.N,/SPI_SCK*%
X118100000Y-93000000D03*
%TO.P,J7,7,7*%
%TO.N,/INT*%
X117300000Y-97400000D03*
%TO.P,J7,8,8*%
%TO.N,/I2C_SDA*%
X117300000Y-93000000D03*
%TO.P,J7,9,9*%
%TO.N,/I2C_SCL*%
X116500000Y-97400000D03*
%TO.P,J7,10,10*%
%TO.N,/UART_RX*%
X116500000Y-93000000D03*
%TO.P,J7,11,11*%
%TO.N,/UART_TX*%
X115700000Y-97400000D03*
%TO.P,J7,12,12*%
%TO.N,/GPIO_1*%
X115700000Y-93000000D03*
%TO.P,J7,13,13*%
%TO.N,/GPIO_2*%
X114900000Y-97400000D03*
%TO.P,J7,14,14*%
%TO.N,/GPIO_3*%
X114900000Y-93000000D03*
%TO.P,J7,15,15*%
%TO.N,/GPIO_4*%
X114100000Y-97400000D03*
%TO.P,J7,16,16*%
%TO.N,/GPIO_5*%
X114100000Y-93000000D03*
%TO.P,J7,17,17*%
%TO.N,/GPIO_6*%
X113300000Y-97400000D03*
%TO.P,J7,18,18*%
%TO.N,/GPIO_7*%
X113300000Y-93000000D03*
%TO.P,J7,19,19*%
%TO.N,/GPIO_8*%
X112500000Y-97400000D03*
%TO.P,J7,20,20*%
%TO.N,/GPIO_9*%
X112500000Y-93000000D03*
%TO.P,J7,21,21*%
%TO.N,/SR_10*%
X111700000Y-97400000D03*
%TO.P,J7,22,22*%
%TO.N,/SR_8*%
X111700000Y-93000000D03*
%TO.P,J7,23,23*%
%TO.N,/SR_11*%
X110900000Y-97400000D03*
%TO.P,J7,24,24*%
%TO.N,/SR_7*%
X110900000Y-93000000D03*
%TO.P,J7,25,25*%
%TO.N,/SR_12*%
X110100000Y-97400000D03*
%TO.P,J7,26,26*%
%TO.N,/SR_6*%
X110100000Y-93000000D03*
%TO.P,J7,27,27*%
%TO.N,/SR_13*%
X109300000Y-97400000D03*
%TO.P,J7,28,28*%
%TO.N,/SR_5*%
X109300000Y-93000000D03*
%TO.P,J7,29,29*%
%TO.N,/SR_14*%
X108500000Y-97400000D03*
%TO.P,J7,30,30*%
%TO.N,/SR_4*%
X108500000Y-93000000D03*
%TO.P,J7,31,31*%
%TO.N,/SR_1*%
X107700000Y-97400000D03*
%TO.P,J7,32,32*%
%TO.N,/SR_3*%
X107700000Y-93000000D03*
%TO.P,J7,33,33*%
%TO.N,/SR_9*%
X106900000Y-97400000D03*
%TO.P,J7,34,34*%
%TO.N,unconnected-(J7-Pad34)*%
X106900000Y-93000000D03*
%TO.P,J7,35,35*%
%TO.N,unconnected-(J7-Pad35)*%
X106100000Y-97400000D03*
%TO.P,J7,36,36*%
%TO.N,unconnected-(J7-Pad36)*%
X106100000Y-93000000D03*
%TO.P,J7,37,37*%
%TO.N,unconnected-(J7-Pad37)*%
X105300000Y-97400000D03*
%TO.P,J7,38,38*%
%TO.N,unconnected-(J7-Pad38)*%
X105300000Y-93000000D03*
%TO.P,J7,39,39*%
%TO.N,unconnected-(J7-Pad39)*%
X104500000Y-97400000D03*
%TO.P,J7,40,40*%
%TO.N,/SR_2*%
X104500000Y-93000000D03*
%TD*%
D12*
%TO.P,C1,1*%
%TO.N,GNDF*%
X133000000Y-70950000D03*
%TO.P,C1,2*%
%TO.N,+24VF*%
X133000000Y-68000000D03*
%TD*%
D14*
%TO.P,C7,1*%
%TO.N,+5VD*%
X164070000Y-83500000D03*
%TO.P,C7,2*%
%TO.N,GNDD*%
X164070000Y-86450000D03*
%TD*%
D15*
%TO.P,R7,1*%
%TO.N,Net-(IC6-VINB+)*%
X173070000Y-83537500D03*
%TO.P,R7,2*%
%TO.N,Net-(IC6-VINA-)*%
X173070000Y-86462500D03*
%TD*%
D16*
%TO.P,Q1,1*%
%TO.N,NOT AUS CAN Tram*%
X129050000Y-61405000D03*
%TO.P,Q1,2*%
%TO.N,Net-(IC3-VEE)*%
X130950000Y-61405000D03*
%TO.P,Q1,3*%
%TO.N,Net-(J2-Pad3)*%
X130000000Y-59005000D03*
%TD*%
D17*
%TO.P,IC7,1,Q1*%
%TO.N,/SR_2*%
X125505000Y-85825000D03*
D18*
%TO.P,IC7,2,Q2*%
%TO.N,/SR_3*%
X126825000Y-85825000D03*
%TO.P,IC7,3,Q3*%
%TO.N,/SR_4*%
X128095000Y-85825000D03*
%TO.P,IC7,4,Q4*%
%TO.N,/SR_5*%
X129365000Y-85825000D03*
%TO.P,IC7,5,Q5*%
%TO.N,/SR_6*%
X130635000Y-85825000D03*
%TO.P,IC7,6,Q6*%
%TO.N,/SR_7*%
X131905000Y-85825000D03*
%TO.P,IC7,7,Q7*%
%TO.N,/SR_8*%
X133175000Y-85825000D03*
D17*
%TO.P,IC7,8,GND*%
%TO.N,GNDD*%
X134495000Y-85825000D03*
%TO.P,IC7,9,Q7S*%
%TO.N,Net-(IC7-Q7S)*%
X134495000Y-80175000D03*
D18*
%TO.P,IC7,10,~{MR}*%
%TO.N,Net-(IC7-VCC)*%
X133175000Y-80175000D03*
%TO.P,IC7,11,SHCP*%
%TO.N,Net-(IC7-SHCP)*%
X131905000Y-80175000D03*
%TO.P,IC7,12,STCP*%
%TO.N,Net-(IC7-STCP)*%
X130635000Y-80175000D03*
%TO.P,IC7,13,~{OE}*%
%TO.N,Net-(IC7-~{OE})*%
X129365000Y-80175000D03*
%TO.P,IC7,14,DS*%
%TO.N,CS_SR*%
X128095000Y-80175000D03*
%TO.P,IC7,15,Q0*%
%TO.N,/SR_1*%
X126825000Y-80175000D03*
D17*
%TO.P,IC7,16,VCC*%
%TO.N,Net-(IC7-VCC)*%
X125505000Y-80175000D03*
%TD*%
D19*
%TO.P,R4,1*%
%TO.N,NOT AUS CAN Tram*%
X127000000Y-67500000D03*
%TO.P,R4,2*%
%TO.N,Net-(IC3-VEE)*%
X129925000Y-67500000D03*
%TD*%
%TO.P,R12,1*%
%TO.N,AI_Temp*%
X185075000Y-89500000D03*
%TO.P,R12,2*%
%TO.N,GNDD*%
X188000000Y-89500000D03*
%TD*%
D20*
%TO.P,IC3,1,A*%
%TO.N,Net-(IC3-A)*%
X169350000Y-56540000D03*
%TO.P,IC3,2,NC*%
%TO.N,unconnected-(IC3-NC-Pad2)*%
X169350000Y-55270000D03*
%TO.P,IC3,3,C*%
%TO.N,GNDD*%
X169350000Y-54000000D03*
%TO.P,IC3,4,VEE*%
%TO.N,Net-(IC3-VEE)*%
X158650000Y-54000000D03*
%TO.P,IC3,5,VO*%
%TO.N,Net-(IC3-VO)*%
X158650000Y-55270000D03*
%TO.P,IC3,6,VCC*%
%TO.N,+24VF*%
X158650000Y-56540000D03*
%TD*%
D21*
%TO.P,IC6,1,VOUTA*%
%TO.N,Net-(IC6-VINA-)*%
X166710000Y-87900000D03*
%TO.P,IC6,2,VINA-*%
X167980000Y-87900000D03*
%TO.P,IC6,3,VINA+*%
%TO.N,Net-(IC6-VINA+)*%
X169250000Y-87900000D03*
%TO.P,IC6,4,VSS*%
%TO.N,GNDD*%
X170520000Y-87900000D03*
%TO.P,IC6,5,VINB+*%
%TO.N,Net-(IC6-VINB+)*%
X170520000Y-82500000D03*
%TO.P,IC6,6,VINB-*%
%TO.N,Net-(IC6-VINB-)*%
X169250000Y-82500000D03*
%TO.P,IC6,7,VOUTB*%
%TO.N,Net-(IC3-A)*%
X167980000Y-82500000D03*
%TO.P,IC6,8,VDD*%
%TO.N,+5VD*%
X166710000Y-82500000D03*
%TD*%
D22*
%TO.P,D1,1*%
%TO.N,Net-(IC3-VO)*%
X141500000Y-60000000D03*
%TO.P,D1,2*%
%TO.N,NOT AUS CAN Tram*%
X138500000Y-60000000D03*
%TD*%
D17*
%TO.P,IC8,1,Q1*%
%TO.N,/SR_10*%
X113120000Y-85825000D03*
D18*
%TO.P,IC8,2,Q2*%
%TO.N,/SR_11*%
X114440000Y-85825000D03*
%TO.P,IC8,3,Q3*%
%TO.N,/SR_12*%
X115710000Y-85825000D03*
%TO.P,IC8,4,Q4*%
%TO.N,/SR_13*%
X116980000Y-85825000D03*
%TO.P,IC8,5,Q5*%
%TO.N,/SR_14*%
X118250000Y-85825000D03*
%TO.P,IC8,6,Q6*%
%TO.N,SR25*%
X119520000Y-85825000D03*
%TO.P,IC8,7,Q7*%
%TO.N,SR26*%
X120790000Y-85825000D03*
D17*
%TO.P,IC8,8,GND*%
%TO.N,GNDD*%
X122110000Y-85825000D03*
%TO.P,IC8,9,Q7S*%
%TO.N,unconnected-(IC8-Q7S-Pad9)*%
X122110000Y-80175000D03*
D18*
%TO.P,IC8,10,~{MR}*%
%TO.N,Net-(IC7-VCC)*%
X120790000Y-80175000D03*
%TO.P,IC8,11,SHCP*%
%TO.N,Net-(IC7-SHCP)*%
X119520000Y-80175000D03*
%TO.P,IC8,12,STCP*%
%TO.N,Net-(IC7-STCP)*%
X118250000Y-80175000D03*
%TO.P,IC8,13,~{OE}*%
%TO.N,Net-(IC7-~{OE})*%
X116980000Y-80175000D03*
%TO.P,IC8,14,DS*%
%TO.N,Net-(IC7-Q7S)*%
X115710000Y-80175000D03*
%TO.P,IC8,15,Q0*%
%TO.N,/SR_9*%
X114440000Y-80175000D03*
D17*
%TO.P,IC8,16,VCC*%
%TO.N,Net-(IC7-VCC)*%
X113120000Y-80175000D03*
%TD*%
D19*
%TO.P,R11,1*%
%TO.N,Net-(IC6-VINB-)*%
X179325000Y-89500000D03*
%TO.P,R11,2*%
%TO.N,AI_Temp*%
X182250000Y-89500000D03*
%TD*%
D15*
%TO.P,R3,1*%
%TO.N,Net-(LED3-Pad2)*%
X156000000Y-53500000D03*
%TO.P,R3,2*%
%TO.N,+24VF*%
X156000000Y-56425000D03*
%TD*%
D12*
%TO.P,C2,1*%
%TO.N,GNDF*%
X139000000Y-70950000D03*
%TO.P,C2,2*%
%TO.N,+24VF*%
X139000000Y-68000000D03*
%TD*%
D23*
%TO.P,R1,1*%
%TO.N,Net-(J2-Pad1)*%
X136000000Y-60000000D03*
%TO.P,R1,2*%
%TO.N,NOT AUS CAN Tram*%
X133075000Y-60000000D03*
%TD*%
D24*
%TO.P,R9,1*%
%TO.N,Net-(IC6-VINB+)*%
X176865000Y-86450000D03*
%TO.P,R9,2*%
%TO.N,Net-(IC3-A)*%
X176865000Y-83525000D03*
%TD*%
D25*
%TO.P,J3,1,1*%
%TO.N,Net-(D3-CATHODE_2)*%
X141250000Y-63805000D03*
D26*
%TO.P,J3,2,2*%
%TO.N,Net-(D3-CATHODE_1)*%
X144750000Y-63805000D03*
%TD*%
D27*
%TO.P,J1,1,1*%
%TO.N,Net-(D3-CATHODE_2)*%
X114515000Y-64000000D03*
D28*
%TO.P,J1,2,2*%
%TO.N,Net-(D3-CATHODE_1)*%
X113500000Y-65780000D03*
%TO.P,J1,3,3*%
%TO.N,Daten+*%
X112485000Y-64000000D03*
%TO.P,J1,4,4*%
%TO.N,+24VF*%
X111470000Y-65780000D03*
%TO.P,J1,5,5*%
%TO.N,GNDF*%
X110450000Y-64000000D03*
%TO.P,J1,6,6*%
%TO.N,Daten-*%
X109435000Y-65780000D03*
%TO.P,J1,7,7*%
%TO.N,NOT AUS CAN Tram*%
X108420000Y-64000000D03*
%TO.P,J1,8,8*%
%TO.N,Daten 0V*%
X107405000Y-65780000D03*
D29*
%TO.P,J1,MH1,MH1*%
%TO.N,unconnected-(J1-PadMH1)*%
X119060000Y-64890000D03*
%TO.P,J1,MH2,MH2*%
%TO.N,unconnected-(J1-PadMH2)*%
X102860000Y-64890000D03*
%TD*%
D30*
%TO.P,J4,1,Pin_1*%
%TO.N,+3V3D*%
X193040000Y-93980000D03*
D31*
%TO.P,J4,2,Pin_2*%
%TO.N,unconnected-(J4-Pin_2-Pad2)*%
X190500000Y-93980000D03*
%TO.P,J4,3,Pin_3*%
%TO.N,unconnected-(J4-Pin_3-Pad3)*%
X187960000Y-93980000D03*
%TO.P,J4,4,Pin_4*%
%TO.N,unconnected-(J4-Pin_4-Pad4)*%
X185420000Y-93980000D03*
%TO.P,J4,5,Pin_5*%
%TO.N,/INT*%
X182880000Y-93980000D03*
%TO.P,J4,6,Pin_6*%
%TO.N,AI_Temp*%
X180340000Y-93980000D03*
%TO.P,J4,7,Pin_7*%
%TO.N,CAN_TX*%
X177800000Y-93980000D03*
%TO.P,J4,8,Pin_8*%
%TO.N,CAN_RX*%
X175260000Y-93980000D03*
%TO.P,J4,9,Pin_9*%
%TO.N,/GPIO_4*%
X172720000Y-93980000D03*
%TO.P,J4,10,Pin_10*%
%TO.N,/GPIO_2*%
X170180000Y-93980000D03*
%TO.P,J4,11,Pin_11*%
%TO.N,/GPIO_9*%
X167640000Y-93980000D03*
%TO.P,J4,12,Pin_12*%
%TO.N,/GPIO_8*%
X165100000Y-93980000D03*
%TO.P,J4,13,Pin_13*%
%TO.N,unconnected-(J4-Pin_13-Pad13)*%
X162560000Y-93980000D03*
%TO.P,J4,14,Pin_14*%
%TO.N,GNDD*%
X160020000Y-93980000D03*
%TO.P,J4,15,Pin_15*%
%TO.N,/GPIO_6*%
X157480000Y-93980000D03*
%TO.P,J4,16,Pin_16*%
%TO.N,unconnected-(J4-Pin_16-Pad16)*%
X154940000Y-93980000D03*
%TO.P,J4,17,Pin_17*%
%TO.N,unconnected-(J4-Pin_17-Pad17)*%
X152400000Y-93980000D03*
%TO.P,J4,18,Pin_18*%
%TO.N,unconnected-(J4-Pin_18-Pad18)*%
X149860000Y-93980000D03*
%TO.P,J4,19,Pin_19*%
%TO.N,+5VD*%
X147320000Y-93980000D03*
%TD*%
D32*
%TO.P,J6,1,1*%
%TO.N,Daten-*%
X130000000Y-70000000D03*
%TO.P,J6,2,2*%
%TO.N,Daten+*%
X127500000Y-70000000D03*
%TO.P,J6,3,3*%
%TO.N,Daten 0V*%
X125000000Y-70000000D03*
%TD*%
D30*
%TO.P,J5,1,Pin_1*%
%TO.N,unconnected-(J5-Pin_1-Pad1)*%
X147320000Y-68580000D03*
D31*
%TO.P,J5,2,Pin_2*%
%TO.N,unconnected-(J5-Pin_2-Pad2)*%
X149860000Y-68580000D03*
%TO.P,J5,3,Pin_3*%
%TO.N,unconnected-(J5-Pin_3-Pad3)*%
X152400000Y-68580000D03*
%TO.P,J5,4,Pin_4*%
%TO.N,CS_SR*%
X154940000Y-68580000D03*
%TO.P,J5,5,Pin_5*%
%TO.N,/GPIO_7*%
X157480000Y-68580000D03*
%TO.P,J5,6,Pin_6*%
%TO.N,/GPIO_5*%
X160020000Y-68580000D03*
%TO.P,J5,7,Pin_7*%
%TO.N,/GPIO_3*%
X162560000Y-68580000D03*
%TO.P,J5,8,Pin_8*%
%TO.N,/UART_TX*%
X165100000Y-68580000D03*
%TO.P,J5,9,Pin_9*%
%TO.N,/UART_RX*%
X167640000Y-68580000D03*
%TO.P,J5,10,Pin_10*%
%TO.N,/GPIO_1*%
X170180000Y-68580000D03*
%TO.P,J5,11,Pin_11*%
%TO.N,/SPI_SCK*%
X172720000Y-68580000D03*
%TO.P,J5,12,Pin_12*%
%TO.N,/SPI_CIPO*%
X175260000Y-68580000D03*
%TO.P,J5,13,Pin_13*%
%TO.N,GNDD*%
X177800000Y-68580000D03*
%TO.P,J5,14,Pin_14*%
%TO.N,/I2C_SDA*%
X180340000Y-68580000D03*
%TO.P,J5,15,Pin_15*%
%TO.N,unconnected-(J5-Pin_15-Pad15)*%
X182880000Y-68580000D03*
%TO.P,J5,16,Pin_16*%
%TO.N,unconnected-(J5-Pin_16-Pad16)*%
X185420000Y-68580000D03*
%TO.P,J5,17,Pin_17*%
%TO.N,/I2C_SCL*%
X187960000Y-68580000D03*
%TO.P,J5,18,Pin_18*%
%TO.N,/SPI_COPI*%
X190500000Y-68580000D03*
%TO.P,J5,19,Pin_19*%
%TO.N,GNDD*%
X193040000Y-68580000D03*
%TD*%
D33*
%TO.P,IC9,1,V+*%
%TO.N,+5VD*%
X161150000Y-83725000D03*
D34*
%TO.P,IC9,2,VO*%
%TO.N,Net-(IC6-VINB-)*%
X159750000Y-85000000D03*
%TO.P,IC9,3,GND*%
%TO.N,GNDD*%
X161150000Y-86275000D03*
%TD*%
D35*
%TO.P,IC2,1,VOUT*%
%TO.N,+5VF*%
X136000000Y-70540000D03*
D36*
%TO.P,IC2,2,GND*%
%TO.N,GNDF*%
X137270000Y-69270000D03*
%TO.P,IC2,3,VIN*%
%TO.N,+24VF*%
X136000000Y-68000000D03*
%TD*%
D25*
%TO.P,J2,1,1*%
%TO.N,Net-(J2-Pad1)*%
X135450000Y-63805000D03*
D26*
%TO.P,J2,2,2*%
%TO.N,Net-(IC3-VEE)*%
X131950000Y-63805000D03*
%TO.P,J2,3,3*%
%TO.N,Net-(J2-Pad3)*%
X128450000Y-63805000D03*
%TO.P,J2,4,4*%
%TO.N,unconnected-(J2-Pad4)*%
X124950000Y-63805000D03*
%TD*%
D37*
%TO.N,GNDF*%
X116000000Y-73750000D03*
D38*
X149250000Y-58500000D03*
X101500000Y-74500000D03*
%TO.N,GNDD*%
X108000000Y-84500000D03*
X177750000Y-59500000D03*
X176000000Y-46750000D03*
X187500000Y-77250000D03*
X164250000Y-77250000D03*
D37*
X124750000Y-91500000D03*
D38*
X176000000Y-48000000D03*
X176000000Y-45500000D03*
X180250000Y-59500000D03*
D37*
X118874656Y-96155858D03*
D38*
X138250000Y-94500000D03*
X179000000Y-59500000D03*
X152500000Y-72750000D03*
X192500000Y-83750000D03*
X176250000Y-77250000D03*
D37*
%TO.N,+3V3D*%
X147500000Y-76250000D03*
X142504514Y-91603638D03*
X144679076Y-89429076D03*
D38*
%TO.N,+5VD*%
X182000000Y-62250000D03*
D37*
X191000000Y-53250000D03*
%TO.N,NOT AUS CAN Tram*%
X121000000Y-60750000D03*
%TO.N,Net-(IC3-VO)*%
X153750000Y-50299000D03*
%TO.N,Net-(D3-CATHODE_2)*%
X115250000Y-68000000D03*
%TO.N,CAN_TX*%
X177682624Y-89965968D03*
X147500000Y-78750000D03*
%TO.N,CAN_RX*%
X147500000Y-77500000D03*
X175250000Y-90500000D03*
%TO.N,Net-(IC6-VINA+)*%
X148000000Y-87000000D03*
X187750000Y-64750000D03*
%TO.N,/SR_14*%
X108750000Y-99000000D03*
X103250000Y-89000000D03*
%TO.N,Net-(IC7-VCC)*%
X109250000Y-83500000D03*
X119000000Y-83000000D03*
%TO.N,SR25*%
X183500000Y-54250000D03*
%TO.N,SR26*%
X189000000Y-54250000D03*
%TO.N,/GPIO_9*%
X112500000Y-94750000D03*
%TO.N,/GPIO_7*%
X113250000Y-91250000D03*
%TO.N,AI_Temp*%
X183750000Y-89500000D03*
%TO.N,/INT*%
X117476633Y-95505219D03*
X164500000Y-96000000D03*
%TO.N,/GPIO_5*%
X114250000Y-91250000D03*
%TO.N,/GPIO_2*%
X114458104Y-95768766D03*
%TO.N,/SPI_COPI*%
X119000000Y-90750000D03*
%TO.N,/I2C_SCL*%
X125750000Y-93250000D03*
%TO.N,/UART_RX*%
X115500000Y-94750000D03*
X167640001Y-72000000D03*
%TO.N,/SPI_CIPO*%
X126750000Y-93250000D03*
%TO.N,/GPIO_4*%
X112500000Y-95750000D03*
%TO.N,/I2C_SDA*%
X117405331Y-90905331D03*
%TO.N,/GPIO_1*%
X116250006Y-91250000D03*
%TO.N,/UART_TX*%
X165000000Y-72500000D03*
X124750000Y-93250000D03*
%TO.N,/GPIO_3*%
X115250003Y-91250000D03*
%TO.N,/SPI_SCK*%
X118112440Y-91612440D03*
X172750000Y-71500000D03*
%TO.N,Net-(LED3-Pad2)*%
X154729139Y-50502205D03*
%TO.N,/SR_1*%
X102250005Y-89003953D03*
X107750000Y-99000000D03*
%TO.N,/SR_9*%
X101250016Y-88998682D03*
X106500000Y-99000000D03*
%TD*%
D39*
%TO.N,+24VF*%
X128500000Y-73500000D02*
X128500000Y-73476708D01*
X136000000Y-68000000D02*
X139000000Y-68000000D01*
X133000000Y-68976708D02*
X133000000Y-68000000D01*
X128500000Y-73476708D02*
X133000000Y-68976708D01*
X119190000Y-73500000D02*
X128500000Y-73500000D01*
X156000000Y-56425000D02*
X154325000Y-56425000D01*
X154325000Y-56425000D02*
X142750000Y-68000000D01*
X158535000Y-56425000D02*
X158650000Y-56540000D01*
X142750000Y-68000000D02*
X139000000Y-68000000D01*
X111470000Y-65780000D02*
X119190000Y-73500000D01*
X156000000Y-56425000D02*
X158535000Y-56425000D01*
X133000000Y-68000000D02*
X136000000Y-68000000D01*
%TO.N,GNDF*%
X107933713Y-62826000D02*
X101500000Y-69259713D01*
X101500000Y-69259713D02*
X101500000Y-74500000D01*
X110450000Y-64000000D02*
X109276000Y-62826000D01*
X148750000Y-58000000D02*
X149250000Y-58500000D01*
D40*
X134680000Y-69270000D02*
X133000000Y-70950000D01*
X137270000Y-69270000D02*
X137320000Y-69270000D01*
X137270000Y-69270000D02*
X134680000Y-69270000D01*
D39*
X109276000Y-62826000D02*
X107933713Y-62826000D01*
X116450000Y-58000000D02*
X148750000Y-58000000D01*
D40*
X102250000Y-73750000D02*
X101500000Y-74500000D01*
D39*
X110450000Y-64000000D02*
X116450000Y-58000000D01*
D40*
X137320000Y-69270000D02*
X139000000Y-70950000D01*
X116000000Y-73750000D02*
X102250000Y-73750000D01*
%TO.N,GNDD*%
X160975000Y-86450000D02*
X161150000Y-86275000D01*
D39*
X147125000Y-87362437D02*
X147125000Y-86637563D01*
X150710828Y-89774000D02*
X148811828Y-87875000D01*
X170520000Y-89150000D02*
X169896000Y-89774000D01*
X170520000Y-87900000D02*
X170520000Y-89150000D01*
D40*
X163895000Y-86275000D02*
X164070000Y-86450000D01*
X134495000Y-85825000D02*
X134495000Y-87005000D01*
D39*
X148811828Y-87875000D02*
X147637563Y-87875000D01*
D40*
X130000000Y-91500000D02*
X124750000Y-91500000D01*
D39*
X155925000Y-85875000D02*
X156500000Y-86450000D01*
D40*
X123876000Y-84624000D02*
X133769000Y-84624000D01*
D41*
X118900000Y-97400000D02*
X118874656Y-97374656D01*
D40*
X134495000Y-85350000D02*
X134495000Y-85825000D01*
D39*
X169896000Y-89774000D02*
X150710828Y-89774000D01*
D40*
X156500000Y-86450000D02*
X160975000Y-86450000D01*
X134495000Y-87005000D02*
X130000000Y-91500000D01*
X122110000Y-85825000D02*
X122675000Y-85825000D01*
X122675000Y-85825000D02*
X123876000Y-84624000D01*
X133769000Y-84624000D02*
X134495000Y-85350000D01*
D39*
X147637563Y-87875000D02*
X147125000Y-87362437D01*
X147125000Y-86637563D02*
X147887563Y-85875000D01*
D41*
X118874656Y-97374656D02*
X118874656Y-96155858D01*
D39*
X147887563Y-85875000D02*
X155925000Y-85875000D01*
D40*
X161150000Y-86275000D02*
X163895000Y-86275000D01*
%TO.N,+3V3D*%
X147790364Y-79451000D02*
X148201000Y-79040364D01*
D41*
X142504514Y-91357564D02*
X137396950Y-86250000D01*
X143125876Y-92225000D02*
X191285000Y-92225000D01*
D40*
X147209636Y-79451000D02*
X147790364Y-79451000D01*
X138373000Y-80127000D02*
X138373000Y-83623000D01*
D41*
X142504514Y-91603638D02*
X143125876Y-92225000D01*
X142504514Y-91603638D02*
X142504514Y-91357564D01*
D40*
X146258636Y-78500000D02*
X147209636Y-79451000D01*
X148201000Y-76951000D02*
X147500000Y-76250000D01*
X148201000Y-79040364D02*
X148201000Y-76951000D01*
X140000000Y-78500000D02*
X138373000Y-80127000D01*
D41*
X120350000Y-93000000D02*
X119700000Y-93000000D01*
X191285000Y-92225000D02*
X193040000Y-93980000D01*
D40*
X138373000Y-83623000D02*
X144179076Y-89429076D01*
D41*
X137396950Y-86250000D02*
X136250000Y-86250000D01*
X136250000Y-86250000D02*
X130175000Y-92325000D01*
X130175000Y-92325000D02*
X121025000Y-92325000D01*
D40*
X140000000Y-78500000D02*
X146258636Y-78500000D01*
D41*
X121025000Y-92325000D02*
X120350000Y-93000000D01*
D40*
X144179076Y-89429076D02*
X144679076Y-89429076D01*
D39*
%TO.N,+5VD*%
X187030000Y-67280000D02*
X182000000Y-62250000D01*
X165710000Y-83500000D02*
X166710000Y-82500000D01*
X120525000Y-98225000D02*
X144025000Y-98225000D01*
X166710000Y-82500000D02*
X166710000Y-81250000D01*
X167111000Y-80849000D02*
X173099000Y-80849000D01*
X194341000Y-75159000D02*
X194341000Y-68042523D01*
X187250000Y-82250000D02*
X194341000Y-75159000D01*
X156500000Y-83500000D02*
X160925000Y-83500000D01*
X161150000Y-83725000D02*
X163845000Y-83725000D01*
D40*
X193500000Y-50000000D02*
X191000000Y-52500000D01*
D39*
X166710000Y-81250000D02*
X167111000Y-80849000D01*
X119700000Y-97400000D02*
X120525000Y-98225000D01*
X144025000Y-98225000D02*
X147320000Y-94930000D01*
X173099000Y-80849000D02*
X174500000Y-82250000D01*
X194341000Y-68042523D02*
X193578477Y-67280000D01*
X164070000Y-83500000D02*
X165710000Y-83500000D01*
X147320000Y-94930000D02*
X147320000Y-93980000D01*
X163845000Y-83725000D02*
X164070000Y-83500000D01*
X174500000Y-82250000D02*
X187250000Y-82250000D01*
D40*
X191000000Y-52500000D02*
X191000000Y-53250000D01*
D39*
X160925000Y-83500000D02*
X161150000Y-83725000D01*
X193578477Y-67280000D02*
X187030000Y-67280000D01*
D41*
%TO.N,NOT AUS CAN Tram*%
X137224000Y-58724000D02*
X134351000Y-58724000D01*
D40*
X125750000Y-67500000D02*
X127000000Y-67500000D01*
X121000000Y-60750000D02*
X121000000Y-62750000D01*
D41*
X138500000Y-60000000D02*
X137224000Y-58724000D01*
D39*
X130000000Y-62355000D02*
X130000000Y-64500000D01*
D40*
X133075000Y-60000000D02*
X130455000Y-60000000D01*
D41*
X134351000Y-58724000D02*
X133075000Y-60000000D01*
D40*
X121000000Y-62750000D02*
X125750000Y-67500000D01*
D39*
X129050000Y-61405000D02*
X130000000Y-62355000D01*
X130000000Y-64500000D02*
X127000000Y-67500000D01*
D40*
X130455000Y-60000000D02*
X129050000Y-61405000D01*
%TO.N,Net-(IC3-VO)*%
X154666828Y-55270000D02*
X153549997Y-54153169D01*
X153549997Y-50499003D02*
X153750000Y-50299000D01*
X149936828Y-60000000D02*
X141500000Y-60000000D01*
X158650000Y-55270000D02*
X154666828Y-55270000D01*
X154666828Y-55270000D02*
X149936828Y-60000000D01*
X153549997Y-54153169D02*
X153549997Y-50499003D01*
%TO.N,Net-(D3-CATHODE_2)*%
X114515000Y-64000000D02*
X115250000Y-64735000D01*
X115250000Y-64735000D02*
X115250000Y-68000000D01*
%TO.N,Net-(IC3-A)*%
X172674000Y-81424000D02*
X173899000Y-82649000D01*
X183017208Y-56540000D02*
X169350000Y-56540000D01*
X194916000Y-67802935D02*
X193817064Y-66704000D01*
X174271000Y-82979486D02*
X174271000Y-83021000D01*
X167980000Y-82500000D02*
X167980000Y-82043000D01*
X167980000Y-82043000D02*
X168599000Y-81424000D01*
X174775000Y-83525000D02*
X176865000Y-83525000D01*
X173899000Y-82649000D02*
X173940514Y-82649000D01*
X186100000Y-59622792D02*
X183017208Y-56540000D01*
X187370547Y-66704000D02*
X186100000Y-65433453D01*
X168599000Y-81424000D02*
X172674000Y-81424000D01*
X176865000Y-83525000D02*
X177390000Y-83000000D01*
X187500000Y-83000000D02*
X194916000Y-75584000D01*
X186100000Y-65433453D02*
X186100000Y-59622792D01*
X193817064Y-66704000D02*
X187370547Y-66704000D01*
X194916000Y-75584000D02*
X194916000Y-67802935D01*
X173940514Y-82649000D02*
X174271000Y-82979486D01*
X177390000Y-83000000D02*
X187500000Y-83000000D01*
X174271000Y-83021000D02*
X174775000Y-83525000D01*
%TO.N,Net-(IC3-VEE)*%
X136788500Y-65143500D02*
X133288500Y-65143500D01*
X153000000Y-55918141D02*
X149418141Y-59500000D01*
X142501000Y-58624000D02*
X140626000Y-58624000D01*
X154790364Y-49549000D02*
X153259633Y-49549000D01*
X158650000Y-53408636D02*
X154790364Y-49549000D01*
X153259633Y-49549000D02*
X153000000Y-49808633D01*
D39*
X131950000Y-65050000D02*
X131950000Y-63805000D01*
D40*
X149418141Y-59500000D02*
X143377000Y-59500000D01*
D39*
X129925000Y-67500000D02*
X129925000Y-66325000D01*
D40*
X153000000Y-49808633D02*
X153000000Y-55918141D01*
D39*
X129925000Y-66325000D02*
X130750000Y-65500000D01*
X130950000Y-62805000D02*
X131950000Y-63805000D01*
X131500000Y-65500000D02*
X131950000Y-65050000D01*
D40*
X140000000Y-59250000D02*
X140000000Y-61932000D01*
X158650000Y-54000000D02*
X158650000Y-53408636D01*
X140000000Y-61932000D02*
X136788500Y-65143500D01*
D39*
X130950000Y-61405000D02*
X130950000Y-62805000D01*
D40*
X133288500Y-65143500D02*
X131950000Y-63805000D01*
X140626000Y-58624000D02*
X140000000Y-59250000D01*
X143377000Y-59500000D02*
X142501000Y-58624000D01*
D39*
X130750000Y-65500000D02*
X131500000Y-65500000D01*
D40*
%TO.N,CAN_TX*%
X175000000Y-89750000D02*
X177466656Y-89750000D01*
X144349000Y-90349000D02*
X174401000Y-90349000D01*
X177466656Y-89750000D02*
X177682624Y-89965968D01*
X137922000Y-83922000D02*
X144349000Y-90349000D01*
X174401000Y-90349000D02*
X175000000Y-89750000D01*
X146750000Y-78000000D02*
X139750000Y-78000000D01*
X137922000Y-79828000D02*
X137922000Y-83922000D01*
X139750000Y-78000000D02*
X137922000Y-79828000D01*
X147500000Y-78750000D02*
X146750000Y-78000000D01*
%TO.N,CAN_RX*%
X147500000Y-77500000D02*
X139500000Y-77500000D01*
X137472000Y-79528000D02*
X137472000Y-84222000D01*
X137472000Y-84222000D02*
X144049000Y-90799000D01*
X139500000Y-77500000D02*
X137472000Y-79528000D01*
X144049000Y-90799000D02*
X174951000Y-90799000D01*
X174951000Y-90799000D02*
X175250000Y-90500000D01*
%TO.N,Net-(IC6-VINA-)*%
X167980000Y-86900000D02*
X167980000Y-87900000D01*
X167980000Y-87900000D02*
X166710000Y-87900000D01*
X168417500Y-86462500D02*
X167980000Y-86900000D01*
X173070000Y-86462500D02*
X168417500Y-86462500D01*
%TO.N,Net-(IC6-VINB-)*%
X165250000Y-85000000D02*
X166674000Y-83576000D01*
X169250000Y-82500000D02*
X169250000Y-82957000D01*
X169250000Y-83076000D02*
X169250000Y-82500000D01*
X159750000Y-85000000D02*
X165250000Y-85000000D01*
X168750000Y-83576000D02*
X169250000Y-83076000D01*
X166674000Y-83576000D02*
X168750000Y-83576000D01*
X173905986Y-85250000D02*
X177905986Y-89250000D01*
X177905986Y-89250000D02*
X179075000Y-89250000D01*
X179075000Y-89250000D02*
X179325000Y-89500000D01*
X169250000Y-82957000D02*
X171543000Y-85250000D01*
X171543000Y-85250000D02*
X173905986Y-85250000D01*
%TO.N,Net-(IC6-VINB+)*%
X173032500Y-83575000D02*
X171595000Y-83575000D01*
X173070000Y-83537500D02*
X173032500Y-83575000D01*
X171595000Y-83575000D02*
X170520000Y-82500000D01*
X173990000Y-83575000D02*
X176865000Y-86450000D01*
X173107500Y-83575000D02*
X173990000Y-83575000D01*
X173070000Y-83537500D02*
X173107500Y-83575000D01*
%TO.N,Net-(IC6-VINA+)*%
X194000000Y-54250000D02*
X190000000Y-54250000D01*
X190000000Y-54250000D02*
X187750000Y-56500000D01*
X150750000Y-89000000D02*
X149050000Y-87300000D01*
X168575000Y-89000000D02*
X150750000Y-89000000D01*
X148300000Y-87300000D02*
X148000000Y-87000000D01*
X169250000Y-88325000D02*
X168575000Y-89000000D01*
X149050000Y-87300000D02*
X148300000Y-87300000D01*
X196750000Y-51000000D02*
X196750000Y-51500000D01*
X196750000Y-51500000D02*
X194000000Y-54250000D01*
X187750000Y-56500000D02*
X187750000Y-64750000D01*
X169250000Y-87900000D02*
X169250000Y-88325000D01*
%TO.N,/SR_12*%
X106646584Y-89899000D02*
X112696584Y-83849000D01*
X112696584Y-83849000D02*
X114259000Y-83849000D01*
X103000000Y-94863604D02*
X103000000Y-91322380D01*
X110100000Y-97400000D02*
X110100000Y-96125000D01*
X109276000Y-95301000D02*
X103435982Y-95301000D01*
X103021000Y-94886018D02*
X103021000Y-94884604D01*
X103435982Y-95301000D02*
X103021000Y-94886018D01*
X110100000Y-96125000D02*
X109276000Y-95301000D01*
X103021000Y-94884604D02*
X103000000Y-94863604D01*
X104423380Y-89899000D02*
X106646584Y-89899000D01*
X103000000Y-91322380D02*
X104423380Y-89899000D01*
X114259000Y-83849000D02*
X115710000Y-85300000D01*
X115710000Y-85300000D02*
X115710000Y-85825000D01*
%TO.N,Net-(IC7-~{OE})*%
X131391000Y-82726000D02*
X129365000Y-80700000D01*
X116980000Y-79020000D02*
X118379000Y-77621000D01*
X116980000Y-80175000D02*
X116980000Y-79020000D01*
X134880188Y-76724000D02*
X136571000Y-78414812D01*
X118379000Y-77621000D02*
X123629000Y-77621000D01*
X129365000Y-80700000D02*
X129365000Y-80175000D01*
X124526000Y-76724000D02*
X134880188Y-76724000D01*
X136571000Y-81935188D02*
X135780188Y-82726000D01*
X135780188Y-82726000D02*
X131391000Y-82726000D01*
X123629000Y-77621000D02*
X124526000Y-76724000D01*
X136571000Y-78414812D02*
X136571000Y-81935188D01*
%TO.N,CS_SR*%
X137022000Y-79228000D02*
X146000000Y-70250000D01*
X128095000Y-80700000D02*
X130572000Y-83177000D01*
X146200000Y-70050000D02*
X153470000Y-70050000D01*
X146000000Y-70250000D02*
X146200000Y-70050000D01*
X130572000Y-83177000D02*
X135966998Y-83177000D01*
X128095000Y-80175000D02*
X128095000Y-80700000D01*
X135966998Y-83177000D02*
X137022000Y-82121998D01*
X153470000Y-70050000D02*
X154940000Y-68580000D01*
X137022000Y-82121998D02*
X137022000Y-79228000D01*
%TO.N,/SR_11*%
X109599000Y-94849000D02*
X103623206Y-94849000D01*
X103473000Y-94514225D02*
X103472000Y-94513225D01*
X106832980Y-90349000D02*
X112882980Y-84299000D01*
X112882980Y-84299000D02*
X113439000Y-84299000D01*
X103473000Y-94698794D02*
X103473000Y-94514225D01*
X114440000Y-85300000D02*
X114440000Y-85825000D01*
X103623206Y-94849000D02*
X103473000Y-94698794D01*
X103472000Y-91486776D02*
X104609776Y-90349000D01*
X104609776Y-90349000D02*
X106832980Y-90349000D01*
X113439000Y-84299000D02*
X114440000Y-85300000D01*
X103472000Y-94513225D02*
X103472000Y-91486776D01*
X110900000Y-96150000D02*
X109599000Y-94849000D01*
X110900000Y-97400000D02*
X110900000Y-96150000D01*
%TO.N,/SR_13*%
X101024000Y-96024000D02*
X101024000Y-92664812D01*
X101830272Y-96750000D02*
X101750000Y-96750000D01*
X103245758Y-95750000D02*
X102830272Y-95750000D01*
X116980000Y-85300000D02*
X116980000Y-85825000D01*
X115079000Y-83399000D02*
X116980000Y-85300000D01*
X106460188Y-89449000D02*
X112510188Y-83399000D01*
X109300000Y-96049000D02*
X109004000Y-95753000D01*
X102548000Y-91137984D02*
X104236984Y-89449000D01*
X109004000Y-95753000D02*
X103248758Y-95753000D01*
X101024000Y-92664812D02*
X102548000Y-91140812D01*
X101750000Y-96750000D02*
X101024000Y-96024000D01*
X104236984Y-89449000D02*
X106460188Y-89449000D01*
X103248758Y-95753000D02*
X103245758Y-95750000D01*
X112510188Y-83399000D02*
X115079000Y-83399000D01*
X102548000Y-91140812D02*
X102548000Y-91137984D01*
X109300000Y-97400000D02*
X109300000Y-96049000D01*
X102830272Y-95750000D02*
X101830272Y-96750000D01*
%TO.N,/SR_14*%
X115898000Y-82948000D02*
X112324792Y-82948000D01*
X118250000Y-85300000D02*
X115898000Y-82948000D01*
X108750000Y-99000000D02*
X108575177Y-99000000D01*
X106273792Y-88999000D02*
X103251000Y-88999000D01*
X118250000Y-85825000D02*
X118250000Y-85300000D01*
X118250000Y-85825000D02*
X118250000Y-85218000D01*
X108575177Y-99000000D02*
X108500000Y-98924823D01*
X108500000Y-98924823D02*
X108500000Y-97400000D01*
X103251000Y-88999000D02*
X103250000Y-89000000D01*
X112324792Y-82948000D02*
X106273792Y-88999000D01*
%TO.N,Net-(IC7-VCC)*%
X135221000Y-78974000D02*
X135221000Y-81376000D01*
X120790000Y-80175000D02*
X120790000Y-79210000D01*
X120496208Y-82600000D02*
X120096208Y-83000000D01*
X112575000Y-80175000D02*
X113120000Y-80175000D01*
X135221000Y-81376000D02*
X133376000Y-81376000D01*
X124185188Y-78974000D02*
X125085188Y-78074000D01*
X125505000Y-80175000D02*
X123080000Y-82600000D01*
X125085188Y-78074000D02*
X134321000Y-78074000D01*
X125776000Y-78974000D02*
X125505000Y-79245000D01*
X123080000Y-82600000D02*
X120496208Y-82600000D01*
X125505000Y-79245000D02*
X125505000Y-80175000D01*
X109250000Y-83500000D02*
X112575000Y-80175000D01*
X120096208Y-83000000D02*
X119000000Y-83000000D01*
X134321000Y-78074000D02*
X135221000Y-78974000D01*
X121026000Y-78974000D02*
X124185188Y-78974000D01*
X120790000Y-79210000D02*
X121026000Y-78974000D01*
X133175000Y-80175000D02*
X133175000Y-79175000D01*
X133175000Y-81175000D02*
X133175000Y-80175000D01*
X133175000Y-79175000D02*
X132974000Y-78974000D01*
X133376000Y-81376000D02*
X133175000Y-81175000D01*
X132974000Y-78974000D02*
X125776000Y-78974000D01*
%TO.N,Net-(IC7-STCP)*%
X132211000Y-82276000D02*
X130635000Y-80700000D01*
X119178000Y-78072000D02*
X123814396Y-78072000D01*
X136121000Y-78601208D02*
X136121000Y-81748792D01*
X118250000Y-79000000D02*
X119178000Y-78072000D01*
X136121000Y-81748792D02*
X135593792Y-82276000D01*
X123814396Y-78072000D02*
X124712396Y-77174000D01*
X135593792Y-82276000D02*
X132211000Y-82276000D01*
X118250000Y-80175000D02*
X118250000Y-79000000D01*
X134693792Y-77174000D02*
X136121000Y-78601208D01*
X124712396Y-77174000D02*
X134693792Y-77174000D01*
X130635000Y-80700000D02*
X130635000Y-80175000D01*
%TO.N,Net-(IC7-SHCP)*%
X119520000Y-80175000D02*
X119520000Y-79568000D01*
X135407396Y-81826000D02*
X133031000Y-81826000D01*
X131905000Y-80700000D02*
X131905000Y-80175000D01*
X123999792Y-78523000D02*
X124898792Y-77624000D01*
X135671000Y-78787604D02*
X135671000Y-81562396D01*
X134507396Y-77624000D02*
X135671000Y-78787604D01*
X119520000Y-79650000D02*
X120647000Y-78523000D01*
X119520000Y-80175000D02*
X119520000Y-79650000D01*
X124898792Y-77624000D02*
X134507396Y-77624000D01*
X133031000Y-81826000D02*
X131905000Y-80700000D01*
X120647000Y-78523000D02*
X123999792Y-78523000D01*
X135671000Y-81562396D02*
X135407396Y-81826000D01*
%TO.N,Net-(IC7-Q7S)*%
X133319000Y-78524000D02*
X134495000Y-79700000D01*
X116760000Y-81750000D02*
X122500000Y-81750000D01*
X125271584Y-78524000D02*
X133319000Y-78524000D01*
X134495000Y-79700000D02*
X134495000Y-80175000D01*
X123750000Y-80045584D02*
X125271584Y-78524000D01*
X115710000Y-80175000D02*
X115710000Y-80700000D01*
X122500000Y-81750000D02*
X123750000Y-80500000D01*
X123750000Y-80500000D02*
X123750000Y-80045584D01*
X115710000Y-80700000D02*
X116760000Y-81750000D01*
%TO.N,SR25*%
X119520000Y-85300000D02*
X121097000Y-83723000D01*
X121097000Y-83723000D02*
X136248808Y-83723000D01*
X194003460Y-66254000D02*
X187556943Y-66254000D01*
X183500000Y-56250000D02*
X183500000Y-54250000D01*
X190001000Y-91249000D02*
X195366000Y-85884000D01*
X143776222Y-91249000D02*
X190001000Y-91249000D01*
X187556943Y-66254000D02*
X186550000Y-65247057D01*
X137801222Y-85274000D02*
X143776222Y-91249000D01*
X186550000Y-65247057D02*
X186550000Y-59300000D01*
X186550000Y-59300000D02*
X183500000Y-56250000D01*
X195366000Y-67616539D02*
X194003460Y-66254000D01*
X119520000Y-85825000D02*
X119520000Y-85300000D01*
X195366000Y-85884000D02*
X195366000Y-67616539D01*
X136248808Y-83723000D02*
X137799808Y-85274000D01*
X137799808Y-85274000D02*
X137801222Y-85274000D01*
%TO.N,SR26*%
X195816000Y-86070396D02*
X195816000Y-67430143D01*
X194189856Y-65804000D02*
X187743339Y-65804000D01*
X187743339Y-65804000D02*
X187000000Y-65060661D01*
X137614826Y-85724000D02*
X143589826Y-91699000D01*
X137613412Y-85724000D02*
X137614826Y-85724000D01*
X187000000Y-65060661D02*
X187000000Y-56250000D01*
X190187396Y-91699000D02*
X195816000Y-86070396D01*
X143589826Y-91699000D02*
X190187396Y-91699000D01*
X121917000Y-84173000D02*
X136062412Y-84173000D01*
X195816000Y-67430143D02*
X194189856Y-65804000D01*
X187000000Y-56250000D02*
X189000000Y-54250000D01*
X136062412Y-84173000D02*
X137613412Y-85724000D01*
X120790000Y-85825000D02*
X120790000Y-85300000D01*
X120790000Y-85300000D02*
X121917000Y-84173000D01*
D39*
%TO.N,Net-(J2-Pad3)*%
X129995000Y-59000000D02*
X129250000Y-59000000D01*
X129250000Y-59000000D02*
X127437500Y-60812500D01*
X130000000Y-59005000D02*
X129995000Y-59000000D01*
X127437500Y-60812500D02*
X127437500Y-62792500D01*
X127437500Y-62792500D02*
X128450000Y-63805000D01*
D40*
%TO.N,Net-(J2-Pad1)*%
X135450000Y-63805000D02*
X135450000Y-62300000D01*
X136000000Y-61750000D02*
X136000000Y-60000000D01*
X135450000Y-62300000D02*
X136000000Y-61750000D01*
%TO.N,/GPIO_9*%
X112500000Y-93000000D02*
X112500000Y-94750000D01*
%TO.N,/GPIO_7*%
X113300000Y-93000000D02*
X113300000Y-91300000D01*
X113300000Y-91300000D02*
X113250000Y-91250000D01*
%TO.N,/GPIO_6*%
X144263172Y-98800000D02*
X147907172Y-95156000D01*
X113300000Y-98650000D02*
X113300000Y-97400000D01*
X113450000Y-98800000D02*
X144263172Y-98800000D01*
X157270000Y-93980000D02*
X157480000Y-93980000D01*
X156094000Y-95156000D02*
X157270000Y-93980000D01*
X147907172Y-95156000D02*
X156094000Y-95156000D01*
X113450000Y-98800000D02*
X113300000Y-98650000D01*
%TO.N,AI_Temp*%
X183750000Y-89500000D02*
X185075000Y-89500000D01*
X182250000Y-89500000D02*
X183750000Y-89500000D01*
%TO.N,/INT*%
X164500000Y-96000000D02*
X180860000Y-96000000D01*
X117300000Y-97400000D02*
X117300000Y-95681852D01*
X117300000Y-95681852D02*
X117476633Y-95505219D01*
X180860000Y-96000000D02*
X182880000Y-93980000D01*
%TO.N,/GPIO_5*%
X114100000Y-91400000D02*
X114250000Y-91250000D01*
X114100000Y-93000000D02*
X114100000Y-91400000D01*
%TO.N,/GPIO_8*%
X112500000Y-97400000D02*
X112500000Y-98650000D01*
X112500000Y-98650000D02*
X113100000Y-99250000D01*
X159830000Y-99250000D02*
X165100000Y-93980000D01*
X113100000Y-99250000D02*
X159830000Y-99250000D01*
%TO.N,/GPIO_2*%
X114900000Y-95960662D02*
X114708104Y-95768766D01*
X114708104Y-95768766D02*
X114458104Y-95768766D01*
X114900000Y-97400000D02*
X114900000Y-95960662D01*
%TO.N,/SPI_COPI*%
X118900000Y-90850000D02*
X119000000Y-90750000D01*
X118900000Y-93000000D02*
X118900000Y-90850000D01*
%TO.N,/I2C_SCL*%
X121300414Y-93951000D02*
X125040364Y-93951000D01*
X118595556Y-94777000D02*
X120474414Y-94777000D01*
X116500000Y-97400000D02*
X116500000Y-95421191D01*
X116500000Y-95421191D02*
X117141191Y-94780000D01*
X117141191Y-94780000D02*
X118592556Y-94780000D01*
X118592556Y-94780000D02*
X118595556Y-94777000D01*
X125741364Y-93250000D02*
X125750000Y-93250000D01*
X125040364Y-93951000D02*
X125741364Y-93250000D01*
X120474414Y-94777000D02*
X121300414Y-93951000D01*
%TO.N,/UART_RX*%
X116500000Y-94000000D02*
X116500000Y-93000000D01*
X115750000Y-94750000D02*
X116500000Y-94000000D01*
X167640000Y-68580000D02*
X167640001Y-72000000D01*
X115500000Y-94750000D02*
X115750000Y-94750000D01*
%TO.N,/SPI_CIPO*%
X118100000Y-95907538D02*
X118777538Y-95230000D01*
X118781952Y-95227000D02*
X120660810Y-95227000D01*
X126000000Y-94000000D02*
X126750000Y-93250000D01*
X125226760Y-94401000D02*
X125627760Y-94000000D01*
X121486810Y-94401000D02*
X125226760Y-94401000D01*
X125627760Y-94000000D02*
X126000000Y-94000000D01*
X118100000Y-97400000D02*
X118100000Y-95907538D01*
X118777538Y-95230000D02*
X118778952Y-95230000D01*
X120660810Y-95227000D02*
X121486810Y-94401000D01*
X118778952Y-95230000D02*
X118781952Y-95227000D01*
%TO.N,/GPIO_4*%
X114100000Y-97400000D02*
X114100000Y-96471323D01*
X114100000Y-96471323D02*
X113378677Y-95750000D01*
X113378677Y-95750000D02*
X112500000Y-95750000D01*
%TO.N,/I2C_SDA*%
X117300000Y-93000000D02*
X117300000Y-91010662D01*
X117300000Y-91010662D02*
X117405331Y-90905331D01*
%TO.N,/GPIO_1*%
X115700000Y-91800006D02*
X116250006Y-91250000D01*
X115700000Y-93000000D02*
X115700000Y-91800006D01*
%TO.N,/UART_TX*%
X119124000Y-94325000D02*
X119124000Y-94326000D01*
X165100000Y-72400000D02*
X165100000Y-68580000D01*
X118409746Y-94325000D02*
X119124000Y-94325000D01*
X124500000Y-93500000D02*
X124750000Y-93250000D01*
X119124000Y-94326000D02*
X120287604Y-94326000D01*
X118405746Y-94329000D02*
X118409746Y-94325000D01*
X165000000Y-72500000D02*
X165100000Y-72400000D01*
X116921000Y-94329000D02*
X118405746Y-94329000D01*
X121113604Y-93500000D02*
X124500000Y-93500000D01*
X115700000Y-97400000D02*
X115700000Y-95550000D01*
X115700000Y-95550000D02*
X116921000Y-94329000D01*
X120287604Y-94326000D02*
X121113604Y-93500000D01*
%TO.N,/GPIO_3*%
X114900000Y-91600003D02*
X115250003Y-91250000D01*
X114900000Y-93000000D02*
X114900000Y-91600003D01*
%TO.N,/SPI_SCK*%
X172720000Y-70720000D02*
X172720000Y-68580000D01*
X172750000Y-71500000D02*
X172750000Y-70750000D01*
X172750000Y-70750000D02*
X172720000Y-70720000D01*
X118100000Y-91624880D02*
X118112440Y-91612440D01*
X118100000Y-93000000D02*
X118100000Y-91624880D01*
%TO.N,Net-(LED3-Pad2)*%
X154729139Y-52229139D02*
X154729139Y-50502205D01*
X156000000Y-53500000D02*
X154729139Y-52229139D01*
%TO.N,/SR_2*%
X104500000Y-91750000D02*
X104500000Y-93000000D01*
X125505000Y-86745000D02*
X125224000Y-87026000D01*
X125505000Y-85825000D02*
X125505000Y-86745000D01*
X107250000Y-91250000D02*
X105000000Y-91250000D01*
X111474000Y-87026000D02*
X107250000Y-91250000D01*
X125224000Y-87026000D02*
X111474000Y-87026000D01*
X105000000Y-91250000D02*
X104500000Y-91750000D01*
%TO.N,/SR_1*%
X119732604Y-84000000D02*
X117750000Y-84000000D01*
X126825000Y-80175000D02*
X126825000Y-80700000D01*
X116248000Y-82498000D02*
X112138396Y-82498000D01*
X126825000Y-80700000D02*
X124475000Y-83050000D01*
X120682604Y-83050000D02*
X119732604Y-84000000D01*
X124475000Y-83050000D02*
X120682604Y-83050000D01*
X107700000Y-98950000D02*
X107700000Y-97400000D01*
X107750000Y-99000000D02*
X107700000Y-98950000D01*
X117750000Y-84000000D02*
X116248000Y-82498000D01*
X103003958Y-88250000D02*
X102250005Y-89003953D01*
X112138396Y-82498000D02*
X106386396Y-88250000D01*
X106386396Y-88250000D02*
X103003958Y-88250000D01*
%TO.N,/SR_3*%
X107700000Y-91436396D02*
X107700000Y-93000000D01*
X111660396Y-87476000D02*
X107700000Y-91436396D01*
X126825000Y-86925000D02*
X126274000Y-87476000D01*
X126825000Y-85825000D02*
X126825000Y-86925000D01*
X126274000Y-87476000D02*
X111660396Y-87476000D01*
%TO.N,/SR_6*%
X110100000Y-91036396D02*
X110100000Y-93000000D01*
X128674000Y-88826000D02*
X112310396Y-88826000D01*
X130635000Y-85825000D02*
X130635000Y-86865000D01*
X112310396Y-88826000D02*
X110100000Y-91036396D01*
X130635000Y-86865000D02*
X128674000Y-88826000D01*
%TO.N,/SR_4*%
X128095000Y-85825000D02*
X128095000Y-86905000D01*
X108500000Y-91272792D02*
X108500000Y-93000000D01*
X111846792Y-87926000D02*
X108500000Y-91272792D01*
X127074000Y-87926000D02*
X111846792Y-87926000D01*
X128095000Y-86905000D02*
X127074000Y-87926000D01*
%TO.N,/SR_8*%
X130274000Y-89726000D02*
X112683188Y-89726000D01*
X133175000Y-85825000D02*
X133175000Y-86825000D01*
X112683188Y-89726000D02*
X111700000Y-90709188D01*
X111700000Y-90709188D02*
X111700000Y-93000000D01*
X133175000Y-86825000D02*
X130274000Y-89726000D01*
%TO.N,/SR_5*%
X129365000Y-86885000D02*
X127874000Y-88376000D01*
X112124000Y-88376000D02*
X109300000Y-91200000D01*
X129365000Y-85825000D02*
X129365000Y-86885000D01*
X127874000Y-88376000D02*
X112124000Y-88376000D01*
X109300000Y-91200000D02*
X109300000Y-93000000D01*
%TO.N,/SR_7*%
X129474000Y-89276000D02*
X112496792Y-89276000D01*
X110900000Y-90872792D02*
X110900000Y-93000000D01*
X131905000Y-85825000D02*
X131905000Y-86845000D01*
X131905000Y-86845000D02*
X129474000Y-89276000D01*
X112496792Y-89276000D02*
X110900000Y-90872792D01*
%TO.N,/SR_10*%
X104813190Y-90799000D02*
X107019376Y-90799000D01*
X103924000Y-91674000D02*
X103938190Y-91674000D01*
X111700000Y-96200000D02*
X109826000Y-94326000D01*
X103924000Y-91688190D02*
X103924000Y-91674000D01*
X111993376Y-85825000D02*
X113120000Y-85825000D01*
X109826000Y-94326000D02*
X103924000Y-94326000D01*
X103938190Y-91674000D02*
X104813190Y-90799000D01*
X111700000Y-97400000D02*
X111700000Y-96200000D01*
X107019376Y-90799000D02*
X111993376Y-85825000D01*
X103924000Y-94326000D02*
X103924000Y-91688190D01*
%TO.N,/SR_9*%
X101250016Y-88749981D02*
X101250016Y-88998682D01*
X106500000Y-99000000D02*
X106750000Y-99000000D01*
X106900000Y-98850000D02*
X106900000Y-97400000D01*
X106750000Y-99000000D02*
X106900000Y-98850000D01*
X113092000Y-82048000D02*
X111952000Y-82048000D01*
X114440000Y-80700000D02*
X113092000Y-82048000D01*
X102249997Y-87750000D02*
X101250016Y-88749981D01*
X111952000Y-82048000D02*
X106250000Y-87750000D01*
X106250000Y-87750000D02*
X102249997Y-87750000D01*
X114440000Y-80175000D02*
X114440000Y-80700000D01*
%TD*%
%TA.AperFunction,Conductor*%
%TO.N,GNDD*%
G36*
X199642539Y-44320185D02*
G01*
X199688294Y-44372989D01*
X199699500Y-44424500D01*
X199699500Y-104575500D01*
X199679815Y-104642539D01*
X199627011Y-104688294D01*
X199575500Y-104699500D01*
X100424500Y-104699500D01*
X100357461Y-104679815D01*
X100311706Y-104627011D01*
X100300500Y-104575500D01*
X100300500Y-96475850D01*
X100320185Y-96408811D01*
X100372989Y-96363056D01*
X100442147Y-96353112D01*
X100505703Y-96382137D01*
X100515223Y-96391320D01*
X100522043Y-96398640D01*
X100538142Y-96422733D01*
X100625267Y-96509858D01*
X100625270Y-96509860D01*
X100631162Y-96515752D01*
X101261016Y-97145606D01*
X101261045Y-97145637D01*
X101351264Y-97235856D01*
X101351267Y-97235858D01*
X101402490Y-97270084D01*
X101453714Y-97304312D01*
X101534207Y-97337652D01*
X101567548Y-97351463D01*
X101627971Y-97363481D01*
X101688393Y-97375500D01*
X101891879Y-97375500D01*
X101952301Y-97363481D01*
X102012724Y-97351463D01*
X102046064Y-97337652D01*
X102126558Y-97304312D01*
X102177781Y-97270084D01*
X102183593Y-97266201D01*
X102190543Y-97261556D01*
X102229005Y-97235858D01*
X102316130Y-97148733D01*
X102316130Y-97148731D01*
X102326338Y-97138524D01*
X102326339Y-97138521D01*
X103053044Y-96411819D01*
X103079971Y-96397115D01*
X103105790Y-96380523D01*
X103111990Y-96379631D01*
X103114367Y-96378334D01*
X103140725Y-96375500D01*
X103159852Y-96375500D01*
X103184043Y-96377882D01*
X103187152Y-96378501D01*
X103187153Y-96378501D01*
X103316479Y-96378501D01*
X103316499Y-96378500D01*
X103625500Y-96378500D01*
X103692539Y-96398185D01*
X103738294Y-96450989D01*
X103749500Y-96502500D01*
X103749500Y-98447870D01*
X103749501Y-98447876D01*
X103755908Y-98507483D01*
X103806202Y-98642328D01*
X103806206Y-98642335D01*
X103892452Y-98757544D01*
X103892455Y-98757547D01*
X104007664Y-98843793D01*
X104007671Y-98843797D01*
X104052618Y-98860561D01*
X104142517Y-98894091D01*
X104202127Y-98900500D01*
X104797872Y-98900499D01*
X104857483Y-98894091D01*
X104857485Y-98894090D01*
X104857487Y-98894090D01*
X104865031Y-98892308D01*
X104865377Y-98893775D01*
X104926342Y-98889408D01*
X104941378Y-98893822D01*
X104942511Y-98894089D01*
X104942517Y-98894091D01*
X105002127Y-98900500D01*
X105500500Y-98900499D01*
X105567539Y-98920183D01*
X105613294Y-98972987D01*
X105624500Y-99024499D01*
X105624500Y-99086233D01*
X105658143Y-99255366D01*
X105658146Y-99255378D01*
X105724138Y-99414698D01*
X105724145Y-99414711D01*
X105819954Y-99558098D01*
X105819957Y-99558102D01*
X105941897Y-99680042D01*
X105941901Y-99680045D01*
X106085288Y-99775854D01*
X106085301Y-99775861D01*
X106234479Y-99837652D01*
X106244626Y-99841855D01*
X106413766Y-99875499D01*
X106413769Y-99875500D01*
X106413771Y-99875500D01*
X106586231Y-99875500D01*
X106586232Y-99875499D01*
X106755374Y-99841855D01*
X106914705Y-99775858D01*
X107056109Y-99681375D01*
X107122786Y-99660497D01*
X107190167Y-99678981D01*
X107193891Y-99681375D01*
X107335288Y-99775854D01*
X107335301Y-99775861D01*
X107484479Y-99837652D01*
X107494626Y-99841855D01*
X107663766Y-99875499D01*
X107663769Y-99875500D01*
X107663771Y-99875500D01*
X107836231Y-99875500D01*
X107836232Y-99875499D01*
X108005374Y-99841855D01*
X108164705Y-99775858D01*
X108181109Y-99764897D01*
X108247783Y-99744018D01*
X108315164Y-99762501D01*
X108318852Y-99764871D01*
X108335295Y-99775858D01*
X108335297Y-99775859D01*
X108335299Y-99775860D01*
X108484479Y-99837652D01*
X108494626Y-99841855D01*
X108663766Y-99875499D01*
X108663769Y-99875500D01*
X108663771Y-99875500D01*
X108836231Y-99875500D01*
X108836232Y-99875499D01*
X109005374Y-99841855D01*
X109164705Y-99775858D01*
X109308099Y-99680045D01*
X109430045Y-99558099D01*
X109525858Y-99414705D01*
X109591855Y-99255374D01*
X109625500Y-99086229D01*
X109625500Y-99019556D01*
X109645185Y-98952517D01*
X109697989Y-98906762D01*
X109762755Y-98896267D01*
X109766628Y-98896683D01*
X109802127Y-98900500D01*
X110397872Y-98900499D01*
X110457483Y-98894091D01*
X110457485Y-98894090D01*
X110457487Y-98894090D01*
X110465031Y-98892308D01*
X110465377Y-98893775D01*
X110526342Y-98889408D01*
X110541378Y-98893822D01*
X110542511Y-98894089D01*
X110542517Y-98894091D01*
X110602127Y-98900500D01*
X111197872Y-98900499D01*
X111257483Y-98894091D01*
X111257485Y-98894090D01*
X111257487Y-98894090D01*
X111265031Y-98892308D01*
X111265377Y-98893775D01*
X111326342Y-98889408D01*
X111341378Y-98893822D01*
X111342511Y-98894089D01*
X111342517Y-98894091D01*
X111402127Y-98900500D01*
X111848814Y-98900499D01*
X111856428Y-98902734D01*
X111864261Y-98901465D01*
X111889470Y-98912436D01*
X111915853Y-98920183D01*
X111922681Y-98926890D01*
X111928326Y-98929347D01*
X111951913Y-98955603D01*
X111958518Y-98965487D01*
X111969852Y-98982449D01*
X111969853Y-98982452D01*
X111969854Y-98982452D01*
X112014141Y-99048732D01*
X112014144Y-99048736D01*
X112105586Y-99140178D01*
X112105608Y-99140198D01*
X112614139Y-99648729D01*
X112614142Y-99648733D01*
X112701267Y-99735858D01*
X112752490Y-99770084D01*
X112803714Y-99804312D01*
X112803715Y-99804312D01*
X112803716Y-99804313D01*
X112877390Y-99834829D01*
X112877394Y-99834830D01*
X112884207Y-99837652D01*
X112917548Y-99851463D01*
X112977971Y-99863481D01*
X113038393Y-99875500D01*
X159891607Y-99875500D01*
X159952029Y-99863481D01*
X160012452Y-99851463D01*
X160045792Y-99837652D01*
X160126286Y-99804312D01*
X160177509Y-99770084D01*
X160228733Y-99735858D01*
X160315858Y-99648733D01*
X160315858Y-99648731D01*
X160326066Y-99638524D01*
X160326067Y-99638521D01*
X163547506Y-96417083D01*
X163608827Y-96383600D01*
X163678519Y-96388584D01*
X163734452Y-96430456D01*
X163738287Y-96435875D01*
X163819954Y-96558098D01*
X163819957Y-96558102D01*
X163941897Y-96680042D01*
X163941901Y-96680045D01*
X164085288Y-96775854D01*
X164085301Y-96775861D01*
X164244621Y-96841853D01*
X164244626Y-96841855D01*
X164413766Y-96875499D01*
X164413769Y-96875500D01*
X164413771Y-96875500D01*
X164586231Y-96875500D01*
X164586232Y-96875499D01*
X164755374Y-96841855D01*
X164914705Y-96775858D01*
X165058099Y-96680045D01*
X165058102Y-96680042D01*
X165076326Y-96661819D01*
X165137649Y-96628334D01*
X165164007Y-96625500D01*
X180921607Y-96625500D01*
X180982029Y-96613481D01*
X181042452Y-96601463D01*
X181079392Y-96586162D01*
X181156286Y-96554312D01*
X181215158Y-96514974D01*
X181215159Y-96514974D01*
X181244008Y-96495696D01*
X181258733Y-96485858D01*
X181345858Y-96398733D01*
X181345858Y-96398731D01*
X181356066Y-96388524D01*
X181356067Y-96388521D01*
X182422163Y-95322426D01*
X182483484Y-95288943D01*
X182548159Y-95292178D01*
X182563757Y-95297246D01*
X182773713Y-95330500D01*
X182773714Y-95330500D01*
X182986286Y-95330500D01*
X182986287Y-95330500D01*
X183196243Y-95297246D01*
X183398412Y-95231557D01*
X183587816Y-95135051D01*
X183674138Y-95072335D01*
X183759786Y-95010109D01*
X183759788Y-95010106D01*
X183759792Y-95010104D01*
X183910104Y-94859792D01*
X183910106Y-94859788D01*
X183910109Y-94859786D01*
X184035048Y-94687820D01*
X184035047Y-94687820D01*
X184035051Y-94687816D01*
X184039514Y-94679054D01*
X184087488Y-94628259D01*
X184155308Y-94611463D01*
X184221444Y-94633999D01*
X184260486Y-94679056D01*
X184264951Y-94687820D01*
X184389890Y-94859786D01*
X184540213Y-95010109D01*
X184712179Y-95135048D01*
X184712181Y-95135049D01*
X184712184Y-95135051D01*
X184901588Y-95231557D01*
X185103757Y-95297246D01*
X185313713Y-95330500D01*
X185313714Y-95330500D01*
X185526286Y-95330500D01*
X185526287Y-95330500D01*
X185736243Y-95297246D01*
X185938412Y-95231557D01*
X186127816Y-95135051D01*
X186214138Y-95072335D01*
X186299786Y-95010109D01*
X186299788Y-95010106D01*
X186299792Y-95010104D01*
X186450104Y-94859792D01*
X186450106Y-94859788D01*
X186450109Y-94859786D01*
X186575048Y-94687820D01*
X186575047Y-94687820D01*
X186575051Y-94687816D01*
X186579514Y-94679054D01*
X186627488Y-94628259D01*
X186695308Y-94611463D01*
X186761444Y-94633999D01*
X186800486Y-94679056D01*
X186804951Y-94687820D01*
X186929890Y-94859786D01*
X187080213Y-95010109D01*
X187252179Y-95135048D01*
X187252181Y-95135049D01*
X187252184Y-95135051D01*
X187441588Y-95231557D01*
X187643757Y-95297246D01*
X187853713Y-95330500D01*
X187853714Y-95330500D01*
X188066286Y-95330500D01*
X188066287Y-95330500D01*
X188276243Y-95297246D01*
X188478412Y-95231557D01*
X188667816Y-95135051D01*
X188754138Y-95072335D01*
X188839786Y-95010109D01*
X188839788Y-95010106D01*
X188839792Y-95010104D01*
X188990104Y-94859792D01*
X188990106Y-94859788D01*
X188990109Y-94859786D01*
X189115048Y-94687820D01*
X189115047Y-94687820D01*
X189115051Y-94687816D01*
X189119514Y-94679054D01*
X189167488Y-94628259D01*
X189235308Y-94611463D01*
X189301444Y-94633999D01*
X189340486Y-94679056D01*
X189344951Y-94687820D01*
X189469890Y-94859786D01*
X189620213Y-95010109D01*
X189792179Y-95135048D01*
X189792181Y-95135049D01*
X189792184Y-95135051D01*
X189981588Y-95231557D01*
X190183757Y-95297246D01*
X190393713Y-95330500D01*
X190393714Y-95330500D01*
X190606286Y-95330500D01*
X190606287Y-95330500D01*
X190816243Y-95297246D01*
X191018412Y-95231557D01*
X191207816Y-95135051D01*
X191357225Y-95026500D01*
X191379784Y-95010110D01*
X191379784Y-95010109D01*
X191379792Y-95010104D01*
X191493329Y-94896566D01*
X191554648Y-94863084D01*
X191624340Y-94868068D01*
X191680274Y-94909939D01*
X191697189Y-94940917D01*
X191746202Y-95072328D01*
X191746206Y-95072335D01*
X191832452Y-95187544D01*
X191832455Y-95187547D01*
X191947664Y-95273793D01*
X191947671Y-95273797D01*
X192082517Y-95324091D01*
X192082516Y-95324091D01*
X192089444Y-95324835D01*
X192142127Y-95330500D01*
X193937872Y-95330499D01*
X193997483Y-95324091D01*
X194132331Y-95273796D01*
X194247546Y-95187546D01*
X194333796Y-95072331D01*
X194384091Y-94937483D01*
X194390500Y-94877873D01*
X194390499Y-93082128D01*
X194384091Y-93022517D01*
X194375163Y-92998581D01*
X194333797Y-92887671D01*
X194333793Y-92887664D01*
X194247547Y-92772455D01*
X194247544Y-92772452D01*
X194132335Y-92686206D01*
X194132328Y-92686202D01*
X193997482Y-92635908D01*
X193997483Y-92635908D01*
X193937883Y-92629501D01*
X193937881Y-92629500D01*
X193937873Y-92629500D01*
X193937865Y-92629500D01*
X192731519Y-92629500D01*
X192664480Y-92609815D01*
X192643838Y-92593181D01*
X191731546Y-91680888D01*
X191731545Y-91680887D01*
X191616807Y-91604222D01*
X191489332Y-91551421D01*
X191483496Y-91549651D01*
X191484044Y-91547842D01*
X191429927Y-91519523D01*
X191395362Y-91458802D01*
X191399113Y-91389033D01*
X191428360Y-91342625D01*
X196214729Y-86556256D01*
X196214733Y-86556254D01*
X196301858Y-86469129D01*
X196347127Y-86401380D01*
X196370312Y-86366682D01*
X196396819Y-86302686D01*
X196410072Y-86270691D01*
X196410073Y-86270687D01*
X196417463Y-86252848D01*
X196441500Y-86132002D01*
X196441500Y-67368537D01*
X196437904Y-67350460D01*
X196417463Y-67247691D01*
X196370311Y-67133857D01*
X196350769Y-67104611D01*
X196301858Y-67031410D01*
X196214733Y-66944285D01*
X196214732Y-66944284D01*
X194682783Y-65412337D01*
X194682781Y-65412334D01*
X194682781Y-65412335D01*
X194675714Y-65405268D01*
X194675714Y-65405267D01*
X194588589Y-65318142D01*
X194588588Y-65318141D01*
X194588587Y-65318140D01*
X194557710Y-65297509D01*
X194540430Y-65276833D01*
X194486144Y-65249689D01*
X194378514Y-65205108D01*
X194378512Y-65205106D01*
X194372314Y-65202539D01*
X194372311Y-65202538D01*
X194372308Y-65202537D01*
X194251462Y-65178500D01*
X194251460Y-65178500D01*
X188705723Y-65178500D01*
X188638684Y-65158815D01*
X188592929Y-65106011D01*
X188582985Y-65036853D01*
X188591161Y-65007050D01*
X188591317Y-65006671D01*
X188591855Y-65005374D01*
X188625500Y-64836229D01*
X188625500Y-64663771D01*
X188625500Y-64663768D01*
X188625499Y-64663766D01*
X188591856Y-64494633D01*
X188591855Y-64494626D01*
X188591853Y-64494621D01*
X188525861Y-64335301D01*
X188525854Y-64335288D01*
X188430045Y-64191901D01*
X188430042Y-64191897D01*
X188411819Y-64173674D01*
X188378334Y-64112351D01*
X188375500Y-64085993D01*
X188375500Y-60628711D01*
X194399500Y-60628711D01*
X194399500Y-60871288D01*
X194431161Y-61111785D01*
X194493947Y-61346104D01*
X194586773Y-61570205D01*
X194586776Y-61570212D01*
X194708064Y-61780289D01*
X194708066Y-61780292D01*
X194708067Y-61780293D01*
X194855733Y-61972736D01*
X194855739Y-61972743D01*
X195027256Y-62144260D01*
X195027263Y-62144266D01*
X195036637Y-62151459D01*
X195219711Y-62291936D01*
X195429788Y-62413224D01*
X195653900Y-62506054D01*
X195888211Y-62568838D01*
X196068586Y-62592584D01*
X196128711Y-62600500D01*
X196128712Y-62600500D01*
X196371289Y-62600500D01*
X196419388Y-62594167D01*
X196611789Y-62568838D01*
X196846100Y-62506054D01*
X197070212Y-62413224D01*
X197280289Y-62291936D01*
X197472738Y-62144265D01*
X197644265Y-61972738D01*
X197791936Y-61780289D01*
X197913224Y-61570212D01*
X198006054Y-61346100D01*
X198068838Y-61111789D01*
X198100500Y-60871288D01*
X198100500Y-60628712D01*
X198068838Y-60388211D01*
X198006054Y-60153900D01*
X197913224Y-59929788D01*
X197791936Y-59719711D01*
X197644265Y-59527262D01*
X197644260Y-59527256D01*
X197472743Y-59355739D01*
X197472736Y-59355733D01*
X197280293Y-59208067D01*
X197280292Y-59208066D01*
X197280289Y-59208064D01*
X197070212Y-59086776D01*
X197070205Y-59086773D01*
X196846104Y-58993947D01*
X196611785Y-58931161D01*
X196371289Y-58899500D01*
X196371288Y-58899500D01*
X196128712Y-58899500D01*
X196128711Y-58899500D01*
X195888214Y-58931161D01*
X195653895Y-58993947D01*
X195429794Y-59086773D01*
X195429785Y-59086777D01*
X195219706Y-59208067D01*
X195027263Y-59355733D01*
X195027256Y-59355739D01*
X194855739Y-59527256D01*
X194855733Y-59527263D01*
X194708067Y-59719706D01*
X194586777Y-59929785D01*
X194586773Y-59929794D01*
X194493947Y-60153895D01*
X194431161Y-60388214D01*
X194399500Y-60628711D01*
X188375500Y-60628711D01*
X188375500Y-56810452D01*
X188395185Y-56743413D01*
X188411819Y-56722771D01*
X190222772Y-54911819D01*
X190284095Y-54878334D01*
X190310453Y-54875500D01*
X194061608Y-54875500D01*
X194061608Y-54875499D01*
X194130106Y-54861875D01*
X194182452Y-54851463D01*
X194216120Y-54837517D01*
X194296286Y-54804312D01*
X194349438Y-54768796D01*
X194349439Y-54768796D01*
X194382076Y-54746987D01*
X194398733Y-54735858D01*
X194485858Y-54648733D01*
X194485859Y-54648730D01*
X194492925Y-54641665D01*
X194492928Y-54641661D01*
X196797771Y-52336818D01*
X196859094Y-52303333D01*
X196885452Y-52300499D01*
X197547871Y-52300499D01*
X197547872Y-52300499D01*
X197607483Y-52294091D01*
X197742331Y-52243796D01*
X197857546Y-52157546D01*
X197943796Y-52042331D01*
X197994091Y-51907483D01*
X198000500Y-51847873D01*
X198000499Y-50152128D01*
X197994091Y-50092517D01*
X197943796Y-49957669D01*
X197943795Y-49957668D01*
X197943793Y-49957664D01*
X197857547Y-49842455D01*
X197857544Y-49842452D01*
X197742335Y-49756206D01*
X197742328Y-49756202D01*
X197607482Y-49705908D01*
X197607483Y-49705908D01*
X197547883Y-49699501D01*
X197547881Y-49699500D01*
X197547873Y-49699500D01*
X197547864Y-49699500D01*
X195952129Y-49699500D01*
X195952123Y-49699501D01*
X195892516Y-49705908D01*
X195757671Y-49756202D01*
X195757664Y-49756206D01*
X195642455Y-49842452D01*
X195642452Y-49842455D01*
X195556206Y-49957664D01*
X195556202Y-49957671D01*
X195505908Y-50092517D01*
X195499501Y-50152116D01*
X195499501Y-50152123D01*
X195499500Y-50152135D01*
X195499500Y-51814546D01*
X195479815Y-51881585D01*
X195463181Y-51902227D01*
X194811681Y-52553728D01*
X194750358Y-52587213D01*
X194680667Y-52582229D01*
X194624733Y-52540358D01*
X194600316Y-52474893D01*
X194600000Y-52466047D01*
X194600000Y-52250000D01*
X193750000Y-52250000D01*
X193750000Y-53100000D01*
X193966047Y-53100000D01*
X194033086Y-53119685D01*
X194078841Y-53172489D01*
X194088785Y-53241647D01*
X194059760Y-53305203D01*
X194053728Y-53311681D01*
X193777229Y-53588181D01*
X193715906Y-53621666D01*
X193689548Y-53624500D01*
X191969254Y-53624500D01*
X191902215Y-53604815D01*
X191856460Y-53552011D01*
X191846516Y-53482853D01*
X191847637Y-53476309D01*
X191875499Y-53336233D01*
X191875500Y-53336231D01*
X191875500Y-53163768D01*
X191875499Y-53163766D01*
X191861541Y-53093596D01*
X191841855Y-52994626D01*
X191778671Y-52842086D01*
X191775861Y-52835301D01*
X191775859Y-52835297D01*
X191775858Y-52835295D01*
X191741646Y-52784093D01*
X191720768Y-52717416D01*
X191739252Y-52650036D01*
X191757063Y-52627525D01*
X192188319Y-52196270D01*
X192249642Y-52162785D01*
X192319334Y-52167769D01*
X192375267Y-52209641D01*
X192399684Y-52275105D01*
X192400000Y-52283951D01*
X192400000Y-52647844D01*
X192406401Y-52707372D01*
X192406403Y-52707379D01*
X192456645Y-52842086D01*
X192456649Y-52842093D01*
X192542809Y-52957187D01*
X192542812Y-52957190D01*
X192657906Y-53043350D01*
X192657913Y-53043354D01*
X192792620Y-53093596D01*
X192792627Y-53093598D01*
X192852155Y-53099999D01*
X192852172Y-53100000D01*
X193250000Y-53100000D01*
X193250000Y-52124000D01*
X193269685Y-52056961D01*
X193322489Y-52011206D01*
X193374000Y-52000000D01*
X193500000Y-52000000D01*
X193500000Y-51874000D01*
X193519685Y-51806961D01*
X193572489Y-51761206D01*
X193624000Y-51750000D01*
X194600000Y-51750000D01*
X194600000Y-51352172D01*
X194599999Y-51352155D01*
X194593598Y-51292627D01*
X194593596Y-51292620D01*
X194543354Y-51157913D01*
X194543352Y-51157910D01*
X194481082Y-51074727D01*
X194456665Y-51009262D01*
X194471517Y-50940989D01*
X194481083Y-50926104D01*
X194543796Y-50842331D01*
X194594091Y-50707483D01*
X194600500Y-50647873D01*
X194600499Y-49352128D01*
X194594091Y-49292517D01*
X194543796Y-49157669D01*
X194543795Y-49157668D01*
X194543793Y-49157664D01*
X194457547Y-49042455D01*
X194457544Y-49042452D01*
X194342335Y-48956206D01*
X194342328Y-48956202D01*
X194207482Y-48905908D01*
X194207483Y-48905908D01*
X194147883Y-48899501D01*
X194147881Y-48899500D01*
X194147873Y-48899500D01*
X194147864Y-48899500D01*
X192852129Y-48899500D01*
X192852123Y-48899501D01*
X192792516Y-48905908D01*
X192657671Y-48956202D01*
X192657664Y-48956206D01*
X192542455Y-49042452D01*
X192542452Y-49042455D01*
X192456206Y-49157664D01*
X192456202Y-49157671D01*
X192405908Y-49292517D01*
X192399501Y-49352116D01*
X192399501Y-49352123D01*
X192399500Y-49352135D01*
X192399500Y-50164547D01*
X192379815Y-50231586D01*
X192363181Y-50252228D01*
X190514144Y-52101264D01*
X190514138Y-52101272D01*
X190445691Y-52203706D01*
X190445688Y-52203714D01*
X190427084Y-52248629D01*
X190398538Y-52317544D01*
X190398535Y-52317556D01*
X190374500Y-52438389D01*
X190374500Y-52585993D01*
X190354815Y-52653032D01*
X190338181Y-52673674D01*
X190319957Y-52691897D01*
X190319954Y-52691901D01*
X190224145Y-52835288D01*
X190224138Y-52835301D01*
X190158146Y-52994621D01*
X190158143Y-52994633D01*
X190124500Y-53163766D01*
X190124500Y-53336233D01*
X190152363Y-53476308D01*
X190146136Y-53545899D01*
X190103273Y-53601077D01*
X190037383Y-53624321D01*
X190030746Y-53624499D01*
X189938394Y-53624499D01*
X189837597Y-53644548D01*
X189837592Y-53644548D01*
X189817553Y-53648535D01*
X189817545Y-53648537D01*
X189772231Y-53667307D01*
X189772222Y-53667312D01*
X189766212Y-53669801D01*
X189696746Y-53677276D01*
X189634264Y-53646007D01*
X189631070Y-53642925D01*
X189558102Y-53569957D01*
X189558098Y-53569954D01*
X189414711Y-53474145D01*
X189414698Y-53474138D01*
X189255378Y-53408146D01*
X189255366Y-53408143D01*
X189086232Y-53374500D01*
X189086229Y-53374500D01*
X188913771Y-53374500D01*
X188913768Y-53374500D01*
X188744633Y-53408143D01*
X188744621Y-53408146D01*
X188585301Y-53474138D01*
X188585288Y-53474145D01*
X188441901Y-53569954D01*
X188441897Y-53569957D01*
X188319957Y-53691897D01*
X188319954Y-53691901D01*
X188224145Y-53835288D01*
X188224138Y-53835301D01*
X188158146Y-53994621D01*
X188158143Y-53994633D01*
X188124500Y-54163766D01*
X188124500Y-54189547D01*
X188104815Y-54256586D01*
X188088181Y-54277228D01*
X186604069Y-55761339D01*
X186604061Y-55761347D01*
X186601270Y-55764139D01*
X186601267Y-55764142D01*
X186514142Y-55851267D01*
X186484586Y-55895501D01*
X186480019Y-55902335D01*
X186480017Y-55902338D01*
X186445687Y-55953715D01*
X186445685Y-55953718D01*
X186430281Y-55990909D01*
X186412347Y-56034207D01*
X186406823Y-56047543D01*
X186398537Y-56067545D01*
X186398535Y-56067553D01*
X186374500Y-56188389D01*
X186374500Y-57940547D01*
X186354815Y-58007586D01*
X186302011Y-58053341D01*
X186232853Y-58063285D01*
X186169297Y-58034260D01*
X186162819Y-58028228D01*
X184161819Y-56027228D01*
X184128334Y-55965905D01*
X184125500Y-55939547D01*
X184125500Y-54914006D01*
X184145185Y-54846967D01*
X184161821Y-54826323D01*
X184180043Y-54808101D01*
X184180045Y-54808099D01*
X184275858Y-54664705D01*
X184282476Y-54648729D01*
X184312926Y-54575215D01*
X184341855Y-54505374D01*
X184375500Y-54336229D01*
X184375500Y-54163771D01*
X184375500Y-54163768D01*
X184375499Y-54163766D01*
X184341856Y-53994633D01*
X184341855Y-53994626D01*
X184292719Y-53876000D01*
X184275861Y-53835301D01*
X184275854Y-53835288D01*
X184180045Y-53691901D01*
X184180042Y-53691897D01*
X184058102Y-53569957D01*
X184058098Y-53569954D01*
X183914711Y-53474145D01*
X183914698Y-53474138D01*
X183755378Y-53408146D01*
X183755366Y-53408143D01*
X183586232Y-53374500D01*
X183586229Y-53374500D01*
X183413771Y-53374500D01*
X183413768Y-53374500D01*
X183244633Y-53408143D01*
X183244621Y-53408146D01*
X183085301Y-53474138D01*
X183085288Y-53474145D01*
X182941901Y-53569954D01*
X182941897Y-53569957D01*
X182819957Y-53691897D01*
X182819954Y-53691901D01*
X182724145Y-53835288D01*
X182724138Y-53835301D01*
X182658146Y-53994621D01*
X182658143Y-53994633D01*
X182624500Y-54163766D01*
X182624500Y-54336233D01*
X182658143Y-54505366D01*
X182658146Y-54505378D01*
X182724138Y-54664698D01*
X182724145Y-54664711D01*
X182819954Y-54808098D01*
X182819956Y-54808101D01*
X182838179Y-54826323D01*
X182871666Y-54887645D01*
X182874500Y-54914006D01*
X182874500Y-55790500D01*
X182854815Y-55857539D01*
X182802011Y-55903294D01*
X182750500Y-55914500D01*
X170868607Y-55914500D01*
X170801568Y-55894815D01*
X170755813Y-55842011D01*
X170745869Y-55772853D01*
X170752425Y-55747167D01*
X170753099Y-55745358D01*
X170769091Y-55702483D01*
X170775500Y-55642873D01*
X170775499Y-54897128D01*
X170769091Y-54837517D01*
X170758119Y-54808099D01*
X170718797Y-54702670D01*
X170714547Y-54694888D01*
X170717616Y-54693211D01*
X170699043Y-54643495D01*
X170713858Y-54575215D01*
X170714239Y-54574622D01*
X170718350Y-54567093D01*
X170768597Y-54432376D01*
X170768598Y-54432372D01*
X170774999Y-54372844D01*
X170775000Y-54372827D01*
X170775000Y-54250000D01*
X169474000Y-54250000D01*
X169406961Y-54230315D01*
X169361206Y-54177511D01*
X169350000Y-54126000D01*
X169350000Y-54000000D01*
X169224000Y-54000000D01*
X169156961Y-53980315D01*
X169111206Y-53927511D01*
X169100000Y-53876000D01*
X169100000Y-53750000D01*
X169600000Y-53750000D01*
X170775000Y-53750000D01*
X170775000Y-53627172D01*
X170774999Y-53627155D01*
X170768598Y-53567627D01*
X170768596Y-53567620D01*
X170718354Y-53432913D01*
X170718350Y-53432906D01*
X170632190Y-53317812D01*
X170632187Y-53317809D01*
X170517093Y-53231649D01*
X170517086Y-53231645D01*
X170382379Y-53181403D01*
X170382372Y-53181401D01*
X170322844Y-53175000D01*
X169600000Y-53175000D01*
X169600000Y-53750000D01*
X169100000Y-53750000D01*
X169100000Y-53175000D01*
X168377155Y-53175000D01*
X168317627Y-53181401D01*
X168317620Y-53181403D01*
X168174601Y-53234746D01*
X168174097Y-53233395D01*
X168115146Y-53246215D01*
X168049683Y-53221794D01*
X168007815Y-53165858D01*
X168000000Y-53122532D01*
X168000000Y-44424500D01*
X168019685Y-44357461D01*
X168072489Y-44311706D01*
X168124000Y-44300500D01*
X199575500Y-44300500D01*
X199642539Y-44320185D01*
G37*
%TD.AperFunction*%
%TA.AperFunction,Conductor*%
G36*
X159554075Y-94172993D02*
G01*
X159619901Y-94287007D01*
X159712993Y-94380099D01*
X159827007Y-94445925D01*
X159890590Y-94462962D01*
X159258282Y-95095269D01*
X159258282Y-95095270D01*
X159312449Y-95134624D01*
X159501782Y-95231095D01*
X159703870Y-95296757D01*
X159913754Y-95330000D01*
X160126246Y-95330000D01*
X160336127Y-95296757D01*
X160336130Y-95296757D01*
X160538217Y-95231095D01*
X160727554Y-95134622D01*
X160781716Y-95095270D01*
X160781717Y-95095270D01*
X160149408Y-94462962D01*
X160212993Y-94445925D01*
X160327007Y-94380099D01*
X160420099Y-94287007D01*
X160485925Y-94172993D01*
X160502962Y-94109409D01*
X161135270Y-94741717D01*
X161135270Y-94741716D01*
X161174622Y-94687555D01*
X161179232Y-94678507D01*
X161227205Y-94627709D01*
X161295025Y-94610912D01*
X161361161Y-94633447D01*
X161400204Y-94678504D01*
X161404949Y-94687817D01*
X161529890Y-94859786D01*
X161680213Y-95010109D01*
X161852179Y-95135048D01*
X161852181Y-95135049D01*
X161852184Y-95135051D01*
X162041588Y-95231557D01*
X162243757Y-95297246D01*
X162453713Y-95330500D01*
X162453714Y-95330500D01*
X162565546Y-95330500D01*
X162632585Y-95350185D01*
X162678340Y-95402989D01*
X162688284Y-95472147D01*
X162659259Y-95535703D01*
X162653227Y-95542181D01*
X159607229Y-98588181D01*
X159545906Y-98621666D01*
X159519548Y-98624500D01*
X145622624Y-98624500D01*
X145555585Y-98604815D01*
X145509830Y-98552011D01*
X145499886Y-98482853D01*
X145528911Y-98419297D01*
X145534943Y-98412819D01*
X148129943Y-95817819D01*
X148191266Y-95784334D01*
X148217624Y-95781500D01*
X156155607Y-95781500D01*
X156216029Y-95769481D01*
X156276452Y-95757463D01*
X156313392Y-95742162D01*
X156390286Y-95710312D01*
X156441509Y-95676084D01*
X156492733Y-95641858D01*
X156579858Y-95554733D01*
X156579859Y-95554731D01*
X156586925Y-95547665D01*
X156586928Y-95547661D01*
X156863663Y-95270925D01*
X156924984Y-95237442D01*
X156989655Y-95240676D01*
X157163757Y-95297246D01*
X157373713Y-95330500D01*
X157373714Y-95330500D01*
X157586286Y-95330500D01*
X157586287Y-95330500D01*
X157796243Y-95297246D01*
X157998412Y-95231557D01*
X158187816Y-95135051D01*
X158274138Y-95072335D01*
X158359786Y-95010109D01*
X158359788Y-95010106D01*
X158359792Y-95010104D01*
X158510104Y-94859792D01*
X158510106Y-94859788D01*
X158510109Y-94859786D01*
X158595890Y-94741717D01*
X158635051Y-94687816D01*
X158639793Y-94678508D01*
X158687763Y-94627711D01*
X158755583Y-94610911D01*
X158821719Y-94633445D01*
X158860763Y-94678500D01*
X158865373Y-94687547D01*
X158904728Y-94741716D01*
X159537036Y-94109407D01*
X159554075Y-94172993D01*
G37*
%TD.AperFunction*%
%TA.AperFunction,Conductor*%
G36*
X137122470Y-86970185D02*
G01*
X137143112Y-86986819D01*
X141592695Y-91436402D01*
X141626180Y-91497725D01*
X141629014Y-91524083D01*
X141629014Y-91689871D01*
X141662657Y-91859004D01*
X141662660Y-91859016D01*
X141728652Y-92018336D01*
X141728659Y-92018349D01*
X141824468Y-92161736D01*
X141824471Y-92161740D01*
X141946411Y-92283680D01*
X141946415Y-92283683D01*
X142089802Y-92379492D01*
X142089815Y-92379499D01*
X142197140Y-92423954D01*
X142249140Y-92445493D01*
X142345284Y-92464617D01*
X142407191Y-92497000D01*
X142408771Y-92498552D01*
X142679329Y-92769111D01*
X142679330Y-92769112D01*
X142794068Y-92845777D01*
X142895194Y-92887664D01*
X142921548Y-92898580D01*
X142921552Y-92898580D01*
X142921553Y-92898581D01*
X143056879Y-92925500D01*
X143056882Y-92925500D01*
X143056883Y-92925500D01*
X146173465Y-92925500D01*
X146240504Y-92945185D01*
X146286259Y-92997989D01*
X146296203Y-93067147D01*
X146273783Y-93122385D01*
X146164951Y-93272180D01*
X146068444Y-93461585D01*
X146002753Y-93663760D01*
X146001291Y-93672993D01*
X145969500Y-93873713D01*
X145969500Y-94086287D01*
X146002754Y-94296243D01*
X146067980Y-94496988D01*
X146068444Y-94498414D01*
X146164950Y-94687818D01*
X146244034Y-94796670D01*
X146267513Y-94862476D01*
X146251687Y-94930530D01*
X146231396Y-94957235D01*
X143750451Y-97438181D01*
X143689128Y-97471666D01*
X143662770Y-97474500D01*
X120887229Y-97474500D01*
X120820190Y-97454815D01*
X120799548Y-97438181D01*
X120486818Y-97125450D01*
X120453333Y-97064127D01*
X120450499Y-97037769D01*
X120450499Y-96352129D01*
X120450498Y-96352123D01*
X120444091Y-96292516D01*
X120393797Y-96157671D01*
X120393795Y-96157668D01*
X120368393Y-96123735D01*
X120313801Y-96050809D01*
X120289384Y-95985348D01*
X120304235Y-95917074D01*
X120353640Y-95867669D01*
X120413068Y-95852500D01*
X120722418Y-95852500D01*
X120722418Y-95852499D01*
X120808904Y-95835297D01*
X120843262Y-95828463D01*
X120883958Y-95811606D01*
X120957096Y-95781312D01*
X121013745Y-95743459D01*
X121059543Y-95712858D01*
X121146668Y-95625733D01*
X121146668Y-95625731D01*
X121156876Y-95615524D01*
X121156877Y-95615521D01*
X121387086Y-95385313D01*
X121448408Y-95351829D01*
X121518100Y-95356813D01*
X121574033Y-95398685D01*
X121589327Y-95425542D01*
X121623533Y-95508124D01*
X121623538Y-95508133D01*
X121694723Y-95614668D01*
X121694726Y-95614672D01*
X121785327Y-95705273D01*
X121785331Y-95705276D01*
X121891866Y-95776461D01*
X121891875Y-95776466D01*
X121910870Y-95784334D01*
X122010256Y-95825501D01*
X122010260Y-95825501D01*
X122010261Y-95825502D01*
X122135928Y-95850500D01*
X122135931Y-95850500D01*
X122264071Y-95850500D01*
X122374853Y-95828463D01*
X122389744Y-95825501D01*
X122508127Y-95776465D01*
X122614669Y-95705276D01*
X122705276Y-95614669D01*
X122776465Y-95508127D01*
X122825501Y-95389744D01*
X122838891Y-95322428D01*
X122850500Y-95264071D01*
X122850500Y-95150500D01*
X122870185Y-95083461D01*
X122922989Y-95037706D01*
X122974500Y-95026500D01*
X125288367Y-95026500D01*
X125348789Y-95014481D01*
X125409212Y-95002463D01*
X125442552Y-94988652D01*
X125523046Y-94955312D01*
X125574269Y-94921084D01*
X125625493Y-94886858D01*
X125712618Y-94799733D01*
X125712618Y-94799731D01*
X125722826Y-94789524D01*
X125722829Y-94789520D01*
X125850534Y-94661818D01*
X125911857Y-94628333D01*
X125938214Y-94625500D01*
X126061607Y-94625500D01*
X126122029Y-94613481D01*
X126182452Y-94601463D01*
X126225934Y-94583452D01*
X126296286Y-94554312D01*
X126360430Y-94511451D01*
X126398733Y-94485858D01*
X126485858Y-94398733D01*
X126485860Y-94398729D01*
X126722772Y-94161816D01*
X126784094Y-94128334D01*
X126810452Y-94125500D01*
X126836231Y-94125500D01*
X126836232Y-94125499D01*
X127005374Y-94091855D01*
X127164705Y-94025858D01*
X127308099Y-93930045D01*
X127430045Y-93808099D01*
X127525858Y-93664705D01*
X127526250Y-93663760D01*
X127560985Y-93579901D01*
X127591855Y-93505374D01*
X127625500Y-93336229D01*
X127625500Y-93163771D01*
X127625500Y-93163769D01*
X127625291Y-93161646D01*
X127625500Y-93160544D01*
X127625500Y-93157679D01*
X127626044Y-93157679D01*
X127638315Y-93093001D01*
X127686383Y-93042294D01*
X127748695Y-93025500D01*
X130243996Y-93025500D01*
X130335040Y-93007389D01*
X130379328Y-92998580D01*
X130443069Y-92972177D01*
X130506807Y-92945777D01*
X130506808Y-92945776D01*
X130506811Y-92945775D01*
X130621543Y-92869114D01*
X136503837Y-86986818D01*
X136565160Y-86953334D01*
X136591518Y-86950500D01*
X137055431Y-86950500D01*
X137122470Y-86970185D01*
G37*
%TD.AperFunction*%
%TA.AperFunction,Conductor*%
G36*
X133832492Y-87139119D02*
G01*
X133837075Y-87138792D01*
X133844278Y-87140907D01*
X133846566Y-87141254D01*
X134048797Y-87202331D01*
X134107282Y-87240557D01*
X134135816Y-87304334D01*
X134125340Y-87373414D01*
X134100627Y-87408716D01*
X129921162Y-91588181D01*
X129859839Y-91621666D01*
X129833481Y-91624500D01*
X120956005Y-91624500D01*
X120895833Y-91636469D01*
X120865747Y-91642454D01*
X120829636Y-91649636D01*
X120820670Y-91651420D01*
X120693189Y-91704224D01*
X120578455Y-91780887D01*
X120575057Y-91783676D01*
X120510744Y-91810984D01*
X120441878Y-91799186D01*
X120397134Y-91762127D01*
X120307546Y-91642454D01*
X120307544Y-91642452D01*
X120192335Y-91556206D01*
X120192328Y-91556202D01*
X120057482Y-91505908D01*
X120057483Y-91505908D01*
X119997883Y-91499501D01*
X119997881Y-91499500D01*
X119997873Y-91499500D01*
X119997865Y-91499500D01*
X119784143Y-91499500D01*
X119717104Y-91479815D01*
X119671349Y-91427011D01*
X119661405Y-91357853D01*
X119681041Y-91306609D01*
X119775854Y-91164711D01*
X119775854Y-91164710D01*
X119775858Y-91164705D01*
X119841855Y-91005374D01*
X119875500Y-90836229D01*
X119875500Y-90663771D01*
X119875500Y-90663768D01*
X119875499Y-90663766D01*
X119842863Y-90499691D01*
X119849090Y-90430100D01*
X119891953Y-90374922D01*
X119957843Y-90351678D01*
X119964480Y-90351500D01*
X130335607Y-90351500D01*
X130396029Y-90339481D01*
X130456452Y-90327463D01*
X130497513Y-90310455D01*
X130570286Y-90280312D01*
X130623597Y-90244690D01*
X130623599Y-90244689D01*
X130656130Y-90222951D01*
X130672733Y-90211858D01*
X130759858Y-90124733D01*
X130759858Y-90124731D01*
X130770066Y-90114524D01*
X130770067Y-90114521D01*
X133660858Y-87223733D01*
X133674408Y-87203452D01*
X133728019Y-87158647D01*
X133734160Y-87156167D01*
X133767331Y-87143796D01*
X133767332Y-87143794D01*
X133767383Y-87143776D01*
X133789931Y-87142163D01*
X133811671Y-87135962D01*
X133832492Y-87139119D01*
G37*
%TD.AperFunction*%
%TA.AperFunction,Conductor*%
G36*
X194659834Y-76827269D02*
G01*
X194715767Y-76869141D01*
X194740184Y-76934605D01*
X194740500Y-76943451D01*
X194740500Y-85573548D01*
X194720815Y-85640587D01*
X194704181Y-85661229D01*
X189778229Y-90587181D01*
X189716906Y-90620666D01*
X189690548Y-90623500D01*
X189107854Y-90623500D01*
X189040815Y-90603815D01*
X188995060Y-90551011D01*
X188985116Y-90481853D01*
X188995468Y-90447103D01*
X188996856Y-90444124D01*
X189052005Y-90277697D01*
X189052006Y-90277690D01*
X189062499Y-90174986D01*
X189062500Y-90174973D01*
X189062500Y-89750000D01*
X186937501Y-89750000D01*
X186937501Y-90174986D01*
X186947994Y-90277697D01*
X187003143Y-90444124D01*
X187004532Y-90447103D01*
X187004871Y-90449340D01*
X187005414Y-90450977D01*
X187005134Y-90451069D01*
X187015019Y-90516181D01*
X186986495Y-90579963D01*
X186928016Y-90618199D01*
X186892146Y-90623500D01*
X186183408Y-90623500D01*
X186116369Y-90603815D01*
X186070614Y-90551011D01*
X186060670Y-90481853D01*
X186071026Y-90447095D01*
X186072308Y-90444343D01*
X186072314Y-90444334D01*
X186127499Y-90277797D01*
X186138000Y-90175009D01*
X186137999Y-88825013D01*
X186937500Y-88825013D01*
X186937500Y-89250000D01*
X187750000Y-89250000D01*
X188250000Y-89250000D01*
X189062499Y-89250000D01*
X189062499Y-88825028D01*
X189062498Y-88825013D01*
X189052005Y-88722302D01*
X188996858Y-88555880D01*
X188996856Y-88555875D01*
X188904815Y-88406654D01*
X188780845Y-88282684D01*
X188631624Y-88190643D01*
X188631619Y-88190641D01*
X188465197Y-88135494D01*
X188465190Y-88135493D01*
X188362486Y-88125000D01*
X188250000Y-88125000D01*
X188250000Y-89250000D01*
X187750000Y-89250000D01*
X187750000Y-88125000D01*
X187637527Y-88125000D01*
X187637512Y-88125001D01*
X187534802Y-88135494D01*
X187368380Y-88190641D01*
X187368375Y-88190643D01*
X187219154Y-88282684D01*
X187095184Y-88406654D01*
X187003143Y-88555875D01*
X187003141Y-88555880D01*
X186947994Y-88722302D01*
X186947993Y-88722309D01*
X186937500Y-88825013D01*
X186137999Y-88825013D01*
X186137999Y-88824992D01*
X186127499Y-88722203D01*
X186072314Y-88555666D01*
X185980212Y-88406344D01*
X185856156Y-88282288D01*
X185706834Y-88190186D01*
X185540297Y-88135001D01*
X185540295Y-88135000D01*
X185437510Y-88124500D01*
X184712498Y-88124500D01*
X184712480Y-88124501D01*
X184609703Y-88135000D01*
X184609700Y-88135001D01*
X184443168Y-88190185D01*
X184443163Y-88190187D01*
X184293842Y-88282289D01*
X184169789Y-88406342D01*
X184077684Y-88555669D01*
X184075811Y-88561322D01*
X184036036Y-88618765D01*
X183971519Y-88645585D01*
X183933916Y-88643930D01*
X183836233Y-88624500D01*
X183836229Y-88624500D01*
X183663771Y-88624500D01*
X183663768Y-88624500D01*
X183494633Y-88658143D01*
X183494626Y-88658145D01*
X183430230Y-88684818D01*
X183360761Y-88692286D01*
X183298282Y-88661010D01*
X183265073Y-88609260D01*
X183263600Y-88604815D01*
X183247314Y-88555666D01*
X183155212Y-88406344D01*
X183031156Y-88282288D01*
X182881834Y-88190186D01*
X182715297Y-88135001D01*
X182715295Y-88135000D01*
X182612510Y-88124500D01*
X181887498Y-88124500D01*
X181887480Y-88124501D01*
X181784703Y-88135000D01*
X181784700Y-88135001D01*
X181618168Y-88190185D01*
X181618163Y-88190187D01*
X181468842Y-88282289D01*
X181344789Y-88406342D01*
X181252687Y-88555663D01*
X181252685Y-88555668D01*
X181234927Y-88609260D01*
X181197501Y-88722203D01*
X181197501Y-88722204D01*
X181197500Y-88722204D01*
X181187000Y-88824983D01*
X181187000Y-90175001D01*
X181187001Y-90175018D01*
X181197500Y-90277796D01*
X181197501Y-90277799D01*
X181218728Y-90341856D01*
X181252616Y-90444124D01*
X181252686Y-90444333D01*
X181253974Y-90447095D01*
X181254289Y-90449171D01*
X181254958Y-90451189D01*
X181254613Y-90451303D01*
X181264466Y-90516172D01*
X181235947Y-90579956D01*
X181177470Y-90618196D01*
X181141592Y-90623500D01*
X180433408Y-90623500D01*
X180366369Y-90603815D01*
X180320614Y-90551011D01*
X180310670Y-90481853D01*
X180321026Y-90447095D01*
X180322308Y-90444343D01*
X180322314Y-90444334D01*
X180377499Y-90277797D01*
X180388000Y-90175009D01*
X180387999Y-88824992D01*
X180377499Y-88722203D01*
X180322314Y-88555666D01*
X180230212Y-88406344D01*
X180106156Y-88282288D01*
X179956834Y-88190186D01*
X179790297Y-88135001D01*
X179790295Y-88135000D01*
X179687510Y-88124500D01*
X178962498Y-88124500D01*
X178962480Y-88124501D01*
X178859703Y-88135000D01*
X178859700Y-88135001D01*
X178693168Y-88190185D01*
X178693163Y-88190187D01*
X178543842Y-88282289D01*
X178419789Y-88406342D01*
X178419788Y-88406344D01*
X178328976Y-88553576D01*
X178323895Y-88561813D01*
X178322100Y-88560706D01*
X178317514Y-88565916D01*
X178310305Y-88581703D01*
X178294906Y-88591598D01*
X178282813Y-88605337D01*
X178265925Y-88610224D01*
X178251527Y-88619477D01*
X178216592Y-88624500D01*
X178216438Y-88624500D01*
X178149399Y-88604815D01*
X178128757Y-88588181D01*
X177265256Y-87724680D01*
X177231771Y-87663357D01*
X177236755Y-87593665D01*
X177278627Y-87537732D01*
X177344091Y-87513315D01*
X177352937Y-87512999D01*
X177540002Y-87512999D01*
X177540008Y-87512999D01*
X177642797Y-87502499D01*
X177809334Y-87447314D01*
X177958656Y-87355212D01*
X178082712Y-87231156D01*
X178174814Y-87081834D01*
X178229999Y-86915297D01*
X178240500Y-86812509D01*
X178240499Y-86087492D01*
X178239271Y-86075475D01*
X178229999Y-85984703D01*
X178229998Y-85984700D01*
X178209523Y-85922912D01*
X178174814Y-85818166D01*
X178082712Y-85668844D01*
X177958656Y-85544788D01*
X177809334Y-85452686D01*
X177642797Y-85397501D01*
X177642795Y-85397500D01*
X177540016Y-85387000D01*
X177540009Y-85387000D01*
X176737952Y-85387000D01*
X176670913Y-85367315D01*
X176650271Y-85350681D01*
X176099270Y-84799680D01*
X176065785Y-84738357D01*
X176070769Y-84668665D01*
X176112641Y-84612732D01*
X176178105Y-84588315D01*
X176186951Y-84587999D01*
X176189981Y-84587999D01*
X176189991Y-84588000D01*
X177540008Y-84587999D01*
X177642797Y-84577499D01*
X177809334Y-84522314D01*
X177958656Y-84430212D01*
X178082712Y-84306156D01*
X178174814Y-84156834D01*
X178229999Y-83990297D01*
X178240500Y-83887509D01*
X178240500Y-83749500D01*
X178260185Y-83682461D01*
X178312989Y-83636706D01*
X178364500Y-83625500D01*
X187561607Y-83625500D01*
X187622029Y-83613481D01*
X187682452Y-83601463D01*
X187719230Y-83586229D01*
X187796286Y-83554312D01*
X187856403Y-83514142D01*
X187898733Y-83485858D01*
X187985858Y-83398733D01*
X187985859Y-83398730D01*
X187992925Y-83391665D01*
X187992927Y-83391661D01*
X194528821Y-76855768D01*
X194590142Y-76822285D01*
X194659834Y-76827269D01*
G37*
%TD.AperFunction*%
%TA.AperFunction,Conductor*%
G36*
X182773795Y-57185185D02*
G01*
X182794437Y-57201819D01*
X185438181Y-59845563D01*
X185471666Y-59906886D01*
X185474500Y-59933244D01*
X185474500Y-64363770D01*
X185454815Y-64430809D01*
X185402011Y-64476564D01*
X185332853Y-64486508D01*
X185269297Y-64457483D01*
X185262819Y-64451451D01*
X183035989Y-62224621D01*
X183002504Y-62163298D01*
X183001168Y-62154815D01*
X182962052Y-61958170D01*
X182962051Y-61958169D01*
X182962051Y-61958165D01*
X182888373Y-61780289D01*
X182886635Y-61776092D01*
X182886628Y-61776079D01*
X182777139Y-61612218D01*
X182777136Y-61612214D01*
X182637785Y-61472863D01*
X182637781Y-61472860D01*
X182473920Y-61363371D01*
X182473907Y-61363364D01*
X182291839Y-61287950D01*
X182291829Y-61287947D01*
X182098543Y-61249500D01*
X182098541Y-61249500D01*
X181901459Y-61249500D01*
X181901457Y-61249500D01*
X181708170Y-61287947D01*
X181708160Y-61287950D01*
X181526092Y-61363364D01*
X181526079Y-61363371D01*
X181362218Y-61472860D01*
X181362214Y-61472863D01*
X181222863Y-61612214D01*
X181222860Y-61612218D01*
X181113371Y-61776079D01*
X181113364Y-61776092D01*
X181037950Y-61958160D01*
X181037947Y-61958170D01*
X180999500Y-62151456D01*
X180999500Y-62151459D01*
X180999500Y-62348541D01*
X180999500Y-62348543D01*
X180999499Y-62348543D01*
X181037947Y-62541829D01*
X181037950Y-62541839D01*
X181113364Y-62723907D01*
X181113371Y-62723920D01*
X181222860Y-62887781D01*
X181222863Y-62887785D01*
X181362214Y-63027136D01*
X181362218Y-63027139D01*
X181526079Y-63136628D01*
X181526092Y-63136635D01*
X181708160Y-63212049D01*
X181708165Y-63212051D01*
X181708169Y-63212051D01*
X181708170Y-63212052D01*
X181907434Y-63251689D01*
X181907075Y-63253491D01*
X181963876Y-63276423D01*
X181974621Y-63285989D01*
X185722019Y-67033387D01*
X185755504Y-67094710D01*
X185750520Y-67164402D01*
X185708648Y-67220335D01*
X185643184Y-67244752D01*
X185614941Y-67243541D01*
X185526287Y-67229500D01*
X185313713Y-67229500D01*
X185265042Y-67237208D01*
X185103760Y-67262753D01*
X184901585Y-67328444D01*
X184712179Y-67424951D01*
X184540213Y-67549890D01*
X184389890Y-67700213D01*
X184264949Y-67872182D01*
X184260484Y-67880946D01*
X184212509Y-67931742D01*
X184144688Y-67948536D01*
X184078553Y-67925998D01*
X184039516Y-67880946D01*
X184035050Y-67872182D01*
X183910109Y-67700213D01*
X183759786Y-67549890D01*
X183587820Y-67424951D01*
X183398414Y-67328444D01*
X183398413Y-67328443D01*
X183398412Y-67328443D01*
X183196243Y-67262754D01*
X183196241Y-67262753D01*
X183196240Y-67262753D01*
X183034957Y-67237208D01*
X182986287Y-67229500D01*
X182773713Y-67229500D01*
X182725042Y-67237208D01*
X182563760Y-67262753D01*
X182361585Y-67328444D01*
X182172179Y-67424951D01*
X182000213Y-67549890D01*
X181849890Y-67700213D01*
X181724949Y-67872182D01*
X181720484Y-67880946D01*
X181672509Y-67931742D01*
X181604688Y-67948536D01*
X181538553Y-67925998D01*
X181499516Y-67880946D01*
X181495050Y-67872182D01*
X181370109Y-67700213D01*
X181219786Y-67549890D01*
X181047820Y-67424951D01*
X180858414Y-67328444D01*
X180858413Y-67328443D01*
X180858412Y-67328443D01*
X180656243Y-67262754D01*
X180656241Y-67262753D01*
X180656240Y-67262753D01*
X180494957Y-67237208D01*
X180446287Y-67229500D01*
X180233713Y-67229500D01*
X180185042Y-67237208D01*
X180023760Y-67262753D01*
X179821585Y-67328444D01*
X179632179Y-67424951D01*
X179460213Y-67549890D01*
X179309890Y-67700213D01*
X179184949Y-67872182D01*
X179180202Y-67881499D01*
X179132227Y-67932293D01*
X179064405Y-67949087D01*
X178998271Y-67926548D01*
X178959234Y-67881495D01*
X178954622Y-67872444D01*
X178829728Y-67700541D01*
X178679464Y-67550276D01*
X178650000Y-67528868D01*
X178650000Y-69631128D01*
X178679468Y-69609719D01*
X178829723Y-69459464D01*
X178829727Y-69459459D01*
X178954620Y-69287558D01*
X178959232Y-69278507D01*
X179007205Y-69227709D01*
X179075025Y-69210912D01*
X179141161Y-69233447D01*
X179180204Y-69278504D01*
X179184949Y-69287817D01*
X179309890Y-69459786D01*
X179460213Y-69610109D01*
X179632179Y-69735048D01*
X179632181Y-69735049D01*
X179632184Y-69735051D01*
X179821588Y-69831557D01*
X180023757Y-69897246D01*
X180233713Y-69930500D01*
X180233714Y-69930500D01*
X180446286Y-69930500D01*
X180446287Y-69930500D01*
X180656243Y-69897246D01*
X180858412Y-69831557D01*
X181047816Y-69735051D01*
X181069789Y-69719086D01*
X181219786Y-69610109D01*
X181219788Y-69610106D01*
X181219792Y-69610104D01*
X181370104Y-69459792D01*
X181370106Y-69459788D01*
X181370109Y-69459786D01*
X181495048Y-69287820D01*
X181495047Y-69287820D01*
X181495051Y-69287816D01*
X181499514Y-69279054D01*
X181547488Y-69228259D01*
X181615308Y-69211463D01*
X181681444Y-69233999D01*
X181720486Y-69279056D01*
X181724951Y-69287820D01*
X181849890Y-69459786D01*
X182000213Y-69610109D01*
X182172179Y-69735048D01*
X182172181Y-69735049D01*
X182172184Y-69735051D01*
X182361588Y-69831557D01*
X182563757Y-69897246D01*
X182773713Y-69930500D01*
X182773714Y-69930500D01*
X182986286Y-69930500D01*
X182986287Y-69930500D01*
X183196243Y-69897246D01*
X183398412Y-69831557D01*
X183587816Y-69735051D01*
X183609789Y-69719086D01*
X183759786Y-69610109D01*
X183759788Y-69610106D01*
X183759792Y-69610104D01*
X183910104Y-69459792D01*
X183910106Y-69459788D01*
X183910109Y-69459786D01*
X184035048Y-69287820D01*
X184035047Y-69287820D01*
X184035051Y-69287816D01*
X184039514Y-69279054D01*
X184087488Y-69228259D01*
X184155308Y-69211463D01*
X184221444Y-69233999D01*
X184260486Y-69279056D01*
X184264951Y-69287820D01*
X184389890Y-69459786D01*
X184540213Y-69610109D01*
X184712179Y-69735048D01*
X184712181Y-69735049D01*
X184712184Y-69735051D01*
X184901588Y-69831557D01*
X185103757Y-69897246D01*
X185313713Y-69930500D01*
X185313714Y-69930500D01*
X185526286Y-69930500D01*
X185526287Y-69930500D01*
X185736243Y-69897246D01*
X185938412Y-69831557D01*
X186127816Y-69735051D01*
X186149789Y-69719086D01*
X186299786Y-69610109D01*
X186299788Y-69610106D01*
X186299792Y-69610104D01*
X186450104Y-69459792D01*
X186450106Y-69459788D01*
X186450109Y-69459786D01*
X186575048Y-69287820D01*
X186575047Y-69287820D01*
X186575051Y-69287816D01*
X186579514Y-69279054D01*
X186627488Y-69228259D01*
X186695308Y-69211463D01*
X186761444Y-69233999D01*
X186800486Y-69279056D01*
X186804951Y-69287820D01*
X186929890Y-69459786D01*
X187080213Y-69610109D01*
X187252179Y-69735048D01*
X187252181Y-69735049D01*
X187252184Y-69735051D01*
X187441588Y-69831557D01*
X187643757Y-69897246D01*
X187853713Y-69930500D01*
X187853714Y-69930500D01*
X188066286Y-69930500D01*
X188066287Y-69930500D01*
X188276243Y-69897246D01*
X188478412Y-69831557D01*
X188667816Y-69735051D01*
X188689789Y-69719086D01*
X188839786Y-69610109D01*
X188839788Y-69610106D01*
X188839792Y-69610104D01*
X188990104Y-69459792D01*
X188990106Y-69459788D01*
X188990109Y-69459786D01*
X189115048Y-69287820D01*
X189115047Y-69287820D01*
X189115051Y-69287816D01*
X189119514Y-69279054D01*
X189167488Y-69228259D01*
X189235308Y-69211463D01*
X189301444Y-69233999D01*
X189340486Y-69279056D01*
X189344951Y-69287820D01*
X189469890Y-69459786D01*
X189620213Y-69610109D01*
X189792179Y-69735048D01*
X189792181Y-69735049D01*
X189792184Y-69735051D01*
X189981588Y-69831557D01*
X190183757Y-69897246D01*
X190393713Y-69930500D01*
X190393714Y-69930500D01*
X190606286Y-69930500D01*
X190606287Y-69930500D01*
X190816243Y-69897246D01*
X191018412Y-69831557D01*
X191207816Y-69735051D01*
X191324139Y-69650538D01*
X191358318Y-69625706D01*
X191424124Y-69602226D01*
X191492178Y-69618052D01*
X191529579Y-69650538D01*
X191646110Y-69802405D01*
X191646116Y-69802412D01*
X191817587Y-69973883D01*
X191817594Y-69973889D01*
X192009990Y-70121519D01*
X192189999Y-70225447D01*
X192190000Y-70225447D01*
X192190000Y-68704000D01*
X192209685Y-68636961D01*
X192262489Y-68591206D01*
X192314000Y-68580000D01*
X192540000Y-68580000D01*
X192540000Y-68645826D01*
X192574075Y-68772993D01*
X192639901Y-68887007D01*
X192732993Y-68980099D01*
X192847007Y-69045925D01*
X192974174Y-69080000D01*
X193105826Y-69080000D01*
X193232993Y-69045925D01*
X193347007Y-68980099D01*
X193440099Y-68887007D01*
X193505925Y-68772993D01*
X193540000Y-68645826D01*
X193540000Y-68607141D01*
X193579294Y-68652489D01*
X193590500Y-68704000D01*
X193590500Y-74796770D01*
X193570815Y-74863809D01*
X193554181Y-74884451D01*
X186975451Y-81463181D01*
X186914128Y-81496666D01*
X186887770Y-81499500D01*
X174862229Y-81499500D01*
X174795190Y-81479815D01*
X174774548Y-81463181D01*
X173577421Y-80266052D01*
X173577414Y-80266046D01*
X173499733Y-80214142D01*
X173499732Y-80214142D01*
X173454501Y-80183919D01*
X173454488Y-80183912D01*
X173317917Y-80127343D01*
X173317907Y-80127340D01*
X173172920Y-80098500D01*
X173172918Y-80098500D01*
X167037082Y-80098500D01*
X167023172Y-80101267D01*
X167023171Y-80101267D01*
X166892095Y-80127339D01*
X166892087Y-80127341D01*
X166828935Y-80153500D01*
X166755508Y-80183914D01*
X166755498Y-80183919D01*
X166710268Y-80214142D01*
X166632582Y-80266049D01*
X166127045Y-80771586D01*
X166093572Y-80821686D01*
X166093570Y-80821689D01*
X166044919Y-80894499D01*
X166044912Y-80894511D01*
X165988343Y-81031082D01*
X165988340Y-81031092D01*
X165959500Y-81176079D01*
X165959500Y-81442513D01*
X165944333Y-81501939D01*
X165941203Y-81507670D01*
X165890908Y-81642517D01*
X165884501Y-81702116D01*
X165884500Y-81702135D01*
X165884500Y-82212770D01*
X165864815Y-82279809D01*
X165848181Y-82300451D01*
X165465181Y-82683451D01*
X165403858Y-82716936D01*
X165334166Y-82711952D01*
X165289819Y-82683451D01*
X165188657Y-82582289D01*
X165188656Y-82582288D01*
X165039334Y-82490186D01*
X164872797Y-82435001D01*
X164872795Y-82435000D01*
X164770010Y-82424500D01*
X163369998Y-82424500D01*
X163369981Y-82424501D01*
X163267203Y-82435000D01*
X163267200Y-82435001D01*
X163100668Y-82490185D01*
X163100663Y-82490187D01*
X162951342Y-82582289D01*
X162827289Y-82706342D01*
X162735187Y-82855663D01*
X162735184Y-82855671D01*
X162723972Y-82889506D01*
X162710102Y-82909537D01*
X162699980Y-82931703D01*
X162690567Y-82937751D01*
X162684199Y-82946950D01*
X162661700Y-82956303D01*
X162641202Y-82969477D01*
X162624098Y-82971936D01*
X162619683Y-82973772D01*
X162606267Y-82974500D01*
X162396521Y-82974500D01*
X162329482Y-82954815D01*
X162283727Y-82902011D01*
X162280339Y-82893833D01*
X162253797Y-82822671D01*
X162253793Y-82822664D01*
X162167547Y-82707455D01*
X162167544Y-82707452D01*
X162052335Y-82621206D01*
X162052328Y-82621202D01*
X161917482Y-82570908D01*
X161917483Y-82570908D01*
X161857883Y-82564501D01*
X161857881Y-82564500D01*
X161857873Y-82564500D01*
X161857864Y-82564500D01*
X160442129Y-82564500D01*
X160442123Y-82564501D01*
X160382516Y-82570908D01*
X160247671Y-82621202D01*
X160247664Y-82621206D01*
X160132457Y-82707451D01*
X160126723Y-82713185D01*
X160065398Y-82746667D01*
X160039045Y-82749500D01*
X157836868Y-82749500D01*
X157769829Y-82729815D01*
X157748653Y-82710616D01*
X157747819Y-82711451D01*
X157618657Y-82582289D01*
X157618656Y-82582288D01*
X157469334Y-82490186D01*
X157302797Y-82435001D01*
X157302795Y-82435000D01*
X157200010Y-82424500D01*
X155799998Y-82424500D01*
X155799981Y-82424501D01*
X155697203Y-82435000D01*
X155697200Y-82435001D01*
X155530668Y-82490185D01*
X155530663Y-82490187D01*
X155381342Y-82582289D01*
X155257289Y-82706342D01*
X155165187Y-82855663D01*
X155165185Y-82855668D01*
X155145932Y-82913771D01*
X155110001Y-83022203D01*
X155110001Y-83022204D01*
X155110000Y-83022204D01*
X155099500Y-83124983D01*
X155099500Y-83875001D01*
X155099501Y-83875019D01*
X155110000Y-83977796D01*
X155110001Y-83977799D01*
X155165185Y-84144331D01*
X155165187Y-84144336D01*
X155177101Y-84163652D01*
X155257288Y-84293656D01*
X155381344Y-84417712D01*
X155530666Y-84509814D01*
X155697203Y-84564999D01*
X155799991Y-84575500D01*
X157200008Y-84575499D01*
X157302797Y-84564999D01*
X157469334Y-84509814D01*
X157618656Y-84417712D01*
X157742712Y-84293656D01*
X157742712Y-84293655D01*
X157747819Y-84288549D01*
X157749705Y-84290435D01*
X157796625Y-84257212D01*
X157836868Y-84250500D01*
X158627081Y-84250500D01*
X158694120Y-84270185D01*
X158739875Y-84322989D01*
X158749819Y-84392147D01*
X158737566Y-84430795D01*
X158674524Y-84554520D01*
X158618075Y-84728251D01*
X158618075Y-84728252D01*
X158589500Y-84908667D01*
X158589500Y-85091332D01*
X158618075Y-85271747D01*
X158618075Y-85271748D01*
X158618076Y-85271751D01*
X158674523Y-85445477D01*
X158757452Y-85608234D01*
X158864821Y-85756015D01*
X158993985Y-85885179D01*
X159141766Y-85992548D01*
X159304523Y-86075477D01*
X159478249Y-86131924D01*
X159658667Y-86160500D01*
X159658668Y-86160500D01*
X159841332Y-86160500D01*
X159841333Y-86160500D01*
X159846597Y-86159666D01*
X159915890Y-86168617D01*
X159969344Y-86213611D01*
X159989987Y-86280362D01*
X159990000Y-86282138D01*
X159990000Y-86366299D01*
X160018562Y-86546630D01*
X160074987Y-86720287D01*
X160157880Y-86882975D01*
X160170753Y-86900692D01*
X160716026Y-86355419D01*
X160739985Y-86444834D01*
X160797912Y-86545166D01*
X160879834Y-86627088D01*
X160980166Y-86685015D01*
X161069579Y-86708972D01*
X160524305Y-87254245D01*
X160524306Y-87254246D01*
X160542016Y-87267113D01*
X160542025Y-87267119D01*
X160704712Y-87350012D01*
X160878369Y-87406437D01*
X161058701Y-87435000D01*
X161241299Y-87435000D01*
X161421630Y-87406437D01*
X161595287Y-87350012D01*
X161757975Y-87267119D01*
X161757979Y-87267117D01*
X161775692Y-87254246D01*
X161775693Y-87254245D01*
X161230420Y-86708972D01*
X161319834Y-86685015D01*
X161420166Y-86627088D01*
X161502088Y-86545166D01*
X161560015Y-86444834D01*
X161583973Y-86355420D01*
X162129246Y-86900693D01*
X162129246Y-86900692D01*
X162142117Y-86882979D01*
X162142119Y-86882975D01*
X162171666Y-86824986D01*
X162670001Y-86824986D01*
X162680494Y-86927697D01*
X162735641Y-87094119D01*
X162735643Y-87094124D01*
X162827684Y-87243345D01*
X162951654Y-87367315D01*
X163100875Y-87459356D01*
X163100880Y-87459358D01*
X163267302Y-87514505D01*
X163267309Y-87514506D01*
X163370019Y-87524999D01*
X163819999Y-87524999D01*
X164320000Y-87524999D01*
X164769972Y-87524999D01*
X164769986Y-87524998D01*
X164872697Y-87514505D01*
X165039119Y-87459358D01*
X165039124Y-87459356D01*
X165188345Y-87367315D01*
X165312315Y-87243345D01*
X165404356Y-87094124D01*
X165404358Y-87094119D01*
X165459505Y-86927697D01*
X165459506Y-86927690D01*
X165469999Y-86824986D01*
X165470000Y-86824973D01*
X165470000Y-86700000D01*
X164320000Y-86700000D01*
X164320000Y-87524999D01*
X163819999Y-87524999D01*
X163820000Y-87524998D01*
X163820000Y-86700000D01*
X162670001Y-86700000D01*
X162670001Y-86824986D01*
X162171666Y-86824986D01*
X162225011Y-86720289D01*
X162260744Y-86610319D01*
X162260744Y-86610318D01*
X162281437Y-86546631D01*
X162281437Y-86546630D01*
X162310000Y-86366299D01*
X162310000Y-86183700D01*
X162281437Y-86003369D01*
X162225012Y-85829710D01*
X162212827Y-85805796D01*
X162199930Y-85737127D01*
X162226206Y-85672386D01*
X162283312Y-85632129D01*
X162323311Y-85625500D01*
X162625113Y-85625500D01*
X162692152Y-85645185D01*
X162737907Y-85697989D01*
X162747851Y-85767147D01*
X162737496Y-85801904D01*
X162735641Y-85805881D01*
X162680494Y-85972302D01*
X162680493Y-85972309D01*
X162670000Y-86075013D01*
X162670000Y-86200000D01*
X165469999Y-86200000D01*
X165469999Y-86075028D01*
X165469998Y-86075013D01*
X165459505Y-85972302D01*
X165404358Y-85805880D01*
X165404354Y-85805871D01*
X165386091Y-85776262D01*
X165381110Y-85758059D01*
X165371482Y-85741831D01*
X165372081Y-85725060D01*
X165367651Y-85708870D01*
X165373302Y-85690863D01*
X165373976Y-85672006D01*
X165383547Y-85658220D01*
X165388574Y-85642206D01*
X165403063Y-85630113D01*
X165413825Y-85614614D01*
X165440839Y-85598585D01*
X165442216Y-85597437D01*
X165444084Y-85596644D01*
X165492911Y-85576420D01*
X165492912Y-85576419D01*
X165492914Y-85576419D01*
X165546281Y-85554314D01*
X165546280Y-85554314D01*
X165546286Y-85554312D01*
X165597509Y-85520084D01*
X165648733Y-85485858D01*
X165735858Y-85398733D01*
X165735859Y-85398731D01*
X165742925Y-85391665D01*
X165742927Y-85391661D01*
X166896771Y-84237819D01*
X166958094Y-84204334D01*
X166984452Y-84201500D01*
X168811607Y-84201500D01*
X168872029Y-84189481D01*
X168932452Y-84177463D01*
X168965792Y-84163652D01*
X169046286Y-84130312D01*
X169098170Y-84095643D01*
X169148733Y-84061858D01*
X169221820Y-83988770D01*
X169283141Y-83955287D01*
X169352833Y-83960271D01*
X169397181Y-83988772D01*
X171033727Y-85625319D01*
X171067212Y-85686642D01*
X171062228Y-85756334D01*
X171020356Y-85812267D01*
X170954892Y-85836684D01*
X170946046Y-85837000D01*
X168355888Y-85837000D01*
X168235055Y-85861035D01*
X168235047Y-85861037D01*
X168121216Y-85908187D01*
X168018765Y-85976642D01*
X168018762Y-85976645D01*
X167675455Y-86319954D01*
X167581269Y-86414140D01*
X167581267Y-86414142D01*
X167553512Y-86441897D01*
X167494142Y-86501266D01*
X167470284Y-86536972D01*
X167470276Y-86536984D01*
X167468167Y-86540142D01*
X167425688Y-86603714D01*
X167411650Y-86637604D01*
X167407430Y-86644848D01*
X167387885Y-86663335D01*
X167371008Y-86684279D01*
X167362888Y-86686981D01*
X167356672Y-86692862D01*
X167330237Y-86697848D01*
X167304714Y-86706343D01*
X167294219Y-86704642D01*
X167288013Y-86705813D01*
X167279053Y-86702184D01*
X167256958Y-86698604D01*
X167142488Y-86655910D01*
X167142484Y-86655909D01*
X167142483Y-86655909D01*
X167082873Y-86649500D01*
X167082863Y-86649500D01*
X166337129Y-86649500D01*
X166337123Y-86649501D01*
X166277516Y-86655908D01*
X166142671Y-86706202D01*
X166142664Y-86706206D01*
X166027455Y-86792452D01*
X166027452Y-86792455D01*
X165941206Y-86907664D01*
X165941202Y-86907671D01*
X165890908Y-87042517D01*
X165885060Y-87096918D01*
X165884500Y-87102127D01*
X165884500Y-87724680D01*
X165884501Y-88250500D01*
X165864816Y-88317539D01*
X165812013Y-88363294D01*
X165760501Y-88374500D01*
X151060452Y-88374500D01*
X150993413Y-88354815D01*
X150972771Y-88338181D01*
X149543150Y-86908560D01*
X149535860Y-86901270D01*
X149535858Y-86901267D01*
X149459577Y-86824986D01*
X155100001Y-86824986D01*
X155110494Y-86927697D01*
X155165641Y-87094119D01*
X155165643Y-87094124D01*
X155257684Y-87243345D01*
X155381654Y-87367315D01*
X155530875Y-87459356D01*
X155530880Y-87459358D01*
X155697302Y-87514505D01*
X155697309Y-87514506D01*
X155800019Y-87524999D01*
X156249999Y-87524999D01*
X156750000Y-87524999D01*
X157199972Y-87524999D01*
X157199986Y-87524998D01*
X157302697Y-87514505D01*
X157469119Y-87459358D01*
X157469124Y-87459356D01*
X157618345Y-87367315D01*
X157742316Y-87243344D01*
X157742319Y-87243340D01*
X157804896Y-87141889D01*
X157834354Y-87094128D01*
X157834358Y-87094119D01*
X157889505Y-86927697D01*
X157889506Y-86927690D01*
X157899999Y-86824986D01*
X157900000Y-86824973D01*
X157900000Y-86700000D01*
X156750000Y-86700000D01*
X156750000Y-87524999D01*
X156249999Y-87524999D01*
X156250000Y-87524998D01*
X156250000Y-86700000D01*
X155100001Y-86700000D01*
X155100001Y-86824986D01*
X149459577Y-86824986D01*
X149448733Y-86814142D01*
X149397509Y-86779915D01*
X149346286Y-86745688D01*
X149346283Y-86745686D01*
X149346280Y-86745685D01*
X149265792Y-86712347D01*
X149232452Y-86698537D01*
X149232453Y-86698537D01*
X149217309Y-86695524D01*
X149156316Y-86683393D01*
X149133961Y-86678946D01*
X149111608Y-86674500D01*
X149111607Y-86674500D01*
X149111606Y-86674500D01*
X148895662Y-86674500D01*
X148828623Y-86654815D01*
X148782868Y-86602011D01*
X148781100Y-86597951D01*
X148775858Y-86585295D01*
X148775854Y-86585288D01*
X148680045Y-86441901D01*
X148680042Y-86441897D01*
X148558102Y-86319957D01*
X148558098Y-86319954D01*
X148414711Y-86224145D01*
X148414702Y-86224140D01*
X148323648Y-86186425D01*
X148323646Y-86186424D01*
X148255378Y-86158146D01*
X148255366Y-86158143D01*
X148086232Y-86124500D01*
X148086229Y-86124500D01*
X147913771Y-86124500D01*
X147913768Y-86124500D01*
X147744633Y-86158143D01*
X147744621Y-86158146D01*
X147585301Y-86224138D01*
X147585288Y-86224145D01*
X147441901Y-86319954D01*
X147441897Y-86319957D01*
X147319957Y-86441897D01*
X147319954Y-86441901D01*
X147224145Y-86585288D01*
X147224138Y-86585301D01*
X147158146Y-86744621D01*
X147158143Y-86744633D01*
X147124500Y-86913766D01*
X147124500Y-87086233D01*
X147158143Y-87255366D01*
X147158146Y-87255378D01*
X147224138Y-87414698D01*
X147224145Y-87414711D01*
X147319954Y-87558098D01*
X147319957Y-87558102D01*
X147441897Y-87680042D01*
X147441901Y-87680045D01*
X147585288Y-87775854D01*
X147585301Y-87775861D01*
X147744621Y-87841853D01*
X147744626Y-87841855D01*
X147913766Y-87875499D01*
X147913769Y-87875500D01*
X147913771Y-87875500D01*
X148030205Y-87875500D01*
X148038374Y-87877124D01*
X148043446Y-87876209D01*
X148077643Y-87884933D01*
X148084194Y-87887646D01*
X148084205Y-87887655D01*
X148084207Y-87887652D01*
X148117548Y-87901463D01*
X148177971Y-87913481D01*
X148238393Y-87925500D01*
X148238394Y-87925500D01*
X148739548Y-87925500D01*
X148806587Y-87945185D01*
X148827229Y-87961819D01*
X150264139Y-89398729D01*
X150264142Y-89398733D01*
X150351267Y-89485858D01*
X150375341Y-89501943D01*
X150382648Y-89508747D01*
X150395584Y-89530551D01*
X150411846Y-89550009D01*
X150413112Y-89560095D01*
X150418299Y-89568837D01*
X150417393Y-89594175D01*
X150420553Y-89619334D01*
X150416166Y-89628503D01*
X150415803Y-89638662D01*
X150401341Y-89659490D01*
X150390399Y-89682362D01*
X150381751Y-89687703D01*
X150375954Y-89696054D01*
X150352526Y-89705757D01*
X150330956Y-89719082D01*
X150315246Y-89721197D01*
X150311402Y-89722790D01*
X150307991Y-89722174D01*
X150298150Y-89723500D01*
X145664258Y-89723500D01*
X145597219Y-89703815D01*
X145551464Y-89651011D01*
X145541520Y-89581853D01*
X145542641Y-89575309D01*
X145554575Y-89515309D01*
X145554576Y-89515307D01*
X145554576Y-89342844D01*
X145554575Y-89342842D01*
X145538921Y-89264143D01*
X145520931Y-89173702D01*
X145512238Y-89152715D01*
X145454937Y-89014377D01*
X145454930Y-89014364D01*
X145359121Y-88870977D01*
X145359118Y-88870973D01*
X145237178Y-88749033D01*
X145237174Y-88749030D01*
X145093787Y-88653221D01*
X145093774Y-88653214D01*
X144934454Y-88587222D01*
X144934442Y-88587219D01*
X144765308Y-88553576D01*
X144765305Y-88553576D01*
X144592847Y-88553576D01*
X144592844Y-88553576D01*
X144423709Y-88587219D01*
X144423697Y-88587222D01*
X144357490Y-88614646D01*
X144288020Y-88622115D01*
X144225541Y-88590839D01*
X144222357Y-88587766D01*
X141709604Y-86075013D01*
X155100000Y-86075013D01*
X155100000Y-86200000D01*
X156250000Y-86200000D01*
X156750000Y-86200000D01*
X157899999Y-86200000D01*
X157899999Y-86075028D01*
X157899998Y-86075013D01*
X157889505Y-85972302D01*
X157834358Y-85805880D01*
X157834356Y-85805875D01*
X157742315Y-85656654D01*
X157618345Y-85532684D01*
X157469124Y-85440643D01*
X157469119Y-85440641D01*
X157302697Y-85385494D01*
X157302690Y-85385493D01*
X157199986Y-85375000D01*
X156750000Y-85375000D01*
X156750000Y-86200000D01*
X156250000Y-86200000D01*
X156250000Y-85375000D01*
X155800028Y-85375000D01*
X155800012Y-85375001D01*
X155697302Y-85385494D01*
X155530880Y-85440641D01*
X155530875Y-85440643D01*
X155381654Y-85532684D01*
X155257684Y-85656654D01*
X155165643Y-85805875D01*
X155165641Y-85805880D01*
X155110494Y-85972302D01*
X155110493Y-85972309D01*
X155100000Y-86075013D01*
X141709604Y-86075013D01*
X139034819Y-83400228D01*
X139001334Y-83338905D01*
X138998500Y-83312547D01*
X138998500Y-80437452D01*
X139018185Y-80370413D01*
X139034819Y-80349771D01*
X140222772Y-79161819D01*
X140284095Y-79128334D01*
X140310453Y-79125500D01*
X145948184Y-79125500D01*
X146015223Y-79145185D01*
X146035865Y-79161819D01*
X146723775Y-79849729D01*
X146723778Y-79849733D01*
X146810903Y-79936858D01*
X146862126Y-79971084D01*
X146913350Y-80005312D01*
X146913351Y-80005312D01*
X146913352Y-80005313D01*
X146987026Y-80035829D01*
X146987030Y-80035830D01*
X146993843Y-80038652D01*
X147027184Y-80052463D01*
X147087607Y-80064481D01*
X147148029Y-80076500D01*
X147851971Y-80076500D01*
X147912393Y-80064481D01*
X147972816Y-80052463D01*
X148006156Y-80038652D01*
X148086650Y-80005312D01*
X148137873Y-79971084D01*
X148189097Y-79936858D01*
X148276222Y-79849733D01*
X148276223Y-79849731D01*
X148283289Y-79842665D01*
X148283292Y-79842661D01*
X148599729Y-79526224D01*
X148599733Y-79526222D01*
X148686858Y-79439097D01*
X148729352Y-79375500D01*
X148755312Y-79336650D01*
X148790678Y-79251267D01*
X148802463Y-79222816D01*
X148817804Y-79145689D01*
X148826500Y-79101971D01*
X148826500Y-78978757D01*
X148826500Y-77018741D01*
X148826501Y-77018720D01*
X148826501Y-76889391D01*
X148802464Y-76768555D01*
X148802463Y-76768549D01*
X148755312Y-76654715D01*
X148686858Y-76552267D01*
X148686855Y-76552263D01*
X148411819Y-76277227D01*
X148378334Y-76215904D01*
X148375500Y-76189546D01*
X148375500Y-76163768D01*
X148375499Y-76163766D01*
X148367298Y-76122537D01*
X148341855Y-75994626D01*
X148341853Y-75994621D01*
X148275861Y-75835301D01*
X148275854Y-75835288D01*
X148180045Y-75691901D01*
X148180042Y-75691897D01*
X148058102Y-75569957D01*
X148058098Y-75569954D01*
X147914711Y-75474145D01*
X147914698Y-75474138D01*
X147755378Y-75408146D01*
X147755366Y-75408143D01*
X147586232Y-75374500D01*
X147586229Y-75374500D01*
X147413771Y-75374500D01*
X147413768Y-75374500D01*
X147244633Y-75408143D01*
X147244621Y-75408146D01*
X147085301Y-75474138D01*
X147085288Y-75474145D01*
X146941901Y-75569954D01*
X146941897Y-75569957D01*
X146819957Y-75691897D01*
X146819954Y-75691901D01*
X146724145Y-75835288D01*
X146724138Y-75835301D01*
X146658146Y-75994621D01*
X146658143Y-75994633D01*
X146624500Y-76163766D01*
X146624500Y-76336233D01*
X146658143Y-76505366D01*
X146658146Y-76505378D01*
X146724138Y-76664698D01*
X146724144Y-76664709D01*
X146735437Y-76681610D01*
X146756314Y-76748288D01*
X146737829Y-76815668D01*
X146685850Y-76862357D01*
X146632334Y-76874500D01*
X140559452Y-76874500D01*
X140492413Y-76854815D01*
X140446658Y-76802011D01*
X140436714Y-76732853D01*
X140465739Y-76669297D01*
X140471771Y-76662819D01*
X146422772Y-70711819D01*
X146484095Y-70678334D01*
X146510453Y-70675500D01*
X153531608Y-70675500D01*
X153531608Y-70675499D01*
X153618858Y-70658145D01*
X153652452Y-70651463D01*
X153706202Y-70629199D01*
X153766286Y-70604312D01*
X153821306Y-70567548D01*
X153868733Y-70535858D01*
X153955858Y-70448733D01*
X153955859Y-70448731D01*
X153962925Y-70441665D01*
X153962928Y-70441661D01*
X154482162Y-69922426D01*
X154543483Y-69888943D01*
X154608162Y-69892179D01*
X154623757Y-69897246D01*
X154833713Y-69930500D01*
X154833714Y-69930500D01*
X155046286Y-69930500D01*
X155046287Y-69930500D01*
X155256243Y-69897246D01*
X155458412Y-69831557D01*
X155647816Y-69735051D01*
X155669789Y-69719086D01*
X155819786Y-69610109D01*
X155819788Y-69610106D01*
X155819792Y-69610104D01*
X155970104Y-69459792D01*
X155970106Y-69459788D01*
X155970109Y-69459786D01*
X156095048Y-69287820D01*
X156095047Y-69287820D01*
X156095051Y-69287816D01*
X156099514Y-69279054D01*
X156147488Y-69228259D01*
X156215308Y-69211463D01*
X156281444Y-69233999D01*
X156320486Y-69279056D01*
X156324951Y-69287820D01*
X156449890Y-69459786D01*
X156600213Y-69610109D01*
X156772179Y-69735048D01*
X156772181Y-69735049D01*
X156772184Y-69735051D01*
X156961588Y-69831557D01*
X157163757Y-69897246D01*
X157373713Y-69930500D01*
X157373714Y-69930500D01*
X157586286Y-69930500D01*
X157586287Y-69930500D01*
X157796243Y-69897246D01*
X157998412Y-69831557D01*
X158187816Y-69735051D01*
X158209789Y-69719086D01*
X158359786Y-69610109D01*
X158359788Y-69610106D01*
X158359792Y-69610104D01*
X158510104Y-69459792D01*
X158510106Y-69459788D01*
X158510109Y-69459786D01*
X158635048Y-69287820D01*
X158635047Y-69287820D01*
X158635051Y-69287816D01*
X158639514Y-69279054D01*
X158687488Y-69228259D01*
X158755308Y-69211463D01*
X158821444Y-69233999D01*
X158860486Y-69279056D01*
X158864951Y-69287820D01*
X158989890Y-69459786D01*
X159140213Y-69610109D01*
X159312179Y-69735048D01*
X159312181Y-69735049D01*
X159312184Y-69735051D01*
X159501588Y-69831557D01*
X159703757Y-69897246D01*
X159913713Y-69930500D01*
X159913714Y-69930500D01*
X160126286Y-69930500D01*
X160126287Y-69930500D01*
X160336243Y-69897246D01*
X160538412Y-69831557D01*
X160727816Y-69735051D01*
X160749789Y-69719086D01*
X160899786Y-69610109D01*
X160899788Y-69610106D01*
X160899792Y-69610104D01*
X161050104Y-69459792D01*
X161050106Y-69459788D01*
X161050109Y-69459786D01*
X161175048Y-69287820D01*
X161175047Y-69287820D01*
X161175051Y-69287816D01*
X161179514Y-69279054D01*
X161227488Y-69228259D01*
X161295308Y-69211463D01*
X161361444Y-69233999D01*
X161400486Y-69279056D01*
X161404951Y-69287820D01*
X161529890Y-69459786D01*
X161680213Y-69610109D01*
X161852179Y-69735048D01*
X161852181Y-69735049D01*
X161852184Y-69735051D01*
X162041588Y-69831557D01*
X162243757Y-69897246D01*
X162453713Y-69930500D01*
X162453714Y-69930500D01*
X162666286Y-69930500D01*
X162666287Y-69930500D01*
X162876243Y-69897246D01*
X163078412Y-69831557D01*
X163267816Y-69735051D01*
X163289789Y-69719086D01*
X163439786Y-69610109D01*
X163439788Y-69610106D01*
X163439792Y-69610104D01*
X163590104Y-69459792D01*
X163590106Y-69459788D01*
X163590109Y-69459786D01*
X163715048Y-69287820D01*
X163715047Y-69287820D01*
X163715051Y-69287816D01*
X163719514Y-69279054D01*
X163767488Y-69228259D01*
X163835308Y-69211463D01*
X163901444Y-69233999D01*
X163940486Y-69279056D01*
X163944951Y-69287820D01*
X164069890Y-69459786D01*
X164220213Y-69610109D01*
X164392181Y-69735050D01*
X164406792Y-69742494D01*
X164457589Y-69790467D01*
X164474500Y-69852980D01*
X164474500Y-71735993D01*
X164454815Y-71803032D01*
X164438181Y-71823674D01*
X164319957Y-71941897D01*
X164319954Y-71941901D01*
X164224145Y-72085288D01*
X164224138Y-72085301D01*
X164158146Y-72244621D01*
X164158143Y-72244633D01*
X164124500Y-72413766D01*
X164124500Y-72586233D01*
X164158143Y-72755366D01*
X164158146Y-72755378D01*
X164224138Y-72914698D01*
X164224145Y-72914711D01*
X164319954Y-73058098D01*
X164319957Y-73058102D01*
X164441897Y-73180042D01*
X164441901Y-73180045D01*
X164585288Y-73275854D01*
X164585301Y-73275861D01*
X164744621Y-73341853D01*
X164744626Y-73341855D01*
X164913766Y-73375499D01*
X164913769Y-73375500D01*
X164913771Y-73375500D01*
X165086231Y-73375500D01*
X165086232Y-73375499D01*
X165255374Y-73341855D01*
X165414705Y-73275858D01*
X165558099Y-73180045D01*
X165680045Y-73058099D01*
X165775858Y-72914705D01*
X165841855Y-72755374D01*
X165875500Y-72586229D01*
X165875500Y-72413771D01*
X165875500Y-72413768D01*
X165875499Y-72413766D01*
X165861195Y-72341855D01*
X165841855Y-72244626D01*
X165815105Y-72180045D01*
X165775861Y-72085301D01*
X165775854Y-72085288D01*
X165746398Y-72041204D01*
X165725520Y-71974526D01*
X165725500Y-71972313D01*
X165725500Y-69852980D01*
X165745185Y-69785941D01*
X165793208Y-69742494D01*
X165807818Y-69735050D01*
X165979786Y-69610109D01*
X165979788Y-69610106D01*
X165979792Y-69610104D01*
X166130104Y-69459792D01*
X166130106Y-69459788D01*
X166130109Y-69459786D01*
X166255048Y-69287820D01*
X166255047Y-69287820D01*
X166255051Y-69287816D01*
X166259514Y-69279054D01*
X166307488Y-69228259D01*
X166375308Y-69211463D01*
X166441444Y-69233999D01*
X166480486Y-69279056D01*
X166484951Y-69287820D01*
X166609890Y-69459786D01*
X166760213Y-69610109D01*
X166932181Y-69735050D01*
X166946792Y-69742494D01*
X166997589Y-69790467D01*
X167014500Y-69852980D01*
X167014500Y-71335994D01*
X166994815Y-71403033D01*
X166978183Y-71423673D01*
X166959957Y-71441898D01*
X166959953Y-71441904D01*
X166864146Y-71585288D01*
X166864139Y-71585301D01*
X166798147Y-71744621D01*
X166798144Y-71744633D01*
X166764501Y-71913766D01*
X166764501Y-72086233D01*
X166798144Y-72255366D01*
X166798147Y-72255378D01*
X166864139Y-72414698D01*
X166864146Y-72414711D01*
X166959955Y-72558098D01*
X166959958Y-72558102D01*
X167081898Y-72680042D01*
X167081902Y-72680045D01*
X167225289Y-72775854D01*
X167225302Y-72775861D01*
X167384622Y-72841853D01*
X167384627Y-72841855D01*
X167553767Y-72875499D01*
X167553770Y-72875500D01*
X167553772Y-72875500D01*
X167726232Y-72875500D01*
X167726233Y-72875499D01*
X167895375Y-72841855D01*
X168054706Y-72775858D01*
X168198100Y-72680045D01*
X168320046Y-72558099D01*
X168415859Y-72414705D01*
X168481856Y-72255374D01*
X168515501Y-72086229D01*
X168515501Y-71913771D01*
X168515501Y-71913768D01*
X168515500Y-71913766D01*
X168506339Y-71867712D01*
X168481856Y-71744626D01*
X168478280Y-71735993D01*
X168415862Y-71585301D01*
X168415855Y-71585288D01*
X168320046Y-71441901D01*
X168320043Y-71441897D01*
X168301819Y-71423673D01*
X168268334Y-71362350D01*
X168265500Y-71335992D01*
X168265500Y-69852980D01*
X168285185Y-69785941D01*
X168333210Y-69742493D01*
X168347804Y-69735057D01*
X168347816Y-69735051D01*
X168519792Y-69610104D01*
X168670104Y-69459792D01*
X168670106Y-69459788D01*
X168670109Y-69459786D01*
X168795048Y-69287820D01*
X168795047Y-69287820D01*
X168795051Y-69287816D01*
X168799514Y-69279054D01*
X168847488Y-69228259D01*
X168915308Y-69211463D01*
X168981444Y-69233999D01*
X169020486Y-69279056D01*
X169024951Y-69287820D01*
X169149890Y-69459786D01*
X169300213Y-69610109D01*
X169472179Y-69735048D01*
X169472181Y-69735049D01*
X169472184Y-69735051D01*
X169661588Y-69831557D01*
X169863757Y-69897246D01*
X170073713Y-69930500D01*
X170073714Y-69930500D01*
X170286286Y-69930500D01*
X170286287Y-69930500D01*
X170496243Y-69897246D01*
X170698412Y-69831557D01*
X170887816Y-69735051D01*
X170909789Y-69719086D01*
X171059786Y-69610109D01*
X171059788Y-69610106D01*
X171059792Y-69610104D01*
X171210104Y-69459792D01*
X171210106Y-69459788D01*
X171210109Y-69459786D01*
X171335048Y-69287820D01*
X171335047Y-69287820D01*
X171335051Y-69287816D01*
X171339514Y-69279054D01*
X171387488Y-69228259D01*
X171455308Y-69211463D01*
X171521444Y-69233999D01*
X171560486Y-69279056D01*
X171564951Y-69287820D01*
X171689890Y-69459786D01*
X171840213Y-69610109D01*
X172012181Y-69735050D01*
X172026792Y-69742494D01*
X172077589Y-69790467D01*
X172094500Y-69852980D01*
X172094500Y-70781607D01*
X172099016Y-70804314D01*
X172099016Y-70804315D01*
X172104091Y-70829833D01*
X172097861Y-70899424D01*
X172073356Y-70936819D01*
X172073816Y-70937197D01*
X172070311Y-70941466D01*
X172070164Y-70941692D01*
X172069955Y-70941900D01*
X172069952Y-70941904D01*
X171974145Y-71085288D01*
X171974138Y-71085301D01*
X171908146Y-71244621D01*
X171908143Y-71244633D01*
X171874500Y-71413766D01*
X171874500Y-71586233D01*
X171908143Y-71755366D01*
X171908146Y-71755378D01*
X171974138Y-71914698D01*
X171974145Y-71914711D01*
X172069954Y-72058098D01*
X172069957Y-72058102D01*
X172191897Y-72180042D01*
X172191901Y-72180045D01*
X172335288Y-72275854D01*
X172335301Y-72275861D01*
X172494621Y-72341853D01*
X172494626Y-72341855D01*
X172663766Y-72375499D01*
X172663769Y-72375500D01*
X172663771Y-72375500D01*
X172836231Y-72375500D01*
X172836232Y-72375499D01*
X173005374Y-72341855D01*
X173164705Y-72275858D01*
X173308099Y-72180045D01*
X173430045Y-72058099D01*
X173525858Y-71914705D01*
X173591855Y-71755374D01*
X173625500Y-71586229D01*
X173625500Y-71413771D01*
X173625500Y-71413768D01*
X173625499Y-71413766D01*
X173620246Y-71387356D01*
X173591855Y-71244626D01*
X173591853Y-71244621D01*
X173525861Y-71085301D01*
X173525854Y-71085288D01*
X173430045Y-70941901D01*
X173430042Y-70941897D01*
X173411819Y-70923674D01*
X173398502Y-70899286D01*
X173382358Y-70876660D01*
X173380664Y-70866619D01*
X173378334Y-70862351D01*
X173375646Y-70842010D01*
X173375500Y-70839004D01*
X173375500Y-70688394D01*
X173367611Y-70648734D01*
X173351463Y-70567548D01*
X173351462Y-70567546D01*
X173350840Y-70565495D01*
X173345500Y-70529498D01*
X173345500Y-69852980D01*
X173365185Y-69785941D01*
X173413208Y-69742494D01*
X173427818Y-69735050D01*
X173599786Y-69610109D01*
X173599788Y-69610106D01*
X173599792Y-69610104D01*
X173750104Y-69459792D01*
X173750106Y-69459788D01*
X173750109Y-69459786D01*
X173875048Y-69287820D01*
X173875047Y-69287820D01*
X173875051Y-69287816D01*
X173879514Y-69279054D01*
X173927488Y-69228259D01*
X173995308Y-69211463D01*
X174061444Y-69233999D01*
X174100486Y-69279056D01*
X174104951Y-69287820D01*
X174229890Y-69459786D01*
X174380213Y-69610109D01*
X174552179Y-69735048D01*
X174552181Y-69735049D01*
X174552184Y-69735051D01*
X174741588Y-69831557D01*
X174943757Y-69897246D01*
X175153713Y-69930500D01*
X175153714Y-69930500D01*
X175366286Y-69930500D01*
X175366287Y-69930500D01*
X175576243Y-69897246D01*
X175778412Y-69831557D01*
X175967816Y-69735051D01*
X175989789Y-69719086D01*
X176139786Y-69610109D01*
X176139788Y-69610106D01*
X176139792Y-69610104D01*
X176290104Y-69459792D01*
X176290106Y-69459788D01*
X176290109Y-69459786D01*
X176401359Y-69306661D01*
X176415051Y-69287816D01*
X176419793Y-69278508D01*
X176467763Y-69227711D01*
X176535583Y-69210911D01*
X176601719Y-69233445D01*
X176640763Y-69278500D01*
X176645377Y-69287555D01*
X176770272Y-69459459D01*
X176770276Y-69459464D01*
X176920531Y-69609719D01*
X176950000Y-69631129D01*
X176950000Y-68514174D01*
X177300000Y-68514174D01*
X177300000Y-68645826D01*
X177334075Y-68772993D01*
X177399901Y-68887007D01*
X177492993Y-68980099D01*
X177607007Y-69045925D01*
X177734174Y-69080000D01*
X177865826Y-69080000D01*
X177992993Y-69045925D01*
X178107007Y-68980099D01*
X178200099Y-68887007D01*
X178265925Y-68772993D01*
X178300000Y-68645826D01*
X178300000Y-68514174D01*
X178265925Y-68387007D01*
X178200099Y-68272993D01*
X178107007Y-68179901D01*
X177992993Y-68114075D01*
X177865826Y-68080000D01*
X177734174Y-68080000D01*
X177607007Y-68114075D01*
X177492993Y-68179901D01*
X177399901Y-68272993D01*
X177334075Y-68387007D01*
X177300000Y-68514174D01*
X176950000Y-68514174D01*
X176950000Y-67528868D01*
X176920535Y-67550276D01*
X176770271Y-67700541D01*
X176645378Y-67872443D01*
X176640762Y-67881502D01*
X176592784Y-67932295D01*
X176524963Y-67949087D01*
X176458829Y-67926546D01*
X176419794Y-67881493D01*
X176415051Y-67872184D01*
X176415049Y-67872181D01*
X176415048Y-67872179D01*
X176290109Y-67700213D01*
X176139786Y-67549890D01*
X175967820Y-67424951D01*
X175778414Y-67328444D01*
X175778413Y-67328443D01*
X175778412Y-67328443D01*
X175576243Y-67262754D01*
X175576241Y-67262753D01*
X175576240Y-67262753D01*
X175414957Y-67237208D01*
X175366287Y-67229500D01*
X175153713Y-67229500D01*
X175105042Y-67237208D01*
X174943760Y-67262753D01*
X174741585Y-67328444D01*
X174552179Y-67424951D01*
X174380213Y-67549890D01*
X174229890Y-67700213D01*
X174104949Y-67872182D01*
X174100484Y-67880946D01*
X174052509Y-67931742D01*
X173984688Y-67948536D01*
X173918553Y-67925998D01*
X173879516Y-67880946D01*
X173875050Y-67872182D01*
X173750109Y-67700213D01*
X173599786Y-67549890D01*
X173427820Y-67424951D01*
X173238414Y-67328444D01*
X173238413Y-67328443D01*
X173238412Y-67328443D01*
X173036243Y-67262754D01*
X173036241Y-67262753D01*
X173036240Y-67262753D01*
X172874957Y-67237208D01*
X172826287Y-67229500D01*
X172613713Y-67229500D01*
X172565042Y-67237208D01*
X172403760Y-67262753D01*
X172201585Y-67328444D01*
X172012179Y-67424951D01*
X171840213Y-67549890D01*
X171689890Y-67700213D01*
X171564949Y-67872182D01*
X171560484Y-67880946D01*
X171512509Y-67931742D01*
X171444688Y-67948536D01*
X171378553Y-67925998D01*
X171339516Y-67880946D01*
X171335050Y-67872182D01*
X171210109Y-67700213D01*
X171059786Y-67549890D01*
X170887820Y-67424951D01*
X170698414Y-67328444D01*
X170698413Y-67328443D01*
X170698412Y-67328443D01*
X170496243Y-67262754D01*
X170496241Y-67262753D01*
X170496240Y-67262753D01*
X170334957Y-67237208D01*
X170286287Y-67229500D01*
X170073713Y-67229500D01*
X170025042Y-67237208D01*
X169863760Y-67262753D01*
X169661585Y-67328444D01*
X169472179Y-67424951D01*
X169300213Y-67549890D01*
X169149890Y-67700213D01*
X169024949Y-67872182D01*
X169020484Y-67880946D01*
X168972509Y-67931742D01*
X168904688Y-67948536D01*
X168838553Y-67925998D01*
X168799516Y-67880946D01*
X168795050Y-67872182D01*
X168670109Y-67700213D01*
X168519786Y-67549890D01*
X168347820Y-67424951D01*
X168158414Y-67328444D01*
X168158413Y-67328443D01*
X168158412Y-67328443D01*
X167956243Y-67262754D01*
X167956241Y-67262753D01*
X167956240Y-67262753D01*
X167794957Y-67237208D01*
X167746287Y-67229500D01*
X167533713Y-67229500D01*
X167485042Y-67237208D01*
X167323760Y-67262753D01*
X167121585Y-67328444D01*
X166932179Y-67424951D01*
X166760213Y-67549890D01*
X166609890Y-67700213D01*
X166484949Y-67872182D01*
X166480484Y-67880946D01*
X166432509Y-67931742D01*
X166364688Y-67948536D01*
X166298553Y-67925998D01*
X166259516Y-67880946D01*
X166255050Y-67872182D01*
X166130109Y-67700213D01*
X165979786Y-67549890D01*
X165807820Y-67424951D01*
X165618414Y-67328444D01*
X165618413Y-67328443D01*
X165618412Y-67328443D01*
X165416243Y-67262754D01*
X165416241Y-67262753D01*
X165416240Y-67262753D01*
X165254957Y-67237208D01*
X165206287Y-67229500D01*
X164993713Y-67229500D01*
X164945042Y-67237208D01*
X164783760Y-67262753D01*
X164581585Y-67328444D01*
X164392179Y-67424951D01*
X164220213Y-67549890D01*
X164069890Y-67700213D01*
X163944949Y-67872182D01*
X163940484Y-67880946D01*
X163892509Y-67931742D01*
X163824688Y-67948536D01*
X163758553Y-67925998D01*
X163719516Y-67880946D01*
X163715050Y-67872182D01*
X163590109Y-67700213D01*
X163439786Y-67549890D01*
X163267820Y-67424951D01*
X163078414Y-67328444D01*
X163078413Y-67328443D01*
X163078412Y-67328443D01*
X162876243Y-67262754D01*
X162876241Y-67262753D01*
X162876240Y-67262753D01*
X162714957Y-67237208D01*
X162666287Y-67229500D01*
X162453713Y-67229500D01*
X162405042Y-67237208D01*
X162243760Y-67262753D01*
X162041585Y-67328444D01*
X161852179Y-67424951D01*
X161680213Y-67549890D01*
X161529890Y-67700213D01*
X161404949Y-67872182D01*
X161400484Y-67880946D01*
X161352509Y-67931742D01*
X161284688Y-67948536D01*
X161218553Y-67925998D01*
X161179516Y-67880946D01*
X161175050Y-67872182D01*
X161050109Y-67700213D01*
X160899786Y-67549890D01*
X160727820Y-67424951D01*
X160538414Y-67328444D01*
X160538413Y-67328443D01*
X160538412Y-67328443D01*
X160336243Y-67262754D01*
X160336241Y-67262753D01*
X160336240Y-67262753D01*
X160174957Y-67237208D01*
X160126287Y-67229500D01*
X159913713Y-67229500D01*
X159865042Y-67237208D01*
X159703760Y-67262753D01*
X159501585Y-67328444D01*
X159312179Y-67424951D01*
X159140213Y-67549890D01*
X158989890Y-67700213D01*
X158864949Y-67872182D01*
X158860484Y-67880946D01*
X158812509Y-67931742D01*
X158744688Y-67948536D01*
X158678553Y-67925998D01*
X158639516Y-67880946D01*
X158635050Y-67872182D01*
X158510109Y-67700213D01*
X158359786Y-67549890D01*
X158187820Y-67424951D01*
X157998414Y-67328444D01*
X157998413Y-67328443D01*
X157998412Y-67328443D01*
X157796243Y-67262754D01*
X157796241Y-67262753D01*
X157796240Y-67262753D01*
X157634957Y-67237208D01*
X157586287Y-67229500D01*
X157373713Y-67229500D01*
X157325042Y-67237208D01*
X157163760Y-67262753D01*
X156961585Y-67328444D01*
X156772179Y-67424951D01*
X156600213Y-67549890D01*
X156449890Y-67700213D01*
X156324949Y-67872182D01*
X156320484Y-67880946D01*
X156272509Y-67931742D01*
X156204688Y-67948536D01*
X156138553Y-67925998D01*
X156099516Y-67880946D01*
X156095050Y-67872182D01*
X155970109Y-67700213D01*
X155819786Y-67549890D01*
X155647820Y-67424951D01*
X155458414Y-67328444D01*
X155458413Y-67328443D01*
X155458412Y-67328443D01*
X155256243Y-67262754D01*
X155256241Y-67262753D01*
X155256240Y-67262753D01*
X155094957Y-67237208D01*
X155046287Y-67229500D01*
X154833713Y-67229500D01*
X154785042Y-67237208D01*
X154623760Y-67262753D01*
X154421585Y-67328444D01*
X154232179Y-67424951D01*
X154060213Y-67549890D01*
X153909890Y-67700213D01*
X153784949Y-67872182D01*
X153780484Y-67880946D01*
X153732509Y-67931742D01*
X153664688Y-67948536D01*
X153598553Y-67925998D01*
X153559516Y-67880946D01*
X153555050Y-67872182D01*
X153430109Y-67700213D01*
X153279786Y-67549890D01*
X153107820Y-67424951D01*
X152918414Y-67328444D01*
X152918413Y-67328443D01*
X152918412Y-67328443D01*
X152716243Y-67262754D01*
X152716241Y-67262753D01*
X152716240Y-67262753D01*
X152554957Y-67237208D01*
X152506287Y-67229500D01*
X152293713Y-67229500D01*
X152245042Y-67237208D01*
X152083760Y-67262753D01*
X151881585Y-67328444D01*
X151692179Y-67424951D01*
X151520213Y-67549890D01*
X151369890Y-67700213D01*
X151244949Y-67872182D01*
X151240484Y-67880946D01*
X151192509Y-67931742D01*
X151124688Y-67948536D01*
X151058553Y-67925998D01*
X151019516Y-67880946D01*
X151015050Y-67872182D01*
X150890109Y-67700213D01*
X150739786Y-67549890D01*
X150567820Y-67424951D01*
X150378414Y-67328444D01*
X150378413Y-67328443D01*
X150378412Y-67328443D01*
X150176243Y-67262754D01*
X150176241Y-67262753D01*
X150176240Y-67262753D01*
X150014957Y-67237208D01*
X149966287Y-67229500D01*
X149753713Y-67229500D01*
X149705042Y-67237208D01*
X149543760Y-67262753D01*
X149341585Y-67328444D01*
X149152179Y-67424951D01*
X148980215Y-67549889D01*
X148866673Y-67663431D01*
X148805350Y-67696915D01*
X148735658Y-67691931D01*
X148679725Y-67650059D01*
X148662810Y-67619082D01*
X148613797Y-67487671D01*
X148613793Y-67487664D01*
X148527547Y-67372455D01*
X148527544Y-67372452D01*
X148412335Y-67286206D01*
X148412328Y-67286202D01*
X148277482Y-67235908D01*
X148277483Y-67235908D01*
X148217883Y-67229501D01*
X148217881Y-67229500D01*
X148217873Y-67229500D01*
X148217865Y-67229500D01*
X146569860Y-67229500D01*
X146502821Y-67209815D01*
X146457066Y-67157011D01*
X146447122Y-67087853D01*
X146476147Y-67024297D01*
X146482151Y-67017848D01*
X152963681Y-60536319D01*
X153025004Y-60502834D01*
X153051362Y-60500000D01*
X168000000Y-60500000D01*
X168000000Y-57418042D01*
X168019685Y-57351003D01*
X168072489Y-57305248D01*
X168141647Y-57295304D01*
X168174194Y-57306137D01*
X168174359Y-57305697D01*
X168317517Y-57359091D01*
X168317516Y-57359091D01*
X168324444Y-57359835D01*
X168377127Y-57365500D01*
X170322872Y-57365499D01*
X170382483Y-57359091D01*
X170517331Y-57308796D01*
X170632546Y-57222546D01*
X170638052Y-57215191D01*
X170693985Y-57173319D01*
X170737320Y-57165500D01*
X182706756Y-57165500D01*
X182773795Y-57185185D01*
G37*
%TD.AperFunction*%
%TA.AperFunction,Conductor*%
G36*
X174597986Y-86842725D02*
G01*
X174642792Y-86871396D01*
X176684215Y-88912819D01*
X176717700Y-88974142D01*
X176712716Y-89043834D01*
X176670844Y-89099767D01*
X176605380Y-89124184D01*
X176596534Y-89124500D01*
X175061607Y-89124500D01*
X174938393Y-89124500D01*
X174896716Y-89132790D01*
X174896715Y-89132789D01*
X174817554Y-89148535D01*
X174817543Y-89148538D01*
X174807464Y-89152714D01*
X174807459Y-89152716D01*
X174703722Y-89195684D01*
X174703711Y-89195690D01*
X174686620Y-89207110D01*
X174678190Y-89212743D01*
X174678189Y-89212744D01*
X174678188Y-89212743D01*
X174601266Y-89264142D01*
X174601265Y-89264143D01*
X174557704Y-89307705D01*
X174514142Y-89351267D01*
X174514139Y-89351270D01*
X174334859Y-89530551D01*
X174178229Y-89687181D01*
X174116906Y-89720666D01*
X174090548Y-89723500D01*
X169026849Y-89723500D01*
X168959810Y-89703815D01*
X168914055Y-89651011D01*
X168904111Y-89581853D01*
X168933136Y-89518297D01*
X168942248Y-89508843D01*
X168949597Y-89501984D01*
X168973733Y-89485858D01*
X169060858Y-89398733D01*
X169060860Y-89398729D01*
X169272771Y-89186818D01*
X169334094Y-89153333D01*
X169360452Y-89150499D01*
X169622871Y-89150499D01*
X169622872Y-89150499D01*
X169682483Y-89144091D01*
X169817331Y-89093796D01*
X169817335Y-89093792D01*
X169825118Y-89089544D01*
X169826799Y-89092622D01*
X169876436Y-89074048D01*
X169944725Y-89088825D01*
X169945332Y-89089215D01*
X169952904Y-89093349D01*
X170087623Y-89143597D01*
X170087627Y-89143598D01*
X170147155Y-89149999D01*
X170147172Y-89150000D01*
X170270000Y-89150000D01*
X170770000Y-89150000D01*
X170892828Y-89150000D01*
X170892844Y-89149999D01*
X170952372Y-89143598D01*
X170952379Y-89143596D01*
X171087086Y-89093354D01*
X171087093Y-89093350D01*
X171202187Y-89007190D01*
X171202190Y-89007187D01*
X171288350Y-88892093D01*
X171288354Y-88892086D01*
X171338596Y-88757379D01*
X171338598Y-88757372D01*
X171344999Y-88697844D01*
X171345000Y-88697827D01*
X171345000Y-88150000D01*
X170770000Y-88150000D01*
X170770000Y-89150000D01*
X170270000Y-89150000D01*
X170270000Y-88024000D01*
X170289685Y-87956961D01*
X170342489Y-87911206D01*
X170394000Y-87900000D01*
X170520000Y-87900000D01*
X170520000Y-87774000D01*
X170539685Y-87706961D01*
X170592489Y-87661206D01*
X170644000Y-87650000D01*
X171345000Y-87650000D01*
X171345000Y-87212000D01*
X171347550Y-87203314D01*
X171346262Y-87194353D01*
X171357240Y-87170312D01*
X171364685Y-87144961D01*
X171371525Y-87139033D01*
X171375287Y-87130797D01*
X171397521Y-87116507D01*
X171417489Y-87099206D01*
X171428003Y-87096918D01*
X171434065Y-87093023D01*
X171469000Y-87088000D01*
X171687072Y-87088000D01*
X171754111Y-87107685D01*
X171792609Y-87146901D01*
X171852288Y-87243656D01*
X171976344Y-87367712D01*
X172125666Y-87459814D01*
X172292203Y-87514999D01*
X172394991Y-87525500D01*
X173745008Y-87525499D01*
X173847797Y-87514999D01*
X174014334Y-87459814D01*
X174163656Y-87367712D01*
X174287712Y-87243656D01*
X174379814Y-87094334D01*
X174434999Y-86927797D01*
X174434999Y-86927795D01*
X174437128Y-86921371D01*
X174439766Y-86922245D01*
X174467084Y-86871743D01*
X174528275Y-86838016D01*
X174597986Y-86842725D01*
G37*
%TD.AperFunction*%
%TA.AperFunction,Conductor*%
G36*
X123883086Y-76269685D02*
G01*
X123928841Y-76322489D01*
X123938785Y-76391647D01*
X123909760Y-76455203D01*
X123903728Y-76461681D01*
X123406229Y-76959181D01*
X123344906Y-76992666D01*
X123318548Y-76995500D01*
X118317389Y-76995500D01*
X118266120Y-77005698D01*
X118266118Y-77005698D01*
X118256971Y-77007518D01*
X118196548Y-77019537D01*
X118149397Y-77039067D01*
X118082715Y-77066688D01*
X118078224Y-77069689D01*
X118065663Y-77078081D01*
X118065660Y-77078083D01*
X117980268Y-77135140D01*
X117936705Y-77178703D01*
X117893142Y-77222267D01*
X116584014Y-78531394D01*
X116584006Y-78531402D01*
X116581270Y-78534139D01*
X116581267Y-78534142D01*
X116494142Y-78621267D01*
X116465742Y-78663771D01*
X116461126Y-78670678D01*
X116461118Y-78670688D01*
X116425690Y-78723709D01*
X116425688Y-78723712D01*
X116407433Y-78767785D01*
X116363591Y-78822188D01*
X116297297Y-78844252D01*
X116249540Y-78836513D01*
X116167485Y-78805909D01*
X116167483Y-78805908D01*
X116107883Y-78799501D01*
X116107881Y-78799500D01*
X116107873Y-78799500D01*
X116107864Y-78799500D01*
X115312129Y-78799500D01*
X115312123Y-78799501D01*
X115252515Y-78805909D01*
X115118332Y-78855955D01*
X115048640Y-78860939D01*
X115031668Y-78855955D01*
X114897485Y-78805909D01*
X114897483Y-78805908D01*
X114837883Y-78799501D01*
X114837881Y-78799500D01*
X114837873Y-78799500D01*
X114837864Y-78799500D01*
X114042129Y-78799500D01*
X114042123Y-78799501D01*
X113982515Y-78805909D01*
X113848332Y-78855955D01*
X113778640Y-78860939D01*
X113761668Y-78855955D01*
X113627485Y-78805909D01*
X113627483Y-78805908D01*
X113567883Y-78799501D01*
X113567881Y-78799500D01*
X113567873Y-78799500D01*
X113567864Y-78799500D01*
X112672129Y-78799500D01*
X112672123Y-78799501D01*
X112612516Y-78805908D01*
X112477671Y-78856202D01*
X112477664Y-78856206D01*
X112362455Y-78942452D01*
X112362452Y-78942455D01*
X112276206Y-79057664D01*
X112276202Y-79057671D01*
X112225908Y-79192517D01*
X112219501Y-79252116D01*
X112219500Y-79252135D01*
X112219500Y-79595013D01*
X112210813Y-79624594D01*
X112204184Y-79654710D01*
X112200759Y-79658834D01*
X112199815Y-79662052D01*
X112182963Y-79682912D01*
X112177591Y-79688257D01*
X112176267Y-79689142D01*
X112089142Y-79776267D01*
X112088924Y-79776484D01*
X109277229Y-82588181D01*
X109215906Y-82621666D01*
X109189548Y-82624500D01*
X109163768Y-82624500D01*
X108994633Y-82658143D01*
X108994621Y-82658146D01*
X108835301Y-82724138D01*
X108835288Y-82724145D01*
X108691901Y-82819954D01*
X108691897Y-82819957D01*
X108569957Y-82941897D01*
X108569954Y-82941901D01*
X108474145Y-83085288D01*
X108474138Y-83085301D01*
X108408146Y-83244621D01*
X108408143Y-83244633D01*
X108374500Y-83413766D01*
X108374500Y-83586233D01*
X108408143Y-83755366D01*
X108408146Y-83755378D01*
X108474138Y-83914698D01*
X108474145Y-83914711D01*
X108569954Y-84058098D01*
X108569957Y-84058102D01*
X108691897Y-84180042D01*
X108712216Y-84193619D01*
X108757020Y-84247232D01*
X108765727Y-84316557D01*
X108735572Y-84379584D01*
X108731005Y-84384402D01*
X106027229Y-87088181D01*
X105965906Y-87121666D01*
X105939548Y-87124500D01*
X102311609Y-87124500D01*
X102311604Y-87124499D01*
X102188391Y-87124499D01*
X102103999Y-87141286D01*
X102085523Y-87144961D01*
X102067543Y-87148537D01*
X102067538Y-87148539D01*
X102035259Y-87161909D01*
X102020394Y-87168067D01*
X101953716Y-87195685D01*
X101953714Y-87195686D01*
X101851263Y-87264141D01*
X101851260Y-87264144D01*
X100950521Y-88164884D01*
X100910294Y-88191763D01*
X100835317Y-88222820D01*
X100835308Y-88222825D01*
X100691921Y-88318633D01*
X100691913Y-88318639D01*
X100569973Y-88440579D01*
X100527602Y-88503992D01*
X100473989Y-88548796D01*
X100404664Y-88557503D01*
X100341637Y-88527348D01*
X100304918Y-88467905D01*
X100300500Y-88435100D01*
X100300500Y-83628711D01*
X101899500Y-83628711D01*
X101899500Y-83871288D01*
X101929036Y-84095644D01*
X101931162Y-84111789D01*
X101949451Y-84180045D01*
X101993947Y-84346104D01*
X102086773Y-84570205D01*
X102086777Y-84570214D01*
X102090983Y-84577499D01*
X102208064Y-84780289D01*
X102208066Y-84780292D01*
X102208067Y-84780293D01*
X102355733Y-84972736D01*
X102355739Y-84972743D01*
X102527256Y-85144260D01*
X102527262Y-85144265D01*
X102719711Y-85291936D01*
X102929788Y-85413224D01*
X103153900Y-85506054D01*
X103388211Y-85568838D01*
X103568586Y-85592584D01*
X103628711Y-85600500D01*
X103628712Y-85600500D01*
X103871289Y-85600500D01*
X103919388Y-85594167D01*
X104111789Y-85568838D01*
X104346100Y-85506054D01*
X104570212Y-85413224D01*
X104780289Y-85291936D01*
X104972738Y-85144265D01*
X105144265Y-84972738D01*
X105291936Y-84780289D01*
X105413224Y-84570212D01*
X105506054Y-84346100D01*
X105568838Y-84111789D01*
X105600500Y-83871288D01*
X105600500Y-83628712D01*
X105568838Y-83388211D01*
X105506054Y-83153900D01*
X105413224Y-82929788D01*
X105291936Y-82719711D01*
X105186488Y-82582288D01*
X105144266Y-82527263D01*
X105144260Y-82527256D01*
X104972743Y-82355739D01*
X104972736Y-82355733D01*
X104780293Y-82208067D01*
X104780292Y-82208066D01*
X104780289Y-82208064D01*
X104570212Y-82086776D01*
X104567902Y-82085819D01*
X104346104Y-81993947D01*
X104111785Y-81931161D01*
X103871289Y-81899500D01*
X103871288Y-81899500D01*
X103628712Y-81899500D01*
X103628711Y-81899500D01*
X103388214Y-81931161D01*
X103153895Y-81993947D01*
X102929794Y-82086773D01*
X102929785Y-82086777D01*
X102719706Y-82208067D01*
X102527263Y-82355733D01*
X102527256Y-82355739D01*
X102355739Y-82527256D01*
X102355733Y-82527263D01*
X102208067Y-82719706D01*
X102208064Y-82719710D01*
X102208064Y-82719711D01*
X102193682Y-82744621D01*
X102086777Y-82929785D01*
X102086773Y-82929794D01*
X101993947Y-83153895D01*
X101931161Y-83388214D01*
X101899500Y-83628711D01*
X100300500Y-83628711D01*
X100300500Y-76374000D01*
X100320185Y-76306961D01*
X100372989Y-76261206D01*
X100424500Y-76250000D01*
X123816047Y-76250000D01*
X123883086Y-76269685D01*
G37*
%TD.AperFunction*%
%TA.AperFunction,Conductor*%
G36*
X124547539Y-84818185D02*
G01*
X124593294Y-84870989D01*
X124604500Y-84922500D01*
X124604500Y-85645185D01*
X124604501Y-86276500D01*
X124584816Y-86343539D01*
X124532013Y-86389294D01*
X124480501Y-86400500D01*
X123134000Y-86400500D01*
X123066961Y-86380815D01*
X123021206Y-86328011D01*
X123010000Y-86276500D01*
X123010000Y-86075000D01*
X122234000Y-86075000D01*
X122166961Y-86055315D01*
X122121206Y-86002511D01*
X122110000Y-85951000D01*
X122110000Y-85699000D01*
X122129685Y-85631961D01*
X122182489Y-85586206D01*
X122234000Y-85575000D01*
X123010000Y-85575000D01*
X123010000Y-84922500D01*
X123029685Y-84855461D01*
X123082489Y-84809706D01*
X123134000Y-84798500D01*
X124480500Y-84798500D01*
X124547539Y-84818185D01*
G37*
%TD.AperFunction*%
%TA.AperFunction,Conductor*%
G36*
X135818999Y-84818185D02*
G01*
X135839641Y-84834819D01*
X136342641Y-85337819D01*
X136349898Y-85351110D01*
X136361072Y-85361341D01*
X136366306Y-85381158D01*
X136376126Y-85399142D01*
X136375045Y-85414247D01*
X136378914Y-85428894D01*
X136372603Y-85448392D01*
X136371142Y-85468834D01*
X136362064Y-85480959D01*
X136357401Y-85495370D01*
X136341551Y-85508361D01*
X136329270Y-85524767D01*
X136314226Y-85530758D01*
X136303364Y-85539662D01*
X136279892Y-85544432D01*
X136269240Y-85548675D01*
X136262124Y-85549500D01*
X136181007Y-85549500D01*
X136072591Y-85571065D01*
X136045676Y-85576419D01*
X136045671Y-85576420D01*
X135997713Y-85596285D01*
X135918191Y-85629223D01*
X135832259Y-85686642D01*
X135814164Y-85698733D01*
X135811520Y-85700499D01*
X135803457Y-85705886D01*
X135470662Y-86038681D01*
X135409339Y-86072166D01*
X135382981Y-86075000D01*
X134619000Y-86075000D01*
X134551961Y-86055315D01*
X134506206Y-86002511D01*
X134495000Y-85951000D01*
X134495000Y-85699000D01*
X134514685Y-85631961D01*
X134567489Y-85586206D01*
X134619000Y-85575000D01*
X135395000Y-85575000D01*
X135395000Y-84922500D01*
X135397550Y-84913814D01*
X135396262Y-84904853D01*
X135407240Y-84880812D01*
X135414685Y-84855461D01*
X135421525Y-84849533D01*
X135425287Y-84841297D01*
X135447521Y-84827007D01*
X135467489Y-84809706D01*
X135478003Y-84807418D01*
X135484065Y-84803523D01*
X135519000Y-84798500D01*
X135751960Y-84798500D01*
X135818999Y-84818185D01*
G37*
%TD.AperFunction*%
%TD*%
%TA.AperFunction,Conductor*%
%TO.N,GNDF*%
G36*
X159943039Y-44320185D02*
G01*
X159988794Y-44372989D01*
X160000000Y-44424500D01*
X160000000Y-53121957D01*
X159980315Y-53188996D01*
X159927511Y-53234751D01*
X159858353Y-53244695D01*
X159825805Y-53233862D01*
X159825641Y-53234303D01*
X159682482Y-53180908D01*
X159682483Y-53180908D01*
X159622883Y-53174501D01*
X159622881Y-53174500D01*
X159622873Y-53174500D01*
X159622865Y-53174500D01*
X159311854Y-53174500D01*
X159244815Y-53154815D01*
X159209307Y-53116339D01*
X159207696Y-53117416D01*
X159135858Y-53009902D01*
X159135855Y-53009899D01*
X155286186Y-49160232D01*
X155276223Y-49150269D01*
X155276222Y-49150267D01*
X155189097Y-49063142D01*
X155137873Y-49028915D01*
X155086650Y-48994688D01*
X155086647Y-48994686D01*
X155086644Y-48994685D01*
X155012967Y-48964168D01*
X155012965Y-48964167D01*
X155006156Y-48961347D01*
X154972816Y-48947537D01*
X154912393Y-48935518D01*
X154907670Y-48934578D01*
X154907668Y-48934578D01*
X154851974Y-48923500D01*
X154851971Y-48923500D01*
X154851970Y-48923500D01*
X153327374Y-48923500D01*
X153327354Y-48923499D01*
X153321240Y-48923499D01*
X153198027Y-48923499D01*
X153097230Y-48943548D01*
X153097225Y-48943548D01*
X153077182Y-48947536D01*
X153077180Y-48947536D01*
X153030030Y-48967067D01*
X152963352Y-48994685D01*
X152963350Y-48994686D01*
X152860899Y-49063141D01*
X152860896Y-49063144D01*
X152602775Y-49321266D01*
X152602760Y-49321281D01*
X152601269Y-49322773D01*
X152601267Y-49322775D01*
X152514142Y-49409900D01*
X152505055Y-49423500D01*
X152499457Y-49431877D01*
X152499452Y-49431883D01*
X152445686Y-49512350D01*
X152445685Y-49512351D01*
X152412347Y-49592840D01*
X152406823Y-49606176D01*
X152398537Y-49626178D01*
X152398535Y-49626186D01*
X152374500Y-49747022D01*
X152374500Y-55607688D01*
X152354815Y-55674727D01*
X152338181Y-55695369D01*
X149195370Y-58838181D01*
X149134047Y-58871666D01*
X149107689Y-58874500D01*
X143687452Y-58874500D01*
X143620413Y-58854815D01*
X143599771Y-58838181D01*
X142994182Y-58232592D01*
X142986860Y-58225270D01*
X142986858Y-58225267D01*
X142899733Y-58138142D01*
X142847476Y-58103225D01*
X142797286Y-58069688D01*
X142797287Y-58069688D01*
X142797285Y-58069687D01*
X142750763Y-58050418D01*
X142716792Y-58036347D01*
X142683452Y-58022537D01*
X142623029Y-58010518D01*
X142618306Y-58009578D01*
X142618304Y-58009578D01*
X142562610Y-57998500D01*
X142562607Y-57998500D01*
X142562606Y-57998500D01*
X140693741Y-57998500D01*
X140693721Y-57998499D01*
X140687607Y-57998499D01*
X140564394Y-57998499D01*
X140463597Y-58018548D01*
X140463592Y-58018548D01*
X140443549Y-58022536D01*
X140443547Y-58022536D01*
X140396397Y-58042067D01*
X140329719Y-58069685D01*
X140329717Y-58069686D01*
X140227266Y-58138141D01*
X140227263Y-58138144D01*
X139736657Y-58628751D01*
X139675334Y-58662236D01*
X139605642Y-58657252D01*
X139549710Y-58615382D01*
X139547127Y-58611931D01*
X139532546Y-58592454D01*
X139532544Y-58592453D01*
X139532544Y-58592452D01*
X139417335Y-58506206D01*
X139417328Y-58506202D01*
X139282482Y-58455908D01*
X139282483Y-58455908D01*
X139222883Y-58449501D01*
X139222881Y-58449500D01*
X139222873Y-58449500D01*
X139222865Y-58449500D01*
X137991519Y-58449500D01*
X137924480Y-58429815D01*
X137903838Y-58413181D01*
X137670546Y-58179888D01*
X137670545Y-58179887D01*
X137555807Y-58103222D01*
X137428332Y-58050421D01*
X137428322Y-58050418D01*
X137292996Y-58023500D01*
X137292994Y-58023500D01*
X137292993Y-58023500D01*
X134419994Y-58023500D01*
X134282007Y-58023500D01*
X134282005Y-58023500D01*
X134146677Y-58050418D01*
X134146667Y-58050421D01*
X134019192Y-58103222D01*
X133904454Y-58179887D01*
X133496160Y-58588181D01*
X133434837Y-58621666D01*
X133408479Y-58624500D01*
X132712498Y-58624500D01*
X132712480Y-58624501D01*
X132609703Y-58635000D01*
X132609700Y-58635001D01*
X132443168Y-58690185D01*
X132443163Y-58690187D01*
X132293842Y-58782289D01*
X132169789Y-58906342D01*
X132077687Y-59055663D01*
X132077685Y-59055668D01*
X132022501Y-59222204D01*
X132022500Y-59222205D01*
X132018323Y-59263102D01*
X131991927Y-59327793D01*
X131934747Y-59367945D01*
X131894965Y-59374500D01*
X130974500Y-59374500D01*
X130907461Y-59354815D01*
X130861706Y-59302011D01*
X130850500Y-59250500D01*
X130850499Y-58457129D01*
X130850498Y-58457123D01*
X130850367Y-58455908D01*
X130844091Y-58397517D01*
X130820744Y-58334921D01*
X130793797Y-58262671D01*
X130793793Y-58262664D01*
X130707547Y-58147455D01*
X130707544Y-58147452D01*
X130592335Y-58061206D01*
X130592328Y-58061202D01*
X130457482Y-58010908D01*
X130457483Y-58010908D01*
X130397883Y-58004501D01*
X130397881Y-58004500D01*
X130397873Y-58004500D01*
X130397864Y-58004500D01*
X129602129Y-58004500D01*
X129602123Y-58004501D01*
X129542516Y-58010908D01*
X129407671Y-58061202D01*
X129407664Y-58061206D01*
X129292457Y-58147451D01*
X129292451Y-58147457D01*
X129251531Y-58202119D01*
X129195597Y-58243989D01*
X129176458Y-58249424D01*
X129031091Y-58278340D01*
X129031086Y-58278342D01*
X128894508Y-58334914D01*
X128894496Y-58334921D01*
X128845269Y-58367813D01*
X128771588Y-58417044D01*
X128771580Y-58417050D01*
X126854547Y-60334084D01*
X126854543Y-60334089D01*
X126811353Y-60398731D01*
X126811352Y-60398733D01*
X126772419Y-60456999D01*
X126772412Y-60457011D01*
X126715843Y-60593582D01*
X126715840Y-60593592D01*
X126687000Y-60738579D01*
X126687000Y-60738582D01*
X126687000Y-62866418D01*
X126687000Y-62866420D01*
X126686999Y-62866420D01*
X126715840Y-63011407D01*
X126715843Y-63011417D01*
X126772414Y-63147992D01*
X126772415Y-63147994D01*
X126772416Y-63147995D01*
X126805313Y-63197229D01*
X126854548Y-63270916D01*
X126941549Y-63357917D01*
X126944982Y-63361995D01*
X126956985Y-63389308D01*
X126971279Y-63415486D01*
X126971472Y-63422276D01*
X126973092Y-63425961D01*
X126971809Y-63434054D01*
X126972586Y-63461242D01*
X126946538Y-63625704D01*
X126937000Y-63685924D01*
X126937000Y-63924076D01*
X126958305Y-64058585D01*
X126974256Y-64159296D01*
X127047846Y-64385787D01*
X127047847Y-64385790D01*
X127145821Y-64578072D01*
X127155967Y-64597985D01*
X127295949Y-64790653D01*
X127464347Y-64959051D01*
X127657015Y-65099033D01*
X127734954Y-65138745D01*
X127869209Y-65207152D01*
X127869215Y-65207154D01*
X127950191Y-65233464D01*
X128007867Y-65272900D01*
X128035066Y-65337259D01*
X128023152Y-65406105D01*
X127999555Y-65439076D01*
X127350450Y-66088181D01*
X127289127Y-66121666D01*
X127262769Y-66124500D01*
X126637498Y-66124500D01*
X126637480Y-66124501D01*
X126534703Y-66135000D01*
X126534700Y-66135001D01*
X126368168Y-66190185D01*
X126368163Y-66190187D01*
X126218842Y-66282289D01*
X126094789Y-66406342D01*
X126002687Y-66555663D01*
X126002683Y-66555672D01*
X125988158Y-66599506D01*
X125948385Y-66656950D01*
X125883868Y-66683772D01*
X125815093Y-66671456D01*
X125782772Y-66648181D01*
X124651246Y-65516655D01*
X124617761Y-65455332D01*
X124622745Y-65385640D01*
X124664617Y-65329707D01*
X124730081Y-65305290D01*
X124758323Y-65306500D01*
X124830924Y-65318000D01*
X124830925Y-65318000D01*
X125069075Y-65318000D01*
X125069076Y-65318000D01*
X125304295Y-65280744D01*
X125530790Y-65207152D01*
X125742985Y-65099033D01*
X125935653Y-64959051D01*
X126104051Y-64790653D01*
X126244033Y-64597985D01*
X126352152Y-64385790D01*
X126425744Y-64159295D01*
X126463000Y-63924076D01*
X126463000Y-63685924D01*
X126425744Y-63450705D01*
X126377885Y-63303409D01*
X126352153Y-63224212D01*
X126352152Y-63224209D01*
X126297061Y-63116090D01*
X126244033Y-63012015D01*
X126104051Y-62819347D01*
X125935653Y-62650949D01*
X125742985Y-62510967D01*
X125703619Y-62490909D01*
X125530790Y-62402847D01*
X125530787Y-62402846D01*
X125304296Y-62329256D01*
X125186685Y-62310628D01*
X125069076Y-62292000D01*
X124830924Y-62292000D01*
X124752517Y-62304418D01*
X124595703Y-62329256D01*
X124369212Y-62402846D01*
X124369209Y-62402847D01*
X124157014Y-62510967D01*
X124047090Y-62590832D01*
X123964347Y-62650949D01*
X123964345Y-62650951D01*
X123964344Y-62650951D01*
X123795951Y-62819344D01*
X123795951Y-62819345D01*
X123795949Y-62819347D01*
X123761616Y-62866602D01*
X123655967Y-63012014D01*
X123547847Y-63224209D01*
X123547846Y-63224212D01*
X123474256Y-63450703D01*
X123457737Y-63555000D01*
X123437000Y-63685924D01*
X123437000Y-63924076D01*
X123448499Y-63996675D01*
X123439545Y-64065968D01*
X123394549Y-64119420D01*
X123327797Y-64140060D01*
X123260483Y-64121335D01*
X123238345Y-64103754D01*
X121661819Y-62527228D01*
X121628334Y-62465905D01*
X121625500Y-62439547D01*
X121625500Y-61414006D01*
X121645185Y-61346967D01*
X121661821Y-61326323D01*
X121680043Y-61308101D01*
X121680045Y-61308099D01*
X121775858Y-61164705D01*
X121778850Y-61157483D01*
X121797744Y-61111867D01*
X121841855Y-61005374D01*
X121875500Y-60836229D01*
X121875500Y-60663771D01*
X121875500Y-60663768D01*
X121875499Y-60663766D01*
X121868527Y-60628714D01*
X121841855Y-60494626D01*
X121841853Y-60494621D01*
X121775861Y-60335301D01*
X121775854Y-60335288D01*
X121680045Y-60191901D01*
X121680042Y-60191897D01*
X121558102Y-60069957D01*
X121558098Y-60069954D01*
X121414711Y-59974145D01*
X121414698Y-59974138D01*
X121255378Y-59908146D01*
X121255366Y-59908143D01*
X121086232Y-59874500D01*
X121086229Y-59874500D01*
X120913771Y-59874500D01*
X120913768Y-59874500D01*
X120744633Y-59908143D01*
X120744621Y-59908146D01*
X120585301Y-59974138D01*
X120585288Y-59974145D01*
X120441901Y-60069954D01*
X120441897Y-60069957D01*
X120319957Y-60191897D01*
X120319954Y-60191901D01*
X120224145Y-60335288D01*
X120224138Y-60335301D01*
X120158146Y-60494621D01*
X120158143Y-60494633D01*
X120124500Y-60663766D01*
X120124500Y-60836233D01*
X120158143Y-61005366D01*
X120158146Y-61005378D01*
X120224138Y-61164698D01*
X120224145Y-61164711D01*
X120319954Y-61308098D01*
X120319956Y-61308101D01*
X120338179Y-61326323D01*
X120371666Y-61387645D01*
X120374500Y-61414006D01*
X120374500Y-62811610D01*
X120398535Y-62932444D01*
X120398537Y-62932452D01*
X120407284Y-62953569D01*
X120445688Y-63046286D01*
X120465983Y-63076658D01*
X120470713Y-63083736D01*
X120470714Y-63083739D01*
X120514140Y-63148731D01*
X120514141Y-63148732D01*
X120514142Y-63148733D01*
X120601267Y-63235858D01*
X120601268Y-63235858D01*
X120608335Y-63242925D01*
X120608334Y-63242925D01*
X120608338Y-63242928D01*
X125351262Y-67985854D01*
X125351265Y-67985857D01*
X125419411Y-68031390D01*
X125453714Y-68054311D01*
X125567548Y-68101463D01*
X125652442Y-68118349D01*
X125688388Y-68125499D01*
X125688392Y-68125500D01*
X125688393Y-68125500D01*
X125688394Y-68125500D01*
X125819965Y-68125500D01*
X125887004Y-68145185D01*
X125932759Y-68197989D01*
X125943323Y-68236898D01*
X125947501Y-68277797D01*
X125947501Y-68277799D01*
X125992868Y-68414705D01*
X126002686Y-68444334D01*
X126094788Y-68593656D01*
X126218844Y-68717712D01*
X126368166Y-68809814D01*
X126534703Y-68864999D01*
X126599254Y-68871593D01*
X126640329Y-68875790D01*
X126705020Y-68902186D01*
X126745172Y-68959367D01*
X126748035Y-69029178D01*
X126715408Y-69086829D01*
X126584309Y-69217928D01*
X126473240Y-69370800D01*
X126387454Y-69539163D01*
X126367931Y-69599251D01*
X126328493Y-69656926D01*
X126264134Y-69684124D01*
X126195288Y-69672209D01*
X126143812Y-69624965D01*
X126132069Y-69599251D01*
X126126612Y-69582455D01*
X126112547Y-69539168D01*
X126112545Y-69539165D01*
X126112545Y-69539163D01*
X126054121Y-69424500D01*
X126026760Y-69370801D01*
X125915690Y-69217927D01*
X125782073Y-69084310D01*
X125629199Y-68973240D01*
X125620467Y-68968791D01*
X125460836Y-68887454D01*
X125281118Y-68829059D01*
X125094486Y-68799500D01*
X125094481Y-68799500D01*
X124905519Y-68799500D01*
X124905514Y-68799500D01*
X124718881Y-68829059D01*
X124539163Y-68887454D01*
X124370800Y-68973240D01*
X124307153Y-69019483D01*
X124217927Y-69084310D01*
X124217925Y-69084312D01*
X124217924Y-69084312D01*
X124084312Y-69217924D01*
X124084312Y-69217925D01*
X124084310Y-69217927D01*
X124036610Y-69283579D01*
X123973240Y-69370800D01*
X123887454Y-69539163D01*
X123829059Y-69718881D01*
X123799500Y-69905513D01*
X123799500Y-70094486D01*
X123829059Y-70281118D01*
X123887454Y-70460836D01*
X123960559Y-70604312D01*
X123973240Y-70629199D01*
X124084310Y-70782073D01*
X124217927Y-70915690D01*
X124370801Y-71026760D01*
X124450347Y-71067290D01*
X124539163Y-71112545D01*
X124539165Y-71112545D01*
X124539168Y-71112547D01*
X124635497Y-71143846D01*
X124718881Y-71170940D01*
X124905514Y-71200500D01*
X124905519Y-71200500D01*
X125094486Y-71200500D01*
X125281118Y-71170940D01*
X125460832Y-71112547D01*
X125629199Y-71026760D01*
X125782073Y-70915690D01*
X125915690Y-70782073D01*
X126026760Y-70629199D01*
X126112547Y-70460832D01*
X126132069Y-70400748D01*
X126171507Y-70343073D01*
X126235865Y-70315875D01*
X126304712Y-70327790D01*
X126356187Y-70375034D01*
X126367930Y-70400746D01*
X126387453Y-70460832D01*
X126473240Y-70629199D01*
X126584310Y-70782073D01*
X126717927Y-70915690D01*
X126870801Y-71026760D01*
X126950347Y-71067290D01*
X127039163Y-71112545D01*
X127039165Y-71112545D01*
X127039168Y-71112547D01*
X127135497Y-71143846D01*
X127218881Y-71170940D01*
X127405514Y-71200500D01*
X127405519Y-71200500D01*
X127594486Y-71200500D01*
X127781118Y-71170940D01*
X127960832Y-71112547D01*
X128129199Y-71026760D01*
X128282073Y-70915690D01*
X128415690Y-70782073D01*
X128526760Y-70629199D01*
X128612547Y-70460832D01*
X128632069Y-70400748D01*
X128671507Y-70343073D01*
X128735865Y-70315875D01*
X128804712Y-70327790D01*
X128856187Y-70375034D01*
X128867930Y-70400746D01*
X128887453Y-70460832D01*
X128973240Y-70629199D01*
X129084310Y-70782073D01*
X129217927Y-70915690D01*
X129370801Y-71026760D01*
X129539168Y-71112547D01*
X129545691Y-71114666D01*
X129603367Y-71154099D01*
X129630569Y-71218456D01*
X129618659Y-71287303D01*
X129595059Y-71320279D01*
X128202159Y-72713181D01*
X128140836Y-72746666D01*
X128114478Y-72749500D01*
X119552230Y-72749500D01*
X119485191Y-72729815D01*
X119464549Y-72713181D01*
X115689132Y-68937764D01*
X115655647Y-68876441D01*
X115660631Y-68806749D01*
X115702503Y-68750816D01*
X115707923Y-68746981D01*
X115798757Y-68686287D01*
X115808099Y-68680045D01*
X115930045Y-68558099D01*
X116025858Y-68414705D01*
X116091855Y-68255374D01*
X116125500Y-68086229D01*
X116125500Y-67913771D01*
X116125500Y-67913768D01*
X116125499Y-67913766D01*
X116091856Y-67744633D01*
X116091855Y-67744626D01*
X116091853Y-67744621D01*
X116025861Y-67585301D01*
X116025854Y-67585288D01*
X115930045Y-67441901D01*
X115930042Y-67441897D01*
X115911819Y-67423674D01*
X115878334Y-67362351D01*
X115875500Y-67335993D01*
X115875500Y-64780024D01*
X117382000Y-64780024D01*
X117382000Y-64999975D01*
X117382001Y-64999991D01*
X117410710Y-65218062D01*
X117467641Y-65430531D01*
X117551817Y-65633749D01*
X117551822Y-65633760D01*
X117661796Y-65824239D01*
X117661807Y-65824255D01*
X117795704Y-65998754D01*
X117795710Y-65998761D01*
X117951238Y-66154289D01*
X117951245Y-66154295D01*
X117998021Y-66190187D01*
X118125753Y-66288199D01*
X118125760Y-66288203D01*
X118316239Y-66398177D01*
X118316244Y-66398179D01*
X118316247Y-66398181D01*
X118519467Y-66482358D01*
X118731936Y-66539289D01*
X118950018Y-66568000D01*
X118950025Y-66568000D01*
X119169975Y-66568000D01*
X119169982Y-66568000D01*
X119388064Y-66539289D01*
X119600533Y-66482358D01*
X119803753Y-66398181D01*
X119994247Y-66288199D01*
X120168756Y-66154294D01*
X120324294Y-65998756D01*
X120458199Y-65824247D01*
X120568181Y-65633753D01*
X120652358Y-65430533D01*
X120709289Y-65218064D01*
X120738000Y-64999982D01*
X120738000Y-64780018D01*
X120709289Y-64561936D01*
X120652358Y-64349467D01*
X120568181Y-64146247D01*
X120568179Y-64146244D01*
X120568177Y-64146239D01*
X120458203Y-63955760D01*
X120458199Y-63955753D01*
X120324294Y-63781244D01*
X120324289Y-63781238D01*
X120168761Y-63625710D01*
X120168754Y-63625704D01*
X119994255Y-63491807D01*
X119994253Y-63491805D01*
X119994247Y-63491801D01*
X119994242Y-63491798D01*
X119994239Y-63491796D01*
X119803760Y-63381822D01*
X119803749Y-63381817D01*
X119600531Y-63297641D01*
X119388062Y-63240710D01*
X119169991Y-63212001D01*
X119169988Y-63212000D01*
X119169982Y-63212000D01*
X118950018Y-63212000D01*
X118950012Y-63212000D01*
X118950008Y-63212001D01*
X118731937Y-63240710D01*
X118519468Y-63297641D01*
X118316250Y-63381817D01*
X118316239Y-63381822D01*
X118125760Y-63491796D01*
X118125744Y-63491807D01*
X117951245Y-63625704D01*
X117951238Y-63625710D01*
X117795710Y-63781238D01*
X117795704Y-63781245D01*
X117661807Y-63955744D01*
X117661796Y-63955760D01*
X117551822Y-64146239D01*
X117551817Y-64146250D01*
X117467641Y-64349468D01*
X117410710Y-64561937D01*
X117382001Y-64780008D01*
X117382000Y-64780024D01*
X115875500Y-64780024D01*
X115875500Y-64673393D01*
X115875499Y-64673389D01*
X115870078Y-64646136D01*
X115851463Y-64552548D01*
X115816048Y-64467049D01*
X115804312Y-64438715D01*
X115787256Y-64413190D01*
X115772962Y-64391798D01*
X115759397Y-64371496D01*
X115738519Y-64304819D01*
X115738499Y-64302605D01*
X115738499Y-63229129D01*
X115738498Y-63229123D01*
X115737970Y-63224212D01*
X115732091Y-63169517D01*
X115724338Y-63148731D01*
X115681797Y-63034671D01*
X115681793Y-63034664D01*
X115595547Y-62919455D01*
X115595544Y-62919452D01*
X115480335Y-62833206D01*
X115480328Y-62833202D01*
X115345482Y-62782908D01*
X115345483Y-62782908D01*
X115285883Y-62776501D01*
X115285881Y-62776500D01*
X115285873Y-62776500D01*
X115285864Y-62776500D01*
X113744129Y-62776500D01*
X113744123Y-62776501D01*
X113684516Y-62782908D01*
X113549671Y-62833202D01*
X113549664Y-62833206D01*
X113434455Y-62919452D01*
X113382594Y-62988729D01*
X113326660Y-63030599D01*
X113256968Y-63035583D01*
X113210443Y-63014735D01*
X113126256Y-62953570D01*
X112954661Y-62866137D01*
X112954658Y-62866136D01*
X112771506Y-62806627D01*
X112621750Y-62782908D01*
X112581292Y-62776500D01*
X112388708Y-62776500D01*
X112348250Y-62782908D01*
X112198494Y-62806627D01*
X112198491Y-62806627D01*
X112015341Y-62866136D01*
X112015338Y-62866137D01*
X111843745Y-62953569D01*
X111764139Y-63011407D01*
X111687943Y-63066767D01*
X111687941Y-63066769D01*
X111687940Y-63066769D01*
X111551769Y-63202940D01*
X111551769Y-63202941D01*
X111551767Y-63202943D01*
X111504899Y-63267451D01*
X111438567Y-63358748D01*
X111436364Y-63362344D01*
X111418320Y-63385231D01*
X110888055Y-63915496D01*
X110864674Y-63828236D01*
X110806089Y-63726764D01*
X110723236Y-63643911D01*
X110621764Y-63585326D01*
X110534502Y-63561944D01*
X111120796Y-62975650D01*
X111090992Y-62953996D01*
X110919473Y-62866602D01*
X110736387Y-62807113D01*
X110546257Y-62777000D01*
X110353743Y-62777000D01*
X110163612Y-62807113D01*
X109980526Y-62866602D01*
X109809005Y-62953997D01*
X109779203Y-62975649D01*
X109779203Y-62975650D01*
X110365498Y-63561944D01*
X110278236Y-63585326D01*
X110176764Y-63643911D01*
X110093911Y-63726764D01*
X110035326Y-63828236D01*
X110011944Y-63915497D01*
X109491992Y-63395545D01*
X109469189Y-63364159D01*
X109466431Y-63358746D01*
X109466428Y-63358741D01*
X109433567Y-63313513D01*
X109353233Y-63202943D01*
X109217057Y-63066767D01*
X109061254Y-62953569D01*
X109054589Y-62950173D01*
X108889661Y-62866137D01*
X108889658Y-62866136D01*
X108706506Y-62806627D01*
X108556750Y-62782908D01*
X108516292Y-62776500D01*
X108323708Y-62776500D01*
X108283250Y-62782908D01*
X108133494Y-62806627D01*
X108133491Y-62806627D01*
X107950341Y-62866136D01*
X107950338Y-62866137D01*
X107778745Y-62953569D01*
X107699139Y-63011407D01*
X107622943Y-63066767D01*
X107622941Y-63066769D01*
X107622940Y-63066769D01*
X107486769Y-63202940D01*
X107486769Y-63202941D01*
X107486767Y-63202943D01*
X107460005Y-63239778D01*
X107373569Y-63358745D01*
X107286137Y-63530338D01*
X107286136Y-63530341D01*
X107226627Y-63713491D01*
X107226627Y-63713494D01*
X107215896Y-63781245D01*
X107196500Y-63903708D01*
X107196500Y-64096292D01*
X107200664Y-64122580D01*
X107226627Y-64286505D01*
X107226627Y-64286508D01*
X107269212Y-64417570D01*
X107271207Y-64487411D01*
X107235127Y-64547244D01*
X107172426Y-64578072D01*
X107170681Y-64578361D01*
X107118491Y-64586627D01*
X106935341Y-64646136D01*
X106935338Y-64646137D01*
X106763745Y-64733569D01*
X106685174Y-64790655D01*
X106607943Y-64846767D01*
X106607941Y-64846769D01*
X106607940Y-64846769D01*
X106471769Y-64982940D01*
X106471769Y-64982941D01*
X106471767Y-64982943D01*
X106459381Y-64999991D01*
X106358569Y-65138745D01*
X106271137Y-65310338D01*
X106271136Y-65310341D01*
X106211627Y-65493491D01*
X106211627Y-65493494D01*
X106181500Y-65683708D01*
X106181500Y-65876291D01*
X106211627Y-66066505D01*
X106211627Y-66066508D01*
X106271136Y-66249658D01*
X106271137Y-66249661D01*
X106339222Y-66383284D01*
X106358569Y-66421254D01*
X106471767Y-66577057D01*
X106607943Y-66713233D01*
X106763746Y-66826431D01*
X106847907Y-66869313D01*
X106935338Y-66913862D01*
X106935341Y-66913863D01*
X107106176Y-66969370D01*
X107118496Y-66973373D01*
X107308708Y-67003500D01*
X107308709Y-67003500D01*
X107501291Y-67003500D01*
X107501292Y-67003500D01*
X107691504Y-66973373D01*
X107691507Y-66973372D01*
X107691508Y-66973372D01*
X107874658Y-66913863D01*
X107874661Y-66913862D01*
X107902848Y-66899500D01*
X108046254Y-66826431D01*
X108202057Y-66713233D01*
X108332319Y-66582971D01*
X108393642Y-66549486D01*
X108463334Y-66554470D01*
X108507681Y-66582971D01*
X108637943Y-66713233D01*
X108793746Y-66826431D01*
X108877907Y-66869313D01*
X108965338Y-66913862D01*
X108965341Y-66913863D01*
X109136176Y-66969370D01*
X109148496Y-66973373D01*
X109338708Y-67003500D01*
X109338709Y-67003500D01*
X109531291Y-67003500D01*
X109531292Y-67003500D01*
X109721504Y-66973373D01*
X109721507Y-66973372D01*
X109721508Y-66973372D01*
X109904658Y-66913863D01*
X109904661Y-66913862D01*
X109932848Y-66899500D01*
X110076254Y-66826431D01*
X110232057Y-66713233D01*
X110364819Y-66580471D01*
X110426142Y-66546986D01*
X110495834Y-66551970D01*
X110540181Y-66580471D01*
X110672943Y-66713233D01*
X110828746Y-66826431D01*
X110912907Y-66869313D01*
X111000338Y-66913862D01*
X111000341Y-66913863D01*
X111171176Y-66969370D01*
X111183496Y-66973373D01*
X111373708Y-67003500D01*
X111373709Y-67003500D01*
X111566289Y-67003500D01*
X111566292Y-67003500D01*
X111566294Y-67003499D01*
X111570322Y-67003182D01*
X111638701Y-67017536D01*
X111667749Y-67039117D01*
X118666951Y-74038319D01*
X118700436Y-74099642D01*
X118695452Y-74169334D01*
X118653580Y-74225267D01*
X118588116Y-74249684D01*
X118579270Y-74250000D01*
X100424500Y-74250000D01*
X100357461Y-74230315D01*
X100311706Y-74177511D01*
X100300500Y-74126000D01*
X100300500Y-64780024D01*
X101182000Y-64780024D01*
X101182000Y-64999975D01*
X101182001Y-64999991D01*
X101210710Y-65218062D01*
X101267641Y-65430531D01*
X101351817Y-65633749D01*
X101351822Y-65633760D01*
X101461796Y-65824239D01*
X101461807Y-65824255D01*
X101595704Y-65998754D01*
X101595710Y-65998761D01*
X101751238Y-66154289D01*
X101751245Y-66154295D01*
X101798021Y-66190187D01*
X101925753Y-66288199D01*
X101925760Y-66288203D01*
X102116239Y-66398177D01*
X102116244Y-66398179D01*
X102116247Y-66398181D01*
X102319467Y-66482358D01*
X102531936Y-66539289D01*
X102750018Y-66568000D01*
X102750025Y-66568000D01*
X102969975Y-66568000D01*
X102969982Y-66568000D01*
X103188064Y-66539289D01*
X103400533Y-66482358D01*
X103603753Y-66398181D01*
X103794247Y-66288199D01*
X103968756Y-66154294D01*
X104124294Y-65998756D01*
X104258199Y-65824247D01*
X104368181Y-65633753D01*
X104452358Y-65430533D01*
X104509289Y-65218064D01*
X104538000Y-64999982D01*
X104538000Y-64780018D01*
X104509289Y-64561936D01*
X104452358Y-64349467D01*
X104368181Y-64146247D01*
X104368179Y-64146244D01*
X104368177Y-64146239D01*
X104258203Y-63955760D01*
X104258199Y-63955753D01*
X104124294Y-63781244D01*
X104124289Y-63781238D01*
X103968761Y-63625710D01*
X103968754Y-63625704D01*
X103794255Y-63491807D01*
X103794253Y-63491805D01*
X103794247Y-63491801D01*
X103794242Y-63491798D01*
X103794239Y-63491796D01*
X103603760Y-63381822D01*
X103603749Y-63381817D01*
X103400531Y-63297641D01*
X103188062Y-63240710D01*
X102969991Y-63212001D01*
X102969988Y-63212000D01*
X102969982Y-63212000D01*
X102750018Y-63212000D01*
X102750012Y-63212000D01*
X102750008Y-63212001D01*
X102531937Y-63240710D01*
X102319468Y-63297641D01*
X102116250Y-63381817D01*
X102116239Y-63381822D01*
X101925760Y-63491796D01*
X101925744Y-63491807D01*
X101751245Y-63625704D01*
X101751238Y-63625710D01*
X101595710Y-63781238D01*
X101595704Y-63781245D01*
X101461807Y-63955744D01*
X101461796Y-63955760D01*
X101351822Y-64146239D01*
X101351817Y-64146250D01*
X101267641Y-64349468D01*
X101210710Y-64561937D01*
X101182001Y-64780008D01*
X101182000Y-64780024D01*
X100300500Y-64780024D01*
X100300500Y-61337065D01*
X102734500Y-61337065D01*
X102734500Y-61582934D01*
X102748385Y-61688394D01*
X102766591Y-61826677D01*
X102814028Y-62003714D01*
X102830222Y-62064152D01*
X102830222Y-62064153D01*
X102882706Y-62190862D01*
X102924306Y-62291292D01*
X103047233Y-62504208D01*
X103047235Y-62504211D01*
X103047236Y-62504212D01*
X103196897Y-62699254D01*
X103196903Y-62699261D01*
X103370738Y-62873096D01*
X103370745Y-62873102D01*
X103448099Y-62932458D01*
X103565792Y-63022767D01*
X103778708Y-63145694D01*
X103938785Y-63212000D01*
X103996385Y-63235859D01*
X104005847Y-63239778D01*
X104243323Y-63303409D01*
X104487073Y-63335500D01*
X104487080Y-63335500D01*
X104732920Y-63335500D01*
X104732927Y-63335500D01*
X104976677Y-63303409D01*
X105214153Y-63239778D01*
X105441292Y-63145694D01*
X105654208Y-63022767D01*
X105849256Y-62873101D01*
X106023101Y-62699256D01*
X106172767Y-62504208D01*
X106295694Y-62291292D01*
X106389778Y-62064153D01*
X106453409Y-61826677D01*
X106485500Y-61582927D01*
X106485500Y-61337073D01*
X106485499Y-61337065D01*
X115434500Y-61337065D01*
X115434500Y-61582934D01*
X115448385Y-61688394D01*
X115466591Y-61826677D01*
X115514028Y-62003714D01*
X115530222Y-62064152D01*
X115530222Y-62064153D01*
X115582706Y-62190862D01*
X115624306Y-62291292D01*
X115747233Y-62504208D01*
X115747235Y-62504211D01*
X115747236Y-62504212D01*
X115896897Y-62699254D01*
X115896903Y-62699261D01*
X116070738Y-62873096D01*
X116070745Y-62873102D01*
X116148099Y-62932458D01*
X116265792Y-63022767D01*
X116478708Y-63145694D01*
X116638785Y-63212000D01*
X116696385Y-63235859D01*
X116705847Y-63239778D01*
X116943323Y-63303409D01*
X117187073Y-63335500D01*
X117187080Y-63335500D01*
X117432920Y-63335500D01*
X117432927Y-63335500D01*
X117676677Y-63303409D01*
X117914153Y-63239778D01*
X118141292Y-63145694D01*
X118354208Y-63022767D01*
X118549256Y-62873101D01*
X118723101Y-62699256D01*
X118872767Y-62504208D01*
X118995694Y-62291292D01*
X119089778Y-62064153D01*
X119153409Y-61826677D01*
X119185500Y-61582927D01*
X119185500Y-61337073D01*
X119153409Y-61093323D01*
X119089778Y-60855847D01*
X118995694Y-60628708D01*
X118872767Y-60415792D01*
X118723101Y-60220744D01*
X118723096Y-60220738D01*
X118549261Y-60046903D01*
X118549254Y-60046897D01*
X118354212Y-59897236D01*
X118354211Y-59897235D01*
X118354208Y-59897233D01*
X118141292Y-59774306D01*
X118119639Y-59765337D01*
X117914162Y-59680225D01*
X117914155Y-59680223D01*
X117914153Y-59680222D01*
X117676677Y-59616591D01*
X117635939Y-59611227D01*
X117432934Y-59584500D01*
X117432927Y-59584500D01*
X117187073Y-59584500D01*
X117187065Y-59584500D01*
X116955059Y-59615045D01*
X116943323Y-59616591D01*
X116705847Y-59680222D01*
X116705837Y-59680225D01*
X116478714Y-59774303D01*
X116478705Y-59774307D01*
X116318990Y-59866519D01*
X116276003Y-59891338D01*
X116265787Y-59897236D01*
X116070745Y-60046897D01*
X116070738Y-60046903D01*
X115896903Y-60220738D01*
X115896897Y-60220745D01*
X115747236Y-60415787D01*
X115624307Y-60628705D01*
X115624303Y-60628714D01*
X115530225Y-60855837D01*
X115530222Y-60855847D01*
X115466592Y-61093320D01*
X115466590Y-61093331D01*
X115434500Y-61337065D01*
X106485499Y-61337065D01*
X106453409Y-61093323D01*
X106389778Y-60855847D01*
X106295694Y-60628708D01*
X106172767Y-60415792D01*
X106023101Y-60220744D01*
X106023096Y-60220738D01*
X105849261Y-60046903D01*
X105849254Y-60046897D01*
X105654212Y-59897236D01*
X105654211Y-59897235D01*
X105654208Y-59897233D01*
X105441292Y-59774306D01*
X105419639Y-59765337D01*
X105214162Y-59680225D01*
X105214155Y-59680223D01*
X105214153Y-59680222D01*
X104976677Y-59616591D01*
X104935939Y-59611227D01*
X104732934Y-59584500D01*
X104732927Y-59584500D01*
X104487073Y-59584500D01*
X104487065Y-59584500D01*
X104255059Y-59615045D01*
X104243323Y-59616591D01*
X104005847Y-59680222D01*
X104005837Y-59680225D01*
X103778714Y-59774303D01*
X103778705Y-59774307D01*
X103618990Y-59866519D01*
X103576003Y-59891338D01*
X103565787Y-59897236D01*
X103370745Y-60046897D01*
X103370738Y-60046903D01*
X103196903Y-60220738D01*
X103196897Y-60220745D01*
X103047236Y-60415787D01*
X102924307Y-60628705D01*
X102924303Y-60628714D01*
X102830225Y-60855837D01*
X102830222Y-60855847D01*
X102766592Y-61093320D01*
X102766590Y-61093331D01*
X102734500Y-61337065D01*
X100300500Y-61337065D01*
X100300500Y-57424500D01*
X100320185Y-57357461D01*
X100372989Y-57311706D01*
X100424500Y-57300500D01*
X148139158Y-57300500D01*
X148197378Y-57293430D01*
X148415435Y-57266954D01*
X148685657Y-57200350D01*
X148945880Y-57101660D01*
X149192311Y-56972323D01*
X149421355Y-56814226D01*
X149629673Y-56629673D01*
X149814226Y-56421355D01*
X149972323Y-56192311D01*
X150101660Y-55945880D01*
X150200350Y-55685657D01*
X150266954Y-55415435D01*
X150300500Y-55139155D01*
X150300500Y-55000000D01*
X150300500Y-54952405D01*
X150300500Y-44424500D01*
X150320185Y-44357461D01*
X150372989Y-44311706D01*
X150424500Y-44300500D01*
X159876000Y-44300500D01*
X159943039Y-44320185D01*
G37*
%TD.AperFunction*%
%TA.AperFunction,Conductor*%
G36*
X135209835Y-68770185D02*
G01*
X135230477Y-68786819D01*
X135283072Y-68839414D01*
X135423212Y-68941232D01*
X135577555Y-69019873D01*
X135742299Y-69073402D01*
X135913389Y-69100500D01*
X135913390Y-69100500D01*
X136046000Y-69100500D01*
X136054685Y-69103050D01*
X136063647Y-69101762D01*
X136087687Y-69112740D01*
X136113039Y-69120185D01*
X136118966Y-69127025D01*
X136127203Y-69130787D01*
X136141492Y-69153021D01*
X136158794Y-69172989D01*
X136161081Y-69183503D01*
X136164977Y-69189565D01*
X136170000Y-69224500D01*
X136170000Y-69315500D01*
X136150315Y-69382539D01*
X136097511Y-69428294D01*
X136046000Y-69439500D01*
X135352129Y-69439500D01*
X135352123Y-69439501D01*
X135292516Y-69445908D01*
X135157671Y-69496202D01*
X135157664Y-69496206D01*
X135042455Y-69582452D01*
X135042452Y-69582455D01*
X134956206Y-69697664D01*
X134956202Y-69697671D01*
X134905908Y-69832517D01*
X134899501Y-69892116D01*
X134899500Y-69892135D01*
X134899500Y-71187870D01*
X134899501Y-71187876D01*
X134905908Y-71247483D01*
X134956202Y-71382328D01*
X134956206Y-71382335D01*
X135042452Y-71497544D01*
X135042455Y-71497547D01*
X135157664Y-71583793D01*
X135157671Y-71583797D01*
X135292517Y-71634091D01*
X135292516Y-71634091D01*
X135299444Y-71634835D01*
X135352127Y-71640500D01*
X136647872Y-71640499D01*
X136707483Y-71634091D01*
X136842331Y-71583796D01*
X136957546Y-71497546D01*
X137043796Y-71382331D01*
X137065184Y-71324986D01*
X137600001Y-71324986D01*
X137610494Y-71427697D01*
X137665641Y-71594119D01*
X137665643Y-71594124D01*
X137757684Y-71743345D01*
X137881654Y-71867315D01*
X138030875Y-71959356D01*
X138030880Y-71959358D01*
X138197302Y-72014505D01*
X138197309Y-72014506D01*
X138300019Y-72024999D01*
X138749999Y-72024999D01*
X138750000Y-72024998D01*
X138750000Y-71200000D01*
X137600001Y-71200000D01*
X137600001Y-71324986D01*
X137065184Y-71324986D01*
X137094091Y-71247483D01*
X137100500Y-71187873D01*
X137100499Y-70493998D01*
X137120183Y-70426961D01*
X137172987Y-70381206D01*
X137224499Y-70370000D01*
X137356571Y-70370000D01*
X137466163Y-70352642D01*
X137535456Y-70361596D01*
X137588908Y-70406592D01*
X137609548Y-70473344D01*
X137608919Y-70487718D01*
X137600000Y-70575013D01*
X137600000Y-70700000D01*
X138750000Y-70700000D01*
X138750000Y-69875000D01*
X138398645Y-69875000D01*
X138331606Y-69855315D01*
X138285851Y-69802511D01*
X138275907Y-69733353D01*
X138288165Y-69694695D01*
X138289409Y-69692253D01*
X138342914Y-69527584D01*
X138370000Y-69356571D01*
X138370000Y-69199499D01*
X138389685Y-69132460D01*
X138442489Y-69086705D01*
X138493996Y-69075499D01*
X139700008Y-69075499D01*
X139802797Y-69064999D01*
X139969334Y-69009814D01*
X140118656Y-68917712D01*
X140242712Y-68793656D01*
X140242712Y-68793655D01*
X140247819Y-68788549D01*
X140249705Y-68790435D01*
X140296625Y-68757212D01*
X140336868Y-68750500D01*
X142450137Y-68750500D01*
X142517176Y-68770185D01*
X142562931Y-68822989D01*
X142572875Y-68892147D01*
X142543850Y-68955703D01*
X142537818Y-68962181D01*
X140611680Y-70888319D01*
X140550357Y-70921804D01*
X140480665Y-70916820D01*
X140424732Y-70874948D01*
X140400315Y-70809484D01*
X140399999Y-70800638D01*
X140399999Y-70575028D01*
X140399998Y-70575013D01*
X140389505Y-70472302D01*
X140334358Y-70305880D01*
X140334356Y-70305875D01*
X140242315Y-70156654D01*
X140118345Y-70032684D01*
X139969124Y-69940643D01*
X139969119Y-69940641D01*
X139802697Y-69885494D01*
X139802690Y-69885493D01*
X139699986Y-69875000D01*
X139250000Y-69875000D01*
X139250000Y-72024999D01*
X139274819Y-72049818D01*
X139308304Y-72111141D01*
X139303320Y-72180833D01*
X139274819Y-72225180D01*
X137286319Y-74213681D01*
X137224996Y-74247166D01*
X137198638Y-74250000D01*
X129110730Y-74250000D01*
X129094791Y-74245319D01*
X129078181Y-74245652D01*
X129061958Y-74235678D01*
X129043691Y-74230315D01*
X129032813Y-74217761D01*
X129018659Y-74209060D01*
X129010403Y-74191898D01*
X128997936Y-74177511D01*
X128995571Y-74161069D01*
X128988369Y-74146097D01*
X128990701Y-74127198D01*
X128987992Y-74108353D01*
X128994962Y-74092677D01*
X128996928Y-74076754D01*
X129011724Y-74054982D01*
X129015413Y-74046687D01*
X129019045Y-74042321D01*
X129082951Y-73978416D01*
X129126686Y-73912959D01*
X129130852Y-73907954D01*
X129132562Y-73906805D01*
X129138483Y-73899591D01*
X131470180Y-71567895D01*
X131531500Y-71534412D01*
X131601192Y-71539396D01*
X131657125Y-71581268D01*
X131663397Y-71590481D01*
X131757684Y-71743345D01*
X131881654Y-71867315D01*
X132030875Y-71959356D01*
X132030880Y-71959358D01*
X132197302Y-72014505D01*
X132197309Y-72014506D01*
X132300019Y-72024999D01*
X132749999Y-72024999D01*
X133250000Y-72024999D01*
X133699972Y-72024999D01*
X133699986Y-72024998D01*
X133802697Y-72014505D01*
X133969119Y-71959358D01*
X133969124Y-71959356D01*
X134118345Y-71867315D01*
X134242315Y-71743345D01*
X134334356Y-71594124D01*
X134334358Y-71594119D01*
X134389505Y-71427697D01*
X134389506Y-71427690D01*
X134399999Y-71324986D01*
X134400000Y-71324973D01*
X134400000Y-71200000D01*
X133250000Y-71200000D01*
X133250000Y-72024999D01*
X132749999Y-72024999D01*
X132750000Y-72024998D01*
X132750000Y-71074000D01*
X132769685Y-71006961D01*
X132822489Y-70961206D01*
X132874000Y-70950000D01*
X133000000Y-70950000D01*
X133000000Y-70824000D01*
X133019685Y-70756961D01*
X133072489Y-70711206D01*
X133124000Y-70700000D01*
X134399999Y-70700000D01*
X134399999Y-70575028D01*
X134399998Y-70575013D01*
X134389505Y-70472302D01*
X134334358Y-70305880D01*
X134334356Y-70305875D01*
X134242315Y-70156654D01*
X134118345Y-70032684D01*
X133969124Y-69940643D01*
X133969119Y-69940641D01*
X133802697Y-69885494D01*
X133802690Y-69885493D01*
X133699986Y-69875000D01*
X133462438Y-69875000D01*
X133395399Y-69855315D01*
X133349644Y-69802511D01*
X133339700Y-69733353D01*
X133368725Y-69669797D01*
X133374757Y-69663319D01*
X133582947Y-69455129D01*
X133582947Y-69455128D01*
X133582952Y-69455124D01*
X133603414Y-69424500D01*
X133648422Y-69357141D01*
X133657951Y-69342876D01*
X133665084Y-69332203D01*
X133721658Y-69195621D01*
X133729664Y-69155370D01*
X133762048Y-69093462D01*
X133812274Y-69061858D01*
X133969334Y-69009814D01*
X134118656Y-68917712D01*
X134242712Y-68793656D01*
X134242712Y-68793655D01*
X134247819Y-68788549D01*
X134249705Y-68790435D01*
X134296625Y-68757212D01*
X134336868Y-68750500D01*
X135142796Y-68750500D01*
X135209835Y-68770185D01*
G37*
%TD.AperFunction*%
%TD*%
M02*
