G04 #@! TF.GenerationSoftware,KiCad,Pcbnew,9.0.1*
G04 #@! TF.CreationDate,2025-11-10T14:24:31+01:00*
G04 #@! TF.ProjectId,Debugmodul,44656275-676d-46f6-9475-6c2e6b696361,rev?*
G04 #@! TF.SameCoordinates,Original*
G04 #@! TF.FileFunction,Copper,L2,Bot*
G04 #@! TF.FilePolarity,Positive*
%FSLAX46Y46*%
G04 Gerber Fmt 4.6, Leading zero omitted, Abs format (unit mm)*
G04 Created by KiCad (PCBNEW 9.0.1) date 2025-11-10 14:24:31*
%MOMM*%
%LPD*%
G01*
G04 APERTURE LIST*
G04 #@! TA.AperFunction,ComponentPad*
%ADD10R,1.700000X1.700000*%
G04 #@! TD*
G04 #@! TA.AperFunction,ComponentPad*
%ADD11C,1.700000*%
G04 #@! TD*
G04 #@! TA.AperFunction,SMDPad,CuDef*
%ADD12R,0.500000X2.400000*%
G04 #@! TD*
G04 #@! TA.AperFunction,ViaPad*
%ADD13C,0.600000*%
G04 #@! TD*
G04 #@! TA.AperFunction,Conductor*
%ADD14C,0.200000*%
G04 #@! TD*
G04 #@! TA.AperFunction,Conductor*
%ADD15C,0.400000*%
G04 #@! TD*
G04 APERTURE END LIST*
D10*
X178260000Y-72000000D03*
D11*
X178260000Y-69460000D03*
X175720000Y-72000000D03*
X175720000Y-69460000D03*
X173180000Y-72000000D03*
X173180000Y-69460000D03*
X170640000Y-72000000D03*
X170640000Y-69460000D03*
X168100000Y-72000000D03*
X168100000Y-69460000D03*
X165560000Y-72000000D03*
X165560000Y-69460000D03*
X163020000Y-72000000D03*
X163020000Y-69460000D03*
X160480000Y-72000000D03*
X160480000Y-69460000D03*
X157940000Y-72000000D03*
X157940000Y-69460000D03*
X155400000Y-72000000D03*
X155400000Y-69460000D03*
X152860000Y-72000000D03*
X152860000Y-69460000D03*
X150320000Y-72000000D03*
X150320000Y-69460000D03*
X147780000Y-72000000D03*
X147780000Y-69460000D03*
X145240000Y-72000000D03*
X145240000Y-69460000D03*
X142700000Y-72000000D03*
X142700000Y-69460000D03*
X140160000Y-72000000D03*
X140160000Y-69460000D03*
X137620000Y-72000000D03*
X137620000Y-69460000D03*
X135080000Y-72000000D03*
X135080000Y-69460000D03*
X132540000Y-72000000D03*
X132540000Y-69460000D03*
X130000000Y-72000000D03*
X130000000Y-69460000D03*
D12*
X104500000Y-93000000D03*
X104500000Y-97800000D03*
X105300000Y-93000000D03*
X105300000Y-97800000D03*
X106100000Y-93000000D03*
X106100000Y-97800000D03*
X106900000Y-93000000D03*
X106900000Y-97800000D03*
X107700000Y-93000000D03*
X107700000Y-97800000D03*
X108500000Y-93000000D03*
X108500000Y-97800000D03*
X109300000Y-93000000D03*
X109300000Y-97800000D03*
X110100000Y-93000000D03*
X110100000Y-97800000D03*
X110900000Y-93000000D03*
X110900000Y-97800000D03*
X111700000Y-93000000D03*
X111700000Y-97800000D03*
X112500000Y-93000000D03*
X112500000Y-97800000D03*
X113300000Y-93000000D03*
X113300000Y-97800000D03*
X114100000Y-93000000D03*
X114100000Y-97800000D03*
X114900000Y-93000000D03*
X114900000Y-97800000D03*
X115700000Y-93000000D03*
X115700000Y-97800000D03*
X116500000Y-93000000D03*
X116500000Y-97800000D03*
X117300000Y-93000000D03*
X117300000Y-97800000D03*
X118100000Y-93000000D03*
X118100000Y-97800000D03*
X118900000Y-93000000D03*
X118900000Y-97800000D03*
X119700000Y-93000000D03*
X119700000Y-97800000D03*
D13*
X130000000Y-89900000D03*
X132600000Y-89300000D03*
X135050000Y-88650000D03*
X137620000Y-88100000D03*
X140160000Y-87500000D03*
X142800000Y-86900000D03*
X145800000Y-86500000D03*
X146300000Y-103800000D03*
X147800000Y-86600000D03*
X147800000Y-103200000D03*
X150300000Y-86400000D03*
X150300000Y-103800000D03*
X163100000Y-100500000D03*
X160500000Y-101300000D03*
X155400000Y-102500000D03*
X158000000Y-101900000D03*
X152900000Y-103100000D03*
X152900000Y-86400000D03*
X155400000Y-86400000D03*
X157900000Y-86400000D03*
X160500000Y-86400000D03*
X163100000Y-86400000D03*
X119700000Y-100000000D03*
X118900000Y-99500000D03*
X118100000Y-100000000D03*
X117300000Y-99500000D03*
X116500000Y-100000000D03*
X115700000Y-99500000D03*
X114900000Y-100000000D03*
X114100000Y-99500000D03*
X113300000Y-100000000D03*
X112500000Y-99500000D03*
X111700000Y-100000000D03*
X110900000Y-99500000D03*
X110100000Y-100000000D03*
X109300000Y-99500000D03*
X108500000Y-100000000D03*
X107700000Y-99500000D03*
X106900000Y-100000000D03*
X106100000Y-99500000D03*
X105300000Y-100000000D03*
X104500000Y-99500000D03*
X119700000Y-90500000D03*
X118900000Y-90000000D03*
X118100000Y-90500000D03*
X117300000Y-90000000D03*
X116500000Y-90500000D03*
X115700000Y-90000000D03*
X114900000Y-90500000D03*
X114100000Y-90000000D03*
X113300000Y-90500000D03*
X112500000Y-90000000D03*
X111700000Y-90500000D03*
X110900000Y-90000000D03*
X110100000Y-90500000D03*
X109300000Y-90000000D03*
X108500001Y-90625719D03*
X107700001Y-89998299D03*
X106900001Y-90430503D03*
X106100000Y-90000000D03*
X104500000Y-90000000D03*
X105300000Y-90500000D03*
D14*
X145900000Y-103400000D02*
X146300000Y-103800000D01*
X112650057Y-103400000D02*
X145900000Y-103400000D01*
X109300000Y-100049943D02*
X112650057Y-103400000D01*
X109300000Y-99500000D02*
X109300000Y-100049943D01*
X147600000Y-103000000D02*
X147800000Y-103200000D01*
X112950000Y-103000000D02*
X147600000Y-103000000D01*
X110100000Y-100000000D02*
X110100000Y-100150000D01*
X110100000Y-100150000D02*
X112950000Y-103000000D01*
X152000000Y-102200000D02*
X152900000Y-103100000D01*
X113900000Y-102200000D02*
X152000000Y-102200000D01*
X111700000Y-100000000D02*
X113900000Y-102200000D01*
X154700000Y-101800000D02*
X155400000Y-102500000D01*
X114250057Y-101800000D02*
X154700000Y-101800000D01*
X112500000Y-100049943D02*
X114250057Y-101800000D01*
X112500000Y-99500000D02*
X112500000Y-100049943D01*
X157500000Y-101400000D02*
X158000000Y-101900000D01*
X114700000Y-101400000D02*
X157500000Y-101400000D01*
X113300000Y-100000000D02*
X114700000Y-101400000D01*
X160200586Y-101002000D02*
X160202000Y-101002000D01*
X160199585Y-101001000D02*
X160200586Y-101002000D01*
X160202000Y-101002000D02*
X160500000Y-101300000D01*
X157666685Y-101001000D02*
X160199585Y-101001000D01*
X115050057Y-101000000D02*
X157665686Y-101000000D01*
X157665686Y-101000000D02*
X157666685Y-101001000D01*
X114100000Y-100049943D02*
X115050057Y-101000000D01*
X114100000Y-99500000D02*
X114100000Y-100049943D01*
X120377900Y-97672100D02*
X169937898Y-97672100D01*
X169937898Y-97672100D02*
X178260000Y-89349998D01*
X119700000Y-97600000D02*
X119700000Y-98350000D01*
X119700000Y-98350000D02*
X120377900Y-97672100D01*
X178260000Y-89349998D02*
X178260000Y-72040000D01*
X175720000Y-89350000D02*
X175720000Y-72040000D01*
X121271100Y-97271100D02*
X167798900Y-97271100D01*
X120300000Y-96300000D02*
X121271100Y-97271100D01*
X119000000Y-96300000D02*
X120300000Y-96300000D01*
X118900000Y-96400000D02*
X119000000Y-96300000D01*
X118900000Y-97600000D02*
X118900000Y-96400000D01*
X170640000Y-90552080D02*
X170640000Y-72040000D01*
X164720980Y-96471100D02*
X170640000Y-90552080D01*
X167798900Y-97271100D02*
X175720000Y-89350000D01*
X121655415Y-96471100D02*
X164720980Y-96471100D01*
X120684316Y-95500000D02*
X121655415Y-96471100D01*
X118200000Y-95500000D02*
X120684316Y-95500000D01*
X117300000Y-97600000D02*
X117300000Y-96400000D01*
X173180000Y-89350000D02*
X173180000Y-72040000D01*
X118600000Y-95900000D02*
X120518630Y-95900000D01*
X118100000Y-96400000D02*
X118600000Y-95900000D01*
X120518630Y-95900000D02*
X121489730Y-96871100D01*
X117300000Y-96400000D02*
X118200000Y-95500000D01*
X165658900Y-96871100D02*
X173180000Y-89350000D01*
X121489730Y-96871100D02*
X165658900Y-96871100D01*
X118100000Y-97600000D02*
X118100000Y-96400000D01*
X130000000Y-89900000D02*
X130000000Y-72040000D01*
X132540000Y-89240000D02*
X132540000Y-72040000D01*
X132600000Y-89300000D02*
X132540000Y-89240000D01*
X135080000Y-86780000D02*
X135080000Y-72040000D01*
X135050000Y-86810000D02*
X135080000Y-86780000D01*
X135050000Y-88650000D02*
X135050000Y-86810000D01*
X137620000Y-88100000D02*
X137620000Y-72040000D01*
X140160000Y-87500000D02*
X140160000Y-72040000D01*
X165560000Y-91100000D02*
X165560000Y-72040000D01*
X123581864Y-94700000D02*
X161960000Y-94700000D01*
X121590237Y-93927900D02*
X122809764Y-93927900D01*
X161960000Y-94700000D02*
X165560000Y-91100000D01*
X117400000Y-94700000D02*
X120818136Y-94700000D01*
X120818136Y-94700000D02*
X121590237Y-93927900D01*
X122809764Y-93927900D02*
X123581864Y-94700000D01*
X115700000Y-97600000D02*
X115700000Y-96400000D01*
X115700000Y-96400000D02*
X117400000Y-94700000D01*
X162350000Y-95100000D02*
X168100000Y-89350000D01*
X120983822Y-95100000D02*
X121755922Y-94327900D01*
X116500000Y-96400000D02*
X117800000Y-95100000D01*
X123416178Y-95100000D02*
X162350000Y-95100000D01*
X122644078Y-94327900D02*
X123416178Y-95100000D01*
X116500000Y-97600000D02*
X116500000Y-96400000D01*
X121755922Y-94327900D02*
X122644078Y-94327900D01*
X117800000Y-95100000D02*
X120983822Y-95100000D01*
X168100000Y-89350000D02*
X168100000Y-72040000D01*
X142700000Y-86800000D02*
X142700000Y-72040000D01*
X142800000Y-86900000D02*
X142700000Y-86800000D01*
X145240000Y-85940000D02*
X145240000Y-72040000D01*
X145800000Y-86500000D02*
X145240000Y-85940000D01*
X147780000Y-86580000D02*
X147780000Y-72040000D01*
X147800000Y-86600000D02*
X147780000Y-86580000D01*
X149100000Y-102600000D02*
X150300000Y-103800000D01*
X110900000Y-100049943D02*
X113450057Y-102600000D01*
X110900000Y-99500000D02*
X110900000Y-100049943D01*
X113450057Y-102600000D02*
X149100000Y-102600000D01*
X115500000Y-100600000D02*
X116165686Y-100600000D01*
X114900000Y-100000000D02*
X115500000Y-100600000D01*
X150320000Y-86380000D02*
X150320000Y-72040000D01*
X150300000Y-86400000D02*
X150320000Y-86380000D01*
X152860000Y-86360000D02*
X152860000Y-72040000D01*
X152900000Y-86400000D02*
X152860000Y-86360000D01*
X155400000Y-86400000D02*
X155400000Y-72040000D01*
X157940000Y-86360000D02*
X157940000Y-72040000D01*
X157900000Y-86400000D02*
X157940000Y-86360000D01*
X160480000Y-86380000D02*
X160480000Y-72040000D01*
X160500000Y-86400000D02*
X160480000Y-86380000D01*
X163100000Y-86400000D02*
X163020000Y-86320000D01*
X163020000Y-86320000D02*
X163020000Y-72040000D01*
D15*
X118900000Y-97600000D02*
X118900000Y-99500000D01*
X118100000Y-97600000D02*
X118100000Y-100000000D01*
X117300000Y-97600000D02*
X117300000Y-99500000D01*
X116500000Y-97600000D02*
X116500000Y-100000000D01*
X115700000Y-97600000D02*
X115700000Y-99500000D01*
X114900000Y-97600000D02*
X114900000Y-100000000D01*
X114100000Y-97600000D02*
X114100000Y-99500000D01*
X113300000Y-97600000D02*
X113300000Y-100000000D01*
X112500000Y-97600000D02*
X112500000Y-99500000D01*
X111700000Y-97600000D02*
X111700000Y-100000000D01*
X110900000Y-97600000D02*
X110900000Y-99500000D01*
X110100000Y-97600000D02*
X110100000Y-100000000D01*
X109300000Y-97600000D02*
X109300000Y-99500000D01*
X108500000Y-97600000D02*
X108500000Y-100000000D01*
X107700000Y-97600000D02*
X107700000Y-99500000D01*
X106900000Y-97600000D02*
X106900000Y-100000000D01*
X106100000Y-97600000D02*
X106100000Y-99500000D01*
X105300000Y-97600000D02*
X105300000Y-100000000D01*
X104500000Y-97600000D02*
X104500000Y-99500000D01*
X119700000Y-93200000D02*
X119700000Y-90500000D01*
X118900000Y-93200000D02*
X118900000Y-90000000D01*
X118100000Y-93200000D02*
X118100000Y-90500000D01*
X117300000Y-93200000D02*
X117300000Y-90000000D01*
X116500000Y-93200000D02*
X116500000Y-90500000D01*
X115700000Y-93200000D02*
X115700000Y-90000000D01*
X114900000Y-93200000D02*
X114900000Y-90500000D01*
X114100000Y-93200000D02*
X114100000Y-90000000D01*
X113300000Y-93200000D02*
X113300000Y-90500000D01*
X112500000Y-93200000D02*
X112500000Y-90000000D01*
X111700000Y-93200000D02*
X111700000Y-90500000D01*
X110900000Y-93200000D02*
X110900000Y-90000000D01*
X110100000Y-93200000D02*
X110100000Y-90500000D01*
X109300000Y-93200000D02*
X109300000Y-90000000D01*
X108500000Y-93200000D02*
X108500001Y-90625719D01*
X107700000Y-93200000D02*
X107700001Y-89998299D01*
X106900000Y-93200000D02*
X106900001Y-90430503D01*
X106100000Y-93200000D02*
X106100000Y-90000000D01*
X104500000Y-93200000D02*
X104500000Y-90000000D01*
X105300000Y-93200000D02*
X105300000Y-90500000D01*
X119700000Y-97600000D02*
X119700000Y-100000000D01*
D14*
X162999000Y-100601000D02*
X163100000Y-100500000D01*
X160366685Y-100601000D02*
X162999000Y-100601000D01*
X160365686Y-100600000D02*
X160366685Y-100601000D01*
X116165686Y-100600000D02*
X160365686Y-100600000D01*
G04 #@! TA.AperFunction,Conductor*
G36*
X199442539Y-67520185D02*
G01*
X199488294Y-67572989D01*
X199499500Y-67624500D01*
X199499500Y-104375500D01*
X199479815Y-104442539D01*
X199427011Y-104488294D01*
X199375500Y-104499500D01*
X151027350Y-104499500D01*
X150960311Y-104479815D01*
X150914556Y-104427011D01*
X150904612Y-104357853D01*
X150924248Y-104306609D01*
X151009390Y-104179185D01*
X151009390Y-104179184D01*
X151009394Y-104179179D01*
X151069737Y-104033497D01*
X151100500Y-103878842D01*
X151100500Y-103721158D01*
X151100500Y-103721155D01*
X151100499Y-103721153D01*
X151078447Y-103610292D01*
X151069737Y-103566503D01*
X151033569Y-103479185D01*
X151009397Y-103420827D01*
X151009390Y-103420814D01*
X150921789Y-103289711D01*
X150921786Y-103289707D01*
X150810292Y-103178213D01*
X150810288Y-103178210D01*
X150679185Y-103090609D01*
X150679172Y-103090602D01*
X150554738Y-103039061D01*
X150500334Y-102995221D01*
X150478269Y-102928926D01*
X150495548Y-102861227D01*
X150546685Y-102813616D01*
X150602190Y-102800500D01*
X151699903Y-102800500D01*
X151766942Y-102820185D01*
X151787584Y-102836819D01*
X152065425Y-103114660D01*
X152098910Y-103175983D01*
X152099361Y-103178149D01*
X152130261Y-103333491D01*
X152130264Y-103333501D01*
X152190602Y-103479172D01*
X152190609Y-103479185D01*
X152278210Y-103610288D01*
X152278213Y-103610292D01*
X152389707Y-103721786D01*
X152389711Y-103721789D01*
X152520814Y-103809390D01*
X152520827Y-103809397D01*
X152615799Y-103848735D01*
X152666503Y-103869737D01*
X152813119Y-103898901D01*
X152821153Y-103900499D01*
X152821156Y-103900500D01*
X152821158Y-103900500D01*
X152978844Y-103900500D01*
X152978845Y-103900499D01*
X153133497Y-103869737D01*
X153279179Y-103809394D01*
X153410289Y-103721789D01*
X153521789Y-103610289D01*
X153609394Y-103479179D01*
X153669737Y-103333497D01*
X153700500Y-103178842D01*
X153700500Y-103021158D01*
X153700500Y-103021155D01*
X153700499Y-103021153D01*
X153682154Y-102928926D01*
X153669737Y-102866503D01*
X153642398Y-102800500D01*
X153609397Y-102720827D01*
X153609390Y-102720814D01*
X153524248Y-102593391D01*
X153503370Y-102526714D01*
X153521854Y-102459334D01*
X153573833Y-102412643D01*
X153627350Y-102400500D01*
X154399903Y-102400500D01*
X154429343Y-102409144D01*
X154459330Y-102415668D01*
X154464345Y-102419422D01*
X154466942Y-102420185D01*
X154487584Y-102436819D01*
X154565425Y-102514660D01*
X154598910Y-102575983D01*
X154599361Y-102578149D01*
X154630261Y-102733491D01*
X154630264Y-102733501D01*
X154690602Y-102879172D01*
X154690609Y-102879185D01*
X154778210Y-103010288D01*
X154778213Y-103010292D01*
X154889707Y-103121786D01*
X154889711Y-103121789D01*
X155020814Y-103209390D01*
X155020827Y-103209397D01*
X155166498Y-103269735D01*
X155166503Y-103269737D01*
X155320193Y-103300308D01*
X155321153Y-103300499D01*
X155321156Y-103300500D01*
X155321158Y-103300500D01*
X155478844Y-103300500D01*
X155478845Y-103300499D01*
X155633497Y-103269737D01*
X155779179Y-103209394D01*
X155910289Y-103121789D01*
X156021789Y-103010289D01*
X156109394Y-102879179D01*
X156169737Y-102733497D01*
X156200500Y-102578842D01*
X156200500Y-102421158D01*
X156200500Y-102421155D01*
X156200499Y-102421153D01*
X156196391Y-102400500D01*
X156169737Y-102266503D01*
X156130572Y-102171951D01*
X156123104Y-102102483D01*
X156154379Y-102040004D01*
X156214468Y-102004352D01*
X156245134Y-102000500D01*
X157102044Y-102000500D01*
X157169083Y-102020185D01*
X157214838Y-102072989D01*
X157223661Y-102100309D01*
X157230261Y-102133489D01*
X157230264Y-102133501D01*
X157290602Y-102279172D01*
X157290609Y-102279185D01*
X157378210Y-102410288D01*
X157378213Y-102410292D01*
X157489707Y-102521786D01*
X157489711Y-102521789D01*
X157620814Y-102609390D01*
X157620827Y-102609397D01*
X157766498Y-102669735D01*
X157766503Y-102669737D01*
X157921153Y-102700499D01*
X157921156Y-102700500D01*
X157921158Y-102700500D01*
X158078844Y-102700500D01*
X158078845Y-102700499D01*
X158233497Y-102669737D01*
X158379179Y-102609394D01*
X158510289Y-102521789D01*
X158621789Y-102410289D01*
X158709394Y-102279179D01*
X158769737Y-102133497D01*
X158800500Y-101978842D01*
X158800500Y-101821158D01*
X158800500Y-101821155D01*
X158800499Y-101821153D01*
X158786285Y-101749691D01*
X158792512Y-101680100D01*
X158835375Y-101624922D01*
X158901265Y-101601678D01*
X158907902Y-101601500D01*
X159675576Y-101601500D01*
X159742615Y-101621185D01*
X159788370Y-101673989D01*
X159790135Y-101678042D01*
X159790603Y-101679173D01*
X159790609Y-101679184D01*
X159878210Y-101810289D01*
X159989707Y-101921786D01*
X159989711Y-101921789D01*
X160120814Y-102009390D01*
X160120827Y-102009397D01*
X160266498Y-102069735D01*
X160266503Y-102069737D01*
X160420198Y-102100309D01*
X160421153Y-102100499D01*
X160421156Y-102100500D01*
X160421158Y-102100500D01*
X160578844Y-102100500D01*
X160578845Y-102100499D01*
X160733497Y-102069737D01*
X160879179Y-102009394D01*
X161010289Y-101921789D01*
X161121789Y-101810289D01*
X161209394Y-101679179D01*
X161269737Y-101533497D01*
X161300500Y-101378842D01*
X161300500Y-101325500D01*
X161320185Y-101258461D01*
X161372989Y-101212706D01*
X161424500Y-101201500D01*
X162677098Y-101201500D01*
X162724550Y-101210939D01*
X162839280Y-101258461D01*
X162866503Y-101269737D01*
X163021153Y-101300499D01*
X163021156Y-101300500D01*
X163021158Y-101300500D01*
X163178844Y-101300500D01*
X163178845Y-101300499D01*
X163333497Y-101269737D01*
X163479179Y-101209394D01*
X163610289Y-101121789D01*
X163721789Y-101010289D01*
X163809394Y-100879179D01*
X163869737Y-100733497D01*
X163900500Y-100578842D01*
X163900500Y-100421158D01*
X163900500Y-100421155D01*
X163900499Y-100421153D01*
X163892150Y-100379179D01*
X163869737Y-100266503D01*
X163809794Y-100121786D01*
X163809397Y-100120827D01*
X163809390Y-100120814D01*
X163721789Y-99989711D01*
X163721786Y-99989707D01*
X163610292Y-99878213D01*
X163610288Y-99878210D01*
X163479185Y-99790609D01*
X163479172Y-99790602D01*
X163333501Y-99730264D01*
X163333489Y-99730261D01*
X163178845Y-99699500D01*
X163178842Y-99699500D01*
X163021158Y-99699500D01*
X163021155Y-99699500D01*
X162866510Y-99730261D01*
X162866498Y-99730264D01*
X162720827Y-99790602D01*
X162720814Y-99790609D01*
X162589711Y-99878210D01*
X162589707Y-99878213D01*
X162503740Y-99964181D01*
X162442417Y-99997666D01*
X162416059Y-100000500D01*
X160460498Y-100000500D01*
X160444838Y-99999500D01*
X160444743Y-99999500D01*
X160366987Y-99999500D01*
X160279220Y-99999456D01*
X160278549Y-99999500D01*
X120617848Y-99999500D01*
X120550809Y-99979815D01*
X120505054Y-99927011D01*
X120496231Y-99899692D01*
X120469738Y-99766508D01*
X120469737Y-99766507D01*
X120469737Y-99766503D01*
X120456062Y-99733489D01*
X120409939Y-99622136D01*
X120400500Y-99574684D01*
X120400500Y-99246728D01*
X120408318Y-99203394D01*
X120444091Y-99107483D01*
X120450500Y-99047873D01*
X120450499Y-98500096D01*
X120459144Y-98470651D01*
X120465667Y-98440670D01*
X120469420Y-98435656D01*
X120470183Y-98433058D01*
X120486812Y-98412421D01*
X120590317Y-98308917D01*
X120651639Y-98275434D01*
X120677997Y-98272600D01*
X169851229Y-98272600D01*
X169851245Y-98272601D01*
X169858841Y-98272601D01*
X170016952Y-98272601D01*
X170016955Y-98272601D01*
X170169683Y-98231677D01*
X170223683Y-98200500D01*
X170223684Y-98200500D01*
X170306607Y-98152624D01*
X170306606Y-98152624D01*
X170306614Y-98152620D01*
X170418418Y-98040816D01*
X170418418Y-98040814D01*
X170428622Y-98030611D01*
X170428625Y-98030606D01*
X178740520Y-89718714D01*
X178819577Y-89581782D01*
X178860501Y-89429055D01*
X178860501Y-89270940D01*
X178860501Y-89270938D01*
X178860501Y-89263338D01*
X178860500Y-89263327D01*
X178860500Y-73474499D01*
X178880185Y-73407460D01*
X178932989Y-73361705D01*
X178984500Y-73350499D01*
X179157871Y-73350499D01*
X179157872Y-73350499D01*
X179217483Y-73344091D01*
X179352331Y-73293796D01*
X179467546Y-73207546D01*
X179553796Y-73092331D01*
X179604091Y-72957483D01*
X179610500Y-72897873D01*
X179610499Y-71102128D01*
X179604091Y-71042517D01*
X179602810Y-71039083D01*
X179553797Y-70907671D01*
X179553793Y-70907664D01*
X179467547Y-70792455D01*
X179467544Y-70792452D01*
X179352335Y-70706206D01*
X179352328Y-70706202D01*
X179220917Y-70657189D01*
X179164983Y-70615318D01*
X179140566Y-70549853D01*
X179155418Y-70481580D01*
X179176563Y-70453332D01*
X179290104Y-70339792D01*
X179415051Y-70167816D01*
X179511557Y-69978412D01*
X179577246Y-69776243D01*
X179610500Y-69566287D01*
X179610500Y-69353713D01*
X179577246Y-69143757D01*
X179511557Y-68941588D01*
X179415051Y-68752184D01*
X179415049Y-68752181D01*
X179415048Y-68752179D01*
X179290109Y-68580213D01*
X179139786Y-68429890D01*
X178967820Y-68304951D01*
X178778414Y-68208444D01*
X178778413Y-68208443D01*
X178778412Y-68208443D01*
X178576243Y-68142754D01*
X178576241Y-68142753D01*
X178576240Y-68142753D01*
X178414957Y-68117208D01*
X178366287Y-68109500D01*
X178153713Y-68109500D01*
X178105042Y-68117208D01*
X177943760Y-68142753D01*
X177741585Y-68208444D01*
X177552179Y-68304951D01*
X177380213Y-68429890D01*
X177229890Y-68580213D01*
X177104949Y-68752182D01*
X177100484Y-68760946D01*
X177052509Y-68811742D01*
X176984688Y-68828536D01*
X176918553Y-68805998D01*
X176879516Y-68760946D01*
X176875050Y-68752182D01*
X176750109Y-68580213D01*
X176599786Y-68429890D01*
X176427820Y-68304951D01*
X176238414Y-68208444D01*
X176238413Y-68208443D01*
X176238412Y-68208443D01*
X176036243Y-68142754D01*
X176036241Y-68142753D01*
X176036240Y-68142753D01*
X175874957Y-68117208D01*
X175826287Y-68109500D01*
X175613713Y-68109500D01*
X175565042Y-68117208D01*
X175403760Y-68142753D01*
X175201585Y-68208444D01*
X175012179Y-68304951D01*
X174840213Y-68429890D01*
X174689890Y-68580213D01*
X174564949Y-68752182D01*
X174560484Y-68760946D01*
X174512509Y-68811742D01*
X174444688Y-68828536D01*
X174378553Y-68805998D01*
X174339516Y-68760946D01*
X174335050Y-68752182D01*
X174210109Y-68580213D01*
X174059786Y-68429890D01*
X173887820Y-68304951D01*
X173698414Y-68208444D01*
X173698413Y-68208443D01*
X173698412Y-68208443D01*
X173496243Y-68142754D01*
X173496241Y-68142753D01*
X173496240Y-68142753D01*
X173334957Y-68117208D01*
X173286287Y-68109500D01*
X173073713Y-68109500D01*
X173025042Y-68117208D01*
X172863760Y-68142753D01*
X172661585Y-68208444D01*
X172472179Y-68304951D01*
X172300213Y-68429890D01*
X172149890Y-68580213D01*
X172024949Y-68752182D01*
X172020484Y-68760946D01*
X171972509Y-68811742D01*
X171904688Y-68828536D01*
X171838553Y-68805998D01*
X171799516Y-68760946D01*
X171795050Y-68752182D01*
X171670109Y-68580213D01*
X171519786Y-68429890D01*
X171347820Y-68304951D01*
X171158414Y-68208444D01*
X171158413Y-68208443D01*
X171158412Y-68208443D01*
X170956243Y-68142754D01*
X170956241Y-68142753D01*
X170956240Y-68142753D01*
X170794957Y-68117208D01*
X170746287Y-68109500D01*
X170533713Y-68109500D01*
X170485042Y-68117208D01*
X170323760Y-68142753D01*
X170121585Y-68208444D01*
X169932179Y-68304951D01*
X169760213Y-68429890D01*
X169609890Y-68580213D01*
X169484949Y-68752182D01*
X169480484Y-68760946D01*
X169432509Y-68811742D01*
X169364688Y-68828536D01*
X169298553Y-68805998D01*
X169259516Y-68760946D01*
X169255050Y-68752182D01*
X169130109Y-68580213D01*
X168979786Y-68429890D01*
X168807820Y-68304951D01*
X168618414Y-68208444D01*
X168618413Y-68208443D01*
X168618412Y-68208443D01*
X168416243Y-68142754D01*
X168416241Y-68142753D01*
X168416240Y-68142753D01*
X168254957Y-68117208D01*
X168206287Y-68109500D01*
X167993713Y-68109500D01*
X167945042Y-68117208D01*
X167783760Y-68142753D01*
X167581585Y-68208444D01*
X167392179Y-68304951D01*
X167220213Y-68429890D01*
X167069890Y-68580213D01*
X166944949Y-68752182D01*
X166940484Y-68760946D01*
X166892509Y-68811742D01*
X166824688Y-68828536D01*
X166758553Y-68805998D01*
X166719516Y-68760946D01*
X166715050Y-68752182D01*
X166590109Y-68580213D01*
X166439786Y-68429890D01*
X166267820Y-68304951D01*
X166078414Y-68208444D01*
X166078413Y-68208443D01*
X166078412Y-68208443D01*
X165876243Y-68142754D01*
X165876241Y-68142753D01*
X165876240Y-68142753D01*
X165714957Y-68117208D01*
X165666287Y-68109500D01*
X165453713Y-68109500D01*
X165405042Y-68117208D01*
X165243760Y-68142753D01*
X165041585Y-68208444D01*
X164852179Y-68304951D01*
X164680213Y-68429890D01*
X164529890Y-68580213D01*
X164404949Y-68752182D01*
X164400484Y-68760946D01*
X164352509Y-68811742D01*
X164284688Y-68828536D01*
X164218553Y-68805998D01*
X164179516Y-68760946D01*
X164175050Y-68752182D01*
X164050109Y-68580213D01*
X163899786Y-68429890D01*
X163727820Y-68304951D01*
X163538414Y-68208444D01*
X163538413Y-68208443D01*
X163538412Y-68208443D01*
X163336243Y-68142754D01*
X163336241Y-68142753D01*
X163336240Y-68142753D01*
X163174957Y-68117208D01*
X163126287Y-68109500D01*
X162913713Y-68109500D01*
X162865042Y-68117208D01*
X162703760Y-68142753D01*
X162501585Y-68208444D01*
X162312179Y-68304951D01*
X162140213Y-68429890D01*
X161989890Y-68580213D01*
X161864949Y-68752182D01*
X161860484Y-68760946D01*
X161812509Y-68811742D01*
X161744688Y-68828536D01*
X161678553Y-68805998D01*
X161639516Y-68760946D01*
X161635050Y-68752182D01*
X161510109Y-68580213D01*
X161359786Y-68429890D01*
X161187820Y-68304951D01*
X160998414Y-68208444D01*
X160998413Y-68208443D01*
X160998412Y-68208443D01*
X160796243Y-68142754D01*
X160796241Y-68142753D01*
X160796240Y-68142753D01*
X160634957Y-68117208D01*
X160586287Y-68109500D01*
X160373713Y-68109500D01*
X160325042Y-68117208D01*
X160163760Y-68142753D01*
X159961585Y-68208444D01*
X159772179Y-68304951D01*
X159600213Y-68429890D01*
X159449890Y-68580213D01*
X159324949Y-68752182D01*
X159320484Y-68760946D01*
X159272509Y-68811742D01*
X159204688Y-68828536D01*
X159138553Y-68805998D01*
X159099516Y-68760946D01*
X159095050Y-68752182D01*
X158970109Y-68580213D01*
X158819786Y-68429890D01*
X158647820Y-68304951D01*
X158458414Y-68208444D01*
X158458413Y-68208443D01*
X158458412Y-68208443D01*
X158256243Y-68142754D01*
X158256241Y-68142753D01*
X158256240Y-68142753D01*
X158094957Y-68117208D01*
X158046287Y-68109500D01*
X157833713Y-68109500D01*
X157785042Y-68117208D01*
X157623760Y-68142753D01*
X157421585Y-68208444D01*
X157232179Y-68304951D01*
X157060213Y-68429890D01*
X156909890Y-68580213D01*
X156784949Y-68752182D01*
X156780484Y-68760946D01*
X156732509Y-68811742D01*
X156664688Y-68828536D01*
X156598553Y-68805998D01*
X156559516Y-68760946D01*
X156555050Y-68752182D01*
X156430109Y-68580213D01*
X156279786Y-68429890D01*
X156107820Y-68304951D01*
X155918414Y-68208444D01*
X155918413Y-68208443D01*
X155918412Y-68208443D01*
X155716243Y-68142754D01*
X155716241Y-68142753D01*
X155716240Y-68142753D01*
X155554957Y-68117208D01*
X155506287Y-68109500D01*
X155293713Y-68109500D01*
X155245042Y-68117208D01*
X155083760Y-68142753D01*
X154881585Y-68208444D01*
X154692179Y-68304951D01*
X154520213Y-68429890D01*
X154369890Y-68580213D01*
X154244949Y-68752182D01*
X154240484Y-68760946D01*
X154192509Y-68811742D01*
X154124688Y-68828536D01*
X154058553Y-68805998D01*
X154019516Y-68760946D01*
X154015050Y-68752182D01*
X153890109Y-68580213D01*
X153739786Y-68429890D01*
X153567820Y-68304951D01*
X153378414Y-68208444D01*
X153378413Y-68208443D01*
X153378412Y-68208443D01*
X153176243Y-68142754D01*
X153176241Y-68142753D01*
X153176240Y-68142753D01*
X153014957Y-68117208D01*
X152966287Y-68109500D01*
X152753713Y-68109500D01*
X152705042Y-68117208D01*
X152543760Y-68142753D01*
X152341585Y-68208444D01*
X152152179Y-68304951D01*
X151980213Y-68429890D01*
X151829890Y-68580213D01*
X151704949Y-68752182D01*
X151700484Y-68760946D01*
X151652509Y-68811742D01*
X151584688Y-68828536D01*
X151518553Y-68805998D01*
X151479516Y-68760946D01*
X151475050Y-68752182D01*
X151350109Y-68580213D01*
X151199786Y-68429890D01*
X151027820Y-68304951D01*
X150838414Y-68208444D01*
X150838413Y-68208443D01*
X150838412Y-68208443D01*
X150636243Y-68142754D01*
X150636241Y-68142753D01*
X150636240Y-68142753D01*
X150474957Y-68117208D01*
X150426287Y-68109500D01*
X150213713Y-68109500D01*
X150165042Y-68117208D01*
X150003760Y-68142753D01*
X149801585Y-68208444D01*
X149612179Y-68304951D01*
X149440213Y-68429890D01*
X149289890Y-68580213D01*
X149164949Y-68752182D01*
X149160484Y-68760946D01*
X149112509Y-68811742D01*
X149044688Y-68828536D01*
X148978553Y-68805998D01*
X148939516Y-68760946D01*
X148935050Y-68752182D01*
X148810109Y-68580213D01*
X148659786Y-68429890D01*
X148487820Y-68304951D01*
X148298414Y-68208444D01*
X148298413Y-68208443D01*
X148298412Y-68208443D01*
X148096243Y-68142754D01*
X148096241Y-68142753D01*
X148096240Y-68142753D01*
X147934957Y-68117208D01*
X147886287Y-68109500D01*
X147673713Y-68109500D01*
X147625042Y-68117208D01*
X147463760Y-68142753D01*
X147261585Y-68208444D01*
X147072179Y-68304951D01*
X146900213Y-68429890D01*
X146749890Y-68580213D01*
X146624949Y-68752182D01*
X146620484Y-68760946D01*
X146572509Y-68811742D01*
X146504688Y-68828536D01*
X146438553Y-68805998D01*
X146399516Y-68760946D01*
X146395050Y-68752182D01*
X146270109Y-68580213D01*
X146119786Y-68429890D01*
X145947820Y-68304951D01*
X145758414Y-68208444D01*
X145758413Y-68208443D01*
X145758412Y-68208443D01*
X145556243Y-68142754D01*
X145556241Y-68142753D01*
X145556240Y-68142753D01*
X145394957Y-68117208D01*
X145346287Y-68109500D01*
X145133713Y-68109500D01*
X145085042Y-68117208D01*
X144923760Y-68142753D01*
X144721585Y-68208444D01*
X144532179Y-68304951D01*
X144360213Y-68429890D01*
X144209890Y-68580213D01*
X144084949Y-68752182D01*
X144080484Y-68760946D01*
X144032509Y-68811742D01*
X143964688Y-68828536D01*
X143898553Y-68805998D01*
X143859516Y-68760946D01*
X143855050Y-68752182D01*
X143730109Y-68580213D01*
X143579786Y-68429890D01*
X143407820Y-68304951D01*
X143218414Y-68208444D01*
X143218413Y-68208443D01*
X143218412Y-68208443D01*
X143016243Y-68142754D01*
X143016241Y-68142753D01*
X143016240Y-68142753D01*
X142854957Y-68117208D01*
X142806287Y-68109500D01*
X142593713Y-68109500D01*
X142545042Y-68117208D01*
X142383760Y-68142753D01*
X142181585Y-68208444D01*
X141992179Y-68304951D01*
X141820213Y-68429890D01*
X141669890Y-68580213D01*
X141544949Y-68752182D01*
X141540484Y-68760946D01*
X141492509Y-68811742D01*
X141424688Y-68828536D01*
X141358553Y-68805998D01*
X141319516Y-68760946D01*
X141315050Y-68752182D01*
X141190109Y-68580213D01*
X141039786Y-68429890D01*
X140867820Y-68304951D01*
X140678414Y-68208444D01*
X140678413Y-68208443D01*
X140678412Y-68208443D01*
X140476243Y-68142754D01*
X140476241Y-68142753D01*
X140476240Y-68142753D01*
X140314957Y-68117208D01*
X140266287Y-68109500D01*
X140053713Y-68109500D01*
X140005042Y-68117208D01*
X139843760Y-68142753D01*
X139641585Y-68208444D01*
X139452179Y-68304951D01*
X139280213Y-68429890D01*
X139129890Y-68580213D01*
X139004949Y-68752182D01*
X139000484Y-68760946D01*
X138952509Y-68811742D01*
X138884688Y-68828536D01*
X138818553Y-68805998D01*
X138779516Y-68760946D01*
X138775050Y-68752182D01*
X138650109Y-68580213D01*
X138499786Y-68429890D01*
X138327820Y-68304951D01*
X138138414Y-68208444D01*
X138138413Y-68208443D01*
X138138412Y-68208443D01*
X137936243Y-68142754D01*
X137936241Y-68142753D01*
X137936240Y-68142753D01*
X137774957Y-68117208D01*
X137726287Y-68109500D01*
X137513713Y-68109500D01*
X137465042Y-68117208D01*
X137303760Y-68142753D01*
X137101585Y-68208444D01*
X136912179Y-68304951D01*
X136740213Y-68429890D01*
X136589890Y-68580213D01*
X136464949Y-68752182D01*
X136460484Y-68760946D01*
X136412509Y-68811742D01*
X136344688Y-68828536D01*
X136278553Y-68805998D01*
X136239516Y-68760946D01*
X136235050Y-68752182D01*
X136110109Y-68580213D01*
X135959786Y-68429890D01*
X135787820Y-68304951D01*
X135598414Y-68208444D01*
X135598413Y-68208443D01*
X135598412Y-68208443D01*
X135396243Y-68142754D01*
X135396241Y-68142753D01*
X135396240Y-68142753D01*
X135234957Y-68117208D01*
X135186287Y-68109500D01*
X134973713Y-68109500D01*
X134925042Y-68117208D01*
X134763760Y-68142753D01*
X134561585Y-68208444D01*
X134372179Y-68304951D01*
X134200213Y-68429890D01*
X134049890Y-68580213D01*
X133924949Y-68752182D01*
X133920202Y-68761499D01*
X133872227Y-68812293D01*
X133804405Y-68829087D01*
X133738271Y-68806548D01*
X133699234Y-68761495D01*
X133694626Y-68752452D01*
X133655270Y-68698282D01*
X133655269Y-68698282D01*
X133022962Y-69330590D01*
X133005925Y-69267007D01*
X132940099Y-69152993D01*
X132847007Y-69059901D01*
X132732993Y-68994075D01*
X132669409Y-68977037D01*
X133301716Y-68344728D01*
X133247550Y-68305375D01*
X133058217Y-68208904D01*
X132856129Y-68143242D01*
X132646246Y-68110000D01*
X132433754Y-68110000D01*
X132223872Y-68143242D01*
X132223869Y-68143242D01*
X132021782Y-68208904D01*
X131832439Y-68305380D01*
X131778282Y-68344727D01*
X131778282Y-68344728D01*
X132410591Y-68977037D01*
X132347007Y-68994075D01*
X132232993Y-69059901D01*
X132139901Y-69152993D01*
X132074075Y-69267007D01*
X132057037Y-69330591D01*
X131424728Y-68698282D01*
X131424727Y-68698282D01*
X131385380Y-68752440D01*
X131385376Y-68752446D01*
X131380760Y-68761505D01*
X131332781Y-68812297D01*
X131264959Y-68829087D01*
X131198826Y-68806543D01*
X131159794Y-68761493D01*
X131155051Y-68752184D01*
X131155049Y-68752181D01*
X131155048Y-68752179D01*
X131030109Y-68580213D01*
X130879786Y-68429890D01*
X130707820Y-68304951D01*
X130518414Y-68208444D01*
X130518413Y-68208443D01*
X130518412Y-68208443D01*
X130316243Y-68142754D01*
X130316241Y-68142753D01*
X130316240Y-68142753D01*
X130154957Y-68117208D01*
X130106287Y-68109500D01*
X129893713Y-68109500D01*
X129845042Y-68117208D01*
X129683760Y-68142753D01*
X129481585Y-68208444D01*
X129292179Y-68304951D01*
X129120213Y-68429890D01*
X128969890Y-68580213D01*
X128844951Y-68752179D01*
X128748444Y-68941585D01*
X128682753Y-69143760D01*
X128649500Y-69353713D01*
X128649500Y-69566286D01*
X128682753Y-69776239D01*
X128748444Y-69978414D01*
X128844951Y-70167820D01*
X128969890Y-70339786D01*
X129120213Y-70490109D01*
X129292182Y-70615050D01*
X129300946Y-70619516D01*
X129351742Y-70667491D01*
X129368536Y-70735312D01*
X129345998Y-70801447D01*
X129300946Y-70840484D01*
X129292182Y-70844949D01*
X129120213Y-70969890D01*
X128969890Y-71120213D01*
X128844951Y-71292179D01*
X128748444Y-71481585D01*
X128682753Y-71683760D01*
X128649500Y-71893713D01*
X128649500Y-72106286D01*
X128682753Y-72316239D01*
X128748444Y-72518414D01*
X128844951Y-72707820D01*
X128969890Y-72879786D01*
X129120213Y-73030109D01*
X129292184Y-73155051D01*
X129292184Y-73155052D01*
X129331793Y-73175233D01*
X129382590Y-73223206D01*
X129399500Y-73285718D01*
X129399500Y-89320234D01*
X129379815Y-89387273D01*
X129378602Y-89389125D01*
X129290609Y-89520814D01*
X129290602Y-89520827D01*
X129230264Y-89666498D01*
X129230261Y-89666510D01*
X129199500Y-89821153D01*
X129199500Y-89978846D01*
X129230261Y-90133489D01*
X129230264Y-90133501D01*
X129290602Y-90279172D01*
X129290609Y-90279185D01*
X129378210Y-90410288D01*
X129378213Y-90410292D01*
X129489707Y-90521786D01*
X129489711Y-90521789D01*
X129620814Y-90609390D01*
X129620827Y-90609397D01*
X129766498Y-90669735D01*
X129766503Y-90669737D01*
X129921153Y-90700499D01*
X129921156Y-90700500D01*
X129921158Y-90700500D01*
X130078844Y-90700500D01*
X130078845Y-90700499D01*
X130233497Y-90669737D01*
X130379179Y-90609394D01*
X130510289Y-90521789D01*
X130621789Y-90410289D01*
X130709394Y-90279179D01*
X130769737Y-90133497D01*
X130800500Y-89978842D01*
X130800500Y-89821158D01*
X130800500Y-89821155D01*
X130800499Y-89821153D01*
X130780123Y-89718716D01*
X130769737Y-89666503D01*
X130755224Y-89631466D01*
X130709397Y-89520827D01*
X130709390Y-89520814D01*
X130621398Y-89389125D01*
X130600520Y-89322447D01*
X130600500Y-89320234D01*
X130600500Y-73285718D01*
X130620185Y-73218679D01*
X130668207Y-73175233D01*
X130707815Y-73155052D01*
X130707815Y-73155051D01*
X130707816Y-73155051D01*
X130799193Y-73088661D01*
X130879786Y-73030109D01*
X130879788Y-73030106D01*
X130879792Y-73030104D01*
X131030104Y-72879792D01*
X131030106Y-72879788D01*
X131030109Y-72879786D01*
X131155048Y-72707820D01*
X131155047Y-72707820D01*
X131155051Y-72707816D01*
X131159514Y-72699054D01*
X131207488Y-72648259D01*
X131275308Y-72631463D01*
X131341444Y-72653999D01*
X131380486Y-72699056D01*
X131384951Y-72707820D01*
X131509890Y-72879786D01*
X131660213Y-73030109D01*
X131832184Y-73155051D01*
X131832184Y-73155052D01*
X131871793Y-73175233D01*
X131922590Y-73223206D01*
X131939500Y-73285718D01*
X131939500Y-88810030D01*
X131919815Y-88877069D01*
X131918602Y-88878921D01*
X131890609Y-88920814D01*
X131890602Y-88920827D01*
X131830264Y-89066498D01*
X131830261Y-89066510D01*
X131799500Y-89221153D01*
X131799500Y-89378846D01*
X131830261Y-89533489D01*
X131830264Y-89533501D01*
X131890602Y-89679172D01*
X131890609Y-89679185D01*
X131978210Y-89810288D01*
X131978213Y-89810292D01*
X132089707Y-89921786D01*
X132089711Y-89921789D01*
X132220814Y-90009390D01*
X132220827Y-90009397D01*
X132366498Y-90069735D01*
X132366503Y-90069737D01*
X132521153Y-90100499D01*
X132521156Y-90100500D01*
X132521158Y-90100500D01*
X132678844Y-90100500D01*
X132678845Y-90100499D01*
X132833497Y-90069737D01*
X132979179Y-90009394D01*
X133110289Y-89921789D01*
X133221789Y-89810289D01*
X133309394Y-89679179D01*
X133369737Y-89533497D01*
X133400500Y-89378842D01*
X133400500Y-89221158D01*
X133400500Y-89221155D01*
X133400499Y-89221153D01*
X133379769Y-89116939D01*
X133369737Y-89066503D01*
X133362860Y-89049900D01*
X133309397Y-88920827D01*
X133309390Y-88920814D01*
X133221789Y-88789711D01*
X133221786Y-88789707D01*
X133176819Y-88744740D01*
X133143334Y-88683417D01*
X133140500Y-88657059D01*
X133140500Y-73285718D01*
X133160185Y-73218679D01*
X133208207Y-73175233D01*
X133247815Y-73155052D01*
X133247815Y-73155051D01*
X133247816Y-73155051D01*
X133339193Y-73088661D01*
X133419786Y-73030109D01*
X133419788Y-73030106D01*
X133419792Y-73030104D01*
X133570104Y-72879792D01*
X133570106Y-72879788D01*
X133570109Y-72879786D01*
X133695048Y-72707820D01*
X133695047Y-72707820D01*
X133695051Y-72707816D01*
X133699514Y-72699054D01*
X133747488Y-72648259D01*
X133815308Y-72631463D01*
X133881444Y-72653999D01*
X133920486Y-72699056D01*
X133924951Y-72707820D01*
X134049890Y-72879786D01*
X134200213Y-73030109D01*
X134372184Y-73155051D01*
X134372184Y-73155052D01*
X134411793Y-73175233D01*
X134462590Y-73223206D01*
X134479500Y-73285718D01*
X134479500Y-86602653D01*
X134475275Y-86634746D01*
X134449499Y-86730943D01*
X134449499Y-86899046D01*
X134449500Y-86899059D01*
X134449500Y-88070234D01*
X134429815Y-88137273D01*
X134428602Y-88139125D01*
X134340609Y-88270814D01*
X134340602Y-88270827D01*
X134280264Y-88416498D01*
X134280261Y-88416510D01*
X134249500Y-88571153D01*
X134249500Y-88728846D01*
X134280261Y-88883489D01*
X134280264Y-88883501D01*
X134340602Y-89029172D01*
X134340609Y-89029185D01*
X134428210Y-89160288D01*
X134428213Y-89160292D01*
X134539707Y-89271786D01*
X134539711Y-89271789D01*
X134670814Y-89359390D01*
X134670827Y-89359397D01*
X134744013Y-89389711D01*
X134816503Y-89419737D01*
X134971153Y-89450499D01*
X134971156Y-89450500D01*
X134971158Y-89450500D01*
X135128844Y-89450500D01*
X135128845Y-89450499D01*
X135283497Y-89419737D01*
X135429179Y-89359394D01*
X135560289Y-89271789D01*
X135671789Y-89160289D01*
X135759394Y-89029179D01*
X135819737Y-88883497D01*
X135850500Y-88728842D01*
X135850500Y-88571158D01*
X135850500Y-88571155D01*
X135850499Y-88571153D01*
X135832204Y-88479179D01*
X135819737Y-88416503D01*
X135785352Y-88333489D01*
X135759397Y-88270827D01*
X135759390Y-88270814D01*
X135671398Y-88139125D01*
X135650520Y-88072447D01*
X135650500Y-88070234D01*
X135650500Y-86987344D01*
X135654725Y-86955250D01*
X135675368Y-86878211D01*
X135680500Y-86859058D01*
X135680500Y-86700943D01*
X135680500Y-73285718D01*
X135700185Y-73218679D01*
X135748207Y-73175233D01*
X135787815Y-73155052D01*
X135787815Y-73155051D01*
X135787816Y-73155051D01*
X135879193Y-73088661D01*
X135959786Y-73030109D01*
X135959788Y-73030106D01*
X135959792Y-73030104D01*
X136110104Y-72879792D01*
X136110106Y-72879788D01*
X136110109Y-72879786D01*
X136235048Y-72707820D01*
X136235047Y-72707820D01*
X136235051Y-72707816D01*
X136239514Y-72699054D01*
X136287488Y-72648259D01*
X136355308Y-72631463D01*
X136421444Y-72653999D01*
X136460486Y-72699056D01*
X136464951Y-72707820D01*
X136589890Y-72879786D01*
X136740213Y-73030109D01*
X136912184Y-73155051D01*
X136912184Y-73155052D01*
X136951793Y-73175233D01*
X137002590Y-73223206D01*
X137019500Y-73285718D01*
X137019500Y-87520234D01*
X136999815Y-87587273D01*
X136998602Y-87589125D01*
X136910609Y-87720814D01*
X136910602Y-87720827D01*
X136850264Y-87866498D01*
X136850261Y-87866510D01*
X136819500Y-88021153D01*
X136819500Y-88178846D01*
X136850261Y-88333489D01*
X136850264Y-88333501D01*
X136910602Y-88479172D01*
X136910609Y-88479185D01*
X136998210Y-88610288D01*
X136998213Y-88610292D01*
X137109707Y-88721786D01*
X137109711Y-88721789D01*
X137240814Y-88809390D01*
X137240827Y-88809397D01*
X137333170Y-88847646D01*
X137386503Y-88869737D01*
X137541153Y-88900499D01*
X137541156Y-88900500D01*
X137541158Y-88900500D01*
X137698844Y-88900500D01*
X137698845Y-88900499D01*
X137853497Y-88869737D01*
X137999179Y-88809394D01*
X138130289Y-88721789D01*
X138241789Y-88610289D01*
X138329394Y-88479179D01*
X138389737Y-88333497D01*
X138420500Y-88178842D01*
X138420500Y-88021158D01*
X138420500Y-88021155D01*
X138420499Y-88021153D01*
X138418338Y-88010288D01*
X138389737Y-87866503D01*
X138389735Y-87866498D01*
X138329397Y-87720827D01*
X138329390Y-87720814D01*
X138241398Y-87589125D01*
X138220520Y-87522447D01*
X138220500Y-87520234D01*
X138220500Y-73285718D01*
X138240185Y-73218679D01*
X138288207Y-73175233D01*
X138327815Y-73155052D01*
X138327815Y-73155051D01*
X138327816Y-73155051D01*
X138419193Y-73088661D01*
X138499786Y-73030109D01*
X138499788Y-73030106D01*
X138499792Y-73030104D01*
X138650104Y-72879792D01*
X138650106Y-72879788D01*
X138650109Y-72879786D01*
X138775048Y-72707820D01*
X138775047Y-72707820D01*
X138775051Y-72707816D01*
X138779514Y-72699054D01*
X138827488Y-72648259D01*
X138895308Y-72631463D01*
X138961444Y-72653999D01*
X139000486Y-72699056D01*
X139004951Y-72707820D01*
X139129890Y-72879786D01*
X139280213Y-73030109D01*
X139452184Y-73155051D01*
X139452184Y-73155052D01*
X139491793Y-73175233D01*
X139542590Y-73223206D01*
X139559500Y-73285718D01*
X139559500Y-86920234D01*
X139539815Y-86987273D01*
X139538602Y-86989125D01*
X139450609Y-87120814D01*
X139450602Y-87120827D01*
X139390264Y-87266498D01*
X139390261Y-87266510D01*
X139359500Y-87421153D01*
X139359500Y-87578846D01*
X139390261Y-87733489D01*
X139390264Y-87733501D01*
X139450602Y-87879172D01*
X139450609Y-87879185D01*
X139538210Y-88010288D01*
X139538213Y-88010292D01*
X139649707Y-88121786D01*
X139649711Y-88121789D01*
X139780814Y-88209390D01*
X139780827Y-88209397D01*
X139926498Y-88269735D01*
X139926503Y-88269737D01*
X140081153Y-88300499D01*
X140081156Y-88300500D01*
X140081158Y-88300500D01*
X140238844Y-88300500D01*
X140238845Y-88300499D01*
X140393497Y-88269737D01*
X140539179Y-88209394D01*
X140670289Y-88121789D01*
X140781789Y-88010289D01*
X140869394Y-87879179D01*
X140929737Y-87733497D01*
X140960500Y-87578842D01*
X140960500Y-87421158D01*
X140960500Y-87421155D01*
X140960499Y-87421153D01*
X140938269Y-87309397D01*
X140929737Y-87266503D01*
X140902398Y-87200500D01*
X140869397Y-87120827D01*
X140869390Y-87120814D01*
X140781398Y-86989125D01*
X140760520Y-86922447D01*
X140760500Y-86920234D01*
X140760500Y-73285718D01*
X140780185Y-73218679D01*
X140828207Y-73175233D01*
X140867815Y-73155052D01*
X140867815Y-73155051D01*
X140867816Y-73155051D01*
X140959193Y-73088661D01*
X141039786Y-73030109D01*
X141039788Y-73030106D01*
X141039792Y-73030104D01*
X141190104Y-72879792D01*
X141190106Y-72879788D01*
X141190109Y-72879786D01*
X141315048Y-72707820D01*
X141315047Y-72707820D01*
X141315051Y-72707816D01*
X141319514Y-72699054D01*
X141367488Y-72648259D01*
X141435308Y-72631463D01*
X141501444Y-72653999D01*
X141540486Y-72699056D01*
X141544951Y-72707820D01*
X141669890Y-72879786D01*
X141820213Y-73030109D01*
X141992184Y-73155051D01*
X141992184Y-73155052D01*
X142031793Y-73175233D01*
X142082590Y-73223206D01*
X142099500Y-73285718D01*
X142099500Y-86474684D01*
X142090061Y-86522136D01*
X142030264Y-86666498D01*
X142030261Y-86666510D01*
X141999500Y-86821153D01*
X141999500Y-86978846D01*
X142030261Y-87133489D01*
X142030264Y-87133501D01*
X142090602Y-87279172D01*
X142090609Y-87279185D01*
X142178210Y-87410288D01*
X142178213Y-87410292D01*
X142289707Y-87521786D01*
X142289711Y-87521789D01*
X142420814Y-87609390D01*
X142420827Y-87609397D01*
X142566498Y-87669735D01*
X142566503Y-87669737D01*
X142721153Y-87700499D01*
X142721156Y-87700500D01*
X142721158Y-87700500D01*
X142878844Y-87700500D01*
X142878845Y-87700499D01*
X143033497Y-87669737D01*
X143179179Y-87609394D01*
X143310289Y-87521789D01*
X143421789Y-87410289D01*
X143509394Y-87279179D01*
X143569737Y-87133497D01*
X143600500Y-86978842D01*
X143600500Y-86821158D01*
X143600500Y-86821155D01*
X143600499Y-86821153D01*
X143582555Y-86730943D01*
X143569737Y-86666503D01*
X143532244Y-86575985D01*
X143509397Y-86520827D01*
X143509390Y-86520814D01*
X143421789Y-86389711D01*
X143421786Y-86389707D01*
X143336819Y-86304740D01*
X143303334Y-86243417D01*
X143300500Y-86217059D01*
X143300500Y-73285718D01*
X143320185Y-73218679D01*
X143368207Y-73175233D01*
X143407815Y-73155052D01*
X143407815Y-73155051D01*
X143407816Y-73155051D01*
X143499193Y-73088661D01*
X143579786Y-73030109D01*
X143579788Y-73030106D01*
X143579792Y-73030104D01*
X143730104Y-72879792D01*
X143730106Y-72879788D01*
X143730109Y-72879786D01*
X143855048Y-72707820D01*
X143855047Y-72707820D01*
X143855051Y-72707816D01*
X143859514Y-72699054D01*
X143907488Y-72648259D01*
X143975308Y-72631463D01*
X144041444Y-72653999D01*
X144080486Y-72699056D01*
X144084951Y-72707820D01*
X144209890Y-72879786D01*
X144360213Y-73030109D01*
X144532184Y-73155051D01*
X144532184Y-73155052D01*
X144571793Y-73175233D01*
X144622590Y-73223206D01*
X144639500Y-73285718D01*
X144639500Y-85853330D01*
X144639499Y-85853348D01*
X144639499Y-86019054D01*
X144639498Y-86019054D01*
X144680423Y-86171787D01*
X144680425Y-86171790D01*
X144703227Y-86211283D01*
X144703228Y-86211285D01*
X144759475Y-86308709D01*
X144759481Y-86308717D01*
X144965426Y-86514662D01*
X144998911Y-86575985D01*
X144999362Y-86578151D01*
X145030261Y-86733491D01*
X145030264Y-86733501D01*
X145090602Y-86879172D01*
X145090609Y-86879185D01*
X145178210Y-87010288D01*
X145178213Y-87010292D01*
X145289707Y-87121786D01*
X145289711Y-87121789D01*
X145420814Y-87209390D01*
X145420827Y-87209397D01*
X145558683Y-87266498D01*
X145566503Y-87269737D01*
X145721153Y-87300499D01*
X145721156Y-87300500D01*
X145721158Y-87300500D01*
X145878844Y-87300500D01*
X145878845Y-87300499D01*
X146033497Y-87269737D01*
X146179179Y-87209394D01*
X146310289Y-87121789D01*
X146421789Y-87010289D01*
X146509394Y-86879179D01*
X146569737Y-86733497D01*
X146600500Y-86578842D01*
X146600500Y-86421158D01*
X146600500Y-86421155D01*
X146600499Y-86421153D01*
X146589627Y-86366498D01*
X146569737Y-86266503D01*
X146546865Y-86211284D01*
X146509397Y-86120827D01*
X146509390Y-86120814D01*
X146421789Y-85989711D01*
X146421786Y-85989707D01*
X146310292Y-85878213D01*
X146310288Y-85878210D01*
X146179185Y-85790609D01*
X146179172Y-85790602D01*
X146033501Y-85730264D01*
X146033489Y-85730261D01*
X145940309Y-85711726D01*
X145878398Y-85679341D01*
X145843823Y-85618625D01*
X145840500Y-85590109D01*
X145840500Y-73285718D01*
X145860185Y-73218679D01*
X145908207Y-73175233D01*
X145947815Y-73155052D01*
X145947815Y-73155051D01*
X145947816Y-73155051D01*
X146039193Y-73088661D01*
X146119786Y-73030109D01*
X146119788Y-73030106D01*
X146119792Y-73030104D01*
X146270104Y-72879792D01*
X146270106Y-72879788D01*
X146270109Y-72879786D01*
X146395048Y-72707820D01*
X146395047Y-72707820D01*
X146395051Y-72707816D01*
X146399514Y-72699054D01*
X146447488Y-72648259D01*
X146515308Y-72631463D01*
X146581444Y-72653999D01*
X146620486Y-72699056D01*
X146624951Y-72707820D01*
X146749890Y-72879786D01*
X146900213Y-73030109D01*
X147072184Y-73155051D01*
X147072184Y-73155052D01*
X147111793Y-73175233D01*
X147162590Y-73223206D01*
X147179500Y-73285718D01*
X147179500Y-86050166D01*
X147159815Y-86117205D01*
X147158602Y-86119057D01*
X147090609Y-86220814D01*
X147090602Y-86220827D01*
X147030264Y-86366498D01*
X147030261Y-86366510D01*
X146999500Y-86521153D01*
X146999500Y-86678846D01*
X147030261Y-86833489D01*
X147030264Y-86833501D01*
X147090602Y-86979172D01*
X147090609Y-86979185D01*
X147178210Y-87110288D01*
X147178213Y-87110292D01*
X147289707Y-87221786D01*
X147289711Y-87221789D01*
X147420814Y-87309390D01*
X147420827Y-87309397D01*
X147566498Y-87369735D01*
X147566503Y-87369737D01*
X147721153Y-87400499D01*
X147721156Y-87400500D01*
X147721158Y-87400500D01*
X147878844Y-87400500D01*
X147878845Y-87400499D01*
X148033497Y-87369737D01*
X148179179Y-87309394D01*
X148310289Y-87221789D01*
X148421789Y-87110289D01*
X148509394Y-86979179D01*
X148569737Y-86833497D01*
X148600500Y-86678842D01*
X148600500Y-86521158D01*
X148600500Y-86521155D01*
X148600499Y-86521153D01*
X148597785Y-86507510D01*
X148569737Y-86366503D01*
X148550955Y-86321158D01*
X148509397Y-86220827D01*
X148509390Y-86220814D01*
X148421789Y-86089711D01*
X148421786Y-86089707D01*
X148416819Y-86084740D01*
X148383334Y-86023417D01*
X148380500Y-85997059D01*
X148380500Y-73285718D01*
X148400185Y-73218679D01*
X148448207Y-73175233D01*
X148487815Y-73155052D01*
X148487815Y-73155051D01*
X148487816Y-73155051D01*
X148579193Y-73088661D01*
X148659786Y-73030109D01*
X148659788Y-73030106D01*
X148659792Y-73030104D01*
X148810104Y-72879792D01*
X148810106Y-72879788D01*
X148810109Y-72879786D01*
X148935048Y-72707820D01*
X148935047Y-72707820D01*
X148935051Y-72707816D01*
X148939514Y-72699054D01*
X148987488Y-72648259D01*
X149055308Y-72631463D01*
X149121444Y-72653999D01*
X149160486Y-72699056D01*
X149164951Y-72707820D01*
X149289890Y-72879786D01*
X149440213Y-73030109D01*
X149612184Y-73155051D01*
X149612184Y-73155052D01*
X149651793Y-73175233D01*
X149702590Y-73223206D01*
X149719500Y-73285718D01*
X149719500Y-85797059D01*
X149699815Y-85864098D01*
X149683181Y-85884740D01*
X149678213Y-85889707D01*
X149678210Y-85889711D01*
X149590609Y-86020814D01*
X149590602Y-86020827D01*
X149530264Y-86166498D01*
X149530261Y-86166510D01*
X149499500Y-86321153D01*
X149499500Y-86478846D01*
X149530261Y-86633489D01*
X149530264Y-86633501D01*
X149590602Y-86779172D01*
X149590609Y-86779185D01*
X149678210Y-86910288D01*
X149678213Y-86910292D01*
X149789707Y-87021786D01*
X149789711Y-87021789D01*
X149920814Y-87109390D01*
X149920827Y-87109397D01*
X150066498Y-87169735D01*
X150066503Y-87169737D01*
X150221153Y-87200499D01*
X150221156Y-87200500D01*
X150221158Y-87200500D01*
X150378844Y-87200500D01*
X150378845Y-87200499D01*
X150533497Y-87169737D01*
X150651592Y-87120821D01*
X150679172Y-87109397D01*
X150679172Y-87109396D01*
X150679179Y-87109394D01*
X150810289Y-87021789D01*
X150921789Y-86910289D01*
X151009394Y-86779179D01*
X151069737Y-86633497D01*
X151100500Y-86478842D01*
X151100500Y-86321158D01*
X151100500Y-86321155D01*
X151100499Y-86321153D01*
X151080543Y-86220827D01*
X151069737Y-86166503D01*
X151050812Y-86120814D01*
X151009397Y-86020827D01*
X151009390Y-86020814D01*
X150941398Y-85919057D01*
X150920520Y-85852379D01*
X150920500Y-85850166D01*
X150920500Y-73285718D01*
X150940185Y-73218679D01*
X150988207Y-73175233D01*
X151027815Y-73155052D01*
X151027815Y-73155051D01*
X151027816Y-73155051D01*
X151119193Y-73088661D01*
X151199786Y-73030109D01*
X151199788Y-73030106D01*
X151199792Y-73030104D01*
X151350104Y-72879792D01*
X151350106Y-72879788D01*
X151350109Y-72879786D01*
X151475048Y-72707820D01*
X151475047Y-72707820D01*
X151475051Y-72707816D01*
X151479514Y-72699054D01*
X151527488Y-72648259D01*
X151595308Y-72631463D01*
X151661444Y-72653999D01*
X151700486Y-72699056D01*
X151704951Y-72707820D01*
X151829890Y-72879786D01*
X151980213Y-73030109D01*
X152152184Y-73155051D01*
X152152184Y-73155052D01*
X152191793Y-73175233D01*
X152242590Y-73223206D01*
X152259500Y-73285718D01*
X152259500Y-85880099D01*
X152239815Y-85947138D01*
X152238602Y-85948990D01*
X152190609Y-86020815D01*
X152190602Y-86020828D01*
X152130264Y-86166498D01*
X152130261Y-86166510D01*
X152099500Y-86321153D01*
X152099500Y-86478846D01*
X152130261Y-86633489D01*
X152130264Y-86633501D01*
X152190602Y-86779172D01*
X152190609Y-86779185D01*
X152278210Y-86910288D01*
X152278213Y-86910292D01*
X152389707Y-87021786D01*
X152389711Y-87021789D01*
X152520814Y-87109390D01*
X152520827Y-87109397D01*
X152666498Y-87169735D01*
X152666503Y-87169737D01*
X152821153Y-87200499D01*
X152821156Y-87200500D01*
X152821158Y-87200500D01*
X152978844Y-87200500D01*
X152978845Y-87200499D01*
X153133497Y-87169737D01*
X153251592Y-87120821D01*
X153279172Y-87109397D01*
X153279172Y-87109396D01*
X153279179Y-87109394D01*
X153410289Y-87021789D01*
X153521789Y-86910289D01*
X153609394Y-86779179D01*
X153669737Y-86633497D01*
X153700500Y-86478842D01*
X153700500Y-86321158D01*
X153700500Y-86321155D01*
X153700499Y-86321153D01*
X153680543Y-86220827D01*
X153669737Y-86166503D01*
X153650812Y-86120814D01*
X153609397Y-86020827D01*
X153609390Y-86020814D01*
X153521789Y-85889711D01*
X153521786Y-85889707D01*
X153496819Y-85864740D01*
X153463334Y-85803417D01*
X153460500Y-85777059D01*
X153460500Y-73285718D01*
X153480185Y-73218679D01*
X153528207Y-73175233D01*
X153567815Y-73155052D01*
X153567815Y-73155051D01*
X153567816Y-73155051D01*
X153659193Y-73088661D01*
X153739786Y-73030109D01*
X153739788Y-73030106D01*
X153739792Y-73030104D01*
X153890104Y-72879792D01*
X153890106Y-72879788D01*
X153890109Y-72879786D01*
X154015048Y-72707820D01*
X154015047Y-72707820D01*
X154015051Y-72707816D01*
X154019514Y-72699054D01*
X154067488Y-72648259D01*
X154135308Y-72631463D01*
X154201444Y-72653999D01*
X154240486Y-72699056D01*
X154244951Y-72707820D01*
X154369890Y-72879786D01*
X154520213Y-73030109D01*
X154692184Y-73155051D01*
X154692184Y-73155052D01*
X154731793Y-73175233D01*
X154782590Y-73223206D01*
X154799500Y-73285718D01*
X154799500Y-85820234D01*
X154779815Y-85887273D01*
X154778602Y-85889125D01*
X154690609Y-86020814D01*
X154690602Y-86020827D01*
X154630264Y-86166498D01*
X154630261Y-86166510D01*
X154599500Y-86321153D01*
X154599500Y-86478846D01*
X154630261Y-86633489D01*
X154630264Y-86633501D01*
X154690602Y-86779172D01*
X154690609Y-86779185D01*
X154778210Y-86910288D01*
X154778213Y-86910292D01*
X154889707Y-87021786D01*
X154889711Y-87021789D01*
X155020814Y-87109390D01*
X155020827Y-87109397D01*
X155166498Y-87169735D01*
X155166503Y-87169737D01*
X155321153Y-87200499D01*
X155321156Y-87200500D01*
X155321158Y-87200500D01*
X155478844Y-87200500D01*
X155478845Y-87200499D01*
X155633497Y-87169737D01*
X155751592Y-87120821D01*
X155779172Y-87109397D01*
X155779172Y-87109396D01*
X155779179Y-87109394D01*
X155910289Y-87021789D01*
X156021789Y-86910289D01*
X156109394Y-86779179D01*
X156169737Y-86633497D01*
X156200500Y-86478842D01*
X156200500Y-86321158D01*
X156200500Y-86321155D01*
X156200499Y-86321153D01*
X156180543Y-86220827D01*
X156169737Y-86166503D01*
X156150812Y-86120814D01*
X156109397Y-86020827D01*
X156109390Y-86020814D01*
X156021398Y-85889125D01*
X156000520Y-85822447D01*
X156000500Y-85820234D01*
X156000500Y-73285718D01*
X156020185Y-73218679D01*
X156068207Y-73175233D01*
X156107815Y-73155052D01*
X156107815Y-73155051D01*
X156107816Y-73155051D01*
X156199193Y-73088661D01*
X156279786Y-73030109D01*
X156279788Y-73030106D01*
X156279792Y-73030104D01*
X156430104Y-72879792D01*
X156430106Y-72879788D01*
X156430109Y-72879786D01*
X156555048Y-72707820D01*
X156555047Y-72707820D01*
X156555051Y-72707816D01*
X156559514Y-72699054D01*
X156607488Y-72648259D01*
X156675308Y-72631463D01*
X156741444Y-72653999D01*
X156780486Y-72699056D01*
X156784951Y-72707820D01*
X156909890Y-72879786D01*
X157060213Y-73030109D01*
X157232184Y-73155051D01*
X157232184Y-73155052D01*
X157271793Y-73175233D01*
X157322590Y-73223206D01*
X157339500Y-73285718D01*
X157339500Y-85777059D01*
X157319815Y-85844098D01*
X157303181Y-85864740D01*
X157278213Y-85889707D01*
X157278210Y-85889711D01*
X157190609Y-86020814D01*
X157190602Y-86020827D01*
X157130264Y-86166498D01*
X157130261Y-86166510D01*
X157099500Y-86321153D01*
X157099500Y-86478846D01*
X157130261Y-86633489D01*
X157130264Y-86633501D01*
X157190602Y-86779172D01*
X157190609Y-86779185D01*
X157278210Y-86910288D01*
X157278213Y-86910292D01*
X157389707Y-87021786D01*
X157389711Y-87021789D01*
X157520814Y-87109390D01*
X157520827Y-87109397D01*
X157666498Y-87169735D01*
X157666503Y-87169737D01*
X157821153Y-87200499D01*
X157821156Y-87200500D01*
X157821158Y-87200500D01*
X157978844Y-87200500D01*
X157978845Y-87200499D01*
X158133497Y-87169737D01*
X158251592Y-87120821D01*
X158279172Y-87109397D01*
X158279172Y-87109396D01*
X158279179Y-87109394D01*
X158410289Y-87021789D01*
X158521789Y-86910289D01*
X158609394Y-86779179D01*
X158669737Y-86633497D01*
X158700500Y-86478842D01*
X158700500Y-86321158D01*
X158700500Y-86321155D01*
X158700499Y-86321153D01*
X158680543Y-86220827D01*
X158669737Y-86166503D01*
X158609394Y-86020821D01*
X158561397Y-85948988D01*
X158540520Y-85882312D01*
X158540500Y-85880099D01*
X158540500Y-73285718D01*
X158560185Y-73218679D01*
X158608207Y-73175233D01*
X158647815Y-73155052D01*
X158647815Y-73155051D01*
X158647816Y-73155051D01*
X158739193Y-73088661D01*
X158819786Y-73030109D01*
X158819788Y-73030106D01*
X158819792Y-73030104D01*
X158970104Y-72879792D01*
X158970106Y-72879788D01*
X158970109Y-72879786D01*
X159095048Y-72707820D01*
X159095047Y-72707820D01*
X159095051Y-72707816D01*
X159099514Y-72699054D01*
X159147488Y-72648259D01*
X159215308Y-72631463D01*
X159281444Y-72653999D01*
X159320486Y-72699056D01*
X159324951Y-72707820D01*
X159449890Y-72879786D01*
X159600213Y-73030109D01*
X159772184Y-73155051D01*
X159772184Y-73155052D01*
X159811793Y-73175233D01*
X159862590Y-73223206D01*
X159879500Y-73285718D01*
X159879500Y-85850166D01*
X159859815Y-85917205D01*
X159858602Y-85919057D01*
X159790609Y-86020814D01*
X159790602Y-86020827D01*
X159730264Y-86166498D01*
X159730261Y-86166510D01*
X159699500Y-86321153D01*
X159699500Y-86478846D01*
X159730261Y-86633489D01*
X159730264Y-86633501D01*
X159790602Y-86779172D01*
X159790609Y-86779185D01*
X159878210Y-86910288D01*
X159878213Y-86910292D01*
X159989707Y-87021786D01*
X159989711Y-87021789D01*
X160120814Y-87109390D01*
X160120827Y-87109397D01*
X160266498Y-87169735D01*
X160266503Y-87169737D01*
X160421153Y-87200499D01*
X160421156Y-87200500D01*
X160421158Y-87200500D01*
X160578844Y-87200500D01*
X160578845Y-87200499D01*
X160733497Y-87169737D01*
X160851592Y-87120821D01*
X160879172Y-87109397D01*
X160879172Y-87109396D01*
X160879179Y-87109394D01*
X161010289Y-87021789D01*
X161121789Y-86910289D01*
X161209394Y-86779179D01*
X161269737Y-86633497D01*
X161300500Y-86478842D01*
X161300500Y-86321158D01*
X161300500Y-86321155D01*
X161300499Y-86321153D01*
X161280543Y-86220827D01*
X161269737Y-86166503D01*
X161250812Y-86120814D01*
X161209397Y-86020827D01*
X161209390Y-86020814D01*
X161121789Y-85889711D01*
X161121786Y-85889707D01*
X161116819Y-85884740D01*
X161083334Y-85823417D01*
X161080500Y-85797059D01*
X161080500Y-73285718D01*
X161100185Y-73218679D01*
X161148207Y-73175233D01*
X161187815Y-73155052D01*
X161187815Y-73155051D01*
X161187816Y-73155051D01*
X161279193Y-73088661D01*
X161359786Y-73030109D01*
X161359788Y-73030106D01*
X161359792Y-73030104D01*
X161510104Y-72879792D01*
X161510106Y-72879788D01*
X161510109Y-72879786D01*
X161635048Y-72707820D01*
X161635047Y-72707820D01*
X161635051Y-72707816D01*
X161639514Y-72699054D01*
X161687488Y-72648259D01*
X161755308Y-72631463D01*
X161821444Y-72653999D01*
X161860486Y-72699056D01*
X161864951Y-72707820D01*
X161989890Y-72879786D01*
X162140213Y-73030109D01*
X162312184Y-73155051D01*
X162312184Y-73155052D01*
X162351793Y-73175233D01*
X162402590Y-73223206D01*
X162419500Y-73285718D01*
X162419500Y-85939963D01*
X162399815Y-86007002D01*
X162398602Y-86008853D01*
X162390606Y-86020818D01*
X162390604Y-86020822D01*
X162330264Y-86166498D01*
X162330261Y-86166510D01*
X162299500Y-86321153D01*
X162299500Y-86478846D01*
X162330261Y-86633489D01*
X162330264Y-86633501D01*
X162390602Y-86779172D01*
X162390609Y-86779185D01*
X162478210Y-86910288D01*
X162478213Y-86910292D01*
X162589707Y-87021786D01*
X162589711Y-87021789D01*
X162720814Y-87109390D01*
X162720827Y-87109397D01*
X162866498Y-87169735D01*
X162866503Y-87169737D01*
X163021153Y-87200499D01*
X163021156Y-87200500D01*
X163021158Y-87200500D01*
X163178844Y-87200500D01*
X163178845Y-87200499D01*
X163333497Y-87169737D01*
X163451592Y-87120821D01*
X163479172Y-87109397D01*
X163479172Y-87109396D01*
X163479179Y-87109394D01*
X163610289Y-87021789D01*
X163721789Y-86910289D01*
X163809394Y-86779179D01*
X163869737Y-86633497D01*
X163900500Y-86478842D01*
X163900500Y-86321158D01*
X163900500Y-86321155D01*
X163900499Y-86321153D01*
X163880543Y-86220827D01*
X163869737Y-86166503D01*
X163850812Y-86120814D01*
X163809397Y-86020827D01*
X163809390Y-86020814D01*
X163721789Y-85889711D01*
X163721786Y-85889707D01*
X163656819Y-85824740D01*
X163623334Y-85763417D01*
X163620500Y-85737059D01*
X163620500Y-73285718D01*
X163640185Y-73218679D01*
X163688207Y-73175233D01*
X163727815Y-73155052D01*
X163727815Y-73155051D01*
X163727816Y-73155051D01*
X163819193Y-73088661D01*
X163899786Y-73030109D01*
X163899788Y-73030106D01*
X163899792Y-73030104D01*
X164050104Y-72879792D01*
X164050106Y-72879788D01*
X164050109Y-72879786D01*
X164175048Y-72707820D01*
X164175047Y-72707820D01*
X164175051Y-72707816D01*
X164179514Y-72699054D01*
X164227488Y-72648259D01*
X164295308Y-72631463D01*
X164361444Y-72653999D01*
X164400486Y-72699056D01*
X164404951Y-72707820D01*
X164529890Y-72879786D01*
X164680213Y-73030109D01*
X164852184Y-73155051D01*
X164852184Y-73155052D01*
X164891793Y-73175233D01*
X164942590Y-73223206D01*
X164959500Y-73285718D01*
X164959500Y-90799903D01*
X164939815Y-90866942D01*
X164923181Y-90887584D01*
X161747584Y-94063181D01*
X161686261Y-94096666D01*
X161659903Y-94099500D01*
X123881961Y-94099500D01*
X123814922Y-94079815D01*
X123794280Y-94063181D01*
X123297354Y-93566255D01*
X123297352Y-93566252D01*
X123178481Y-93447381D01*
X123178480Y-93447380D01*
X123091668Y-93397260D01*
X123091668Y-93397259D01*
X123091664Y-93397258D01*
X123041549Y-93368323D01*
X122888821Y-93327399D01*
X122730707Y-93327399D01*
X122723111Y-93327399D01*
X122723095Y-93327400D01*
X121669295Y-93327400D01*
X121511182Y-93327399D01*
X121511181Y-93327399D01*
X121511180Y-93327399D01*
X121434816Y-93347861D01*
X121358451Y-93368323D01*
X121358446Y-93368326D01*
X121221527Y-93447375D01*
X121221519Y-93447381D01*
X120662180Y-94006720D01*
X120600857Y-94040205D01*
X120531165Y-94035221D01*
X120475232Y-93993349D01*
X120450815Y-93927885D01*
X120450499Y-93919064D01*
X120450499Y-91752128D01*
X120444091Y-91692517D01*
X120408318Y-91596604D01*
X120400500Y-91553271D01*
X120400500Y-90925316D01*
X120409939Y-90877864D01*
X120469735Y-90733501D01*
X120469737Y-90733497D01*
X120500500Y-90578842D01*
X120500500Y-90421158D01*
X120500500Y-90421155D01*
X120500499Y-90421153D01*
X120484290Y-90339664D01*
X120469737Y-90266503D01*
X120448492Y-90215212D01*
X120409397Y-90120827D01*
X120409390Y-90120814D01*
X120321789Y-89989711D01*
X120321786Y-89989707D01*
X120210292Y-89878213D01*
X120210288Y-89878210D01*
X120079185Y-89790609D01*
X120079172Y-89790602D01*
X119933501Y-89730264D01*
X119933489Y-89730261D01*
X119778845Y-89699500D01*
X119778842Y-89699500D01*
X119724838Y-89699500D01*
X119657799Y-89679815D01*
X119612044Y-89627011D01*
X119610275Y-89622949D01*
X119609394Y-89620821D01*
X119609391Y-89620816D01*
X119609390Y-89620814D01*
X119521789Y-89489711D01*
X119521786Y-89489707D01*
X119410292Y-89378213D01*
X119410288Y-89378210D01*
X119279185Y-89290609D01*
X119279172Y-89290602D01*
X119133501Y-89230264D01*
X119133489Y-89230261D01*
X118978845Y-89199500D01*
X118978842Y-89199500D01*
X118821158Y-89199500D01*
X118821155Y-89199500D01*
X118666510Y-89230261D01*
X118666498Y-89230264D01*
X118520827Y-89290602D01*
X118520814Y-89290609D01*
X118389711Y-89378210D01*
X118389707Y-89378213D01*
X118278213Y-89489707D01*
X118278210Y-89489711D01*
X118203102Y-89602118D01*
X118149490Y-89646923D01*
X118080165Y-89655630D01*
X118017137Y-89625475D01*
X117996898Y-89602118D01*
X117921789Y-89489711D01*
X117921786Y-89489707D01*
X117810292Y-89378213D01*
X117810288Y-89378210D01*
X117679185Y-89290609D01*
X117679172Y-89290602D01*
X117533501Y-89230264D01*
X117533489Y-89230261D01*
X117378845Y-89199500D01*
X117378842Y-89199500D01*
X117221158Y-89199500D01*
X117221155Y-89199500D01*
X117066510Y-89230261D01*
X117066498Y-89230264D01*
X116920827Y-89290602D01*
X116920814Y-89290609D01*
X116789711Y-89378210D01*
X116789707Y-89378213D01*
X116678213Y-89489707D01*
X116678210Y-89489711D01*
X116603102Y-89602118D01*
X116549490Y-89646923D01*
X116480165Y-89655630D01*
X116417137Y-89625475D01*
X116396898Y-89602118D01*
X116321789Y-89489711D01*
X116321786Y-89489707D01*
X116210292Y-89378213D01*
X116210288Y-89378210D01*
X116079185Y-89290609D01*
X116079172Y-89290602D01*
X115933501Y-89230264D01*
X115933489Y-89230261D01*
X115778845Y-89199500D01*
X115778842Y-89199500D01*
X115621158Y-89199500D01*
X115621155Y-89199500D01*
X115466510Y-89230261D01*
X115466498Y-89230264D01*
X115320827Y-89290602D01*
X115320814Y-89290609D01*
X115189711Y-89378210D01*
X115189707Y-89378213D01*
X115078213Y-89489707D01*
X115078210Y-89489711D01*
X115003102Y-89602118D01*
X114949490Y-89646923D01*
X114880165Y-89655630D01*
X114817137Y-89625475D01*
X114796898Y-89602118D01*
X114721789Y-89489711D01*
X114721786Y-89489707D01*
X114610292Y-89378213D01*
X114610288Y-89378210D01*
X114479185Y-89290609D01*
X114479172Y-89290602D01*
X114333501Y-89230264D01*
X114333489Y-89230261D01*
X114178845Y-89199500D01*
X114178842Y-89199500D01*
X114021158Y-89199500D01*
X114021155Y-89199500D01*
X113866510Y-89230261D01*
X113866498Y-89230264D01*
X113720827Y-89290602D01*
X113720814Y-89290609D01*
X113589711Y-89378210D01*
X113589707Y-89378213D01*
X113478213Y-89489707D01*
X113478210Y-89489711D01*
X113403102Y-89602118D01*
X113349490Y-89646923D01*
X113280165Y-89655630D01*
X113217137Y-89625475D01*
X113196898Y-89602118D01*
X113121789Y-89489711D01*
X113121786Y-89489707D01*
X113010292Y-89378213D01*
X113010288Y-89378210D01*
X112879185Y-89290609D01*
X112879172Y-89290602D01*
X112733501Y-89230264D01*
X112733489Y-89230261D01*
X112578845Y-89199500D01*
X112578842Y-89199500D01*
X112421158Y-89199500D01*
X112421155Y-89199500D01*
X112266510Y-89230261D01*
X112266498Y-89230264D01*
X112120827Y-89290602D01*
X112120814Y-89290609D01*
X111989711Y-89378210D01*
X111989707Y-89378213D01*
X111878213Y-89489707D01*
X111878210Y-89489711D01*
X111803102Y-89602118D01*
X111749490Y-89646923D01*
X111680165Y-89655630D01*
X111617137Y-89625475D01*
X111596898Y-89602118D01*
X111521789Y-89489711D01*
X111521786Y-89489707D01*
X111410292Y-89378213D01*
X111410288Y-89378210D01*
X111279185Y-89290609D01*
X111279172Y-89290602D01*
X111133501Y-89230264D01*
X111133489Y-89230261D01*
X110978845Y-89199500D01*
X110978842Y-89199500D01*
X110821158Y-89199500D01*
X110821155Y-89199500D01*
X110666510Y-89230261D01*
X110666498Y-89230264D01*
X110520827Y-89290602D01*
X110520814Y-89290609D01*
X110389711Y-89378210D01*
X110389707Y-89378213D01*
X110278213Y-89489707D01*
X110278210Y-89489711D01*
X110203102Y-89602118D01*
X110149490Y-89646923D01*
X110080165Y-89655630D01*
X110017137Y-89625475D01*
X109996898Y-89602118D01*
X109921789Y-89489711D01*
X109921786Y-89489707D01*
X109810292Y-89378213D01*
X109810288Y-89378210D01*
X109679185Y-89290609D01*
X109679172Y-89290602D01*
X109533501Y-89230264D01*
X109533489Y-89230261D01*
X109378845Y-89199500D01*
X109378842Y-89199500D01*
X109221158Y-89199500D01*
X109221155Y-89199500D01*
X109066510Y-89230261D01*
X109066498Y-89230264D01*
X108920827Y-89290602D01*
X108920814Y-89290609D01*
X108789711Y-89378210D01*
X108789707Y-89378213D01*
X108678213Y-89489707D01*
X108603670Y-89601268D01*
X108550057Y-89646072D01*
X108480732Y-89654779D01*
X108417705Y-89624624D01*
X108397466Y-89601267D01*
X108321790Y-89488009D01*
X108210293Y-89376512D01*
X108210289Y-89376509D01*
X108079186Y-89288908D01*
X108079173Y-89288901D01*
X107933502Y-89228563D01*
X107933490Y-89228560D01*
X107778846Y-89197799D01*
X107778843Y-89197799D01*
X107621159Y-89197799D01*
X107621156Y-89197799D01*
X107466511Y-89228560D01*
X107466499Y-89228563D01*
X107320828Y-89288901D01*
X107320815Y-89288908D01*
X107189712Y-89376509D01*
X107189708Y-89376512D01*
X107078214Y-89488006D01*
X107078208Y-89488014D01*
X107020158Y-89574893D01*
X107014067Y-89579983D01*
X107010769Y-89587206D01*
X106987638Y-89602070D01*
X106966546Y-89619699D01*
X106957171Y-89621650D01*
X106951991Y-89624980D01*
X106917056Y-89630003D01*
X106881809Y-89630003D01*
X106814770Y-89610318D01*
X106778707Y-89574894D01*
X106721789Y-89489711D01*
X106721786Y-89489707D01*
X106610292Y-89378213D01*
X106610288Y-89378210D01*
X106479185Y-89290609D01*
X106479172Y-89290602D01*
X106333501Y-89230264D01*
X106333489Y-89230261D01*
X106178845Y-89199500D01*
X106178842Y-89199500D01*
X106021158Y-89199500D01*
X106021155Y-89199500D01*
X105866510Y-89230261D01*
X105866498Y-89230264D01*
X105720827Y-89290602D01*
X105720814Y-89290609D01*
X105589711Y-89378210D01*
X105589707Y-89378213D01*
X105478213Y-89489707D01*
X105478210Y-89489711D01*
X105403102Y-89602118D01*
X105349490Y-89646923D01*
X105280165Y-89655630D01*
X105217137Y-89625475D01*
X105196898Y-89602118D01*
X105121789Y-89489711D01*
X105121786Y-89489707D01*
X105010292Y-89378213D01*
X105010288Y-89378210D01*
X104879185Y-89290609D01*
X104879172Y-89290602D01*
X104733501Y-89230264D01*
X104733489Y-89230261D01*
X104578845Y-89199500D01*
X104578842Y-89199500D01*
X104421158Y-89199500D01*
X104421155Y-89199500D01*
X104266510Y-89230261D01*
X104266498Y-89230264D01*
X104120827Y-89290602D01*
X104120814Y-89290609D01*
X103989711Y-89378210D01*
X103989707Y-89378213D01*
X103878213Y-89489707D01*
X103878210Y-89489711D01*
X103790609Y-89620814D01*
X103790602Y-89620827D01*
X103730264Y-89766498D01*
X103730261Y-89766510D01*
X103699500Y-89921153D01*
X103699500Y-90078846D01*
X103730261Y-90233489D01*
X103730264Y-90233501D01*
X103790061Y-90377864D01*
X103799500Y-90425316D01*
X103799500Y-91553271D01*
X103791682Y-91596604D01*
X103755908Y-91692517D01*
X103749501Y-91752116D01*
X103749501Y-91752123D01*
X103749500Y-91752135D01*
X103749500Y-94247870D01*
X103749501Y-94247876D01*
X103755908Y-94307483D01*
X103806202Y-94442328D01*
X103806206Y-94442335D01*
X103892452Y-94557544D01*
X103892455Y-94557547D01*
X104007664Y-94643793D01*
X104007671Y-94643797D01*
X104052618Y-94660561D01*
X104142517Y-94694091D01*
X104202127Y-94700500D01*
X104797872Y-94700499D01*
X104857483Y-94694091D01*
X104857489Y-94694088D01*
X104865025Y-94692308D01*
X104865321Y-94693561D01*
X104927063Y-94689142D01*
X104940655Y-94693132D01*
X104942627Y-94693598D01*
X105002155Y-94699999D01*
X105002172Y-94700000D01*
X105050000Y-94700000D01*
X105050000Y-94662694D01*
X105069685Y-94595655D01*
X105077505Y-94584817D01*
X105087255Y-94572735D01*
X105107546Y-94557546D01*
X105193796Y-94442331D01*
X105194910Y-94439343D01*
X105203505Y-94428694D01*
X105223426Y-94414884D01*
X105240565Y-94397743D01*
X105251625Y-94395336D01*
X105260927Y-94388888D01*
X105285150Y-94388040D01*
X105308837Y-94382886D01*
X105319442Y-94386840D01*
X105330754Y-94386445D01*
X105351591Y-94398829D01*
X105374303Y-94407298D01*
X105383286Y-94417665D01*
X105390817Y-94422141D01*
X105395791Y-94432096D01*
X105399444Y-94436312D01*
X105400889Y-94435231D01*
X105492452Y-94557544D01*
X105492454Y-94557546D01*
X105500308Y-94563425D01*
X105542180Y-94619356D01*
X105550000Y-94662694D01*
X105550000Y-94700000D01*
X105597828Y-94700000D01*
X105597844Y-94699999D01*
X105657375Y-94693598D01*
X105664926Y-94691814D01*
X105665315Y-94693462D01*
X105725624Y-94689140D01*
X105742387Y-94694060D01*
X105742511Y-94694088D01*
X105742517Y-94694091D01*
X105802127Y-94700500D01*
X106397872Y-94700499D01*
X106457483Y-94694091D01*
X106457485Y-94694090D01*
X106457487Y-94694090D01*
X106465031Y-94692308D01*
X106465377Y-94693775D01*
X106526342Y-94689408D01*
X106541378Y-94693822D01*
X106542511Y-94694089D01*
X106542517Y-94694091D01*
X106602127Y-94700500D01*
X107197872Y-94700499D01*
X107257483Y-94694091D01*
X107257485Y-94694090D01*
X107257487Y-94694090D01*
X107265031Y-94692308D01*
X107265377Y-94693775D01*
X107326342Y-94689408D01*
X107341378Y-94693822D01*
X107342511Y-94694089D01*
X107342517Y-94694091D01*
X107402127Y-94700500D01*
X107997872Y-94700499D01*
X108057483Y-94694091D01*
X108057485Y-94694090D01*
X108057487Y-94694090D01*
X108065031Y-94692308D01*
X108065377Y-94693775D01*
X108126342Y-94689408D01*
X108141378Y-94693822D01*
X108142511Y-94694089D01*
X108142517Y-94694091D01*
X108202127Y-94700500D01*
X108797872Y-94700499D01*
X108857483Y-94694091D01*
X108857485Y-94694090D01*
X108857487Y-94694090D01*
X108865031Y-94692308D01*
X108865377Y-94693775D01*
X108926342Y-94689408D01*
X108941378Y-94693822D01*
X108942511Y-94694089D01*
X108942517Y-94694091D01*
X109002127Y-94700500D01*
X109597872Y-94700499D01*
X109657483Y-94694091D01*
X109657485Y-94694090D01*
X109657487Y-94694090D01*
X109665031Y-94692308D01*
X109665377Y-94693775D01*
X109726342Y-94689408D01*
X109741378Y-94693822D01*
X109742511Y-94694089D01*
X109742517Y-94694091D01*
X109802127Y-94700500D01*
X110397872Y-94700499D01*
X110457483Y-94694091D01*
X110457485Y-94694090D01*
X110457487Y-94694090D01*
X110465031Y-94692308D01*
X110465377Y-94693775D01*
X110526342Y-94689408D01*
X110541378Y-94693822D01*
X110542511Y-94694089D01*
X110542517Y-94694091D01*
X110602127Y-94700500D01*
X111197872Y-94700499D01*
X111257483Y-94694091D01*
X111257485Y-94694090D01*
X111257487Y-94694090D01*
X111265031Y-94692308D01*
X111265377Y-94693775D01*
X111326342Y-94689408D01*
X111341378Y-94693822D01*
X111342511Y-94694089D01*
X111342517Y-94694091D01*
X111402127Y-94700500D01*
X111997872Y-94700499D01*
X112057483Y-94694091D01*
X112057485Y-94694090D01*
X112057487Y-94694090D01*
X112065031Y-94692308D01*
X112065377Y-94693775D01*
X112126342Y-94689408D01*
X112141378Y-94693822D01*
X112142511Y-94694089D01*
X112142517Y-94694091D01*
X112202127Y-94700500D01*
X112797872Y-94700499D01*
X112857483Y-94694091D01*
X112857485Y-94694090D01*
X112857487Y-94694090D01*
X112865031Y-94692308D01*
X112865377Y-94693775D01*
X112926342Y-94689408D01*
X112941378Y-94693822D01*
X112942511Y-94694089D01*
X112942517Y-94694091D01*
X113002127Y-94700500D01*
X113597872Y-94700499D01*
X113657483Y-94694091D01*
X113657485Y-94694090D01*
X113657487Y-94694090D01*
X113665031Y-94692308D01*
X113665377Y-94693775D01*
X113726342Y-94689408D01*
X113741378Y-94693822D01*
X113742511Y-94694089D01*
X113742517Y-94694091D01*
X113802127Y-94700500D01*
X114397872Y-94700499D01*
X114457483Y-94694091D01*
X114457485Y-94694090D01*
X114457487Y-94694090D01*
X114465031Y-94692308D01*
X114465377Y-94693775D01*
X114526342Y-94689408D01*
X114541378Y-94693822D01*
X114542511Y-94694089D01*
X114542517Y-94694091D01*
X114602127Y-94700500D01*
X115197872Y-94700499D01*
X115257483Y-94694091D01*
X115257485Y-94694090D01*
X115257487Y-94694090D01*
X115265031Y-94692308D01*
X115265377Y-94693775D01*
X115326342Y-94689408D01*
X115341378Y-94693822D01*
X115342511Y-94694089D01*
X115342517Y-94694091D01*
X115402127Y-94700500D01*
X115997872Y-94700499D01*
X116057483Y-94694091D01*
X116057485Y-94694090D01*
X116057487Y-94694090D01*
X116065031Y-94692308D01*
X116065254Y-94693253D01*
X116111391Y-94687101D01*
X116127846Y-94688619D01*
X116142517Y-94694091D01*
X116202127Y-94700500D01*
X116256623Y-94700499D01*
X116262294Y-94701023D01*
X116289678Y-94711884D01*
X116317939Y-94720182D01*
X116321783Y-94724618D01*
X116327241Y-94726783D01*
X116344405Y-94750725D01*
X116363695Y-94772985D01*
X116364530Y-94778795D01*
X116367952Y-94783568D01*
X116369448Y-94812993D01*
X116373640Y-94842144D01*
X116371201Y-94847483D01*
X116371500Y-94853347D01*
X116356852Y-94878905D01*
X116344617Y-94905700D01*
X116338583Y-94912180D01*
X115331286Y-95919478D01*
X115219482Y-96031281D01*
X115219475Y-96031290D01*
X115215886Y-96037507D01*
X115165315Y-96085720D01*
X115108503Y-96099500D01*
X114602129Y-96099500D01*
X114602123Y-96099501D01*
X114542520Y-96105908D01*
X114534974Y-96107692D01*
X114534628Y-96106230D01*
X114473622Y-96110584D01*
X114458600Y-96106172D01*
X114457482Y-96105908D01*
X114397882Y-96099501D01*
X114397873Y-96099500D01*
X114397863Y-96099500D01*
X113802129Y-96099500D01*
X113802123Y-96099501D01*
X113742520Y-96105908D01*
X113734974Y-96107692D01*
X113734628Y-96106230D01*
X113673622Y-96110584D01*
X113658600Y-96106172D01*
X113657482Y-96105908D01*
X113597882Y-96099501D01*
X113597873Y-96099500D01*
X113597863Y-96099500D01*
X113002129Y-96099500D01*
X113002123Y-96099501D01*
X112942520Y-96105908D01*
X112934974Y-96107692D01*
X112934628Y-96106230D01*
X112873622Y-96110584D01*
X112858600Y-96106172D01*
X112857482Y-96105908D01*
X112797882Y-96099501D01*
X112797873Y-96099500D01*
X112797863Y-96099500D01*
X112202129Y-96099500D01*
X112202123Y-96099501D01*
X112142520Y-96105908D01*
X112134974Y-96107692D01*
X112134628Y-96106230D01*
X112073622Y-96110584D01*
X112058600Y-96106172D01*
X112057482Y-96105908D01*
X111997882Y-96099501D01*
X111997873Y-96099500D01*
X111997863Y-96099500D01*
X111402129Y-96099500D01*
X111402123Y-96099501D01*
X111342520Y-96105908D01*
X111334974Y-96107692D01*
X111334628Y-96106230D01*
X111273622Y-96110584D01*
X111258600Y-96106172D01*
X111257482Y-96105908D01*
X111197882Y-96099501D01*
X111197873Y-96099500D01*
X111197863Y-96099500D01*
X110602129Y-96099500D01*
X110602123Y-96099501D01*
X110542520Y-96105908D01*
X110534974Y-96107692D01*
X110534628Y-96106230D01*
X110473622Y-96110584D01*
X110458600Y-96106172D01*
X110457482Y-96105908D01*
X110397882Y-96099501D01*
X110397873Y-96099500D01*
X110397863Y-96099500D01*
X109802129Y-96099500D01*
X109802123Y-96099501D01*
X109742520Y-96105908D01*
X109734974Y-96107692D01*
X109734628Y-96106230D01*
X109673622Y-96110584D01*
X109658600Y-96106172D01*
X109657482Y-96105908D01*
X109597882Y-96099501D01*
X109597873Y-96099500D01*
X109597863Y-96099500D01*
X109002129Y-96099500D01*
X109002123Y-96099501D01*
X108942520Y-96105908D01*
X108934974Y-96107692D01*
X108934628Y-96106230D01*
X108873622Y-96110584D01*
X108858600Y-96106172D01*
X108857482Y-96105908D01*
X108797882Y-96099501D01*
X108797873Y-96099500D01*
X108797863Y-96099500D01*
X108202129Y-96099500D01*
X108202123Y-96099501D01*
X108142520Y-96105908D01*
X108134974Y-96107692D01*
X108134628Y-96106230D01*
X108073622Y-96110584D01*
X108058600Y-96106172D01*
X108057482Y-96105908D01*
X107997882Y-96099501D01*
X107997873Y-96099500D01*
X107997863Y-96099500D01*
X107402129Y-96099500D01*
X107402123Y-96099501D01*
X107342520Y-96105908D01*
X107334974Y-96107692D01*
X107334628Y-96106230D01*
X107273622Y-96110584D01*
X107258600Y-96106172D01*
X107257482Y-96105908D01*
X107197882Y-96099501D01*
X107197873Y-96099500D01*
X107197863Y-96099500D01*
X106602129Y-96099500D01*
X106602123Y-96099501D01*
X106542520Y-96105908D01*
X106534974Y-96107692D01*
X106534628Y-96106230D01*
X106473622Y-96110584D01*
X106458600Y-96106172D01*
X106457482Y-96105908D01*
X106397882Y-96099501D01*
X106397873Y-96099500D01*
X106397863Y-96099500D01*
X105802129Y-96099500D01*
X105802123Y-96099501D01*
X105742520Y-96105908D01*
X105734974Y-96107692D01*
X105734628Y-96106230D01*
X105673622Y-96110584D01*
X105658600Y-96106172D01*
X105657482Y-96105908D01*
X105597882Y-96099501D01*
X105597873Y-96099500D01*
X105597863Y-96099500D01*
X105002129Y-96099500D01*
X105002123Y-96099501D01*
X104942520Y-96105908D01*
X104934974Y-96107692D01*
X104934628Y-96106230D01*
X104873622Y-96110584D01*
X104858600Y-96106172D01*
X104857482Y-96105908D01*
X104797882Y-96099501D01*
X104797873Y-96099500D01*
X104797863Y-96099500D01*
X104202129Y-96099500D01*
X104202123Y-96099501D01*
X104142516Y-96105908D01*
X104007671Y-96156202D01*
X104007664Y-96156206D01*
X103892455Y-96242452D01*
X103892452Y-96242455D01*
X103806206Y-96357664D01*
X103806202Y-96357671D01*
X103755908Y-96492517D01*
X103749501Y-96552116D01*
X103749500Y-96552135D01*
X103749500Y-99047870D01*
X103749501Y-99047876D01*
X103755908Y-99107481D01*
X103757917Y-99112866D01*
X103762901Y-99182558D01*
X103756298Y-99203646D01*
X103738454Y-99246728D01*
X103730262Y-99266506D01*
X103730260Y-99266511D01*
X103699500Y-99421153D01*
X103699500Y-99578846D01*
X103730261Y-99733489D01*
X103730264Y-99733501D01*
X103790602Y-99879172D01*
X103790609Y-99879185D01*
X103878210Y-100010288D01*
X103878213Y-100010292D01*
X103989707Y-100121786D01*
X103989711Y-100121789D01*
X104120814Y-100209390D01*
X104120827Y-100209397D01*
X104258683Y-100266498D01*
X104266503Y-100269737D01*
X104421153Y-100300499D01*
X104421156Y-100300500D01*
X104421158Y-100300500D01*
X104475162Y-100300500D01*
X104542201Y-100320185D01*
X104587956Y-100372989D01*
X104589715Y-100377029D01*
X104590606Y-100379179D01*
X104590607Y-100379180D01*
X104590609Y-100379185D01*
X104678210Y-100510288D01*
X104678213Y-100510292D01*
X104789707Y-100621786D01*
X104789711Y-100621789D01*
X104920814Y-100709390D01*
X104920827Y-100709397D01*
X105066498Y-100769735D01*
X105066503Y-100769737D01*
X105221153Y-100800499D01*
X105221156Y-100800500D01*
X105221158Y-100800500D01*
X105378844Y-100800500D01*
X105378845Y-100800499D01*
X105533497Y-100769737D01*
X105679179Y-100709394D01*
X105810289Y-100621789D01*
X105921789Y-100510289D01*
X105974112Y-100431981D01*
X105996898Y-100397881D01*
X106050510Y-100353076D01*
X106119835Y-100344369D01*
X106182863Y-100374523D01*
X106203102Y-100397881D01*
X106278210Y-100510288D01*
X106278213Y-100510292D01*
X106389707Y-100621786D01*
X106389711Y-100621789D01*
X106520814Y-100709390D01*
X106520827Y-100709397D01*
X106666498Y-100769735D01*
X106666503Y-100769737D01*
X106821153Y-100800499D01*
X106821156Y-100800500D01*
X106821158Y-100800500D01*
X106978844Y-100800500D01*
X106978845Y-100800499D01*
X107133497Y-100769737D01*
X107279179Y-100709394D01*
X107410289Y-100621789D01*
X107521789Y-100510289D01*
X107574112Y-100431981D01*
X107596898Y-100397881D01*
X107650510Y-100353076D01*
X107719835Y-100344369D01*
X107782863Y-100374523D01*
X107803102Y-100397881D01*
X107878210Y-100510288D01*
X107878213Y-100510292D01*
X107989707Y-100621786D01*
X107989711Y-100621789D01*
X108120814Y-100709390D01*
X108120827Y-100709397D01*
X108266498Y-100769735D01*
X108266503Y-100769737D01*
X108421153Y-100800499D01*
X108421156Y-100800500D01*
X108421158Y-100800500D01*
X108578844Y-100800500D01*
X108578845Y-100800499D01*
X108733497Y-100769737D01*
X108879179Y-100709394D01*
X108879185Y-100709390D01*
X108933062Y-100673391D01*
X108999739Y-100652513D01*
X109067120Y-100670997D01*
X109089634Y-100688812D01*
X112165196Y-103764374D01*
X112165206Y-103764385D01*
X112169536Y-103768715D01*
X112169537Y-103768716D01*
X112281341Y-103880520D01*
X112281343Y-103880521D01*
X112281347Y-103880524D01*
X112331350Y-103909393D01*
X112331355Y-103909395D01*
X112418266Y-103959574D01*
X112418267Y-103959575D01*
X112418269Y-103959575D01*
X112418272Y-103959577D01*
X112571000Y-104000501D01*
X112571003Y-104000501D01*
X112736710Y-104000501D01*
X112736726Y-104000500D01*
X145433741Y-104000500D01*
X145500780Y-104020185D01*
X145546535Y-104072989D01*
X145548302Y-104077048D01*
X145590602Y-104179172D01*
X145590609Y-104179185D01*
X145675752Y-104306609D01*
X145696630Y-104373286D01*
X145678146Y-104440666D01*
X145626167Y-104487357D01*
X145572650Y-104499500D01*
X100624500Y-104499500D01*
X100557461Y-104479815D01*
X100511706Y-104427011D01*
X100500500Y-104375500D01*
X100500500Y-95314751D01*
X101134500Y-95314751D01*
X101134500Y-95485248D01*
X101167758Y-95652449D01*
X101167760Y-95652457D01*
X101233002Y-95809964D01*
X101233007Y-95809974D01*
X101327721Y-95951723D01*
X101327724Y-95951727D01*
X101448272Y-96072275D01*
X101448276Y-96072278D01*
X101590025Y-96166992D01*
X101590029Y-96166994D01*
X101590032Y-96166996D01*
X101747543Y-96232240D01*
X101914751Y-96265499D01*
X101914755Y-96265500D01*
X101914756Y-96265500D01*
X102085245Y-96265500D01*
X102085246Y-96265499D01*
X102252457Y-96232240D01*
X102409968Y-96166996D01*
X102551724Y-96072278D01*
X102672278Y-95951724D01*
X102766996Y-95809968D01*
X102832240Y-95652457D01*
X102865500Y-95485244D01*
X102865500Y-95314756D01*
X102832240Y-95147543D01*
X102766996Y-94990032D01*
X102766994Y-94990029D01*
X102766992Y-94990025D01*
X102672278Y-94848276D01*
X102672275Y-94848272D01*
X102551727Y-94727724D01*
X102551723Y-94727721D01*
X102409974Y-94633007D01*
X102409964Y-94633002D01*
X102252457Y-94567760D01*
X102252449Y-94567758D01*
X102085248Y-94534500D01*
X102085244Y-94534500D01*
X101914756Y-94534500D01*
X101914751Y-94534500D01*
X101747550Y-94567758D01*
X101747542Y-94567760D01*
X101590035Y-94633002D01*
X101590025Y-94633007D01*
X101448276Y-94727721D01*
X101448272Y-94727724D01*
X101327724Y-94848272D01*
X101327721Y-94848276D01*
X101233007Y-94990025D01*
X101233002Y-94990035D01*
X101167760Y-95147542D01*
X101167758Y-95147550D01*
X101134500Y-95314751D01*
X100500500Y-95314751D01*
X100500500Y-67624500D01*
X100520185Y-67557461D01*
X100572989Y-67511706D01*
X100624500Y-67500500D01*
X199375500Y-67500500D01*
X199442539Y-67520185D01*
G37*
G04 #@! TD.AperFunction*
G04 #@! TA.AperFunction,Conductor*
G36*
X132074075Y-69652993D02*
G01*
X132139901Y-69767007D01*
X132232993Y-69860099D01*
X132347007Y-69925925D01*
X132410590Y-69942962D01*
X131778282Y-70575269D01*
X131778282Y-70575270D01*
X131832452Y-70614626D01*
X131832451Y-70614626D01*
X131841495Y-70619234D01*
X131892292Y-70667208D01*
X131909087Y-70735029D01*
X131886550Y-70801164D01*
X131841499Y-70840202D01*
X131832182Y-70844949D01*
X131660213Y-70969890D01*
X131509890Y-71120213D01*
X131384949Y-71292182D01*
X131380484Y-71300946D01*
X131332509Y-71351742D01*
X131264688Y-71368536D01*
X131198553Y-71345998D01*
X131159516Y-71300946D01*
X131155050Y-71292182D01*
X131030109Y-71120213D01*
X130879786Y-70969890D01*
X130707820Y-70844951D01*
X130707115Y-70844591D01*
X130699054Y-70840485D01*
X130648259Y-70792512D01*
X130631463Y-70724692D01*
X130653999Y-70658556D01*
X130699054Y-70619515D01*
X130707816Y-70615051D01*
X130797554Y-70549853D01*
X130879786Y-70490109D01*
X130879788Y-70490106D01*
X130879792Y-70490104D01*
X131030104Y-70339792D01*
X131030106Y-70339788D01*
X131030109Y-70339786D01*
X131115890Y-70221717D01*
X131155051Y-70167816D01*
X131159793Y-70158508D01*
X131207763Y-70107711D01*
X131275583Y-70090911D01*
X131341719Y-70113445D01*
X131380763Y-70158500D01*
X131385373Y-70167547D01*
X131424728Y-70221716D01*
X132057037Y-69589408D01*
X132074075Y-69652993D01*
G37*
G04 #@! TD.AperFunction*
G04 #@! TA.AperFunction,Conductor*
G36*
X133655270Y-70221717D02*
G01*
X133655270Y-70221716D01*
X133694622Y-70167555D01*
X133699232Y-70158507D01*
X133747205Y-70107709D01*
X133815025Y-70090912D01*
X133881161Y-70113447D01*
X133920204Y-70158504D01*
X133924949Y-70167817D01*
X134049890Y-70339786D01*
X134200213Y-70490109D01*
X134372182Y-70615050D01*
X134380946Y-70619516D01*
X134431742Y-70667491D01*
X134448536Y-70735312D01*
X134425998Y-70801447D01*
X134380946Y-70840484D01*
X134372182Y-70844949D01*
X134200213Y-70969890D01*
X134049890Y-71120213D01*
X133924949Y-71292182D01*
X133920484Y-71300946D01*
X133872509Y-71351742D01*
X133804688Y-71368536D01*
X133738553Y-71345998D01*
X133699516Y-71300946D01*
X133695050Y-71292182D01*
X133570109Y-71120213D01*
X133419786Y-70969890D01*
X133247817Y-70844949D01*
X133238504Y-70840204D01*
X133187707Y-70792230D01*
X133170912Y-70724409D01*
X133193449Y-70658274D01*
X133238507Y-70619232D01*
X133247555Y-70614622D01*
X133301716Y-70575270D01*
X133301717Y-70575270D01*
X132669408Y-69942962D01*
X132732993Y-69925925D01*
X132847007Y-69860099D01*
X132940099Y-69767007D01*
X133005925Y-69652993D01*
X133022962Y-69589408D01*
X133655270Y-70221717D01*
G37*
G04 #@! TD.AperFunction*
M02*
