G04 #@! TF.GenerationSoftware,KiCad,Pcbnew,9.0.1*
G04 #@! TF.CreationDate,2025-11-10T14:24:31+01:00*
G04 #@! TF.ProjectId,Debugmodul,44656275-676d-46f6-9475-6c2e6b696361,rev?*
G04 #@! TF.SameCoordinates,Original*
G04 #@! TF.FileFunction,Soldermask,Top*
G04 #@! TF.FilePolarity,Negative*
%FSLAX46Y46*%
G04 Gerber Fmt 4.6, Leading zero omitted, Abs format (unit mm)*
G04 Created by KiCad (PCBNEW 9.0.1) date 2025-11-10 14:24:31*
%MOMM*%
%LPD*%
G01*
G04 APERTURE LIST*
%ADD10R,1.700000X1.700000*%
%ADD11C,1.700000*%
%ADD12C,1.230000*%
%ADD13C,1.442200*%
%ADD14R,0.500000X2.000000*%
%ADD15C,0.800000*%
%ADD16C,1.200000*%
G04 APERTURE END LIST*
D10*
X178260000Y-72000000D03*
D11*
X178260000Y-69460000D03*
X175720000Y-72000000D03*
X175720000Y-69460000D03*
X173180000Y-72000000D03*
X173180000Y-69460000D03*
X170640000Y-72000000D03*
X170640000Y-69460000D03*
X168100000Y-72000000D03*
X168100000Y-69460000D03*
X165560000Y-72000000D03*
X165560000Y-69460000D03*
X163020000Y-72000000D03*
X163020000Y-69460000D03*
X160480000Y-72000000D03*
X160480000Y-69460000D03*
X157940000Y-72000000D03*
X157940000Y-69460000D03*
X155400000Y-72000000D03*
X155400000Y-69460000D03*
X152860000Y-72000000D03*
X152860000Y-69460000D03*
X150320000Y-72000000D03*
X150320000Y-69460000D03*
X147780000Y-72000000D03*
X147780000Y-69460000D03*
X145240000Y-72000000D03*
X145240000Y-69460000D03*
X142700000Y-72000000D03*
X142700000Y-69460000D03*
X140160000Y-72000000D03*
X140160000Y-69460000D03*
X137620000Y-72000000D03*
X137620000Y-69460000D03*
X135080000Y-72000000D03*
X135080000Y-69460000D03*
X132540000Y-72000000D03*
X132540000Y-69460000D03*
X130000000Y-72000000D03*
X130000000Y-69460000D03*
D12*
X102000000Y-95400000D03*
D13*
X122200000Y-95400000D03*
D14*
X104500000Y-93200000D03*
X104500000Y-97600000D03*
X105300000Y-93200000D03*
X105300000Y-97600000D03*
X106100000Y-93200000D03*
X106100000Y-97600000D03*
X106900000Y-93200000D03*
X106900000Y-97600000D03*
X107700000Y-93200000D03*
X107700000Y-97600000D03*
X108500000Y-93200000D03*
X108500000Y-97600000D03*
X109300000Y-93200000D03*
X109300000Y-97600000D03*
X110100000Y-93200000D03*
X110100000Y-97600000D03*
X110900000Y-93200000D03*
X110900000Y-97600000D03*
X111700000Y-93200000D03*
X111700000Y-97600000D03*
X112500000Y-93200000D03*
X112500000Y-97600000D03*
X113300000Y-93200000D03*
X113300000Y-97600000D03*
X114100000Y-93200000D03*
X114100000Y-97600000D03*
X114900000Y-93200000D03*
X114900000Y-97600000D03*
X115700000Y-93200000D03*
X115700000Y-97600000D03*
X116500000Y-93200000D03*
X116500000Y-97600000D03*
X117300000Y-93200000D03*
X117300000Y-97600000D03*
X118100000Y-93200000D03*
X118100000Y-97600000D03*
X118900000Y-93200000D03*
X118900000Y-97600000D03*
X119700000Y-93200000D03*
X119700000Y-97600000D03*
D15*
X102000000Y-95400000D03*
D16*
X122200000Y-95400000D03*
M02*
