G04 #@! TF.GenerationSoftware,KiCad,Pcbnew,9.0.1*
G04 #@! TF.CreationDate,2025-11-10T14:24:31+01:00*
G04 #@! TF.ProjectId,Debugmodul,44656275-676d-46f6-9475-6c2e6b696361,rev?*
G04 #@! TF.SameCoordinates,Original*
G04 #@! TF.FileFunction,Copper,L1,Top*
G04 #@! TF.FilePolarity,Positive*
%FSLAX46Y46*%
G04 Gerber Fmt 4.6, Leading zero omitted, Abs format (unit mm)*
G04 Created by KiCad (PCBNEW 9.0.1) date 2025-11-10 14:24:31*
%MOMM*%
%LPD*%
G01*
G04 APERTURE LIST*
G04 #@! TA.AperFunction,ComponentPad*
%ADD10R,1.700000X1.700000*%
G04 #@! TD*
G04 #@! TA.AperFunction,ComponentPad*
%ADD11C,1.700000*%
G04 #@! TD*
G04 #@! TA.AperFunction,SMDPad,CuDef*
%ADD12R,0.500000X2.000000*%
G04 #@! TD*
G04 #@! TA.AperFunction,ViaPad*
%ADD13C,0.600000*%
G04 #@! TD*
G04 #@! TA.AperFunction,Conductor*
%ADD14C,0.400000*%
G04 #@! TD*
G04 #@! TA.AperFunction,Conductor*
%ADD15C,0.200000*%
G04 #@! TD*
G04 APERTURE END LIST*
D10*
X178260000Y-72000000D03*
D11*
X178260000Y-69460000D03*
X175720000Y-72000000D03*
X175720000Y-69460000D03*
X173180000Y-72000000D03*
X173180000Y-69460000D03*
X170640000Y-72000000D03*
X170640000Y-69460000D03*
X168100000Y-72000000D03*
X168100000Y-69460000D03*
X165560000Y-72000000D03*
X165560000Y-69460000D03*
X163020000Y-72000000D03*
X163020000Y-69460000D03*
X160480000Y-72000000D03*
X160480000Y-69460000D03*
X157940000Y-72000000D03*
X157940000Y-69460000D03*
X155400000Y-72000000D03*
X155400000Y-69460000D03*
X152860000Y-72000000D03*
X152860000Y-69460000D03*
X150320000Y-72000000D03*
X150320000Y-69460000D03*
X147780000Y-72000000D03*
X147780000Y-69460000D03*
X145240000Y-72000000D03*
X145240000Y-69460000D03*
X142700000Y-72000000D03*
X142700000Y-69460000D03*
X140160000Y-72000000D03*
X140160000Y-69460000D03*
X137620000Y-72000000D03*
X137620000Y-69460000D03*
X135080000Y-72000000D03*
X135080000Y-69460000D03*
X132540000Y-72000000D03*
X132540000Y-69460000D03*
X130000000Y-72000000D03*
X130000000Y-69460000D03*
D12*
X104500000Y-93200000D03*
X104500000Y-97600000D03*
X105300000Y-93200000D03*
X105300000Y-97600000D03*
X106100000Y-93200000D03*
X106100000Y-97600000D03*
X106900000Y-93200000D03*
X106900000Y-97600000D03*
X107700000Y-93200000D03*
X107700000Y-97600000D03*
X108500000Y-93200000D03*
X108500000Y-97600000D03*
X109300000Y-93200000D03*
X109300000Y-97600000D03*
X110100000Y-93200000D03*
X110100000Y-97600000D03*
X110900000Y-93200000D03*
X110900000Y-97600000D03*
X111700000Y-93200000D03*
X111700000Y-97600000D03*
X112500000Y-93200000D03*
X112500000Y-97600000D03*
X113300000Y-93200000D03*
X113300000Y-97600000D03*
X114100000Y-93200000D03*
X114100000Y-97600000D03*
X114900000Y-93200000D03*
X114900000Y-97600000D03*
X115700000Y-93200000D03*
X115700000Y-97600000D03*
X116500000Y-93200000D03*
X116500000Y-97600000D03*
X117300000Y-93200000D03*
X117300000Y-97600000D03*
X118100000Y-93200000D03*
X118100000Y-97600000D03*
X118900000Y-93200000D03*
X118900000Y-97600000D03*
X119700000Y-93200000D03*
X119700000Y-97600000D03*
D13*
X130000000Y-89900000D03*
X132600000Y-89300000D03*
X135050000Y-88650000D03*
X137620000Y-88100000D03*
X140160000Y-87500000D03*
X142800000Y-86900000D03*
X145800000Y-86500000D03*
X146300000Y-103800000D03*
X147800000Y-86600000D03*
X147800000Y-103200000D03*
X150300000Y-86400000D03*
X150300000Y-103800000D03*
X163100000Y-100500000D03*
X160500000Y-101300000D03*
X155400000Y-102500000D03*
X158000000Y-101900000D03*
X152900000Y-103100000D03*
X152900000Y-86400000D03*
X155400000Y-86400000D03*
X157900000Y-86400000D03*
X160500000Y-86400000D03*
X163100000Y-86400000D03*
X119700000Y-100000000D03*
X118900000Y-99500000D03*
X118100000Y-100000000D03*
X117300000Y-99500000D03*
X116500000Y-100000000D03*
X115700000Y-99500000D03*
X114900000Y-100000000D03*
X114100000Y-99500000D03*
X113300000Y-100000000D03*
X112500000Y-99500000D03*
X111700000Y-100000000D03*
X110900000Y-99500000D03*
X110100000Y-100000000D03*
X109300000Y-99500000D03*
X108500000Y-100000000D03*
X107700000Y-99500000D03*
X106900000Y-100000000D03*
X106100000Y-99500000D03*
X105300000Y-100000000D03*
X104500000Y-99500000D03*
X119700000Y-90500000D03*
X118900000Y-90000000D03*
X118100000Y-90500000D03*
X117300000Y-90000000D03*
X116500000Y-90500000D03*
X115700000Y-90000000D03*
X114900000Y-90500000D03*
X114100000Y-90000000D03*
X113300000Y-90500000D03*
X112500000Y-90000000D03*
X111700000Y-90500000D03*
X110900000Y-90000000D03*
X110100000Y-90500000D03*
X109300000Y-90000000D03*
X108500001Y-90625719D03*
X107700001Y-89998299D03*
X106900001Y-90430503D03*
X106100000Y-90000000D03*
X104500000Y-90000000D03*
X105300000Y-90500000D03*
D14*
X179650000Y-70850000D02*
X178260000Y-69460000D01*
X179650000Y-73400000D02*
X179650000Y-70850000D01*
X122023446Y-85550000D02*
X167500000Y-85550000D01*
X167500000Y-85550000D02*
X179650000Y-73400000D01*
X119700000Y-87873446D02*
X122023446Y-85550000D01*
X119700000Y-90500000D02*
X119700000Y-87873446D01*
X177009000Y-72941000D02*
X177009000Y-70789000D01*
X121774918Y-84950000D02*
X165000000Y-84950000D01*
X165000000Y-84950000D02*
X177009000Y-72941000D01*
X118900000Y-87824918D02*
X121774918Y-84950000D01*
X118900000Y-90000000D02*
X118900000Y-87824918D01*
X177009000Y-70789000D02*
X175720000Y-69500000D01*
D15*
X160450000Y-101250000D02*
X160450000Y-86450000D01*
X160450000Y-86450000D02*
X160500000Y-86400000D01*
X160500000Y-101300000D02*
X160450000Y-101250000D01*
X130000000Y-89900000D02*
X128550000Y-89900000D01*
X107900000Y-102600000D02*
X105300000Y-100000000D01*
X116934314Y-102600000D02*
X107900000Y-102600000D01*
X117332315Y-102202000D02*
X116934314Y-102600000D01*
X119430898Y-102202000D02*
X117332315Y-102202000D01*
X124211744Y-102201000D02*
X119431900Y-102201000D01*
X126850000Y-91032900D02*
X126850000Y-99562739D01*
X126850000Y-99562739D02*
X124211744Y-102201000D01*
X128582900Y-89300000D02*
X126850000Y-91032900D01*
X119431900Y-102201000D02*
X119430898Y-102202000D01*
X132600000Y-89300000D02*
X128582900Y-89300000D01*
X106100000Y-100049943D02*
X106100000Y-99500000D01*
X107852057Y-101802000D02*
X106100000Y-100049943D01*
X108602114Y-101802000D02*
X107852057Y-101802000D01*
X108603114Y-101803000D02*
X108602114Y-101802000D01*
X117165627Y-101803000D02*
X108603114Y-101803000D01*
X117166629Y-101802000D02*
X117165627Y-101803000D01*
X119266214Y-101801000D02*
X119265213Y-101802000D01*
X126450000Y-90867215D02*
X126450000Y-99397054D01*
X128617214Y-88700000D02*
X126450000Y-90867215D01*
X135000000Y-88700000D02*
X128617214Y-88700000D01*
X135050000Y-88650000D02*
X135000000Y-88700000D01*
X126450000Y-99397054D02*
X124046059Y-101801000D01*
X124046059Y-101801000D02*
X119266214Y-101801000D01*
X119265213Y-101802000D02*
X117166629Y-101802000D01*
X128900000Y-86700000D02*
X142600000Y-86700000D01*
X125250000Y-90350000D02*
X128900000Y-86700000D01*
X125250000Y-98900000D02*
X125250000Y-90350000D01*
X108769214Y-101402000D02*
X108768214Y-101401000D01*
X117000529Y-101401000D02*
X116999529Y-101402000D01*
X126050000Y-99231372D02*
X123880370Y-101401000D01*
X126050000Y-90700115D02*
X126050000Y-99231372D01*
X128700115Y-88050000D02*
X126050000Y-90700115D01*
X107700000Y-100049943D02*
X107700000Y-99500000D01*
X108651057Y-101001000D02*
X107700000Y-100049943D01*
X137570000Y-88050000D02*
X128700115Y-88050000D01*
X123714685Y-101001000D02*
X116834843Y-101001000D01*
X125650000Y-99065686D02*
X123714685Y-101001000D01*
X109101000Y-100601000D02*
X123549000Y-100601000D01*
X125650000Y-90534430D02*
X125650000Y-99065686D01*
X116999529Y-101402000D02*
X108769214Y-101402000D01*
X128684430Y-87500000D02*
X125650000Y-90534430D01*
X123549000Y-100601000D02*
X125250000Y-98900000D01*
X140160000Y-87500000D02*
X128684430Y-87500000D01*
X108768214Y-101401000D02*
X108301000Y-101401000D01*
X137620000Y-88100000D02*
X137570000Y-88050000D01*
X108500000Y-100000000D02*
X109101000Y-100601000D01*
X116833844Y-101002000D02*
X108934900Y-101002000D01*
X108934900Y-101002000D02*
X108933899Y-101001000D01*
X108301000Y-101401000D02*
X106900000Y-100000000D01*
X116834843Y-101001000D02*
X116833844Y-101002000D01*
X142600000Y-86700000D02*
X142800000Y-86900000D01*
X123880370Y-101401000D02*
X117000529Y-101401000D01*
X108933899Y-101001000D02*
X108651057Y-101001000D01*
X104500000Y-100100000D02*
X104500000Y-99500000D01*
X107401000Y-103001000D02*
X104500000Y-100100000D01*
X119199000Y-103001000D02*
X107401000Y-103001000D01*
X124377844Y-102602000D02*
X119598000Y-102602000D01*
X127251000Y-99728840D02*
X124377844Y-102602000D01*
X127251000Y-91199000D02*
X127251000Y-99728840D01*
X128550000Y-89900000D02*
X127251000Y-91199000D01*
X119598000Y-102602000D02*
X119199000Y-103001000D01*
X146300000Y-103800000D02*
X146300000Y-87000000D01*
X146300000Y-87000000D02*
X145800000Y-86500000D01*
X147800000Y-103200000D02*
X147800000Y-86600000D01*
X150300000Y-103800000D02*
X150300000Y-86400000D01*
X152900000Y-103100000D02*
X152900000Y-86400000D01*
X155400000Y-102500000D02*
X155400000Y-86400000D01*
X158000000Y-101900000D02*
X158000000Y-86500000D01*
X158000000Y-86500000D02*
X157900000Y-86400000D01*
X163100000Y-100500000D02*
X163100000Y-86400000D01*
D14*
X118900000Y-99500000D02*
X118900000Y-97800000D01*
X118100000Y-100000000D02*
X118100000Y-97800000D01*
X117300000Y-99500000D02*
X117300000Y-97800000D01*
X116500000Y-100000000D02*
X116500000Y-97800000D01*
X115700000Y-99500000D02*
X115700000Y-97800000D01*
X114900000Y-100000000D02*
X114900000Y-97800000D01*
X114100000Y-99500000D02*
X114100000Y-97800000D01*
X113300000Y-100000000D02*
X113300000Y-97800000D01*
X112500000Y-99500000D02*
X112500000Y-97800000D01*
X111700000Y-100000000D02*
X111700000Y-97800000D01*
X110900000Y-99500000D02*
X110900000Y-97800000D01*
X110100000Y-100000000D02*
X110100000Y-97800000D01*
X109300000Y-99500000D02*
X109300000Y-97800000D01*
X108500000Y-100000000D02*
X108500000Y-97800000D01*
X107700000Y-99500000D02*
X107700000Y-97800000D01*
X106900000Y-100000000D02*
X106900000Y-97800000D01*
X106100000Y-99500000D02*
X106100000Y-97800000D01*
X105300000Y-100000000D02*
X105300000Y-97800000D01*
X104500000Y-99500000D02*
X104500000Y-97800000D01*
X118100000Y-90500000D02*
X118100000Y-87776390D01*
X117300000Y-90000000D02*
X117300000Y-87727862D01*
X116500000Y-93000000D02*
X116500000Y-90500000D01*
X115700000Y-90000000D02*
X115700000Y-87630806D01*
X114900000Y-90500000D02*
X114900000Y-87582278D01*
X114100000Y-90000000D02*
X114100000Y-87533750D01*
X113300000Y-90500000D02*
X113300000Y-87485222D01*
X112500000Y-90000000D02*
X112500000Y-87436694D01*
X111700000Y-90500000D02*
X111700000Y-87388166D01*
X110900000Y-90000000D02*
X110900000Y-87339638D01*
X110100000Y-90500000D02*
X110100000Y-93000000D01*
X109300000Y-90000000D02*
X109300000Y-93000000D01*
X151571000Y-72558182D02*
X151571000Y-70789000D01*
X144729182Y-79400000D02*
X151571000Y-72558182D01*
X119688166Y-79400000D02*
X144729182Y-79400000D01*
X111700000Y-87388166D02*
X119688166Y-79400000D01*
X151571000Y-70789000D02*
X152860000Y-69500000D01*
X111700000Y-93000000D02*
X111700000Y-90500000D01*
X149031000Y-70789000D02*
X150320000Y-69500000D01*
X149031000Y-72558182D02*
X149031000Y-70789000D01*
X142789182Y-78800000D02*
X149031000Y-72558182D01*
X119439638Y-78800000D02*
X142789182Y-78800000D01*
X110900000Y-87339638D02*
X119439638Y-78800000D01*
X110900000Y-93000000D02*
X110900000Y-90000000D01*
X118942582Y-77600000D02*
X109300000Y-87242582D01*
X109300000Y-87242582D02*
X109300000Y-90000000D01*
X138909182Y-77600000D02*
X118942582Y-77600000D01*
X143951000Y-70789000D02*
X143951000Y-72558182D01*
X143951000Y-72558182D02*
X138909182Y-77600000D01*
X145240000Y-69500000D02*
X143951000Y-70789000D01*
X108500001Y-87194053D02*
X108500001Y-90625719D01*
X118694054Y-77000000D02*
X108500001Y-87194053D01*
X136969182Y-77000000D02*
X118694054Y-77000000D01*
X141449000Y-72520182D02*
X136969182Y-77000000D01*
X141449000Y-70751000D02*
X141449000Y-72520182D01*
X142700000Y-69500000D02*
X141449000Y-70751000D01*
X118445526Y-76400000D02*
X107700001Y-87145525D01*
X135067182Y-76400000D02*
X118445526Y-76400000D01*
X138909000Y-72558182D02*
X135067182Y-76400000D01*
X138909000Y-70751000D02*
X138909000Y-72558182D01*
X140160000Y-69500000D02*
X138909000Y-70751000D01*
X107700001Y-87145525D02*
X107700001Y-89998299D01*
X106900000Y-87096998D02*
X106900001Y-90430503D01*
X133127182Y-75800000D02*
X118196998Y-75800000D01*
X136369000Y-72558182D02*
X133127182Y-75800000D01*
X136369000Y-70751000D02*
X136369000Y-72558182D01*
X137620000Y-69500000D02*
X136369000Y-70751000D01*
X118196998Y-75800000D02*
X106900000Y-87096998D01*
X131290000Y-70750000D02*
X132540000Y-69500000D01*
X122248000Y-74600000D02*
X126098000Y-70750000D01*
X117699942Y-74600000D02*
X122248000Y-74600000D01*
X105300000Y-86999942D02*
X117699942Y-74600000D01*
X105300000Y-90500000D02*
X105300000Y-86999942D01*
X126098000Y-70750000D02*
X131290000Y-70750000D01*
X133829000Y-72558182D02*
X133829000Y-70751000D01*
X131187182Y-75200000D02*
X133829000Y-72558182D01*
X106100000Y-87048470D02*
X117948470Y-75200000D01*
X133829000Y-70751000D02*
X135080000Y-69500000D01*
X106100000Y-90000000D02*
X106100000Y-87048470D01*
X117948470Y-75200000D02*
X131187182Y-75200000D01*
X119700000Y-93000000D02*
X119700000Y-90500000D01*
X118900000Y-93000000D02*
X118900000Y-90000000D01*
X174469000Y-70789000D02*
X173180000Y-69500000D01*
X163700000Y-84350000D02*
X174469000Y-73581000D01*
X121526390Y-84350000D02*
X163700000Y-84350000D01*
X118100000Y-87776390D02*
X121526390Y-84350000D01*
X118100000Y-93000000D02*
X118100000Y-90500000D01*
X169351000Y-70789000D02*
X170640000Y-69500000D01*
X169351000Y-72558182D02*
X169351000Y-70789000D01*
X158309182Y-83600000D02*
X169351000Y-72558182D01*
X121427862Y-83600000D02*
X158309182Y-83600000D01*
X117300000Y-93000000D02*
X117300000Y-90000000D01*
X166849000Y-72558182D02*
X166849000Y-70751000D01*
X156407182Y-83000000D02*
X166849000Y-72558182D01*
X116500000Y-87679334D02*
X121179334Y-83000000D01*
X116500000Y-90500000D02*
X116500000Y-87679334D01*
X164309000Y-70751000D02*
X165560000Y-69500000D01*
X164309000Y-72558182D02*
X164309000Y-70751000D01*
X154467182Y-82400000D02*
X164309000Y-72558182D01*
X120930806Y-82400000D02*
X154467182Y-82400000D01*
X121179334Y-83000000D02*
X156407182Y-83000000D01*
X115700000Y-87630806D02*
X120930806Y-82400000D01*
X161731000Y-70789000D02*
X163020000Y-69500000D01*
X161731000Y-72558182D02*
X161731000Y-70789000D01*
X120682278Y-81800000D02*
X152489182Y-81800000D01*
X174469000Y-73581000D02*
X174469000Y-70789000D01*
X114900000Y-87582278D02*
X120682278Y-81800000D01*
X114900000Y-93000000D02*
X114900000Y-90500000D01*
X159191000Y-70789000D02*
X160480000Y-69500000D01*
X159191000Y-72558182D02*
X159191000Y-70789000D01*
X150549182Y-81200000D02*
X159191000Y-72558182D01*
X114100000Y-87533750D02*
X120433750Y-81200000D01*
X114100000Y-93000000D02*
X114100000Y-90000000D01*
X156651000Y-72558182D02*
X156651000Y-70789000D01*
X148609182Y-80600000D02*
X156651000Y-72558182D01*
X113300000Y-93000000D02*
X113300000Y-90500000D01*
X154149000Y-70751000D02*
X155400000Y-69500000D01*
X154149000Y-72520182D02*
X154149000Y-70751000D01*
X146669182Y-80000000D02*
X154149000Y-72520182D01*
X119936694Y-80000000D02*
X146669182Y-80000000D01*
X112500000Y-93000000D02*
X112500000Y-90000000D01*
X166849000Y-70751000D02*
X168100000Y-69500000D01*
X117300000Y-87727862D02*
X121427862Y-83600000D01*
X119191110Y-78200000D02*
X110100000Y-87291110D01*
X140847768Y-78200000D02*
X119191110Y-78200000D01*
X146491000Y-72556768D02*
X140847768Y-78200000D01*
X147780000Y-69500000D02*
X146491000Y-70789000D01*
X152489182Y-81800000D02*
X161731000Y-72558182D01*
X113300000Y-87485222D02*
X120185222Y-80600000D01*
X120185222Y-80600000D02*
X148609182Y-80600000D01*
X120433750Y-81200000D02*
X150549182Y-81200000D01*
X110100000Y-87291110D02*
X110100000Y-90500000D01*
X156651000Y-70789000D02*
X157940000Y-69500000D01*
X115700000Y-93000000D02*
X115700000Y-90000000D01*
X146491000Y-70789000D02*
X146491000Y-72556768D01*
X112500000Y-87436694D02*
X119936694Y-80000000D01*
X121950000Y-69500000D02*
X130000000Y-69500000D01*
X104500000Y-90000000D02*
X104500000Y-86950000D01*
X104500000Y-86950000D02*
X121950000Y-69500000D01*
X108500000Y-93000000D02*
X108500001Y-90625719D01*
X107700000Y-93000000D02*
X107700001Y-89998299D01*
X106900000Y-93000000D02*
X106900001Y-90430503D01*
X106100000Y-93000000D02*
X106100000Y-90000000D01*
X105300000Y-93000000D02*
X105300000Y-90500000D01*
X104500000Y-93000000D02*
X104500000Y-90000000D01*
X119700000Y-100000000D02*
X119700000Y-97800000D01*
G04 #@! TA.AperFunction,Conductor*
G36*
X199442539Y-67520185D02*
G01*
X199488294Y-67572989D01*
X199499500Y-67624500D01*
X199499500Y-104375500D01*
X199479815Y-104442539D01*
X199427011Y-104488294D01*
X199375500Y-104499500D01*
X151027350Y-104499500D01*
X150960311Y-104479815D01*
X150914556Y-104427011D01*
X150904612Y-104357853D01*
X150924248Y-104306609D01*
X151009390Y-104179185D01*
X151009390Y-104179184D01*
X151009394Y-104179179D01*
X151069737Y-104033497D01*
X151100500Y-103878842D01*
X151100500Y-103721158D01*
X151100500Y-103721155D01*
X151100499Y-103721153D01*
X151078447Y-103610292D01*
X151069737Y-103566503D01*
X151034536Y-103481519D01*
X151009397Y-103420827D01*
X151009390Y-103420814D01*
X150921398Y-103289125D01*
X150900520Y-103222447D01*
X150900500Y-103220234D01*
X150900500Y-86979765D01*
X150920185Y-86912726D01*
X150921398Y-86910874D01*
X150981347Y-86821155D01*
X151009394Y-86779179D01*
X151069737Y-86633497D01*
X151100500Y-86478842D01*
X151100500Y-86374500D01*
X151120185Y-86307461D01*
X151172989Y-86261706D01*
X151224500Y-86250500D01*
X151975500Y-86250500D01*
X152042539Y-86270185D01*
X152088294Y-86322989D01*
X152099500Y-86374500D01*
X152099500Y-86478846D01*
X152130261Y-86633489D01*
X152130264Y-86633501D01*
X152190602Y-86779172D01*
X152190609Y-86779185D01*
X152278602Y-86910874D01*
X152299480Y-86977551D01*
X152299500Y-86979765D01*
X152299500Y-102520234D01*
X152279815Y-102587273D01*
X152278602Y-102589125D01*
X152190609Y-102720814D01*
X152190602Y-102720827D01*
X152130264Y-102866498D01*
X152130261Y-102866510D01*
X152099500Y-103021153D01*
X152099500Y-103178846D01*
X152130261Y-103333489D01*
X152130264Y-103333501D01*
X152190602Y-103479172D01*
X152190609Y-103479185D01*
X152278210Y-103610288D01*
X152278213Y-103610292D01*
X152389707Y-103721786D01*
X152389711Y-103721789D01*
X152520814Y-103809390D01*
X152520827Y-103809397D01*
X152666498Y-103869735D01*
X152666503Y-103869737D01*
X152813119Y-103898901D01*
X152821153Y-103900499D01*
X152821156Y-103900500D01*
X152821158Y-103900500D01*
X152978844Y-103900500D01*
X152978845Y-103900499D01*
X153133497Y-103869737D01*
X153279179Y-103809394D01*
X153410289Y-103721789D01*
X153521789Y-103610289D01*
X153609394Y-103479179D01*
X153669737Y-103333497D01*
X153700500Y-103178842D01*
X153700500Y-103021158D01*
X153700500Y-103021155D01*
X153700499Y-103021153D01*
X153688434Y-102960501D01*
X153669737Y-102866503D01*
X153650812Y-102820814D01*
X153609397Y-102720827D01*
X153609390Y-102720814D01*
X153521398Y-102589125D01*
X153500520Y-102522447D01*
X153500500Y-102520234D01*
X153500500Y-86979765D01*
X153520185Y-86912726D01*
X153521398Y-86910874D01*
X153581347Y-86821155D01*
X153609394Y-86779179D01*
X153669737Y-86633497D01*
X153700500Y-86478842D01*
X153700500Y-86374500D01*
X153720185Y-86307461D01*
X153772989Y-86261706D01*
X153824500Y-86250500D01*
X154475500Y-86250500D01*
X154542539Y-86270185D01*
X154588294Y-86322989D01*
X154599500Y-86374500D01*
X154599500Y-86478846D01*
X154630261Y-86633489D01*
X154630264Y-86633501D01*
X154690602Y-86779172D01*
X154690609Y-86779185D01*
X154778602Y-86910874D01*
X154799480Y-86977551D01*
X154799500Y-86979765D01*
X154799500Y-101920234D01*
X154779815Y-101987273D01*
X154778602Y-101989125D01*
X154690609Y-102120814D01*
X154690602Y-102120827D01*
X154630264Y-102266498D01*
X154630261Y-102266510D01*
X154599500Y-102421153D01*
X154599500Y-102578846D01*
X154630261Y-102733489D01*
X154630264Y-102733501D01*
X154690602Y-102879172D01*
X154690609Y-102879185D01*
X154778210Y-103010288D01*
X154778213Y-103010292D01*
X154889707Y-103121786D01*
X154889711Y-103121789D01*
X155020814Y-103209390D01*
X155020827Y-103209397D01*
X155091857Y-103238818D01*
X155166503Y-103269737D01*
X155321153Y-103300499D01*
X155321156Y-103300500D01*
X155321158Y-103300500D01*
X155478844Y-103300500D01*
X155478845Y-103300499D01*
X155633497Y-103269737D01*
X155779179Y-103209394D01*
X155910289Y-103121789D01*
X156021789Y-103010289D01*
X156109394Y-102879179D01*
X156169737Y-102733497D01*
X156200500Y-102578842D01*
X156200500Y-102421158D01*
X156200500Y-102421155D01*
X156200499Y-102421153D01*
X156198338Y-102410288D01*
X156169737Y-102266503D01*
X156169735Y-102266498D01*
X156109397Y-102120827D01*
X156109390Y-102120814D01*
X156021398Y-101989125D01*
X156000520Y-101922447D01*
X156000500Y-101920234D01*
X156000500Y-86979765D01*
X156020185Y-86912726D01*
X156021398Y-86910874D01*
X156081347Y-86821155D01*
X156109394Y-86779179D01*
X156169737Y-86633497D01*
X156200500Y-86478842D01*
X156200500Y-86374500D01*
X156220185Y-86307461D01*
X156272989Y-86261706D01*
X156324500Y-86250500D01*
X156975500Y-86250500D01*
X157042539Y-86270185D01*
X157088294Y-86322989D01*
X157099500Y-86374500D01*
X157099500Y-86478846D01*
X157130261Y-86633489D01*
X157130264Y-86633501D01*
X157190602Y-86779172D01*
X157190609Y-86779185D01*
X157278209Y-86910287D01*
X157278210Y-86910288D01*
X157278211Y-86910289D01*
X157363182Y-86995260D01*
X157396666Y-87056581D01*
X157399500Y-87082940D01*
X157399500Y-101320234D01*
X157379815Y-101387273D01*
X157378602Y-101389125D01*
X157290609Y-101520814D01*
X157290602Y-101520827D01*
X157230264Y-101666498D01*
X157230261Y-101666510D01*
X157199500Y-101821153D01*
X157199500Y-101978846D01*
X157230261Y-102133489D01*
X157230264Y-102133501D01*
X157290602Y-102279172D01*
X157290609Y-102279185D01*
X157378210Y-102410288D01*
X157378213Y-102410292D01*
X157489707Y-102521786D01*
X157489711Y-102521789D01*
X157620814Y-102609390D01*
X157620827Y-102609397D01*
X157736448Y-102657288D01*
X157766503Y-102669737D01*
X157921153Y-102700499D01*
X157921156Y-102700500D01*
X157921158Y-102700500D01*
X158078844Y-102700500D01*
X158078845Y-102700499D01*
X158233497Y-102669737D01*
X158379179Y-102609394D01*
X158510289Y-102521789D01*
X158621789Y-102410289D01*
X158709394Y-102279179D01*
X158769737Y-102133497D01*
X158800500Y-101978842D01*
X158800500Y-101821158D01*
X158800500Y-101821155D01*
X158800499Y-101821153D01*
X158798338Y-101810288D01*
X158769737Y-101666503D01*
X158769735Y-101666498D01*
X158709397Y-101520827D01*
X158709390Y-101520814D01*
X158621398Y-101389125D01*
X158600520Y-101322447D01*
X158600500Y-101320234D01*
X158600500Y-86825316D01*
X158609939Y-86777864D01*
X158650954Y-86678844D01*
X158669737Y-86633497D01*
X158700500Y-86478842D01*
X158700500Y-86374500D01*
X158720185Y-86307461D01*
X158772989Y-86261706D01*
X158824500Y-86250500D01*
X159575500Y-86250500D01*
X159642539Y-86270185D01*
X159688294Y-86322989D01*
X159699500Y-86374500D01*
X159699500Y-86478846D01*
X159730261Y-86633489D01*
X159730264Y-86633501D01*
X159790602Y-86779172D01*
X159790606Y-86779179D01*
X159828602Y-86836044D01*
X159849480Y-86902721D01*
X159849500Y-86904935D01*
X159849500Y-100795064D01*
X159829815Y-100862103D01*
X159828603Y-100863954D01*
X159790608Y-100920817D01*
X159790602Y-100920828D01*
X159730264Y-101066498D01*
X159730261Y-101066510D01*
X159699500Y-101221153D01*
X159699500Y-101378846D01*
X159730261Y-101533489D01*
X159730264Y-101533501D01*
X159790602Y-101679172D01*
X159790609Y-101679185D01*
X159878210Y-101810288D01*
X159878213Y-101810292D01*
X159989707Y-101921786D01*
X159989711Y-101921789D01*
X160120814Y-102009390D01*
X160120827Y-102009397D01*
X160266498Y-102069735D01*
X160266503Y-102069737D01*
X160421153Y-102100499D01*
X160421156Y-102100500D01*
X160421158Y-102100500D01*
X160578844Y-102100500D01*
X160578845Y-102100499D01*
X160733497Y-102069737D01*
X160879179Y-102009394D01*
X161010289Y-101921789D01*
X161121789Y-101810289D01*
X161209394Y-101679179D01*
X161269737Y-101533497D01*
X161300500Y-101378842D01*
X161300500Y-101221158D01*
X161300500Y-101221155D01*
X161300499Y-101221153D01*
X161280734Y-101121789D01*
X161269737Y-101066503D01*
X161209397Y-100920828D01*
X161209397Y-100920827D01*
X161209390Y-100920814D01*
X161121789Y-100789711D01*
X161121786Y-100789707D01*
X161086819Y-100754740D01*
X161053334Y-100693417D01*
X161050500Y-100667059D01*
X161050500Y-87032940D01*
X161070185Y-86965901D01*
X161086820Y-86945258D01*
X161121786Y-86910292D01*
X161121789Y-86910289D01*
X161209394Y-86779179D01*
X161269737Y-86633497D01*
X161300500Y-86478842D01*
X161300500Y-86374500D01*
X161320185Y-86307461D01*
X161372989Y-86261706D01*
X161424500Y-86250500D01*
X162175500Y-86250500D01*
X162242539Y-86270185D01*
X162288294Y-86322989D01*
X162299500Y-86374500D01*
X162299500Y-86478846D01*
X162330261Y-86633489D01*
X162330264Y-86633501D01*
X162390602Y-86779172D01*
X162390609Y-86779185D01*
X162478602Y-86910874D01*
X162499480Y-86977551D01*
X162499500Y-86979765D01*
X162499500Y-99920234D01*
X162479815Y-99987273D01*
X162478602Y-99989125D01*
X162390609Y-100120814D01*
X162390602Y-100120827D01*
X162330264Y-100266498D01*
X162330261Y-100266510D01*
X162299500Y-100421153D01*
X162299500Y-100578846D01*
X162330261Y-100733489D01*
X162330264Y-100733501D01*
X162390602Y-100879172D01*
X162390609Y-100879185D01*
X162478210Y-101010288D01*
X162478213Y-101010292D01*
X162589707Y-101121786D01*
X162589711Y-101121789D01*
X162720814Y-101209390D01*
X162720827Y-101209397D01*
X162866498Y-101269735D01*
X162866503Y-101269737D01*
X163021153Y-101300499D01*
X163021156Y-101300500D01*
X163021158Y-101300500D01*
X163178844Y-101300500D01*
X163178845Y-101300499D01*
X163333497Y-101269737D01*
X163479179Y-101209394D01*
X163610289Y-101121789D01*
X163721789Y-101010289D01*
X163809394Y-100879179D01*
X163869737Y-100733497D01*
X163900500Y-100578842D01*
X163900500Y-100421158D01*
X163900500Y-100421155D01*
X163900499Y-100421153D01*
X163869738Y-100266510D01*
X163869737Y-100266503D01*
X163833515Y-100179054D01*
X163809397Y-100120827D01*
X163809390Y-100120814D01*
X163721398Y-99989125D01*
X163700520Y-99922447D01*
X163700500Y-99920234D01*
X163700500Y-86979765D01*
X163720185Y-86912726D01*
X163721398Y-86910874D01*
X163781347Y-86821155D01*
X163809394Y-86779179D01*
X163869737Y-86633497D01*
X163900500Y-86478842D01*
X163900500Y-86374500D01*
X163920185Y-86307461D01*
X163972989Y-86261706D01*
X164024500Y-86250500D01*
X167568996Y-86250500D01*
X167660040Y-86232389D01*
X167704328Y-86223580D01*
X167768069Y-86197177D01*
X167831807Y-86170777D01*
X167831808Y-86170776D01*
X167831811Y-86170775D01*
X167946543Y-86094114D01*
X180194114Y-73846543D01*
X180270775Y-73731811D01*
X180323580Y-73604328D01*
X180350500Y-73468994D01*
X180350500Y-73331006D01*
X180350500Y-70781007D01*
X180336685Y-70711557D01*
X180323580Y-70645672D01*
X180270775Y-70518189D01*
X180194114Y-70403457D01*
X180194112Y-70403454D01*
X180194111Y-70403453D01*
X179620507Y-69829850D01*
X179587022Y-69768527D01*
X179585715Y-69722771D01*
X179610500Y-69566286D01*
X179610500Y-69353713D01*
X179596767Y-69267007D01*
X179577246Y-69143757D01*
X179511557Y-68941588D01*
X179415051Y-68752184D01*
X179415049Y-68752181D01*
X179415048Y-68752179D01*
X179290109Y-68580213D01*
X179139786Y-68429890D01*
X178967820Y-68304951D01*
X178778414Y-68208444D01*
X178778413Y-68208443D01*
X178778412Y-68208443D01*
X178576243Y-68142754D01*
X178576241Y-68142753D01*
X178576240Y-68142753D01*
X178414957Y-68117208D01*
X178366287Y-68109500D01*
X178153713Y-68109500D01*
X178105042Y-68117208D01*
X177943760Y-68142753D01*
X177741585Y-68208444D01*
X177552179Y-68304951D01*
X177380213Y-68429890D01*
X177229890Y-68580213D01*
X177104949Y-68752182D01*
X177100484Y-68760946D01*
X177052509Y-68811742D01*
X176984688Y-68828536D01*
X176918553Y-68805998D01*
X176879516Y-68760946D01*
X176875050Y-68752182D01*
X176750109Y-68580213D01*
X176599786Y-68429890D01*
X176427820Y-68304951D01*
X176238414Y-68208444D01*
X176238413Y-68208443D01*
X176238412Y-68208443D01*
X176036243Y-68142754D01*
X176036241Y-68142753D01*
X176036240Y-68142753D01*
X175874957Y-68117208D01*
X175826287Y-68109500D01*
X175613713Y-68109500D01*
X175565042Y-68117208D01*
X175403760Y-68142753D01*
X175201585Y-68208444D01*
X175012179Y-68304951D01*
X174840213Y-68429890D01*
X174689890Y-68580213D01*
X174564949Y-68752182D01*
X174560484Y-68760946D01*
X174512509Y-68811742D01*
X174444688Y-68828536D01*
X174378553Y-68805998D01*
X174339516Y-68760946D01*
X174335050Y-68752182D01*
X174210109Y-68580213D01*
X174059786Y-68429890D01*
X173887820Y-68304951D01*
X173698414Y-68208444D01*
X173698413Y-68208443D01*
X173698412Y-68208443D01*
X173496243Y-68142754D01*
X173496241Y-68142753D01*
X173496240Y-68142753D01*
X173334957Y-68117208D01*
X173286287Y-68109500D01*
X173073713Y-68109500D01*
X173025042Y-68117208D01*
X172863760Y-68142753D01*
X172661585Y-68208444D01*
X172472179Y-68304951D01*
X172300213Y-68429890D01*
X172149890Y-68580213D01*
X172024949Y-68752182D01*
X172020484Y-68760946D01*
X171972509Y-68811742D01*
X171904688Y-68828536D01*
X171838553Y-68805998D01*
X171799516Y-68760946D01*
X171795050Y-68752182D01*
X171670109Y-68580213D01*
X171519786Y-68429890D01*
X171347820Y-68304951D01*
X171158414Y-68208444D01*
X171158413Y-68208443D01*
X171158412Y-68208443D01*
X170956243Y-68142754D01*
X170956241Y-68142753D01*
X170956240Y-68142753D01*
X170794957Y-68117208D01*
X170746287Y-68109500D01*
X170533713Y-68109500D01*
X170485042Y-68117208D01*
X170323760Y-68142753D01*
X170121585Y-68208444D01*
X169932179Y-68304951D01*
X169760213Y-68429890D01*
X169609890Y-68580213D01*
X169484949Y-68752182D01*
X169480484Y-68760946D01*
X169432509Y-68811742D01*
X169364688Y-68828536D01*
X169298553Y-68805998D01*
X169259516Y-68760946D01*
X169255050Y-68752182D01*
X169130109Y-68580213D01*
X168979786Y-68429890D01*
X168807820Y-68304951D01*
X168618414Y-68208444D01*
X168618413Y-68208443D01*
X168618412Y-68208443D01*
X168416243Y-68142754D01*
X168416241Y-68142753D01*
X168416240Y-68142753D01*
X168254957Y-68117208D01*
X168206287Y-68109500D01*
X167993713Y-68109500D01*
X167945042Y-68117208D01*
X167783760Y-68142753D01*
X167581585Y-68208444D01*
X167392179Y-68304951D01*
X167220213Y-68429890D01*
X167069890Y-68580213D01*
X166944949Y-68752182D01*
X166940484Y-68760946D01*
X166892509Y-68811742D01*
X166824688Y-68828536D01*
X166758553Y-68805998D01*
X166719516Y-68760946D01*
X166715050Y-68752182D01*
X166590109Y-68580213D01*
X166439786Y-68429890D01*
X166267820Y-68304951D01*
X166078414Y-68208444D01*
X166078413Y-68208443D01*
X166078412Y-68208443D01*
X165876243Y-68142754D01*
X165876241Y-68142753D01*
X165876240Y-68142753D01*
X165714957Y-68117208D01*
X165666287Y-68109500D01*
X165453713Y-68109500D01*
X165405042Y-68117208D01*
X165243760Y-68142753D01*
X165041585Y-68208444D01*
X164852179Y-68304951D01*
X164680213Y-68429890D01*
X164529890Y-68580213D01*
X164404949Y-68752182D01*
X164400484Y-68760946D01*
X164352509Y-68811742D01*
X164284688Y-68828536D01*
X164218553Y-68805998D01*
X164179516Y-68760946D01*
X164175050Y-68752182D01*
X164050109Y-68580213D01*
X163899786Y-68429890D01*
X163727820Y-68304951D01*
X163538414Y-68208444D01*
X163538413Y-68208443D01*
X163538412Y-68208443D01*
X163336243Y-68142754D01*
X163336241Y-68142753D01*
X163336240Y-68142753D01*
X163174957Y-68117208D01*
X163126287Y-68109500D01*
X162913713Y-68109500D01*
X162865042Y-68117208D01*
X162703760Y-68142753D01*
X162501585Y-68208444D01*
X162312179Y-68304951D01*
X162140213Y-68429890D01*
X161989890Y-68580213D01*
X161864949Y-68752182D01*
X161860484Y-68760946D01*
X161812509Y-68811742D01*
X161744688Y-68828536D01*
X161678553Y-68805998D01*
X161639516Y-68760946D01*
X161635050Y-68752182D01*
X161510109Y-68580213D01*
X161359786Y-68429890D01*
X161187820Y-68304951D01*
X160998414Y-68208444D01*
X160998413Y-68208443D01*
X160998412Y-68208443D01*
X160796243Y-68142754D01*
X160796241Y-68142753D01*
X160796240Y-68142753D01*
X160634957Y-68117208D01*
X160586287Y-68109500D01*
X160373713Y-68109500D01*
X160325042Y-68117208D01*
X160163760Y-68142753D01*
X159961585Y-68208444D01*
X159772179Y-68304951D01*
X159600213Y-68429890D01*
X159449890Y-68580213D01*
X159324949Y-68752182D01*
X159320484Y-68760946D01*
X159272509Y-68811742D01*
X159204688Y-68828536D01*
X159138553Y-68805998D01*
X159099516Y-68760946D01*
X159095050Y-68752182D01*
X158970109Y-68580213D01*
X158819786Y-68429890D01*
X158647820Y-68304951D01*
X158458414Y-68208444D01*
X158458413Y-68208443D01*
X158458412Y-68208443D01*
X158256243Y-68142754D01*
X158256241Y-68142753D01*
X158256240Y-68142753D01*
X158094957Y-68117208D01*
X158046287Y-68109500D01*
X157833713Y-68109500D01*
X157785042Y-68117208D01*
X157623760Y-68142753D01*
X157421585Y-68208444D01*
X157232179Y-68304951D01*
X157060213Y-68429890D01*
X156909890Y-68580213D01*
X156784949Y-68752182D01*
X156780484Y-68760946D01*
X156732509Y-68811742D01*
X156664688Y-68828536D01*
X156598553Y-68805998D01*
X156559516Y-68760946D01*
X156555050Y-68752182D01*
X156430109Y-68580213D01*
X156279786Y-68429890D01*
X156107820Y-68304951D01*
X155918414Y-68208444D01*
X155918413Y-68208443D01*
X155918412Y-68208443D01*
X155716243Y-68142754D01*
X155716241Y-68142753D01*
X155716240Y-68142753D01*
X155554957Y-68117208D01*
X155506287Y-68109500D01*
X155293713Y-68109500D01*
X155245042Y-68117208D01*
X155083760Y-68142753D01*
X154881585Y-68208444D01*
X154692179Y-68304951D01*
X154520213Y-68429890D01*
X154369890Y-68580213D01*
X154244949Y-68752182D01*
X154240484Y-68760946D01*
X154192509Y-68811742D01*
X154124688Y-68828536D01*
X154058553Y-68805998D01*
X154019516Y-68760946D01*
X154015050Y-68752182D01*
X153890109Y-68580213D01*
X153739786Y-68429890D01*
X153567820Y-68304951D01*
X153378414Y-68208444D01*
X153378413Y-68208443D01*
X153378412Y-68208443D01*
X153176243Y-68142754D01*
X153176241Y-68142753D01*
X153176240Y-68142753D01*
X153014957Y-68117208D01*
X152966287Y-68109500D01*
X152753713Y-68109500D01*
X152705042Y-68117208D01*
X152543760Y-68142753D01*
X152341585Y-68208444D01*
X152152179Y-68304951D01*
X151980213Y-68429890D01*
X151829890Y-68580213D01*
X151704949Y-68752182D01*
X151700484Y-68760946D01*
X151652509Y-68811742D01*
X151584688Y-68828536D01*
X151518553Y-68805998D01*
X151479516Y-68760946D01*
X151475050Y-68752182D01*
X151350109Y-68580213D01*
X151199786Y-68429890D01*
X151027820Y-68304951D01*
X150838414Y-68208444D01*
X150838413Y-68208443D01*
X150838412Y-68208443D01*
X150636243Y-68142754D01*
X150636241Y-68142753D01*
X150636240Y-68142753D01*
X150474957Y-68117208D01*
X150426287Y-68109500D01*
X150213713Y-68109500D01*
X150165042Y-68117208D01*
X150003760Y-68142753D01*
X149801585Y-68208444D01*
X149612179Y-68304951D01*
X149440213Y-68429890D01*
X149289890Y-68580213D01*
X149164949Y-68752182D01*
X149160484Y-68760946D01*
X149112509Y-68811742D01*
X149044688Y-68828536D01*
X148978553Y-68805998D01*
X148939516Y-68760946D01*
X148935050Y-68752182D01*
X148810109Y-68580213D01*
X148659786Y-68429890D01*
X148487820Y-68304951D01*
X148298414Y-68208444D01*
X148298413Y-68208443D01*
X148298412Y-68208443D01*
X148096243Y-68142754D01*
X148096241Y-68142753D01*
X148096240Y-68142753D01*
X147934957Y-68117208D01*
X147886287Y-68109500D01*
X147673713Y-68109500D01*
X147625042Y-68117208D01*
X147463760Y-68142753D01*
X147261585Y-68208444D01*
X147072179Y-68304951D01*
X146900213Y-68429890D01*
X146749890Y-68580213D01*
X146624949Y-68752182D01*
X146620484Y-68760946D01*
X146572509Y-68811742D01*
X146504688Y-68828536D01*
X146438553Y-68805998D01*
X146399516Y-68760946D01*
X146395050Y-68752182D01*
X146270109Y-68580213D01*
X146119786Y-68429890D01*
X145947820Y-68304951D01*
X145758414Y-68208444D01*
X145758413Y-68208443D01*
X145758412Y-68208443D01*
X145556243Y-68142754D01*
X145556241Y-68142753D01*
X145556240Y-68142753D01*
X145394957Y-68117208D01*
X145346287Y-68109500D01*
X145133713Y-68109500D01*
X145085042Y-68117208D01*
X144923760Y-68142753D01*
X144721585Y-68208444D01*
X144532179Y-68304951D01*
X144360213Y-68429890D01*
X144209890Y-68580213D01*
X144084949Y-68752182D01*
X144080484Y-68760946D01*
X144032509Y-68811742D01*
X143964688Y-68828536D01*
X143898553Y-68805998D01*
X143859516Y-68760946D01*
X143855050Y-68752182D01*
X143730109Y-68580213D01*
X143579786Y-68429890D01*
X143407820Y-68304951D01*
X143218414Y-68208444D01*
X143218413Y-68208443D01*
X143218412Y-68208443D01*
X143016243Y-68142754D01*
X143016241Y-68142753D01*
X143016240Y-68142753D01*
X142854957Y-68117208D01*
X142806287Y-68109500D01*
X142593713Y-68109500D01*
X142545042Y-68117208D01*
X142383760Y-68142753D01*
X142181585Y-68208444D01*
X141992179Y-68304951D01*
X141820213Y-68429890D01*
X141669890Y-68580213D01*
X141544949Y-68752182D01*
X141540484Y-68760946D01*
X141492509Y-68811742D01*
X141424688Y-68828536D01*
X141358553Y-68805998D01*
X141319516Y-68760946D01*
X141315050Y-68752182D01*
X141190109Y-68580213D01*
X141039786Y-68429890D01*
X140867820Y-68304951D01*
X140678414Y-68208444D01*
X140678413Y-68208443D01*
X140678412Y-68208443D01*
X140476243Y-68142754D01*
X140476241Y-68142753D01*
X140476240Y-68142753D01*
X140314957Y-68117208D01*
X140266287Y-68109500D01*
X140053713Y-68109500D01*
X140005042Y-68117208D01*
X139843760Y-68142753D01*
X139641585Y-68208444D01*
X139452179Y-68304951D01*
X139280213Y-68429890D01*
X139129890Y-68580213D01*
X139004949Y-68752182D01*
X139000484Y-68760946D01*
X138952509Y-68811742D01*
X138884688Y-68828536D01*
X138818553Y-68805998D01*
X138779516Y-68760946D01*
X138775050Y-68752182D01*
X138650109Y-68580213D01*
X138499786Y-68429890D01*
X138327820Y-68304951D01*
X138138414Y-68208444D01*
X138138413Y-68208443D01*
X138138412Y-68208443D01*
X137936243Y-68142754D01*
X137936241Y-68142753D01*
X137936240Y-68142753D01*
X137774957Y-68117208D01*
X137726287Y-68109500D01*
X137513713Y-68109500D01*
X137465042Y-68117208D01*
X137303760Y-68142753D01*
X137101585Y-68208444D01*
X136912179Y-68304951D01*
X136740213Y-68429890D01*
X136589890Y-68580213D01*
X136464949Y-68752182D01*
X136460484Y-68760946D01*
X136412509Y-68811742D01*
X136344688Y-68828536D01*
X136278553Y-68805998D01*
X136239516Y-68760946D01*
X136235050Y-68752182D01*
X136110109Y-68580213D01*
X135959786Y-68429890D01*
X135787820Y-68304951D01*
X135598414Y-68208444D01*
X135598413Y-68208443D01*
X135598412Y-68208443D01*
X135396243Y-68142754D01*
X135396241Y-68142753D01*
X135396240Y-68142753D01*
X135234957Y-68117208D01*
X135186287Y-68109500D01*
X134973713Y-68109500D01*
X134925042Y-68117208D01*
X134763760Y-68142753D01*
X134561585Y-68208444D01*
X134372179Y-68304951D01*
X134200213Y-68429890D01*
X134049890Y-68580213D01*
X133924949Y-68752182D01*
X133920202Y-68761499D01*
X133872227Y-68812293D01*
X133804405Y-68829087D01*
X133738271Y-68806548D01*
X133699234Y-68761495D01*
X133694626Y-68752452D01*
X133655270Y-68698282D01*
X133655269Y-68698282D01*
X133022962Y-69330590D01*
X133005925Y-69267007D01*
X132940099Y-69152993D01*
X132847007Y-69059901D01*
X132732993Y-68994075D01*
X132669409Y-68977037D01*
X133301716Y-68344728D01*
X133247550Y-68305375D01*
X133058217Y-68208904D01*
X132856129Y-68143242D01*
X132646246Y-68110000D01*
X132433754Y-68110000D01*
X132223872Y-68143242D01*
X132223869Y-68143242D01*
X132021782Y-68208904D01*
X131832439Y-68305380D01*
X131778282Y-68344727D01*
X131778282Y-68344728D01*
X132410591Y-68977037D01*
X132347007Y-68994075D01*
X132232993Y-69059901D01*
X132139901Y-69152993D01*
X132074075Y-69267007D01*
X132057037Y-69330591D01*
X131424728Y-68698282D01*
X131424727Y-68698282D01*
X131385380Y-68752440D01*
X131385376Y-68752446D01*
X131380760Y-68761505D01*
X131332781Y-68812297D01*
X131264959Y-68829087D01*
X131198826Y-68806543D01*
X131159794Y-68761493D01*
X131155051Y-68752184D01*
X131155049Y-68752181D01*
X131155048Y-68752179D01*
X131030109Y-68580213D01*
X130879786Y-68429890D01*
X130707820Y-68304951D01*
X130518414Y-68208444D01*
X130518413Y-68208443D01*
X130518412Y-68208443D01*
X130316243Y-68142754D01*
X130316241Y-68142753D01*
X130316240Y-68142753D01*
X130154957Y-68117208D01*
X130106287Y-68109500D01*
X129893713Y-68109500D01*
X129845042Y-68117208D01*
X129683760Y-68142753D01*
X129481585Y-68208444D01*
X129292179Y-68304951D01*
X129120213Y-68429890D01*
X128969894Y-68580209D01*
X128969890Y-68580214D01*
X128847708Y-68748385D01*
X128792378Y-68791051D01*
X128747390Y-68799500D01*
X121881004Y-68799500D01*
X121745677Y-68826418D01*
X121745667Y-68826421D01*
X121618192Y-68879222D01*
X121503454Y-68955887D01*
X103955887Y-86503454D01*
X103879222Y-86618192D01*
X103826421Y-86745667D01*
X103826418Y-86745678D01*
X103808950Y-86833501D01*
X103799866Y-86879172D01*
X103799864Y-86879180D01*
X103799500Y-86881007D01*
X103799500Y-89574684D01*
X103790061Y-89622136D01*
X103730264Y-89766498D01*
X103730261Y-89766510D01*
X103699500Y-89921153D01*
X103699500Y-90078846D01*
X103730261Y-90233489D01*
X103730264Y-90233501D01*
X103790061Y-90377864D01*
X103799500Y-90425316D01*
X103799500Y-91953271D01*
X103791682Y-91996604D01*
X103755908Y-92092517D01*
X103749501Y-92152116D01*
X103749501Y-92152123D01*
X103749500Y-92152135D01*
X103749500Y-94247870D01*
X103749501Y-94247876D01*
X103755908Y-94307483D01*
X103806202Y-94442328D01*
X103806206Y-94442335D01*
X103892452Y-94557544D01*
X103892455Y-94557547D01*
X104007664Y-94643793D01*
X104007671Y-94643797D01*
X104052618Y-94660561D01*
X104142517Y-94694091D01*
X104202127Y-94700500D01*
X104797872Y-94700499D01*
X104857483Y-94694091D01*
X104857489Y-94694088D01*
X104865025Y-94692308D01*
X104865321Y-94693561D01*
X104927063Y-94689142D01*
X104940655Y-94693132D01*
X104942627Y-94693598D01*
X105002155Y-94699999D01*
X105002172Y-94700000D01*
X105050000Y-94700000D01*
X105050000Y-94662694D01*
X105069685Y-94595655D01*
X105077505Y-94584817D01*
X105087255Y-94572735D01*
X105107546Y-94557546D01*
X105193796Y-94442331D01*
X105194910Y-94439343D01*
X105203505Y-94428694D01*
X105223426Y-94414884D01*
X105240565Y-94397743D01*
X105251625Y-94395336D01*
X105260927Y-94388888D01*
X105285150Y-94388040D01*
X105308837Y-94382886D01*
X105319442Y-94386840D01*
X105330754Y-94386445D01*
X105351591Y-94398829D01*
X105374303Y-94407298D01*
X105383286Y-94417665D01*
X105390817Y-94422141D01*
X105395791Y-94432096D01*
X105399444Y-94436312D01*
X105400889Y-94435231D01*
X105492452Y-94557544D01*
X105492454Y-94557546D01*
X105500308Y-94563425D01*
X105542180Y-94619356D01*
X105550000Y-94662694D01*
X105550000Y-94700000D01*
X105597828Y-94700000D01*
X105597844Y-94699999D01*
X105657375Y-94693598D01*
X105664926Y-94691814D01*
X105665315Y-94693462D01*
X105725624Y-94689140D01*
X105742387Y-94694060D01*
X105742511Y-94694088D01*
X105742517Y-94694091D01*
X105802127Y-94700500D01*
X106397872Y-94700499D01*
X106457483Y-94694091D01*
X106457485Y-94694090D01*
X106457487Y-94694090D01*
X106465031Y-94692308D01*
X106465377Y-94693775D01*
X106526342Y-94689408D01*
X106541378Y-94693822D01*
X106542511Y-94694089D01*
X106542517Y-94694091D01*
X106602127Y-94700500D01*
X107197872Y-94700499D01*
X107257483Y-94694091D01*
X107257485Y-94694090D01*
X107257487Y-94694090D01*
X107265031Y-94692308D01*
X107265377Y-94693775D01*
X107326342Y-94689408D01*
X107341378Y-94693822D01*
X107342511Y-94694089D01*
X107342517Y-94694091D01*
X107402127Y-94700500D01*
X107997872Y-94700499D01*
X108057483Y-94694091D01*
X108057485Y-94694090D01*
X108057487Y-94694090D01*
X108065031Y-94692308D01*
X108065377Y-94693775D01*
X108126342Y-94689408D01*
X108141378Y-94693822D01*
X108142511Y-94694089D01*
X108142517Y-94694091D01*
X108202127Y-94700500D01*
X108797872Y-94700499D01*
X108857483Y-94694091D01*
X108857485Y-94694090D01*
X108857487Y-94694090D01*
X108865031Y-94692308D01*
X108865377Y-94693775D01*
X108926342Y-94689408D01*
X108941378Y-94693822D01*
X108942511Y-94694089D01*
X108942517Y-94694091D01*
X109002127Y-94700500D01*
X109597872Y-94700499D01*
X109657483Y-94694091D01*
X109657485Y-94694090D01*
X109657487Y-94694090D01*
X109665031Y-94692308D01*
X109665377Y-94693775D01*
X109726342Y-94689408D01*
X109741378Y-94693822D01*
X109742511Y-94694089D01*
X109742517Y-94694091D01*
X109802127Y-94700500D01*
X110397872Y-94700499D01*
X110457483Y-94694091D01*
X110457485Y-94694090D01*
X110457487Y-94694090D01*
X110465031Y-94692308D01*
X110465377Y-94693775D01*
X110526342Y-94689408D01*
X110541378Y-94693822D01*
X110542511Y-94694089D01*
X110542517Y-94694091D01*
X110602127Y-94700500D01*
X111197872Y-94700499D01*
X111257483Y-94694091D01*
X111257485Y-94694090D01*
X111257487Y-94694090D01*
X111265031Y-94692308D01*
X111265377Y-94693775D01*
X111326342Y-94689408D01*
X111341378Y-94693822D01*
X111342511Y-94694089D01*
X111342517Y-94694091D01*
X111402127Y-94700500D01*
X111997872Y-94700499D01*
X112057483Y-94694091D01*
X112057485Y-94694090D01*
X112057487Y-94694090D01*
X112065031Y-94692308D01*
X112065377Y-94693775D01*
X112126342Y-94689408D01*
X112141378Y-94693822D01*
X112142511Y-94694089D01*
X112142517Y-94694091D01*
X112202127Y-94700500D01*
X112797872Y-94700499D01*
X112857483Y-94694091D01*
X112857485Y-94694090D01*
X112857487Y-94694090D01*
X112865031Y-94692308D01*
X112865377Y-94693775D01*
X112926342Y-94689408D01*
X112941378Y-94693822D01*
X112942511Y-94694089D01*
X112942517Y-94694091D01*
X113002127Y-94700500D01*
X113597872Y-94700499D01*
X113657483Y-94694091D01*
X113657485Y-94694090D01*
X113657487Y-94694090D01*
X113665031Y-94692308D01*
X113665377Y-94693775D01*
X113726342Y-94689408D01*
X113741378Y-94693822D01*
X113742511Y-94694089D01*
X113742517Y-94694091D01*
X113802127Y-94700500D01*
X114397872Y-94700499D01*
X114457483Y-94694091D01*
X114457485Y-94694090D01*
X114457487Y-94694090D01*
X114465031Y-94692308D01*
X114465377Y-94693775D01*
X114526342Y-94689408D01*
X114541378Y-94693822D01*
X114542511Y-94694089D01*
X114542517Y-94694091D01*
X114602127Y-94700500D01*
X115197872Y-94700499D01*
X115257483Y-94694091D01*
X115257485Y-94694090D01*
X115257487Y-94694090D01*
X115265031Y-94692308D01*
X115265377Y-94693775D01*
X115326342Y-94689408D01*
X115341378Y-94693822D01*
X115342511Y-94694089D01*
X115342517Y-94694091D01*
X115402127Y-94700500D01*
X115997872Y-94700499D01*
X116057483Y-94694091D01*
X116057485Y-94694090D01*
X116057487Y-94694090D01*
X116065031Y-94692308D01*
X116065377Y-94693775D01*
X116126342Y-94689408D01*
X116141378Y-94693822D01*
X116142511Y-94694089D01*
X116142517Y-94694091D01*
X116202127Y-94700500D01*
X116797872Y-94700499D01*
X116857483Y-94694091D01*
X116857485Y-94694090D01*
X116857487Y-94694090D01*
X116865031Y-94692308D01*
X116865377Y-94693775D01*
X116926342Y-94689408D01*
X116941378Y-94693822D01*
X116942511Y-94694089D01*
X116942517Y-94694091D01*
X117002127Y-94700500D01*
X117597872Y-94700499D01*
X117657483Y-94694091D01*
X117657485Y-94694090D01*
X117657487Y-94694090D01*
X117665031Y-94692308D01*
X117665377Y-94693775D01*
X117726342Y-94689408D01*
X117741378Y-94693822D01*
X117742511Y-94694089D01*
X117742517Y-94694091D01*
X117802127Y-94700500D01*
X118397872Y-94700499D01*
X118457483Y-94694091D01*
X118457485Y-94694090D01*
X118457487Y-94694090D01*
X118465031Y-94692308D01*
X118465377Y-94693775D01*
X118526342Y-94689408D01*
X118541378Y-94693822D01*
X118542511Y-94694089D01*
X118542517Y-94694091D01*
X118602127Y-94700500D01*
X119197872Y-94700499D01*
X119257483Y-94694091D01*
X119257485Y-94694090D01*
X119257487Y-94694090D01*
X119265031Y-94692308D01*
X119265377Y-94693775D01*
X119326342Y-94689408D01*
X119341378Y-94693822D01*
X119342511Y-94694089D01*
X119342517Y-94694091D01*
X119402127Y-94700500D01*
X119997872Y-94700499D01*
X120057483Y-94694091D01*
X120192331Y-94643796D01*
X120307546Y-94557546D01*
X120393796Y-94442331D01*
X120444091Y-94307483D01*
X120450500Y-94247873D01*
X120450499Y-92152128D01*
X120444091Y-92092517D01*
X120408318Y-91996604D01*
X120400500Y-91953271D01*
X120400500Y-90925316D01*
X120409939Y-90877864D01*
X120469735Y-90733501D01*
X120469737Y-90733497D01*
X120500500Y-90578842D01*
X120500500Y-90421158D01*
X120500500Y-90421155D01*
X120500499Y-90421153D01*
X120491888Y-90377864D01*
X120469737Y-90266503D01*
X120409939Y-90122136D01*
X120400500Y-90074684D01*
X120400500Y-88214965D01*
X120420185Y-88147926D01*
X120436819Y-88127284D01*
X122277284Y-86286819D01*
X122338607Y-86253334D01*
X122364965Y-86250500D01*
X128200902Y-86250500D01*
X128267941Y-86270185D01*
X128313696Y-86322989D01*
X128323640Y-86392147D01*
X128294615Y-86455703D01*
X128288583Y-86462181D01*
X124769481Y-89981282D01*
X124769477Y-89981287D01*
X124719824Y-90067291D01*
X124719823Y-90067290D01*
X124690424Y-90118211D01*
X124690423Y-90118215D01*
X124649499Y-90270943D01*
X124649499Y-90270945D01*
X124649499Y-90439046D01*
X124649500Y-90439059D01*
X124649500Y-98599903D01*
X124629815Y-98666942D01*
X124613181Y-98687584D01*
X123336584Y-99964181D01*
X123275261Y-99997666D01*
X123248903Y-100000500D01*
X120618046Y-100000500D01*
X120551007Y-99980815D01*
X120505252Y-99928011D01*
X120496429Y-99900691D01*
X120469738Y-99766510D01*
X120469737Y-99766503D01*
X120409939Y-99622136D01*
X120400500Y-99574684D01*
X120400500Y-98846728D01*
X120408318Y-98803394D01*
X120444091Y-98707483D01*
X120450500Y-98647873D01*
X120450499Y-96552128D01*
X120444091Y-96492517D01*
X120393796Y-96357669D01*
X120393795Y-96357668D01*
X120393793Y-96357664D01*
X120307547Y-96242455D01*
X120307544Y-96242452D01*
X120192335Y-96156206D01*
X120192328Y-96156202D01*
X120057486Y-96105910D01*
X120057485Y-96105909D01*
X120057483Y-96105909D01*
X119997873Y-96099500D01*
X119997863Y-96099500D01*
X119402129Y-96099500D01*
X119402123Y-96099501D01*
X119342520Y-96105908D01*
X119334974Y-96107692D01*
X119334628Y-96106230D01*
X119273622Y-96110584D01*
X119258600Y-96106172D01*
X119257482Y-96105908D01*
X119197882Y-96099501D01*
X119197873Y-96099500D01*
X119197863Y-96099500D01*
X118602129Y-96099500D01*
X118602123Y-96099501D01*
X118542520Y-96105908D01*
X118534974Y-96107692D01*
X118534628Y-96106230D01*
X118473622Y-96110584D01*
X118458600Y-96106172D01*
X118457482Y-96105908D01*
X118397882Y-96099501D01*
X118397873Y-96099500D01*
X118397863Y-96099500D01*
X117802129Y-96099500D01*
X117802123Y-96099501D01*
X117742520Y-96105908D01*
X117734974Y-96107692D01*
X117734628Y-96106230D01*
X117673622Y-96110584D01*
X117658600Y-96106172D01*
X117657482Y-96105908D01*
X117597882Y-96099501D01*
X117597873Y-96099500D01*
X117597863Y-96099500D01*
X117002129Y-96099500D01*
X117002123Y-96099501D01*
X116942520Y-96105908D01*
X116934974Y-96107692D01*
X116934628Y-96106230D01*
X116873622Y-96110584D01*
X116858600Y-96106172D01*
X116857482Y-96105908D01*
X116797882Y-96099501D01*
X116797873Y-96099500D01*
X116797863Y-96099500D01*
X116202129Y-96099500D01*
X116202123Y-96099501D01*
X116142520Y-96105908D01*
X116134974Y-96107692D01*
X116134628Y-96106230D01*
X116073622Y-96110584D01*
X116058600Y-96106172D01*
X116057482Y-96105908D01*
X115997882Y-96099501D01*
X115997873Y-96099500D01*
X115997863Y-96099500D01*
X115402129Y-96099500D01*
X115402123Y-96099501D01*
X115342520Y-96105908D01*
X115334974Y-96107692D01*
X115334628Y-96106230D01*
X115273622Y-96110584D01*
X115258600Y-96106172D01*
X115257482Y-96105908D01*
X115197882Y-96099501D01*
X115197873Y-96099500D01*
X115197863Y-96099500D01*
X114602129Y-96099500D01*
X114602123Y-96099501D01*
X114542520Y-96105908D01*
X114534974Y-96107692D01*
X114534628Y-96106230D01*
X114473622Y-96110584D01*
X114458600Y-96106172D01*
X114457482Y-96105908D01*
X114397882Y-96099501D01*
X114397873Y-96099500D01*
X114397863Y-96099500D01*
X113802129Y-96099500D01*
X113802123Y-96099501D01*
X113742520Y-96105908D01*
X113734974Y-96107692D01*
X113734628Y-96106230D01*
X113673622Y-96110584D01*
X113658600Y-96106172D01*
X113657482Y-96105908D01*
X113597882Y-96099501D01*
X113597873Y-96099500D01*
X113597863Y-96099500D01*
X113002129Y-96099500D01*
X113002123Y-96099501D01*
X112942520Y-96105908D01*
X112934974Y-96107692D01*
X112934628Y-96106230D01*
X112873622Y-96110584D01*
X112858600Y-96106172D01*
X112857482Y-96105908D01*
X112797882Y-96099501D01*
X112797873Y-96099500D01*
X112797863Y-96099500D01*
X112202129Y-96099500D01*
X112202123Y-96099501D01*
X112142520Y-96105908D01*
X112134974Y-96107692D01*
X112134628Y-96106230D01*
X112073622Y-96110584D01*
X112058600Y-96106172D01*
X112057482Y-96105908D01*
X111997882Y-96099501D01*
X111997873Y-96099500D01*
X111997863Y-96099500D01*
X111402129Y-96099500D01*
X111402123Y-96099501D01*
X111342520Y-96105908D01*
X111334974Y-96107692D01*
X111334628Y-96106230D01*
X111273622Y-96110584D01*
X111258600Y-96106172D01*
X111257482Y-96105908D01*
X111197882Y-96099501D01*
X111197873Y-96099500D01*
X111197863Y-96099500D01*
X110602129Y-96099500D01*
X110602123Y-96099501D01*
X110542520Y-96105908D01*
X110534974Y-96107692D01*
X110534628Y-96106230D01*
X110473622Y-96110584D01*
X110458600Y-96106172D01*
X110457482Y-96105908D01*
X110397882Y-96099501D01*
X110397873Y-96099500D01*
X110397863Y-96099500D01*
X109802129Y-96099500D01*
X109802123Y-96099501D01*
X109742520Y-96105908D01*
X109734974Y-96107692D01*
X109734628Y-96106230D01*
X109673622Y-96110584D01*
X109658600Y-96106172D01*
X109657482Y-96105908D01*
X109597882Y-96099501D01*
X109597873Y-96099500D01*
X109597863Y-96099500D01*
X109002129Y-96099500D01*
X109002123Y-96099501D01*
X108942520Y-96105908D01*
X108934974Y-96107692D01*
X108934628Y-96106230D01*
X108873622Y-96110584D01*
X108858600Y-96106172D01*
X108857482Y-96105908D01*
X108797882Y-96099501D01*
X108797873Y-96099500D01*
X108797863Y-96099500D01*
X108202129Y-96099500D01*
X108202123Y-96099501D01*
X108142520Y-96105908D01*
X108134974Y-96107692D01*
X108134628Y-96106230D01*
X108073622Y-96110584D01*
X108058600Y-96106172D01*
X108057482Y-96105908D01*
X107997882Y-96099501D01*
X107997873Y-96099500D01*
X107997863Y-96099500D01*
X107402129Y-96099500D01*
X107402123Y-96099501D01*
X107342520Y-96105908D01*
X107334974Y-96107692D01*
X107334628Y-96106230D01*
X107273622Y-96110584D01*
X107258600Y-96106172D01*
X107257482Y-96105908D01*
X107197882Y-96099501D01*
X107197873Y-96099500D01*
X107197863Y-96099500D01*
X106602129Y-96099500D01*
X106602123Y-96099501D01*
X106542520Y-96105908D01*
X106534974Y-96107692D01*
X106534628Y-96106230D01*
X106473622Y-96110584D01*
X106458600Y-96106172D01*
X106457482Y-96105908D01*
X106397882Y-96099501D01*
X106397873Y-96099500D01*
X106397863Y-96099500D01*
X105802129Y-96099500D01*
X105802123Y-96099501D01*
X105742520Y-96105908D01*
X105734974Y-96107692D01*
X105734628Y-96106230D01*
X105673622Y-96110584D01*
X105658600Y-96106172D01*
X105657482Y-96105908D01*
X105597882Y-96099501D01*
X105597873Y-96099500D01*
X105597863Y-96099500D01*
X105002129Y-96099500D01*
X105002123Y-96099501D01*
X104942520Y-96105908D01*
X104934974Y-96107692D01*
X104934628Y-96106230D01*
X104873622Y-96110584D01*
X104858600Y-96106172D01*
X104857482Y-96105908D01*
X104797882Y-96099501D01*
X104797873Y-96099500D01*
X104797863Y-96099500D01*
X104202129Y-96099500D01*
X104202123Y-96099501D01*
X104142516Y-96105908D01*
X104007671Y-96156202D01*
X104007664Y-96156206D01*
X103892455Y-96242452D01*
X103892452Y-96242455D01*
X103806206Y-96357664D01*
X103806202Y-96357671D01*
X103755908Y-96492517D01*
X103749501Y-96552116D01*
X103749501Y-96552123D01*
X103749500Y-96552135D01*
X103749500Y-98647870D01*
X103749501Y-98647876D01*
X103755908Y-98707483D01*
X103791682Y-98803395D01*
X103792697Y-98809024D01*
X103794477Y-98811793D01*
X103799500Y-98846728D01*
X103799500Y-99074684D01*
X103790061Y-99122136D01*
X103730264Y-99266498D01*
X103730261Y-99266510D01*
X103699500Y-99421153D01*
X103699500Y-99578846D01*
X103730261Y-99733489D01*
X103730264Y-99733501D01*
X103790602Y-99879172D01*
X103790609Y-99879185D01*
X103878601Y-100010873D01*
X103899479Y-100077550D01*
X103899499Y-100079764D01*
X103899499Y-100179054D01*
X103899498Y-100179054D01*
X103940424Y-100331789D01*
X103940425Y-100331790D01*
X103962033Y-100369215D01*
X103962034Y-100369217D01*
X104019475Y-100468709D01*
X104019481Y-100468717D01*
X104138349Y-100587585D01*
X104138354Y-100587589D01*
X107032284Y-103481520D01*
X107032286Y-103481521D01*
X107032290Y-103481524D01*
X107169209Y-103560573D01*
X107169216Y-103560577D01*
X107321943Y-103601501D01*
X107321945Y-103601501D01*
X107487654Y-103601501D01*
X107487670Y-103601500D01*
X119112331Y-103601500D01*
X119112347Y-103601501D01*
X119119943Y-103601501D01*
X119278054Y-103601501D01*
X119278057Y-103601501D01*
X119430785Y-103560577D01*
X119480904Y-103531639D01*
X119567716Y-103481520D01*
X119679520Y-103369716D01*
X119679521Y-103369713D01*
X119810417Y-103238818D01*
X119871741Y-103205334D01*
X119898098Y-103202500D01*
X124298783Y-103202500D01*
X124298787Y-103202501D01*
X124456902Y-103202500D01*
X124609629Y-103161577D01*
X124679636Y-103121158D01*
X124746560Y-103082520D01*
X124858364Y-102970716D01*
X124858364Y-102970714D01*
X124868568Y-102960511D01*
X124868572Y-102960505D01*
X127731520Y-100097556D01*
X127810577Y-99960624D01*
X127851501Y-99807897D01*
X127851500Y-99649782D01*
X127851500Y-91499097D01*
X127871185Y-91432058D01*
X127887819Y-91411416D01*
X128762416Y-90536819D01*
X128823739Y-90503334D01*
X128850097Y-90500500D01*
X129420234Y-90500500D01*
X129487273Y-90520185D01*
X129489125Y-90521398D01*
X129620814Y-90609390D01*
X129620827Y-90609397D01*
X129766498Y-90669735D01*
X129766503Y-90669737D01*
X129921153Y-90700499D01*
X129921156Y-90700500D01*
X129921158Y-90700500D01*
X130078844Y-90700500D01*
X130078845Y-90700499D01*
X130233497Y-90669737D01*
X130379179Y-90609394D01*
X130510289Y-90521789D01*
X130621789Y-90410289D01*
X130709394Y-90279179D01*
X130712806Y-90270943D01*
X130769735Y-90133501D01*
X130769737Y-90133497D01*
X130782906Y-90067292D01*
X130796231Y-90000308D01*
X130828616Y-89938397D01*
X130889332Y-89903823D01*
X130917848Y-89900500D01*
X132020234Y-89900500D01*
X132087273Y-89920185D01*
X132089125Y-89921398D01*
X132220814Y-90009390D01*
X132220827Y-90009397D01*
X132360595Y-90067290D01*
X132366503Y-90069737D01*
X132521153Y-90100499D01*
X132521156Y-90100500D01*
X132521158Y-90100500D01*
X132678844Y-90100500D01*
X132678845Y-90100499D01*
X132833497Y-90069737D01*
X132979179Y-90009394D01*
X133110289Y-89921789D01*
X133221789Y-89810289D01*
X133309394Y-89679179D01*
X133369737Y-89533497D01*
X133374505Y-89509524D01*
X133396231Y-89400308D01*
X133428616Y-89338397D01*
X133489332Y-89303823D01*
X133517848Y-89300500D01*
X134545065Y-89300500D01*
X134612104Y-89320185D01*
X134613909Y-89321366D01*
X134670821Y-89359394D01*
X134670823Y-89359395D01*
X134670827Y-89359397D01*
X134816498Y-89419735D01*
X134816503Y-89419737D01*
X134971153Y-89450499D01*
X134971156Y-89450500D01*
X134971158Y-89450500D01*
X135128844Y-89450500D01*
X135128845Y-89450499D01*
X135283497Y-89419737D01*
X135429179Y-89359394D01*
X135560289Y-89271789D01*
X135671789Y-89160289D01*
X135759394Y-89029179D01*
X135819737Y-88883497D01*
X135834477Y-88809397D01*
X135846231Y-88750308D01*
X135878616Y-88688397D01*
X135939332Y-88653823D01*
X135967848Y-88650500D01*
X136987060Y-88650500D01*
X137054099Y-88670185D01*
X137074742Y-88686820D01*
X137109707Y-88721786D01*
X137109711Y-88721789D01*
X137240814Y-88809390D01*
X137240827Y-88809397D01*
X137386498Y-88869735D01*
X137386503Y-88869737D01*
X137541153Y-88900499D01*
X137541156Y-88900500D01*
X137541158Y-88900500D01*
X137698844Y-88900500D01*
X137698845Y-88900499D01*
X137853497Y-88869737D01*
X137999179Y-88809394D01*
X138130289Y-88721789D01*
X138241789Y-88610289D01*
X138329394Y-88479179D01*
X138389737Y-88333497D01*
X138413315Y-88214965D01*
X138416231Y-88200308D01*
X138448616Y-88138397D01*
X138509332Y-88103823D01*
X138537848Y-88100500D01*
X139580234Y-88100500D01*
X139647273Y-88120185D01*
X139649125Y-88121398D01*
X139780814Y-88209390D01*
X139780827Y-88209397D01*
X139926498Y-88269735D01*
X139926503Y-88269737D01*
X140081153Y-88300499D01*
X140081156Y-88300500D01*
X140081158Y-88300500D01*
X140238844Y-88300500D01*
X140238845Y-88300499D01*
X140393497Y-88269737D01*
X140539179Y-88209394D01*
X140670289Y-88121789D01*
X140781789Y-88010289D01*
X140869394Y-87879179D01*
X140929737Y-87733497D01*
X140960500Y-87578842D01*
X140960500Y-87424500D01*
X140980185Y-87357461D01*
X141032989Y-87311706D01*
X141084500Y-87300500D01*
X142038573Y-87300500D01*
X142105612Y-87320185D01*
X142141675Y-87355610D01*
X142178207Y-87410284D01*
X142178213Y-87410292D01*
X142289707Y-87521786D01*
X142289711Y-87521789D01*
X142420814Y-87609390D01*
X142420827Y-87609397D01*
X142566498Y-87669735D01*
X142566503Y-87669737D01*
X142721153Y-87700499D01*
X142721156Y-87700500D01*
X142721158Y-87700500D01*
X142878844Y-87700500D01*
X142878845Y-87700499D01*
X143033497Y-87669737D01*
X143179179Y-87609394D01*
X143310289Y-87521789D01*
X143421789Y-87410289D01*
X143509394Y-87279179D01*
X143569737Y-87133497D01*
X143600500Y-86978842D01*
X143600500Y-86821158D01*
X143600500Y-86821155D01*
X143600499Y-86821153D01*
X143572192Y-86678846D01*
X143569737Y-86666503D01*
X143509534Y-86521158D01*
X143509397Y-86520827D01*
X143509395Y-86520823D01*
X143509394Y-86520821D01*
X143481346Y-86478844D01*
X143457657Y-86443391D01*
X143436779Y-86376714D01*
X143455263Y-86309334D01*
X143507242Y-86262643D01*
X143560759Y-86250500D01*
X144882351Y-86250500D01*
X144949390Y-86270185D01*
X144995145Y-86322989D01*
X145005089Y-86392147D01*
X145003969Y-86398690D01*
X144999500Y-86421158D01*
X144999500Y-86578846D01*
X145030261Y-86733489D01*
X145030264Y-86733501D01*
X145090602Y-86879172D01*
X145090609Y-86879185D01*
X145178210Y-87010288D01*
X145178213Y-87010292D01*
X145289707Y-87121786D01*
X145289711Y-87121789D01*
X145420814Y-87209390D01*
X145420827Y-87209397D01*
X145495090Y-87240157D01*
X145566503Y-87269737D01*
X145599691Y-87276338D01*
X145661600Y-87308721D01*
X145696176Y-87369436D01*
X145699500Y-87397955D01*
X145699500Y-103220234D01*
X145679815Y-103287273D01*
X145678602Y-103289125D01*
X145590609Y-103420814D01*
X145590602Y-103420827D01*
X145530264Y-103566498D01*
X145530261Y-103566510D01*
X145499500Y-103721153D01*
X145499500Y-103878846D01*
X145530261Y-104033489D01*
X145530264Y-104033501D01*
X145590602Y-104179172D01*
X145590609Y-104179185D01*
X145675752Y-104306609D01*
X145696630Y-104373286D01*
X145678146Y-104440666D01*
X145626167Y-104487357D01*
X145572650Y-104499500D01*
X100624500Y-104499500D01*
X100557461Y-104479815D01*
X100511706Y-104427011D01*
X100500500Y-104375500D01*
X100500500Y-95314751D01*
X101134500Y-95314751D01*
X101134500Y-95485248D01*
X101167758Y-95652449D01*
X101167760Y-95652457D01*
X101233002Y-95809964D01*
X101233007Y-95809974D01*
X101327721Y-95951723D01*
X101327724Y-95951727D01*
X101448272Y-96072275D01*
X101448276Y-96072278D01*
X101590025Y-96166992D01*
X101590029Y-96166994D01*
X101590032Y-96166996D01*
X101747543Y-96232240D01*
X101892218Y-96261017D01*
X101914751Y-96265499D01*
X101914755Y-96265500D01*
X101914756Y-96265500D01*
X102085245Y-96265500D01*
X102085246Y-96265499D01*
X102252457Y-96232240D01*
X102409968Y-96166996D01*
X102551724Y-96072278D01*
X102672278Y-95951724D01*
X102766996Y-95809968D01*
X102832240Y-95652457D01*
X102865500Y-95485244D01*
X102865500Y-95314756D01*
X102865500Y-95314753D01*
X102863421Y-95304301D01*
X121228400Y-95304301D01*
X121228400Y-95495698D01*
X121265736Y-95683397D01*
X121265739Y-95683409D01*
X121338975Y-95860218D01*
X121338982Y-95860231D01*
X121445308Y-96019358D01*
X121445311Y-96019362D01*
X121580637Y-96154688D01*
X121580641Y-96154691D01*
X121739768Y-96261017D01*
X121739781Y-96261024D01*
X121916590Y-96334260D01*
X121916595Y-96334262D01*
X122104301Y-96371599D01*
X122104304Y-96371600D01*
X122104306Y-96371600D01*
X122295696Y-96371600D01*
X122295697Y-96371599D01*
X122483405Y-96334262D01*
X122660225Y-96261021D01*
X122819359Y-96154691D01*
X122954691Y-96019359D01*
X123061021Y-95860225D01*
X123134262Y-95683405D01*
X123171600Y-95495694D01*
X123171600Y-95304306D01*
X123171600Y-95304303D01*
X123171599Y-95304301D01*
X123140418Y-95147543D01*
X123134262Y-95116595D01*
X123134260Y-95116590D01*
X123061024Y-94939781D01*
X123061017Y-94939768D01*
X122954691Y-94780641D01*
X122954688Y-94780637D01*
X122819362Y-94645311D01*
X122819358Y-94645308D01*
X122660231Y-94538982D01*
X122660218Y-94538975D01*
X122483409Y-94465739D01*
X122483397Y-94465736D01*
X122295697Y-94428400D01*
X122295694Y-94428400D01*
X122104306Y-94428400D01*
X122104303Y-94428400D01*
X121916602Y-94465736D01*
X121916590Y-94465739D01*
X121739781Y-94538975D01*
X121739768Y-94538982D01*
X121580641Y-94645308D01*
X121580637Y-94645311D01*
X121445311Y-94780637D01*
X121445308Y-94780641D01*
X121338982Y-94939768D01*
X121338975Y-94939781D01*
X121265739Y-95116590D01*
X121265736Y-95116602D01*
X121228400Y-95304301D01*
X102863421Y-95304301D01*
X102832241Y-95147550D01*
X102832240Y-95147543D01*
X102766996Y-94990032D01*
X102766994Y-94990029D01*
X102766992Y-94990025D01*
X102672278Y-94848276D01*
X102672275Y-94848272D01*
X102551727Y-94727724D01*
X102551723Y-94727721D01*
X102409974Y-94633007D01*
X102409964Y-94633002D01*
X102252457Y-94567760D01*
X102252449Y-94567758D01*
X102085248Y-94534500D01*
X102085244Y-94534500D01*
X101914756Y-94534500D01*
X101914751Y-94534500D01*
X101747550Y-94567758D01*
X101747542Y-94567760D01*
X101590035Y-94633002D01*
X101590025Y-94633007D01*
X101448276Y-94727721D01*
X101448272Y-94727724D01*
X101327724Y-94848272D01*
X101327721Y-94848276D01*
X101233007Y-94990025D01*
X101233002Y-94990035D01*
X101167760Y-95147542D01*
X101167758Y-95147550D01*
X101134500Y-95314751D01*
X100500500Y-95314751D01*
X100500500Y-67624500D01*
X100520185Y-67557461D01*
X100572989Y-67511706D01*
X100624500Y-67500500D01*
X199375500Y-67500500D01*
X199442539Y-67520185D01*
G37*
G04 #@! TD.AperFunction*
G04 #@! TA.AperFunction,Conductor*
G36*
X128872553Y-70220185D02*
G01*
X128905833Y-70251616D01*
X128969892Y-70339788D01*
X129120213Y-70490109D01*
X129292182Y-70615050D01*
X129300946Y-70619516D01*
X129351742Y-70667491D01*
X129368536Y-70735312D01*
X129345998Y-70801447D01*
X129300946Y-70840484D01*
X129292182Y-70844949D01*
X129120213Y-70969890D01*
X128969890Y-71120213D01*
X128844951Y-71292179D01*
X128748444Y-71481585D01*
X128682753Y-71683760D01*
X128649500Y-71893713D01*
X128649500Y-72106286D01*
X128682753Y-72316239D01*
X128748444Y-72518414D01*
X128844951Y-72707820D01*
X128969890Y-72879786D01*
X129120213Y-73030109D01*
X129292179Y-73155048D01*
X129292181Y-73155049D01*
X129292184Y-73155051D01*
X129481588Y-73251557D01*
X129683757Y-73317246D01*
X129893713Y-73350500D01*
X129893714Y-73350500D01*
X130106286Y-73350500D01*
X130106287Y-73350500D01*
X130316243Y-73317246D01*
X130518412Y-73251557D01*
X130707816Y-73155051D01*
X130745972Y-73127329D01*
X130879786Y-73030109D01*
X130879788Y-73030106D01*
X130879792Y-73030104D01*
X131030104Y-72879792D01*
X131030106Y-72879788D01*
X131030109Y-72879786D01*
X131155048Y-72707820D01*
X131155047Y-72707820D01*
X131155051Y-72707816D01*
X131159514Y-72699054D01*
X131207488Y-72648259D01*
X131275308Y-72631463D01*
X131341444Y-72653999D01*
X131380486Y-72699056D01*
X131384951Y-72707820D01*
X131509890Y-72879786D01*
X131660213Y-73030109D01*
X131832179Y-73155048D01*
X131832181Y-73155049D01*
X131832184Y-73155051D01*
X131930635Y-73205214D01*
X131951252Y-73215719D01*
X132002048Y-73263694D01*
X132018843Y-73331515D01*
X131996306Y-73397649D01*
X131982638Y-73413885D01*
X130933344Y-74463181D01*
X130872021Y-74496666D01*
X130845663Y-74499500D01*
X118240519Y-74499500D01*
X118173480Y-74479815D01*
X118127725Y-74427011D01*
X118117781Y-74357853D01*
X118146806Y-74294297D01*
X118152838Y-74287819D01*
X122203838Y-70236819D01*
X122265161Y-70203334D01*
X122291519Y-70200500D01*
X128805514Y-70200500D01*
X128872553Y-70220185D01*
G37*
G04 #@! TD.AperFunction*
G04 #@! TA.AperFunction,Conductor*
G36*
X132074075Y-69652993D02*
G01*
X132139901Y-69767007D01*
X132232993Y-69860099D01*
X132347007Y-69925925D01*
X132410590Y-69942962D01*
X131778282Y-70575269D01*
X131778282Y-70575270D01*
X131832452Y-70614626D01*
X131832451Y-70614626D01*
X131841495Y-70619234D01*
X131892292Y-70667208D01*
X131909087Y-70735029D01*
X131886550Y-70801164D01*
X131841499Y-70840202D01*
X131832182Y-70844949D01*
X131660213Y-70969890D01*
X131509890Y-71120213D01*
X131384949Y-71292182D01*
X131380484Y-71300946D01*
X131332509Y-71351742D01*
X131264688Y-71368536D01*
X131198553Y-71345998D01*
X131159516Y-71300946D01*
X131155050Y-71292182D01*
X131030109Y-71120213D01*
X130879786Y-70969890D01*
X130707820Y-70844951D01*
X130707115Y-70844591D01*
X130699054Y-70840485D01*
X130648259Y-70792512D01*
X130631463Y-70724692D01*
X130653999Y-70658556D01*
X130699054Y-70619515D01*
X130707816Y-70615051D01*
X130762572Y-70575269D01*
X130879786Y-70490109D01*
X130879788Y-70490106D01*
X130879792Y-70490104D01*
X131030104Y-70339792D01*
X131030106Y-70339788D01*
X131030109Y-70339786D01*
X131104918Y-70236819D01*
X131155051Y-70167816D01*
X131159793Y-70158508D01*
X131207763Y-70107711D01*
X131275583Y-70090911D01*
X131341719Y-70113445D01*
X131380763Y-70158500D01*
X131385373Y-70167547D01*
X131424728Y-70221716D01*
X132057037Y-69589408D01*
X132074075Y-69652993D01*
G37*
G04 #@! TD.AperFunction*
M02*
