G04 #@! TF.GenerationSoftware,KiCad,Pcbnew,9.0.1*
G04 #@! TF.CreationDate,2025-11-10T14:24:31+01:00*
G04 #@! TF.ProjectId,Debugmodul,44656275-676d-46f6-9475-6c2e6b696361,rev?*
G04 #@! TF.SameCoordinates,Original*
G04 #@! TF.FileFunction,Legend,Top*
G04 #@! TF.FilePolarity,Positive*
%FSLAX46Y46*%
G04 Gerber Fmt 4.6, Leading zero omitted, Abs format (unit mm)*
G04 Created by KiCad (PCBNEW 9.0.1) date 2025-11-10 14:24:31*
%MOMM*%
%LPD*%
G01*
G04 APERTURE LIST*
%ADD10C,0.254000*%
%ADD11C,0.200000*%
%ADD12C,0.100000*%
%ADD13R,1.700000X1.700000*%
%ADD14C,1.700000*%
%ADD15C,1.230000*%
%ADD16C,1.442200*%
%ADD17R,0.500000X2.000000*%
%ADD18C,0.800000*%
%ADD19C,1.200000*%
G04 APERTURE END LIST*
D10*
X122476667Y-89804318D02*
X122476667Y-90711461D01*
X122476667Y-90711461D02*
X122416190Y-90892889D01*
X122416190Y-90892889D02*
X122295238Y-91013842D01*
X122295238Y-91013842D02*
X122113809Y-91074318D01*
X122113809Y-91074318D02*
X121992857Y-91074318D01*
X122960476Y-89804318D02*
X123746667Y-89804318D01*
X123746667Y-89804318D02*
X123323333Y-90288127D01*
X123323333Y-90288127D02*
X123504762Y-90288127D01*
X123504762Y-90288127D02*
X123625714Y-90348603D01*
X123625714Y-90348603D02*
X123686190Y-90409080D01*
X123686190Y-90409080D02*
X123746667Y-90530032D01*
X123746667Y-90530032D02*
X123746667Y-90832413D01*
X123746667Y-90832413D02*
X123686190Y-90953365D01*
X123686190Y-90953365D02*
X123625714Y-91013842D01*
X123625714Y-91013842D02*
X123504762Y-91074318D01*
X123504762Y-91074318D02*
X123141905Y-91074318D01*
X123141905Y-91074318D02*
X123020952Y-91013842D01*
X123020952Y-91013842D02*
X122960476Y-90953365D01*
D11*
X120600000Y-97900000D02*
X120600000Y-98400000D01*
X120600000Y-98400000D02*
X123000000Y-98400000D01*
X123000000Y-98400000D02*
X123000000Y-96200000D01*
X123000000Y-94600000D02*
X123000000Y-92400000D01*
X123000000Y-92400000D02*
X120600000Y-92400000D01*
X120600000Y-92400000D02*
X120600000Y-92900000D01*
X103600000Y-92900000D02*
X103600000Y-92400000D01*
X103600000Y-92400000D02*
X101200000Y-92400000D01*
X101200000Y-92400000D02*
X101200000Y-98400000D01*
X101200000Y-98400000D02*
X103600000Y-98400000D01*
X103600000Y-98400000D02*
X103600000Y-97900000D01*
D12*
X104500000Y-91500000D02*
X104500000Y-91500000D01*
X104500000Y-91600000D02*
X104500000Y-91600000D01*
X104500000Y-91600000D02*
G75*
G02*
X104500000Y-91500000I0J50000D01*
G01*
X104500000Y-91500000D02*
G75*
G02*
X104500000Y-91600000I0J-50000D01*
G01*
%LPC*%
D13*
X178260000Y-72000000D03*
D14*
X178260000Y-69460000D03*
X175720000Y-72000000D03*
X175720000Y-69460000D03*
X173180000Y-72000000D03*
X173180000Y-69460000D03*
X170640000Y-72000000D03*
X170640000Y-69460000D03*
X168100000Y-72000000D03*
X168100000Y-69460000D03*
X165560000Y-72000000D03*
X165560000Y-69460000D03*
X163020000Y-72000000D03*
X163020000Y-69460000D03*
X160480000Y-72000000D03*
X160480000Y-69460000D03*
X157940000Y-72000000D03*
X157940000Y-69460000D03*
X155400000Y-72000000D03*
X155400000Y-69460000D03*
X152860000Y-72000000D03*
X152860000Y-69460000D03*
X150320000Y-72000000D03*
X150320000Y-69460000D03*
X147780000Y-72000000D03*
X147780000Y-69460000D03*
X145240000Y-72000000D03*
X145240000Y-69460000D03*
X142700000Y-72000000D03*
X142700000Y-69460000D03*
X140160000Y-72000000D03*
X140160000Y-69460000D03*
X137620000Y-72000000D03*
X137620000Y-69460000D03*
X135080000Y-72000000D03*
X135080000Y-69460000D03*
X132540000Y-72000000D03*
X132540000Y-69460000D03*
X130000000Y-72000000D03*
X130000000Y-69460000D03*
D15*
X102000000Y-95400000D03*
D16*
X122200000Y-95400000D03*
D17*
X104500000Y-93200000D03*
X104500000Y-97600000D03*
X105300000Y-93200000D03*
X105300000Y-97600000D03*
X106100000Y-93200000D03*
X106100000Y-97600000D03*
X106900000Y-93200000D03*
X106900000Y-97600000D03*
X107700000Y-93200000D03*
X107700000Y-97600000D03*
X108500000Y-93200000D03*
X108500000Y-97600000D03*
X109300000Y-93200000D03*
X109300000Y-97600000D03*
X110100000Y-93200000D03*
X110100000Y-97600000D03*
X110900000Y-93200000D03*
X110900000Y-97600000D03*
X111700000Y-93200000D03*
X111700000Y-97600000D03*
X112500000Y-93200000D03*
X112500000Y-97600000D03*
X113300000Y-93200000D03*
X113300000Y-97600000D03*
X114100000Y-93200000D03*
X114100000Y-97600000D03*
X114900000Y-93200000D03*
X114900000Y-97600000D03*
X115700000Y-93200000D03*
X115700000Y-97600000D03*
X116500000Y-93200000D03*
X116500000Y-97600000D03*
X117300000Y-93200000D03*
X117300000Y-97600000D03*
X118100000Y-93200000D03*
X118100000Y-97600000D03*
X118900000Y-93200000D03*
X118900000Y-97600000D03*
X119700000Y-93200000D03*
X119700000Y-97600000D03*
D18*
X102000000Y-95400000D03*
D19*
X122200000Y-95400000D03*
%LPD*%
M02*
