M48
; DRILL file {KiCad 9.0.1} date 2025-11-10T14:25:26+0100
; FORMAT={-:-/ absolute / metric / decimal}
; #@! TF.CreationDate,2025-11-10T14:25:26+01:00
; #@! TF.GenerationSoftware,Kicad,Pcbnew,9.0.1
; #@! TF.FileFunction,Plated,1,2,PTH
FMAT,2
METRIC
; #@! TA.AperFunction,Plated,PTH,ViaDrill
T1C0.300
; #@! TA.AperFunction,Plated,PTH,ComponentDrill
T2C1.000
%
G90
G05
T1
X104.5Y-90.0
X104.5Y-99.5
X105.3Y-90.5
X105.3Y-100.0
X106.1Y-90.0
X106.1Y-99.5
X106.9Y-100.0
X106.9Y-90.431
X107.7Y-99.5
X107.7Y-89.998
X108.5Y-100.0
X108.5Y-90.626
X109.3Y-90.0
X109.3Y-99.5
X110.1Y-90.5
X110.1Y-100.0
X110.9Y-90.0
X110.9Y-99.5
X111.7Y-90.5
X111.7Y-100.0
X112.5Y-90.0
X112.5Y-99.5
X113.3Y-90.5
X113.3Y-100.0
X114.1Y-90.0
X114.1Y-99.5
X114.9Y-90.5
X114.9Y-100.0
X115.7Y-90.0
X115.7Y-99.5
X116.5Y-90.5
X116.5Y-100.0
X117.3Y-90.0
X117.3Y-99.5
X118.1Y-90.5
X118.1Y-100.0
X118.9Y-90.0
X118.9Y-99.5
X119.7Y-90.5
X119.7Y-100.0
X130.0Y-89.9
X132.6Y-89.3
X135.05Y-88.65
X137.62Y-88.1
X140.16Y-87.5
X142.8Y-86.9
X145.8Y-86.5
X146.3Y-103.8
X147.8Y-86.6
X147.8Y-103.2
X150.3Y-86.4
X150.3Y-103.8
X152.9Y-86.4
X152.9Y-103.1
X155.4Y-86.4
X155.4Y-102.5
X157.9Y-86.4
X158.0Y-101.9
X160.5Y-86.4
X160.5Y-101.3
X163.1Y-86.4
X163.1Y-100.5
T2
X130.0Y-69.46
X130.0Y-72.0
X132.54Y-69.46
X132.54Y-72.0
X135.08Y-69.46
X135.08Y-72.0
X137.62Y-69.46
X137.62Y-72.0
X140.16Y-69.46
X140.16Y-72.0
X142.7Y-69.46
X142.7Y-72.0
X145.24Y-69.46
X145.24Y-72.0
X147.78Y-69.46
X147.78Y-72.0
X150.32Y-69.46
X150.32Y-72.0
X152.86Y-69.46
X152.86Y-72.0
X155.4Y-69.46
X155.4Y-72.0
X157.94Y-69.46
X157.94Y-72.0
X160.48Y-69.46
X160.48Y-72.0
X163.02Y-69.46
X163.02Y-72.0
X165.56Y-69.46
X165.56Y-72.0
X168.1Y-69.46
X168.1Y-72.0
X170.64Y-69.46
X170.64Y-72.0
X173.18Y-69.46
X173.18Y-72.0
X175.72Y-69.46
X175.72Y-72.0
X178.26Y-69.46
X178.26Y-72.0
M30
