G04 #@! TF.GenerationSoftware,KiCad,Pcbnew,9.0.1*
G04 #@! TF.CreationDate,2025-11-10T14:24:31+01:00*
G04 #@! TF.ProjectId,Debugmodul,44656275-676d-46f6-9475-6c2e6b696361,rev?*
G04 #@! TF.SameCoordinates,Original*
G04 #@! TF.FileFunction,Paste,Bot*
G04 #@! TF.FilePolarity,Positive*
%FSLAX46Y46*%
G04 Gerber Fmt 4.6, Leading zero omitted, Abs format (unit mm)*
G04 Created by KiCad (PCBNEW 9.0.1) date 2025-11-10 14:24:31*
%MOMM*%
%LPD*%
G01*
G04 APERTURE LIST*
%ADD10R,0.500000X2.400000*%
G04 APERTURE END LIST*
D10*
X104500000Y-93000000D03*
X104500000Y-97800000D03*
X105300000Y-93000000D03*
X105300000Y-97800000D03*
X106100000Y-93000000D03*
X106100000Y-97800000D03*
X106900000Y-93000000D03*
X106900000Y-97800000D03*
X107700000Y-93000000D03*
X107700000Y-97800000D03*
X108500000Y-93000000D03*
X108500000Y-97800000D03*
X109300000Y-93000000D03*
X109300000Y-97800000D03*
X110100000Y-93000000D03*
X110100000Y-97800000D03*
X110900000Y-93000000D03*
X110900000Y-97800000D03*
X111700000Y-93000000D03*
X111700000Y-97800000D03*
X112500000Y-93000000D03*
X112500000Y-97800000D03*
X113300000Y-93000000D03*
X113300000Y-97800000D03*
X114100000Y-93000000D03*
X114100000Y-97800000D03*
X114900000Y-93000000D03*
X114900000Y-97800000D03*
X115700000Y-93000000D03*
X115700000Y-97800000D03*
X116500000Y-93000000D03*
X116500000Y-97800000D03*
X117300000Y-93000000D03*
X117300000Y-97800000D03*
X118100000Y-93000000D03*
X118100000Y-97800000D03*
X118900000Y-93000000D03*
X118900000Y-97800000D03*
X119700000Y-93000000D03*
X119700000Y-97800000D03*
M02*
