G04 #@! TF.GenerationSoftware,KiCad,Pcbnew,9.0.1*
G04 #@! TF.CreationDate,2025-05-26T13:20:38+02:00*
G04 #@! TF.ProjectId,ESP Interface Board,45535020-496e-4746-9572-666163652042,rev?*
G04 #@! TF.SameCoordinates,Original*
G04 #@! TF.FileFunction,Copper,L2,Bot*
G04 #@! TF.FilePolarity,Positive*
%FSLAX46Y46*%
G04 Gerber Fmt 4.6, Leading zero omitted, Abs format (unit mm)*
G04 Created by KiCad (PCBNEW 9.0.1) date 2025-05-26 13:20:38*
%MOMM*%
%LPD*%
G01*
G04 APERTURE LIST*
G04 #@! TA.AperFunction,ComponentPad*
%ADD10R,1.950000X1.950000*%
G04 #@! TD*
G04 #@! TA.AperFunction,ComponentPad*
%ADD11C,1.950000*%
G04 #@! TD*
G04 #@! TA.AperFunction,ComponentPad*
%ADD12C,1.600000*%
G04 #@! TD*
G04 #@! TA.AperFunction,ComponentPad*
%ADD13O,1.600000X1.600000*%
G04 #@! TD*
G04 #@! TA.AperFunction,ComponentPad*
%ADD14R,1.700000X1.700000*%
G04 #@! TD*
G04 #@! TA.AperFunction,ComponentPad*
%ADD15C,1.700000*%
G04 #@! TD*
G04 #@! TA.AperFunction,ComponentPad*
%ADD16R,1.800000X1.800000*%
G04 #@! TD*
G04 #@! TA.AperFunction,ComponentPad*
%ADD17C,1.800000*%
G04 #@! TD*
G04 #@! TA.AperFunction,ComponentPad*
%ADD18R,1.446000X1.446000*%
G04 #@! TD*
G04 #@! TA.AperFunction,ComponentPad*
%ADD19C,1.446000*%
G04 #@! TD*
G04 #@! TA.AperFunction,ComponentPad*
%ADD20C,2.355000*%
G04 #@! TD*
G04 #@! TA.AperFunction,ComponentPad*
%ADD21R,1.665000X1.665000*%
G04 #@! TD*
G04 #@! TA.AperFunction,ComponentPad*
%ADD22C,1.665000*%
G04 #@! TD*
G04 #@! TA.AperFunction,ComponentPad*
%ADD23R,1.200000X1.200000*%
G04 #@! TD*
G04 #@! TA.AperFunction,ComponentPad*
%ADD24C,1.200000*%
G04 #@! TD*
G04 #@! TA.AperFunction,ViaPad*
%ADD25C,1.000000*%
G04 #@! TD*
G04 #@! TA.AperFunction,ViaPad*
%ADD26C,0.750000*%
G04 #@! TD*
G04 #@! TA.AperFunction,Conductor*
%ADD27C,0.400000*%
G04 #@! TD*
G04 #@! TA.AperFunction,Conductor*
%ADD28C,0.250000*%
G04 #@! TD*
G04 APERTURE END LIST*
D10*
X131060000Y-76220000D03*
D11*
X133600000Y-86380000D03*
X136140000Y-76220000D03*
X138680000Y-86380000D03*
X141220000Y-76220000D03*
X143760000Y-86380000D03*
D10*
X100580000Y-76220000D03*
D11*
X103120000Y-86380000D03*
X105660000Y-76220000D03*
X108200000Y-86380000D03*
X110740000Y-76220000D03*
X113280000Y-86380000D03*
D10*
X85340000Y-76220000D03*
D11*
X87880000Y-86380000D03*
X90420000Y-76220000D03*
X92960000Y-86380000D03*
X95500000Y-76220000D03*
X98040000Y-86380000D03*
D10*
X115820000Y-76220000D03*
D11*
X118360000Y-86380000D03*
X120900000Y-76220000D03*
X123440000Y-86380000D03*
X125980000Y-76220000D03*
X128520000Y-86380000D03*
D12*
X146812000Y-142240000D03*
D13*
X146812000Y-149860000D03*
D12*
X142240000Y-149860000D03*
D13*
X142240000Y-142240000D03*
D12*
X110236000Y-140462000D03*
D13*
X110236000Y-148082000D03*
D12*
X137668000Y-149860000D03*
D13*
X137668000Y-142240000D03*
X140970000Y-132080000D03*
D12*
X133350000Y-132080000D03*
D14*
X146812000Y-125984000D03*
D15*
X144272000Y-125984000D03*
X141732000Y-125984000D03*
X139192000Y-125984000D03*
X136652000Y-125984000D03*
X134112000Y-125984000D03*
D16*
X107696000Y-151892000D03*
D17*
X107696000Y-154432000D03*
D12*
X117347000Y-136652000D03*
X117347000Y-131652000D03*
X129031000Y-136652000D03*
X129031000Y-131652000D03*
X142240000Y-138176000D03*
X137240000Y-138176000D03*
X106172000Y-147280000D03*
X106172000Y-142280000D03*
D18*
X127506000Y-147576000D03*
D19*
X126491000Y-145796000D03*
X125476000Y-147576000D03*
X124461000Y-145796000D03*
X123441000Y-147576000D03*
X122426000Y-145796000D03*
X121411000Y-147576000D03*
X120396000Y-145796000D03*
D20*
X132051000Y-146686000D03*
X115851000Y-146686000D03*
D21*
X139700000Y-94996000D03*
D22*
X137160000Y-94996000D03*
X134620000Y-94996000D03*
X132080000Y-94996000D03*
X129540000Y-94996000D03*
X127000000Y-94996000D03*
X124460000Y-94996000D03*
X121920000Y-94996000D03*
X119380000Y-94996000D03*
X116840000Y-94996000D03*
X114300000Y-94996000D03*
X111760000Y-94996000D03*
X109220000Y-94996000D03*
X106680000Y-94996000D03*
X104140000Y-94996000D03*
X101600000Y-94996000D03*
X99060000Y-94996000D03*
X96520000Y-94996000D03*
X93980000Y-94996000D03*
X93980000Y-120396000D03*
X96520000Y-120396000D03*
X99060000Y-120396000D03*
X101600000Y-120396000D03*
X104140000Y-120396000D03*
X106680000Y-120396000D03*
X109220000Y-120396000D03*
X111760000Y-120396000D03*
X114300000Y-120396000D03*
X116840000Y-120396000D03*
X119380000Y-120396000D03*
X121920000Y-120396000D03*
X124460000Y-120396000D03*
X127000000Y-120396000D03*
X129540000Y-120396000D03*
X132080000Y-120396000D03*
X134620000Y-120396000D03*
X137160000Y-120396000D03*
X139700000Y-120396000D03*
D23*
X121919000Y-135208000D03*
D24*
X123189000Y-133938000D03*
X124459000Y-135208000D03*
D25*
X90000000Y-134500000D03*
X106500000Y-133500000D03*
X89500000Y-118000000D03*
X91000000Y-124000000D03*
X103500000Y-128500000D03*
X82804000Y-117856000D03*
X82804000Y-109728000D03*
X82804000Y-101600000D03*
X82804000Y-93472000D03*
X87884000Y-121920000D03*
X91948000Y-128016000D03*
X93980000Y-116840000D03*
X94488000Y-107188000D03*
X89408000Y-97028000D03*
X87884000Y-96012000D03*
X87884000Y-94488000D03*
X85852000Y-91440000D03*
X93980000Y-105156000D03*
D26*
X142748000Y-111252000D03*
X113284000Y-130048000D03*
X113284000Y-131572000D03*
D27*
X139700000Y-121412000D02*
X139700000Y-120396000D01*
X144272000Y-125984000D02*
X139700000Y-121412000D01*
D28*
X116221000Y-131721000D02*
X116221000Y-135526000D01*
X113000000Y-128500000D02*
X116221000Y-131721000D01*
X103500000Y-128500000D02*
X113000000Y-128500000D01*
X116221000Y-135526000D02*
X117347000Y-136652000D01*
D27*
X82804000Y-117856000D02*
X82804000Y-109728000D01*
X82804000Y-109728000D02*
X82804000Y-101600000D01*
X82804000Y-101600000D02*
X82804000Y-93472000D01*
X82804000Y-124460000D02*
X82804000Y-117856000D01*
X89408000Y-125476000D02*
X83820000Y-125476000D01*
X83820000Y-125476000D02*
X82804000Y-124460000D01*
X87884000Y-111252000D02*
X87884000Y-121920000D01*
X89408000Y-125476000D02*
X91948000Y-128016000D01*
X89408000Y-121412000D02*
X89408000Y-125476000D01*
X93980000Y-116840000D02*
X89408000Y-121412000D01*
X93980000Y-105156000D02*
X87884000Y-111252000D01*
D28*
X101600000Y-114300000D02*
X101600000Y-120396000D01*
X94488000Y-107188000D02*
X101600000Y-114300000D01*
D27*
X108763442Y-93762500D02*
X92673500Y-93762500D01*
X125198042Y-85004000D02*
X117521942Y-85004000D01*
X127950042Y-87756000D02*
X125198042Y-85004000D01*
X142384000Y-87756000D02*
X127950042Y-87756000D01*
X143760000Y-86380000D02*
X142384000Y-87756000D01*
X117521942Y-85004000D02*
X108763442Y-93762500D01*
X92673500Y-93762500D02*
X89408000Y-97028000D01*
X128520000Y-85848000D02*
X128520000Y-86380000D01*
X124968000Y-82296000D02*
X128520000Y-85848000D01*
X113284000Y-88392000D02*
X119380000Y-82296000D01*
X94996000Y-88392000D02*
X113284000Y-88392000D01*
X88900000Y-94488000D02*
X94996000Y-88392000D01*
X88900000Y-94996000D02*
X88900000Y-94488000D01*
X87884000Y-96012000D02*
X88900000Y-94996000D01*
X119380000Y-82296000D02*
X124968000Y-82296000D01*
X111904000Y-87756000D02*
X113280000Y-86380000D01*
X87884000Y-94488000D02*
X94616000Y-87756000D01*
X94616000Y-87756000D02*
X111904000Y-87756000D01*
D28*
X86868000Y-92472000D02*
X92960000Y-86380000D01*
X86868000Y-96520000D02*
X86868000Y-92472000D01*
X96520000Y-106172000D02*
X86868000Y-96520000D01*
X122936000Y-106172000D02*
X96520000Y-106172000D01*
X137160000Y-120396000D02*
X122936000Y-106172000D01*
D27*
X92288000Y-85004000D02*
X85852000Y-91440000D01*
X96664000Y-85004000D02*
X92288000Y-85004000D01*
X98040000Y-86380000D02*
X96664000Y-85004000D01*
X142748000Y-111252000D02*
X139700000Y-108204000D01*
X139700000Y-108204000D02*
X139700000Y-94996000D01*
X123440000Y-88396000D02*
X116840000Y-94996000D01*
X123440000Y-86380000D02*
X123440000Y-88396000D01*
D28*
X114364905Y-131128905D02*
X113284000Y-130048000D01*
X114364905Y-138111095D02*
X114364905Y-131128905D01*
X117856000Y-141224000D02*
X117477810Y-141224000D01*
X123402511Y-141224000D02*
X117856000Y-141224000D01*
X117477810Y-141224000D02*
X114364905Y-138111095D01*
X127540000Y-145361489D02*
X123402511Y-141224000D01*
X127540000Y-147542000D02*
X127540000Y-145361489D01*
X127506000Y-147576000D02*
X127540000Y-147542000D01*
X117348000Y-141732000D02*
X113284000Y-137668000D01*
X113284000Y-137668000D02*
X113284000Y-131572000D01*
X122427000Y-141732000D02*
X117348000Y-141732000D01*
X126491000Y-145796000D02*
X122427000Y-141732000D01*
D27*
X108780000Y-144672000D02*
X106172000Y-147280000D01*
X123337000Y-144672000D02*
X108780000Y-144672000D01*
X124461000Y-145796000D02*
X123337000Y-144672000D01*
G04 #@! TA.AperFunction,Conductor*
G36*
X133600324Y-124519685D02*
G01*
X133646079Y-124572489D01*
X133656023Y-124641647D01*
X133626998Y-124705203D01*
X133589580Y-124734485D01*
X133404179Y-124828951D01*
X133232213Y-124953890D01*
X133081890Y-125104213D01*
X132956951Y-125276179D01*
X132860444Y-125465585D01*
X132794753Y-125667760D01*
X132761500Y-125877713D01*
X132761500Y-126090286D01*
X132794753Y-126300239D01*
X132860444Y-126502414D01*
X132956951Y-126691820D01*
X133081890Y-126863786D01*
X133232213Y-127014109D01*
X133404179Y-127139048D01*
X133404181Y-127139049D01*
X133404184Y-127139051D01*
X133593588Y-127235557D01*
X133795757Y-127301246D01*
X134005713Y-127334500D01*
X134005714Y-127334500D01*
X134218286Y-127334500D01*
X134218287Y-127334500D01*
X134428243Y-127301246D01*
X134630412Y-127235557D01*
X134819816Y-127139051D01*
X134906138Y-127076335D01*
X134991786Y-127014109D01*
X134991788Y-127014106D01*
X134991792Y-127014104D01*
X135142104Y-126863792D01*
X135142106Y-126863788D01*
X135142109Y-126863786D01*
X135267048Y-126691820D01*
X135267047Y-126691820D01*
X135267051Y-126691816D01*
X135271514Y-126683054D01*
X135319488Y-126632259D01*
X135387308Y-126615463D01*
X135453444Y-126637999D01*
X135492486Y-126683056D01*
X135496951Y-126691820D01*
X135621890Y-126863786D01*
X135772213Y-127014109D01*
X135944179Y-127139048D01*
X135944181Y-127139049D01*
X135944184Y-127139051D01*
X136133588Y-127235557D01*
X136335757Y-127301246D01*
X136545713Y-127334500D01*
X136545714Y-127334500D01*
X136758286Y-127334500D01*
X136758287Y-127334500D01*
X136968243Y-127301246D01*
X137170412Y-127235557D01*
X137359816Y-127139051D01*
X137446138Y-127076335D01*
X137531786Y-127014109D01*
X137531788Y-127014106D01*
X137531792Y-127014104D01*
X137682104Y-126863792D01*
X137682106Y-126863788D01*
X137682109Y-126863786D01*
X137807048Y-126691820D01*
X137807047Y-126691820D01*
X137807051Y-126691816D01*
X137811514Y-126683054D01*
X137859488Y-126632259D01*
X137927308Y-126615463D01*
X137993444Y-126637999D01*
X138032486Y-126683056D01*
X138036951Y-126691820D01*
X138161890Y-126863786D01*
X138312213Y-127014109D01*
X138484179Y-127139048D01*
X138484181Y-127139049D01*
X138484184Y-127139051D01*
X138673588Y-127235557D01*
X138875757Y-127301246D01*
X139085713Y-127334500D01*
X139085714Y-127334500D01*
X139298286Y-127334500D01*
X139298287Y-127334500D01*
X139508243Y-127301246D01*
X139710412Y-127235557D01*
X139899816Y-127139051D01*
X139986138Y-127076335D01*
X140071786Y-127014109D01*
X140071788Y-127014106D01*
X140071792Y-127014104D01*
X140222104Y-126863792D01*
X140222106Y-126863788D01*
X140222109Y-126863786D01*
X140347048Y-126691820D01*
X140347047Y-126691820D01*
X140347051Y-126691816D01*
X140351514Y-126683054D01*
X140399488Y-126632259D01*
X140467308Y-126615463D01*
X140533444Y-126637999D01*
X140572486Y-126683056D01*
X140576951Y-126691820D01*
X140701890Y-126863786D01*
X140852213Y-127014109D01*
X141024179Y-127139048D01*
X141024181Y-127139049D01*
X141024184Y-127139051D01*
X141213588Y-127235557D01*
X141415757Y-127301246D01*
X141625713Y-127334500D01*
X141625714Y-127334500D01*
X141838286Y-127334500D01*
X141838287Y-127334500D01*
X142048243Y-127301246D01*
X142250412Y-127235557D01*
X142439816Y-127139051D01*
X142526138Y-127076335D01*
X142611786Y-127014109D01*
X142611788Y-127014106D01*
X142611792Y-127014104D01*
X142762104Y-126863792D01*
X142762106Y-126863788D01*
X142762109Y-126863786D01*
X142887048Y-126691820D01*
X142887047Y-126691820D01*
X142887051Y-126691816D01*
X142891514Y-126683054D01*
X142939488Y-126632259D01*
X143007308Y-126615463D01*
X143073444Y-126637999D01*
X143112486Y-126683056D01*
X143116951Y-126691820D01*
X143241890Y-126863786D01*
X143392213Y-127014109D01*
X143564179Y-127139048D01*
X143564181Y-127139049D01*
X143564184Y-127139051D01*
X143753588Y-127235557D01*
X143955757Y-127301246D01*
X144165713Y-127334500D01*
X144165714Y-127334500D01*
X144378286Y-127334500D01*
X144378287Y-127334500D01*
X144588243Y-127301246D01*
X144790412Y-127235557D01*
X144979816Y-127139051D01*
X145151792Y-127014104D01*
X145265329Y-126900566D01*
X145326648Y-126867084D01*
X145396340Y-126872068D01*
X145452274Y-126913939D01*
X145469189Y-126944917D01*
X145518202Y-127076328D01*
X145518206Y-127076335D01*
X145604452Y-127191544D01*
X145604455Y-127191547D01*
X145719664Y-127277793D01*
X145719671Y-127277797D01*
X145854517Y-127328091D01*
X145854516Y-127328091D01*
X145861444Y-127328835D01*
X145914127Y-127334500D01*
X147709872Y-127334499D01*
X147769483Y-127328091D01*
X147904331Y-127277796D01*
X148019546Y-127191546D01*
X148105796Y-127076331D01*
X148156091Y-126941483D01*
X148162500Y-126881873D01*
X148162499Y-125086128D01*
X148156091Y-125026517D01*
X148154810Y-125023083D01*
X148105797Y-124891671D01*
X148105793Y-124891664D01*
X148019547Y-124776455D01*
X148019544Y-124776452D01*
X147948497Y-124723266D01*
X147906626Y-124667332D01*
X147901642Y-124597641D01*
X147935128Y-124536318D01*
X147996451Y-124502834D01*
X148022808Y-124500000D01*
X149575500Y-124500000D01*
X149642539Y-124519685D01*
X149688294Y-124572489D01*
X149699500Y-124624000D01*
X149699500Y-156575500D01*
X149679815Y-156642539D01*
X149627011Y-156688294D01*
X149575500Y-156699500D01*
X81424500Y-156699500D01*
X81357461Y-156679815D01*
X81311706Y-156627011D01*
X81300500Y-156575500D01*
X81300500Y-150944135D01*
X106295500Y-150944135D01*
X106295500Y-152839870D01*
X106295501Y-152839876D01*
X106301908Y-152899483D01*
X106352202Y-153034328D01*
X106352206Y-153034335D01*
X106438452Y-153149544D01*
X106438455Y-153149547D01*
X106553664Y-153235793D01*
X106553671Y-153235797D01*
X106633580Y-153265601D01*
X106689514Y-153307472D01*
X106713931Y-153372936D01*
X106699080Y-153441209D01*
X106677929Y-153469463D01*
X106627756Y-153519636D01*
X106627752Y-153519641D01*
X106498187Y-153697974D01*
X106398104Y-153894393D01*
X106398103Y-153894396D01*
X106329985Y-154104047D01*
X106295500Y-154321778D01*
X106295500Y-154542221D01*
X106329985Y-154759952D01*
X106398103Y-154969603D01*
X106398104Y-154969606D01*
X106498187Y-155166025D01*
X106627752Y-155344358D01*
X106627756Y-155344363D01*
X106783636Y-155500243D01*
X106783641Y-155500247D01*
X106939192Y-155613260D01*
X106961978Y-155629815D01*
X107090375Y-155695237D01*
X107158393Y-155729895D01*
X107158396Y-155729896D01*
X107263221Y-155763955D01*
X107368049Y-155798015D01*
X107585778Y-155832500D01*
X107585779Y-155832500D01*
X107806221Y-155832500D01*
X107806222Y-155832500D01*
X108023951Y-155798015D01*
X108233606Y-155729895D01*
X108430022Y-155629815D01*
X108608365Y-155500242D01*
X108764242Y-155344365D01*
X108893815Y-155166022D01*
X108993895Y-154969606D01*
X109062015Y-154759951D01*
X109096500Y-154542222D01*
X109096500Y-154321778D01*
X109062015Y-154104049D01*
X108993895Y-153894394D01*
X108993895Y-153894393D01*
X108959237Y-153826375D01*
X108893815Y-153697978D01*
X108877260Y-153675192D01*
X108764247Y-153519641D01*
X108764243Y-153519636D01*
X108714071Y-153469464D01*
X108680586Y-153408141D01*
X108685570Y-153338449D01*
X108727442Y-153282516D01*
X108758420Y-153265601D01*
X108838326Y-153235798D01*
X108838326Y-153235797D01*
X108838331Y-153235796D01*
X108953546Y-153149546D01*
X109039796Y-153034331D01*
X109090091Y-152899483D01*
X109096500Y-152839873D01*
X109096499Y-150944128D01*
X109090091Y-150884517D01*
X109077950Y-150851966D01*
X109039797Y-150749671D01*
X109039793Y-150749664D01*
X108953547Y-150634455D01*
X108953544Y-150634452D01*
X108838335Y-150548206D01*
X108838328Y-150548202D01*
X108703482Y-150497908D01*
X108703483Y-150497908D01*
X108643883Y-150491501D01*
X108643881Y-150491500D01*
X108643873Y-150491500D01*
X108643864Y-150491500D01*
X106748129Y-150491500D01*
X106748123Y-150491501D01*
X106688516Y-150497908D01*
X106553671Y-150548202D01*
X106553664Y-150548206D01*
X106438455Y-150634452D01*
X106438452Y-150634455D01*
X106352206Y-150749664D01*
X106352202Y-150749671D01*
X106301908Y-150884517D01*
X106295501Y-150944116D01*
X106295501Y-150944123D01*
X106295500Y-150944135D01*
X81300500Y-150944135D01*
X81300500Y-149993065D01*
X115725500Y-149993065D01*
X115725500Y-150238934D01*
X115752227Y-150441939D01*
X115757591Y-150482677D01*
X115821222Y-150720152D01*
X115821225Y-150720162D01*
X115913990Y-150944116D01*
X115915306Y-150947292D01*
X116038233Y-151160208D01*
X116038235Y-151160211D01*
X116038236Y-151160212D01*
X116187897Y-151355254D01*
X116187903Y-151355261D01*
X116361738Y-151529096D01*
X116361744Y-151529101D01*
X116556792Y-151678767D01*
X116769708Y-151801694D01*
X116996847Y-151895778D01*
X117234323Y-151959409D01*
X117478073Y-151991500D01*
X117478080Y-151991500D01*
X117723920Y-151991500D01*
X117723927Y-151991500D01*
X117967677Y-151959409D01*
X118205153Y-151895778D01*
X118432292Y-151801694D01*
X118645208Y-151678767D01*
X118840256Y-151529101D01*
X119014101Y-151355256D01*
X119163767Y-151160208D01*
X119286694Y-150947292D01*
X119380778Y-150720153D01*
X119444409Y-150482677D01*
X119476500Y-150238927D01*
X119476500Y-149993073D01*
X119476499Y-149993065D01*
X128425500Y-149993065D01*
X128425500Y-150238934D01*
X128452227Y-150441939D01*
X128457591Y-150482677D01*
X128521222Y-150720152D01*
X128521225Y-150720162D01*
X128613990Y-150944116D01*
X128615306Y-150947292D01*
X128738233Y-151160208D01*
X128738235Y-151160211D01*
X128738236Y-151160212D01*
X128887897Y-151355254D01*
X128887903Y-151355261D01*
X129061738Y-151529096D01*
X129061744Y-151529101D01*
X129256792Y-151678767D01*
X129469708Y-151801694D01*
X129696847Y-151895778D01*
X129934323Y-151959409D01*
X130178073Y-151991500D01*
X130178080Y-151991500D01*
X130423920Y-151991500D01*
X130423927Y-151991500D01*
X130667677Y-151959409D01*
X130905153Y-151895778D01*
X131132292Y-151801694D01*
X131345208Y-151678767D01*
X131540256Y-151529101D01*
X131714101Y-151355256D01*
X131863767Y-151160208D01*
X131986694Y-150947292D01*
X132080778Y-150720153D01*
X132144409Y-150482677D01*
X132176500Y-150238927D01*
X132176500Y-149993073D01*
X132145505Y-149757648D01*
X136367500Y-149757648D01*
X136367500Y-149962351D01*
X136399522Y-150164534D01*
X136462781Y-150359223D01*
X136555715Y-150541613D01*
X136676028Y-150707213D01*
X136820786Y-150851971D01*
X136951977Y-150947285D01*
X136986390Y-150972287D01*
X137102607Y-151031503D01*
X137168776Y-151065218D01*
X137168778Y-151065218D01*
X137168781Y-151065220D01*
X137273137Y-151099127D01*
X137363465Y-151128477D01*
X137464557Y-151144488D01*
X137565648Y-151160500D01*
X137565649Y-151160500D01*
X137770351Y-151160500D01*
X137770352Y-151160500D01*
X137972534Y-151128477D01*
X138167219Y-151065220D01*
X138349610Y-150972287D01*
X138470416Y-150884517D01*
X138515213Y-150851971D01*
X138515215Y-150851968D01*
X138515219Y-150851966D01*
X138659966Y-150707219D01*
X138659968Y-150707215D01*
X138659971Y-150707213D01*
X138712834Y-150634452D01*
X138780287Y-150541610D01*
X138873220Y-150359219D01*
X138936477Y-150164534D01*
X138968500Y-149962352D01*
X138968500Y-149757648D01*
X140939500Y-149757648D01*
X140939500Y-149962351D01*
X140971522Y-150164534D01*
X141034781Y-150359223D01*
X141127715Y-150541613D01*
X141248028Y-150707213D01*
X141392786Y-150851971D01*
X141523977Y-150947285D01*
X141558390Y-150972287D01*
X141674607Y-151031503D01*
X141740776Y-151065218D01*
X141740778Y-151065218D01*
X141740781Y-151065220D01*
X141845137Y-151099127D01*
X141935465Y-151128477D01*
X142036557Y-151144488D01*
X142137648Y-151160500D01*
X142137649Y-151160500D01*
X142342351Y-151160500D01*
X142342352Y-151160500D01*
X142544534Y-151128477D01*
X142739219Y-151065220D01*
X142921610Y-150972287D01*
X143042416Y-150884517D01*
X143087213Y-150851971D01*
X143087215Y-150851968D01*
X143087219Y-150851966D01*
X143231966Y-150707219D01*
X143231968Y-150707215D01*
X143231971Y-150707213D01*
X143284834Y-150634452D01*
X143352287Y-150541610D01*
X143445220Y-150359219D01*
X143508477Y-150164534D01*
X143540500Y-149962352D01*
X143540500Y-149757648D01*
X145511500Y-149757648D01*
X145511500Y-149962351D01*
X145543522Y-150164534D01*
X145606781Y-150359223D01*
X145699715Y-150541613D01*
X145820028Y-150707213D01*
X145964786Y-150851971D01*
X146095977Y-150947285D01*
X146130390Y-150972287D01*
X146246607Y-151031503D01*
X146312776Y-151065218D01*
X146312778Y-151065218D01*
X146312781Y-151065220D01*
X146417137Y-151099127D01*
X146507465Y-151128477D01*
X146608557Y-151144488D01*
X146709648Y-151160500D01*
X146709649Y-151160500D01*
X146914351Y-151160500D01*
X146914352Y-151160500D01*
X147116534Y-151128477D01*
X147311219Y-151065220D01*
X147493610Y-150972287D01*
X147614416Y-150884517D01*
X147659213Y-150851971D01*
X147659215Y-150851968D01*
X147659219Y-150851966D01*
X147803966Y-150707219D01*
X147803968Y-150707215D01*
X147803971Y-150707213D01*
X147856834Y-150634452D01*
X147924287Y-150541610D01*
X148017220Y-150359219D01*
X148080477Y-150164534D01*
X148112500Y-149962352D01*
X148112500Y-149757648D01*
X148080477Y-149555466D01*
X148017220Y-149360781D01*
X148017218Y-149360778D01*
X148017218Y-149360776D01*
X147978457Y-149284705D01*
X147924287Y-149178390D01*
X147916556Y-149167749D01*
X147803971Y-149012786D01*
X147659213Y-148868028D01*
X147493613Y-148747715D01*
X147493612Y-148747714D01*
X147493610Y-148747713D01*
X147436653Y-148718691D01*
X147311223Y-148654781D01*
X147116534Y-148591522D01*
X146925489Y-148561264D01*
X146914352Y-148559500D01*
X146709648Y-148559500D01*
X146698511Y-148561264D01*
X146507465Y-148591522D01*
X146312776Y-148654781D01*
X146130386Y-148747715D01*
X145964786Y-148868028D01*
X145820028Y-149012786D01*
X145699715Y-149178386D01*
X145606781Y-149360776D01*
X145543522Y-149555465D01*
X145511500Y-149757648D01*
X143540500Y-149757648D01*
X143508477Y-149555466D01*
X143445220Y-149360781D01*
X143445218Y-149360778D01*
X143445218Y-149360776D01*
X143406457Y-149284705D01*
X143352287Y-149178390D01*
X143344556Y-149167749D01*
X143231971Y-149012786D01*
X143087213Y-148868028D01*
X142921613Y-148747715D01*
X142921612Y-148747714D01*
X142921610Y-148747713D01*
X142864653Y-148718691D01*
X142739223Y-148654781D01*
X142544534Y-148591522D01*
X142353489Y-148561264D01*
X142342352Y-148559500D01*
X142137648Y-148559500D01*
X142126511Y-148561264D01*
X141935465Y-148591522D01*
X141740776Y-148654781D01*
X141558386Y-148747715D01*
X141392786Y-148868028D01*
X141248028Y-149012786D01*
X141127715Y-149178386D01*
X141034781Y-149360776D01*
X140971522Y-149555465D01*
X140939500Y-149757648D01*
X138968500Y-149757648D01*
X138936477Y-149555466D01*
X138873220Y-149360781D01*
X138873218Y-149360778D01*
X138873218Y-149360776D01*
X138834457Y-149284705D01*
X138780287Y-149178390D01*
X138772556Y-149167749D01*
X138659971Y-149012786D01*
X138515213Y-148868028D01*
X138349613Y-148747715D01*
X138349612Y-148747714D01*
X138349610Y-148747713D01*
X138292653Y-148718691D01*
X138167223Y-148654781D01*
X137972534Y-148591522D01*
X137781489Y-148561264D01*
X137770352Y-148559500D01*
X137565648Y-148559500D01*
X137554511Y-148561264D01*
X137363465Y-148591522D01*
X137168776Y-148654781D01*
X136986386Y-148747715D01*
X136820786Y-148868028D01*
X136676028Y-149012786D01*
X136555715Y-149178386D01*
X136462781Y-149360776D01*
X136399522Y-149555465D01*
X136367500Y-149757648D01*
X132145505Y-149757648D01*
X132144409Y-149749323D01*
X132080778Y-149511847D01*
X132080512Y-149511206D01*
X132013936Y-149350477D01*
X131986694Y-149284708D01*
X131863767Y-149071792D01*
X131714101Y-148876744D01*
X131714096Y-148876738D01*
X131540261Y-148702903D01*
X131540254Y-148702897D01*
X131345212Y-148553236D01*
X131345211Y-148553235D01*
X131345208Y-148553233D01*
X131132292Y-148430306D01*
X131132285Y-148430303D01*
X130905162Y-148336225D01*
X130905155Y-148336223D01*
X130905153Y-148336222D01*
X130667677Y-148272591D01*
X130626939Y-148267227D01*
X130423934Y-148240500D01*
X130423927Y-148240500D01*
X130178073Y-148240500D01*
X130178065Y-148240500D01*
X129946059Y-148271045D01*
X129934323Y-148272591D01*
X129700329Y-148335289D01*
X129696847Y-148336222D01*
X129696837Y-148336225D01*
X129469714Y-148430303D01*
X129469705Y-148430307D01*
X129256787Y-148553236D01*
X129061745Y-148702897D01*
X129061738Y-148702903D01*
X128887903Y-148876738D01*
X128887897Y-148876745D01*
X128738236Y-149071787D01*
X128615307Y-149284705D01*
X128615303Y-149284714D01*
X128521225Y-149511837D01*
X128521222Y-149511847D01*
X128457592Y-149749320D01*
X128457590Y-149749331D01*
X128425500Y-149993065D01*
X119476499Y-149993065D01*
X119444409Y-149749323D01*
X119380778Y-149511847D01*
X119380512Y-149511206D01*
X119313936Y-149350477D01*
X119286694Y-149284708D01*
X119163767Y-149071792D01*
X119014101Y-148876744D01*
X119014096Y-148876738D01*
X118840261Y-148702903D01*
X118840254Y-148702897D01*
X118645212Y-148553236D01*
X118645211Y-148553235D01*
X118645208Y-148553233D01*
X118432292Y-148430306D01*
X118432285Y-148430303D01*
X118205162Y-148336225D01*
X118205155Y-148336223D01*
X118205153Y-148336222D01*
X117967677Y-148272591D01*
X117926939Y-148267227D01*
X117723934Y-148240500D01*
X117723927Y-148240500D01*
X117478073Y-148240500D01*
X117478065Y-148240500D01*
X117246059Y-148271045D01*
X117234323Y-148272591D01*
X117000329Y-148335289D01*
X116996847Y-148336222D01*
X116996837Y-148336225D01*
X116769714Y-148430303D01*
X116769705Y-148430307D01*
X116556787Y-148553236D01*
X116361745Y-148702897D01*
X116361738Y-148702903D01*
X116187903Y-148876738D01*
X116187897Y-148876745D01*
X116038236Y-149071787D01*
X115915307Y-149284705D01*
X115915303Y-149284714D01*
X115821225Y-149511837D01*
X115821222Y-149511847D01*
X115757592Y-149749320D01*
X115757590Y-149749331D01*
X115725500Y-149993065D01*
X81300500Y-149993065D01*
X81300500Y-149624000D01*
X81320185Y-149556961D01*
X81372989Y-149511206D01*
X81424500Y-149500000D01*
X93500000Y-149500000D01*
X96000000Y-147000000D01*
X96000000Y-142177682D01*
X104872000Y-142177682D01*
X104872000Y-142382317D01*
X104904009Y-142584417D01*
X104967244Y-142779031D01*
X105060141Y-142961350D01*
X105060147Y-142961359D01*
X105092523Y-143005921D01*
X105092524Y-143005922D01*
X105772000Y-142326446D01*
X105772000Y-142332661D01*
X105799259Y-142434394D01*
X105851920Y-142525606D01*
X105926394Y-142600080D01*
X106017606Y-142652741D01*
X106119339Y-142680000D01*
X106125553Y-142680000D01*
X105446076Y-143359474D01*
X105490650Y-143391859D01*
X105672968Y-143484755D01*
X105867582Y-143547990D01*
X106069683Y-143580000D01*
X106274317Y-143580000D01*
X106476417Y-143547990D01*
X106671031Y-143484755D01*
X106853349Y-143391859D01*
X106897921Y-143359474D01*
X106218447Y-142680000D01*
X106224661Y-142680000D01*
X106326394Y-142652741D01*
X106417606Y-142600080D01*
X106492080Y-142525606D01*
X106544741Y-142434394D01*
X106572000Y-142332661D01*
X106572000Y-142326448D01*
X107251474Y-143005922D01*
X107251474Y-143005921D01*
X107283859Y-142961349D01*
X107376755Y-142779031D01*
X107439990Y-142584417D01*
X107472000Y-142382317D01*
X107472000Y-142177682D01*
X107439990Y-141975582D01*
X107376755Y-141780968D01*
X107283857Y-141598646D01*
X107260938Y-141567101D01*
X107260937Y-141567100D01*
X107251475Y-141554077D01*
X107251474Y-141554076D01*
X106572000Y-142233551D01*
X106572000Y-142227339D01*
X106544741Y-142125606D01*
X106492080Y-142034394D01*
X106417606Y-141959920D01*
X106326394Y-141907259D01*
X106224661Y-141880000D01*
X106218446Y-141880000D01*
X106897922Y-141200524D01*
X106897921Y-141200523D01*
X106853359Y-141168147D01*
X106853350Y-141168141D01*
X106671031Y-141075244D01*
X106476417Y-141012009D01*
X106274317Y-140980000D01*
X106069683Y-140980000D01*
X105867582Y-141012009D01*
X105672968Y-141075244D01*
X105490644Y-141168143D01*
X105446077Y-141200523D01*
X105446077Y-141200524D01*
X106125554Y-141880000D01*
X106119339Y-141880000D01*
X106017606Y-141907259D01*
X105926394Y-141959920D01*
X105851920Y-142034394D01*
X105799259Y-142125606D01*
X105772000Y-142227339D01*
X105772000Y-142233553D01*
X105092524Y-141554077D01*
X105092523Y-141554077D01*
X105060143Y-141598644D01*
X104967244Y-141780968D01*
X104904009Y-141975582D01*
X104872000Y-142177682D01*
X96000000Y-142177682D01*
X96000000Y-140359682D01*
X108936000Y-140359682D01*
X108936000Y-140564317D01*
X108968009Y-140766417D01*
X109031244Y-140961031D01*
X109124141Y-141143350D01*
X109124147Y-141143359D01*
X109156523Y-141187921D01*
X109156524Y-141187922D01*
X109836000Y-140508446D01*
X109836000Y-140514661D01*
X109863259Y-140616394D01*
X109915920Y-140707606D01*
X109990394Y-140782080D01*
X110081606Y-140834741D01*
X110183339Y-140862000D01*
X110189553Y-140862000D01*
X109510076Y-141541474D01*
X109554650Y-141573859D01*
X109736968Y-141666755D01*
X109931582Y-141729990D01*
X110133683Y-141762000D01*
X110338317Y-141762000D01*
X110540417Y-141729990D01*
X110735031Y-141666755D01*
X110917349Y-141573859D01*
X110961921Y-141541474D01*
X110282447Y-140862000D01*
X110288661Y-140862000D01*
X110390394Y-140834741D01*
X110481606Y-140782080D01*
X110556080Y-140707606D01*
X110608741Y-140616394D01*
X110636000Y-140514661D01*
X110636000Y-140508447D01*
X111315474Y-141187921D01*
X111347859Y-141143349D01*
X111440755Y-140961031D01*
X111503990Y-140766417D01*
X111536000Y-140564317D01*
X111536000Y-140359682D01*
X111503990Y-140157582D01*
X111440755Y-139962968D01*
X111347859Y-139780650D01*
X111315474Y-139736077D01*
X111315474Y-139736076D01*
X110636000Y-140415551D01*
X110636000Y-140409339D01*
X110608741Y-140307606D01*
X110556080Y-140216394D01*
X110481606Y-140141920D01*
X110390394Y-140089259D01*
X110288661Y-140062000D01*
X110282446Y-140062000D01*
X110961922Y-139382524D01*
X110961921Y-139382523D01*
X110917359Y-139350147D01*
X110917350Y-139350141D01*
X110735031Y-139257244D01*
X110540417Y-139194009D01*
X110338317Y-139162000D01*
X110133683Y-139162000D01*
X109931582Y-139194009D01*
X109736968Y-139257244D01*
X109554644Y-139350143D01*
X109510077Y-139382523D01*
X109510077Y-139382524D01*
X110189554Y-140062000D01*
X110183339Y-140062000D01*
X110081606Y-140089259D01*
X109990394Y-140141920D01*
X109915920Y-140216394D01*
X109863259Y-140307606D01*
X109836000Y-140409339D01*
X109836000Y-140415553D01*
X109156524Y-139736077D01*
X109156523Y-139736077D01*
X109124143Y-139780644D01*
X109031244Y-139962968D01*
X108968009Y-140157582D01*
X108936000Y-140359682D01*
X96000000Y-140359682D01*
X96000000Y-138551362D01*
X96019685Y-138484323D01*
X96036319Y-138463681D01*
X97005614Y-137494386D01*
X98000000Y-136500000D01*
X98000000Y-127624000D01*
X98019685Y-127556961D01*
X98072489Y-127511206D01*
X98124000Y-127500000D01*
X102787218Y-127500000D01*
X102854257Y-127519685D01*
X102900012Y-127572489D01*
X102909956Y-127641647D01*
X102880931Y-127705203D01*
X102865880Y-127719855D01*
X102862217Y-127722860D01*
X102722863Y-127862214D01*
X102722860Y-127862218D01*
X102613371Y-128026079D01*
X102613364Y-128026092D01*
X102537950Y-128208160D01*
X102537947Y-128208170D01*
X102499500Y-128401456D01*
X102499500Y-128401459D01*
X102499500Y-128598541D01*
X102499500Y-128598543D01*
X102499499Y-128598543D01*
X102537947Y-128791829D01*
X102537950Y-128791839D01*
X102613364Y-128973907D01*
X102613371Y-128973920D01*
X102722860Y-129137781D01*
X102722863Y-129137785D01*
X102862214Y-129277136D01*
X102862218Y-129277139D01*
X103026079Y-129386628D01*
X103026092Y-129386635D01*
X103208160Y-129462049D01*
X103208165Y-129462051D01*
X103208169Y-129462051D01*
X103208170Y-129462052D01*
X103401456Y-129500500D01*
X103401459Y-129500500D01*
X103598543Y-129500500D01*
X103728582Y-129474632D01*
X103791835Y-129462051D01*
X103973914Y-129386632D01*
X104137782Y-129277139D01*
X104253103Y-129161817D01*
X104314424Y-129128334D01*
X104340783Y-129125500D01*
X112679987Y-129125500D01*
X112747026Y-129145185D01*
X112792781Y-129197989D01*
X112802725Y-129267147D01*
X112773700Y-129330703D01*
X112748878Y-129352602D01*
X112725900Y-129367954D01*
X112603957Y-129489897D01*
X112603954Y-129489901D01*
X112508145Y-129633288D01*
X112508138Y-129633301D01*
X112442146Y-129792621D01*
X112442143Y-129792633D01*
X112408500Y-129961766D01*
X112408500Y-130134233D01*
X112442143Y-130303366D01*
X112442146Y-130303378D01*
X112508138Y-130462698D01*
X112508145Y-130462711D01*
X112603954Y-130606098D01*
X112603957Y-130606102D01*
X112720174Y-130722319D01*
X112753659Y-130783642D01*
X112748675Y-130853334D01*
X112720174Y-130897681D01*
X112603957Y-131013897D01*
X112603954Y-131013901D01*
X112508145Y-131157288D01*
X112508138Y-131157301D01*
X112442146Y-131316621D01*
X112442143Y-131316633D01*
X112408500Y-131485766D01*
X112408500Y-131658233D01*
X112442143Y-131827366D01*
X112442146Y-131827378D01*
X112508138Y-131986698D01*
X112508145Y-131986711D01*
X112603954Y-132130098D01*
X112603956Y-132130101D01*
X112622179Y-132148323D01*
X112655666Y-132209645D01*
X112658500Y-132236006D01*
X112658500Y-137729610D01*
X112676966Y-137822446D01*
X112682537Y-137850452D01*
X112696347Y-137883792D01*
X112729688Y-137964286D01*
X112763915Y-138015509D01*
X112767802Y-138021326D01*
X112767803Y-138021328D01*
X112798141Y-138066733D01*
X112889586Y-138158178D01*
X112889608Y-138158198D01*
X116862139Y-142130729D01*
X116862142Y-142130733D01*
X116949267Y-142217858D01*
X117026190Y-142269256D01*
X117031990Y-142273132D01*
X117031993Y-142273134D01*
X117051710Y-142286309D01*
X117051712Y-142286310D01*
X117051715Y-142286312D01*
X117118396Y-142313931D01*
X117118398Y-142313933D01*
X117158640Y-142330601D01*
X117165548Y-142333463D01*
X117225971Y-142345481D01*
X117286393Y-142357500D01*
X117286394Y-142357500D01*
X122116548Y-142357500D01*
X122183587Y-142377185D01*
X122204229Y-142393819D01*
X123586205Y-143775795D01*
X123619690Y-143837118D01*
X123614706Y-143906810D01*
X123572834Y-143962743D01*
X123507370Y-143987160D01*
X123474332Y-143985093D01*
X123405996Y-143971500D01*
X123405994Y-143971500D01*
X123405993Y-143971500D01*
X108848994Y-143971500D01*
X108711006Y-143971500D01*
X108711004Y-143971500D01*
X108575677Y-143998418D01*
X108575667Y-143998421D01*
X108448192Y-144051222D01*
X108333454Y-144127887D01*
X106498147Y-145963194D01*
X106436824Y-145996679D01*
X106391068Y-145997986D01*
X106341969Y-145990209D01*
X106274352Y-145979500D01*
X106069648Y-145979500D01*
X106045329Y-145983351D01*
X105867465Y-146011522D01*
X105672776Y-146074781D01*
X105490386Y-146167715D01*
X105324786Y-146288028D01*
X105180028Y-146432786D01*
X105059715Y-146598386D01*
X104966781Y-146780776D01*
X104903522Y-146975465D01*
X104871500Y-147177648D01*
X104871500Y-147382351D01*
X104903522Y-147584534D01*
X104966781Y-147779223D01*
X105002455Y-147849236D01*
X105053947Y-147950294D01*
X105059715Y-147961613D01*
X105180028Y-148127213D01*
X105324786Y-148271971D01*
X105427882Y-148346873D01*
X105490390Y-148392287D01*
X105606607Y-148451503D01*
X105672776Y-148485218D01*
X105672778Y-148485218D01*
X105672781Y-148485220D01*
X105777137Y-148519127D01*
X105867465Y-148548477D01*
X105968557Y-148564488D01*
X106069648Y-148580500D01*
X106069649Y-148580500D01*
X106274351Y-148580500D01*
X106274352Y-148580500D01*
X106476534Y-148548477D01*
X106671219Y-148485220D01*
X106853610Y-148392287D01*
X106946590Y-148324732D01*
X107019213Y-148271971D01*
X107019215Y-148271968D01*
X107019219Y-148271966D01*
X107163966Y-148127219D01*
X107163968Y-148127215D01*
X107163971Y-148127213D01*
X107271182Y-147979648D01*
X108935500Y-147979648D01*
X108935500Y-148184352D01*
X108937056Y-148194177D01*
X108967522Y-148386534D01*
X109030781Y-148581223D01*
X109092778Y-148702897D01*
X109113108Y-148742797D01*
X109123715Y-148763613D01*
X109244028Y-148929213D01*
X109388786Y-149073971D01*
X109532504Y-149178386D01*
X109554390Y-149194287D01*
X109670607Y-149253503D01*
X109736776Y-149287218D01*
X109736778Y-149287218D01*
X109736781Y-149287220D01*
X109841137Y-149321127D01*
X109931465Y-149350477D01*
X110032557Y-149366488D01*
X110133648Y-149382500D01*
X110133649Y-149382500D01*
X110338351Y-149382500D01*
X110338352Y-149382500D01*
X110540534Y-149350477D01*
X110735219Y-149287220D01*
X110917610Y-149194287D01*
X111010590Y-149126732D01*
X111083213Y-149073971D01*
X111083215Y-149073968D01*
X111083219Y-149073966D01*
X111227966Y-148929219D01*
X111227968Y-148929215D01*
X111227971Y-148929213D01*
X111280732Y-148856590D01*
X111348287Y-148763610D01*
X111441220Y-148581219D01*
X111504477Y-148386534D01*
X111536500Y-148184352D01*
X111536500Y-147979648D01*
X111533644Y-147961614D01*
X111504477Y-147777465D01*
X111453391Y-147620239D01*
X111441220Y-147582781D01*
X111441218Y-147582778D01*
X111441218Y-147582776D01*
X111392368Y-147486904D01*
X111348287Y-147400390D01*
X111335181Y-147382351D01*
X111227971Y-147234786D01*
X111083213Y-147090028D01*
X110917613Y-146969715D01*
X110917612Y-146969714D01*
X110917610Y-146969713D01*
X110839398Y-146929862D01*
X110735223Y-146876781D01*
X110540534Y-146813522D01*
X110365995Y-146785878D01*
X110338352Y-146781500D01*
X110133648Y-146781500D01*
X110109329Y-146785351D01*
X109931465Y-146813522D01*
X109736776Y-146876781D01*
X109554386Y-146969715D01*
X109388786Y-147090028D01*
X109244028Y-147234786D01*
X109123715Y-147400386D01*
X109030781Y-147582776D01*
X108967522Y-147777465D01*
X108938356Y-147961614D01*
X108935500Y-147979648D01*
X107271182Y-147979648D01*
X107284284Y-147961614D01*
X107284285Y-147961613D01*
X107284287Y-147961610D01*
X107377220Y-147779219D01*
X107440477Y-147584534D01*
X107472500Y-147382352D01*
X107472500Y-147177648D01*
X107454013Y-147060929D01*
X107462967Y-146991636D01*
X107488802Y-146953853D01*
X109033838Y-145408819D01*
X109095161Y-145375334D01*
X109121519Y-145372500D01*
X114492587Y-145372500D01*
X114559626Y-145392185D01*
X114605381Y-145444989D01*
X114615325Y-145514147D01*
X114588291Y-145573343D01*
X114589177Y-145574023D01*
X114452807Y-145751744D01*
X114452796Y-145751760D01*
X114342822Y-145942239D01*
X114342817Y-145942250D01*
X114258641Y-146145468D01*
X114201710Y-146357937D01*
X114173001Y-146576008D01*
X114173000Y-146576024D01*
X114173000Y-146795975D01*
X114173001Y-146795991D01*
X114201710Y-147014062D01*
X114258641Y-147226531D01*
X114342817Y-147429749D01*
X114342822Y-147429760D01*
X114452796Y-147620239D01*
X114452807Y-147620255D01*
X114586704Y-147794754D01*
X114586710Y-147794761D01*
X114742238Y-147950289D01*
X114742245Y-147950295D01*
X114780499Y-147979648D01*
X114916753Y-148084199D01*
X114916760Y-148084203D01*
X115107239Y-148194177D01*
X115107244Y-148194179D01*
X115107247Y-148194181D01*
X115310467Y-148278358D01*
X115522936Y-148335289D01*
X115741018Y-148364000D01*
X115741025Y-148364000D01*
X115960975Y-148364000D01*
X115960982Y-148364000D01*
X116179064Y-148335289D01*
X116391533Y-148278358D01*
X116594753Y-148194181D01*
X116785247Y-148084199D01*
X116959756Y-147950294D01*
X117115294Y-147794756D01*
X117249199Y-147620247D01*
X117359181Y-147429753D01*
X117443358Y-147226533D01*
X117500289Y-147014064D01*
X117529000Y-146795982D01*
X117529000Y-146576018D01*
X117500289Y-146357936D01*
X117443358Y-146145467D01*
X117359181Y-145942247D01*
X117359179Y-145942244D01*
X117359177Y-145942239D01*
X117249203Y-145751760D01*
X117249199Y-145751753D01*
X117115295Y-145577245D01*
X117112823Y-145574023D01*
X117113850Y-145573234D01*
X117086780Y-145514863D01*
X117096320Y-145445648D01*
X117141766Y-145392578D01*
X117208689Y-145372502D01*
X117209413Y-145372500D01*
X119079140Y-145372500D01*
X119146179Y-145392185D01*
X119191934Y-145444989D01*
X119201878Y-145514147D01*
X119201613Y-145515898D01*
X119172500Y-145699708D01*
X119172500Y-145892291D01*
X119202627Y-146082505D01*
X119202627Y-146082508D01*
X119262136Y-146265658D01*
X119262137Y-146265661D01*
X119309650Y-146358909D01*
X119349569Y-146437254D01*
X119462767Y-146593057D01*
X119598943Y-146729233D01*
X119754746Y-146842431D01*
X119822160Y-146876780D01*
X119926338Y-146929862D01*
X119926341Y-146929863D01*
X120109492Y-146989372D01*
X120109493Y-146989372D01*
X120109496Y-146989373D01*
X120161679Y-146997638D01*
X120224813Y-147027567D01*
X120261745Y-147086878D01*
X120260747Y-147156741D01*
X120260212Y-147158429D01*
X120217627Y-147289491D01*
X120217627Y-147289494D01*
X120187500Y-147479708D01*
X120187500Y-147672291D01*
X120217627Y-147862505D01*
X120217627Y-147862508D01*
X120277136Y-148045658D01*
X120277137Y-148045661D01*
X120351071Y-148190763D01*
X120364569Y-148217254D01*
X120477767Y-148373057D01*
X120613943Y-148509233D01*
X120769746Y-148622431D01*
X120853907Y-148665313D01*
X120941338Y-148709862D01*
X120941341Y-148709863D01*
X121042700Y-148742796D01*
X121124496Y-148769373D01*
X121314708Y-148799500D01*
X121314709Y-148799500D01*
X121507291Y-148799500D01*
X121507292Y-148799500D01*
X121697504Y-148769373D01*
X121697507Y-148769372D01*
X121697508Y-148769372D01*
X121880658Y-148709863D01*
X121880661Y-148709862D01*
X121894327Y-148702899D01*
X122052254Y-148622431D01*
X122208057Y-148509233D01*
X122344233Y-148373057D01*
X122457431Y-148217254D01*
X122460187Y-148211843D01*
X122482994Y-148180451D01*
X123002944Y-147660501D01*
X123026326Y-147747764D01*
X123084911Y-147849236D01*
X123167764Y-147932089D01*
X123269236Y-147990674D01*
X123356497Y-148014055D01*
X122770202Y-148600348D01*
X122800008Y-148622004D01*
X122971526Y-148709397D01*
X123154612Y-148768886D01*
X123344743Y-148799000D01*
X123537257Y-148799000D01*
X123727387Y-148768886D01*
X123910473Y-148709397D01*
X124081994Y-148622002D01*
X124081998Y-148622000D01*
X124111795Y-148600349D01*
X124111796Y-148600348D01*
X123525503Y-148014055D01*
X123612764Y-147990674D01*
X123714236Y-147932089D01*
X123797089Y-147849236D01*
X123855674Y-147747764D01*
X123879055Y-147660502D01*
X124409316Y-148190763D01*
X124427358Y-148213647D01*
X124429565Y-148217248D01*
X124429568Y-148217252D01*
X124429569Y-148217254D01*
X124542767Y-148373057D01*
X124678943Y-148509233D01*
X124834746Y-148622431D01*
X124918907Y-148665313D01*
X125006338Y-148709862D01*
X125006341Y-148709863D01*
X125107700Y-148742796D01*
X125189496Y-148769373D01*
X125379708Y-148799500D01*
X125379709Y-148799500D01*
X125572291Y-148799500D01*
X125572292Y-148799500D01*
X125762504Y-148769373D01*
X125762507Y-148769372D01*
X125762508Y-148769372D01*
X125945658Y-148709863D01*
X125945661Y-148709862D01*
X125959327Y-148702899D01*
X126117254Y-148622431D01*
X126201443Y-148561263D01*
X126267248Y-148537784D01*
X126335302Y-148553609D01*
X126373594Y-148587271D01*
X126425452Y-148656544D01*
X126425455Y-148656547D01*
X126540664Y-148742793D01*
X126540671Y-148742797D01*
X126675517Y-148793091D01*
X126675516Y-148793091D01*
X126682444Y-148793835D01*
X126735127Y-148799500D01*
X128276872Y-148799499D01*
X128336483Y-148793091D01*
X128471331Y-148742796D01*
X128586546Y-148656546D01*
X128672796Y-148541331D01*
X128723091Y-148406483D01*
X128729500Y-148346873D01*
X128729499Y-146805128D01*
X128723091Y-146745517D01*
X128723091Y-146745516D01*
X128674521Y-146615292D01*
X128674520Y-146615291D01*
X128672798Y-146610674D01*
X128672793Y-146610664D01*
X128646861Y-146576024D01*
X130373000Y-146576024D01*
X130373000Y-146795975D01*
X130373001Y-146795991D01*
X130401710Y-147014062D01*
X130458641Y-147226531D01*
X130542817Y-147429749D01*
X130542822Y-147429760D01*
X130652796Y-147620239D01*
X130652807Y-147620255D01*
X130786704Y-147794754D01*
X130786710Y-147794761D01*
X130942238Y-147950289D01*
X130942245Y-147950295D01*
X130980499Y-147979648D01*
X131116753Y-148084199D01*
X131116760Y-148084203D01*
X131307239Y-148194177D01*
X131307244Y-148194179D01*
X131307247Y-148194181D01*
X131510467Y-148278358D01*
X131722936Y-148335289D01*
X131941018Y-148364000D01*
X131941025Y-148364000D01*
X132160975Y-148364000D01*
X132160982Y-148364000D01*
X132379064Y-148335289D01*
X132591533Y-148278358D01*
X132794753Y-148194181D01*
X132985247Y-148084199D01*
X133159756Y-147950294D01*
X133315294Y-147794756D01*
X133449199Y-147620247D01*
X133559181Y-147429753D01*
X133643358Y-147226533D01*
X133700289Y-147014064D01*
X133729000Y-146795982D01*
X133729000Y-146576018D01*
X133700289Y-146357936D01*
X133643358Y-146145467D01*
X133559181Y-145942247D01*
X133559179Y-145942244D01*
X133559177Y-145942239D01*
X133449203Y-145751760D01*
X133449199Y-145751753D01*
X133315294Y-145577244D01*
X133315289Y-145577238D01*
X133159761Y-145421710D01*
X133159754Y-145421704D01*
X132985255Y-145287807D01*
X132985253Y-145287805D01*
X132985247Y-145287801D01*
X132985242Y-145287798D01*
X132985239Y-145287796D01*
X132794760Y-145177822D01*
X132794749Y-145177817D01*
X132591531Y-145093641D01*
X132379062Y-145036710D01*
X132160991Y-145008001D01*
X132160988Y-145008000D01*
X132160982Y-145008000D01*
X131941018Y-145008000D01*
X131941012Y-145008000D01*
X131941008Y-145008001D01*
X131722937Y-145036710D01*
X131510468Y-145093641D01*
X131307250Y-145177817D01*
X131307239Y-145177822D01*
X131116760Y-145287796D01*
X131116744Y-145287807D01*
X130942245Y-145421704D01*
X130942238Y-145421710D01*
X130786710Y-145577238D01*
X130786704Y-145577245D01*
X130652807Y-145751744D01*
X130652796Y-145751760D01*
X130542822Y-145942239D01*
X130542817Y-145942250D01*
X130458641Y-146145468D01*
X130401710Y-146357937D01*
X130373001Y-146576008D01*
X130373000Y-146576024D01*
X128646861Y-146576024D01*
X128586547Y-146495455D01*
X128586544Y-146495452D01*
X128471335Y-146409206D01*
X128471328Y-146409202D01*
X128336482Y-146358908D01*
X128336484Y-146358908D01*
X128276244Y-146352432D01*
X128211693Y-146325694D01*
X128171845Y-146268301D01*
X128165500Y-146229143D01*
X128165500Y-145299885D01*
X128163098Y-145287807D01*
X128141463Y-145179037D01*
X128127652Y-145145696D01*
X128094312Y-145065203D01*
X128050037Y-144998943D01*
X128046517Y-144993675D01*
X128046515Y-144993671D01*
X128025856Y-144962753D01*
X127935637Y-144872534D01*
X127935606Y-144872505D01*
X125200749Y-142137648D01*
X136367500Y-142137648D01*
X136367500Y-142342351D01*
X136399522Y-142544534D01*
X136462781Y-142739223D01*
X136555715Y-142921613D01*
X136676028Y-143087213D01*
X136820786Y-143231971D01*
X136975749Y-143344556D01*
X136986390Y-143352287D01*
X137102607Y-143411503D01*
X137168776Y-143445218D01*
X137168778Y-143445218D01*
X137168781Y-143445220D01*
X137273137Y-143479127D01*
X137363465Y-143508477D01*
X137464557Y-143524488D01*
X137565648Y-143540500D01*
X137565649Y-143540500D01*
X137770351Y-143540500D01*
X137770352Y-143540500D01*
X137972534Y-143508477D01*
X138167219Y-143445220D01*
X138349610Y-143352287D01*
X138442590Y-143284732D01*
X138515213Y-143231971D01*
X138515215Y-143231968D01*
X138515219Y-143231966D01*
X138659966Y-143087219D01*
X138659968Y-143087215D01*
X138659971Y-143087213D01*
X138719032Y-143005921D01*
X138780287Y-142921610D01*
X138873220Y-142739219D01*
X138936477Y-142544534D01*
X138968500Y-142342352D01*
X138968500Y-142137648D01*
X140939500Y-142137648D01*
X140939500Y-142342351D01*
X140971522Y-142544534D01*
X141034781Y-142739223D01*
X141127715Y-142921613D01*
X141248028Y-143087213D01*
X141392786Y-143231971D01*
X141547749Y-143344556D01*
X141558390Y-143352287D01*
X141674607Y-143411503D01*
X141740776Y-143445218D01*
X141740778Y-143445218D01*
X141740781Y-143445220D01*
X141845137Y-143479127D01*
X141935465Y-143508477D01*
X142036557Y-143524488D01*
X142137648Y-143540500D01*
X142137649Y-143540500D01*
X142342351Y-143540500D01*
X142342352Y-143540500D01*
X142544534Y-143508477D01*
X142739219Y-143445220D01*
X142921610Y-143352287D01*
X143014590Y-143284732D01*
X143087213Y-143231971D01*
X143087215Y-143231968D01*
X143087219Y-143231966D01*
X143231966Y-143087219D01*
X143231968Y-143087215D01*
X143231971Y-143087213D01*
X143291032Y-143005921D01*
X143352287Y-142921610D01*
X143445220Y-142739219D01*
X143508477Y-142544534D01*
X143540500Y-142342352D01*
X143540500Y-142137648D01*
X145511500Y-142137648D01*
X145511500Y-142342351D01*
X145543522Y-142544534D01*
X145606781Y-142739223D01*
X145699715Y-142921613D01*
X145820028Y-143087213D01*
X145964786Y-143231971D01*
X146119749Y-143344556D01*
X146130390Y-143352287D01*
X146246607Y-143411503D01*
X146312776Y-143445218D01*
X146312778Y-143445218D01*
X146312781Y-143445220D01*
X146417137Y-143479127D01*
X146507465Y-143508477D01*
X146608557Y-143524488D01*
X146709648Y-143540500D01*
X146709649Y-143540500D01*
X146914351Y-143540500D01*
X146914352Y-143540500D01*
X147116534Y-143508477D01*
X147311219Y-143445220D01*
X147493610Y-143352287D01*
X147586590Y-143284732D01*
X147659213Y-143231971D01*
X147659215Y-143231968D01*
X147659219Y-143231966D01*
X147803966Y-143087219D01*
X147803968Y-143087215D01*
X147803971Y-143087213D01*
X147863032Y-143005921D01*
X147924287Y-142921610D01*
X148017220Y-142739219D01*
X148080477Y-142544534D01*
X148112500Y-142342352D01*
X148112500Y-142137648D01*
X148080477Y-141935466D01*
X148077546Y-141926446D01*
X148051127Y-141845137D01*
X148017220Y-141740781D01*
X148017218Y-141740778D01*
X148017218Y-141740776D01*
X147944797Y-141598644D01*
X147924287Y-141558390D01*
X147911997Y-141541474D01*
X147803971Y-141392786D01*
X147659213Y-141248028D01*
X147493613Y-141127715D01*
X147493612Y-141127714D01*
X147493610Y-141127713D01*
X147436653Y-141098691D01*
X147311223Y-141034781D01*
X147116534Y-140971522D01*
X146941995Y-140943878D01*
X146914352Y-140939500D01*
X146709648Y-140939500D01*
X146685329Y-140943351D01*
X146507465Y-140971522D01*
X146312776Y-141034781D01*
X146130386Y-141127715D01*
X145964786Y-141248028D01*
X145820028Y-141392786D01*
X145699715Y-141558386D01*
X145606781Y-141740776D01*
X145543522Y-141935465D01*
X145511500Y-142137648D01*
X143540500Y-142137648D01*
X143508477Y-141935466D01*
X143505546Y-141926446D01*
X143479127Y-141845137D01*
X143445220Y-141740781D01*
X143445218Y-141740778D01*
X143445218Y-141740776D01*
X143372797Y-141598644D01*
X143352287Y-141558390D01*
X143339997Y-141541474D01*
X143231971Y-141392786D01*
X143087213Y-141248028D01*
X142921613Y-141127715D01*
X142921612Y-141127714D01*
X142921610Y-141127713D01*
X142864653Y-141098691D01*
X142739223Y-141034781D01*
X142544534Y-140971522D01*
X142369995Y-140943878D01*
X142342352Y-140939500D01*
X142137648Y-140939500D01*
X142113329Y-140943351D01*
X141935465Y-140971522D01*
X141740776Y-141034781D01*
X141558386Y-141127715D01*
X141392786Y-141248028D01*
X141248028Y-141392786D01*
X141127715Y-141558386D01*
X141034781Y-141740776D01*
X140971522Y-141935465D01*
X140939500Y-142137648D01*
X138968500Y-142137648D01*
X138936477Y-141935466D01*
X138933546Y-141926446D01*
X138907127Y-141845137D01*
X138873220Y-141740781D01*
X138873218Y-141740778D01*
X138873218Y-141740776D01*
X138800797Y-141598644D01*
X138780287Y-141558390D01*
X138767997Y-141541474D01*
X138659971Y-141392786D01*
X138515213Y-141248028D01*
X138349613Y-141127715D01*
X138349612Y-141127714D01*
X138349610Y-141127713D01*
X138292653Y-141098691D01*
X138167223Y-141034781D01*
X137972534Y-140971522D01*
X137797995Y-140943878D01*
X137770352Y-140939500D01*
X137565648Y-140939500D01*
X137541329Y-140943351D01*
X137363465Y-140971522D01*
X137168776Y-141034781D01*
X136986386Y-141127715D01*
X136820786Y-141248028D01*
X136676028Y-141392786D01*
X136555715Y-141558386D01*
X136462781Y-141740776D01*
X136399522Y-141935465D01*
X136367500Y-142137648D01*
X125200749Y-142137648D01*
X123895661Y-140832560D01*
X123888371Y-140825270D01*
X123888369Y-140825267D01*
X123801244Y-140738142D01*
X123750020Y-140703915D01*
X123698797Y-140669688D01*
X123698794Y-140669686D01*
X123698791Y-140669685D01*
X123625114Y-140639168D01*
X123625112Y-140639167D01*
X123618303Y-140636347D01*
X123584963Y-140622537D01*
X123524540Y-140610518D01*
X123519817Y-140609578D01*
X123519815Y-140609578D01*
X123464121Y-140598500D01*
X123464118Y-140598500D01*
X123464117Y-140598500D01*
X117917606Y-140598500D01*
X117788263Y-140598500D01*
X117721224Y-140578815D01*
X117700582Y-140562181D01*
X115212083Y-138073682D01*
X135940000Y-138073682D01*
X135940000Y-138278317D01*
X135972009Y-138480417D01*
X136035244Y-138675031D01*
X136128141Y-138857350D01*
X136128147Y-138857359D01*
X136160523Y-138901921D01*
X136160524Y-138901922D01*
X136840000Y-138222446D01*
X136840000Y-138228661D01*
X136867259Y-138330394D01*
X136919920Y-138421606D01*
X136994394Y-138496080D01*
X137085606Y-138548741D01*
X137187339Y-138576000D01*
X137193553Y-138576000D01*
X136514076Y-139255474D01*
X136558650Y-139287859D01*
X136740968Y-139380755D01*
X136935582Y-139443990D01*
X137137683Y-139476000D01*
X137342317Y-139476000D01*
X137544417Y-139443990D01*
X137739031Y-139380755D01*
X137921349Y-139287859D01*
X137965921Y-139255474D01*
X137286447Y-138576000D01*
X137292661Y-138576000D01*
X137394394Y-138548741D01*
X137485606Y-138496080D01*
X137560080Y-138421606D01*
X137612741Y-138330394D01*
X137640000Y-138228661D01*
X137640000Y-138222447D01*
X138319474Y-138901921D01*
X138351859Y-138857349D01*
X138444755Y-138675031D01*
X138507990Y-138480417D01*
X138540000Y-138278317D01*
X138540000Y-138073682D01*
X138539995Y-138073648D01*
X140939500Y-138073648D01*
X140939500Y-138278351D01*
X140971522Y-138480534D01*
X141034781Y-138675223D01*
X141098691Y-138800653D01*
X141127585Y-138857359D01*
X141127715Y-138857613D01*
X141248028Y-139023213D01*
X141392786Y-139167971D01*
X141547749Y-139280556D01*
X141558390Y-139288287D01*
X141674607Y-139347503D01*
X141740776Y-139381218D01*
X141740778Y-139381218D01*
X141740781Y-139381220D01*
X141845137Y-139415127D01*
X141935465Y-139444477D01*
X142036557Y-139460488D01*
X142137648Y-139476500D01*
X142137649Y-139476500D01*
X142342351Y-139476500D01*
X142342352Y-139476500D01*
X142544534Y-139444477D01*
X142739219Y-139381220D01*
X142921610Y-139288287D01*
X143051374Y-139194009D01*
X143087213Y-139167971D01*
X143087215Y-139167968D01*
X143087219Y-139167966D01*
X143231966Y-139023219D01*
X143231968Y-139023215D01*
X143231971Y-139023213D01*
X143284732Y-138950590D01*
X143352287Y-138857610D01*
X143445220Y-138675219D01*
X143508477Y-138480534D01*
X143540500Y-138278352D01*
X143540500Y-138073648D01*
X143531292Y-138015509D01*
X143508477Y-137871465D01*
X143462384Y-137729606D01*
X143445220Y-137676781D01*
X143445218Y-137676778D01*
X143445218Y-137676776D01*
X143411503Y-137610607D01*
X143352287Y-137494390D01*
X143320092Y-137450077D01*
X143231971Y-137328786D01*
X143087213Y-137184028D01*
X142921613Y-137063715D01*
X142921612Y-137063714D01*
X142921610Y-137063713D01*
X142864653Y-137034691D01*
X142739223Y-136970781D01*
X142544534Y-136907522D01*
X142369995Y-136879878D01*
X142342352Y-136875500D01*
X142137648Y-136875500D01*
X142113329Y-136879351D01*
X141935465Y-136907522D01*
X141740776Y-136970781D01*
X141558386Y-137063715D01*
X141392786Y-137184028D01*
X141248028Y-137328786D01*
X141127715Y-137494386D01*
X141034781Y-137676776D01*
X140971522Y-137871465D01*
X140939500Y-138073648D01*
X138539995Y-138073648D01*
X138507990Y-137871582D01*
X138444755Y-137676968D01*
X138351859Y-137494650D01*
X138319474Y-137450077D01*
X138319474Y-137450076D01*
X137640000Y-138129551D01*
X137640000Y-138123339D01*
X137612741Y-138021606D01*
X137560080Y-137930394D01*
X137485606Y-137855920D01*
X137394394Y-137803259D01*
X137292661Y-137776000D01*
X137286446Y-137776000D01*
X137965922Y-137096524D01*
X137965921Y-137096523D01*
X137921359Y-137064147D01*
X137921350Y-137064141D01*
X137739031Y-136971244D01*
X137544417Y-136908009D01*
X137342317Y-136876000D01*
X137137683Y-136876000D01*
X136935582Y-136908009D01*
X136740968Y-136971244D01*
X136558644Y-137064143D01*
X136514077Y-137096523D01*
X136514077Y-137096524D01*
X137193554Y-137776000D01*
X137187339Y-137776000D01*
X137085606Y-137803259D01*
X136994394Y-137855920D01*
X136919920Y-137930394D01*
X136867259Y-138021606D01*
X136840000Y-138123339D01*
X136840000Y-138129553D01*
X136160524Y-137450077D01*
X136160523Y-137450077D01*
X136128143Y-137494644D01*
X136035244Y-137676968D01*
X135972009Y-137871582D01*
X135940000Y-138073682D01*
X115212083Y-138073682D01*
X115026724Y-137888323D01*
X114993239Y-137827000D01*
X114990405Y-137800642D01*
X114990405Y-131674357D01*
X115010090Y-131607318D01*
X115062894Y-131561563D01*
X115132052Y-131551619D01*
X115195608Y-131580644D01*
X115202086Y-131586676D01*
X115559181Y-131943771D01*
X115592666Y-132005094D01*
X115595500Y-132031452D01*
X115595500Y-135587611D01*
X115619535Y-135708444D01*
X115619540Y-135708461D01*
X115666685Y-135822281D01*
X115666687Y-135822284D01*
X115683811Y-135847912D01*
X115683813Y-135847915D01*
X115687871Y-135853987D01*
X115735142Y-135924733D01*
X115822267Y-136011858D01*
X115822269Y-136011859D01*
X115832793Y-136022383D01*
X116044781Y-136234371D01*
X116078266Y-136295694D01*
X116077785Y-136342416D01*
X116079285Y-136342654D01*
X116046500Y-136549648D01*
X116046500Y-136754351D01*
X116078522Y-136956534D01*
X116141781Y-137151223D01*
X116205691Y-137276653D01*
X116232252Y-137328781D01*
X116234715Y-137333613D01*
X116355028Y-137499213D01*
X116499786Y-137643971D01*
X116654749Y-137756556D01*
X116665390Y-137764287D01*
X116736741Y-137800642D01*
X116847776Y-137857218D01*
X116847778Y-137857218D01*
X116847781Y-137857220D01*
X116891623Y-137871465D01*
X117042465Y-137920477D01*
X117105078Y-137930394D01*
X117244648Y-137952500D01*
X117244649Y-137952500D01*
X117449351Y-137952500D01*
X117449352Y-137952500D01*
X117651534Y-137920477D01*
X117846219Y-137857220D01*
X118028610Y-137764287D01*
X118121590Y-137696732D01*
X118194213Y-137643971D01*
X118194215Y-137643968D01*
X118194219Y-137643966D01*
X118338966Y-137499219D01*
X118338968Y-137499215D01*
X118338971Y-137499213D01*
X118391732Y-137426590D01*
X118459287Y-137333610D01*
X118552220Y-137151219D01*
X118615477Y-136956534D01*
X118647500Y-136754352D01*
X118647500Y-136549648D01*
X127730500Y-136549648D01*
X127730500Y-136754351D01*
X127762522Y-136956534D01*
X127825781Y-137151223D01*
X127889691Y-137276653D01*
X127916252Y-137328781D01*
X127918715Y-137333613D01*
X128039028Y-137499213D01*
X128183786Y-137643971D01*
X128338749Y-137756556D01*
X128349390Y-137764287D01*
X128420741Y-137800642D01*
X128531776Y-137857218D01*
X128531778Y-137857218D01*
X128531781Y-137857220D01*
X128575623Y-137871465D01*
X128726465Y-137920477D01*
X128789078Y-137930394D01*
X128928648Y-137952500D01*
X128928649Y-137952500D01*
X129133351Y-137952500D01*
X129133352Y-137952500D01*
X129335534Y-137920477D01*
X129530219Y-137857220D01*
X129712610Y-137764287D01*
X129805590Y-137696732D01*
X129878213Y-137643971D01*
X129878215Y-137643968D01*
X129878219Y-137643966D01*
X130022966Y-137499219D01*
X130022968Y-137499215D01*
X130022971Y-137499213D01*
X130075732Y-137426590D01*
X130143287Y-137333610D01*
X130236220Y-137151219D01*
X130299477Y-136956534D01*
X130331500Y-136754352D01*
X130331500Y-136549648D01*
X130299477Y-136347466D01*
X130297913Y-136342654D01*
X130240368Y-136165547D01*
X130236220Y-136152781D01*
X130236218Y-136152778D01*
X130236218Y-136152776D01*
X130184019Y-136050331D01*
X130143287Y-135970390D01*
X130110258Y-135924929D01*
X130022971Y-135804786D01*
X129878213Y-135660028D01*
X129712613Y-135539715D01*
X129712612Y-135539714D01*
X129712610Y-135539713D01*
X129655653Y-135510691D01*
X129530223Y-135446781D01*
X129335534Y-135383522D01*
X129160995Y-135355878D01*
X129133352Y-135351500D01*
X128928648Y-135351500D01*
X128904329Y-135355351D01*
X128726465Y-135383522D01*
X128531776Y-135446781D01*
X128349386Y-135539715D01*
X128183786Y-135660028D01*
X128039028Y-135804786D01*
X127918715Y-135970386D01*
X127825781Y-136152776D01*
X127762522Y-136347465D01*
X127730500Y-136549648D01*
X118647500Y-136549648D01*
X118615477Y-136347466D01*
X118613913Y-136342654D01*
X118556368Y-136165547D01*
X118552220Y-136152781D01*
X118552218Y-136152778D01*
X118552218Y-136152776D01*
X118500019Y-136050331D01*
X118459287Y-135970390D01*
X118426258Y-135924929D01*
X118338971Y-135804786D01*
X118194213Y-135660028D01*
X118028613Y-135539715D01*
X118028612Y-135539714D01*
X118028610Y-135539713D01*
X117971653Y-135510691D01*
X117846223Y-135446781D01*
X117651534Y-135383522D01*
X117476995Y-135355878D01*
X117449352Y-135351500D01*
X117244648Y-135351500D01*
X117141101Y-135367900D01*
X117037654Y-135384285D01*
X117037332Y-135382256D01*
X117035591Y-135382168D01*
X117025898Y-135385784D01*
X117001290Y-135380430D01*
X116976143Y-135379157D01*
X116965921Y-135372736D01*
X116957625Y-135370932D01*
X116929371Y-135349780D01*
X116882818Y-135303226D01*
X116849334Y-135241903D01*
X116846500Y-135215546D01*
X116846500Y-134560135D01*
X120818500Y-134560135D01*
X120818500Y-135855870D01*
X120818501Y-135855876D01*
X120824908Y-135915483D01*
X120875202Y-136050328D01*
X120875206Y-136050335D01*
X120961452Y-136165544D01*
X120961455Y-136165547D01*
X121076664Y-136251793D01*
X121076671Y-136251797D01*
X121211517Y-136302091D01*
X121211516Y-136302091D01*
X121218444Y-136302835D01*
X121271127Y-136308500D01*
X122566872Y-136308499D01*
X122626483Y-136302091D01*
X122761331Y-136251796D01*
X122876546Y-136165546D01*
X122962796Y-136050331D01*
X123013091Y-135915483D01*
X123019500Y-135855873D01*
X123019499Y-135161998D01*
X123022049Y-135153313D01*
X123020761Y-135144353D01*
X123031738Y-135120316D01*
X123039183Y-135094961D01*
X123046025Y-135089032D01*
X123049786Y-135080797D01*
X123072017Y-135066510D01*
X123091987Y-135049206D01*
X123102502Y-135046918D01*
X123108564Y-135043023D01*
X123143499Y-135038000D01*
X123234500Y-135038000D01*
X123301539Y-135057685D01*
X123347294Y-135110489D01*
X123358500Y-135162000D01*
X123358500Y-135294611D01*
X123366677Y-135346239D01*
X123385390Y-135464393D01*
X123385598Y-135465701D01*
X123439127Y-135630445D01*
X123517768Y-135784788D01*
X123619586Y-135924928D01*
X123742072Y-136047414D01*
X123882212Y-136149232D01*
X124036555Y-136227873D01*
X124201299Y-136281402D01*
X124372389Y-136308500D01*
X124372390Y-136308500D01*
X124545610Y-136308500D01*
X124545611Y-136308500D01*
X124716701Y-136281402D01*
X124881445Y-136227873D01*
X125035788Y-136149232D01*
X125175928Y-136047414D01*
X125298414Y-135924928D01*
X125400232Y-135784788D01*
X125478873Y-135630445D01*
X125532402Y-135465701D01*
X125559500Y-135294611D01*
X125559500Y-135121389D01*
X125532402Y-134950299D01*
X125478873Y-134785555D01*
X125400232Y-134631212D01*
X125298414Y-134491072D01*
X125175928Y-134368586D01*
X125035788Y-134266768D01*
X124881445Y-134188127D01*
X124716701Y-134134598D01*
X124716699Y-134134597D01*
X124716698Y-134134597D01*
X124585271Y-134113781D01*
X124545611Y-134107500D01*
X124413000Y-134107500D01*
X124345961Y-134087815D01*
X124300206Y-134035011D01*
X124289000Y-133983500D01*
X124289000Y-133851428D01*
X124261914Y-133680415D01*
X124208408Y-133515742D01*
X124129801Y-133361471D01*
X124125290Y-133355262D01*
X124125289Y-133355261D01*
X123610725Y-133869826D01*
X123585037Y-133773956D01*
X123529084Y-133677044D01*
X123449956Y-133597916D01*
X123353044Y-133541963D01*
X123257172Y-133516274D01*
X123771737Y-133001709D01*
X123765525Y-132997196D01*
X123611259Y-132918592D01*
X123446584Y-132865085D01*
X123275571Y-132838000D01*
X123102429Y-132838000D01*
X122931415Y-132865085D01*
X122766740Y-132918592D01*
X122612480Y-132997193D01*
X122612463Y-132997203D01*
X122606261Y-133001708D01*
X122606261Y-133001709D01*
X123120828Y-133516274D01*
X123024956Y-133541963D01*
X122928044Y-133597916D01*
X122848916Y-133677044D01*
X122792963Y-133773956D01*
X122767274Y-133869827D01*
X122252709Y-133355261D01*
X122252708Y-133355261D01*
X122248203Y-133361463D01*
X122248193Y-133361480D01*
X122169592Y-133515740D01*
X122116085Y-133680415D01*
X122089000Y-133851428D01*
X122089000Y-133983500D01*
X122069315Y-134050539D01*
X122016511Y-134096294D01*
X121965000Y-134107500D01*
X121271129Y-134107500D01*
X121271123Y-134107501D01*
X121211516Y-134113908D01*
X121076671Y-134164202D01*
X121076664Y-134164206D01*
X120961455Y-134250452D01*
X120961452Y-134250455D01*
X120875206Y-134365664D01*
X120875202Y-134365671D01*
X120824908Y-134500517D01*
X120818501Y-134560116D01*
X120818500Y-134560135D01*
X116846500Y-134560135D01*
X116846500Y-133026950D01*
X116866185Y-132959911D01*
X116918989Y-132914156D01*
X116988147Y-132904212D01*
X117008820Y-132909020D01*
X117042575Y-132919988D01*
X117042581Y-132919989D01*
X117244683Y-132952000D01*
X117449317Y-132952000D01*
X117610360Y-132926493D01*
X117651417Y-132919990D01*
X117846031Y-132856755D01*
X118028349Y-132763859D01*
X118072921Y-132731474D01*
X117393446Y-132052000D01*
X117399661Y-132052000D01*
X117501394Y-132024741D01*
X117592606Y-131972080D01*
X117667080Y-131897606D01*
X117719741Y-131806394D01*
X117747000Y-131704661D01*
X117747000Y-131698447D01*
X118426474Y-132377921D01*
X118458859Y-132333349D01*
X118551755Y-132151031D01*
X118614990Y-131956417D01*
X118647000Y-131754317D01*
X118647000Y-131549682D01*
X127731000Y-131549682D01*
X127731000Y-131754317D01*
X127763009Y-131956417D01*
X127826244Y-132151031D01*
X127919141Y-132333350D01*
X127919147Y-132333359D01*
X127951523Y-132377921D01*
X127951524Y-132377922D01*
X128631000Y-131698446D01*
X128631000Y-131704661D01*
X128658259Y-131806394D01*
X128710920Y-131897606D01*
X128785394Y-131972080D01*
X128876606Y-132024741D01*
X128978339Y-132052000D01*
X128984553Y-132052000D01*
X128305076Y-132731474D01*
X128349650Y-132763859D01*
X128531968Y-132856755D01*
X128726582Y-132919990D01*
X128928683Y-132952000D01*
X129133317Y-132952000D01*
X129335417Y-132919990D01*
X129530031Y-132856755D01*
X129712349Y-132763859D01*
X129756921Y-132731474D01*
X129077447Y-132052000D01*
X129083661Y-132052000D01*
X129185394Y-132024741D01*
X129276606Y-131972080D01*
X129351080Y-131897606D01*
X129403741Y-131806394D01*
X129431000Y-131704661D01*
X129431000Y-131698448D01*
X130110474Y-132377922D01*
X130110474Y-132377921D01*
X130142859Y-132333349D01*
X130235755Y-132151031D01*
X130292091Y-131977648D01*
X132049500Y-131977648D01*
X132049500Y-132182351D01*
X132081522Y-132384534D01*
X132144781Y-132579223D01*
X132237715Y-132761613D01*
X132358028Y-132927213D01*
X132502786Y-133071971D01*
X132657749Y-133184556D01*
X132668390Y-133192287D01*
X132784607Y-133251503D01*
X132850776Y-133285218D01*
X132850778Y-133285218D01*
X132850781Y-133285220D01*
X132955137Y-133319127D01*
X133045465Y-133348477D01*
X133127562Y-133361480D01*
X133247648Y-133380500D01*
X133247649Y-133380500D01*
X133452351Y-133380500D01*
X133452352Y-133380500D01*
X133654534Y-133348477D01*
X133849219Y-133285220D01*
X134031610Y-133192287D01*
X134124590Y-133124732D01*
X134197213Y-133071971D01*
X134197215Y-133071968D01*
X134197219Y-133071966D01*
X134341966Y-132927219D01*
X134341968Y-132927215D01*
X134341971Y-132927213D01*
X134406787Y-132838000D01*
X134462287Y-132761610D01*
X134555220Y-132579219D01*
X134618477Y-132384534D01*
X134650500Y-132182352D01*
X134650500Y-131977648D01*
X134627114Y-131830000D01*
X139693391Y-131830000D01*
X140654314Y-131830000D01*
X140649920Y-131834394D01*
X140597259Y-131925606D01*
X140570000Y-132027339D01*
X140570000Y-132132661D01*
X140597259Y-132234394D01*
X140649920Y-132325606D01*
X140654314Y-132330000D01*
X139693391Y-132330000D01*
X139702009Y-132384413D01*
X139765244Y-132579029D01*
X139858140Y-132761349D01*
X139978417Y-132926894D01*
X139978417Y-132926895D01*
X140123104Y-133071582D01*
X140288650Y-133191859D01*
X140470968Y-133284754D01*
X140665578Y-133347988D01*
X140720000Y-133356607D01*
X140720000Y-132395686D01*
X140724394Y-132400080D01*
X140815606Y-132452741D01*
X140917339Y-132480000D01*
X141022661Y-132480000D01*
X141124394Y-132452741D01*
X141215606Y-132400080D01*
X141220000Y-132395686D01*
X141220000Y-133356606D01*
X141274421Y-133347988D01*
X141469031Y-133284754D01*
X141651349Y-133191859D01*
X141816894Y-133071582D01*
X141816895Y-133071582D01*
X141961582Y-132926895D01*
X141961582Y-132926894D01*
X142081859Y-132761349D01*
X142174755Y-132579029D01*
X142237990Y-132384413D01*
X142246609Y-132330000D01*
X141285686Y-132330000D01*
X141290080Y-132325606D01*
X141342741Y-132234394D01*
X141370000Y-132132661D01*
X141370000Y-132027339D01*
X141342741Y-131925606D01*
X141290080Y-131834394D01*
X141285686Y-131830000D01*
X142246609Y-131830000D01*
X142237990Y-131775586D01*
X142174755Y-131580970D01*
X142081859Y-131398650D01*
X141961582Y-131233105D01*
X141961582Y-131233104D01*
X141816895Y-131088417D01*
X141651349Y-130968140D01*
X141469029Y-130875244D01*
X141274413Y-130812009D01*
X141220000Y-130803390D01*
X141220000Y-131764314D01*
X141215606Y-131759920D01*
X141124394Y-131707259D01*
X141022661Y-131680000D01*
X140917339Y-131680000D01*
X140815606Y-131707259D01*
X140724394Y-131759920D01*
X140720000Y-131764314D01*
X140720000Y-130803390D01*
X140665586Y-130812009D01*
X140470970Y-130875244D01*
X140288650Y-130968140D01*
X140123105Y-131088417D01*
X140123104Y-131088417D01*
X139978417Y-131233104D01*
X139978417Y-131233105D01*
X139858140Y-131398650D01*
X139765244Y-131580970D01*
X139702009Y-131775586D01*
X139693391Y-131830000D01*
X134627114Y-131830000D01*
X134618477Y-131775466D01*
X134555220Y-131580781D01*
X134555218Y-131580778D01*
X134555218Y-131580776D01*
X134477444Y-131428138D01*
X134462287Y-131398390D01*
X134445267Y-131374964D01*
X134341971Y-131232786D01*
X134197213Y-131088028D01*
X134031613Y-130967715D01*
X134031612Y-130967714D01*
X134031610Y-130967713D01*
X133949893Y-130926076D01*
X133849223Y-130874781D01*
X133654534Y-130811522D01*
X133478503Y-130783642D01*
X133452352Y-130779500D01*
X133247648Y-130779500D01*
X133223329Y-130783351D01*
X133045465Y-130811522D01*
X132850776Y-130874781D01*
X132668386Y-130967715D01*
X132502786Y-131088028D01*
X132358028Y-131232786D01*
X132237715Y-131398386D01*
X132144781Y-131580776D01*
X132081522Y-131775465D01*
X132049500Y-131977648D01*
X130292091Y-131977648D01*
X130298987Y-131956424D01*
X130299469Y-131953385D01*
X130299470Y-131953382D01*
X130299471Y-131953378D01*
X130331000Y-131754317D01*
X130331000Y-131549682D01*
X130298990Y-131347582D01*
X130235755Y-131152968D01*
X130142859Y-130970650D01*
X130110474Y-130926077D01*
X130110474Y-130926076D01*
X129431000Y-131605551D01*
X129431000Y-131599339D01*
X129403741Y-131497606D01*
X129351080Y-131406394D01*
X129276606Y-131331920D01*
X129185394Y-131279259D01*
X129083661Y-131252000D01*
X129077446Y-131252000D01*
X129756922Y-130572524D01*
X129756921Y-130572523D01*
X129712359Y-130540147D01*
X129712350Y-130540141D01*
X129530031Y-130447244D01*
X129335417Y-130384009D01*
X129133317Y-130352000D01*
X128928683Y-130352000D01*
X128726582Y-130384009D01*
X128531968Y-130447244D01*
X128349644Y-130540143D01*
X128305077Y-130572523D01*
X128305077Y-130572524D01*
X128984554Y-131252000D01*
X128978339Y-131252000D01*
X128876606Y-131279259D01*
X128785394Y-131331920D01*
X128710920Y-131406394D01*
X128658259Y-131497606D01*
X128631000Y-131599339D01*
X128631000Y-131605553D01*
X127951524Y-130926077D01*
X127951523Y-130926077D01*
X127919143Y-130970644D01*
X127826244Y-131152968D01*
X127763009Y-131347582D01*
X127731000Y-131549682D01*
X118647000Y-131549682D01*
X118614990Y-131347582D01*
X118551755Y-131152968D01*
X118458859Y-130970650D01*
X118426474Y-130926077D01*
X118426474Y-130926076D01*
X117747000Y-131605551D01*
X117747000Y-131599339D01*
X117719741Y-131497606D01*
X117667080Y-131406394D01*
X117592606Y-131331920D01*
X117501394Y-131279259D01*
X117399661Y-131252000D01*
X117393446Y-131252000D01*
X118072922Y-130572524D01*
X118072921Y-130572523D01*
X118028359Y-130540147D01*
X118028350Y-130540141D01*
X117846031Y-130447244D01*
X117651417Y-130384009D01*
X117449317Y-130352000D01*
X117244683Y-130352000D01*
X117042582Y-130384009D01*
X116847968Y-130447244D01*
X116665644Y-130540143D01*
X116621077Y-130572523D01*
X116621077Y-130572524D01*
X117300554Y-131252000D01*
X117294339Y-131252000D01*
X117192606Y-131279259D01*
X117101394Y-131331920D01*
X117026920Y-131406394D01*
X116974259Y-131497606D01*
X116947000Y-131599339D01*
X116947000Y-131605553D01*
X116798824Y-131457377D01*
X116777141Y-131428138D01*
X116775311Y-131424713D01*
X116742069Y-131374963D01*
X116742068Y-131374963D01*
X116706856Y-131322264D01*
X116616637Y-131232045D01*
X116616606Y-131232016D01*
X113493150Y-128108560D01*
X113485860Y-128101270D01*
X113485858Y-128101267D01*
X113398733Y-128014142D01*
X113347509Y-127979915D01*
X113296286Y-127945688D01*
X113296283Y-127945686D01*
X113296280Y-127945685D01*
X113222603Y-127915168D01*
X113222601Y-127915167D01*
X113215792Y-127912347D01*
X113182452Y-127898537D01*
X113122029Y-127886518D01*
X113117306Y-127885578D01*
X113117304Y-127885578D01*
X113061610Y-127874500D01*
X113061607Y-127874500D01*
X113061606Y-127874500D01*
X104340783Y-127874500D01*
X104311683Y-127865955D01*
X104281999Y-127859681D01*
X104276576Y-127855646D01*
X104273744Y-127854815D01*
X104253620Y-127838697D01*
X104253449Y-127838528D01*
X104137782Y-127722861D01*
X104133544Y-127720029D01*
X104125619Y-127712197D01*
X104111355Y-127686437D01*
X104094784Y-127662111D01*
X104094626Y-127656224D01*
X104091773Y-127651072D01*
X104093700Y-127621696D01*
X104092911Y-127592266D01*
X104095961Y-127587227D01*
X104096347Y-127581352D01*
X104113849Y-127557681D01*
X104129097Y-127532497D01*
X104134385Y-127529908D01*
X104137887Y-127525173D01*
X104165410Y-127514722D01*
X104191852Y-127501779D01*
X104201700Y-127500941D01*
X104203207Y-127500370D01*
X104204704Y-127500686D01*
X104212782Y-127500000D01*
X129500000Y-127500000D01*
X132463681Y-124536319D01*
X132525004Y-124502834D01*
X132551362Y-124500000D01*
X133533285Y-124500000D01*
X133600324Y-124519685D01*
G37*
G04 #@! TD.AperFunction*
G04 #@! TA.AperFunction,Conductor*
G36*
X95049553Y-105588159D02*
G01*
X95063819Y-105600409D01*
X96031016Y-106567606D01*
X96031045Y-106567637D01*
X96121263Y-106657855D01*
X96121267Y-106657858D01*
X96223707Y-106726307D01*
X96223713Y-106726310D01*
X96223714Y-106726311D01*
X96337548Y-106773463D01*
X96397971Y-106785481D01*
X96458393Y-106797500D01*
X96458394Y-106797500D01*
X122625548Y-106797500D01*
X122692587Y-106817185D01*
X122713229Y-106833819D01*
X134730728Y-118851319D01*
X134764213Y-118912642D01*
X134759229Y-118982334D01*
X134717357Y-119038267D01*
X134651893Y-119062684D01*
X134643047Y-119063000D01*
X134515091Y-119063000D01*
X134446012Y-119073941D01*
X134307853Y-119095823D01*
X134108308Y-119160658D01*
X134108305Y-119160659D01*
X133921352Y-119255918D01*
X133751615Y-119379238D01*
X133751610Y-119379242D01*
X133603242Y-119527610D01*
X133603238Y-119527615D01*
X133479916Y-119697354D01*
X133460484Y-119735492D01*
X133412510Y-119786287D01*
X133344689Y-119803082D01*
X133278554Y-119780544D01*
X133239516Y-119735492D01*
X133220083Y-119697354D01*
X133096761Y-119527615D01*
X133096757Y-119527610D01*
X132948389Y-119379242D01*
X132948384Y-119379238D01*
X132778647Y-119255918D01*
X132778646Y-119255917D01*
X132778644Y-119255916D01*
X132705500Y-119218647D01*
X132591694Y-119160659D01*
X132591691Y-119160658D01*
X132392146Y-119095823D01*
X132288527Y-119079411D01*
X132184909Y-119063000D01*
X131975091Y-119063000D01*
X131906012Y-119073941D01*
X131767853Y-119095823D01*
X131568308Y-119160658D01*
X131568305Y-119160659D01*
X131381352Y-119255918D01*
X131211615Y-119379238D01*
X131211610Y-119379242D01*
X131063242Y-119527610D01*
X131063238Y-119527615D01*
X130939916Y-119697354D01*
X130920484Y-119735492D01*
X130872510Y-119786287D01*
X130804689Y-119803082D01*
X130738554Y-119780544D01*
X130699516Y-119735492D01*
X130680083Y-119697354D01*
X130556761Y-119527615D01*
X130556757Y-119527610D01*
X130408389Y-119379242D01*
X130408384Y-119379238D01*
X130238647Y-119255918D01*
X130238646Y-119255917D01*
X130238644Y-119255916D01*
X130165500Y-119218647D01*
X130051694Y-119160659D01*
X130051691Y-119160658D01*
X129852146Y-119095823D01*
X129748527Y-119079411D01*
X129644909Y-119063000D01*
X129435091Y-119063000D01*
X129366012Y-119073941D01*
X129227853Y-119095823D01*
X129028308Y-119160658D01*
X129028305Y-119160659D01*
X128841352Y-119255918D01*
X128671615Y-119379238D01*
X128671610Y-119379242D01*
X128523242Y-119527610D01*
X128523238Y-119527615D01*
X128399916Y-119697354D01*
X128380484Y-119735492D01*
X128332510Y-119786287D01*
X128264689Y-119803082D01*
X128198554Y-119780544D01*
X128159516Y-119735492D01*
X128140083Y-119697354D01*
X128016761Y-119527615D01*
X128016757Y-119527610D01*
X127868389Y-119379242D01*
X127868384Y-119379238D01*
X127698647Y-119255918D01*
X127698646Y-119255917D01*
X127698644Y-119255916D01*
X127625500Y-119218647D01*
X127511694Y-119160659D01*
X127511691Y-119160658D01*
X127312146Y-119095823D01*
X127208527Y-119079411D01*
X127104909Y-119063000D01*
X126895091Y-119063000D01*
X126826012Y-119073941D01*
X126687853Y-119095823D01*
X126488308Y-119160658D01*
X126488305Y-119160659D01*
X126301352Y-119255918D01*
X126131615Y-119379238D01*
X126131610Y-119379242D01*
X125983242Y-119527610D01*
X125983238Y-119527615D01*
X125859916Y-119697354D01*
X125840203Y-119736043D01*
X125792228Y-119786839D01*
X125724407Y-119803633D01*
X125658272Y-119781095D01*
X125619234Y-119736042D01*
X125599653Y-119697614D01*
X125562742Y-119646810D01*
X125562741Y-119646809D01*
X124987870Y-120221681D01*
X124977178Y-120181778D01*
X124904110Y-120055222D01*
X124800778Y-119951890D01*
X124674222Y-119878822D01*
X124634315Y-119868129D01*
X125209188Y-119293257D01*
X125158378Y-119256342D01*
X124971506Y-119161125D01*
X124772028Y-119096310D01*
X124564869Y-119063500D01*
X124355131Y-119063500D01*
X124147971Y-119096310D01*
X123948493Y-119161125D01*
X123761611Y-119256347D01*
X123710810Y-119293256D01*
X123710810Y-119293257D01*
X124285682Y-119868129D01*
X124245778Y-119878822D01*
X124119222Y-119951890D01*
X124015890Y-120055222D01*
X123942822Y-120181778D01*
X123932129Y-120221682D01*
X123357257Y-119646810D01*
X123357256Y-119646810D01*
X123320347Y-119697611D01*
X123300764Y-119736045D01*
X123252788Y-119786840D01*
X123184967Y-119803634D01*
X123118832Y-119781095D01*
X123079796Y-119736043D01*
X123060084Y-119697356D01*
X123060082Y-119697353D01*
X123060081Y-119697351D01*
X122936761Y-119527615D01*
X122936757Y-119527610D01*
X122788389Y-119379242D01*
X122788384Y-119379238D01*
X122618647Y-119255918D01*
X122618646Y-119255917D01*
X122618644Y-119255916D01*
X122545500Y-119218647D01*
X122431694Y-119160659D01*
X122431691Y-119160658D01*
X122232146Y-119095823D01*
X122128527Y-119079411D01*
X122024909Y-119063000D01*
X121815091Y-119063000D01*
X121746012Y-119073941D01*
X121607853Y-119095823D01*
X121408308Y-119160658D01*
X121408305Y-119160659D01*
X121221352Y-119255918D01*
X121051615Y-119379238D01*
X121051610Y-119379242D01*
X120903242Y-119527610D01*
X120903238Y-119527615D01*
X120779916Y-119697354D01*
X120760484Y-119735492D01*
X120712510Y-119786287D01*
X120644689Y-119803082D01*
X120578554Y-119780544D01*
X120539516Y-119735492D01*
X120520083Y-119697354D01*
X120396761Y-119527615D01*
X120396757Y-119527610D01*
X120248389Y-119379242D01*
X120248384Y-119379238D01*
X120078647Y-119255918D01*
X120078646Y-119255917D01*
X120078644Y-119255916D01*
X120005500Y-119218647D01*
X119891694Y-119160659D01*
X119891691Y-119160658D01*
X119692146Y-119095823D01*
X119588527Y-119079411D01*
X119484909Y-119063000D01*
X119275091Y-119063000D01*
X119206012Y-119073941D01*
X119067853Y-119095823D01*
X118868308Y-119160658D01*
X118868305Y-119160659D01*
X118681352Y-119255918D01*
X118511615Y-119379238D01*
X118511610Y-119379242D01*
X118363242Y-119527610D01*
X118363238Y-119527615D01*
X118239916Y-119697354D01*
X118220484Y-119735492D01*
X118172510Y-119786287D01*
X118104689Y-119803082D01*
X118038554Y-119780544D01*
X117999516Y-119735492D01*
X117980083Y-119697354D01*
X117856761Y-119527615D01*
X117856757Y-119527610D01*
X117708389Y-119379242D01*
X117708384Y-119379238D01*
X117538647Y-119255918D01*
X117538646Y-119255917D01*
X117538644Y-119255916D01*
X117465500Y-119218647D01*
X117351694Y-119160659D01*
X117351691Y-119160658D01*
X117152146Y-119095823D01*
X117048527Y-119079411D01*
X116944909Y-119063000D01*
X116735091Y-119063000D01*
X116666012Y-119073941D01*
X116527853Y-119095823D01*
X116328308Y-119160658D01*
X116328305Y-119160659D01*
X116141352Y-119255918D01*
X115971615Y-119379238D01*
X115971610Y-119379242D01*
X115823242Y-119527610D01*
X115823238Y-119527615D01*
X115699916Y-119697354D01*
X115680484Y-119735492D01*
X115632510Y-119786287D01*
X115564689Y-119803082D01*
X115498554Y-119780544D01*
X115459516Y-119735492D01*
X115440083Y-119697354D01*
X115316761Y-119527615D01*
X115316757Y-119527610D01*
X115168389Y-119379242D01*
X115168384Y-119379238D01*
X114998647Y-119255918D01*
X114998646Y-119255917D01*
X114998644Y-119255916D01*
X114925500Y-119218647D01*
X114811694Y-119160659D01*
X114811691Y-119160658D01*
X114612146Y-119095823D01*
X114508527Y-119079411D01*
X114404909Y-119063000D01*
X114195091Y-119063000D01*
X114126012Y-119073941D01*
X113987853Y-119095823D01*
X113788308Y-119160658D01*
X113788305Y-119160659D01*
X113601352Y-119255918D01*
X113431615Y-119379238D01*
X113431610Y-119379242D01*
X113283242Y-119527610D01*
X113283238Y-119527615D01*
X113159916Y-119697354D01*
X113140484Y-119735492D01*
X113092510Y-119786287D01*
X113024689Y-119803082D01*
X112958554Y-119780544D01*
X112919516Y-119735492D01*
X112900083Y-119697354D01*
X112776761Y-119527615D01*
X112776757Y-119527610D01*
X112628389Y-119379242D01*
X112628384Y-119379238D01*
X112458647Y-119255918D01*
X112458646Y-119255917D01*
X112458644Y-119255916D01*
X112385500Y-119218647D01*
X112271694Y-119160659D01*
X112271691Y-119160658D01*
X112072146Y-119095823D01*
X111968527Y-119079411D01*
X111864909Y-119063000D01*
X111655091Y-119063000D01*
X111586012Y-119073941D01*
X111447853Y-119095823D01*
X111248308Y-119160658D01*
X111248305Y-119160659D01*
X111061352Y-119255918D01*
X110891615Y-119379238D01*
X110891610Y-119379242D01*
X110743242Y-119527610D01*
X110743238Y-119527615D01*
X110619916Y-119697354D01*
X110600484Y-119735492D01*
X110552510Y-119786287D01*
X110484689Y-119803082D01*
X110418554Y-119780544D01*
X110379516Y-119735492D01*
X110360083Y-119697354D01*
X110236761Y-119527615D01*
X110236757Y-119527610D01*
X110088389Y-119379242D01*
X110088384Y-119379238D01*
X109918647Y-119255918D01*
X109918646Y-119255917D01*
X109918644Y-119255916D01*
X109845500Y-119218647D01*
X109731694Y-119160659D01*
X109731691Y-119160658D01*
X109532146Y-119095823D01*
X109428527Y-119079411D01*
X109324909Y-119063000D01*
X109115091Y-119063000D01*
X109046012Y-119073941D01*
X108907853Y-119095823D01*
X108708308Y-119160658D01*
X108708305Y-119160659D01*
X108521352Y-119255918D01*
X108351615Y-119379238D01*
X108351610Y-119379242D01*
X108203242Y-119527610D01*
X108203238Y-119527615D01*
X108079916Y-119697354D01*
X108060484Y-119735492D01*
X108012510Y-119786287D01*
X107944689Y-119803082D01*
X107878554Y-119780544D01*
X107839516Y-119735492D01*
X107820083Y-119697354D01*
X107696761Y-119527615D01*
X107696757Y-119527610D01*
X107548389Y-119379242D01*
X107548384Y-119379238D01*
X107378647Y-119255918D01*
X107378646Y-119255917D01*
X107378644Y-119255916D01*
X107305500Y-119218647D01*
X107191694Y-119160659D01*
X107191691Y-119160658D01*
X106992146Y-119095823D01*
X106888527Y-119079411D01*
X106784909Y-119063000D01*
X106575091Y-119063000D01*
X106506012Y-119073941D01*
X106367853Y-119095823D01*
X106168308Y-119160658D01*
X106168305Y-119160659D01*
X105981352Y-119255918D01*
X105811615Y-119379238D01*
X105811610Y-119379242D01*
X105663242Y-119527610D01*
X105663238Y-119527615D01*
X105539916Y-119697354D01*
X105520484Y-119735492D01*
X105472510Y-119786287D01*
X105404689Y-119803082D01*
X105338554Y-119780544D01*
X105299516Y-119735492D01*
X105280083Y-119697354D01*
X105156761Y-119527615D01*
X105156757Y-119527610D01*
X105008389Y-119379242D01*
X105008384Y-119379238D01*
X104838647Y-119255918D01*
X104838646Y-119255917D01*
X104838644Y-119255916D01*
X104765500Y-119218647D01*
X104651694Y-119160659D01*
X104651691Y-119160658D01*
X104452146Y-119095823D01*
X104348527Y-119079411D01*
X104244909Y-119063000D01*
X104035091Y-119063000D01*
X103966012Y-119073941D01*
X103827853Y-119095823D01*
X103628308Y-119160658D01*
X103628305Y-119160659D01*
X103441352Y-119255918D01*
X103271615Y-119379238D01*
X103271610Y-119379242D01*
X103123242Y-119527610D01*
X103123238Y-119527615D01*
X102999916Y-119697354D01*
X102980484Y-119735492D01*
X102932510Y-119786287D01*
X102864689Y-119803082D01*
X102798554Y-119780544D01*
X102759516Y-119735492D01*
X102740083Y-119697354D01*
X102616761Y-119527615D01*
X102616757Y-119527610D01*
X102468389Y-119379242D01*
X102468384Y-119379238D01*
X102298643Y-119255915D01*
X102298644Y-119255915D01*
X102293198Y-119253140D01*
X102242405Y-119205162D01*
X102225500Y-119142659D01*
X102225500Y-114238396D01*
X102225500Y-114238394D01*
X102201463Y-114117548D01*
X102201461Y-114117543D01*
X102183505Y-114074193D01*
X102183501Y-114074185D01*
X102181932Y-114070397D01*
X102154312Y-114003715D01*
X102137256Y-113978190D01*
X102085858Y-113901267D01*
X102085856Y-113901264D01*
X101995637Y-113811045D01*
X101995606Y-113811016D01*
X95524819Y-107340229D01*
X95491334Y-107278906D01*
X95488500Y-107252548D01*
X95488500Y-107089456D01*
X95450052Y-106896170D01*
X95450051Y-106896169D01*
X95450051Y-106896165D01*
X95409183Y-106797500D01*
X95374635Y-106714092D01*
X95374628Y-106714079D01*
X95265139Y-106550218D01*
X95265136Y-106550214D01*
X95125785Y-106410863D01*
X95125781Y-106410860D01*
X94961920Y-106301371D01*
X94961907Y-106301364D01*
X94779839Y-106225950D01*
X94779829Y-106225947D01*
X94610875Y-106192340D01*
X94548965Y-106159955D01*
X94514390Y-106099239D01*
X94518130Y-106029470D01*
X94558997Y-105972798D01*
X94566177Y-105967620D01*
X94617782Y-105933139D01*
X94757139Y-105793782D01*
X94866632Y-105629914D01*
X94866635Y-105629906D01*
X94866776Y-105629644D01*
X94866889Y-105629527D01*
X94870017Y-105624848D01*
X94870904Y-105625440D01*
X94915735Y-105579796D01*
X94983872Y-105564331D01*
X95049553Y-105588159D01*
G37*
G04 #@! TD.AperFunction*
G04 #@! TA.AperFunction,Conductor*
G36*
X149642539Y-71320185D02*
G01*
X149688294Y-71372989D01*
X149699500Y-71424500D01*
X149699500Y-122876000D01*
X149679815Y-122943039D01*
X149627011Y-122988794D01*
X149575500Y-123000000D01*
X131500000Y-123000000D01*
X128534489Y-125471259D01*
X128470386Y-125499055D01*
X128455106Y-125500000D01*
X95000000Y-125500000D01*
X95000000Y-135448638D01*
X94980315Y-135515677D01*
X94963681Y-135536319D01*
X93500000Y-136999999D01*
X93500000Y-145876000D01*
X93480315Y-145943039D01*
X93427511Y-145988794D01*
X93376000Y-146000000D01*
X81424500Y-146000000D01*
X81357461Y-145980315D01*
X81311706Y-145927511D01*
X81300500Y-145876000D01*
X81300500Y-93570543D01*
X81803499Y-93570543D01*
X81841947Y-93763829D01*
X81841950Y-93763839D01*
X81917364Y-93945907D01*
X81917371Y-93945920D01*
X82026860Y-94109781D01*
X82026863Y-94109785D01*
X82067180Y-94150101D01*
X82100666Y-94211424D01*
X82103500Y-94237783D01*
X82103500Y-100834216D01*
X82083815Y-100901255D01*
X82067181Y-100921897D01*
X82026863Y-100962214D01*
X82026860Y-100962218D01*
X81917371Y-101126079D01*
X81917364Y-101126092D01*
X81841950Y-101308160D01*
X81841947Y-101308170D01*
X81803500Y-101501456D01*
X81803500Y-101501459D01*
X81803500Y-101698541D01*
X81803500Y-101698543D01*
X81803499Y-101698543D01*
X81841947Y-101891829D01*
X81841950Y-101891839D01*
X81917364Y-102073907D01*
X81917371Y-102073920D01*
X82026860Y-102237781D01*
X82026863Y-102237785D01*
X82067180Y-102278101D01*
X82100666Y-102339424D01*
X82103500Y-102365783D01*
X82103500Y-108962216D01*
X82083815Y-109029255D01*
X82067181Y-109049897D01*
X82026863Y-109090214D01*
X82026860Y-109090218D01*
X81917371Y-109254079D01*
X81917364Y-109254092D01*
X81841950Y-109436160D01*
X81841947Y-109436170D01*
X81803500Y-109629456D01*
X81803500Y-109629459D01*
X81803500Y-109826541D01*
X81803500Y-109826543D01*
X81803499Y-109826543D01*
X81841947Y-110019829D01*
X81841950Y-110019839D01*
X81917364Y-110201907D01*
X81917371Y-110201920D01*
X82026860Y-110365781D01*
X82026863Y-110365785D01*
X82067180Y-110406101D01*
X82100666Y-110467424D01*
X82103500Y-110493783D01*
X82103500Y-117090216D01*
X82083815Y-117157255D01*
X82067181Y-117177897D01*
X82026863Y-117218214D01*
X82026860Y-117218218D01*
X81917371Y-117382079D01*
X81917364Y-117382092D01*
X81841950Y-117564160D01*
X81841947Y-117564170D01*
X81803500Y-117757456D01*
X81803500Y-117757459D01*
X81803500Y-117954541D01*
X81803500Y-117954543D01*
X81803499Y-117954543D01*
X81841947Y-118147829D01*
X81841950Y-118147839D01*
X81917364Y-118329907D01*
X81917371Y-118329920D01*
X82026860Y-118493781D01*
X82026863Y-118493785D01*
X82067180Y-118534101D01*
X82100666Y-118595424D01*
X82103500Y-118621783D01*
X82103500Y-124391006D01*
X82103500Y-124528994D01*
X82103500Y-124528996D01*
X82103499Y-124528996D01*
X82130418Y-124664322D01*
X82130421Y-124664332D01*
X82183222Y-124791807D01*
X82259887Y-124906545D01*
X83373454Y-126020112D01*
X83488192Y-126096777D01*
X83615667Y-126149578D01*
X83615672Y-126149580D01*
X83615676Y-126149580D01*
X83615677Y-126149581D01*
X83751003Y-126176500D01*
X83751006Y-126176500D01*
X83751007Y-126176500D01*
X89066481Y-126176500D01*
X89133520Y-126196185D01*
X89154162Y-126212819D01*
X90911181Y-127969837D01*
X90944666Y-128031160D01*
X90947500Y-128057518D01*
X90947500Y-128114541D01*
X90947500Y-128114543D01*
X90947499Y-128114543D01*
X90985947Y-128307829D01*
X90985950Y-128307839D01*
X91061364Y-128489907D01*
X91061371Y-128489920D01*
X91170860Y-128653781D01*
X91170863Y-128653785D01*
X91310214Y-128793136D01*
X91310218Y-128793139D01*
X91474079Y-128902628D01*
X91474092Y-128902635D01*
X91646177Y-128973914D01*
X91656165Y-128978051D01*
X91656169Y-128978051D01*
X91656170Y-128978052D01*
X91849456Y-129016500D01*
X91849459Y-129016500D01*
X92046543Y-129016500D01*
X92176582Y-128990632D01*
X92239835Y-128978051D01*
X92421914Y-128902632D01*
X92585782Y-128793139D01*
X92725139Y-128653782D01*
X92834632Y-128489914D01*
X92910051Y-128307835D01*
X92948500Y-128114541D01*
X92948500Y-127917459D01*
X92948500Y-127917456D01*
X92910052Y-127724170D01*
X92910051Y-127724169D01*
X92910051Y-127724165D01*
X92864158Y-127613368D01*
X92834635Y-127542092D01*
X92834628Y-127542079D01*
X92725139Y-127378218D01*
X92725136Y-127378214D01*
X92585785Y-127238863D01*
X92585781Y-127238860D01*
X92421920Y-127129371D01*
X92421907Y-127129364D01*
X92239839Y-127053950D01*
X92239829Y-127053947D01*
X92046543Y-127015500D01*
X92046541Y-127015500D01*
X91989518Y-127015500D01*
X91922479Y-126995815D01*
X91901837Y-126979181D01*
X90144819Y-125222162D01*
X90111334Y-125160839D01*
X90108500Y-125134481D01*
X90108500Y-121753518D01*
X90128185Y-121686479D01*
X90144819Y-121665837D01*
X93933837Y-117876819D01*
X93995160Y-117843334D01*
X94021518Y-117840500D01*
X94078543Y-117840500D01*
X94208582Y-117814632D01*
X94271835Y-117802051D01*
X94453914Y-117726632D01*
X94617782Y-117617139D01*
X94757139Y-117477782D01*
X94866632Y-117313914D01*
X94942051Y-117131835D01*
X94980500Y-116938541D01*
X94980500Y-116741459D01*
X94980500Y-116741456D01*
X94942052Y-116548170D01*
X94942051Y-116548169D01*
X94942051Y-116548165D01*
X94942049Y-116548160D01*
X94866635Y-116366092D01*
X94866628Y-116366079D01*
X94757139Y-116202218D01*
X94757136Y-116202214D01*
X94617785Y-116062863D01*
X94617781Y-116062860D01*
X94453920Y-115953371D01*
X94453907Y-115953364D01*
X94271839Y-115877950D01*
X94271829Y-115877947D01*
X94078543Y-115839500D01*
X94078541Y-115839500D01*
X93881459Y-115839500D01*
X93881457Y-115839500D01*
X93688170Y-115877947D01*
X93688160Y-115877950D01*
X93506092Y-115953364D01*
X93506079Y-115953371D01*
X93342218Y-116062860D01*
X93342214Y-116062863D01*
X93202863Y-116202214D01*
X93202860Y-116202218D01*
X93093371Y-116366079D01*
X93093364Y-116366092D01*
X93017950Y-116548160D01*
X93017947Y-116548170D01*
X92979500Y-116741456D01*
X92979500Y-116798480D01*
X92959815Y-116865519D01*
X92943181Y-116886161D01*
X88863888Y-120965453D01*
X88863885Y-120965457D01*
X88811602Y-121043705D01*
X88757990Y-121088510D01*
X88688665Y-121097217D01*
X88625637Y-121067063D01*
X88588918Y-121007620D01*
X88584500Y-120974814D01*
X88584500Y-111593519D01*
X88604185Y-111526480D01*
X88620819Y-111505838D01*
X90872578Y-109254079D01*
X93310267Y-106816389D01*
X93371588Y-106782906D01*
X93441280Y-106787890D01*
X93497213Y-106829762D01*
X93521630Y-106895226D01*
X93519563Y-106928263D01*
X93487500Y-107089454D01*
X93487500Y-107089459D01*
X93487500Y-107286541D01*
X93487500Y-107286543D01*
X93487499Y-107286543D01*
X93525947Y-107479829D01*
X93525950Y-107479839D01*
X93601364Y-107661907D01*
X93601371Y-107661920D01*
X93710860Y-107825781D01*
X93710863Y-107825785D01*
X93850214Y-107965136D01*
X93850218Y-107965139D01*
X94014079Y-108074628D01*
X94014092Y-108074635D01*
X94196160Y-108150049D01*
X94196165Y-108150051D01*
X94196169Y-108150051D01*
X94196170Y-108150052D01*
X94389456Y-108188500D01*
X94552548Y-108188500D01*
X94619587Y-108208185D01*
X94640229Y-108224819D01*
X100938181Y-114522771D01*
X100971666Y-114584094D01*
X100974500Y-114610452D01*
X100974500Y-119142659D01*
X100954815Y-119209698D01*
X100906802Y-119253140D01*
X100901355Y-119255915D01*
X100731615Y-119379238D01*
X100731610Y-119379242D01*
X100583242Y-119527610D01*
X100583238Y-119527615D01*
X100459916Y-119697354D01*
X100440484Y-119735492D01*
X100392510Y-119786287D01*
X100324689Y-119803082D01*
X100258554Y-119780544D01*
X100219516Y-119735492D01*
X100200083Y-119697354D01*
X100076761Y-119527615D01*
X100076757Y-119527610D01*
X99928389Y-119379242D01*
X99928384Y-119379238D01*
X99758647Y-119255918D01*
X99758646Y-119255917D01*
X99758644Y-119255916D01*
X99685500Y-119218647D01*
X99571694Y-119160659D01*
X99571691Y-119160658D01*
X99372146Y-119095823D01*
X99268527Y-119079411D01*
X99164909Y-119063000D01*
X98955091Y-119063000D01*
X98886012Y-119073941D01*
X98747853Y-119095823D01*
X98548308Y-119160658D01*
X98548305Y-119160659D01*
X98361352Y-119255918D01*
X98191615Y-119379238D01*
X98191610Y-119379242D01*
X98043242Y-119527610D01*
X98043238Y-119527615D01*
X97919916Y-119697354D01*
X97900484Y-119735492D01*
X97852510Y-119786287D01*
X97784689Y-119803082D01*
X97718554Y-119780544D01*
X97679516Y-119735492D01*
X97660083Y-119697354D01*
X97536761Y-119527615D01*
X97536757Y-119527610D01*
X97388389Y-119379242D01*
X97388384Y-119379238D01*
X97218647Y-119255918D01*
X97218646Y-119255917D01*
X97218644Y-119255916D01*
X97145500Y-119218647D01*
X97031694Y-119160659D01*
X97031691Y-119160658D01*
X96832146Y-119095823D01*
X96728527Y-119079411D01*
X96624909Y-119063000D01*
X96415091Y-119063000D01*
X96346012Y-119073941D01*
X96207853Y-119095823D01*
X96008308Y-119160658D01*
X96008305Y-119160659D01*
X95821352Y-119255918D01*
X95651615Y-119379238D01*
X95651610Y-119379242D01*
X95503242Y-119527610D01*
X95503238Y-119527615D01*
X95379916Y-119697354D01*
X95360484Y-119735492D01*
X95312510Y-119786287D01*
X95244689Y-119803082D01*
X95178554Y-119780544D01*
X95139516Y-119735492D01*
X95120083Y-119697354D01*
X94996761Y-119527615D01*
X94996757Y-119527610D01*
X94848389Y-119379242D01*
X94848384Y-119379238D01*
X94678647Y-119255918D01*
X94678646Y-119255917D01*
X94678644Y-119255916D01*
X94605500Y-119218647D01*
X94491694Y-119160659D01*
X94491691Y-119160658D01*
X94292146Y-119095823D01*
X94188527Y-119079411D01*
X94084909Y-119063000D01*
X93875091Y-119063000D01*
X93806012Y-119073941D01*
X93667853Y-119095823D01*
X93468308Y-119160658D01*
X93468305Y-119160659D01*
X93281352Y-119255918D01*
X93111615Y-119379238D01*
X93111610Y-119379242D01*
X92963242Y-119527610D01*
X92963238Y-119527615D01*
X92839918Y-119697352D01*
X92744659Y-119884305D01*
X92744658Y-119884308D01*
X92679823Y-120083853D01*
X92647000Y-120291091D01*
X92647000Y-120500908D01*
X92679823Y-120708146D01*
X92744658Y-120907691D01*
X92744659Y-120907694D01*
X92794603Y-121005712D01*
X92839785Y-121094387D01*
X92839918Y-121094647D01*
X92963238Y-121264384D01*
X92963242Y-121264389D01*
X93111610Y-121412757D01*
X93111615Y-121412761D01*
X93229959Y-121498742D01*
X93281356Y-121536084D01*
X93403566Y-121598353D01*
X93468305Y-121631340D01*
X93468308Y-121631341D01*
X93568080Y-121663758D01*
X93667855Y-121696177D01*
X93875091Y-121729000D01*
X93875092Y-121729000D01*
X94084908Y-121729000D01*
X94084909Y-121729000D01*
X94292145Y-121696177D01*
X94491694Y-121631340D01*
X94678644Y-121536084D01*
X94848391Y-121412756D01*
X94996756Y-121264391D01*
X95120084Y-121094644D01*
X95139515Y-121056507D01*
X95187489Y-121005712D01*
X95255310Y-120988917D01*
X95321445Y-121011454D01*
X95360485Y-121056508D01*
X95379918Y-121094648D01*
X95503238Y-121264384D01*
X95503242Y-121264389D01*
X95651610Y-121412757D01*
X95651615Y-121412761D01*
X95769959Y-121498742D01*
X95821356Y-121536084D01*
X95943566Y-121598353D01*
X96008305Y-121631340D01*
X96008308Y-121631341D01*
X96108080Y-121663758D01*
X96207855Y-121696177D01*
X96415091Y-121729000D01*
X96415092Y-121729000D01*
X96624908Y-121729000D01*
X96624909Y-121729000D01*
X96832145Y-121696177D01*
X97031694Y-121631340D01*
X97218644Y-121536084D01*
X97388391Y-121412756D01*
X97536756Y-121264391D01*
X97660084Y-121094644D01*
X97679515Y-121056507D01*
X97727489Y-121005712D01*
X97795310Y-120988917D01*
X97861445Y-121011454D01*
X97900485Y-121056508D01*
X97919918Y-121094648D01*
X98043238Y-121264384D01*
X98043242Y-121264389D01*
X98191610Y-121412757D01*
X98191615Y-121412761D01*
X98309959Y-121498742D01*
X98361356Y-121536084D01*
X98483566Y-121598353D01*
X98548305Y-121631340D01*
X98548308Y-121631341D01*
X98648080Y-121663758D01*
X98747855Y-121696177D01*
X98955091Y-121729000D01*
X98955092Y-121729000D01*
X99164908Y-121729000D01*
X99164909Y-121729000D01*
X99372145Y-121696177D01*
X99571694Y-121631340D01*
X99758644Y-121536084D01*
X99928391Y-121412756D01*
X100076756Y-121264391D01*
X100200084Y-121094644D01*
X100219515Y-121056507D01*
X100267489Y-121005712D01*
X100335310Y-120988917D01*
X100401445Y-121011454D01*
X100440485Y-121056508D01*
X100459918Y-121094648D01*
X100583238Y-121264384D01*
X100583242Y-121264389D01*
X100731610Y-121412757D01*
X100731615Y-121412761D01*
X100849959Y-121498742D01*
X100901356Y-121536084D01*
X101023566Y-121598353D01*
X101088305Y-121631340D01*
X101088308Y-121631341D01*
X101188080Y-121663758D01*
X101287855Y-121696177D01*
X101495091Y-121729000D01*
X101495092Y-121729000D01*
X101704908Y-121729000D01*
X101704909Y-121729000D01*
X101912145Y-121696177D01*
X102111694Y-121631340D01*
X102298644Y-121536084D01*
X102468391Y-121412756D01*
X102616756Y-121264391D01*
X102740084Y-121094644D01*
X102759515Y-121056507D01*
X102807489Y-121005712D01*
X102875310Y-120988917D01*
X102941445Y-121011454D01*
X102980485Y-121056508D01*
X102999918Y-121094648D01*
X103123238Y-121264384D01*
X103123242Y-121264389D01*
X103271610Y-121412757D01*
X103271615Y-121412761D01*
X103389959Y-121498742D01*
X103441356Y-121536084D01*
X103563566Y-121598353D01*
X103628305Y-121631340D01*
X103628308Y-121631341D01*
X103728080Y-121663758D01*
X103827855Y-121696177D01*
X104035091Y-121729000D01*
X104035092Y-121729000D01*
X104244908Y-121729000D01*
X104244909Y-121729000D01*
X104452145Y-121696177D01*
X104651694Y-121631340D01*
X104838644Y-121536084D01*
X105008391Y-121412756D01*
X105156756Y-121264391D01*
X105280084Y-121094644D01*
X105299515Y-121056507D01*
X105347489Y-121005712D01*
X105415310Y-120988917D01*
X105481445Y-121011454D01*
X105520485Y-121056508D01*
X105539918Y-121094648D01*
X105663238Y-121264384D01*
X105663242Y-121264389D01*
X105811610Y-121412757D01*
X105811615Y-121412761D01*
X105929959Y-121498742D01*
X105981356Y-121536084D01*
X106103566Y-121598353D01*
X106168305Y-121631340D01*
X106168308Y-121631341D01*
X106268080Y-121663758D01*
X106367855Y-121696177D01*
X106575091Y-121729000D01*
X106575092Y-121729000D01*
X106784908Y-121729000D01*
X106784909Y-121729000D01*
X106992145Y-121696177D01*
X107191694Y-121631340D01*
X107378644Y-121536084D01*
X107548391Y-121412756D01*
X107696756Y-121264391D01*
X107820084Y-121094644D01*
X107839515Y-121056507D01*
X107887489Y-121005712D01*
X107955310Y-120988917D01*
X108021445Y-121011454D01*
X108060485Y-121056508D01*
X108079918Y-121094648D01*
X108203238Y-121264384D01*
X108203242Y-121264389D01*
X108351610Y-121412757D01*
X108351615Y-121412761D01*
X108469959Y-121498742D01*
X108521356Y-121536084D01*
X108643566Y-121598353D01*
X108708305Y-121631340D01*
X108708308Y-121631341D01*
X108808080Y-121663758D01*
X108907855Y-121696177D01*
X109115091Y-121729000D01*
X109115092Y-121729000D01*
X109324908Y-121729000D01*
X109324909Y-121729000D01*
X109532145Y-121696177D01*
X109731694Y-121631340D01*
X109918644Y-121536084D01*
X110088391Y-121412756D01*
X110236756Y-121264391D01*
X110360084Y-121094644D01*
X110379515Y-121056507D01*
X110427489Y-121005712D01*
X110495310Y-120988917D01*
X110561445Y-121011454D01*
X110600485Y-121056508D01*
X110619918Y-121094648D01*
X110743238Y-121264384D01*
X110743242Y-121264389D01*
X110891610Y-121412757D01*
X110891615Y-121412761D01*
X111009959Y-121498742D01*
X111061356Y-121536084D01*
X111183566Y-121598353D01*
X111248305Y-121631340D01*
X111248308Y-121631341D01*
X111348080Y-121663758D01*
X111447855Y-121696177D01*
X111655091Y-121729000D01*
X111655092Y-121729000D01*
X111864908Y-121729000D01*
X111864909Y-121729000D01*
X112072145Y-121696177D01*
X112271694Y-121631340D01*
X112458644Y-121536084D01*
X112628391Y-121412756D01*
X112776756Y-121264391D01*
X112900084Y-121094644D01*
X112919515Y-121056507D01*
X112967489Y-121005712D01*
X113035310Y-120988917D01*
X113101445Y-121011454D01*
X113140485Y-121056508D01*
X113159918Y-121094648D01*
X113283238Y-121264384D01*
X113283242Y-121264389D01*
X113431610Y-121412757D01*
X113431615Y-121412761D01*
X113549959Y-121498742D01*
X113601356Y-121536084D01*
X113723566Y-121598353D01*
X113788305Y-121631340D01*
X113788308Y-121631341D01*
X113888080Y-121663758D01*
X113987855Y-121696177D01*
X114195091Y-121729000D01*
X114195092Y-121729000D01*
X114404908Y-121729000D01*
X114404909Y-121729000D01*
X114612145Y-121696177D01*
X114811694Y-121631340D01*
X114998644Y-121536084D01*
X115168391Y-121412756D01*
X115316756Y-121264391D01*
X115440084Y-121094644D01*
X115459515Y-121056507D01*
X115507489Y-121005712D01*
X115575310Y-120988917D01*
X115641445Y-121011454D01*
X115680485Y-121056508D01*
X115699918Y-121094648D01*
X115823238Y-121264384D01*
X115823242Y-121264389D01*
X115971610Y-121412757D01*
X115971615Y-121412761D01*
X116089959Y-121498742D01*
X116141356Y-121536084D01*
X116263566Y-121598353D01*
X116328305Y-121631340D01*
X116328308Y-121631341D01*
X116428080Y-121663758D01*
X116527855Y-121696177D01*
X116735091Y-121729000D01*
X116735092Y-121729000D01*
X116944908Y-121729000D01*
X116944909Y-121729000D01*
X117152145Y-121696177D01*
X117351694Y-121631340D01*
X117538644Y-121536084D01*
X117708391Y-121412756D01*
X117856756Y-121264391D01*
X117980084Y-121094644D01*
X117999515Y-121056507D01*
X118047489Y-121005712D01*
X118115310Y-120988917D01*
X118181445Y-121011454D01*
X118220485Y-121056508D01*
X118239918Y-121094648D01*
X118363238Y-121264384D01*
X118363242Y-121264389D01*
X118511610Y-121412757D01*
X118511615Y-121412761D01*
X118629959Y-121498742D01*
X118681356Y-121536084D01*
X118803566Y-121598353D01*
X118868305Y-121631340D01*
X118868308Y-121631341D01*
X118968080Y-121663758D01*
X119067855Y-121696177D01*
X119275091Y-121729000D01*
X119275092Y-121729000D01*
X119484908Y-121729000D01*
X119484909Y-121729000D01*
X119692145Y-121696177D01*
X119891694Y-121631340D01*
X120078644Y-121536084D01*
X120248391Y-121412756D01*
X120396756Y-121264391D01*
X120520084Y-121094644D01*
X120539515Y-121056507D01*
X120587489Y-121005712D01*
X120655310Y-120988917D01*
X120721445Y-121011454D01*
X120760485Y-121056508D01*
X120779918Y-121094648D01*
X120903238Y-121264384D01*
X120903242Y-121264389D01*
X121051610Y-121412757D01*
X121051615Y-121412761D01*
X121169959Y-121498742D01*
X121221356Y-121536084D01*
X121343566Y-121598353D01*
X121408305Y-121631340D01*
X121408308Y-121631341D01*
X121508080Y-121663758D01*
X121607855Y-121696177D01*
X121815091Y-121729000D01*
X121815092Y-121729000D01*
X122024908Y-121729000D01*
X122024909Y-121729000D01*
X122232145Y-121696177D01*
X122431694Y-121631340D01*
X122618644Y-121536084D01*
X122788391Y-121412756D01*
X122936756Y-121264391D01*
X123060084Y-121094644D01*
X123079796Y-121055956D01*
X123127768Y-121005162D01*
X123195589Y-120988366D01*
X123261724Y-121010902D01*
X123300764Y-121055956D01*
X123320340Y-121094375D01*
X123357257Y-121145188D01*
X123932129Y-120570316D01*
X123942822Y-120610222D01*
X124015890Y-120736778D01*
X124119222Y-120840110D01*
X124245778Y-120913178D01*
X124285682Y-120923870D01*
X123710809Y-121498741D01*
X123710810Y-121498742D01*
X123761614Y-121535653D01*
X123948493Y-121630874D01*
X124147971Y-121695689D01*
X124355131Y-121728500D01*
X124564869Y-121728500D01*
X124772028Y-121695689D01*
X124971506Y-121630874D01*
X125158374Y-121535659D01*
X125158387Y-121535651D01*
X125209188Y-121498742D01*
X125209189Y-121498741D01*
X124634317Y-120923870D01*
X124674222Y-120913178D01*
X124800778Y-120840110D01*
X124904110Y-120736778D01*
X124977178Y-120610222D01*
X124987870Y-120570317D01*
X125562741Y-121145189D01*
X125562742Y-121145188D01*
X125599651Y-121094387D01*
X125599662Y-121094370D01*
X125619234Y-121055958D01*
X125667208Y-121005162D01*
X125735029Y-120988366D01*
X125801164Y-121010903D01*
X125840203Y-121055956D01*
X125859785Y-121094387D01*
X125859918Y-121094647D01*
X125983238Y-121264384D01*
X125983242Y-121264389D01*
X126131610Y-121412757D01*
X126131615Y-121412761D01*
X126249959Y-121498742D01*
X126301356Y-121536084D01*
X126423566Y-121598353D01*
X126488305Y-121631340D01*
X126488308Y-121631341D01*
X126588080Y-121663758D01*
X126687855Y-121696177D01*
X126895091Y-121729000D01*
X126895092Y-121729000D01*
X127104908Y-121729000D01*
X127104909Y-121729000D01*
X127312145Y-121696177D01*
X127511694Y-121631340D01*
X127698644Y-121536084D01*
X127868391Y-121412756D01*
X128016756Y-121264391D01*
X128140084Y-121094644D01*
X128159515Y-121056507D01*
X128207489Y-121005712D01*
X128275310Y-120988917D01*
X128341445Y-121011454D01*
X128380485Y-121056508D01*
X128399918Y-121094648D01*
X128523238Y-121264384D01*
X128523242Y-121264389D01*
X128671610Y-121412757D01*
X128671615Y-121412761D01*
X128789959Y-121498742D01*
X128841356Y-121536084D01*
X128963566Y-121598353D01*
X129028305Y-121631340D01*
X129028308Y-121631341D01*
X129128080Y-121663758D01*
X129227855Y-121696177D01*
X129435091Y-121729000D01*
X129435092Y-121729000D01*
X129644908Y-121729000D01*
X129644909Y-121729000D01*
X129852145Y-121696177D01*
X130051694Y-121631340D01*
X130238644Y-121536084D01*
X130408391Y-121412756D01*
X130556756Y-121264391D01*
X130680084Y-121094644D01*
X130699515Y-121056507D01*
X130747489Y-121005712D01*
X130815310Y-120988917D01*
X130881445Y-121011454D01*
X130920485Y-121056508D01*
X130939918Y-121094648D01*
X131063238Y-121264384D01*
X131063242Y-121264389D01*
X131211610Y-121412757D01*
X131211615Y-121412761D01*
X131329959Y-121498742D01*
X131381356Y-121536084D01*
X131503566Y-121598353D01*
X131568305Y-121631340D01*
X131568308Y-121631341D01*
X131668080Y-121663758D01*
X131767855Y-121696177D01*
X131975091Y-121729000D01*
X131975092Y-121729000D01*
X132184908Y-121729000D01*
X132184909Y-121729000D01*
X132392145Y-121696177D01*
X132591694Y-121631340D01*
X132778644Y-121536084D01*
X132948391Y-121412756D01*
X133096756Y-121264391D01*
X133220084Y-121094644D01*
X133239515Y-121056507D01*
X133287489Y-121005712D01*
X133355310Y-120988917D01*
X133421445Y-121011454D01*
X133460485Y-121056508D01*
X133479918Y-121094648D01*
X133603238Y-121264384D01*
X133603242Y-121264389D01*
X133751610Y-121412757D01*
X133751615Y-121412761D01*
X133869959Y-121498742D01*
X133921356Y-121536084D01*
X134043566Y-121598353D01*
X134108305Y-121631340D01*
X134108308Y-121631341D01*
X134208080Y-121663758D01*
X134307855Y-121696177D01*
X134515091Y-121729000D01*
X134515092Y-121729000D01*
X134724908Y-121729000D01*
X134724909Y-121729000D01*
X134932145Y-121696177D01*
X135131694Y-121631340D01*
X135318644Y-121536084D01*
X135488391Y-121412756D01*
X135636756Y-121264391D01*
X135760084Y-121094644D01*
X135779515Y-121056507D01*
X135827489Y-121005712D01*
X135895310Y-120988917D01*
X135961445Y-121011454D01*
X136000485Y-121056508D01*
X136019918Y-121094648D01*
X136143238Y-121264384D01*
X136143242Y-121264389D01*
X136291610Y-121412757D01*
X136291615Y-121412761D01*
X136409959Y-121498742D01*
X136461356Y-121536084D01*
X136583566Y-121598353D01*
X136648305Y-121631340D01*
X136648308Y-121631341D01*
X136748080Y-121663758D01*
X136847855Y-121696177D01*
X137055091Y-121729000D01*
X137055092Y-121729000D01*
X137264908Y-121729000D01*
X137264909Y-121729000D01*
X137472145Y-121696177D01*
X137671694Y-121631340D01*
X137858644Y-121536084D01*
X138028391Y-121412756D01*
X138176756Y-121264391D01*
X138300084Y-121094644D01*
X138319796Y-121055956D01*
X138367768Y-121005162D01*
X138435589Y-120988366D01*
X138501724Y-121010902D01*
X138540764Y-121055956D01*
X138560340Y-121094375D01*
X138597257Y-121145188D01*
X139172129Y-120570316D01*
X139182822Y-120610222D01*
X139255890Y-120736778D01*
X139359222Y-120840110D01*
X139485778Y-120913178D01*
X139525682Y-120923870D01*
X138950809Y-121498741D01*
X138950810Y-121498742D01*
X139001614Y-121535653D01*
X139188493Y-121630874D01*
X139387971Y-121695689D01*
X139595131Y-121728500D01*
X139804869Y-121728500D01*
X140012028Y-121695689D01*
X140211506Y-121630874D01*
X140398374Y-121535659D01*
X140398387Y-121535651D01*
X140449188Y-121498742D01*
X140449189Y-121498741D01*
X139874317Y-120923870D01*
X139914222Y-120913178D01*
X140040778Y-120840110D01*
X140144110Y-120736778D01*
X140217178Y-120610222D01*
X140227870Y-120570317D01*
X140802741Y-121145189D01*
X140802742Y-121145188D01*
X140839651Y-121094387D01*
X140839659Y-121094374D01*
X140934874Y-120907506D01*
X140999689Y-120708028D01*
X141032500Y-120500869D01*
X141032500Y-120291130D01*
X140999689Y-120083971D01*
X140934874Y-119884493D01*
X140839653Y-119697614D01*
X140802742Y-119646810D01*
X140802741Y-119646809D01*
X140227870Y-120221681D01*
X140217178Y-120181778D01*
X140144110Y-120055222D01*
X140040778Y-119951890D01*
X139914222Y-119878822D01*
X139874315Y-119868129D01*
X140449188Y-119293257D01*
X140398378Y-119256342D01*
X140211506Y-119161125D01*
X140012028Y-119096310D01*
X139804869Y-119063500D01*
X139595131Y-119063500D01*
X139387971Y-119096310D01*
X139188493Y-119161125D01*
X139001611Y-119256347D01*
X138950810Y-119293256D01*
X138950810Y-119293257D01*
X139525682Y-119868129D01*
X139485778Y-119878822D01*
X139359222Y-119951890D01*
X139255890Y-120055222D01*
X139182822Y-120181778D01*
X139172129Y-120221682D01*
X138597257Y-119646810D01*
X138597256Y-119646810D01*
X138560347Y-119697611D01*
X138540764Y-119736045D01*
X138492788Y-119786840D01*
X138424967Y-119803634D01*
X138358832Y-119781095D01*
X138319796Y-119736043D01*
X138300084Y-119697356D01*
X138300082Y-119697353D01*
X138300081Y-119697351D01*
X138176761Y-119527615D01*
X138176757Y-119527610D01*
X138028389Y-119379242D01*
X138028384Y-119379238D01*
X137858647Y-119255918D01*
X137858646Y-119255917D01*
X137858644Y-119255916D01*
X137785500Y-119218647D01*
X137671694Y-119160659D01*
X137671691Y-119160658D01*
X137472146Y-119095823D01*
X137368527Y-119079411D01*
X137264909Y-119063000D01*
X137055091Y-119063000D01*
X137026938Y-119067459D01*
X136847855Y-119095822D01*
X136842047Y-119097710D01*
X136772206Y-119099704D01*
X136716050Y-119067459D01*
X123424896Y-105776305D01*
X123421860Y-105773269D01*
X123421858Y-105773267D01*
X123334733Y-105686142D01*
X123283509Y-105651915D01*
X123232286Y-105617688D01*
X123232283Y-105617686D01*
X123232280Y-105617685D01*
X123158603Y-105587168D01*
X123158601Y-105587167D01*
X123151792Y-105584347D01*
X123118452Y-105570537D01*
X123058029Y-105558518D01*
X123053306Y-105557578D01*
X123053304Y-105557578D01*
X122997610Y-105546500D01*
X122997607Y-105546500D01*
X122997606Y-105546500D01*
X96830452Y-105546500D01*
X96763413Y-105526815D01*
X96742771Y-105510181D01*
X92111301Y-100878711D01*
X97649500Y-100878711D01*
X97649500Y-101121288D01*
X97681161Y-101361785D01*
X97743947Y-101596104D01*
X97786378Y-101698541D01*
X97836776Y-101820212D01*
X97958064Y-102030289D01*
X97958066Y-102030292D01*
X97958067Y-102030293D01*
X98105733Y-102222736D01*
X98105739Y-102222743D01*
X98277256Y-102394260D01*
X98277262Y-102394265D01*
X98469711Y-102541936D01*
X98679788Y-102663224D01*
X98903900Y-102756054D01*
X99138211Y-102818838D01*
X99318586Y-102842584D01*
X99378711Y-102850500D01*
X99378712Y-102850500D01*
X99621289Y-102850500D01*
X99669388Y-102844167D01*
X99861789Y-102818838D01*
X100096100Y-102756054D01*
X100320212Y-102663224D01*
X100530289Y-102541936D01*
X100722738Y-102394265D01*
X100894265Y-102222738D01*
X101041936Y-102030289D01*
X101163224Y-101820212D01*
X101256054Y-101596100D01*
X101318838Y-101361789D01*
X101350500Y-101121288D01*
X101350500Y-100878712D01*
X101350500Y-100878711D01*
X121649500Y-100878711D01*
X121649500Y-101121288D01*
X121681161Y-101361785D01*
X121743947Y-101596104D01*
X121786378Y-101698541D01*
X121836776Y-101820212D01*
X121958064Y-102030289D01*
X121958066Y-102030292D01*
X121958067Y-102030293D01*
X122105733Y-102222736D01*
X122105739Y-102222743D01*
X122277256Y-102394260D01*
X122277262Y-102394265D01*
X122469711Y-102541936D01*
X122679788Y-102663224D01*
X122903900Y-102756054D01*
X123138211Y-102818838D01*
X123318586Y-102842584D01*
X123378711Y-102850500D01*
X123378712Y-102850500D01*
X123621289Y-102850500D01*
X123669388Y-102844167D01*
X123861789Y-102818838D01*
X124096100Y-102756054D01*
X124320212Y-102663224D01*
X124530289Y-102541936D01*
X124722738Y-102394265D01*
X124894265Y-102222738D01*
X125041936Y-102030289D01*
X125163224Y-101820212D01*
X125256054Y-101596100D01*
X125318838Y-101361789D01*
X125350500Y-101121288D01*
X125350500Y-100878712D01*
X125318838Y-100638211D01*
X125256054Y-100403900D01*
X125163224Y-100179788D01*
X125041936Y-99969711D01*
X124894265Y-99777262D01*
X124894260Y-99777256D01*
X124722743Y-99605739D01*
X124722736Y-99605733D01*
X124530293Y-99458067D01*
X124530292Y-99458066D01*
X124530289Y-99458064D01*
X124320212Y-99336776D01*
X124320205Y-99336773D01*
X124096104Y-99243947D01*
X123861785Y-99181161D01*
X123621289Y-99149500D01*
X123621288Y-99149500D01*
X123378712Y-99149500D01*
X123378711Y-99149500D01*
X123138214Y-99181161D01*
X122903895Y-99243947D01*
X122679794Y-99336773D01*
X122679785Y-99336777D01*
X122469706Y-99458067D01*
X122277263Y-99605733D01*
X122277256Y-99605739D01*
X122105739Y-99777256D01*
X122105733Y-99777263D01*
X121958067Y-99969706D01*
X121836777Y-100179785D01*
X121836773Y-100179794D01*
X121743947Y-100403895D01*
X121681161Y-100638214D01*
X121649500Y-100878711D01*
X101350500Y-100878711D01*
X101318838Y-100638211D01*
X101256054Y-100403900D01*
X101163224Y-100179788D01*
X101041936Y-99969711D01*
X100894265Y-99777262D01*
X100894260Y-99777256D01*
X100722743Y-99605739D01*
X100722736Y-99605733D01*
X100530293Y-99458067D01*
X100530292Y-99458066D01*
X100530289Y-99458064D01*
X100320212Y-99336776D01*
X100320205Y-99336773D01*
X100096104Y-99243947D01*
X99861785Y-99181161D01*
X99621289Y-99149500D01*
X99621288Y-99149500D01*
X99378712Y-99149500D01*
X99378711Y-99149500D01*
X99138214Y-99181161D01*
X98903895Y-99243947D01*
X98679794Y-99336773D01*
X98679785Y-99336777D01*
X98469706Y-99458067D01*
X98277263Y-99605733D01*
X98277256Y-99605739D01*
X98105739Y-99777256D01*
X98105733Y-99777263D01*
X97958067Y-99969706D01*
X97836777Y-100179785D01*
X97836773Y-100179794D01*
X97743947Y-100403895D01*
X97681161Y-100638214D01*
X97649500Y-100878711D01*
X92111301Y-100878711D01*
X89465853Y-98233263D01*
X89432368Y-98171940D01*
X89437352Y-98102248D01*
X89479224Y-98046315D01*
X89529342Y-98023965D01*
X89648720Y-98000218D01*
X89699835Y-97990051D01*
X89881914Y-97914632D01*
X90045782Y-97805139D01*
X90185139Y-97665782D01*
X90294632Y-97501914D01*
X90370051Y-97319835D01*
X90408500Y-97126541D01*
X90408500Y-97069518D01*
X90428185Y-97002479D01*
X90444819Y-96981837D01*
X92435319Y-94991337D01*
X92496642Y-94957852D01*
X92566334Y-94962836D01*
X92622267Y-95004708D01*
X92646684Y-95070172D01*
X92647000Y-95079018D01*
X92647000Y-95100908D01*
X92679823Y-95308146D01*
X92744658Y-95507691D01*
X92744659Y-95507694D01*
X92794603Y-95605712D01*
X92839785Y-95694387D01*
X92839918Y-95694647D01*
X92963238Y-95864384D01*
X92963242Y-95864389D01*
X93111610Y-96012757D01*
X93111615Y-96012761D01*
X93229959Y-96098742D01*
X93281356Y-96136084D01*
X93375993Y-96184304D01*
X93468305Y-96231340D01*
X93468308Y-96231341D01*
X93568080Y-96263758D01*
X93667855Y-96296177D01*
X93875091Y-96329000D01*
X93875092Y-96329000D01*
X94084908Y-96329000D01*
X94084909Y-96329000D01*
X94292145Y-96296177D01*
X94491694Y-96231340D01*
X94678644Y-96136084D01*
X94848391Y-96012756D01*
X94996756Y-95864391D01*
X95120084Y-95694644D01*
X95139515Y-95656507D01*
X95187489Y-95605712D01*
X95255310Y-95588917D01*
X95321445Y-95611454D01*
X95360485Y-95656508D01*
X95379918Y-95694648D01*
X95503238Y-95864384D01*
X95503242Y-95864389D01*
X95651610Y-96012757D01*
X95651615Y-96012761D01*
X95769959Y-96098742D01*
X95821356Y-96136084D01*
X95915993Y-96184304D01*
X96008305Y-96231340D01*
X96008308Y-96231341D01*
X96108080Y-96263758D01*
X96207855Y-96296177D01*
X96415091Y-96329000D01*
X96415092Y-96329000D01*
X96624908Y-96329000D01*
X96624909Y-96329000D01*
X96832145Y-96296177D01*
X97031694Y-96231340D01*
X97218644Y-96136084D01*
X97388391Y-96012756D01*
X97536756Y-95864391D01*
X97660084Y-95694644D01*
X97679515Y-95656507D01*
X97727489Y-95605712D01*
X97795310Y-95588917D01*
X97861445Y-95611454D01*
X97900485Y-95656508D01*
X97919918Y-95694648D01*
X98043238Y-95864384D01*
X98043242Y-95864389D01*
X98191610Y-96012757D01*
X98191615Y-96012761D01*
X98309959Y-96098742D01*
X98361356Y-96136084D01*
X98455993Y-96184304D01*
X98548305Y-96231340D01*
X98548308Y-96231341D01*
X98648080Y-96263758D01*
X98747855Y-96296177D01*
X98955091Y-96329000D01*
X98955092Y-96329000D01*
X99164908Y-96329000D01*
X99164909Y-96329000D01*
X99372145Y-96296177D01*
X99571694Y-96231340D01*
X99758644Y-96136084D01*
X99928391Y-96012756D01*
X100076756Y-95864391D01*
X100200084Y-95694644D01*
X100219515Y-95656507D01*
X100267489Y-95605712D01*
X100335310Y-95588917D01*
X100401445Y-95611454D01*
X100440485Y-95656508D01*
X100459918Y-95694648D01*
X100583238Y-95864384D01*
X100583242Y-95864389D01*
X100731610Y-96012757D01*
X100731615Y-96012761D01*
X100849959Y-96098742D01*
X100901356Y-96136084D01*
X100995993Y-96184304D01*
X101088305Y-96231340D01*
X101088308Y-96231341D01*
X101188080Y-96263758D01*
X101287855Y-96296177D01*
X101495091Y-96329000D01*
X101495092Y-96329000D01*
X101704908Y-96329000D01*
X101704909Y-96329000D01*
X101912145Y-96296177D01*
X102111694Y-96231340D01*
X102298644Y-96136084D01*
X102468391Y-96012756D01*
X102616756Y-95864391D01*
X102740084Y-95694644D01*
X102759515Y-95656507D01*
X102807489Y-95605712D01*
X102875310Y-95588917D01*
X102941445Y-95611454D01*
X102980485Y-95656508D01*
X102999918Y-95694648D01*
X103123238Y-95864384D01*
X103123242Y-95864389D01*
X103271610Y-96012757D01*
X103271615Y-96012761D01*
X103389959Y-96098742D01*
X103441356Y-96136084D01*
X103535993Y-96184304D01*
X103628305Y-96231340D01*
X103628308Y-96231341D01*
X103728080Y-96263758D01*
X103827855Y-96296177D01*
X104035091Y-96329000D01*
X104035092Y-96329000D01*
X104244908Y-96329000D01*
X104244909Y-96329000D01*
X104452145Y-96296177D01*
X104651694Y-96231340D01*
X104838644Y-96136084D01*
X105008391Y-96012756D01*
X105156756Y-95864391D01*
X105280084Y-95694644D01*
X105299796Y-95655956D01*
X105347768Y-95605162D01*
X105415589Y-95588366D01*
X105481724Y-95610902D01*
X105520764Y-95655956D01*
X105540340Y-95694375D01*
X105577257Y-95745188D01*
X106152129Y-95170316D01*
X106162822Y-95210222D01*
X106235890Y-95336778D01*
X106339222Y-95440110D01*
X106465778Y-95513178D01*
X106505682Y-95523870D01*
X105930809Y-96098741D01*
X105930810Y-96098742D01*
X105981614Y-96135653D01*
X106168493Y-96230874D01*
X106367971Y-96295689D01*
X106575131Y-96328500D01*
X106784869Y-96328500D01*
X106992028Y-96295689D01*
X107191506Y-96230874D01*
X107378374Y-96135659D01*
X107378387Y-96135651D01*
X107429188Y-96098742D01*
X107429189Y-96098741D01*
X106854317Y-95523870D01*
X106894222Y-95513178D01*
X107020778Y-95440110D01*
X107124110Y-95336778D01*
X107197178Y-95210222D01*
X107207870Y-95170317D01*
X107782741Y-95745189D01*
X107782742Y-95745188D01*
X107819651Y-95694387D01*
X107819662Y-95694370D01*
X107839234Y-95655958D01*
X107887208Y-95605162D01*
X107955029Y-95588366D01*
X108021164Y-95610903D01*
X108060203Y-95655956D01*
X108079785Y-95694387D01*
X108079918Y-95694647D01*
X108203238Y-95864384D01*
X108203242Y-95864389D01*
X108351610Y-96012757D01*
X108351615Y-96012761D01*
X108469959Y-96098742D01*
X108521356Y-96136084D01*
X108615993Y-96184304D01*
X108708305Y-96231340D01*
X108708308Y-96231341D01*
X108808080Y-96263758D01*
X108907855Y-96296177D01*
X109115091Y-96329000D01*
X109115092Y-96329000D01*
X109324908Y-96329000D01*
X109324909Y-96329000D01*
X109532145Y-96296177D01*
X109731694Y-96231340D01*
X109918644Y-96136084D01*
X110088391Y-96012756D01*
X110236756Y-95864391D01*
X110360084Y-95694644D01*
X110379515Y-95656507D01*
X110427489Y-95605712D01*
X110495310Y-95588917D01*
X110561445Y-95611454D01*
X110600485Y-95656508D01*
X110619918Y-95694648D01*
X110743238Y-95864384D01*
X110743242Y-95864389D01*
X110891610Y-96012757D01*
X110891615Y-96012761D01*
X111009959Y-96098742D01*
X111061356Y-96136084D01*
X111155993Y-96184304D01*
X111248305Y-96231340D01*
X111248308Y-96231341D01*
X111348080Y-96263758D01*
X111447855Y-96296177D01*
X111655091Y-96329000D01*
X111655092Y-96329000D01*
X111864908Y-96329000D01*
X111864909Y-96329000D01*
X112072145Y-96296177D01*
X112271694Y-96231340D01*
X112458644Y-96136084D01*
X112628391Y-96012756D01*
X112776756Y-95864391D01*
X112900084Y-95694644D01*
X112919515Y-95656507D01*
X112967489Y-95605712D01*
X113035310Y-95588917D01*
X113101445Y-95611454D01*
X113140485Y-95656508D01*
X113159918Y-95694648D01*
X113283238Y-95864384D01*
X113283242Y-95864389D01*
X113431610Y-96012757D01*
X113431615Y-96012761D01*
X113549959Y-96098742D01*
X113601356Y-96136084D01*
X113695993Y-96184304D01*
X113788305Y-96231340D01*
X113788308Y-96231341D01*
X113888080Y-96263758D01*
X113987855Y-96296177D01*
X114195091Y-96329000D01*
X114195092Y-96329000D01*
X114404908Y-96329000D01*
X114404909Y-96329000D01*
X114612145Y-96296177D01*
X114811694Y-96231340D01*
X114998644Y-96136084D01*
X115168391Y-96012756D01*
X115316756Y-95864391D01*
X115440084Y-95694644D01*
X115459515Y-95656507D01*
X115507489Y-95605712D01*
X115575310Y-95588917D01*
X115641445Y-95611454D01*
X115680485Y-95656508D01*
X115699918Y-95694648D01*
X115823238Y-95864384D01*
X115823242Y-95864389D01*
X115971610Y-96012757D01*
X115971615Y-96012761D01*
X116089959Y-96098742D01*
X116141356Y-96136084D01*
X116235993Y-96184304D01*
X116328305Y-96231340D01*
X116328308Y-96231341D01*
X116428080Y-96263758D01*
X116527855Y-96296177D01*
X116735091Y-96329000D01*
X116735092Y-96329000D01*
X116944908Y-96329000D01*
X116944909Y-96329000D01*
X117152145Y-96296177D01*
X117351694Y-96231340D01*
X117538644Y-96136084D01*
X117708391Y-96012756D01*
X117856756Y-95864391D01*
X117980084Y-95694644D01*
X117999515Y-95656507D01*
X118047489Y-95605712D01*
X118115310Y-95588917D01*
X118181445Y-95611454D01*
X118220485Y-95656508D01*
X118239918Y-95694648D01*
X118363238Y-95864384D01*
X118363242Y-95864389D01*
X118511610Y-96012757D01*
X118511615Y-96012761D01*
X118629959Y-96098742D01*
X118681356Y-96136084D01*
X118775993Y-96184304D01*
X118868305Y-96231340D01*
X118868308Y-96231341D01*
X118968080Y-96263758D01*
X119067855Y-96296177D01*
X119275091Y-96329000D01*
X119275092Y-96329000D01*
X119484908Y-96329000D01*
X119484909Y-96329000D01*
X119692145Y-96296177D01*
X119891694Y-96231340D01*
X120078644Y-96136084D01*
X120248391Y-96012756D01*
X120396756Y-95864391D01*
X120520084Y-95694644D01*
X120539515Y-95656507D01*
X120587489Y-95605712D01*
X120655310Y-95588917D01*
X120721445Y-95611454D01*
X120760485Y-95656508D01*
X120779918Y-95694648D01*
X120903238Y-95864384D01*
X120903242Y-95864389D01*
X121051610Y-96012757D01*
X121051615Y-96012761D01*
X121169959Y-96098742D01*
X121221356Y-96136084D01*
X121315993Y-96184304D01*
X121408305Y-96231340D01*
X121408308Y-96231341D01*
X121508080Y-96263758D01*
X121607855Y-96296177D01*
X121815091Y-96329000D01*
X121815092Y-96329000D01*
X122024908Y-96329000D01*
X122024909Y-96329000D01*
X122232145Y-96296177D01*
X122431694Y-96231340D01*
X122618644Y-96136084D01*
X122788391Y-96012756D01*
X122936756Y-95864391D01*
X123060084Y-95694644D01*
X123079515Y-95656507D01*
X123127489Y-95605712D01*
X123195310Y-95588917D01*
X123261445Y-95611454D01*
X123300485Y-95656508D01*
X123319918Y-95694648D01*
X123443238Y-95864384D01*
X123443242Y-95864389D01*
X123591610Y-96012757D01*
X123591615Y-96012761D01*
X123709959Y-96098742D01*
X123761356Y-96136084D01*
X123855993Y-96184304D01*
X123948305Y-96231340D01*
X123948308Y-96231341D01*
X124048080Y-96263758D01*
X124147855Y-96296177D01*
X124355091Y-96329000D01*
X124355092Y-96329000D01*
X124564908Y-96329000D01*
X124564909Y-96329000D01*
X124772145Y-96296177D01*
X124971694Y-96231340D01*
X125158644Y-96136084D01*
X125328391Y-96012756D01*
X125476756Y-95864391D01*
X125600084Y-95694644D01*
X125619515Y-95656507D01*
X125667489Y-95605712D01*
X125735310Y-95588917D01*
X125801445Y-95611454D01*
X125840485Y-95656508D01*
X125859918Y-95694648D01*
X125983238Y-95864384D01*
X125983242Y-95864389D01*
X126131610Y-96012757D01*
X126131615Y-96012761D01*
X126249959Y-96098742D01*
X126301356Y-96136084D01*
X126395993Y-96184304D01*
X126488305Y-96231340D01*
X126488308Y-96231341D01*
X126588080Y-96263758D01*
X126687855Y-96296177D01*
X126895091Y-96329000D01*
X126895092Y-96329000D01*
X127104908Y-96329000D01*
X127104909Y-96329000D01*
X127312145Y-96296177D01*
X127511694Y-96231340D01*
X127698644Y-96136084D01*
X127868391Y-96012756D01*
X128016756Y-95864391D01*
X128140084Y-95694644D01*
X128159515Y-95656507D01*
X128207489Y-95605712D01*
X128275310Y-95588917D01*
X128341445Y-95611454D01*
X128380485Y-95656508D01*
X128399918Y-95694648D01*
X128523238Y-95864384D01*
X128523242Y-95864389D01*
X128671610Y-96012757D01*
X128671615Y-96012761D01*
X128789959Y-96098742D01*
X128841356Y-96136084D01*
X128935993Y-96184304D01*
X129028305Y-96231340D01*
X129028308Y-96231341D01*
X129128080Y-96263758D01*
X129227855Y-96296177D01*
X129435091Y-96329000D01*
X129435092Y-96329000D01*
X129644908Y-96329000D01*
X129644909Y-96329000D01*
X129852145Y-96296177D01*
X130051694Y-96231340D01*
X130238644Y-96136084D01*
X130408391Y-96012756D01*
X130556756Y-95864391D01*
X130680084Y-95694644D01*
X130699515Y-95656507D01*
X130747489Y-95605712D01*
X130815310Y-95588917D01*
X130881445Y-95611454D01*
X130920485Y-95656508D01*
X130939918Y-95694648D01*
X131063238Y-95864384D01*
X131063242Y-95864389D01*
X131211610Y-96012757D01*
X131211615Y-96012761D01*
X131329959Y-96098742D01*
X131381356Y-96136084D01*
X131475993Y-96184304D01*
X131568305Y-96231340D01*
X131568308Y-96231341D01*
X131668080Y-96263758D01*
X131767855Y-96296177D01*
X131975091Y-96329000D01*
X131975092Y-96329000D01*
X132184908Y-96329000D01*
X132184909Y-96329000D01*
X132392145Y-96296177D01*
X132591694Y-96231340D01*
X132778644Y-96136084D01*
X132948391Y-96012756D01*
X133096756Y-95864391D01*
X133220084Y-95694644D01*
X133239515Y-95656507D01*
X133287489Y-95605712D01*
X133355310Y-95588917D01*
X133421445Y-95611454D01*
X133460485Y-95656508D01*
X133479918Y-95694648D01*
X133603238Y-95864384D01*
X133603242Y-95864389D01*
X133751610Y-96012757D01*
X133751615Y-96012761D01*
X133869959Y-96098742D01*
X133921356Y-96136084D01*
X134015993Y-96184304D01*
X134108305Y-96231340D01*
X134108308Y-96231341D01*
X134208080Y-96263758D01*
X134307855Y-96296177D01*
X134515091Y-96329000D01*
X134515092Y-96329000D01*
X134724908Y-96329000D01*
X134724909Y-96329000D01*
X134932145Y-96296177D01*
X135131694Y-96231340D01*
X135318644Y-96136084D01*
X135488391Y-96012756D01*
X135636756Y-95864391D01*
X135760084Y-95694644D01*
X135779515Y-95656507D01*
X135827489Y-95605712D01*
X135895310Y-95588917D01*
X135961445Y-95611454D01*
X136000485Y-95656508D01*
X136019918Y-95694648D01*
X136143238Y-95864384D01*
X136143242Y-95864389D01*
X136291610Y-96012757D01*
X136291615Y-96012761D01*
X136409959Y-96098742D01*
X136461356Y-96136084D01*
X136555993Y-96184304D01*
X136648305Y-96231340D01*
X136648308Y-96231341D01*
X136748080Y-96263758D01*
X136847855Y-96296177D01*
X137055091Y-96329000D01*
X137055092Y-96329000D01*
X137264908Y-96329000D01*
X137264909Y-96329000D01*
X137472145Y-96296177D01*
X137671694Y-96231340D01*
X137858644Y-96136084D01*
X137996781Y-96035721D01*
X138028383Y-96012762D01*
X138028383Y-96012761D01*
X138028391Y-96012756D01*
X138164916Y-95876230D01*
X138226235Y-95842748D01*
X138295927Y-95847732D01*
X138351861Y-95889603D01*
X138370228Y-95928890D01*
X138370698Y-95928715D01*
X138372875Y-95934552D01*
X138373271Y-95935399D01*
X138373409Y-95935984D01*
X138423702Y-96070828D01*
X138423706Y-96070835D01*
X138509952Y-96186044D01*
X138509955Y-96186047D01*
X138625164Y-96272293D01*
X138625171Y-96272297D01*
X138670118Y-96289061D01*
X138760017Y-96322591D01*
X138819627Y-96329000D01*
X138875500Y-96328999D01*
X138942538Y-96348682D01*
X138988293Y-96401486D01*
X138999500Y-96452999D01*
X138999500Y-108135006D01*
X138999500Y-108272994D01*
X138999500Y-108272996D01*
X138999499Y-108272996D01*
X139026418Y-108408322D01*
X139026421Y-108408332D01*
X139079222Y-108535807D01*
X139155887Y-108650545D01*
X139155888Y-108650546D01*
X141853084Y-111347741D01*
X141886569Y-111409064D01*
X141887020Y-111411230D01*
X141906143Y-111507368D01*
X141906146Y-111507378D01*
X141972138Y-111666698D01*
X141972145Y-111666711D01*
X142067954Y-111810098D01*
X142067957Y-111810102D01*
X142189897Y-111932042D01*
X142189901Y-111932045D01*
X142333288Y-112027854D01*
X142333301Y-112027861D01*
X142492621Y-112093853D01*
X142492626Y-112093855D01*
X142661766Y-112127499D01*
X142661769Y-112127500D01*
X142661771Y-112127500D01*
X142834231Y-112127500D01*
X142834232Y-112127499D01*
X143003374Y-112093855D01*
X143162705Y-112027858D01*
X143306099Y-111932045D01*
X143428045Y-111810099D01*
X143523858Y-111666705D01*
X143589855Y-111507374D01*
X143623500Y-111338229D01*
X143623500Y-111165771D01*
X143623500Y-111165768D01*
X143623499Y-111165766D01*
X143589855Y-110996626D01*
X143589853Y-110996621D01*
X143523861Y-110837301D01*
X143523854Y-110837288D01*
X143428045Y-110693901D01*
X143428042Y-110693897D01*
X143306102Y-110571957D01*
X143306098Y-110571954D01*
X143162711Y-110476145D01*
X143162698Y-110476138D01*
X143003378Y-110410146D01*
X143003368Y-110410143D01*
X142907230Y-110391020D01*
X142845319Y-110358635D01*
X142843741Y-110357084D01*
X140436819Y-107950162D01*
X140403334Y-107888839D01*
X140400500Y-107862481D01*
X140400500Y-96452999D01*
X140420185Y-96385960D01*
X140472989Y-96340205D01*
X140524500Y-96328999D01*
X140580371Y-96328999D01*
X140580372Y-96328999D01*
X140639983Y-96322591D01*
X140774831Y-96272296D01*
X140890046Y-96186046D01*
X140976296Y-96070831D01*
X141026591Y-95935983D01*
X141033000Y-95876373D01*
X141032999Y-94115628D01*
X141026591Y-94056017D01*
X140997954Y-93979238D01*
X140976297Y-93921171D01*
X140976293Y-93921164D01*
X140890047Y-93805955D01*
X140890044Y-93805952D01*
X140774835Y-93719706D01*
X140774828Y-93719702D01*
X140639982Y-93669408D01*
X140639983Y-93669408D01*
X140580383Y-93663001D01*
X140580381Y-93663000D01*
X140580373Y-93663000D01*
X140580364Y-93663000D01*
X138819629Y-93663000D01*
X138819623Y-93663001D01*
X138760016Y-93669408D01*
X138625171Y-93719702D01*
X138625164Y-93719706D01*
X138509955Y-93805952D01*
X138509952Y-93805955D01*
X138423706Y-93921164D01*
X138423702Y-93921171D01*
X138373407Y-94056019D01*
X138373270Y-94056603D01*
X138373038Y-94057009D01*
X138370698Y-94063285D01*
X138369680Y-94062905D01*
X138338695Y-94117319D01*
X138276783Y-94149703D01*
X138207192Y-94143474D01*
X138164913Y-94115766D01*
X138028389Y-93979242D01*
X138028384Y-93979238D01*
X137858647Y-93855918D01*
X137858646Y-93855917D01*
X137858644Y-93855916D01*
X137798750Y-93825398D01*
X137671694Y-93760659D01*
X137671691Y-93760658D01*
X137472146Y-93695823D01*
X137368527Y-93679411D01*
X137264909Y-93663000D01*
X137055091Y-93663000D01*
X136986012Y-93673941D01*
X136847853Y-93695823D01*
X136648308Y-93760658D01*
X136648305Y-93760659D01*
X136461352Y-93855918D01*
X136291615Y-93979238D01*
X136291610Y-93979242D01*
X136143242Y-94127610D01*
X136143238Y-94127615D01*
X136019916Y-94297354D01*
X136000484Y-94335492D01*
X135952510Y-94386287D01*
X135884689Y-94403082D01*
X135818554Y-94380544D01*
X135779516Y-94335492D01*
X135760083Y-94297354D01*
X135636761Y-94127615D01*
X135636757Y-94127610D01*
X135488389Y-93979242D01*
X135488384Y-93979238D01*
X135318647Y-93855918D01*
X135318646Y-93855917D01*
X135318644Y-93855916D01*
X135258750Y-93825398D01*
X135131694Y-93760659D01*
X135131691Y-93760658D01*
X134932146Y-93695823D01*
X134828527Y-93679411D01*
X134724909Y-93663000D01*
X134515091Y-93663000D01*
X134446012Y-93673941D01*
X134307853Y-93695823D01*
X134108308Y-93760658D01*
X134108305Y-93760659D01*
X133921352Y-93855918D01*
X133751615Y-93979238D01*
X133751610Y-93979242D01*
X133603242Y-94127610D01*
X133603238Y-94127615D01*
X133479916Y-94297354D01*
X133460484Y-94335492D01*
X133412510Y-94386287D01*
X133344689Y-94403082D01*
X133278554Y-94380544D01*
X133239516Y-94335492D01*
X133220083Y-94297354D01*
X133096761Y-94127615D01*
X133096757Y-94127610D01*
X132948389Y-93979242D01*
X132948384Y-93979238D01*
X132778647Y-93855918D01*
X132778646Y-93855917D01*
X132778644Y-93855916D01*
X132718750Y-93825398D01*
X132591694Y-93760659D01*
X132591691Y-93760658D01*
X132392146Y-93695823D01*
X132288527Y-93679411D01*
X132184909Y-93663000D01*
X131975091Y-93663000D01*
X131906012Y-93673941D01*
X131767853Y-93695823D01*
X131568308Y-93760658D01*
X131568305Y-93760659D01*
X131381352Y-93855918D01*
X131211615Y-93979238D01*
X131211610Y-93979242D01*
X131063242Y-94127610D01*
X131063238Y-94127615D01*
X130939916Y-94297354D01*
X130920484Y-94335492D01*
X130872510Y-94386287D01*
X130804689Y-94403082D01*
X130738554Y-94380544D01*
X130699516Y-94335492D01*
X130680083Y-94297354D01*
X130556761Y-94127615D01*
X130556757Y-94127610D01*
X130408389Y-93979242D01*
X130408384Y-93979238D01*
X130238647Y-93855918D01*
X130238646Y-93855917D01*
X130238644Y-93855916D01*
X130178750Y-93825398D01*
X130051694Y-93760659D01*
X130051691Y-93760658D01*
X129852146Y-93695823D01*
X129748527Y-93679411D01*
X129644909Y-93663000D01*
X129435091Y-93663000D01*
X129366012Y-93673941D01*
X129227853Y-93695823D01*
X129028308Y-93760658D01*
X129028305Y-93760659D01*
X128841352Y-93855918D01*
X128671615Y-93979238D01*
X128671610Y-93979242D01*
X128523242Y-94127610D01*
X128523238Y-94127615D01*
X128399916Y-94297354D01*
X128380484Y-94335492D01*
X128332510Y-94386287D01*
X128264689Y-94403082D01*
X128198554Y-94380544D01*
X128159516Y-94335492D01*
X128140083Y-94297354D01*
X128016761Y-94127615D01*
X128016757Y-94127610D01*
X127868389Y-93979242D01*
X127868384Y-93979238D01*
X127698647Y-93855918D01*
X127698646Y-93855917D01*
X127698644Y-93855916D01*
X127638750Y-93825398D01*
X127511694Y-93760659D01*
X127511691Y-93760658D01*
X127312146Y-93695823D01*
X127208527Y-93679411D01*
X127104909Y-93663000D01*
X126895091Y-93663000D01*
X126826012Y-93673941D01*
X126687853Y-93695823D01*
X126488308Y-93760658D01*
X126488305Y-93760659D01*
X126301352Y-93855918D01*
X126131615Y-93979238D01*
X126131610Y-93979242D01*
X125983242Y-94127610D01*
X125983238Y-94127615D01*
X125859916Y-94297354D01*
X125840484Y-94335492D01*
X125792510Y-94386287D01*
X125724689Y-94403082D01*
X125658554Y-94380544D01*
X125619516Y-94335492D01*
X125600083Y-94297354D01*
X125476761Y-94127615D01*
X125476757Y-94127610D01*
X125328389Y-93979242D01*
X125328384Y-93979238D01*
X125158647Y-93855918D01*
X125158646Y-93855917D01*
X125158644Y-93855916D01*
X125098750Y-93825398D01*
X124971694Y-93760659D01*
X124971691Y-93760658D01*
X124772146Y-93695823D01*
X124668527Y-93679411D01*
X124564909Y-93663000D01*
X124355091Y-93663000D01*
X124286012Y-93673941D01*
X124147853Y-93695823D01*
X123948308Y-93760658D01*
X123948305Y-93760659D01*
X123761352Y-93855918D01*
X123591615Y-93979238D01*
X123591610Y-93979242D01*
X123443242Y-94127610D01*
X123443238Y-94127615D01*
X123319916Y-94297354D01*
X123300484Y-94335492D01*
X123252510Y-94386287D01*
X123184689Y-94403082D01*
X123118554Y-94380544D01*
X123079516Y-94335492D01*
X123060083Y-94297354D01*
X122936761Y-94127615D01*
X122936757Y-94127610D01*
X122788389Y-93979242D01*
X122788384Y-93979238D01*
X122618647Y-93855918D01*
X122618646Y-93855917D01*
X122618644Y-93855916D01*
X122558750Y-93825398D01*
X122431694Y-93760659D01*
X122431691Y-93760658D01*
X122232146Y-93695823D01*
X122128527Y-93679411D01*
X122024909Y-93663000D01*
X121815091Y-93663000D01*
X121746012Y-93673941D01*
X121607853Y-93695823D01*
X121408308Y-93760658D01*
X121408305Y-93760659D01*
X121221352Y-93855918D01*
X121051615Y-93979238D01*
X121051610Y-93979242D01*
X120903242Y-94127610D01*
X120903238Y-94127615D01*
X120779916Y-94297354D01*
X120760484Y-94335492D01*
X120712510Y-94386287D01*
X120644689Y-94403082D01*
X120578554Y-94380544D01*
X120539516Y-94335492D01*
X120520083Y-94297354D01*
X120396761Y-94127615D01*
X120396757Y-94127610D01*
X120248389Y-93979242D01*
X120248384Y-93979238D01*
X120078647Y-93855918D01*
X120078646Y-93855917D01*
X120078644Y-93855916D01*
X120018750Y-93825398D01*
X119891694Y-93760659D01*
X119891691Y-93760658D01*
X119692146Y-93695823D01*
X119588527Y-93679411D01*
X119484909Y-93663000D01*
X119463018Y-93663000D01*
X119395979Y-93643315D01*
X119350224Y-93590511D01*
X119340280Y-93521353D01*
X119369305Y-93457797D01*
X119375337Y-93451319D01*
X121678487Y-91148170D01*
X123984114Y-88842543D01*
X124060775Y-88727811D01*
X124113580Y-88600328D01*
X124140500Y-88464993D01*
X124140500Y-88327006D01*
X124140500Y-87755057D01*
X124160185Y-87688018D01*
X124208209Y-87644570D01*
X124213331Y-87641961D01*
X124401224Y-87505449D01*
X124565449Y-87341224D01*
X124701961Y-87153331D01*
X124807400Y-86946396D01*
X124879169Y-86725514D01*
X124899443Y-86597502D01*
X124915500Y-86496129D01*
X124915500Y-86263870D01*
X124879169Y-86034487D01*
X124879169Y-86034486D01*
X124866129Y-85994355D01*
X124864134Y-85924516D01*
X124900214Y-85864683D01*
X124962915Y-85833854D01*
X125032329Y-85841818D01*
X125071742Y-85868357D01*
X127503495Y-88300111D01*
X127503496Y-88300112D01*
X127618234Y-88376777D01*
X127745709Y-88429578D01*
X127745714Y-88429580D01*
X127745718Y-88429580D01*
X127745719Y-88429581D01*
X127881045Y-88456500D01*
X127881048Y-88456500D01*
X142452996Y-88456500D01*
X142544040Y-88438389D01*
X142588328Y-88429580D01*
X142652069Y-88403177D01*
X142715807Y-88376777D01*
X142715808Y-88376776D01*
X142715811Y-88376775D01*
X142830543Y-88300114D01*
X143283017Y-87847638D01*
X143344337Y-87814156D01*
X143409013Y-87817391D01*
X143411381Y-87818160D01*
X143414486Y-87819169D01*
X143520728Y-87835995D01*
X143643871Y-87855500D01*
X143643876Y-87855500D01*
X143876129Y-87855500D01*
X143977502Y-87839443D01*
X144105514Y-87819169D01*
X144326396Y-87747400D01*
X144533331Y-87641961D01*
X144721224Y-87505449D01*
X144885449Y-87341224D01*
X145021961Y-87153331D01*
X145127400Y-86946396D01*
X145199169Y-86725514D01*
X145219443Y-86597502D01*
X145235500Y-86496129D01*
X145235500Y-86263870D01*
X145216232Y-86142222D01*
X145199169Y-86034486D01*
X145127400Y-85813604D01*
X145127398Y-85813601D01*
X145127398Y-85813599D01*
X145071776Y-85704436D01*
X145021961Y-85606669D01*
X144885449Y-85418776D01*
X144721224Y-85254551D01*
X144533331Y-85118039D01*
X144326400Y-85012601D01*
X144105514Y-84940831D01*
X143876129Y-84904500D01*
X143876124Y-84904500D01*
X143643876Y-84904500D01*
X143643871Y-84904500D01*
X143414485Y-84940831D01*
X143193599Y-85012601D01*
X142986668Y-85118039D01*
X142798773Y-85254553D01*
X142634553Y-85418773D01*
X142498039Y-85606668D01*
X142392601Y-85813599D01*
X142320831Y-86034485D01*
X142284500Y-86263870D01*
X142284500Y-86496129D01*
X142320831Y-86725514D01*
X142320831Y-86725517D01*
X142322608Y-86730984D01*
X142323042Y-86746195D01*
X142328361Y-86760455D01*
X142324019Y-86780411D01*
X142324603Y-86800825D01*
X142316515Y-86814910D01*
X142313510Y-86828728D01*
X142292358Y-86856983D01*
X142130160Y-87019182D01*
X142068840Y-87052666D01*
X142042481Y-87055500D01*
X140182621Y-87055500D01*
X140115582Y-87035815D01*
X140069827Y-86983011D01*
X140059883Y-86913853D01*
X140064688Y-86893187D01*
X140119169Y-86725514D01*
X140126095Y-86681784D01*
X140155500Y-86496129D01*
X140155500Y-86263870D01*
X140136232Y-86142222D01*
X140119169Y-86034486D01*
X140047400Y-85813604D01*
X140047398Y-85813601D01*
X140047398Y-85813599D01*
X139991776Y-85704436D01*
X139941961Y-85606669D01*
X139805449Y-85418776D01*
X139641224Y-85254551D01*
X139453331Y-85118039D01*
X139246400Y-85012601D01*
X139025514Y-84940831D01*
X138796129Y-84904500D01*
X138796124Y-84904500D01*
X138563876Y-84904500D01*
X138563871Y-84904500D01*
X138334485Y-84940831D01*
X138113599Y-85012601D01*
X137906668Y-85118039D01*
X137718773Y-85254553D01*
X137554553Y-85418773D01*
X137418039Y-85606668D01*
X137312601Y-85813599D01*
X137240831Y-86034485D01*
X137204500Y-86263870D01*
X137204500Y-86496129D01*
X137240830Y-86725514D01*
X137271541Y-86820029D01*
X137295310Y-86893183D01*
X137297305Y-86963022D01*
X137261225Y-87022855D01*
X137198524Y-87053684D01*
X137177379Y-87055500D01*
X135102621Y-87055500D01*
X135035582Y-87035815D01*
X134989827Y-86983011D01*
X134979883Y-86913853D01*
X134984688Y-86893187D01*
X135039169Y-86725514D01*
X135046095Y-86681784D01*
X135075500Y-86496129D01*
X135075500Y-86263870D01*
X135056232Y-86142222D01*
X135039169Y-86034486D01*
X134967400Y-85813604D01*
X134967398Y-85813601D01*
X134967398Y-85813599D01*
X134911776Y-85704436D01*
X134861961Y-85606669D01*
X134725449Y-85418776D01*
X134561224Y-85254551D01*
X134373331Y-85118039D01*
X134166400Y-85012601D01*
X133945514Y-84940831D01*
X133716129Y-84904500D01*
X133716124Y-84904500D01*
X133483876Y-84904500D01*
X133483871Y-84904500D01*
X133254485Y-84940831D01*
X133033599Y-85012601D01*
X132826668Y-85118039D01*
X132638773Y-85254553D01*
X132474553Y-85418773D01*
X132338039Y-85606668D01*
X132232601Y-85813599D01*
X132160831Y-86034485D01*
X132124500Y-86263870D01*
X132124500Y-86496129D01*
X132160830Y-86725514D01*
X132191541Y-86820029D01*
X132215310Y-86893183D01*
X132217305Y-86963022D01*
X132181225Y-87022855D01*
X132118524Y-87053684D01*
X132097379Y-87055500D01*
X130022621Y-87055500D01*
X129955582Y-87035815D01*
X129909827Y-86983011D01*
X129899883Y-86913853D01*
X129904688Y-86893187D01*
X129959169Y-86725514D01*
X129966095Y-86681784D01*
X129995500Y-86496129D01*
X129995500Y-86263870D01*
X129976232Y-86142222D01*
X129959169Y-86034486D01*
X129887400Y-85813604D01*
X129887398Y-85813601D01*
X129887398Y-85813599D01*
X129831776Y-85704436D01*
X129781961Y-85606669D01*
X129645449Y-85418776D01*
X129481224Y-85254551D01*
X129293331Y-85118039D01*
X129086400Y-85012601D01*
X128865514Y-84940831D01*
X128636129Y-84904500D01*
X128636124Y-84904500D01*
X128618519Y-84904500D01*
X128551480Y-84884815D01*
X128530838Y-84868181D01*
X125414546Y-81751888D01*
X125414545Y-81751887D01*
X125299807Y-81675222D01*
X125172332Y-81622421D01*
X125172322Y-81622418D01*
X125036996Y-81595500D01*
X125036994Y-81595500D01*
X125036993Y-81595500D01*
X119448994Y-81595500D01*
X119311006Y-81595500D01*
X119311004Y-81595500D01*
X119175677Y-81622418D01*
X119175667Y-81622421D01*
X119048192Y-81675222D01*
X118933454Y-81751887D01*
X114843806Y-85841535D01*
X114782483Y-85875020D01*
X114712791Y-85870036D01*
X114656858Y-85828164D01*
X114645640Y-85810149D01*
X114592734Y-85706316D01*
X114541961Y-85606669D01*
X114405449Y-85418776D01*
X114241224Y-85254551D01*
X114053331Y-85118039D01*
X113846400Y-85012601D01*
X113625514Y-84940831D01*
X113396129Y-84904500D01*
X113396124Y-84904500D01*
X113163876Y-84904500D01*
X113163871Y-84904500D01*
X112934485Y-84940831D01*
X112713599Y-85012601D01*
X112506668Y-85118039D01*
X112318773Y-85254553D01*
X112154553Y-85418773D01*
X112018039Y-85606668D01*
X111912601Y-85813599D01*
X111840831Y-86034485D01*
X111804500Y-86263870D01*
X111804500Y-86496129D01*
X111840831Y-86725514D01*
X111840831Y-86725517D01*
X111842608Y-86730984D01*
X111843042Y-86746195D01*
X111848361Y-86760455D01*
X111844019Y-86780411D01*
X111844603Y-86800825D01*
X111836515Y-86814910D01*
X111833510Y-86828728D01*
X111812358Y-86856983D01*
X111650160Y-87019182D01*
X111588840Y-87052666D01*
X111562481Y-87055500D01*
X109702621Y-87055500D01*
X109635582Y-87035815D01*
X109589827Y-86983011D01*
X109579883Y-86913853D01*
X109584688Y-86893187D01*
X109639169Y-86725514D01*
X109646095Y-86681784D01*
X109675500Y-86496129D01*
X109675500Y-86263870D01*
X109656232Y-86142222D01*
X109639169Y-86034486D01*
X109567400Y-85813604D01*
X109567398Y-85813601D01*
X109567398Y-85813599D01*
X109511776Y-85704436D01*
X109461961Y-85606669D01*
X109325449Y-85418776D01*
X109161224Y-85254551D01*
X108973331Y-85118039D01*
X108766400Y-85012601D01*
X108545514Y-84940831D01*
X108316129Y-84904500D01*
X108316124Y-84904500D01*
X108083876Y-84904500D01*
X108083871Y-84904500D01*
X107854485Y-84940831D01*
X107633599Y-85012601D01*
X107426668Y-85118039D01*
X107238773Y-85254553D01*
X107074553Y-85418773D01*
X106938039Y-85606668D01*
X106832601Y-85813599D01*
X106760831Y-86034485D01*
X106724500Y-86263870D01*
X106724500Y-86496129D01*
X106760830Y-86725514D01*
X106791541Y-86820029D01*
X106815310Y-86893183D01*
X106817305Y-86963022D01*
X106781225Y-87022855D01*
X106718524Y-87053684D01*
X106697379Y-87055500D01*
X104622621Y-87055500D01*
X104555582Y-87035815D01*
X104509827Y-86983011D01*
X104499883Y-86913853D01*
X104504688Y-86893187D01*
X104559169Y-86725514D01*
X104566095Y-86681784D01*
X104595500Y-86496129D01*
X104595500Y-86263870D01*
X104576232Y-86142222D01*
X104559169Y-86034486D01*
X104487400Y-85813604D01*
X104487398Y-85813601D01*
X104487398Y-85813599D01*
X104431776Y-85704436D01*
X104381961Y-85606669D01*
X104245449Y-85418776D01*
X104081224Y-85254551D01*
X103893331Y-85118039D01*
X103686400Y-85012601D01*
X103465514Y-84940831D01*
X103236129Y-84904500D01*
X103236124Y-84904500D01*
X103003876Y-84904500D01*
X103003871Y-84904500D01*
X102774485Y-84940831D01*
X102553599Y-85012601D01*
X102346668Y-85118039D01*
X102158773Y-85254553D01*
X101994553Y-85418773D01*
X101858039Y-85606668D01*
X101752601Y-85813599D01*
X101680831Y-86034485D01*
X101644500Y-86263870D01*
X101644500Y-86496129D01*
X101680830Y-86725514D01*
X101711541Y-86820029D01*
X101735310Y-86893183D01*
X101737305Y-86963022D01*
X101701225Y-87022855D01*
X101638524Y-87053684D01*
X101617379Y-87055500D01*
X99542621Y-87055500D01*
X99475582Y-87035815D01*
X99429827Y-86983011D01*
X99419883Y-86913853D01*
X99424688Y-86893187D01*
X99479169Y-86725514D01*
X99486095Y-86681784D01*
X99515500Y-86496129D01*
X99515500Y-86263870D01*
X99496232Y-86142222D01*
X99479169Y-86034486D01*
X99407400Y-85813604D01*
X99407398Y-85813601D01*
X99407398Y-85813599D01*
X99351776Y-85704436D01*
X99301961Y-85606669D01*
X99165449Y-85418776D01*
X99001224Y-85254551D01*
X98813331Y-85118039D01*
X98606400Y-85012601D01*
X98385514Y-84940831D01*
X98156129Y-84904500D01*
X98156124Y-84904500D01*
X97923876Y-84904500D01*
X97923871Y-84904500D01*
X97694483Y-84940831D01*
X97694480Y-84940832D01*
X97689004Y-84942611D01*
X97619163Y-84944600D01*
X97563015Y-84912358D01*
X97110546Y-84459888D01*
X97110545Y-84459887D01*
X96995807Y-84383222D01*
X96868332Y-84330421D01*
X96868322Y-84330418D01*
X96732996Y-84303500D01*
X96732994Y-84303500D01*
X96732993Y-84303500D01*
X92219007Y-84303500D01*
X92219003Y-84303500D01*
X92121760Y-84322843D01*
X92121758Y-84322843D01*
X92110591Y-84325065D01*
X92083671Y-84330420D01*
X92030866Y-84352292D01*
X91956189Y-84383225D01*
X91956188Y-84383226D01*
X91935199Y-84397249D01*
X91935192Y-84397253D01*
X91841457Y-84459886D01*
X91841453Y-84459889D01*
X89540722Y-86760619D01*
X89479399Y-86794104D01*
X89409707Y-86789120D01*
X89353774Y-86747248D01*
X89329357Y-86681784D01*
X89330568Y-86653540D01*
X89355500Y-86496129D01*
X89355500Y-86263870D01*
X89336232Y-86142222D01*
X89319169Y-86034486D01*
X89247400Y-85813604D01*
X89247398Y-85813601D01*
X89247398Y-85813599D01*
X89191776Y-85704436D01*
X89141961Y-85606669D01*
X89005449Y-85418776D01*
X88841224Y-85254551D01*
X88653331Y-85118039D01*
X88446400Y-85012601D01*
X88225514Y-84940831D01*
X87996129Y-84904500D01*
X87996124Y-84904500D01*
X87763876Y-84904500D01*
X87763871Y-84904500D01*
X87534485Y-84940831D01*
X87313599Y-85012601D01*
X87106668Y-85118039D01*
X86918773Y-85254553D01*
X86754553Y-85418773D01*
X86618039Y-85606668D01*
X86512601Y-85813599D01*
X86440831Y-86034485D01*
X86404500Y-86263870D01*
X86404500Y-86496129D01*
X86440831Y-86725514D01*
X86512601Y-86946400D01*
X86618039Y-87153331D01*
X86754551Y-87341224D01*
X86918776Y-87505449D01*
X87106669Y-87641961D01*
X87197061Y-87688018D01*
X87313599Y-87747398D01*
X87313601Y-87747398D01*
X87313604Y-87747400D01*
X87534486Y-87819169D01*
X87652668Y-87837886D01*
X87763871Y-87855500D01*
X87763876Y-87855500D01*
X87996129Y-87855500D01*
X88109401Y-87837558D01*
X88153541Y-87830568D01*
X88222833Y-87839522D01*
X88276285Y-87884518D01*
X88296925Y-87951270D01*
X88278200Y-88018584D01*
X88260619Y-88040722D01*
X85898162Y-90403181D01*
X85836839Y-90436666D01*
X85810481Y-90439500D01*
X85753457Y-90439500D01*
X85560170Y-90477947D01*
X85560160Y-90477950D01*
X85378092Y-90553364D01*
X85378079Y-90553371D01*
X85214218Y-90662860D01*
X85214214Y-90662863D01*
X85074863Y-90802214D01*
X85074860Y-90802218D01*
X84965371Y-90966079D01*
X84965364Y-90966092D01*
X84889950Y-91148160D01*
X84889947Y-91148170D01*
X84851500Y-91341456D01*
X84851500Y-91341459D01*
X84851500Y-91538541D01*
X84851500Y-91538543D01*
X84851499Y-91538543D01*
X84889947Y-91731829D01*
X84889950Y-91731839D01*
X84965364Y-91913907D01*
X84965371Y-91913920D01*
X85074860Y-92077781D01*
X85074863Y-92077785D01*
X85214214Y-92217136D01*
X85214218Y-92217139D01*
X85378079Y-92326628D01*
X85378092Y-92326635D01*
X85560160Y-92402049D01*
X85560165Y-92402051D01*
X85560169Y-92402051D01*
X85560170Y-92402052D01*
X85753456Y-92440500D01*
X85753459Y-92440500D01*
X85950543Y-92440500D01*
X86094308Y-92411903D01*
X86163900Y-92418130D01*
X86219077Y-92460993D01*
X86242322Y-92526883D01*
X86242500Y-92533520D01*
X86242500Y-96581611D01*
X86266535Y-96702444D01*
X86266540Y-96702461D01*
X86313685Y-96816280D01*
X86313687Y-96816283D01*
X86313688Y-96816286D01*
X86347915Y-96867509D01*
X86382142Y-96918733D01*
X86469267Y-97005858D01*
X86469270Y-97005860D01*
X86476554Y-97013144D01*
X93535590Y-104072180D01*
X93569075Y-104133503D01*
X93564091Y-104203195D01*
X93522219Y-104259128D01*
X93506370Y-104269215D01*
X93506089Y-104269364D01*
X93342218Y-104378860D01*
X93342214Y-104378863D01*
X93202863Y-104518214D01*
X93202860Y-104518218D01*
X93093371Y-104682079D01*
X93093364Y-104682092D01*
X93017950Y-104864160D01*
X93017947Y-104864170D01*
X92979500Y-105057456D01*
X92979500Y-105114480D01*
X92959815Y-105181519D01*
X92943181Y-105202161D01*
X87339890Y-110805451D01*
X87339884Y-110805458D01*
X87318613Y-110837294D01*
X87318613Y-110837295D01*
X87263228Y-110920183D01*
X87263221Y-110920195D01*
X87210421Y-111047667D01*
X87210418Y-111047677D01*
X87183500Y-111183004D01*
X87183500Y-121154216D01*
X87163815Y-121221255D01*
X87147181Y-121241897D01*
X87106863Y-121282214D01*
X87106860Y-121282218D01*
X86997371Y-121446079D01*
X86997364Y-121446092D01*
X86921950Y-121628160D01*
X86921947Y-121628170D01*
X86883500Y-121821456D01*
X86883500Y-121821459D01*
X86883500Y-122018541D01*
X86883500Y-122018543D01*
X86883499Y-122018543D01*
X86921947Y-122211829D01*
X86921950Y-122211839D01*
X86997364Y-122393907D01*
X86997371Y-122393920D01*
X87106860Y-122557781D01*
X87106863Y-122557785D01*
X87246214Y-122697136D01*
X87246218Y-122697139D01*
X87410079Y-122806628D01*
X87410092Y-122806635D01*
X87577556Y-122876000D01*
X87592165Y-122882051D01*
X87592169Y-122882051D01*
X87592170Y-122882052D01*
X87785456Y-122920500D01*
X87785459Y-122920500D01*
X87982543Y-122920500D01*
X88112582Y-122894632D01*
X88175835Y-122882051D01*
X88357914Y-122806632D01*
X88360306Y-122805034D01*
X88514609Y-122701932D01*
X88581286Y-122681054D01*
X88648667Y-122699538D01*
X88695357Y-122751517D01*
X88707500Y-122805034D01*
X88707500Y-124651500D01*
X88687815Y-124718539D01*
X88635011Y-124764294D01*
X88583500Y-124775500D01*
X84161519Y-124775500D01*
X84094480Y-124755815D01*
X84073838Y-124739181D01*
X83540819Y-124206162D01*
X83507334Y-124144839D01*
X83504500Y-124118481D01*
X83504500Y-118621783D01*
X83524185Y-118554744D01*
X83540820Y-118534101D01*
X83581136Y-118493785D01*
X83581139Y-118493782D01*
X83690632Y-118329914D01*
X83766051Y-118147835D01*
X83804500Y-117954541D01*
X83804500Y-117757459D01*
X83804500Y-117757456D01*
X83766052Y-117564170D01*
X83766051Y-117564169D01*
X83766051Y-117564165D01*
X83730272Y-117477785D01*
X83690635Y-117382092D01*
X83690628Y-117382079D01*
X83581139Y-117218218D01*
X83581136Y-117218214D01*
X83540819Y-117177897D01*
X83507334Y-117116574D01*
X83504500Y-117090216D01*
X83504500Y-110493783D01*
X83524185Y-110426744D01*
X83540820Y-110406101D01*
X83581136Y-110365785D01*
X83581139Y-110365782D01*
X83690632Y-110201914D01*
X83766051Y-110019835D01*
X83804500Y-109826541D01*
X83804500Y-109629459D01*
X83804500Y-109629456D01*
X83766052Y-109436170D01*
X83766051Y-109436169D01*
X83766051Y-109436165D01*
X83766049Y-109436160D01*
X83690635Y-109254092D01*
X83690628Y-109254079D01*
X83581139Y-109090218D01*
X83581136Y-109090214D01*
X83540819Y-109049897D01*
X83507334Y-108988574D01*
X83504500Y-108962216D01*
X83504500Y-102365783D01*
X83524185Y-102298744D01*
X83540820Y-102278101D01*
X83581136Y-102237785D01*
X83581139Y-102237782D01*
X83690632Y-102073914D01*
X83766051Y-101891835D01*
X83804500Y-101698541D01*
X83804500Y-101501459D01*
X83804500Y-101501456D01*
X83766052Y-101308170D01*
X83766051Y-101308169D01*
X83766051Y-101308165D01*
X83766049Y-101308160D01*
X83690635Y-101126092D01*
X83690628Y-101126079D01*
X83581139Y-100962218D01*
X83581136Y-100962214D01*
X83540819Y-100921897D01*
X83507334Y-100860574D01*
X83504500Y-100834216D01*
X83504500Y-94237783D01*
X83524185Y-94170744D01*
X83540820Y-94150101D01*
X83581136Y-94109785D01*
X83581139Y-94109782D01*
X83690632Y-93945914D01*
X83766051Y-93763835D01*
X83788538Y-93650788D01*
X83804500Y-93570543D01*
X83804500Y-93373456D01*
X83766052Y-93180170D01*
X83766051Y-93180169D01*
X83766051Y-93180165D01*
X83737316Y-93110792D01*
X83690635Y-92998092D01*
X83690628Y-92998079D01*
X83581139Y-92834218D01*
X83581136Y-92834214D01*
X83441785Y-92694863D01*
X83441781Y-92694860D01*
X83277920Y-92585371D01*
X83277907Y-92585364D01*
X83095839Y-92509950D01*
X83095829Y-92509947D01*
X82902543Y-92471500D01*
X82902541Y-92471500D01*
X82705459Y-92471500D01*
X82705457Y-92471500D01*
X82512170Y-92509947D01*
X82512160Y-92509950D01*
X82330092Y-92585364D01*
X82330079Y-92585371D01*
X82166218Y-92694860D01*
X82166214Y-92694863D01*
X82026863Y-92834214D01*
X82026860Y-92834218D01*
X81917371Y-92998079D01*
X81917364Y-92998092D01*
X81841950Y-93180160D01*
X81841947Y-93180170D01*
X81803500Y-93373456D01*
X81803500Y-93373459D01*
X81803500Y-93570541D01*
X81803500Y-93570543D01*
X81803499Y-93570543D01*
X81300500Y-93570543D01*
X81300500Y-75197135D01*
X83864500Y-75197135D01*
X83864500Y-77242870D01*
X83864501Y-77242876D01*
X83870908Y-77302483D01*
X83921202Y-77437328D01*
X83921206Y-77437335D01*
X84007452Y-77552544D01*
X84007455Y-77552547D01*
X84122664Y-77638793D01*
X84122671Y-77638797D01*
X84257517Y-77689091D01*
X84257516Y-77689091D01*
X84264444Y-77689835D01*
X84317127Y-77695500D01*
X86362872Y-77695499D01*
X86422483Y-77689091D01*
X86557331Y-77638796D01*
X86672546Y-77552546D01*
X86758796Y-77437331D01*
X86809091Y-77302483D01*
X86815500Y-77242873D01*
X86815499Y-76103870D01*
X88944500Y-76103870D01*
X88944500Y-76336129D01*
X88980831Y-76565514D01*
X89052601Y-76786400D01*
X89157903Y-76993064D01*
X89158039Y-76993331D01*
X89294551Y-77181224D01*
X89458776Y-77345449D01*
X89646669Y-77481961D01*
X89744436Y-77531776D01*
X89853599Y-77587398D01*
X89853601Y-77587398D01*
X89853604Y-77587400D01*
X90074486Y-77659169D01*
X90192668Y-77677886D01*
X90303871Y-77695500D01*
X90303876Y-77695500D01*
X90536129Y-77695500D01*
X90637502Y-77679443D01*
X90765514Y-77659169D01*
X90986396Y-77587400D01*
X91193331Y-77481961D01*
X91381224Y-77345449D01*
X91545449Y-77181224D01*
X91681961Y-76993331D01*
X91787400Y-76786396D01*
X91859169Y-76565514D01*
X91883863Y-76409598D01*
X91895500Y-76336129D01*
X91895500Y-76103909D01*
X94025000Y-76103909D01*
X94025000Y-76336090D01*
X94061318Y-76565393D01*
X94133065Y-76786205D01*
X94238465Y-76993064D01*
X94295238Y-77071207D01*
X94898958Y-76467487D01*
X94923978Y-76527890D01*
X94995112Y-76634351D01*
X95085649Y-76724888D01*
X95192110Y-76796022D01*
X95252510Y-76821041D01*
X94648791Y-77424759D01*
X94648791Y-77424760D01*
X94726935Y-77481534D01*
X94933794Y-77586934D01*
X95154606Y-77658681D01*
X95383910Y-77695000D01*
X95616090Y-77695000D01*
X95845393Y-77658681D01*
X96066205Y-77586934D01*
X96273071Y-77481530D01*
X96351207Y-77424762D01*
X96351208Y-77424760D01*
X95747488Y-76821041D01*
X95807890Y-76796022D01*
X95914351Y-76724888D01*
X96004888Y-76634351D01*
X96076022Y-76527890D01*
X96101041Y-76467489D01*
X96704760Y-77071208D01*
X96704762Y-77071207D01*
X96761530Y-76993071D01*
X96866934Y-76786205D01*
X96938681Y-76565393D01*
X96975000Y-76336090D01*
X96975000Y-76103909D01*
X96938681Y-75874606D01*
X96866934Y-75653794D01*
X96761534Y-75446935D01*
X96704760Y-75368791D01*
X96704759Y-75368791D01*
X96101041Y-75972510D01*
X96076022Y-75912110D01*
X96004888Y-75805649D01*
X95914351Y-75715112D01*
X95807890Y-75643978D01*
X95747487Y-75618957D01*
X96169311Y-75197135D01*
X99104500Y-75197135D01*
X99104500Y-77242870D01*
X99104501Y-77242876D01*
X99110908Y-77302483D01*
X99161202Y-77437328D01*
X99161206Y-77437335D01*
X99247452Y-77552544D01*
X99247455Y-77552547D01*
X99362664Y-77638793D01*
X99362671Y-77638797D01*
X99497517Y-77689091D01*
X99497516Y-77689091D01*
X99504444Y-77689835D01*
X99557127Y-77695500D01*
X101602872Y-77695499D01*
X101662483Y-77689091D01*
X101797331Y-77638796D01*
X101912546Y-77552546D01*
X101998796Y-77437331D01*
X102049091Y-77302483D01*
X102055500Y-77242873D01*
X102055499Y-76103870D01*
X104184500Y-76103870D01*
X104184500Y-76336129D01*
X104220831Y-76565514D01*
X104292601Y-76786400D01*
X104397903Y-76993064D01*
X104398039Y-76993331D01*
X104534551Y-77181224D01*
X104698776Y-77345449D01*
X104886669Y-77481961D01*
X104984436Y-77531776D01*
X105093599Y-77587398D01*
X105093601Y-77587398D01*
X105093604Y-77587400D01*
X105314486Y-77659169D01*
X105432668Y-77677886D01*
X105543871Y-77695500D01*
X105543876Y-77695500D01*
X105776129Y-77695500D01*
X105877502Y-77679443D01*
X106005514Y-77659169D01*
X106226396Y-77587400D01*
X106433331Y-77481961D01*
X106621224Y-77345449D01*
X106785449Y-77181224D01*
X106921961Y-76993331D01*
X107027400Y-76786396D01*
X107099169Y-76565514D01*
X107123863Y-76409598D01*
X107135500Y-76336129D01*
X107135500Y-76103909D01*
X109265000Y-76103909D01*
X109265000Y-76336090D01*
X109301318Y-76565393D01*
X109373065Y-76786205D01*
X109478465Y-76993064D01*
X109535238Y-77071207D01*
X110138958Y-76467487D01*
X110163978Y-76527890D01*
X110235112Y-76634351D01*
X110325649Y-76724888D01*
X110432110Y-76796022D01*
X110492510Y-76821041D01*
X109888791Y-77424759D01*
X109888791Y-77424760D01*
X109966935Y-77481534D01*
X110173794Y-77586934D01*
X110394606Y-77658681D01*
X110623910Y-77695000D01*
X110856090Y-77695000D01*
X111085393Y-77658681D01*
X111306205Y-77586934D01*
X111513071Y-77481530D01*
X111591207Y-77424762D01*
X111591208Y-77424760D01*
X110987488Y-76821041D01*
X111047890Y-76796022D01*
X111154351Y-76724888D01*
X111244888Y-76634351D01*
X111316022Y-76527890D01*
X111341041Y-76467489D01*
X111944760Y-77071208D01*
X111944762Y-77071207D01*
X112001530Y-76993071D01*
X112106934Y-76786205D01*
X112178681Y-76565393D01*
X112215000Y-76336090D01*
X112215000Y-76103909D01*
X112178681Y-75874606D01*
X112106934Y-75653794D01*
X112001534Y-75446935D01*
X111944760Y-75368791D01*
X111944759Y-75368791D01*
X111341041Y-75972510D01*
X111316022Y-75912110D01*
X111244888Y-75805649D01*
X111154351Y-75715112D01*
X111047890Y-75643978D01*
X110987487Y-75618957D01*
X111409311Y-75197135D01*
X114344500Y-75197135D01*
X114344500Y-77242870D01*
X114344501Y-77242876D01*
X114350908Y-77302483D01*
X114401202Y-77437328D01*
X114401206Y-77437335D01*
X114487452Y-77552544D01*
X114487455Y-77552547D01*
X114602664Y-77638793D01*
X114602671Y-77638797D01*
X114737517Y-77689091D01*
X114737516Y-77689091D01*
X114744444Y-77689835D01*
X114797127Y-77695500D01*
X116842872Y-77695499D01*
X116902483Y-77689091D01*
X117037331Y-77638796D01*
X117152546Y-77552546D01*
X117238796Y-77437331D01*
X117289091Y-77302483D01*
X117295500Y-77242873D01*
X117295499Y-76103870D01*
X119424500Y-76103870D01*
X119424500Y-76336129D01*
X119460831Y-76565514D01*
X119532601Y-76786400D01*
X119637903Y-76993064D01*
X119638039Y-76993331D01*
X119774551Y-77181224D01*
X119938776Y-77345449D01*
X120126669Y-77481961D01*
X120224436Y-77531776D01*
X120333599Y-77587398D01*
X120333601Y-77587398D01*
X120333604Y-77587400D01*
X120554486Y-77659169D01*
X120672668Y-77677886D01*
X120783871Y-77695500D01*
X120783876Y-77695500D01*
X121016129Y-77695500D01*
X121117502Y-77679443D01*
X121245514Y-77659169D01*
X121466396Y-77587400D01*
X121673331Y-77481961D01*
X121861224Y-77345449D01*
X122025449Y-77181224D01*
X122161961Y-76993331D01*
X122267400Y-76786396D01*
X122339169Y-76565514D01*
X122363863Y-76409598D01*
X122375500Y-76336129D01*
X122375500Y-76103909D01*
X124505000Y-76103909D01*
X124505000Y-76336090D01*
X124541318Y-76565393D01*
X124613065Y-76786205D01*
X124718465Y-76993064D01*
X124775238Y-77071207D01*
X125378958Y-76467487D01*
X125403978Y-76527890D01*
X125475112Y-76634351D01*
X125565649Y-76724888D01*
X125672110Y-76796022D01*
X125732510Y-76821041D01*
X125128791Y-77424759D01*
X125128791Y-77424760D01*
X125206935Y-77481534D01*
X125413794Y-77586934D01*
X125634606Y-77658681D01*
X125863910Y-77695000D01*
X126096090Y-77695000D01*
X126325393Y-77658681D01*
X126546205Y-77586934D01*
X126753071Y-77481530D01*
X126831207Y-77424762D01*
X126831208Y-77424760D01*
X126227488Y-76821041D01*
X126287890Y-76796022D01*
X126394351Y-76724888D01*
X126484888Y-76634351D01*
X126556022Y-76527890D01*
X126581041Y-76467489D01*
X127184760Y-77071208D01*
X127184762Y-77071207D01*
X127241530Y-76993071D01*
X127346934Y-76786205D01*
X127418681Y-76565393D01*
X127455000Y-76336090D01*
X127455000Y-76103909D01*
X127418681Y-75874606D01*
X127346934Y-75653794D01*
X127241534Y-75446935D01*
X127184760Y-75368791D01*
X127184759Y-75368791D01*
X126581041Y-75972510D01*
X126556022Y-75912110D01*
X126484888Y-75805649D01*
X126394351Y-75715112D01*
X126287890Y-75643978D01*
X126227487Y-75618957D01*
X126649311Y-75197135D01*
X129584500Y-75197135D01*
X129584500Y-77242870D01*
X129584501Y-77242876D01*
X129590908Y-77302483D01*
X129641202Y-77437328D01*
X129641206Y-77437335D01*
X129727452Y-77552544D01*
X129727455Y-77552547D01*
X129842664Y-77638793D01*
X129842671Y-77638797D01*
X129977517Y-77689091D01*
X129977516Y-77689091D01*
X129984444Y-77689835D01*
X130037127Y-77695500D01*
X132082872Y-77695499D01*
X132142483Y-77689091D01*
X132277331Y-77638796D01*
X132392546Y-77552546D01*
X132478796Y-77437331D01*
X132529091Y-77302483D01*
X132535500Y-77242873D01*
X132535499Y-76103870D01*
X134664500Y-76103870D01*
X134664500Y-76336129D01*
X134700831Y-76565514D01*
X134772601Y-76786400D01*
X134877903Y-76993064D01*
X134878039Y-76993331D01*
X135014551Y-77181224D01*
X135178776Y-77345449D01*
X135366669Y-77481961D01*
X135464436Y-77531776D01*
X135573599Y-77587398D01*
X135573601Y-77587398D01*
X135573604Y-77587400D01*
X135794486Y-77659169D01*
X135912668Y-77677886D01*
X136023871Y-77695500D01*
X136023876Y-77695500D01*
X136256129Y-77695500D01*
X136357502Y-77679443D01*
X136485514Y-77659169D01*
X136706396Y-77587400D01*
X136913331Y-77481961D01*
X137101224Y-77345449D01*
X137265449Y-77181224D01*
X137401961Y-76993331D01*
X137507400Y-76786396D01*
X137579169Y-76565514D01*
X137603863Y-76409598D01*
X137615500Y-76336129D01*
X137615500Y-76103909D01*
X139745000Y-76103909D01*
X139745000Y-76336090D01*
X139781318Y-76565393D01*
X139853065Y-76786205D01*
X139958465Y-76993064D01*
X140015238Y-77071207D01*
X140618958Y-76467487D01*
X140643978Y-76527890D01*
X140715112Y-76634351D01*
X140805649Y-76724888D01*
X140912110Y-76796022D01*
X140972510Y-76821041D01*
X140368791Y-77424759D01*
X140368791Y-77424760D01*
X140446935Y-77481534D01*
X140653794Y-77586934D01*
X140874606Y-77658681D01*
X141103910Y-77695000D01*
X141336090Y-77695000D01*
X141565393Y-77658681D01*
X141786205Y-77586934D01*
X141993071Y-77481530D01*
X142071207Y-77424762D01*
X142071208Y-77424760D01*
X141467488Y-76821041D01*
X141527890Y-76796022D01*
X141634351Y-76724888D01*
X141724888Y-76634351D01*
X141796022Y-76527890D01*
X141821041Y-76467489D01*
X142424760Y-77071208D01*
X142424762Y-77071207D01*
X142481530Y-76993071D01*
X142586934Y-76786205D01*
X142658681Y-76565393D01*
X142695000Y-76336090D01*
X142695000Y-76103909D01*
X142658681Y-75874606D01*
X142586934Y-75653794D01*
X142481534Y-75446935D01*
X142424760Y-75368791D01*
X142424759Y-75368791D01*
X141821041Y-75972510D01*
X141796022Y-75912110D01*
X141724888Y-75805649D01*
X141634351Y-75715112D01*
X141527890Y-75643978D01*
X141467487Y-75618957D01*
X142071207Y-75015238D01*
X141993064Y-74958465D01*
X141786205Y-74853065D01*
X141565393Y-74781318D01*
X141336090Y-74745000D01*
X141103910Y-74745000D01*
X140874606Y-74781318D01*
X140653794Y-74853065D01*
X140446925Y-74958470D01*
X140368791Y-75015237D01*
X140368791Y-75015238D01*
X140972511Y-75618958D01*
X140912110Y-75643978D01*
X140805649Y-75715112D01*
X140715112Y-75805649D01*
X140643978Y-75912110D01*
X140618958Y-75972511D01*
X140015238Y-75368791D01*
X140015237Y-75368791D01*
X139958470Y-75446925D01*
X139853065Y-75653794D01*
X139781318Y-75874606D01*
X139745000Y-76103909D01*
X137615500Y-76103909D01*
X137615500Y-76103870D01*
X137596232Y-75982222D01*
X137579169Y-75874486D01*
X137507400Y-75653604D01*
X137507398Y-75653601D01*
X137507398Y-75653599D01*
X137451776Y-75544436D01*
X137401961Y-75446669D01*
X137265449Y-75258776D01*
X137101224Y-75094551D01*
X136913331Y-74958039D01*
X136706400Y-74852601D01*
X136485514Y-74780831D01*
X136256129Y-74744500D01*
X136256124Y-74744500D01*
X136023876Y-74744500D01*
X136023871Y-74744500D01*
X135794485Y-74780831D01*
X135573599Y-74852601D01*
X135366668Y-74958039D01*
X135178773Y-75094553D01*
X135014553Y-75258773D01*
X134878039Y-75446668D01*
X134772601Y-75653599D01*
X134700831Y-75874485D01*
X134664500Y-76103870D01*
X132535499Y-76103870D01*
X132535499Y-75197128D01*
X132529091Y-75137517D01*
X132513066Y-75094553D01*
X132478797Y-75002671D01*
X132478793Y-75002664D01*
X132392547Y-74887455D01*
X132392544Y-74887452D01*
X132277335Y-74801206D01*
X132277328Y-74801202D01*
X132142482Y-74750908D01*
X132142483Y-74750908D01*
X132082883Y-74744501D01*
X132082881Y-74744500D01*
X132082873Y-74744500D01*
X132082864Y-74744500D01*
X130037129Y-74744500D01*
X130037123Y-74744501D01*
X129977516Y-74750908D01*
X129842671Y-74801202D01*
X129842664Y-74801206D01*
X129727455Y-74887452D01*
X129727452Y-74887455D01*
X129641206Y-75002664D01*
X129641202Y-75002671D01*
X129590908Y-75137517D01*
X129584501Y-75197116D01*
X129584501Y-75197123D01*
X129584500Y-75197135D01*
X126649311Y-75197135D01*
X126740321Y-75106125D01*
X126831207Y-75015238D01*
X126753064Y-74958465D01*
X126546205Y-74853065D01*
X126325393Y-74781318D01*
X126096090Y-74745000D01*
X125863910Y-74745000D01*
X125634606Y-74781318D01*
X125413794Y-74853065D01*
X125206925Y-74958470D01*
X125128791Y-75015237D01*
X125128791Y-75015238D01*
X125732511Y-75618958D01*
X125672110Y-75643978D01*
X125565649Y-75715112D01*
X125475112Y-75805649D01*
X125403978Y-75912110D01*
X125378958Y-75972511D01*
X124775238Y-75368791D01*
X124775237Y-75368791D01*
X124718470Y-75446925D01*
X124613065Y-75653794D01*
X124541318Y-75874606D01*
X124505000Y-76103909D01*
X122375500Y-76103909D01*
X122375500Y-76103870D01*
X122356232Y-75982222D01*
X122339169Y-75874486D01*
X122267400Y-75653604D01*
X122267398Y-75653601D01*
X122267398Y-75653599D01*
X122211776Y-75544436D01*
X122161961Y-75446669D01*
X122025449Y-75258776D01*
X121861224Y-75094551D01*
X121673331Y-74958039D01*
X121466400Y-74852601D01*
X121245514Y-74780831D01*
X121016129Y-74744500D01*
X121016124Y-74744500D01*
X120783876Y-74744500D01*
X120783871Y-74744500D01*
X120554485Y-74780831D01*
X120333599Y-74852601D01*
X120126668Y-74958039D01*
X119938773Y-75094553D01*
X119774553Y-75258773D01*
X119638039Y-75446668D01*
X119532601Y-75653599D01*
X119460831Y-75874485D01*
X119424500Y-76103870D01*
X117295499Y-76103870D01*
X117295499Y-75197128D01*
X117289091Y-75137517D01*
X117273066Y-75094553D01*
X117238797Y-75002671D01*
X117238793Y-75002664D01*
X117152547Y-74887455D01*
X117152544Y-74887452D01*
X117037335Y-74801206D01*
X117037328Y-74801202D01*
X116902482Y-74750908D01*
X116902483Y-74750908D01*
X116842883Y-74744501D01*
X116842881Y-74744500D01*
X116842873Y-74744500D01*
X116842864Y-74744500D01*
X114797129Y-74744500D01*
X114797123Y-74744501D01*
X114737516Y-74750908D01*
X114602671Y-74801202D01*
X114602664Y-74801206D01*
X114487455Y-74887452D01*
X114487452Y-74887455D01*
X114401206Y-75002664D01*
X114401202Y-75002671D01*
X114350908Y-75137517D01*
X114344501Y-75197116D01*
X114344501Y-75197123D01*
X114344500Y-75197135D01*
X111409311Y-75197135D01*
X111500321Y-75106125D01*
X111591207Y-75015238D01*
X111513064Y-74958465D01*
X111306205Y-74853065D01*
X111085393Y-74781318D01*
X110856090Y-74745000D01*
X110623910Y-74745000D01*
X110394606Y-74781318D01*
X110173794Y-74853065D01*
X109966925Y-74958470D01*
X109888791Y-75015237D01*
X109888791Y-75015238D01*
X110492511Y-75618958D01*
X110432110Y-75643978D01*
X110325649Y-75715112D01*
X110235112Y-75805649D01*
X110163978Y-75912110D01*
X110138958Y-75972511D01*
X109535238Y-75368791D01*
X109535237Y-75368791D01*
X109478470Y-75446925D01*
X109373065Y-75653794D01*
X109301318Y-75874606D01*
X109265000Y-76103909D01*
X107135500Y-76103909D01*
X107135500Y-76103870D01*
X107116232Y-75982222D01*
X107099169Y-75874486D01*
X107027400Y-75653604D01*
X107027398Y-75653601D01*
X107027398Y-75653599D01*
X106971776Y-75544436D01*
X106921961Y-75446669D01*
X106785449Y-75258776D01*
X106621224Y-75094551D01*
X106433331Y-74958039D01*
X106226400Y-74852601D01*
X106005514Y-74780831D01*
X105776129Y-74744500D01*
X105776124Y-74744500D01*
X105543876Y-74744500D01*
X105543871Y-74744500D01*
X105314485Y-74780831D01*
X105093599Y-74852601D01*
X104886668Y-74958039D01*
X104698773Y-75094553D01*
X104534553Y-75258773D01*
X104398039Y-75446668D01*
X104292601Y-75653599D01*
X104220831Y-75874485D01*
X104184500Y-76103870D01*
X102055499Y-76103870D01*
X102055499Y-75197128D01*
X102049091Y-75137517D01*
X102033066Y-75094553D01*
X101998797Y-75002671D01*
X101998793Y-75002664D01*
X101912547Y-74887455D01*
X101912544Y-74887452D01*
X101797335Y-74801206D01*
X101797328Y-74801202D01*
X101662482Y-74750908D01*
X101662483Y-74750908D01*
X101602883Y-74744501D01*
X101602881Y-74744500D01*
X101602873Y-74744500D01*
X101602864Y-74744500D01*
X99557129Y-74744500D01*
X99557123Y-74744501D01*
X99497516Y-74750908D01*
X99362671Y-74801202D01*
X99362664Y-74801206D01*
X99247455Y-74887452D01*
X99247452Y-74887455D01*
X99161206Y-75002664D01*
X99161202Y-75002671D01*
X99110908Y-75137517D01*
X99104501Y-75197116D01*
X99104501Y-75197123D01*
X99104500Y-75197135D01*
X96169311Y-75197135D01*
X96260321Y-75106125D01*
X96351207Y-75015238D01*
X96273064Y-74958465D01*
X96066205Y-74853065D01*
X95845393Y-74781318D01*
X95616090Y-74745000D01*
X95383910Y-74745000D01*
X95154606Y-74781318D01*
X94933794Y-74853065D01*
X94726925Y-74958470D01*
X94648791Y-75015237D01*
X94648791Y-75015238D01*
X95252511Y-75618958D01*
X95192110Y-75643978D01*
X95085649Y-75715112D01*
X94995112Y-75805649D01*
X94923978Y-75912110D01*
X94898958Y-75972511D01*
X94295238Y-75368791D01*
X94295237Y-75368791D01*
X94238470Y-75446925D01*
X94133065Y-75653794D01*
X94061318Y-75874606D01*
X94025000Y-76103909D01*
X91895500Y-76103909D01*
X91895500Y-76103870D01*
X91876232Y-75982222D01*
X91859169Y-75874486D01*
X91787400Y-75653604D01*
X91787398Y-75653601D01*
X91787398Y-75653599D01*
X91731776Y-75544436D01*
X91681961Y-75446669D01*
X91545449Y-75258776D01*
X91381224Y-75094551D01*
X91193331Y-74958039D01*
X90986400Y-74852601D01*
X90765514Y-74780831D01*
X90536129Y-74744500D01*
X90536124Y-74744500D01*
X90303876Y-74744500D01*
X90303871Y-74744500D01*
X90074485Y-74780831D01*
X89853599Y-74852601D01*
X89646668Y-74958039D01*
X89458773Y-75094553D01*
X89294553Y-75258773D01*
X89158039Y-75446668D01*
X89052601Y-75653599D01*
X88980831Y-75874485D01*
X88944500Y-76103870D01*
X86815499Y-76103870D01*
X86815499Y-75197128D01*
X86809091Y-75137517D01*
X86793066Y-75094553D01*
X86758797Y-75002671D01*
X86758793Y-75002664D01*
X86672547Y-74887455D01*
X86672544Y-74887452D01*
X86557335Y-74801206D01*
X86557328Y-74801202D01*
X86422482Y-74750908D01*
X86422483Y-74750908D01*
X86362883Y-74744501D01*
X86362881Y-74744500D01*
X86362873Y-74744500D01*
X86362864Y-74744500D01*
X84317129Y-74744500D01*
X84317123Y-74744501D01*
X84257516Y-74750908D01*
X84122671Y-74801202D01*
X84122664Y-74801206D01*
X84007455Y-74887452D01*
X84007452Y-74887455D01*
X83921206Y-75002664D01*
X83921202Y-75002671D01*
X83870908Y-75137517D01*
X83864501Y-75197116D01*
X83864501Y-75197123D01*
X83864500Y-75197135D01*
X81300500Y-75197135D01*
X81300500Y-71424500D01*
X81320185Y-71357461D01*
X81372989Y-71311706D01*
X81424500Y-71300500D01*
X149575500Y-71300500D01*
X149642539Y-71320185D01*
G37*
G04 #@! TD.AperFunction*
M02*
