G04 #@! TF.GenerationSoftware,KiCad,Pcbnew,9.0.1*
G04 #@! TF.CreationDate,2025-05-26T13:20:38+02:00*
G04 #@! TF.ProjectId,ESP Interface Board,45535020-496e-4746-9572-666163652042,rev?*
G04 #@! TF.SameCoordinates,Original*
G04 #@! TF.FileFunction,Copper,L1,Top*
G04 #@! TF.FilePolarity,Positive*
%FSLAX46Y46*%
G04 Gerber Fmt 4.6, Leading zero omitted, Abs format (unit mm)*
G04 Created by KiCad (PCBNEW 9.0.1) date 2025-05-26 13:20:38*
%MOMM*%
%LPD*%
G01*
G04 APERTURE LIST*
G04 #@! TA.AperFunction,ComponentPad*
%ADD10R,1.950000X1.950000*%
G04 #@! TD*
G04 #@! TA.AperFunction,ComponentPad*
%ADD11C,1.950000*%
G04 #@! TD*
G04 #@! TA.AperFunction,SMDPad,CuDef*
%ADD12R,1.000000X1.500000*%
G04 #@! TD*
G04 #@! TA.AperFunction,ComponentPad*
%ADD13C,1.600000*%
G04 #@! TD*
G04 #@! TA.AperFunction,ComponentPad*
%ADD14O,1.600000X1.600000*%
G04 #@! TD*
G04 #@! TA.AperFunction,ComponentPad*
%ADD15R,1.700000X1.700000*%
G04 #@! TD*
G04 #@! TA.AperFunction,ComponentPad*
%ADD16C,1.700000*%
G04 #@! TD*
G04 #@! TA.AperFunction,ComponentPad*
%ADD17R,1.800000X1.800000*%
G04 #@! TD*
G04 #@! TA.AperFunction,ComponentPad*
%ADD18C,1.800000*%
G04 #@! TD*
G04 #@! TA.AperFunction,SMDPad,CuDef*
%ADD19R,2.500000X1.400000*%
G04 #@! TD*
G04 #@! TA.AperFunction,SMDPad,CuDef*
%ADD20R,1.500000X1.000000*%
G04 #@! TD*
G04 #@! TA.AperFunction,ComponentPad*
%ADD21R,1.446000X1.446000*%
G04 #@! TD*
G04 #@! TA.AperFunction,ComponentPad*
%ADD22C,1.446000*%
G04 #@! TD*
G04 #@! TA.AperFunction,ComponentPad*
%ADD23C,2.355000*%
G04 #@! TD*
G04 #@! TA.AperFunction,ComponentPad*
%ADD24R,1.665000X1.665000*%
G04 #@! TD*
G04 #@! TA.AperFunction,ComponentPad*
%ADD25C,1.665000*%
G04 #@! TD*
G04 #@! TA.AperFunction,ComponentPad*
%ADD26R,1.200000X1.200000*%
G04 #@! TD*
G04 #@! TA.AperFunction,ComponentPad*
%ADD27C,1.200000*%
G04 #@! TD*
G04 #@! TA.AperFunction,SMDPad,CuDef*
%ADD28R,1.528000X0.650000*%
G04 #@! TD*
G04 #@! TA.AperFunction,ViaPad*
%ADD29C,1.000000*%
G04 #@! TD*
G04 #@! TA.AperFunction,ViaPad*
%ADD30C,0.750000*%
G04 #@! TD*
G04 #@! TA.AperFunction,Conductor*
%ADD31C,0.250000*%
G04 #@! TD*
G04 #@! TA.AperFunction,Conductor*
%ADD32C,0.400000*%
G04 #@! TD*
G04 APERTURE END LIST*
D10*
X131060000Y-76220000D03*
D11*
X133600000Y-86380000D03*
X136140000Y-76220000D03*
X138680000Y-86380000D03*
X141220000Y-76220000D03*
X143760000Y-86380000D03*
D10*
X100580000Y-76220000D03*
D11*
X103120000Y-86380000D03*
X105660000Y-76220000D03*
X108200000Y-86380000D03*
X110740000Y-76220000D03*
X113280000Y-86380000D03*
D10*
X85340000Y-76220000D03*
D11*
X87880000Y-86380000D03*
X90420000Y-76220000D03*
X92960000Y-86380000D03*
X95500000Y-76220000D03*
X98040000Y-86380000D03*
D10*
X115820000Y-76220000D03*
D11*
X118360000Y-86380000D03*
X120900000Y-76220000D03*
X123440000Y-86380000D03*
X125980000Y-76220000D03*
X128520000Y-86380000D03*
D12*
X147500000Y-131000000D03*
X146200000Y-131000000D03*
D13*
X146812000Y-142240000D03*
D14*
X146812000Y-149860000D03*
D13*
X142240000Y-149860000D03*
D14*
X142240000Y-142240000D03*
D13*
X110236000Y-140462000D03*
D14*
X110236000Y-148082000D03*
D13*
X137668000Y-149860000D03*
D14*
X137668000Y-142240000D03*
X140970000Y-132080000D03*
D13*
X133350000Y-132080000D03*
D15*
X146812000Y-125984000D03*
D16*
X144272000Y-125984000D03*
X141732000Y-125984000D03*
X139192000Y-125984000D03*
X136652000Y-125984000D03*
X134112000Y-125984000D03*
D17*
X107696000Y-151892000D03*
D18*
X107696000Y-154432000D03*
D13*
X117347000Y-136652000D03*
X117347000Y-131652000D03*
X129031000Y-136652000D03*
X129031000Y-131652000D03*
X142240000Y-138176000D03*
X137240000Y-138176000D03*
X106172000Y-147280000D03*
X106172000Y-142280000D03*
D19*
X100078000Y-153416000D03*
X100078000Y-150876000D03*
X100078000Y-140716000D03*
X100078000Y-138176000D03*
X84578000Y-138176000D03*
X84578000Y-140716000D03*
X84578000Y-153416000D03*
D12*
X146162000Y-134936000D03*
X147462000Y-134936000D03*
X146162000Y-139000000D03*
X147462000Y-139000000D03*
X85852000Y-105664000D03*
X84552000Y-105664000D03*
X85852000Y-101494000D03*
X84552000Y-101494000D03*
X85852000Y-97536000D03*
X84552000Y-97536000D03*
X85852000Y-93466000D03*
X84552000Y-93466000D03*
X85852000Y-121920000D03*
X84552000Y-121920000D03*
X85852000Y-117856000D03*
X84552000Y-117856000D03*
X85852000Y-113792000D03*
X84552000Y-113792000D03*
X85852000Y-109728000D03*
X84552000Y-109728000D03*
D20*
X146812000Y-155082000D03*
X146812000Y-153782000D03*
X142240000Y-153640000D03*
X142240000Y-154940000D03*
X137668000Y-153640000D03*
X137668000Y-154940000D03*
D21*
X127506000Y-147576000D03*
D22*
X126491000Y-145796000D03*
X125476000Y-147576000D03*
X124461000Y-145796000D03*
X123441000Y-147576000D03*
X122426000Y-145796000D03*
X121411000Y-147576000D03*
X120396000Y-145796000D03*
D23*
X132051000Y-146686000D03*
X115851000Y-146686000D03*
D24*
X139700000Y-94996000D03*
D25*
X137160000Y-94996000D03*
X134620000Y-94996000D03*
X132080000Y-94996000D03*
X129540000Y-94996000D03*
X127000000Y-94996000D03*
X124460000Y-94996000D03*
X121920000Y-94996000D03*
X119380000Y-94996000D03*
X116840000Y-94996000D03*
X114300000Y-94996000D03*
X111760000Y-94996000D03*
X109220000Y-94996000D03*
X106680000Y-94996000D03*
X104140000Y-94996000D03*
X101600000Y-94996000D03*
X99060000Y-94996000D03*
X96520000Y-94996000D03*
X93980000Y-94996000D03*
X93980000Y-120396000D03*
X96520000Y-120396000D03*
X99060000Y-120396000D03*
X101600000Y-120396000D03*
X104140000Y-120396000D03*
X106680000Y-120396000D03*
X109220000Y-120396000D03*
X111760000Y-120396000D03*
X114300000Y-120396000D03*
X116840000Y-120396000D03*
X119380000Y-120396000D03*
X121920000Y-120396000D03*
X124460000Y-120396000D03*
X127000000Y-120396000D03*
X129540000Y-120396000D03*
X132080000Y-120396000D03*
X134620000Y-120396000D03*
X137160000Y-120396000D03*
X139700000Y-120396000D03*
D26*
X121919000Y-135208000D03*
D27*
X123189000Y-133938000D03*
X124459000Y-135208000D03*
D28*
X93809000Y-128143000D03*
X93809000Y-129413000D03*
X93809000Y-130683000D03*
X93809000Y-131953000D03*
X99231000Y-131953000D03*
X99231000Y-130683000D03*
X99231000Y-129413000D03*
X99231000Y-128143000D03*
X105493000Y-128143000D03*
X105493000Y-129413000D03*
X105493000Y-130683000D03*
X105493000Y-131953000D03*
X110915000Y-131953000D03*
X110915000Y-130683000D03*
X110915000Y-129413000D03*
X110915000Y-128143000D03*
D29*
X90000000Y-134500000D03*
X106500000Y-133500000D03*
X89500000Y-118000000D03*
X91000000Y-124000000D03*
X103500000Y-128500000D03*
X82804000Y-117856000D03*
X82804000Y-109728000D03*
X82804000Y-101600000D03*
X82804000Y-93472000D03*
X87884000Y-121920000D03*
X91948000Y-128016000D03*
X93980000Y-116840000D03*
X94488000Y-107188000D03*
X89408000Y-97028000D03*
X87884000Y-96012000D03*
X87884000Y-94488000D03*
X85852000Y-91440000D03*
X93980000Y-105156000D03*
D30*
X142748000Y-111252000D03*
X113284000Y-130048000D03*
X113284000Y-131572000D03*
D31*
X106583000Y-133417000D02*
X106500000Y-133500000D01*
X106583000Y-130032000D02*
X106583000Y-133417000D01*
X105964000Y-129413000D02*
X106583000Y-130032000D01*
X105493000Y-129413000D02*
X105964000Y-129413000D01*
X105404000Y-134500000D02*
X101587000Y-130683000D01*
X107000000Y-134500000D02*
X105404000Y-134500000D01*
X108500000Y-133000000D02*
X107000000Y-134500000D01*
X108500000Y-130679000D02*
X108500000Y-133000000D01*
X101587000Y-130683000D02*
X99231000Y-130683000D01*
X105964000Y-128143000D02*
X108500000Y-130679000D01*
X105493000Y-128143000D02*
X105964000Y-128143000D01*
X148074810Y-156359000D02*
X132224000Y-156359000D01*
X149295000Y-155138810D02*
X148074810Y-156359000D01*
X132224000Y-156359000D02*
X123441000Y-147576000D01*
X149295000Y-132795000D02*
X149295000Y-155138810D01*
X147500000Y-131000000D02*
X149295000Y-132795000D01*
X148844000Y-136318000D02*
X148844000Y-154952000D01*
X147462000Y-134936000D02*
X148844000Y-136318000D01*
X137668000Y-141155595D02*
X137668000Y-142240000D01*
X143384405Y-137728000D02*
X142706405Y-137050000D01*
X141773595Y-137050000D02*
X137668000Y-141155595D01*
X143384405Y-138124405D02*
X143384405Y-137728000D01*
X147386000Y-140076000D02*
X145336000Y-140076000D01*
X145336000Y-140076000D02*
X143384405Y-138124405D01*
X147462000Y-139000000D02*
X147462000Y-140000000D01*
X142706405Y-137050000D02*
X141773595Y-137050000D01*
X147462000Y-140000000D02*
X147386000Y-140076000D01*
X136696905Y-128568905D02*
X134112000Y-125984000D01*
X141931095Y-128568905D02*
X136696905Y-128568905D01*
X144000000Y-136838000D02*
X144000000Y-130637810D01*
X146162000Y-139000000D02*
X144000000Y-136838000D01*
X144000000Y-130637810D02*
X141931095Y-128568905D01*
X142000000Y-128000000D02*
X138668000Y-128000000D01*
X144500000Y-130500000D02*
X142000000Y-128000000D01*
X144500000Y-133274000D02*
X144500000Y-130500000D01*
X146162000Y-134936000D02*
X144500000Y-133274000D01*
X138668000Y-128000000D02*
X136652000Y-125984000D01*
D32*
X146200000Y-127912000D02*
X144272000Y-125984000D01*
X146200000Y-131000000D02*
X146200000Y-127912000D01*
D31*
X118364000Y-123952000D02*
X121920000Y-120396000D01*
X90481000Y-121858430D02*
X92911570Y-124289000D01*
X116124810Y-124289000D02*
X116461810Y-123952000D01*
X90481000Y-88981000D02*
X90481000Y-121858430D01*
X87880000Y-86380000D02*
X90481000Y-88981000D01*
X92911570Y-124289000D02*
X116124810Y-124289000D01*
X116461810Y-123952000D02*
X118364000Y-123952000D01*
X103500000Y-129500000D02*
X103500000Y-128500000D01*
X103369405Y-129630595D02*
X103500000Y-129500000D01*
X103369405Y-129630595D02*
X101881810Y-128143000D01*
D32*
X84552000Y-117856000D02*
X82804000Y-117856000D01*
X84552000Y-109728000D02*
X82804000Y-109728000D01*
X82910000Y-101494000D02*
X82804000Y-101600000D01*
X84552000Y-101494000D02*
X82910000Y-101494000D01*
X84546000Y-93472000D02*
X84552000Y-93466000D01*
X82804000Y-93472000D02*
X84546000Y-93472000D01*
X84578000Y-134878000D02*
X84578000Y-138176000D01*
X87884000Y-121920000D02*
X87884000Y-131572000D01*
X87884000Y-131572000D02*
X84578000Y-134878000D01*
X93682000Y-128016000D02*
X93809000Y-128143000D01*
X91948000Y-128016000D02*
X93682000Y-128016000D01*
D31*
X133096000Y-121920000D02*
X134620000Y-120396000D01*
X122557810Y-125476000D02*
X126113810Y-121920000D01*
X92077810Y-125476000D02*
X122557810Y-125476000D01*
X126113810Y-121920000D02*
X133096000Y-121920000D01*
X90932000Y-126621810D02*
X92077810Y-125476000D01*
X90932000Y-128524000D02*
X90932000Y-126621810D01*
X93809000Y-129413000D02*
X91821000Y-129413000D01*
X91821000Y-129413000D02*
X90932000Y-128524000D01*
X122371000Y-125025000D02*
X127000000Y-120396000D01*
X91891000Y-125025000D02*
X122371000Y-125025000D01*
X90424000Y-126492000D02*
X91891000Y-125025000D01*
X90424000Y-129540000D02*
X90424000Y-126492000D01*
X93809000Y-130683000D02*
X91567000Y-130683000D01*
X91567000Y-130683000D02*
X90424000Y-129540000D01*
D32*
X99568000Y-111252000D02*
X93980000Y-116840000D01*
X102616000Y-111252000D02*
X99568000Y-111252000D01*
D31*
X92456000Y-105156000D02*
X94488000Y-107188000D01*
D32*
X123444000Y-111252000D02*
X102616000Y-111252000D01*
X139700000Y-94996000D02*
X123444000Y-111252000D01*
X85852000Y-117856000D02*
X85852000Y-121920000D01*
X87376000Y-116332000D02*
X85852000Y-117856000D01*
X87376000Y-110236000D02*
X87376000Y-116332000D01*
X89408000Y-108204000D02*
X87376000Y-110236000D01*
X89408000Y-97028000D02*
X89408000Y-108204000D01*
X87376000Y-108204000D02*
X85852000Y-109728000D01*
X87469000Y-97443000D02*
X87469000Y-100726942D01*
X87376000Y-100819942D02*
X87376000Y-108204000D01*
X87884000Y-96012000D02*
X87884000Y-97028000D01*
X87884000Y-97028000D02*
X87469000Y-97443000D01*
X87469000Y-100726942D02*
X87376000Y-100819942D01*
X86868000Y-100478000D02*
X85852000Y-101494000D01*
X86868000Y-95504000D02*
X86868000Y-100478000D01*
X87884000Y-94488000D02*
X86868000Y-95504000D01*
X85852000Y-109728000D02*
X85852000Y-113792000D01*
X85852000Y-101494000D02*
X85852000Y-105664000D01*
X85852000Y-97536000D02*
X85852000Y-93466000D01*
X85852000Y-91440000D02*
X85852000Y-93466000D01*
X84552000Y-121920000D02*
X81788000Y-121920000D01*
X81788000Y-121920000D02*
X81788000Y-132080000D01*
X84552000Y-113792000D02*
X81788000Y-113792000D01*
X81788000Y-113792000D02*
X81788000Y-121920000D01*
X81788000Y-109220000D02*
X81788000Y-113792000D01*
X81788000Y-105664000D02*
X81788000Y-109220000D01*
X84552000Y-105664000D02*
X81788000Y-105664000D01*
X81788000Y-97536000D02*
X84552000Y-97536000D01*
X93980000Y-94996000D02*
X93980000Y-105156000D01*
D31*
X129413000Y-128143000D02*
X110915000Y-128143000D01*
X133350000Y-132080000D02*
X129413000Y-128143000D01*
X83312000Y-74676000D02*
X88876000Y-74676000D01*
X90481000Y-84385000D02*
X83312000Y-77216000D01*
X88876000Y-74676000D02*
X90420000Y-76220000D01*
X90481000Y-85565108D02*
X90481000Y-84385000D01*
X90932000Y-87467512D02*
X90757000Y-87292512D01*
X90932000Y-121671620D02*
X90932000Y-87467512D01*
X90757000Y-87292512D02*
X90757000Y-85841108D01*
X93098380Y-123838000D02*
X90932000Y-121671620D01*
X115938000Y-123838000D02*
X93098380Y-123838000D01*
X83312000Y-77216000D02*
X83312000Y-74676000D01*
X119380000Y-120396000D02*
X115938000Y-123838000D01*
X90757000Y-85841108D02*
X90481000Y-85565108D01*
X113849000Y-123387000D02*
X116840000Y-120396000D01*
X93285190Y-123387000D02*
X113849000Y-123387000D01*
X91440000Y-87337702D02*
X91440000Y-121541810D01*
X91440000Y-121541810D02*
X93285190Y-123387000D01*
X91208000Y-85654298D02*
X91208000Y-87105702D01*
X90932000Y-85378298D02*
X91208000Y-85654298D01*
X90932000Y-84198190D02*
X90932000Y-85378298D01*
X91208000Y-87105702D02*
X91440000Y-87337702D01*
X85340000Y-78606190D02*
X90932000Y-84198190D01*
X85340000Y-76220000D02*
X85340000Y-78606190D01*
X106680000Y-122936000D02*
X109220000Y-120396000D01*
X93472000Y-122936000D02*
X106680000Y-122936000D01*
X91948000Y-121412000D02*
X93472000Y-122936000D01*
X91659000Y-86918892D02*
X91948000Y-87207892D01*
X91659000Y-85841108D02*
X91659000Y-86918892D01*
X91948000Y-84852000D02*
X91948000Y-85552108D01*
X91948000Y-85552108D02*
X91659000Y-85841108D01*
X100580000Y-76220000D02*
X91948000Y-84852000D01*
X91948000Y-87207892D02*
X91948000Y-121412000D01*
X92456000Y-89424000D02*
X92456000Y-105156000D01*
X105660000Y-76220000D02*
X92456000Y-89424000D01*
X134620000Y-121412000D02*
X134620000Y-120396000D01*
X139192000Y-125984000D02*
X134620000Y-121412000D01*
X128158500Y-119237500D02*
X127000000Y-120396000D01*
X141081500Y-119237500D02*
X128158500Y-119237500D01*
X141732000Y-119888000D02*
X141081500Y-119237500D01*
X141732000Y-125984000D02*
X141732000Y-119888000D01*
D32*
X146812000Y-115316000D02*
X142748000Y-111252000D01*
X146812000Y-125984000D02*
X146812000Y-115316000D01*
X84578000Y-134870000D02*
X84578000Y-134878000D01*
X81788000Y-132080000D02*
X84578000Y-134870000D01*
X81788000Y-97536000D02*
X81788000Y-105664000D01*
X109576000Y-85810042D02*
X109576000Y-94640000D01*
X108769958Y-85004000D02*
X109576000Y-85810042D01*
X103120000Y-86380000D02*
X104496000Y-85004000D01*
X104496000Y-85004000D02*
X108769958Y-85004000D01*
X109576000Y-94640000D02*
X109220000Y-94996000D01*
X108200000Y-90936000D02*
X104140000Y-94996000D01*
X108200000Y-86380000D02*
X108200000Y-90936000D01*
X117872000Y-74168000D02*
X115820000Y-76220000D01*
X121920000Y-74168000D02*
X117872000Y-74168000D01*
X116425000Y-83727000D02*
X122936000Y-77216000D01*
X122936000Y-75184000D02*
X121920000Y-74168000D01*
X116425000Y-92871000D02*
X116425000Y-83727000D01*
X114300000Y-94996000D02*
X116425000Y-92871000D01*
X122936000Y-77216000D02*
X122936000Y-75184000D01*
X111760000Y-91948000D02*
X111760000Y-94996000D01*
X115824000Y-87884000D02*
X111760000Y-91948000D01*
X115824000Y-81296000D02*
X115824000Y-87884000D01*
X120900000Y-76220000D02*
X115824000Y-81296000D01*
X119795000Y-114901000D02*
X114300000Y-120396000D01*
X145381000Y-91135042D02*
X145381000Y-106928942D01*
X139081958Y-84836000D02*
X145381000Y-91135042D01*
X145381000Y-106928942D02*
X137408942Y-114901000D01*
X133600000Y-86380000D02*
X135144000Y-84836000D01*
X135144000Y-84836000D02*
X139081958Y-84836000D01*
X137408942Y-114901000D02*
X119795000Y-114901000D01*
X137160000Y-114300000D02*
X117856000Y-114300000D01*
X117856000Y-114300000D02*
X111760000Y-120396000D01*
X144780000Y-106680000D02*
X137160000Y-114300000D01*
X138680000Y-86380000D02*
X144780000Y-92480000D01*
X144780000Y-92480000D02*
X144780000Y-106680000D01*
X129684000Y-74844000D02*
X121920000Y-82608000D01*
X121920000Y-82608000D02*
X121920000Y-94996000D01*
X134764000Y-74844000D02*
X129684000Y-74844000D01*
X136140000Y-76220000D02*
X134764000Y-74844000D01*
X131060000Y-88396000D02*
X131060000Y-76220000D01*
X124460000Y-94996000D02*
X131060000Y-88396000D01*
X119380000Y-87400000D02*
X118360000Y-86380000D01*
X119380000Y-94996000D02*
X119380000Y-87400000D01*
D31*
X101881810Y-128143000D02*
X99231000Y-128143000D01*
X104421810Y-130683000D02*
X103369405Y-129630595D01*
X105493000Y-130683000D02*
X104421810Y-130683000D01*
X102514000Y-129413000D02*
X99231000Y-129413000D01*
X105054000Y-131953000D02*
X102514000Y-129413000D01*
X105493000Y-131953000D02*
X105054000Y-131953000D01*
X113284000Y-130048000D02*
X112649000Y-129413000D01*
X112649000Y-129413000D02*
X110915000Y-129413000D01*
X112395000Y-130683000D02*
X110915000Y-130683000D01*
X113284000Y-131572000D02*
X112395000Y-130683000D01*
D32*
X118791000Y-135208000D02*
X117347000Y-136652000D01*
X121919000Y-135208000D02*
X118791000Y-135208000D01*
X127587000Y-135208000D02*
X129031000Y-136652000D01*
X124459000Y-135208000D02*
X127587000Y-135208000D01*
X124461000Y-135210000D02*
X124459000Y-135208000D01*
X124461000Y-145796000D02*
X124461000Y-135210000D01*
X106172000Y-152908000D02*
X107696000Y-154432000D01*
X106172000Y-147280000D02*
X106172000Y-152908000D01*
X86610000Y-155448000D02*
X84578000Y-153416000D01*
X106680000Y-155448000D02*
X86610000Y-155448000D01*
X107696000Y-154432000D02*
X106680000Y-155448000D01*
D31*
X107696000Y-150622000D02*
X110236000Y-148082000D01*
X107696000Y-151892000D02*
X107696000Y-150622000D01*
X147888000Y-155908000D02*
X148844000Y-154952000D01*
X143208000Y-155908000D02*
X147888000Y-155908000D01*
X142240000Y-154940000D02*
X143208000Y-155908000D01*
X142240000Y-142240000D02*
X142240000Y-138176000D01*
X146812000Y-142240000D02*
X142240000Y-142240000D01*
X146812000Y-153782000D02*
X146812000Y-149860000D01*
X145812000Y-155082000D02*
X146812000Y-155082000D01*
X145736000Y-155006000D02*
X145812000Y-155082000D01*
X145736000Y-150816000D02*
X145736000Y-155006000D01*
X137668000Y-142748000D02*
X145736000Y-150816000D01*
X137668000Y-142240000D02*
X137668000Y-142748000D01*
X142240000Y-153640000D02*
X142240000Y-149860000D01*
X137668000Y-153640000D02*
X137668000Y-149860000D01*
X130047000Y-142240000D02*
X137668000Y-142240000D01*
X126491000Y-145796000D02*
X130047000Y-142240000D01*
X137668000Y-154940000D02*
X142240000Y-154940000D01*
X132295159Y-154940000D02*
X137668000Y-154940000D01*
X127506000Y-150150841D02*
X132295159Y-154940000D01*
X127506000Y-147576000D02*
X127506000Y-150150841D01*
G04 #@! TA.AperFunction,Conductor*
G36*
X133600324Y-124519685D02*
G01*
X133646079Y-124572489D01*
X133656023Y-124641647D01*
X133626998Y-124705203D01*
X133589580Y-124734485D01*
X133404179Y-124828951D01*
X133232213Y-124953890D01*
X133081890Y-125104213D01*
X132956951Y-125276179D01*
X132860444Y-125465585D01*
X132794753Y-125667760D01*
X132761500Y-125877713D01*
X132761500Y-126090286D01*
X132794753Y-126300239D01*
X132860444Y-126502414D01*
X132956951Y-126691820D01*
X133081890Y-126863786D01*
X133232213Y-127014109D01*
X133404179Y-127139048D01*
X133404181Y-127139049D01*
X133404184Y-127139051D01*
X133593588Y-127235557D01*
X133795757Y-127301246D01*
X134005713Y-127334500D01*
X134005714Y-127334500D01*
X134218286Y-127334500D01*
X134218287Y-127334500D01*
X134428243Y-127301246D01*
X134443837Y-127296178D01*
X134513676Y-127294182D01*
X134569837Y-127326428D01*
X136298168Y-129054760D01*
X136298172Y-129054763D01*
X136400615Y-129123214D01*
X136400616Y-129123214D01*
X136400620Y-129123217D01*
X136448210Y-129142929D01*
X136514453Y-129170368D01*
X136525172Y-129172500D01*
X136607103Y-129188797D01*
X136635297Y-129194406D01*
X136635299Y-129194406D01*
X136764626Y-129194406D01*
X136764646Y-129194405D01*
X141620643Y-129194405D01*
X141687682Y-129214090D01*
X141708324Y-129230724D01*
X143338181Y-130860581D01*
X143371666Y-130921904D01*
X143374500Y-130948262D01*
X143374500Y-136534141D01*
X143369734Y-136550370D01*
X143369989Y-136567282D01*
X143360094Y-136583199D01*
X143354815Y-136601180D01*
X143342033Y-136612255D01*
X143333103Y-136626622D01*
X143316172Y-136634663D01*
X143302011Y-136646935D01*
X143285271Y-136649341D01*
X143269991Y-136656600D01*
X143251401Y-136654212D01*
X143232853Y-136656879D01*
X143217031Y-136649797D01*
X143200691Y-136647698D01*
X143178556Y-136632574D01*
X143170716Y-136629065D01*
X143166609Y-136625613D01*
X143105138Y-136564142D01*
X143053914Y-136529915D01*
X143002691Y-136495688D01*
X143002688Y-136495686D01*
X143002685Y-136495685D01*
X142929008Y-136465168D01*
X142929006Y-136465167D01*
X142922197Y-136462347D01*
X142888857Y-136448537D01*
X142828434Y-136436518D01*
X142823711Y-136435578D01*
X142823709Y-136435578D01*
X142768015Y-136424500D01*
X142768012Y-136424500D01*
X142768011Y-136424500D01*
X141835202Y-136424500D01*
X141711988Y-136424500D01*
X141711984Y-136424500D01*
X141656292Y-136435578D01*
X141651566Y-136436518D01*
X141613854Y-136444019D01*
X141591145Y-136448536D01*
X141591143Y-136448537D01*
X141557802Y-136462347D01*
X141477314Y-136495684D01*
X141477300Y-136495692D01*
X141374867Y-136564138D01*
X141374859Y-136564144D01*
X137182144Y-140756859D01*
X137182138Y-140756867D01*
X137113690Y-140859303D01*
X137113688Y-140859309D01*
X137080473Y-140939500D01*
X137066537Y-140973143D01*
X137052207Y-141045183D01*
X137050991Y-141049582D01*
X137034871Y-141075553D01*
X137020711Y-141102624D01*
X137015823Y-141106242D01*
X137014145Y-141108947D01*
X137008620Y-141111575D01*
X136990454Y-141125025D01*
X136990542Y-141125168D01*
X136988917Y-141126163D01*
X136987789Y-141126999D01*
X136986392Y-141127711D01*
X136986389Y-141127712D01*
X136820786Y-141248028D01*
X136676028Y-141392786D01*
X136552849Y-141562331D01*
X136551176Y-141561115D01*
X136505792Y-141602169D01*
X136451885Y-141614500D01*
X129985388Y-141614500D01*
X129864555Y-141638535D01*
X129864547Y-141638537D01*
X129750716Y-141685687D01*
X129668265Y-141740780D01*
X129648266Y-141754142D01*
X129648260Y-141754147D01*
X126841411Y-144560997D01*
X126780088Y-144594482D01*
X126734332Y-144595789D01*
X126665091Y-144584822D01*
X126587292Y-144572500D01*
X126394708Y-144572500D01*
X126331304Y-144582542D01*
X126204494Y-144602627D01*
X126204491Y-144602627D01*
X126021341Y-144662136D01*
X126021338Y-144662137D01*
X125849745Y-144749569D01*
X125815544Y-144774418D01*
X125693943Y-144862767D01*
X125693941Y-144862769D01*
X125693940Y-144862769D01*
X125563681Y-144993029D01*
X125502358Y-145026514D01*
X125432666Y-145021530D01*
X125388319Y-144993029D01*
X125258056Y-144862766D01*
X125212613Y-144829749D01*
X125169948Y-144774418D01*
X125161500Y-144729432D01*
X125161500Y-138073682D01*
X135940000Y-138073682D01*
X135940000Y-138278317D01*
X135972009Y-138480417D01*
X136035244Y-138675031D01*
X136128141Y-138857350D01*
X136128147Y-138857359D01*
X136160523Y-138901921D01*
X136160524Y-138901922D01*
X136840000Y-138222446D01*
X136840000Y-138228661D01*
X136867259Y-138330394D01*
X136919920Y-138421606D01*
X136994394Y-138496080D01*
X137085606Y-138548741D01*
X137187339Y-138576000D01*
X137193553Y-138576000D01*
X136514076Y-139255474D01*
X136558650Y-139287859D01*
X136740968Y-139380755D01*
X136935582Y-139443990D01*
X137137683Y-139476000D01*
X137342317Y-139476000D01*
X137544417Y-139443990D01*
X137739031Y-139380755D01*
X137921349Y-139287859D01*
X137965921Y-139255474D01*
X137286447Y-138576000D01*
X137292661Y-138576000D01*
X137394394Y-138548741D01*
X137485606Y-138496080D01*
X137560080Y-138421606D01*
X137612741Y-138330394D01*
X137640000Y-138228661D01*
X137640000Y-138222447D01*
X138319474Y-138901921D01*
X138351859Y-138857349D01*
X138444755Y-138675031D01*
X138507990Y-138480417D01*
X138540000Y-138278317D01*
X138540000Y-138073682D01*
X138507990Y-137871582D01*
X138444755Y-137676968D01*
X138351859Y-137494650D01*
X138319474Y-137450077D01*
X138319474Y-137450076D01*
X137640000Y-138129551D01*
X137640000Y-138123339D01*
X137612741Y-138021606D01*
X137560080Y-137930394D01*
X137485606Y-137855920D01*
X137394394Y-137803259D01*
X137292661Y-137776000D01*
X137286446Y-137776000D01*
X137965922Y-137096524D01*
X137965921Y-137096523D01*
X137921359Y-137064147D01*
X137921350Y-137064141D01*
X137739031Y-136971244D01*
X137544417Y-136908009D01*
X137342317Y-136876000D01*
X137137683Y-136876000D01*
X136935582Y-136908009D01*
X136740968Y-136971244D01*
X136558644Y-137064143D01*
X136514077Y-137096523D01*
X136514077Y-137096524D01*
X137193554Y-137776000D01*
X137187339Y-137776000D01*
X137085606Y-137803259D01*
X136994394Y-137855920D01*
X136919920Y-137930394D01*
X136867259Y-138021606D01*
X136840000Y-138123339D01*
X136840000Y-138129553D01*
X136160524Y-137450077D01*
X136160523Y-137450077D01*
X136128143Y-137494644D01*
X136035244Y-137676968D01*
X135972009Y-137871582D01*
X135940000Y-138073682D01*
X125161500Y-138073682D01*
X125161500Y-136113205D01*
X125170144Y-136083764D01*
X125176668Y-136053778D01*
X125180422Y-136048762D01*
X125181185Y-136046166D01*
X125197819Y-136025524D01*
X125278524Y-135944819D01*
X125339847Y-135911334D01*
X125366205Y-135908500D01*
X127245481Y-135908500D01*
X127312520Y-135928185D01*
X127333162Y-135944819D01*
X127523892Y-136135549D01*
X127714194Y-136325850D01*
X127747679Y-136387173D01*
X127748986Y-136432929D01*
X127730500Y-136549642D01*
X127730500Y-136754351D01*
X127762522Y-136956534D01*
X127825781Y-137151223D01*
X127918715Y-137333613D01*
X128039028Y-137499213D01*
X128183786Y-137643971D01*
X128325870Y-137747199D01*
X128349390Y-137764287D01*
X128425877Y-137803259D01*
X128531776Y-137857218D01*
X128531778Y-137857218D01*
X128531781Y-137857220D01*
X128575983Y-137871582D01*
X128726465Y-137920477D01*
X128789078Y-137930394D01*
X128928648Y-137952500D01*
X128928649Y-137952500D01*
X129133351Y-137952500D01*
X129133352Y-137952500D01*
X129335534Y-137920477D01*
X129530219Y-137857220D01*
X129712610Y-137764287D01*
X129805590Y-137696732D01*
X129878213Y-137643971D01*
X129878215Y-137643968D01*
X129878219Y-137643966D01*
X130022966Y-137499219D01*
X130022968Y-137499215D01*
X130022971Y-137499213D01*
X130075732Y-137426590D01*
X130143287Y-137333610D01*
X130236220Y-137151219D01*
X130299477Y-136956534D01*
X130331500Y-136754352D01*
X130331500Y-136549648D01*
X130328375Y-136529915D01*
X130299477Y-136347465D01*
X130266964Y-136247401D01*
X130236220Y-136152781D01*
X130236218Y-136152778D01*
X130236218Y-136152776D01*
X130189354Y-136060802D01*
X130143287Y-135970390D01*
X130112730Y-135928331D01*
X130022971Y-135804786D01*
X129878213Y-135660028D01*
X129712613Y-135539715D01*
X129712612Y-135539714D01*
X129712610Y-135539713D01*
X129655653Y-135510691D01*
X129530223Y-135446781D01*
X129335534Y-135383522D01*
X129160995Y-135355878D01*
X129133352Y-135351500D01*
X128928648Y-135351500D01*
X128928643Y-135351500D01*
X128811929Y-135369986D01*
X128742636Y-135361032D01*
X128704850Y-135335194D01*
X128033546Y-134663888D01*
X128033545Y-134663887D01*
X127918807Y-134587222D01*
X127791332Y-134534421D01*
X127791322Y-134534418D01*
X127655996Y-134507500D01*
X127655994Y-134507500D01*
X127655993Y-134507500D01*
X125366205Y-134507500D01*
X125299166Y-134487815D01*
X125278524Y-134471182D01*
X125234175Y-134426833D01*
X125175928Y-134368586D01*
X125035788Y-134266768D01*
X124881445Y-134188127D01*
X124716701Y-134134598D01*
X124716699Y-134134597D01*
X124716698Y-134134597D01*
X124585271Y-134113781D01*
X124545611Y-134107500D01*
X124413000Y-134107500D01*
X124345961Y-134087815D01*
X124300206Y-134035011D01*
X124289000Y-133983500D01*
X124289000Y-133851428D01*
X124261914Y-133680415D01*
X124208408Y-133515742D01*
X124129801Y-133361471D01*
X124125290Y-133355262D01*
X124125289Y-133355261D01*
X123610725Y-133869826D01*
X123585037Y-133773956D01*
X123529084Y-133677044D01*
X123449956Y-133597916D01*
X123353044Y-133541963D01*
X123257172Y-133516274D01*
X123771737Y-133001709D01*
X123765525Y-132997196D01*
X123611259Y-132918592D01*
X123446584Y-132865085D01*
X123275571Y-132838000D01*
X123102429Y-132838000D01*
X122931415Y-132865085D01*
X122766740Y-132918592D01*
X122612480Y-132997193D01*
X122612463Y-132997203D01*
X122606261Y-133001708D01*
X122606261Y-133001709D01*
X123120828Y-133516274D01*
X123024956Y-133541963D01*
X122928044Y-133597916D01*
X122848916Y-133677044D01*
X122792963Y-133773956D01*
X122767274Y-133869827D01*
X122252709Y-133355261D01*
X122252708Y-133355261D01*
X122248203Y-133361463D01*
X122248193Y-133361480D01*
X122169592Y-133515740D01*
X122116085Y-133680415D01*
X122089000Y-133851428D01*
X122089000Y-133983500D01*
X122069315Y-134050539D01*
X122016511Y-134096294D01*
X121965000Y-134107500D01*
X121271129Y-134107500D01*
X121271123Y-134107501D01*
X121211516Y-134113908D01*
X121076671Y-134164202D01*
X121076664Y-134164206D01*
X120961455Y-134250452D01*
X120961452Y-134250455D01*
X120875206Y-134365664D01*
X120875202Y-134365671D01*
X120852391Y-134426833D01*
X120810520Y-134482767D01*
X120745056Y-134507184D01*
X120736209Y-134507500D01*
X118722003Y-134507500D01*
X118619811Y-134527827D01*
X118619803Y-134527829D01*
X118613591Y-134529065D01*
X118586671Y-134534420D01*
X118558259Y-134546189D01*
X118552864Y-134548423D01*
X118552853Y-134548427D01*
X118459191Y-134587223D01*
X118380633Y-134639715D01*
X118380632Y-134639716D01*
X118344454Y-134663888D01*
X117673148Y-135335194D01*
X117611825Y-135368679D01*
X117566069Y-135369986D01*
X117505613Y-135360410D01*
X117449352Y-135351500D01*
X117244648Y-135351500D01*
X117220329Y-135355351D01*
X117042465Y-135383522D01*
X116847776Y-135446781D01*
X116665386Y-135539715D01*
X116499786Y-135660028D01*
X116355028Y-135804786D01*
X116234715Y-135970386D01*
X116141781Y-136152776D01*
X116078522Y-136347465D01*
X116046500Y-136549648D01*
X116046500Y-136754351D01*
X116078522Y-136956534D01*
X116141781Y-137151223D01*
X116234715Y-137333613D01*
X116355028Y-137499213D01*
X116499786Y-137643971D01*
X116641870Y-137747199D01*
X116665390Y-137764287D01*
X116741877Y-137803259D01*
X116847776Y-137857218D01*
X116847778Y-137857218D01*
X116847781Y-137857220D01*
X116891983Y-137871582D01*
X117042465Y-137920477D01*
X117105078Y-137930394D01*
X117244648Y-137952500D01*
X117244649Y-137952500D01*
X117449351Y-137952500D01*
X117449352Y-137952500D01*
X117651534Y-137920477D01*
X117846219Y-137857220D01*
X118028610Y-137764287D01*
X118121590Y-137696732D01*
X118194213Y-137643971D01*
X118194215Y-137643968D01*
X118194219Y-137643966D01*
X118338966Y-137499219D01*
X118338968Y-137499215D01*
X118338971Y-137499213D01*
X118391732Y-137426590D01*
X118459287Y-137333610D01*
X118552220Y-137151219D01*
X118615477Y-136956534D01*
X118647500Y-136754352D01*
X118647500Y-136549648D01*
X118629012Y-136432926D01*
X118637966Y-136363637D01*
X118663801Y-136325853D01*
X119044837Y-135944819D01*
X119106160Y-135911334D01*
X119132518Y-135908500D01*
X120736209Y-135908500D01*
X120803248Y-135928185D01*
X120849003Y-135980989D01*
X120852391Y-135989167D01*
X120875202Y-136050328D01*
X120875206Y-136050335D01*
X120961452Y-136165544D01*
X120961455Y-136165547D01*
X121076664Y-136251793D01*
X121076671Y-136251797D01*
X121211517Y-136302091D01*
X121211516Y-136302091D01*
X121218444Y-136302835D01*
X121271127Y-136308500D01*
X122566872Y-136308499D01*
X122626483Y-136302091D01*
X122761331Y-136251796D01*
X122876546Y-136165546D01*
X122962796Y-136050331D01*
X123013091Y-135915483D01*
X123019500Y-135855873D01*
X123019499Y-135161998D01*
X123022049Y-135153313D01*
X123020761Y-135144353D01*
X123031738Y-135120316D01*
X123039183Y-135094961D01*
X123046025Y-135089032D01*
X123049786Y-135080797D01*
X123072017Y-135066510D01*
X123091987Y-135049206D01*
X123102502Y-135046918D01*
X123108564Y-135043023D01*
X123143499Y-135038000D01*
X123234500Y-135038000D01*
X123301539Y-135057685D01*
X123347294Y-135110489D01*
X123358500Y-135162000D01*
X123358500Y-135294611D01*
X123385598Y-135465701D01*
X123439127Y-135630445D01*
X123517768Y-135784788D01*
X123619586Y-135924928D01*
X123619588Y-135924930D01*
X123724181Y-136029523D01*
X123757666Y-136090846D01*
X123760500Y-136117204D01*
X123760500Y-144729432D01*
X123740815Y-144796471D01*
X123709387Y-144829749D01*
X123663943Y-144862766D01*
X123663940Y-144862769D01*
X123531181Y-144995529D01*
X123469858Y-145029014D01*
X123400166Y-145024030D01*
X123355819Y-144995529D01*
X123223059Y-144862769D01*
X123223057Y-144862767D01*
X123067254Y-144749569D01*
X123027733Y-144729432D01*
X122895661Y-144662137D01*
X122895658Y-144662136D01*
X122712506Y-144602627D01*
X122585696Y-144582542D01*
X122522292Y-144572500D01*
X122329708Y-144572500D01*
X122266304Y-144582542D01*
X122139494Y-144602627D01*
X122139491Y-144602627D01*
X121956341Y-144662136D01*
X121956338Y-144662137D01*
X121784745Y-144749569D01*
X121750544Y-144774418D01*
X121628943Y-144862767D01*
X121628941Y-144862769D01*
X121628940Y-144862769D01*
X121498681Y-144993029D01*
X121437358Y-145026514D01*
X121367666Y-145021530D01*
X121323319Y-144993029D01*
X121193059Y-144862769D01*
X121193057Y-144862767D01*
X121037254Y-144749569D01*
X120997733Y-144729432D01*
X120865661Y-144662137D01*
X120865658Y-144662136D01*
X120682506Y-144602627D01*
X120555696Y-144582542D01*
X120492292Y-144572500D01*
X120299708Y-144572500D01*
X120236304Y-144582542D01*
X120109494Y-144602627D01*
X120109491Y-144602627D01*
X119926341Y-144662136D01*
X119926338Y-144662137D01*
X119754745Y-144749569D01*
X119720544Y-144774418D01*
X119598943Y-144862767D01*
X119598941Y-144862769D01*
X119598940Y-144862769D01*
X119462769Y-144998940D01*
X119462769Y-144998941D01*
X119462767Y-144998943D01*
X119440919Y-145029014D01*
X119349569Y-145154745D01*
X119262137Y-145326338D01*
X119262136Y-145326341D01*
X119202627Y-145509491D01*
X119202627Y-145509494D01*
X119172500Y-145699708D01*
X119172500Y-145892291D01*
X119202627Y-146082505D01*
X119202627Y-146082508D01*
X119262136Y-146265658D01*
X119262137Y-146265661D01*
X119335276Y-146409202D01*
X119349569Y-146437254D01*
X119462767Y-146593057D01*
X119598943Y-146729233D01*
X119754746Y-146842431D01*
X119822160Y-146876780D01*
X119926338Y-146929862D01*
X119926341Y-146929863D01*
X120109492Y-146989372D01*
X120109493Y-146989372D01*
X120109496Y-146989373D01*
X120161679Y-146997638D01*
X120224813Y-147027567D01*
X120261745Y-147086878D01*
X120260747Y-147156741D01*
X120260212Y-147158429D01*
X120217627Y-147289491D01*
X120217627Y-147289494D01*
X120187500Y-147479708D01*
X120187500Y-147672291D01*
X120217627Y-147862505D01*
X120217627Y-147862508D01*
X120277136Y-148045658D01*
X120277137Y-148045661D01*
X120351071Y-148190763D01*
X120364569Y-148217254D01*
X120477767Y-148373057D01*
X120613943Y-148509233D01*
X120769746Y-148622431D01*
X120853907Y-148665313D01*
X120941338Y-148709862D01*
X120941341Y-148709863D01*
X121042700Y-148742796D01*
X121124496Y-148769373D01*
X121314708Y-148799500D01*
X121314709Y-148799500D01*
X121507291Y-148799500D01*
X121507292Y-148799500D01*
X121697504Y-148769373D01*
X121697507Y-148769372D01*
X121697508Y-148769372D01*
X121880658Y-148709863D01*
X121880661Y-148709862D01*
X121894327Y-148702899D01*
X122052254Y-148622431D01*
X122208057Y-148509233D01*
X122344233Y-148373057D01*
X122457431Y-148217254D01*
X122460187Y-148211843D01*
X122482994Y-148180451D01*
X123002944Y-147660501D01*
X123026326Y-147747764D01*
X123084911Y-147849236D01*
X123167764Y-147932089D01*
X123269236Y-147990674D01*
X123356497Y-148014055D01*
X122770202Y-148600348D01*
X122800008Y-148622004D01*
X122971526Y-148709397D01*
X123154612Y-148768886D01*
X123344743Y-148799000D01*
X123537257Y-148799000D01*
X123727387Y-148768886D01*
X123910473Y-148709397D01*
X124081994Y-148622002D01*
X124081998Y-148622000D01*
X124111795Y-148600349D01*
X124111796Y-148600348D01*
X123525503Y-148014055D01*
X123612764Y-147990674D01*
X123714236Y-147932089D01*
X123797089Y-147849236D01*
X123855674Y-147747764D01*
X123879055Y-147660502D01*
X124409316Y-148190763D01*
X124427358Y-148213647D01*
X124429565Y-148217248D01*
X124429568Y-148217252D01*
X124429569Y-148217254D01*
X124542767Y-148373057D01*
X124678943Y-148509233D01*
X124834746Y-148622431D01*
X124918907Y-148665313D01*
X125006338Y-148709862D01*
X125006341Y-148709863D01*
X125107700Y-148742796D01*
X125189496Y-148769373D01*
X125379708Y-148799500D01*
X125379709Y-148799500D01*
X125572291Y-148799500D01*
X125572292Y-148799500D01*
X125762504Y-148769373D01*
X125762507Y-148769372D01*
X125762508Y-148769372D01*
X125945658Y-148709863D01*
X125945661Y-148709862D01*
X125959327Y-148702899D01*
X126117254Y-148622431D01*
X126201443Y-148561263D01*
X126267248Y-148537784D01*
X126335302Y-148553609D01*
X126373594Y-148587271D01*
X126425452Y-148656544D01*
X126425455Y-148656547D01*
X126540664Y-148742793D01*
X126540671Y-148742797D01*
X126585618Y-148759561D01*
X126675517Y-148793091D01*
X126735127Y-148799500D01*
X126756497Y-148799499D01*
X126823535Y-148819181D01*
X126869292Y-148871983D01*
X126880500Y-148923499D01*
X126880500Y-150212447D01*
X126892517Y-150272868D01*
X126898847Y-150304690D01*
X126903029Y-150325714D01*
X126903030Y-150325718D01*
X126904537Y-150333295D01*
X126951685Y-150447122D01*
X126951691Y-150447133D01*
X126956319Y-150454058D01*
X126981338Y-150491500D01*
X127020142Y-150549574D01*
X127107267Y-150636699D01*
X127107269Y-150636700D01*
X127117445Y-150646876D01*
X131896422Y-155425855D01*
X131896426Y-155425858D01*
X131998869Y-155494309D01*
X131998870Y-155494309D01*
X131998874Y-155494312D01*
X132053634Y-155516994D01*
X132112707Y-155541463D01*
X132132756Y-155545451D01*
X132181462Y-155555139D01*
X132233551Y-155565501D01*
X132233553Y-155565501D01*
X132362880Y-155565501D01*
X132362900Y-155565500D01*
X136344533Y-155565500D01*
X136411572Y-155585185D01*
X136457327Y-155637989D01*
X136460715Y-155646166D01*
X136474203Y-155682330D01*
X136474206Y-155682335D01*
X136560452Y-155797544D01*
X136560455Y-155797547D01*
X136675664Y-155883793D01*
X136675671Y-155883797D01*
X136810517Y-155934091D01*
X136810516Y-155934091D01*
X136817444Y-155934835D01*
X136870127Y-155940500D01*
X138465872Y-155940499D01*
X138525483Y-155934091D01*
X138660331Y-155883796D01*
X138775546Y-155797546D01*
X138861796Y-155682331D01*
X138875285Y-155646166D01*
X138917157Y-155590233D01*
X138982621Y-155565816D01*
X138991467Y-155565500D01*
X140916533Y-155565500D01*
X140983572Y-155585185D01*
X141029327Y-155637989D01*
X141032715Y-155646166D01*
X141046203Y-155682330D01*
X141046206Y-155682335D01*
X141132452Y-155797544D01*
X141132455Y-155797547D01*
X141247664Y-155883793D01*
X141247671Y-155883797D01*
X141382517Y-155934091D01*
X141382516Y-155934091D01*
X141389444Y-155934835D01*
X141442127Y-155940500D01*
X142304545Y-155940499D01*
X142371584Y-155960183D01*
X142392226Y-155976818D01*
X142809263Y-156393855D01*
X142809266Y-156393857D01*
X142809267Y-156393858D01*
X142911715Y-156462312D01*
X142911718Y-156462313D01*
X142917081Y-156465180D01*
X142916051Y-156467105D01*
X142962802Y-156504777D01*
X142984869Y-156571071D01*
X142967592Y-156638770D01*
X142916456Y-156686382D01*
X142860948Y-156699500D01*
X81424500Y-156699500D01*
X81357461Y-156679815D01*
X81311706Y-156627011D01*
X81300500Y-156575500D01*
X81300500Y-152668135D01*
X82827500Y-152668135D01*
X82827500Y-154163870D01*
X82827501Y-154163876D01*
X82833908Y-154223483D01*
X82884202Y-154358328D01*
X82884206Y-154358335D01*
X82970452Y-154473544D01*
X82970455Y-154473547D01*
X83085664Y-154559793D01*
X83085671Y-154559797D01*
X83220517Y-154610091D01*
X83220516Y-154610091D01*
X83227444Y-154610835D01*
X83280127Y-154616500D01*
X84736480Y-154616499D01*
X84803519Y-154636184D01*
X84824161Y-154652818D01*
X86163453Y-155992111D01*
X86163454Y-155992112D01*
X86278192Y-156068777D01*
X86405667Y-156121578D01*
X86405672Y-156121580D01*
X86405676Y-156121580D01*
X86405677Y-156121581D01*
X86541003Y-156148500D01*
X86541006Y-156148500D01*
X106748996Y-156148500D01*
X106840040Y-156130389D01*
X106884328Y-156121580D01*
X106948069Y-156095177D01*
X107011807Y-156068777D01*
X107011808Y-156068776D01*
X107011811Y-156068775D01*
X107126543Y-155992114D01*
X107282448Y-155836207D01*
X107343769Y-155802723D01*
X107389522Y-155801416D01*
X107585778Y-155832500D01*
X107585779Y-155832500D01*
X107806221Y-155832500D01*
X107806222Y-155832500D01*
X108023951Y-155798015D01*
X108233606Y-155729895D01*
X108430022Y-155629815D01*
X108608365Y-155500242D01*
X108764242Y-155344365D01*
X108893815Y-155166022D01*
X108993895Y-154969606D01*
X109062015Y-154759951D01*
X109096500Y-154542222D01*
X109096500Y-154321778D01*
X109062015Y-154104049D01*
X108993895Y-153894394D01*
X108993895Y-153894393D01*
X108959237Y-153826375D01*
X108893815Y-153697978D01*
X108870582Y-153666000D01*
X108764247Y-153519641D01*
X108764243Y-153519636D01*
X108714071Y-153469464D01*
X108680586Y-153408141D01*
X108685570Y-153338449D01*
X108727442Y-153282516D01*
X108758420Y-153265601D01*
X108838326Y-153235798D01*
X108838326Y-153235797D01*
X108838331Y-153235796D01*
X108953546Y-153149546D01*
X109039796Y-153034331D01*
X109090091Y-152899483D01*
X109096500Y-152839873D01*
X109096499Y-150944128D01*
X109090091Y-150884517D01*
X109077950Y-150851966D01*
X109039797Y-150749671D01*
X109039793Y-150749664D01*
X108955227Y-150636700D01*
X108953546Y-150634454D01*
X108847691Y-150555211D01*
X108805822Y-150499279D01*
X108800838Y-150429587D01*
X108834321Y-150368267D01*
X109209523Y-149993065D01*
X115725500Y-149993065D01*
X115725500Y-150238934D01*
X115747523Y-150406207D01*
X115757591Y-150482677D01*
X115821222Y-150720152D01*
X115821225Y-150720162D01*
X115913993Y-150944123D01*
X115915306Y-150947292D01*
X116038233Y-151160208D01*
X116038235Y-151160211D01*
X116038236Y-151160212D01*
X116187897Y-151355254D01*
X116187903Y-151355261D01*
X116361738Y-151529096D01*
X116361744Y-151529101D01*
X116556792Y-151678767D01*
X116769708Y-151801694D01*
X116996847Y-151895778D01*
X117234323Y-151959409D01*
X117478073Y-151991500D01*
X117478080Y-151991500D01*
X117723920Y-151991500D01*
X117723927Y-151991500D01*
X117967677Y-151959409D01*
X118205153Y-151895778D01*
X118432292Y-151801694D01*
X118645208Y-151678767D01*
X118840256Y-151529101D01*
X119014101Y-151355256D01*
X119163767Y-151160208D01*
X119286694Y-150947292D01*
X119380778Y-150720153D01*
X119444409Y-150482677D01*
X119476500Y-150238927D01*
X119476500Y-149993073D01*
X119444409Y-149749323D01*
X119380778Y-149511847D01*
X119380512Y-149511206D01*
X119313936Y-149350477D01*
X119286694Y-149284708D01*
X119163767Y-149071792D01*
X119054362Y-148929213D01*
X119014102Y-148876745D01*
X119014096Y-148876738D01*
X118840261Y-148702903D01*
X118840254Y-148702897D01*
X118645212Y-148553236D01*
X118645211Y-148553235D01*
X118645208Y-148553233D01*
X118432292Y-148430306D01*
X118381198Y-148409142D01*
X118205162Y-148336225D01*
X118205155Y-148336223D01*
X118205153Y-148336222D01*
X117967677Y-148272591D01*
X117926939Y-148267227D01*
X117723934Y-148240500D01*
X117723927Y-148240500D01*
X117478073Y-148240500D01*
X117478065Y-148240500D01*
X117246059Y-148271045D01*
X117234323Y-148272591D01*
X117000329Y-148335289D01*
X116996847Y-148336222D01*
X116996837Y-148336225D01*
X116769714Y-148430303D01*
X116769705Y-148430307D01*
X116556787Y-148553236D01*
X116361745Y-148702897D01*
X116361738Y-148702903D01*
X116187903Y-148876738D01*
X116187897Y-148876745D01*
X116038236Y-149071787D01*
X115915307Y-149284705D01*
X115915303Y-149284714D01*
X115821225Y-149511837D01*
X115821222Y-149511847D01*
X115762178Y-149732206D01*
X115757592Y-149749320D01*
X115757590Y-149749331D01*
X115725500Y-149993065D01*
X109209523Y-149993065D01*
X109818373Y-149384215D01*
X109879694Y-149350732D01*
X109926410Y-149351249D01*
X109926654Y-149349715D01*
X109996490Y-149360776D01*
X110133648Y-149382500D01*
X110133649Y-149382500D01*
X110338351Y-149382500D01*
X110338352Y-149382500D01*
X110540534Y-149350477D01*
X110735219Y-149287220D01*
X110917610Y-149194287D01*
X111010590Y-149126732D01*
X111083213Y-149073971D01*
X111083215Y-149073968D01*
X111083219Y-149073966D01*
X111227966Y-148929219D01*
X111227968Y-148929215D01*
X111227971Y-148929213D01*
X111280828Y-148856460D01*
X111348287Y-148763610D01*
X111441220Y-148581219D01*
X111504477Y-148386534D01*
X111536500Y-148184352D01*
X111536500Y-147979648D01*
X111504477Y-147777465D01*
X111453391Y-147620239D01*
X111441220Y-147582781D01*
X111441218Y-147582778D01*
X111441218Y-147582776D01*
X111392368Y-147486904D01*
X111348287Y-147400390D01*
X111335181Y-147382351D01*
X111227971Y-147234786D01*
X111083213Y-147090028D01*
X110917613Y-146969715D01*
X110917612Y-146969714D01*
X110917610Y-146969713D01*
X110839398Y-146929862D01*
X110735223Y-146876781D01*
X110540534Y-146813522D01*
X110365995Y-146785878D01*
X110338352Y-146781500D01*
X110133648Y-146781500D01*
X110109329Y-146785351D01*
X109931465Y-146813522D01*
X109736776Y-146876781D01*
X109554386Y-146969715D01*
X109388786Y-147090028D01*
X109244028Y-147234786D01*
X109123715Y-147400386D01*
X109030781Y-147582776D01*
X108967522Y-147777465D01*
X108935500Y-147979648D01*
X108935500Y-148184352D01*
X108937056Y-148194177D01*
X108968285Y-148391346D01*
X108966252Y-148391667D01*
X108963165Y-148452834D01*
X108933781Y-148499627D01*
X108102393Y-149331016D01*
X107297269Y-150136140D01*
X107297267Y-150136142D01*
X107268875Y-150164534D01*
X107210142Y-150223266D01*
X107184469Y-150261689D01*
X107184468Y-150261688D01*
X107141686Y-150325716D01*
X107141685Y-150325718D01*
X107111061Y-150399654D01*
X107067221Y-150454058D01*
X107000927Y-150476123D01*
X106933227Y-150458844D01*
X106885616Y-150407707D01*
X106872500Y-150352202D01*
X106872500Y-148441744D01*
X106892185Y-148374705D01*
X106923615Y-148341426D01*
X107019215Y-148271969D01*
X107019215Y-148271968D01*
X107019219Y-148271966D01*
X107163966Y-148127219D01*
X107163968Y-148127215D01*
X107163971Y-148127213D01*
X107241138Y-148021000D01*
X107284287Y-147961610D01*
X107377220Y-147779219D01*
X107440477Y-147584534D01*
X107472500Y-147382352D01*
X107472500Y-147177648D01*
X107448729Y-147027567D01*
X107440477Y-146975465D01*
X107397251Y-146842430D01*
X107377220Y-146780781D01*
X107377218Y-146780778D01*
X107377218Y-146780776D01*
X107299503Y-146628254D01*
X107299502Y-146628252D01*
X107292898Y-146615291D01*
X107284287Y-146598390D01*
X107284286Y-146598388D01*
X107268038Y-146576024D01*
X114173000Y-146576024D01*
X114173000Y-146795975D01*
X114173001Y-146795991D01*
X114201710Y-147014062D01*
X114258641Y-147226531D01*
X114342817Y-147429749D01*
X114342822Y-147429760D01*
X114452796Y-147620239D01*
X114452807Y-147620255D01*
X114586704Y-147794754D01*
X114586710Y-147794761D01*
X114742238Y-147950289D01*
X114742244Y-147950294D01*
X114916753Y-148084199D01*
X114916760Y-148084203D01*
X115107239Y-148194177D01*
X115107244Y-148194179D01*
X115107247Y-148194181D01*
X115310467Y-148278358D01*
X115522936Y-148335289D01*
X115741018Y-148364000D01*
X115741025Y-148364000D01*
X115960975Y-148364000D01*
X115960982Y-148364000D01*
X116179064Y-148335289D01*
X116391533Y-148278358D01*
X116594753Y-148194181D01*
X116785247Y-148084199D01*
X116959756Y-147950294D01*
X117115294Y-147794756D01*
X117249199Y-147620247D01*
X117359181Y-147429753D01*
X117443358Y-147226533D01*
X117500289Y-147014064D01*
X117529000Y-146795982D01*
X117529000Y-146576018D01*
X117500289Y-146357936D01*
X117443358Y-146145467D01*
X117359181Y-145942247D01*
X117359179Y-145942244D01*
X117359177Y-145942239D01*
X117249203Y-145751760D01*
X117249199Y-145751753D01*
X117115294Y-145577244D01*
X117115289Y-145577238D01*
X116959761Y-145421710D01*
X116959754Y-145421704D01*
X116785255Y-145287807D01*
X116785253Y-145287805D01*
X116785247Y-145287801D01*
X116785242Y-145287798D01*
X116785239Y-145287796D01*
X116594760Y-145177822D01*
X116594749Y-145177817D01*
X116391531Y-145093641D01*
X116179062Y-145036710D01*
X115960991Y-145008001D01*
X115960988Y-145008000D01*
X115960982Y-145008000D01*
X115741018Y-145008000D01*
X115741012Y-145008000D01*
X115741008Y-145008001D01*
X115522937Y-145036710D01*
X115310468Y-145093641D01*
X115107250Y-145177817D01*
X115107239Y-145177822D01*
X114916760Y-145287796D01*
X114916744Y-145287807D01*
X114742245Y-145421704D01*
X114742238Y-145421710D01*
X114586710Y-145577238D01*
X114586704Y-145577245D01*
X114452807Y-145751744D01*
X114452796Y-145751760D01*
X114342822Y-145942239D01*
X114342817Y-145942250D01*
X114258641Y-146145468D01*
X114201710Y-146357937D01*
X114173001Y-146576008D01*
X114173000Y-146576024D01*
X107268038Y-146576024D01*
X107163971Y-146432786D01*
X107019213Y-146288028D01*
X106853613Y-146167715D01*
X106853612Y-146167714D01*
X106853610Y-146167713D01*
X106796653Y-146138691D01*
X106671223Y-146074781D01*
X106476534Y-146011522D01*
X106301995Y-145983878D01*
X106274352Y-145979500D01*
X106069648Y-145979500D01*
X106045329Y-145983351D01*
X105867465Y-146011522D01*
X105672776Y-146074781D01*
X105490386Y-146167715D01*
X105324786Y-146288028D01*
X105180028Y-146432786D01*
X105059715Y-146598386D01*
X104966781Y-146780776D01*
X104903522Y-146975465D01*
X104871500Y-147177648D01*
X104871500Y-147382351D01*
X104903522Y-147584534D01*
X104966781Y-147779223D01*
X105002455Y-147849236D01*
X105053947Y-147950294D01*
X105059715Y-147961613D01*
X105180028Y-148127213D01*
X105324784Y-148271969D01*
X105420385Y-148341426D01*
X105463051Y-148396755D01*
X105471500Y-148441744D01*
X105471500Y-152839006D01*
X105471500Y-152976994D01*
X105471500Y-152976996D01*
X105471499Y-152976996D01*
X105498418Y-153112322D01*
X105498421Y-153112332D01*
X105551222Y-153239807D01*
X105627887Y-153354545D01*
X105627888Y-153354546D01*
X106291791Y-154018448D01*
X106325276Y-154079771D01*
X106326583Y-154125527D01*
X106316707Y-154187883D01*
X106295500Y-154321778D01*
X106295500Y-154542222D01*
X106298284Y-154559797D01*
X106305301Y-154604102D01*
X106296346Y-154673396D01*
X106251350Y-154726847D01*
X106184599Y-154747487D01*
X106182828Y-154747500D01*
X101691314Y-154747500D01*
X101624275Y-154727815D01*
X101578520Y-154675011D01*
X101568576Y-154605853D01*
X101597601Y-154542297D01*
X101617002Y-154524234D01*
X101685190Y-154473187D01*
X101771350Y-154358093D01*
X101771354Y-154358086D01*
X101821596Y-154223379D01*
X101821598Y-154223372D01*
X101827999Y-154163844D01*
X101828000Y-154163827D01*
X101828000Y-153666000D01*
X98328000Y-153666000D01*
X98328000Y-154163844D01*
X98334401Y-154223372D01*
X98334403Y-154223379D01*
X98384645Y-154358086D01*
X98384649Y-154358093D01*
X98470809Y-154473187D01*
X98538998Y-154524234D01*
X98580868Y-154580168D01*
X98585852Y-154649859D01*
X98552366Y-154711182D01*
X98491043Y-154744667D01*
X98464686Y-154747500D01*
X86951519Y-154747500D01*
X86884480Y-154727815D01*
X86863838Y-154711181D01*
X86364818Y-154212161D01*
X86331333Y-154150838D01*
X86328499Y-154124489D01*
X86328499Y-152668128D01*
X86322091Y-152608517D01*
X86306610Y-152567011D01*
X86271797Y-152473671D01*
X86271793Y-152473664D01*
X86185547Y-152358455D01*
X86185544Y-152358452D01*
X86070335Y-152272206D01*
X86070328Y-152272202D01*
X85935482Y-152221908D01*
X85935483Y-152221908D01*
X85875883Y-152215501D01*
X85875881Y-152215500D01*
X85875873Y-152215500D01*
X85875864Y-152215500D01*
X83280129Y-152215500D01*
X83280123Y-152215501D01*
X83220516Y-152221908D01*
X83085671Y-152272202D01*
X83085664Y-152272206D01*
X82970455Y-152358452D01*
X82970452Y-152358455D01*
X82884206Y-152473664D01*
X82884202Y-152473671D01*
X82833908Y-152608517D01*
X82827501Y-152668116D01*
X82827501Y-152668123D01*
X82827500Y-152668135D01*
X81300500Y-152668135D01*
X81300500Y-150128135D01*
X98327500Y-150128135D01*
X98327500Y-151623870D01*
X98327501Y-151623876D01*
X98333908Y-151683483D01*
X98384202Y-151818328D01*
X98384206Y-151818335D01*
X98470452Y-151933544D01*
X98470455Y-151933547D01*
X98585664Y-152019793D01*
X98585669Y-152019796D01*
X98613252Y-152030083D01*
X98669186Y-152071954D01*
X98693604Y-152137418D01*
X98678753Y-152205691D01*
X98629349Y-152255097D01*
X98613255Y-152262447D01*
X98585916Y-152272644D01*
X98585906Y-152272649D01*
X98470812Y-152358809D01*
X98470809Y-152358812D01*
X98384649Y-152473906D01*
X98384645Y-152473913D01*
X98334403Y-152608620D01*
X98334401Y-152608627D01*
X98328000Y-152668155D01*
X98328000Y-153166000D01*
X101828000Y-153166000D01*
X101828000Y-152668172D01*
X101827999Y-152668155D01*
X101821598Y-152608627D01*
X101821596Y-152608620D01*
X101771354Y-152473913D01*
X101771350Y-152473906D01*
X101685190Y-152358812D01*
X101685187Y-152358809D01*
X101570093Y-152272649D01*
X101570088Y-152272646D01*
X101542745Y-152262448D01*
X101486812Y-152220576D01*
X101462395Y-152155112D01*
X101477247Y-152086839D01*
X101526652Y-152037434D01*
X101542744Y-152030085D01*
X101570331Y-152019796D01*
X101685546Y-151933546D01*
X101771796Y-151818331D01*
X101822091Y-151683483D01*
X101828500Y-151623873D01*
X101828499Y-150128128D01*
X101822091Y-150068517D01*
X101802965Y-150017238D01*
X101771797Y-149933671D01*
X101771793Y-149933664D01*
X101685547Y-149818455D01*
X101685544Y-149818452D01*
X101570335Y-149732206D01*
X101570328Y-149732202D01*
X101435482Y-149681908D01*
X101435483Y-149681908D01*
X101375883Y-149675501D01*
X101375881Y-149675500D01*
X101375873Y-149675500D01*
X101375864Y-149675500D01*
X98780129Y-149675500D01*
X98780123Y-149675501D01*
X98720516Y-149681908D01*
X98585671Y-149732202D01*
X98585664Y-149732206D01*
X98470455Y-149818452D01*
X98470452Y-149818455D01*
X98384206Y-149933664D01*
X98384202Y-149933671D01*
X98333908Y-150068517D01*
X98327501Y-150128116D01*
X98327501Y-150128123D01*
X98327500Y-150128135D01*
X81300500Y-150128135D01*
X81300500Y-149624000D01*
X81320185Y-149556961D01*
X81372989Y-149511206D01*
X81424500Y-149500000D01*
X93500000Y-149500000D01*
X96000000Y-147000000D01*
X96000000Y-142177682D01*
X104872000Y-142177682D01*
X104872000Y-142382317D01*
X104904009Y-142584417D01*
X104967244Y-142779031D01*
X105060141Y-142961350D01*
X105060147Y-142961359D01*
X105092523Y-143005921D01*
X105092524Y-143005922D01*
X105772000Y-142326446D01*
X105772000Y-142332661D01*
X105799259Y-142434394D01*
X105851920Y-142525606D01*
X105926394Y-142600080D01*
X106017606Y-142652741D01*
X106119339Y-142680000D01*
X106125553Y-142680000D01*
X105446076Y-143359474D01*
X105490650Y-143391859D01*
X105672968Y-143484755D01*
X105867582Y-143547990D01*
X106069683Y-143580000D01*
X106274317Y-143580000D01*
X106476417Y-143547990D01*
X106671031Y-143484755D01*
X106853349Y-143391859D01*
X106897921Y-143359474D01*
X106218447Y-142680000D01*
X106224661Y-142680000D01*
X106326394Y-142652741D01*
X106417606Y-142600080D01*
X106492080Y-142525606D01*
X106544741Y-142434394D01*
X106572000Y-142332661D01*
X106572000Y-142326448D01*
X107251474Y-143005922D01*
X107251474Y-143005921D01*
X107283859Y-142961349D01*
X107376755Y-142779031D01*
X107439990Y-142584417D01*
X107472000Y-142382317D01*
X107472000Y-142177682D01*
X107439990Y-141975582D01*
X107376755Y-141780968D01*
X107283857Y-141598646D01*
X107260938Y-141567101D01*
X107260937Y-141567100D01*
X107251475Y-141554077D01*
X107251474Y-141554076D01*
X106572000Y-142233551D01*
X106572000Y-142227339D01*
X106544741Y-142125606D01*
X106492080Y-142034394D01*
X106417606Y-141959920D01*
X106326394Y-141907259D01*
X106224661Y-141880000D01*
X106218446Y-141880000D01*
X106897922Y-141200524D01*
X106897921Y-141200523D01*
X106853359Y-141168147D01*
X106853350Y-141168141D01*
X106671031Y-141075244D01*
X106476417Y-141012009D01*
X106274317Y-140980000D01*
X106069683Y-140980000D01*
X105867582Y-141012009D01*
X105672968Y-141075244D01*
X105490644Y-141168143D01*
X105446077Y-141200523D01*
X105446077Y-141200524D01*
X106125554Y-141880000D01*
X106119339Y-141880000D01*
X106017606Y-141907259D01*
X105926394Y-141959920D01*
X105851920Y-142034394D01*
X105799259Y-142125606D01*
X105772000Y-142227339D01*
X105772000Y-142233553D01*
X105092524Y-141554077D01*
X105092523Y-141554077D01*
X105060143Y-141598644D01*
X104967244Y-141780968D01*
X104904009Y-141975582D01*
X104872000Y-142177682D01*
X96000000Y-142177682D01*
X96000000Y-138551362D01*
X96019685Y-138484323D01*
X96036319Y-138463681D01*
X97071865Y-137428135D01*
X98327500Y-137428135D01*
X98327500Y-138923870D01*
X98327501Y-138923876D01*
X98333908Y-138983483D01*
X98384202Y-139118328D01*
X98384206Y-139118335D01*
X98470452Y-139233544D01*
X98470455Y-139233547D01*
X98585664Y-139319793D01*
X98585671Y-139319797D01*
X98612538Y-139329818D01*
X98668472Y-139371689D01*
X98692889Y-139437154D01*
X98678037Y-139505427D01*
X98628632Y-139554832D01*
X98612538Y-139562182D01*
X98585671Y-139572202D01*
X98585664Y-139572206D01*
X98470455Y-139658452D01*
X98470452Y-139658455D01*
X98384206Y-139773664D01*
X98384202Y-139773671D01*
X98333908Y-139908517D01*
X98327501Y-139968116D01*
X98327501Y-139968123D01*
X98327500Y-139968135D01*
X98327500Y-141463870D01*
X98327501Y-141463876D01*
X98333908Y-141523483D01*
X98384202Y-141658328D01*
X98384206Y-141658335D01*
X98470452Y-141773544D01*
X98470455Y-141773547D01*
X98585664Y-141859793D01*
X98585671Y-141859797D01*
X98720517Y-141910091D01*
X98720516Y-141910091D01*
X98727444Y-141910835D01*
X98780127Y-141916500D01*
X101375872Y-141916499D01*
X101435483Y-141910091D01*
X101570331Y-141859796D01*
X101685546Y-141773546D01*
X101771796Y-141658331D01*
X101822091Y-141523483D01*
X101828500Y-141463873D01*
X101828499Y-140359682D01*
X108936000Y-140359682D01*
X108936000Y-140564317D01*
X108968009Y-140766417D01*
X109031244Y-140961031D01*
X109124141Y-141143350D01*
X109124147Y-141143359D01*
X109156523Y-141187921D01*
X109156524Y-141187922D01*
X109836000Y-140508446D01*
X109836000Y-140514661D01*
X109863259Y-140616394D01*
X109915920Y-140707606D01*
X109990394Y-140782080D01*
X110081606Y-140834741D01*
X110183339Y-140862000D01*
X110189553Y-140862000D01*
X109510076Y-141541474D01*
X109554650Y-141573859D01*
X109736968Y-141666755D01*
X109931582Y-141729990D01*
X110133683Y-141762000D01*
X110338317Y-141762000D01*
X110540417Y-141729990D01*
X110735031Y-141666755D01*
X110917349Y-141573859D01*
X110961921Y-141541474D01*
X110282447Y-140862000D01*
X110288661Y-140862000D01*
X110390394Y-140834741D01*
X110481606Y-140782080D01*
X110556080Y-140707606D01*
X110608741Y-140616394D01*
X110636000Y-140514661D01*
X110636000Y-140508447D01*
X111315474Y-141187921D01*
X111347859Y-141143349D01*
X111440755Y-140961031D01*
X111503990Y-140766417D01*
X111536000Y-140564317D01*
X111536000Y-140359682D01*
X111503990Y-140157582D01*
X111440755Y-139962968D01*
X111347859Y-139780650D01*
X111315474Y-139736077D01*
X111315474Y-139736076D01*
X110636000Y-140415551D01*
X110636000Y-140409339D01*
X110608741Y-140307606D01*
X110556080Y-140216394D01*
X110481606Y-140141920D01*
X110390394Y-140089259D01*
X110288661Y-140062000D01*
X110282446Y-140062000D01*
X110961922Y-139382524D01*
X110961921Y-139382523D01*
X110917359Y-139350147D01*
X110917350Y-139350141D01*
X110735031Y-139257244D01*
X110540417Y-139194009D01*
X110338317Y-139162000D01*
X110133683Y-139162000D01*
X109931582Y-139194009D01*
X109736968Y-139257244D01*
X109554644Y-139350143D01*
X109510077Y-139382523D01*
X109510077Y-139382524D01*
X110189554Y-140062000D01*
X110183339Y-140062000D01*
X110081606Y-140089259D01*
X109990394Y-140141920D01*
X109915920Y-140216394D01*
X109863259Y-140307606D01*
X109836000Y-140409339D01*
X109836000Y-140415553D01*
X109156524Y-139736077D01*
X109156523Y-139736077D01*
X109124143Y-139780644D01*
X109031244Y-139962968D01*
X108968009Y-140157582D01*
X108936000Y-140359682D01*
X101828499Y-140359682D01*
X101828499Y-139968128D01*
X101822091Y-139908517D01*
X101771796Y-139773669D01*
X101771795Y-139773668D01*
X101771793Y-139773664D01*
X101685547Y-139658455D01*
X101685544Y-139658452D01*
X101570335Y-139572206D01*
X101570326Y-139572201D01*
X101543462Y-139562182D01*
X101523308Y-139547095D01*
X101500965Y-139535495D01*
X101495815Y-139526515D01*
X101487528Y-139520312D01*
X101478730Y-139496726D01*
X101466205Y-139474886D01*
X101466727Y-139464545D01*
X101463110Y-139454847D01*
X101468461Y-139430246D01*
X101469732Y-139405105D01*
X101475760Y-139396690D01*
X101477961Y-139386574D01*
X101495762Y-139368771D01*
X101510424Y-139348308D01*
X101523600Y-139340933D01*
X101527366Y-139337168D01*
X101541041Y-139330750D01*
X101542270Y-139330261D01*
X101570331Y-139319796D01*
X101685546Y-139233546D01*
X101771796Y-139118331D01*
X101822091Y-138983483D01*
X101828500Y-138923873D01*
X101828499Y-137428128D01*
X101822091Y-137368517D01*
X101771796Y-137233669D01*
X101771795Y-137233668D01*
X101771793Y-137233664D01*
X101685547Y-137118455D01*
X101685544Y-137118452D01*
X101570335Y-137032206D01*
X101570328Y-137032202D01*
X101435482Y-136981908D01*
X101435483Y-136981908D01*
X101375883Y-136975501D01*
X101375881Y-136975500D01*
X101375873Y-136975500D01*
X101375864Y-136975500D01*
X98780129Y-136975500D01*
X98780123Y-136975501D01*
X98720516Y-136981908D01*
X98585671Y-137032202D01*
X98585664Y-137032206D01*
X98470455Y-137118452D01*
X98470452Y-137118455D01*
X98384206Y-137233664D01*
X98384202Y-137233671D01*
X98333908Y-137368517D01*
X98327501Y-137428116D01*
X98327501Y-137428123D01*
X98327500Y-137428135D01*
X97071865Y-137428135D01*
X97162875Y-137337125D01*
X97543466Y-136956534D01*
X98000000Y-136500000D01*
X98000000Y-132800706D01*
X98019685Y-132733667D01*
X98072489Y-132687912D01*
X98141647Y-132677968D01*
X98198313Y-132701441D01*
X98224909Y-132721352D01*
X98224913Y-132721354D01*
X98359620Y-132771596D01*
X98359627Y-132771598D01*
X98419155Y-132777999D01*
X98419172Y-132778000D01*
X98981000Y-132778000D01*
X99481000Y-132778000D01*
X100042828Y-132778000D01*
X100042844Y-132777999D01*
X100102372Y-132771598D01*
X100102379Y-132771596D01*
X100237086Y-132721354D01*
X100237093Y-132721350D01*
X100352187Y-132635190D01*
X100352190Y-132635187D01*
X100438350Y-132520093D01*
X100438354Y-132520086D01*
X100488596Y-132385379D01*
X100488598Y-132385372D01*
X100494999Y-132325844D01*
X100495000Y-132325827D01*
X100495000Y-132203000D01*
X99481000Y-132203000D01*
X99481000Y-132778000D01*
X98981000Y-132778000D01*
X98981000Y-132077000D01*
X99000685Y-132009961D01*
X99053489Y-131964206D01*
X99105000Y-131953000D01*
X99231000Y-131953000D01*
X99231000Y-131827000D01*
X99250685Y-131759961D01*
X99303489Y-131714206D01*
X99355000Y-131703000D01*
X100495000Y-131703000D01*
X100495000Y-131580172D01*
X100494999Y-131580155D01*
X100488598Y-131520627D01*
X100488597Y-131520623D01*
X100471892Y-131475834D01*
X100466908Y-131406142D01*
X100500393Y-131344819D01*
X100561716Y-131311334D01*
X100588074Y-131308500D01*
X101276548Y-131308500D01*
X101343587Y-131328185D01*
X101364229Y-131344819D01*
X104915016Y-134895606D01*
X104915045Y-134895637D01*
X105005263Y-134985855D01*
X105005267Y-134985858D01*
X105107707Y-135054307D01*
X105107713Y-135054310D01*
X105107714Y-135054311D01*
X105221548Y-135101463D01*
X105281971Y-135113481D01*
X105342393Y-135125500D01*
X107061607Y-135125500D01*
X107122029Y-135113481D01*
X107182452Y-135101463D01*
X107241262Y-135077103D01*
X107296286Y-135054312D01*
X107369079Y-135005672D01*
X107398733Y-134985858D01*
X107485858Y-134898733D01*
X107485858Y-134898731D01*
X107496066Y-134888524D01*
X107496067Y-134888521D01*
X108985857Y-133398734D01*
X109028038Y-133335607D01*
X109054311Y-133296286D01*
X109101463Y-133182452D01*
X109125500Y-133061606D01*
X109125500Y-130746741D01*
X109125501Y-130746720D01*
X109125501Y-130617391D01*
X109102259Y-130500548D01*
X109102259Y-130500547D01*
X109101463Y-130496550D01*
X109101462Y-130496546D01*
X109055968Y-130386714D01*
X109055962Y-130386700D01*
X109054312Y-130382715D01*
X108985858Y-130280266D01*
X108985855Y-130280263D01*
X106793818Y-128088227D01*
X106760333Y-128026904D01*
X106757499Y-128000546D01*
X106757499Y-127770129D01*
X106757498Y-127770123D01*
X106756504Y-127760874D01*
X106751091Y-127710517D01*
X106747683Y-127701380D01*
X106734985Y-127667332D01*
X106730001Y-127597641D01*
X106763487Y-127536318D01*
X106824810Y-127502834D01*
X106851167Y-127500000D01*
X109556833Y-127500000D01*
X109623872Y-127519685D01*
X109669627Y-127572489D01*
X109679571Y-127641647D01*
X109673015Y-127667332D01*
X109656910Y-127710511D01*
X109656909Y-127710515D01*
X109656909Y-127710517D01*
X109650500Y-127770127D01*
X109650500Y-127770134D01*
X109650500Y-127770135D01*
X109650500Y-128515870D01*
X109650501Y-128515876D01*
X109656908Y-128575483D01*
X109707202Y-128710328D01*
X109711454Y-128718114D01*
X109708280Y-128719846D01*
X109726659Y-128769302D01*
X109711725Y-128837557D01*
X109711117Y-128838502D01*
X109707202Y-128845671D01*
X109657034Y-128980181D01*
X109656909Y-128980517D01*
X109650500Y-129040127D01*
X109650500Y-129040134D01*
X109650500Y-129040135D01*
X109650500Y-129785870D01*
X109650501Y-129785876D01*
X109656908Y-129845483D01*
X109707202Y-129980328D01*
X109711454Y-129988114D01*
X109708280Y-129989846D01*
X109726659Y-130039302D01*
X109711725Y-130107557D01*
X109711117Y-130108502D01*
X109707202Y-130115671D01*
X109657035Y-130250179D01*
X109656909Y-130250517D01*
X109650500Y-130310127D01*
X109650500Y-130310134D01*
X109650500Y-130310135D01*
X109650500Y-131055870D01*
X109650501Y-131055876D01*
X109656908Y-131115483D01*
X109707202Y-131250328D01*
X109711454Y-131258114D01*
X109708280Y-131259846D01*
X109726659Y-131309302D01*
X109711725Y-131377557D01*
X109711117Y-131378502D01*
X109707202Y-131385671D01*
X109656910Y-131520513D01*
X109656909Y-131520517D01*
X109650500Y-131580127D01*
X109650500Y-131580134D01*
X109650500Y-131580135D01*
X109650500Y-132325870D01*
X109650501Y-132325876D01*
X109656908Y-132385483D01*
X109707202Y-132520328D01*
X109707206Y-132520335D01*
X109793452Y-132635544D01*
X109793455Y-132635547D01*
X109908664Y-132721793D01*
X109908671Y-132721797D01*
X110043517Y-132772091D01*
X110043516Y-132772091D01*
X110050444Y-132772835D01*
X110103127Y-132778500D01*
X111726872Y-132778499D01*
X111786483Y-132772091D01*
X111921331Y-132721796D01*
X112036546Y-132635546D01*
X112122796Y-132520331D01*
X112173091Y-132385483D01*
X112179500Y-132325873D01*
X112179499Y-131765957D01*
X112199183Y-131698919D01*
X112251987Y-131653164D01*
X112321146Y-131643220D01*
X112384702Y-131672245D01*
X112422476Y-131731023D01*
X112425116Y-131741767D01*
X112442143Y-131827366D01*
X112442146Y-131827378D01*
X112508138Y-131986698D01*
X112508145Y-131986711D01*
X112603954Y-132130098D01*
X112603957Y-132130102D01*
X112725897Y-132252042D01*
X112725901Y-132252045D01*
X112869288Y-132347854D01*
X112869301Y-132347861D01*
X112995370Y-132400080D01*
X113028626Y-132413855D01*
X113197766Y-132447499D01*
X113197769Y-132447500D01*
X113197771Y-132447500D01*
X113370231Y-132447500D01*
X113370232Y-132447499D01*
X113539374Y-132413855D01*
X113698705Y-132347858D01*
X113842099Y-132252045D01*
X113964045Y-132130099D01*
X114059858Y-131986705D01*
X114125855Y-131827374D01*
X114159500Y-131658229D01*
X114159500Y-131549682D01*
X116047000Y-131549682D01*
X116047000Y-131754317D01*
X116079009Y-131956417D01*
X116142244Y-132151031D01*
X116235141Y-132333350D01*
X116235147Y-132333359D01*
X116267523Y-132377921D01*
X116267524Y-132377922D01*
X116947000Y-131698446D01*
X116947000Y-131704661D01*
X116974259Y-131806394D01*
X117026920Y-131897606D01*
X117101394Y-131972080D01*
X117192606Y-132024741D01*
X117294339Y-132052000D01*
X117300553Y-132052000D01*
X116621076Y-132731474D01*
X116665650Y-132763859D01*
X116847968Y-132856755D01*
X117042582Y-132919990D01*
X117244683Y-132952000D01*
X117449317Y-132952000D01*
X117610360Y-132926493D01*
X117651417Y-132919990D01*
X117846031Y-132856755D01*
X118028349Y-132763859D01*
X118072921Y-132731474D01*
X117393447Y-132052000D01*
X117399661Y-132052000D01*
X117501394Y-132024741D01*
X117592606Y-131972080D01*
X117667080Y-131897606D01*
X117719741Y-131806394D01*
X117747000Y-131704661D01*
X117747000Y-131698447D01*
X118426474Y-132377921D01*
X118458859Y-132333349D01*
X118551755Y-132151031D01*
X118614990Y-131956417D01*
X118647000Y-131754317D01*
X118647000Y-131549682D01*
X127731000Y-131549682D01*
X127731000Y-131754317D01*
X127763009Y-131956417D01*
X127826244Y-132151031D01*
X127919141Y-132333350D01*
X127919147Y-132333359D01*
X127951523Y-132377921D01*
X127951524Y-132377922D01*
X128631000Y-131698446D01*
X128631000Y-131704661D01*
X128658259Y-131806394D01*
X128710920Y-131897606D01*
X128785394Y-131972080D01*
X128876606Y-132024741D01*
X128978339Y-132052000D01*
X128984553Y-132052000D01*
X128305076Y-132731474D01*
X128349650Y-132763859D01*
X128531968Y-132856755D01*
X128726582Y-132919990D01*
X128928683Y-132952000D01*
X129133317Y-132952000D01*
X129335417Y-132919990D01*
X129530031Y-132856755D01*
X129712349Y-132763859D01*
X129756921Y-132731474D01*
X129077447Y-132052000D01*
X129083661Y-132052000D01*
X129185394Y-132024741D01*
X129276606Y-131972080D01*
X129351080Y-131897606D01*
X129403741Y-131806394D01*
X129431000Y-131704661D01*
X129431000Y-131698448D01*
X130110474Y-132377922D01*
X130110474Y-132377921D01*
X130142859Y-132333349D01*
X130235755Y-132151031D01*
X130298990Y-131956417D01*
X130331000Y-131754317D01*
X130331000Y-131549682D01*
X130298990Y-131347582D01*
X130235755Y-131152968D01*
X130142859Y-130970650D01*
X130110474Y-130926077D01*
X130110474Y-130926076D01*
X129431000Y-131605551D01*
X129431000Y-131599339D01*
X129403741Y-131497606D01*
X129351080Y-131406394D01*
X129276606Y-131331920D01*
X129185394Y-131279259D01*
X129083661Y-131252000D01*
X129077446Y-131252000D01*
X129756922Y-130572524D01*
X129756921Y-130572523D01*
X129712359Y-130540147D01*
X129712350Y-130540141D01*
X129530031Y-130447244D01*
X129335417Y-130384009D01*
X129133317Y-130352000D01*
X128928683Y-130352000D01*
X128726582Y-130384009D01*
X128531968Y-130447244D01*
X128349644Y-130540143D01*
X128305077Y-130572523D01*
X128305077Y-130572524D01*
X128984554Y-131252000D01*
X128978339Y-131252000D01*
X128876606Y-131279259D01*
X128785394Y-131331920D01*
X128710920Y-131406394D01*
X128658259Y-131497606D01*
X128631000Y-131599339D01*
X128631000Y-131605553D01*
X127951524Y-130926077D01*
X127951523Y-130926077D01*
X127919143Y-130970644D01*
X127826244Y-131152968D01*
X127763009Y-131347582D01*
X127731000Y-131549682D01*
X118647000Y-131549682D01*
X118614990Y-131347582D01*
X118551755Y-131152968D01*
X118458859Y-130970650D01*
X118426474Y-130926077D01*
X118426474Y-130926076D01*
X117747000Y-131605551D01*
X117747000Y-131599339D01*
X117719741Y-131497606D01*
X117667080Y-131406394D01*
X117592606Y-131331920D01*
X117501394Y-131279259D01*
X117399661Y-131252000D01*
X117393446Y-131252000D01*
X118072922Y-130572524D01*
X118072921Y-130572523D01*
X118028359Y-130540147D01*
X118028350Y-130540141D01*
X117846031Y-130447244D01*
X117651417Y-130384009D01*
X117449317Y-130352000D01*
X117244683Y-130352000D01*
X117042582Y-130384009D01*
X116847968Y-130447244D01*
X116665644Y-130540143D01*
X116621077Y-130572523D01*
X116621077Y-130572524D01*
X117300554Y-131252000D01*
X117294339Y-131252000D01*
X117192606Y-131279259D01*
X117101394Y-131331920D01*
X117026920Y-131406394D01*
X116974259Y-131497606D01*
X116947000Y-131599339D01*
X116947000Y-131605553D01*
X116267524Y-130926077D01*
X116267523Y-130926077D01*
X116235143Y-130970644D01*
X116142244Y-131152968D01*
X116079009Y-131347582D01*
X116047000Y-131549682D01*
X114159500Y-131549682D01*
X114159500Y-131485771D01*
X114159500Y-131485768D01*
X114159499Y-131485766D01*
X114143661Y-131406142D01*
X114125855Y-131316626D01*
X114098394Y-131250329D01*
X114059861Y-131157301D01*
X114059854Y-131157288D01*
X113964045Y-131013901D01*
X113964042Y-131013897D01*
X113847826Y-130897681D01*
X113814341Y-130836358D01*
X113819325Y-130766666D01*
X113847826Y-130722319D01*
X113964042Y-130606102D01*
X113964045Y-130606099D01*
X113986480Y-130572523D01*
X114000934Y-130550892D01*
X114059854Y-130462711D01*
X114059854Y-130462710D01*
X114059858Y-130462705D01*
X114125855Y-130303374D01*
X114159500Y-130134229D01*
X114159500Y-129961771D01*
X114159500Y-129961768D01*
X114159499Y-129961766D01*
X114145783Y-129892812D01*
X114125855Y-129792626D01*
X114078173Y-129677511D01*
X114059861Y-129633301D01*
X114059854Y-129633288D01*
X113964045Y-129489901D01*
X113964042Y-129489897D01*
X113842102Y-129367957D01*
X113842098Y-129367954D01*
X113698711Y-129272145D01*
X113698698Y-129272138D01*
X113539378Y-129206146D01*
X113539366Y-129206143D01*
X113370232Y-129172500D01*
X113370229Y-129172500D01*
X113344452Y-129172500D01*
X113315011Y-129163855D01*
X113285025Y-129157332D01*
X113280009Y-129153577D01*
X113277413Y-129152815D01*
X113256771Y-129136181D01*
X113141928Y-129021338D01*
X113141926Y-129021335D01*
X113100772Y-128980181D01*
X113067287Y-128918858D01*
X113072271Y-128849166D01*
X113114143Y-128793233D01*
X113179607Y-128768816D01*
X113188453Y-128768500D01*
X129102548Y-128768500D01*
X129169587Y-128788185D01*
X129190229Y-128804819D01*
X132047781Y-131662371D01*
X132081266Y-131723694D01*
X132080785Y-131770416D01*
X132082285Y-131770654D01*
X132049500Y-131977648D01*
X132049500Y-132182351D01*
X132081522Y-132384534D01*
X132144781Y-132579223D01*
X132195095Y-132677968D01*
X132235153Y-132756586D01*
X132237715Y-132761613D01*
X132358028Y-132927213D01*
X132502786Y-133071971D01*
X132654842Y-133182444D01*
X132668390Y-133192287D01*
X132784607Y-133251503D01*
X132850776Y-133285218D01*
X132850778Y-133285218D01*
X132850781Y-133285220D01*
X132884839Y-133296286D01*
X133045465Y-133348477D01*
X133127562Y-133361480D01*
X133247648Y-133380500D01*
X133247649Y-133380500D01*
X133452351Y-133380500D01*
X133452352Y-133380500D01*
X133654534Y-133348477D01*
X133849219Y-133285220D01*
X134031610Y-133192287D01*
X134124590Y-133124732D01*
X134197213Y-133071971D01*
X134197215Y-133071968D01*
X134197219Y-133071966D01*
X134341966Y-132927219D01*
X134341968Y-132927215D01*
X134341971Y-132927213D01*
X134433882Y-132800706D01*
X134462287Y-132761610D01*
X134555220Y-132579219D01*
X134618477Y-132384534D01*
X134650500Y-132182352D01*
X134650500Y-131977648D01*
X134627114Y-131830000D01*
X139693391Y-131830000D01*
X140654314Y-131830000D01*
X140649920Y-131834394D01*
X140597259Y-131925606D01*
X140570000Y-132027339D01*
X140570000Y-132132661D01*
X140597259Y-132234394D01*
X140649920Y-132325606D01*
X140654314Y-132330000D01*
X139693391Y-132330000D01*
X139702009Y-132384413D01*
X139765244Y-132579029D01*
X139858140Y-132761349D01*
X139978417Y-132926894D01*
X139978417Y-132926895D01*
X140123104Y-133071582D01*
X140288650Y-133191859D01*
X140470968Y-133284754D01*
X140665578Y-133347988D01*
X140720000Y-133356607D01*
X140720000Y-132395686D01*
X140724394Y-132400080D01*
X140815606Y-132452741D01*
X140917339Y-132480000D01*
X141022661Y-132480000D01*
X141124394Y-132452741D01*
X141215606Y-132400080D01*
X141220000Y-132395686D01*
X141220000Y-133356606D01*
X141274421Y-133347988D01*
X141469031Y-133284754D01*
X141651349Y-133191859D01*
X141816894Y-133071582D01*
X141816895Y-133071582D01*
X141961582Y-132926895D01*
X141961582Y-132926894D01*
X142081859Y-132761349D01*
X142174755Y-132579029D01*
X142237990Y-132384413D01*
X142246609Y-132330000D01*
X141285686Y-132330000D01*
X141290080Y-132325606D01*
X141342741Y-132234394D01*
X141370000Y-132132661D01*
X141370000Y-132027339D01*
X141342741Y-131925606D01*
X141290080Y-131834394D01*
X141285686Y-131830000D01*
X142246609Y-131830000D01*
X142237990Y-131775586D01*
X142174755Y-131580970D01*
X142081859Y-131398650D01*
X141961582Y-131233105D01*
X141961582Y-131233104D01*
X141816895Y-131088417D01*
X141651349Y-130968140D01*
X141469029Y-130875244D01*
X141274413Y-130812009D01*
X141220000Y-130803390D01*
X141220000Y-131764314D01*
X141215606Y-131759920D01*
X141124394Y-131707259D01*
X141022661Y-131680000D01*
X140917339Y-131680000D01*
X140815606Y-131707259D01*
X140724394Y-131759920D01*
X140720000Y-131764314D01*
X140720000Y-130803390D01*
X140665586Y-130812009D01*
X140470970Y-130875244D01*
X140288650Y-130968140D01*
X140123105Y-131088417D01*
X140123104Y-131088417D01*
X139978417Y-131233104D01*
X139978417Y-131233105D01*
X139858140Y-131398650D01*
X139765244Y-131580970D01*
X139702009Y-131775586D01*
X139693391Y-131830000D01*
X134627114Y-131830000D01*
X134618477Y-131775466D01*
X134555220Y-131580781D01*
X134555218Y-131580778D01*
X134555218Y-131580776D01*
X134506807Y-131485766D01*
X134462287Y-131398390D01*
X134423366Y-131344819D01*
X134341971Y-131232786D01*
X134197213Y-131088028D01*
X134031613Y-130967715D01*
X134031612Y-130967714D01*
X134031610Y-130967713D01*
X133941705Y-130921904D01*
X133849223Y-130874781D01*
X133654534Y-130811522D01*
X133479995Y-130783878D01*
X133452352Y-130779500D01*
X133247648Y-130779500D01*
X133144101Y-130795900D01*
X133040654Y-130812285D01*
X133040333Y-130810262D01*
X132979120Y-130807149D01*
X132932371Y-130777781D01*
X129906567Y-127751977D01*
X129898860Y-127744270D01*
X129898858Y-127744267D01*
X129811733Y-127657142D01*
X129746221Y-127613368D01*
X129740052Y-127609246D01*
X129740050Y-127609244D01*
X129709285Y-127588687D01*
X129709281Y-127588685D01*
X129670039Y-127572431D01*
X129615635Y-127528590D01*
X129593570Y-127462296D01*
X129610849Y-127394597D01*
X129629806Y-127370193D01*
X132463681Y-124536319D01*
X132525004Y-124502834D01*
X132551362Y-124500000D01*
X133533285Y-124500000D01*
X133600324Y-124519685D01*
G37*
G04 #@! TD.AperFunction*
G04 #@! TA.AperFunction,Conductor*
G36*
X149642539Y-124519685D02*
G01*
X149688294Y-124572489D01*
X149699500Y-124624000D01*
X149699500Y-136153688D01*
X149693646Y-136173623D01*
X149692634Y-136194378D01*
X149684000Y-136206472D01*
X149679815Y-136220727D01*
X149664113Y-136234332D01*
X149652040Y-136251246D01*
X149638238Y-136256752D01*
X149627011Y-136266482D01*
X149606445Y-136269439D01*
X149587146Y-136277140D01*
X149572559Y-136274311D01*
X149557853Y-136276426D01*
X149538952Y-136267794D01*
X149518554Y-136263839D01*
X149507812Y-136253573D01*
X149494297Y-136247401D01*
X149483063Y-136229920D01*
X149468042Y-136215565D01*
X149458550Y-136191777D01*
X149456523Y-136188623D01*
X149455291Y-136183610D01*
X149454962Y-136182785D01*
X149454373Y-136180348D01*
X149445463Y-136135549D01*
X149444614Y-136133500D01*
X149410165Y-136050331D01*
X149401546Y-136029523D01*
X149398313Y-136021716D01*
X149398309Y-136021708D01*
X149364017Y-135970389D01*
X149364016Y-135970387D01*
X149329861Y-135919271D01*
X149329855Y-135919263D01*
X149239637Y-135829045D01*
X149239606Y-135829016D01*
X148498818Y-135088228D01*
X148465333Y-135026905D01*
X148462499Y-135000547D01*
X148462499Y-134138129D01*
X148462498Y-134138123D01*
X148462119Y-134134598D01*
X148456091Y-134078517D01*
X148439864Y-134035011D01*
X148405797Y-133943671D01*
X148405793Y-133943664D01*
X148319547Y-133828455D01*
X148319544Y-133828452D01*
X148204335Y-133742206D01*
X148204328Y-133742202D01*
X148069482Y-133691908D01*
X148069483Y-133691908D01*
X148009883Y-133685501D01*
X148009881Y-133685500D01*
X148009873Y-133685500D01*
X148009864Y-133685500D01*
X146914129Y-133685500D01*
X146914123Y-133685501D01*
X146854520Y-133691908D01*
X146846974Y-133693692D01*
X146846628Y-133692230D01*
X146785622Y-133696584D01*
X146770600Y-133692172D01*
X146769482Y-133691908D01*
X146709883Y-133685501D01*
X146709881Y-133685500D01*
X146709873Y-133685500D01*
X146709865Y-133685500D01*
X145847452Y-133685500D01*
X145780413Y-133665815D01*
X145759771Y-133649181D01*
X145161819Y-133051229D01*
X145128334Y-132989906D01*
X145125500Y-132963548D01*
X145125500Y-132189954D01*
X145145185Y-132122915D01*
X145197989Y-132077160D01*
X145267147Y-132067216D01*
X145330703Y-132096241D01*
X145337181Y-132102273D01*
X145342455Y-132107547D01*
X145457664Y-132193793D01*
X145457671Y-132193797D01*
X145592517Y-132244091D01*
X145592516Y-132244091D01*
X145599444Y-132244835D01*
X145652127Y-132250500D01*
X146747872Y-132250499D01*
X146807483Y-132244091D01*
X146807489Y-132244088D01*
X146815025Y-132242308D01*
X146815321Y-132243561D01*
X146877063Y-132239142D01*
X146890655Y-132243132D01*
X146892627Y-132243598D01*
X146952155Y-132249999D01*
X146952172Y-132250000D01*
X147250000Y-132250000D01*
X147750000Y-132250000D01*
X148047828Y-132250000D01*
X148047844Y-132249999D01*
X148107372Y-132243598D01*
X148107379Y-132243596D01*
X148242086Y-132193354D01*
X148242093Y-132193350D01*
X148357187Y-132107190D01*
X148357190Y-132107187D01*
X148443350Y-131992093D01*
X148443354Y-131992086D01*
X148493596Y-131857379D01*
X148493598Y-131857372D01*
X148499999Y-131797844D01*
X148500000Y-131797827D01*
X148500000Y-131250000D01*
X147750000Y-131250000D01*
X147750000Y-132250000D01*
X147250000Y-132250000D01*
X147250000Y-130750000D01*
X147750000Y-130750000D01*
X148500000Y-130750000D01*
X148500000Y-130202172D01*
X148499999Y-130202155D01*
X148493598Y-130142627D01*
X148493596Y-130142620D01*
X148443354Y-130007913D01*
X148443350Y-130007906D01*
X148357190Y-129892812D01*
X148357187Y-129892809D01*
X148242093Y-129806649D01*
X148242086Y-129806645D01*
X148107379Y-129756403D01*
X148107372Y-129756401D01*
X148047844Y-129750000D01*
X147750000Y-129750000D01*
X147750000Y-130750000D01*
X147250000Y-130750000D01*
X147250000Y-129750000D01*
X147024500Y-129750000D01*
X146957461Y-129730315D01*
X146911706Y-129677511D01*
X146900500Y-129626000D01*
X146900500Y-127843007D01*
X146896520Y-127823002D01*
X146896520Y-127822998D01*
X146874146Y-127710517D01*
X146873580Y-127707672D01*
X146828004Y-127597641D01*
X146820776Y-127580191D01*
X146791461Y-127536318D01*
X146785495Y-127527389D01*
X146764618Y-127460712D01*
X146783103Y-127393332D01*
X146835082Y-127346642D01*
X146888598Y-127334499D01*
X147709871Y-127334499D01*
X147709872Y-127334499D01*
X147769483Y-127328091D01*
X147904331Y-127277796D01*
X148019546Y-127191546D01*
X148105796Y-127076331D01*
X148156091Y-126941483D01*
X148162500Y-126881873D01*
X148162499Y-125086128D01*
X148156091Y-125026517D01*
X148154810Y-125023083D01*
X148105797Y-124891671D01*
X148105793Y-124891664D01*
X148019547Y-124776455D01*
X148019544Y-124776452D01*
X147948497Y-124723266D01*
X147906626Y-124667332D01*
X147901642Y-124597641D01*
X147935128Y-124536318D01*
X147996451Y-124502834D01*
X148022808Y-124500000D01*
X149575500Y-124500000D01*
X149642539Y-124519685D01*
G37*
G04 #@! TD.AperFunction*
G04 #@! TA.AperFunction,Conductor*
G36*
X106816051Y-129921807D02*
G01*
X106817174Y-129921584D01*
X106848703Y-129933983D01*
X106880443Y-129945820D01*
X106881809Y-129947004D01*
X106882196Y-129947156D01*
X106882547Y-129947643D01*
X106893821Y-129957411D01*
X107838181Y-130901771D01*
X107871666Y-130963094D01*
X107874500Y-130989452D01*
X107874500Y-132689547D01*
X107854815Y-132756586D01*
X107838181Y-132777228D01*
X106777229Y-133838181D01*
X106715906Y-133871666D01*
X106689548Y-133874500D01*
X105714452Y-133874500D01*
X105647413Y-133854815D01*
X105626771Y-133838181D01*
X104778770Y-132990180D01*
X104745285Y-132928857D01*
X104750269Y-132859165D01*
X104792141Y-132803232D01*
X104857605Y-132778815D01*
X104866426Y-132778499D01*
X106304872Y-132778499D01*
X106364483Y-132772091D01*
X106499331Y-132721796D01*
X106614546Y-132635546D01*
X106700796Y-132520331D01*
X106751091Y-132385483D01*
X106757500Y-132325873D01*
X106757499Y-131580128D01*
X106751103Y-131520627D01*
X106751091Y-131520516D01*
X106700797Y-131385670D01*
X106696547Y-131377888D01*
X106699757Y-131376134D01*
X106681361Y-131327001D01*
X106696127Y-131258709D01*
X106696752Y-131257736D01*
X106700797Y-131250329D01*
X106712052Y-131220150D01*
X106751091Y-131115483D01*
X106757500Y-131055873D01*
X106757499Y-130310128D01*
X106751091Y-130250517D01*
X106733635Y-130203715D01*
X106700797Y-130115670D01*
X106696547Y-130107888D01*
X106699616Y-130106211D01*
X106698868Y-130104210D01*
X106687791Y-130088853D01*
X106686893Y-130072155D01*
X106681043Y-130056495D01*
X106685057Y-130037993D01*
X106684041Y-130019084D01*
X106693573Y-129998745D01*
X106695858Y-129988215D01*
X106696959Y-129986239D01*
X106698377Y-129983748D01*
X106702439Y-129979826D01*
X106705606Y-129973071D01*
X106705818Y-129972789D01*
X106708017Y-129974442D01*
X106722747Y-129960225D01*
X106746705Y-129936264D01*
X106747825Y-129936020D01*
X106748649Y-129935225D01*
X106781856Y-129928614D01*
X106814977Y-129921407D01*
X106816051Y-129921807D01*
G37*
G04 #@! TD.AperFunction*
G04 #@! TA.AperFunction,Conductor*
G36*
X89774834Y-108930337D02*
G01*
X89830767Y-108972209D01*
X89855184Y-109037673D01*
X89855500Y-109046519D01*
X89855500Y-121920041D01*
X89879535Y-122040874D01*
X89879540Y-122040891D01*
X89926685Y-122154710D01*
X89926687Y-122154713D01*
X89926688Y-122154716D01*
X89960915Y-122205939D01*
X89995142Y-122257163D01*
X90082267Y-122344288D01*
X90082270Y-122344290D01*
X90089554Y-122351574D01*
X91925799Y-124187819D01*
X91959284Y-124249142D01*
X91954300Y-124318834D01*
X91912428Y-124374767D01*
X91846964Y-124399184D01*
X91838118Y-124399500D01*
X91829389Y-124399500D01*
X91768971Y-124411518D01*
X91725743Y-124420116D01*
X91708546Y-124423537D01*
X91594716Y-124470687D01*
X91594707Y-124470692D01*
X91492268Y-124539140D01*
X91448705Y-124582703D01*
X91405142Y-124626267D01*
X90028017Y-126003391D01*
X90028009Y-126003399D01*
X90025270Y-126006139D01*
X90025267Y-126006142D01*
X89938142Y-126093267D01*
X89909621Y-126135952D01*
X89905009Y-126142853D01*
X89905008Y-126142855D01*
X89869687Y-126195715D01*
X89869685Y-126195718D01*
X89836347Y-126276207D01*
X89830823Y-126289543D01*
X89822537Y-126309545D01*
X89822535Y-126309553D01*
X89798500Y-126430389D01*
X89798500Y-126430394D01*
X89798500Y-129478393D01*
X89798500Y-129601607D01*
X89804803Y-129633295D01*
X89822537Y-129722452D01*
X89833741Y-129749500D01*
X89869688Y-129836286D01*
X89869689Y-129836288D01*
X89869690Y-129836289D01*
X89869690Y-129836290D01*
X89883864Y-129857502D01*
X89883865Y-129857503D01*
X89938141Y-129938732D01*
X89938144Y-129938736D01*
X90029586Y-130030178D01*
X90029608Y-130030198D01*
X91081139Y-131081729D01*
X91081142Y-131081733D01*
X91168267Y-131168858D01*
X91203084Y-131192122D01*
X91270714Y-131237312D01*
X91324056Y-131259406D01*
X91350727Y-131270454D01*
X91350728Y-131270454D01*
X91384548Y-131284463D01*
X91409204Y-131289367D01*
X91443945Y-131296278D01*
X91443977Y-131296283D01*
X91443988Y-131296286D01*
X91505391Y-131308499D01*
X91505392Y-131308500D01*
X91505393Y-131308500D01*
X91505394Y-131308500D01*
X92451926Y-131308500D01*
X92518965Y-131328185D01*
X92564720Y-131380989D01*
X92574664Y-131450147D01*
X92568108Y-131475834D01*
X92551402Y-131520623D01*
X92551401Y-131520627D01*
X92545000Y-131580155D01*
X92545000Y-131703000D01*
X93685000Y-131703000D01*
X93752039Y-131722685D01*
X93797794Y-131775489D01*
X93809000Y-131827000D01*
X93809000Y-131953000D01*
X93935000Y-131953000D01*
X94002039Y-131972685D01*
X94047794Y-132025489D01*
X94059000Y-132077000D01*
X94059000Y-132778000D01*
X94620828Y-132778000D01*
X94620844Y-132777999D01*
X94680372Y-132771598D01*
X94680379Y-132771596D01*
X94815088Y-132721353D01*
X94816571Y-132720544D01*
X94818222Y-132720184D01*
X94823399Y-132718254D01*
X94823676Y-132718998D01*
X94884843Y-132705691D01*
X94950308Y-132730106D01*
X94992181Y-132786039D01*
X95000000Y-132829375D01*
X95000000Y-135448638D01*
X94980315Y-135515677D01*
X94963681Y-135536319D01*
X93500000Y-136999999D01*
X93500000Y-145876000D01*
X93480315Y-145943039D01*
X93427511Y-145988794D01*
X93376000Y-146000000D01*
X81424500Y-146000000D01*
X81357461Y-145980315D01*
X81311706Y-145927511D01*
X81300500Y-145876000D01*
X81300500Y-141463844D01*
X82828000Y-141463844D01*
X82834401Y-141523372D01*
X82834403Y-141523379D01*
X82884645Y-141658086D01*
X82884649Y-141658093D01*
X82970809Y-141773187D01*
X82970812Y-141773190D01*
X83085906Y-141859350D01*
X83085913Y-141859354D01*
X83220620Y-141909596D01*
X83220627Y-141909598D01*
X83280155Y-141915999D01*
X83280172Y-141916000D01*
X84328000Y-141916000D01*
X84828000Y-141916000D01*
X85875828Y-141916000D01*
X85875844Y-141915999D01*
X85935372Y-141909598D01*
X85935379Y-141909596D01*
X86070086Y-141859354D01*
X86070093Y-141859350D01*
X86185187Y-141773190D01*
X86185190Y-141773187D01*
X86271350Y-141658093D01*
X86271354Y-141658086D01*
X86321596Y-141523379D01*
X86321598Y-141523372D01*
X86327999Y-141463844D01*
X86328000Y-141463827D01*
X86328000Y-140966000D01*
X84828000Y-140966000D01*
X84828000Y-141916000D01*
X84328000Y-141916000D01*
X84328000Y-140966000D01*
X82828000Y-140966000D01*
X82828000Y-141463844D01*
X81300500Y-141463844D01*
X81300500Y-132882519D01*
X81320185Y-132815480D01*
X81372989Y-132769725D01*
X81442147Y-132759781D01*
X81505703Y-132788806D01*
X81512181Y-132794838D01*
X83841181Y-135123838D01*
X83874666Y-135185161D01*
X83877500Y-135211519D01*
X83877500Y-136851500D01*
X83857815Y-136918539D01*
X83805011Y-136964294D01*
X83753500Y-136975500D01*
X83280129Y-136975500D01*
X83280123Y-136975501D01*
X83220516Y-136981908D01*
X83085671Y-137032202D01*
X83085664Y-137032206D01*
X82970455Y-137118452D01*
X82970452Y-137118455D01*
X82884206Y-137233664D01*
X82884202Y-137233671D01*
X82833908Y-137368517D01*
X82827501Y-137428116D01*
X82827501Y-137428123D01*
X82827500Y-137428135D01*
X82827500Y-138923870D01*
X82827501Y-138923876D01*
X82833908Y-138983483D01*
X82884202Y-139118328D01*
X82884206Y-139118335D01*
X82970452Y-139233544D01*
X82970455Y-139233547D01*
X83085664Y-139319793D01*
X83085669Y-139319796D01*
X83113252Y-139330083D01*
X83169186Y-139371954D01*
X83193604Y-139437418D01*
X83178753Y-139505691D01*
X83129349Y-139555097D01*
X83113255Y-139562447D01*
X83085916Y-139572644D01*
X83085906Y-139572649D01*
X82970812Y-139658809D01*
X82970809Y-139658812D01*
X82884649Y-139773906D01*
X82884645Y-139773913D01*
X82834403Y-139908620D01*
X82834401Y-139908627D01*
X82828000Y-139968155D01*
X82828000Y-140466000D01*
X86328000Y-140466000D01*
X86328000Y-139968172D01*
X86327999Y-139968155D01*
X86321598Y-139908627D01*
X86321596Y-139908620D01*
X86271354Y-139773913D01*
X86271350Y-139773906D01*
X86185190Y-139658812D01*
X86185187Y-139658809D01*
X86070093Y-139572649D01*
X86070088Y-139572646D01*
X86042745Y-139562448D01*
X85986812Y-139520576D01*
X85962395Y-139455112D01*
X85977247Y-139386839D01*
X86026652Y-139337434D01*
X86042744Y-139330085D01*
X86070331Y-139319796D01*
X86185546Y-139233546D01*
X86271796Y-139118331D01*
X86322091Y-138983483D01*
X86328500Y-138923873D01*
X86328499Y-137428128D01*
X86322091Y-137368517D01*
X86307270Y-137328781D01*
X86271797Y-137233671D01*
X86271793Y-137233664D01*
X86185547Y-137118455D01*
X86185544Y-137118452D01*
X86070335Y-137032206D01*
X86070328Y-137032202D01*
X85935482Y-136981908D01*
X85935483Y-136981908D01*
X85875883Y-136975501D01*
X85875881Y-136975500D01*
X85875873Y-136975500D01*
X85875865Y-136975500D01*
X85402500Y-136975500D01*
X85335461Y-136955815D01*
X85289706Y-136903011D01*
X85278500Y-136851500D01*
X85278500Y-135219519D01*
X85298185Y-135152480D01*
X85314819Y-135131838D01*
X88120814Y-132325844D01*
X92545000Y-132325844D01*
X92551401Y-132385372D01*
X92551403Y-132385379D01*
X92601645Y-132520086D01*
X92601649Y-132520093D01*
X92687809Y-132635187D01*
X92687812Y-132635190D01*
X92802906Y-132721350D01*
X92802913Y-132721354D01*
X92937620Y-132771596D01*
X92937627Y-132771598D01*
X92997155Y-132777999D01*
X92997172Y-132778000D01*
X93559000Y-132778000D01*
X93559000Y-132203000D01*
X92545000Y-132203000D01*
X92545000Y-132325844D01*
X88120814Y-132325844D01*
X88382701Y-132063957D01*
X88428111Y-132018546D01*
X88428112Y-132018545D01*
X88428114Y-132018543D01*
X88504775Y-131903811D01*
X88557580Y-131776328D01*
X88584500Y-131640994D01*
X88584500Y-131503006D01*
X88584500Y-122685783D01*
X88604185Y-122618744D01*
X88620820Y-122598101D01*
X88661136Y-122557785D01*
X88661139Y-122557782D01*
X88770632Y-122393914D01*
X88846051Y-122211835D01*
X88858632Y-122148582D01*
X88884500Y-122018543D01*
X88884500Y-121821456D01*
X88846052Y-121628170D01*
X88846051Y-121628169D01*
X88846051Y-121628165D01*
X88820070Y-121565441D01*
X88770635Y-121446092D01*
X88770628Y-121446079D01*
X88661139Y-121282218D01*
X88661136Y-121282214D01*
X88521785Y-121142863D01*
X88521781Y-121142860D01*
X88357920Y-121033371D01*
X88357907Y-121033364D01*
X88175839Y-120957950D01*
X88175829Y-120957947D01*
X87982543Y-120919500D01*
X87982541Y-120919500D01*
X87785459Y-120919500D01*
X87785457Y-120919500D01*
X87592170Y-120957947D01*
X87592160Y-120957950D01*
X87410092Y-121033364D01*
X87410079Y-121033371D01*
X87246218Y-121142860D01*
X87246214Y-121142863D01*
X87106863Y-121282214D01*
X87079601Y-121323015D01*
X87025988Y-121367819D01*
X86956663Y-121376526D01*
X86893636Y-121346371D01*
X86856917Y-121286927D01*
X86852499Y-121254123D01*
X86852499Y-121122129D01*
X86852498Y-121122123D01*
X86849636Y-121095500D01*
X86846091Y-121062517D01*
X86835220Y-121033371D01*
X86795797Y-120927671D01*
X86795793Y-120927664D01*
X86709547Y-120812455D01*
X86602188Y-120732085D01*
X86560318Y-120676151D01*
X86552500Y-120632819D01*
X86552500Y-119143180D01*
X86572185Y-119076141D01*
X86602187Y-119043914D01*
X86709546Y-118963546D01*
X86795796Y-118848331D01*
X86846091Y-118713483D01*
X86852500Y-118653873D01*
X86852499Y-117897517D01*
X86872183Y-117830479D01*
X86888813Y-117809842D01*
X87920113Y-116778543D01*
X87926794Y-116768545D01*
X87936381Y-116754198D01*
X87996771Y-116663817D01*
X87996771Y-116663816D01*
X87996775Y-116663811D01*
X87997442Y-116662202D01*
X88049578Y-116536332D01*
X88049580Y-116536328D01*
X88076500Y-116400993D01*
X88076500Y-110577519D01*
X88096185Y-110510480D01*
X88112819Y-110489838D01*
X89643819Y-108958838D01*
X89705142Y-108925353D01*
X89774834Y-108930337D01*
G37*
G04 #@! TD.AperFunction*
G04 #@! TA.AperFunction,Conductor*
G36*
X123942822Y-120610222D02*
G01*
X124015890Y-120736778D01*
X124119222Y-120840110D01*
X124245778Y-120913178D01*
X124285682Y-120923870D01*
X123710809Y-121498741D01*
X123710810Y-121498742D01*
X123761614Y-121535653D01*
X123948493Y-121630874D01*
X124147971Y-121695689D01*
X124355131Y-121728500D01*
X124483546Y-121728500D01*
X124550585Y-121748185D01*
X124596340Y-121800989D01*
X124606284Y-121870147D01*
X124577259Y-121933703D01*
X124571227Y-121940181D01*
X122148229Y-124363181D01*
X122086906Y-124396666D01*
X122060548Y-124399500D01*
X119100451Y-124399500D01*
X119033412Y-124379815D01*
X118987657Y-124327011D01*
X118977713Y-124257853D01*
X119006738Y-124194297D01*
X119012770Y-124187819D01*
X120173045Y-123027544D01*
X121476051Y-121724538D01*
X121537372Y-121691055D01*
X121602044Y-121694288D01*
X121607855Y-121696177D01*
X121815091Y-121729000D01*
X121815092Y-121729000D01*
X122024908Y-121729000D01*
X122024909Y-121729000D01*
X122232145Y-121696177D01*
X122431694Y-121631340D01*
X122618644Y-121536084D01*
X122788391Y-121412756D01*
X122936756Y-121264391D01*
X123060084Y-121094644D01*
X123079796Y-121055956D01*
X123127768Y-121005162D01*
X123195589Y-120988366D01*
X123261724Y-121010902D01*
X123300764Y-121055956D01*
X123320340Y-121094375D01*
X123357257Y-121145188D01*
X123932129Y-120570316D01*
X123942822Y-120610222D01*
G37*
G04 #@! TD.AperFunction*
G04 #@! TA.AperFunction,Conductor*
G36*
X139182822Y-120610222D02*
G01*
X139255890Y-120736778D01*
X139359222Y-120840110D01*
X139485778Y-120913178D01*
X139525682Y-120923870D01*
X138950809Y-121498741D01*
X138950810Y-121498742D01*
X139001614Y-121535653D01*
X139188493Y-121630874D01*
X139387971Y-121695689D01*
X139595131Y-121728500D01*
X139804869Y-121728500D01*
X140012028Y-121695689D01*
X140211506Y-121630874D01*
X140398374Y-121535659D01*
X140398387Y-121535651D01*
X140449188Y-121498742D01*
X140449189Y-121498741D01*
X139874317Y-120923870D01*
X139914222Y-120913178D01*
X140040778Y-120840110D01*
X140144110Y-120736778D01*
X140217178Y-120610222D01*
X140227870Y-120570317D01*
X140802741Y-121145189D01*
X140802742Y-121145188D01*
X140839651Y-121094387D01*
X140839662Y-121094369D01*
X140872015Y-121030874D01*
X140919989Y-120980077D01*
X140987810Y-120963282D01*
X141053945Y-120985819D01*
X141097397Y-121040534D01*
X141106500Y-121087168D01*
X141106500Y-122876000D01*
X141086815Y-122943039D01*
X141034011Y-122988794D01*
X140982500Y-123000000D01*
X137143952Y-123000000D01*
X137076913Y-122980315D01*
X137056271Y-122963681D01*
X135584549Y-121491959D01*
X135551064Y-121430636D01*
X135556048Y-121360944D01*
X135584548Y-121316597D01*
X135636756Y-121264391D01*
X135760084Y-121094644D01*
X135779515Y-121056507D01*
X135827489Y-121005712D01*
X135895310Y-120988917D01*
X135961445Y-121011454D01*
X136000484Y-121056507D01*
X136016107Y-121087168D01*
X136019918Y-121094648D01*
X136143238Y-121264384D01*
X136143242Y-121264389D01*
X136291610Y-121412757D01*
X136291615Y-121412761D01*
X136409959Y-121498742D01*
X136461356Y-121536084D01*
X136583566Y-121598353D01*
X136648305Y-121631340D01*
X136648308Y-121631341D01*
X136748080Y-121663758D01*
X136847855Y-121696177D01*
X137055091Y-121729000D01*
X137055092Y-121729000D01*
X137264908Y-121729000D01*
X137264909Y-121729000D01*
X137472145Y-121696177D01*
X137671694Y-121631340D01*
X137858644Y-121536084D01*
X138028391Y-121412756D01*
X138176756Y-121264391D01*
X138300084Y-121094644D01*
X138319796Y-121055956D01*
X138367768Y-121005162D01*
X138435589Y-120988366D01*
X138501724Y-121010902D01*
X138540764Y-121055956D01*
X138560340Y-121094375D01*
X138597257Y-121145188D01*
X139172129Y-120570316D01*
X139182822Y-120610222D01*
G37*
G04 #@! TD.AperFunction*
G04 #@! TA.AperFunction,Conductor*
G36*
X141835906Y-111527607D02*
G01*
X141868687Y-111528778D01*
X141870571Y-111530086D01*
X141872862Y-111530250D01*
X141899132Y-111549916D01*
X141926080Y-111568626D01*
X141927642Y-111571258D01*
X141928795Y-111572122D01*
X141944089Y-111598980D01*
X141972138Y-111666698D01*
X141972145Y-111666711D01*
X142067954Y-111810098D01*
X142067957Y-111810102D01*
X142189897Y-111932042D01*
X142189901Y-111932045D01*
X142333288Y-112027854D01*
X142333301Y-112027861D01*
X142492621Y-112093853D01*
X142492626Y-112093855D01*
X142588770Y-112112979D01*
X142650677Y-112145362D01*
X142652257Y-112146914D01*
X146075181Y-115569838D01*
X146108666Y-115631161D01*
X146111500Y-115657519D01*
X146111500Y-122876000D01*
X146091815Y-122943039D01*
X146039011Y-122988794D01*
X145987500Y-123000000D01*
X142481500Y-123000000D01*
X142414461Y-122980315D01*
X142368706Y-122927511D01*
X142357500Y-122876000D01*
X142357500Y-119826394D01*
X142354402Y-119810820D01*
X142351163Y-119794537D01*
X142345481Y-119765971D01*
X142333463Y-119705548D01*
X142304752Y-119636233D01*
X142286312Y-119591715D01*
X142269256Y-119566190D01*
X142217858Y-119489267D01*
X142217856Y-119489264D01*
X142127637Y-119399045D01*
X142127606Y-119399016D01*
X141574824Y-118846234D01*
X141567360Y-118838770D01*
X141567358Y-118838767D01*
X141480233Y-118751642D01*
X141423124Y-118713483D01*
X141416674Y-118709173D01*
X141377785Y-118683187D01*
X141338322Y-118666842D01*
X141297292Y-118649847D01*
X141263952Y-118636037D01*
X141203529Y-118624018D01*
X141198806Y-118623078D01*
X141198804Y-118623078D01*
X141143110Y-118612000D01*
X141143107Y-118612000D01*
X141143106Y-118612000D01*
X128220106Y-118612000D01*
X128096893Y-118612000D01*
X127990618Y-118633139D01*
X127990617Y-118633138D01*
X127976052Y-118636036D01*
X127976049Y-118636036D01*
X127976048Y-118636037D01*
X127976046Y-118636037D01*
X127976045Y-118636038D01*
X127862216Y-118683187D01*
X127773252Y-118742632D01*
X127773250Y-118742633D01*
X127759767Y-118751641D01*
X127759762Y-118751645D01*
X127443949Y-119067458D01*
X127382626Y-119100943D01*
X127317958Y-119097711D01*
X127312145Y-119095823D01*
X127250472Y-119086055D01*
X127104909Y-119063000D01*
X126895091Y-119063000D01*
X126826012Y-119073941D01*
X126687853Y-119095823D01*
X126488308Y-119160658D01*
X126488305Y-119160659D01*
X126301352Y-119255918D01*
X126131615Y-119379238D01*
X126131610Y-119379242D01*
X125983242Y-119527610D01*
X125983238Y-119527615D01*
X125859916Y-119697354D01*
X125840203Y-119736043D01*
X125792228Y-119786839D01*
X125724407Y-119803633D01*
X125658272Y-119781095D01*
X125619234Y-119736042D01*
X125599653Y-119697614D01*
X125562742Y-119646810D01*
X125562741Y-119646809D01*
X124987870Y-120221682D01*
X124977178Y-120181778D01*
X124904110Y-120055222D01*
X124800778Y-119951890D01*
X124674222Y-119878822D01*
X124634315Y-119868129D01*
X125209188Y-119293257D01*
X125158378Y-119256342D01*
X124971506Y-119161125D01*
X124772028Y-119096310D01*
X124564869Y-119063500D01*
X124355131Y-119063500D01*
X124147971Y-119096310D01*
X123948493Y-119161125D01*
X123761611Y-119256347D01*
X123710810Y-119293256D01*
X123710810Y-119293257D01*
X124285682Y-119868129D01*
X124245778Y-119878822D01*
X124119222Y-119951890D01*
X124015890Y-120055222D01*
X123942822Y-120181778D01*
X123932129Y-120221682D01*
X123357257Y-119646810D01*
X123357256Y-119646810D01*
X123320347Y-119697611D01*
X123300764Y-119736045D01*
X123252788Y-119786840D01*
X123184967Y-119803634D01*
X123118832Y-119781095D01*
X123079796Y-119736043D01*
X123060084Y-119697356D01*
X123060082Y-119697353D01*
X123060081Y-119697351D01*
X122936761Y-119527615D01*
X122936757Y-119527610D01*
X122788389Y-119379242D01*
X122788384Y-119379238D01*
X122618647Y-119255918D01*
X122618646Y-119255917D01*
X122618644Y-119255916D01*
X122558750Y-119225398D01*
X122431694Y-119160659D01*
X122431691Y-119160658D01*
X122232146Y-119095823D01*
X122107878Y-119076141D01*
X122024909Y-119063000D01*
X121815091Y-119063000D01*
X121746012Y-119073941D01*
X121607853Y-119095823D01*
X121408308Y-119160658D01*
X121408305Y-119160659D01*
X121221352Y-119255918D01*
X121051615Y-119379238D01*
X121051610Y-119379242D01*
X120903242Y-119527610D01*
X120903238Y-119527615D01*
X120779916Y-119697354D01*
X120760484Y-119735492D01*
X120712510Y-119786287D01*
X120644689Y-119803082D01*
X120578554Y-119780544D01*
X120539516Y-119735492D01*
X120520083Y-119697354D01*
X120396761Y-119527615D01*
X120396757Y-119527610D01*
X120248389Y-119379242D01*
X120248384Y-119379238D01*
X120078647Y-119255918D01*
X120078646Y-119255917D01*
X120078644Y-119255916D01*
X120018750Y-119225398D01*
X119891694Y-119160659D01*
X119891691Y-119160658D01*
X119692146Y-119095823D01*
X119567878Y-119076141D01*
X119484909Y-119063000D01*
X119275091Y-119063000D01*
X119206012Y-119073941D01*
X119067853Y-119095823D01*
X118868308Y-119160658D01*
X118868305Y-119160659D01*
X118681352Y-119255918D01*
X118511615Y-119379238D01*
X118511610Y-119379242D01*
X118363242Y-119527610D01*
X118363238Y-119527615D01*
X118239916Y-119697354D01*
X118220484Y-119735492D01*
X118172510Y-119786287D01*
X118104689Y-119803082D01*
X118038554Y-119780544D01*
X117999516Y-119735492D01*
X117980083Y-119697354D01*
X117856761Y-119527615D01*
X117856757Y-119527610D01*
X117708389Y-119379242D01*
X117708384Y-119379238D01*
X117538647Y-119255918D01*
X117538646Y-119255917D01*
X117538644Y-119255916D01*
X117478750Y-119225398D01*
X117351694Y-119160659D01*
X117351691Y-119160658D01*
X117152146Y-119095823D01*
X117027878Y-119076141D01*
X116944909Y-119063000D01*
X116923018Y-119063000D01*
X116855979Y-119043315D01*
X116810224Y-118990511D01*
X116800280Y-118921353D01*
X116829305Y-118857797D01*
X116835337Y-118851319D01*
X118372737Y-117313920D01*
X120048838Y-115637819D01*
X120110161Y-115604334D01*
X120136519Y-115601500D01*
X137477938Y-115601500D01*
X137568982Y-115583389D01*
X137613270Y-115574580D01*
X137677011Y-115548177D01*
X137740749Y-115521777D01*
X137740750Y-115521776D01*
X137740753Y-115521775D01*
X137855485Y-115445114D01*
X141741847Y-111558750D01*
X141770637Y-111543030D01*
X141798862Y-111526284D01*
X141801155Y-111526365D01*
X141803170Y-111525266D01*
X141835906Y-111527607D01*
G37*
G04 #@! TD.AperFunction*
G04 #@! TA.AperFunction,Conductor*
G36*
X149642539Y-71320185D02*
G01*
X149688294Y-71372989D01*
X149699500Y-71424500D01*
X149699500Y-122876000D01*
X149679815Y-122943039D01*
X149627011Y-122988794D01*
X149575500Y-123000000D01*
X147636500Y-123000000D01*
X147569461Y-122980315D01*
X147523706Y-122927511D01*
X147512500Y-122876000D01*
X147512500Y-115247004D01*
X147485581Y-115111677D01*
X147485580Y-115111676D01*
X147485580Y-115111672D01*
X147456928Y-115042499D01*
X147432778Y-114984195D01*
X147432774Y-114984188D01*
X147393247Y-114925032D01*
X147390403Y-114920775D01*
X147390403Y-114920774D01*
X147356115Y-114869458D01*
X147356109Y-114869451D01*
X143642914Y-111156257D01*
X143609429Y-111094934D01*
X143609006Y-111092907D01*
X143589855Y-110996626D01*
X143558860Y-110921797D01*
X143523861Y-110837301D01*
X143523854Y-110837288D01*
X143428045Y-110693901D01*
X143428042Y-110693897D01*
X143306102Y-110571957D01*
X143306098Y-110571954D01*
X143162711Y-110476145D01*
X143162698Y-110476138D01*
X143094980Y-110448089D01*
X143040576Y-110404248D01*
X143018511Y-110337954D01*
X143035790Y-110270255D01*
X143054751Y-110245847D01*
X144430082Y-108870517D01*
X145925114Y-107375485D01*
X146001775Y-107260753D01*
X146054580Y-107133270D01*
X146081500Y-106997936D01*
X146081500Y-106859948D01*
X146081500Y-91066049D01*
X146081500Y-91066046D01*
X146054581Y-90930719D01*
X146054580Y-90930718D01*
X146054580Y-90930714D01*
X146001775Y-90803231D01*
X145977179Y-90766420D01*
X145925114Y-90688499D01*
X145925112Y-90688496D01*
X143248359Y-88011743D01*
X143214874Y-87950420D01*
X143219858Y-87880728D01*
X143261730Y-87824795D01*
X143327194Y-87800378D01*
X143374359Y-87806131D01*
X143414485Y-87819169D01*
X143643871Y-87855500D01*
X143643876Y-87855500D01*
X143876129Y-87855500D01*
X143977502Y-87839443D01*
X144105514Y-87819169D01*
X144326396Y-87747400D01*
X144533331Y-87641961D01*
X144721224Y-87505449D01*
X144885449Y-87341224D01*
X145021961Y-87153331D01*
X145127400Y-86946396D01*
X145199169Y-86725514D01*
X145219443Y-86597502D01*
X145235500Y-86496129D01*
X145235500Y-86263870D01*
X145213537Y-86125202D01*
X145199169Y-86034486D01*
X145127400Y-85813604D01*
X145127398Y-85813601D01*
X145127398Y-85813599D01*
X145021960Y-85606668D01*
X145021266Y-85605713D01*
X144885449Y-85418776D01*
X144721224Y-85254551D01*
X144533331Y-85118039D01*
X144326400Y-85012601D01*
X144105514Y-84940831D01*
X143876129Y-84904500D01*
X143876124Y-84904500D01*
X143643876Y-84904500D01*
X143643871Y-84904500D01*
X143414485Y-84940831D01*
X143193599Y-85012601D01*
X142986668Y-85118039D01*
X142798773Y-85254553D01*
X142634553Y-85418773D01*
X142498039Y-85606668D01*
X142392601Y-85813599D01*
X142320831Y-86034485D01*
X142284500Y-86263870D01*
X142284500Y-86496129D01*
X142320831Y-86725515D01*
X142320832Y-86725522D01*
X142333868Y-86765642D01*
X142335863Y-86835483D01*
X142299782Y-86895316D01*
X142237081Y-86926143D01*
X142167667Y-86918178D01*
X142128256Y-86891640D01*
X139528503Y-84291887D01*
X139413765Y-84215222D01*
X139286290Y-84162421D01*
X139286280Y-84162418D01*
X139150954Y-84135500D01*
X139150952Y-84135500D01*
X139150951Y-84135500D01*
X135212994Y-84135500D01*
X135075006Y-84135500D01*
X135075004Y-84135500D01*
X134939677Y-84162418D01*
X134939667Y-84162421D01*
X134812192Y-84215222D01*
X134697454Y-84291887D01*
X134076983Y-84912358D01*
X134015660Y-84945843D01*
X133950984Y-84942608D01*
X133945515Y-84940831D01*
X133716129Y-84904500D01*
X133716124Y-84904500D01*
X133483876Y-84904500D01*
X133483871Y-84904500D01*
X133254485Y-84940831D01*
X133033599Y-85012601D01*
X132826668Y-85118039D01*
X132638773Y-85254553D01*
X132474553Y-85418773D01*
X132338039Y-85606668D01*
X132232601Y-85813599D01*
X132160831Y-86034485D01*
X132124500Y-86263870D01*
X132124500Y-86496129D01*
X132160831Y-86725514D01*
X132232601Y-86946400D01*
X132294658Y-87068192D01*
X132338039Y-87153331D01*
X132474551Y-87341224D01*
X132638776Y-87505449D01*
X132826669Y-87641961D01*
X132923394Y-87691245D01*
X133033599Y-87747398D01*
X133033601Y-87747398D01*
X133033604Y-87747400D01*
X133254486Y-87819169D01*
X133372668Y-87837886D01*
X133483871Y-87855500D01*
X133483876Y-87855500D01*
X133716129Y-87855500D01*
X133817502Y-87839443D01*
X133945514Y-87819169D01*
X134166396Y-87747400D01*
X134373331Y-87641961D01*
X134561224Y-87505449D01*
X134725449Y-87341224D01*
X134861961Y-87153331D01*
X134967400Y-86946396D01*
X135039169Y-86725514D01*
X135059443Y-86597502D01*
X135075500Y-86496129D01*
X135075500Y-86263870D01*
X135053537Y-86125202D01*
X135039169Y-86034486D01*
X135037391Y-86029013D01*
X135035396Y-85959172D01*
X135067638Y-85903017D01*
X135397840Y-85572816D01*
X135459161Y-85539334D01*
X135485519Y-85536500D01*
X137251442Y-85536500D01*
X137318481Y-85556185D01*
X137364236Y-85608989D01*
X137374180Y-85678147D01*
X137361927Y-85716795D01*
X137312601Y-85813599D01*
X137240831Y-86034485D01*
X137204500Y-86263870D01*
X137204500Y-86496129D01*
X137240831Y-86725514D01*
X137312601Y-86946400D01*
X137374658Y-87068192D01*
X137418039Y-87153331D01*
X137554551Y-87341224D01*
X137718776Y-87505449D01*
X137906669Y-87641961D01*
X138003394Y-87691245D01*
X138113599Y-87747398D01*
X138113601Y-87747398D01*
X138113604Y-87747400D01*
X138334486Y-87819169D01*
X138452668Y-87837886D01*
X138563871Y-87855500D01*
X138563876Y-87855500D01*
X138796129Y-87855500D01*
X138923562Y-87835316D01*
X139025514Y-87819169D01*
X139030977Y-87817393D01*
X139100815Y-87815393D01*
X139156984Y-87847641D01*
X144043181Y-92733838D01*
X144076666Y-92795161D01*
X144079500Y-92821519D01*
X144079500Y-106338481D01*
X144059815Y-106405520D01*
X144043181Y-106426162D01*
X136906162Y-113563181D01*
X136844839Y-113596666D01*
X136818481Y-113599500D01*
X117787004Y-113599500D01*
X117651677Y-113626418D01*
X117651667Y-113626421D01*
X117524192Y-113679222D01*
X117409454Y-113755887D01*
X112114553Y-119050788D01*
X112053230Y-119084273D01*
X112007474Y-119085580D01*
X111938837Y-119074709D01*
X111864909Y-119063000D01*
X111655091Y-119063000D01*
X111586012Y-119073941D01*
X111447853Y-119095823D01*
X111248308Y-119160658D01*
X111248305Y-119160659D01*
X111061352Y-119255918D01*
X110891615Y-119379238D01*
X110891610Y-119379242D01*
X110743242Y-119527610D01*
X110743238Y-119527615D01*
X110619916Y-119697354D01*
X110600484Y-119735492D01*
X110552510Y-119786287D01*
X110484689Y-119803082D01*
X110418554Y-119780544D01*
X110379516Y-119735492D01*
X110360083Y-119697354D01*
X110236761Y-119527615D01*
X110236757Y-119527610D01*
X110088389Y-119379242D01*
X110088384Y-119379238D01*
X109918647Y-119255918D01*
X109918646Y-119255917D01*
X109918644Y-119255916D01*
X109858750Y-119225398D01*
X109731694Y-119160659D01*
X109731691Y-119160658D01*
X109532146Y-119095823D01*
X109407878Y-119076141D01*
X109324909Y-119063000D01*
X109115091Y-119063000D01*
X109046012Y-119073941D01*
X108907853Y-119095823D01*
X108708308Y-119160658D01*
X108708305Y-119160659D01*
X108521352Y-119255918D01*
X108351615Y-119379238D01*
X108351610Y-119379242D01*
X108203242Y-119527610D01*
X108203238Y-119527615D01*
X108079916Y-119697354D01*
X108060484Y-119735492D01*
X108012510Y-119786287D01*
X107944689Y-119803082D01*
X107878554Y-119780544D01*
X107839516Y-119735492D01*
X107820083Y-119697354D01*
X107696761Y-119527615D01*
X107696757Y-119527610D01*
X107548389Y-119379242D01*
X107548384Y-119379238D01*
X107378647Y-119255918D01*
X107378646Y-119255917D01*
X107378644Y-119255916D01*
X107318750Y-119225398D01*
X107191694Y-119160659D01*
X107191691Y-119160658D01*
X106992146Y-119095823D01*
X106867878Y-119076141D01*
X106784909Y-119063000D01*
X106575091Y-119063000D01*
X106506012Y-119073941D01*
X106367853Y-119095823D01*
X106168308Y-119160658D01*
X106168305Y-119160659D01*
X105981352Y-119255918D01*
X105811615Y-119379238D01*
X105811610Y-119379242D01*
X105663242Y-119527610D01*
X105663238Y-119527615D01*
X105539916Y-119697354D01*
X105520484Y-119735492D01*
X105472510Y-119786287D01*
X105404689Y-119803082D01*
X105338554Y-119780544D01*
X105299516Y-119735492D01*
X105280083Y-119697354D01*
X105156761Y-119527615D01*
X105156757Y-119527610D01*
X105008389Y-119379242D01*
X105008384Y-119379238D01*
X104838647Y-119255918D01*
X104838646Y-119255917D01*
X104838644Y-119255916D01*
X104778750Y-119225398D01*
X104651694Y-119160659D01*
X104651691Y-119160658D01*
X104452146Y-119095823D01*
X104327878Y-119076141D01*
X104244909Y-119063000D01*
X104035091Y-119063000D01*
X103966012Y-119073941D01*
X103827853Y-119095823D01*
X103628308Y-119160658D01*
X103628305Y-119160659D01*
X103441352Y-119255918D01*
X103271615Y-119379238D01*
X103271610Y-119379242D01*
X103123242Y-119527610D01*
X103123238Y-119527615D01*
X102999916Y-119697354D01*
X102980484Y-119735492D01*
X102932510Y-119786287D01*
X102864689Y-119803082D01*
X102798554Y-119780544D01*
X102759516Y-119735492D01*
X102740083Y-119697354D01*
X102616761Y-119527615D01*
X102616757Y-119527610D01*
X102468389Y-119379242D01*
X102468384Y-119379238D01*
X102298647Y-119255918D01*
X102298646Y-119255917D01*
X102298644Y-119255916D01*
X102238750Y-119225398D01*
X102111694Y-119160659D01*
X102111691Y-119160658D01*
X101912146Y-119095823D01*
X101787878Y-119076141D01*
X101704909Y-119063000D01*
X101495091Y-119063000D01*
X101426012Y-119073941D01*
X101287853Y-119095823D01*
X101088308Y-119160658D01*
X101088305Y-119160659D01*
X100901352Y-119255918D01*
X100731615Y-119379238D01*
X100731610Y-119379242D01*
X100583242Y-119527610D01*
X100583238Y-119527615D01*
X100459916Y-119697354D01*
X100440484Y-119735492D01*
X100392510Y-119786287D01*
X100324689Y-119803082D01*
X100258554Y-119780544D01*
X100219516Y-119735492D01*
X100200083Y-119697354D01*
X100076761Y-119527615D01*
X100076757Y-119527610D01*
X99928389Y-119379242D01*
X99928384Y-119379238D01*
X99758647Y-119255918D01*
X99758646Y-119255917D01*
X99758644Y-119255916D01*
X99698750Y-119225398D01*
X99571694Y-119160659D01*
X99571691Y-119160658D01*
X99372146Y-119095823D01*
X99247878Y-119076141D01*
X99164909Y-119063000D01*
X98955091Y-119063000D01*
X98886012Y-119073941D01*
X98747853Y-119095823D01*
X98548308Y-119160658D01*
X98548305Y-119160659D01*
X98361352Y-119255918D01*
X98191615Y-119379238D01*
X98191610Y-119379242D01*
X98043242Y-119527610D01*
X98043238Y-119527615D01*
X97919916Y-119697354D01*
X97900484Y-119735492D01*
X97852510Y-119786287D01*
X97784689Y-119803082D01*
X97718554Y-119780544D01*
X97679516Y-119735492D01*
X97660083Y-119697354D01*
X97536761Y-119527615D01*
X97536757Y-119527610D01*
X97388389Y-119379242D01*
X97388384Y-119379238D01*
X97218647Y-119255918D01*
X97218646Y-119255917D01*
X97218644Y-119255916D01*
X97158750Y-119225398D01*
X97031694Y-119160659D01*
X97031691Y-119160658D01*
X96832146Y-119095823D01*
X96707878Y-119076141D01*
X96624909Y-119063000D01*
X96415091Y-119063000D01*
X96346012Y-119073941D01*
X96207853Y-119095823D01*
X96008308Y-119160658D01*
X96008305Y-119160659D01*
X95821352Y-119255918D01*
X95651615Y-119379238D01*
X95651610Y-119379242D01*
X95503242Y-119527610D01*
X95503238Y-119527615D01*
X95379916Y-119697354D01*
X95360484Y-119735492D01*
X95312510Y-119786287D01*
X95244689Y-119803082D01*
X95178554Y-119780544D01*
X95139516Y-119735492D01*
X95120083Y-119697354D01*
X94996761Y-119527615D01*
X94996757Y-119527610D01*
X94848389Y-119379242D01*
X94848384Y-119379238D01*
X94678647Y-119255918D01*
X94678646Y-119255917D01*
X94678644Y-119255916D01*
X94618750Y-119225398D01*
X94491694Y-119160659D01*
X94491691Y-119160658D01*
X94292146Y-119095823D01*
X94167878Y-119076141D01*
X94084909Y-119063000D01*
X93875091Y-119063000D01*
X93806012Y-119073941D01*
X93667853Y-119095823D01*
X93468308Y-119160658D01*
X93468305Y-119160659D01*
X93281352Y-119255918D01*
X93111615Y-119379238D01*
X93111610Y-119379242D01*
X92963242Y-119527610D01*
X92963238Y-119527615D01*
X92839918Y-119697352D01*
X92807985Y-119760024D01*
X92760010Y-119810820D01*
X92692189Y-119827615D01*
X92626054Y-119805077D01*
X92582603Y-119750362D01*
X92573500Y-119703729D01*
X92573500Y-106457452D01*
X92593185Y-106390413D01*
X92645989Y-106344658D01*
X92715147Y-106334714D01*
X92778703Y-106363739D01*
X92785181Y-106369771D01*
X93451181Y-107035771D01*
X93484666Y-107097094D01*
X93487500Y-107123452D01*
X93487500Y-107286541D01*
X93487500Y-107286543D01*
X93487499Y-107286543D01*
X93525947Y-107479829D01*
X93525950Y-107479839D01*
X93601364Y-107661907D01*
X93601371Y-107661920D01*
X93710860Y-107825781D01*
X93710863Y-107825785D01*
X93850214Y-107965136D01*
X93850218Y-107965139D01*
X94014079Y-108074628D01*
X94014092Y-108074635D01*
X94196160Y-108150049D01*
X94196165Y-108150051D01*
X94196169Y-108150051D01*
X94196170Y-108150052D01*
X94389456Y-108188500D01*
X94389459Y-108188500D01*
X94586543Y-108188500D01*
X94716582Y-108162632D01*
X94779835Y-108150051D01*
X94961914Y-108074632D01*
X95125782Y-107965139D01*
X95265139Y-107825782D01*
X95374632Y-107661914D01*
X95450051Y-107479835D01*
X95488500Y-107286541D01*
X95488500Y-107089459D01*
X95488500Y-107089456D01*
X95450052Y-106896170D01*
X95450051Y-106896169D01*
X95450051Y-106896165D01*
X95398432Y-106771544D01*
X95374635Y-106714092D01*
X95374628Y-106714079D01*
X95265139Y-106550218D01*
X95265136Y-106550214D01*
X95125785Y-106410863D01*
X95125781Y-106410860D01*
X94961920Y-106301371D01*
X94961907Y-106301364D01*
X94779839Y-106225950D01*
X94779829Y-106225947D01*
X94610875Y-106192339D01*
X94548964Y-106159954D01*
X94514390Y-106099238D01*
X94518131Y-106029468D01*
X94558997Y-105972796D01*
X94566165Y-105967628D01*
X94617782Y-105933139D01*
X94757139Y-105793782D01*
X94866632Y-105629914D01*
X94942051Y-105447835D01*
X94980500Y-105254541D01*
X94980500Y-105057459D01*
X94980500Y-105057456D01*
X94942052Y-104864170D01*
X94942051Y-104864169D01*
X94942051Y-104864165D01*
X94942049Y-104864160D01*
X94866635Y-104682092D01*
X94866628Y-104682079D01*
X94757139Y-104518218D01*
X94757136Y-104518214D01*
X94716819Y-104477897D01*
X94683334Y-104416574D01*
X94680500Y-104390216D01*
X94680500Y-100878711D01*
X97649500Y-100878711D01*
X97649500Y-101121288D01*
X97681161Y-101361785D01*
X97743947Y-101596104D01*
X97836773Y-101820205D01*
X97836776Y-101820212D01*
X97958064Y-102030289D01*
X97958066Y-102030292D01*
X97958067Y-102030293D01*
X98105733Y-102222736D01*
X98105739Y-102222743D01*
X98277256Y-102394260D01*
X98277263Y-102394266D01*
X98345414Y-102446560D01*
X98469711Y-102541936D01*
X98679788Y-102663224D01*
X98903900Y-102756054D01*
X99138211Y-102818838D01*
X99318586Y-102842584D01*
X99378711Y-102850500D01*
X99378712Y-102850500D01*
X99621289Y-102850500D01*
X99669388Y-102844167D01*
X99861789Y-102818838D01*
X100096100Y-102756054D01*
X100320212Y-102663224D01*
X100530289Y-102541936D01*
X100722738Y-102394265D01*
X100894265Y-102222738D01*
X101041936Y-102030289D01*
X101163224Y-101820212D01*
X101256054Y-101596100D01*
X101318838Y-101361789D01*
X101350500Y-101121288D01*
X101350500Y-100878712D01*
X101350500Y-100878711D01*
X121649500Y-100878711D01*
X121649500Y-101121288D01*
X121681161Y-101361785D01*
X121743947Y-101596104D01*
X121836773Y-101820205D01*
X121836776Y-101820212D01*
X121958064Y-102030289D01*
X121958066Y-102030292D01*
X121958067Y-102030293D01*
X122105733Y-102222736D01*
X122105739Y-102222743D01*
X122277256Y-102394260D01*
X122277263Y-102394266D01*
X122345414Y-102446560D01*
X122469711Y-102541936D01*
X122679788Y-102663224D01*
X122903900Y-102756054D01*
X123138211Y-102818838D01*
X123318586Y-102842584D01*
X123378711Y-102850500D01*
X123378712Y-102850500D01*
X123621289Y-102850500D01*
X123669388Y-102844167D01*
X123861789Y-102818838D01*
X124096100Y-102756054D01*
X124320212Y-102663224D01*
X124530289Y-102541936D01*
X124722738Y-102394265D01*
X124894265Y-102222738D01*
X125041936Y-102030289D01*
X125163224Y-101820212D01*
X125256054Y-101596100D01*
X125318838Y-101361789D01*
X125350500Y-101121288D01*
X125350500Y-100878712D01*
X125318838Y-100638211D01*
X125256054Y-100403900D01*
X125163224Y-100179788D01*
X125041936Y-99969711D01*
X124894265Y-99777262D01*
X124894260Y-99777256D01*
X124722743Y-99605739D01*
X124722736Y-99605733D01*
X124530293Y-99458067D01*
X124530292Y-99458066D01*
X124530289Y-99458064D01*
X124320212Y-99336776D01*
X124320205Y-99336773D01*
X124096104Y-99243947D01*
X123861785Y-99181161D01*
X123621289Y-99149500D01*
X123621288Y-99149500D01*
X123378712Y-99149500D01*
X123378711Y-99149500D01*
X123138214Y-99181161D01*
X122903895Y-99243947D01*
X122679794Y-99336773D01*
X122679785Y-99336777D01*
X122469706Y-99458067D01*
X122277263Y-99605733D01*
X122277256Y-99605739D01*
X122105739Y-99777256D01*
X122105733Y-99777263D01*
X121958067Y-99969706D01*
X121836777Y-100179785D01*
X121836773Y-100179794D01*
X121743947Y-100403895D01*
X121681161Y-100638214D01*
X121649500Y-100878711D01*
X101350500Y-100878711D01*
X101318838Y-100638211D01*
X101256054Y-100403900D01*
X101163224Y-100179788D01*
X101041936Y-99969711D01*
X100894265Y-99777262D01*
X100894260Y-99777256D01*
X100722743Y-99605739D01*
X100722736Y-99605733D01*
X100530293Y-99458067D01*
X100530292Y-99458066D01*
X100530289Y-99458064D01*
X100320212Y-99336776D01*
X100320205Y-99336773D01*
X100096104Y-99243947D01*
X99861785Y-99181161D01*
X99621289Y-99149500D01*
X99621288Y-99149500D01*
X99378712Y-99149500D01*
X99378711Y-99149500D01*
X99138214Y-99181161D01*
X98903895Y-99243947D01*
X98679794Y-99336773D01*
X98679785Y-99336777D01*
X98469706Y-99458067D01*
X98277263Y-99605733D01*
X98277256Y-99605739D01*
X98105739Y-99777256D01*
X98105733Y-99777263D01*
X97958067Y-99969706D01*
X97836777Y-100179785D01*
X97836773Y-100179794D01*
X97743947Y-100403895D01*
X97681161Y-100638214D01*
X97649500Y-100878711D01*
X94680500Y-100878711D01*
X94680500Y-96197916D01*
X94700185Y-96130877D01*
X94731616Y-96097597D01*
X94771374Y-96068712D01*
X94848391Y-96012756D01*
X94996756Y-95864391D01*
X95120084Y-95694644D01*
X95139515Y-95656507D01*
X95187489Y-95605712D01*
X95255310Y-95588917D01*
X95321445Y-95611454D01*
X95360485Y-95656508D01*
X95379918Y-95694648D01*
X95503238Y-95864384D01*
X95503242Y-95864389D01*
X95651610Y-96012757D01*
X95651615Y-96012761D01*
X95769959Y-96098742D01*
X95821356Y-96136084D01*
X95915993Y-96184304D01*
X96008305Y-96231340D01*
X96008308Y-96231341D01*
X96108080Y-96263758D01*
X96207855Y-96296177D01*
X96415091Y-96329000D01*
X96415092Y-96329000D01*
X96624908Y-96329000D01*
X96624909Y-96329000D01*
X96832145Y-96296177D01*
X97031694Y-96231340D01*
X97218644Y-96136084D01*
X97388391Y-96012756D01*
X97536756Y-95864391D01*
X97660084Y-95694644D01*
X97679515Y-95656507D01*
X97727489Y-95605712D01*
X97795310Y-95588917D01*
X97861445Y-95611454D01*
X97900485Y-95656508D01*
X97919918Y-95694648D01*
X98043238Y-95864384D01*
X98043242Y-95864389D01*
X98191610Y-96012757D01*
X98191615Y-96012761D01*
X98309959Y-96098742D01*
X98361356Y-96136084D01*
X98455993Y-96184304D01*
X98548305Y-96231340D01*
X98548308Y-96231341D01*
X98648080Y-96263758D01*
X98747855Y-96296177D01*
X98955091Y-96329000D01*
X98955092Y-96329000D01*
X99164908Y-96329000D01*
X99164909Y-96329000D01*
X99372145Y-96296177D01*
X99571694Y-96231340D01*
X99758644Y-96136084D01*
X99928391Y-96012756D01*
X100076756Y-95864391D01*
X100200084Y-95694644D01*
X100219515Y-95656507D01*
X100267489Y-95605712D01*
X100335310Y-95588917D01*
X100401445Y-95611454D01*
X100440485Y-95656508D01*
X100459918Y-95694648D01*
X100583238Y-95864384D01*
X100583242Y-95864389D01*
X100731610Y-96012757D01*
X100731615Y-96012761D01*
X100849959Y-96098742D01*
X100901356Y-96136084D01*
X100995993Y-96184304D01*
X101088305Y-96231340D01*
X101088308Y-96231341D01*
X101188080Y-96263758D01*
X101287855Y-96296177D01*
X101495091Y-96329000D01*
X101495092Y-96329000D01*
X101704908Y-96329000D01*
X101704909Y-96329000D01*
X101912145Y-96296177D01*
X102111694Y-96231340D01*
X102298644Y-96136084D01*
X102468391Y-96012756D01*
X102616756Y-95864391D01*
X102740084Y-95694644D01*
X102759515Y-95656507D01*
X102807489Y-95605712D01*
X102875310Y-95588917D01*
X102941445Y-95611454D01*
X102980485Y-95656508D01*
X102999918Y-95694648D01*
X103123238Y-95864384D01*
X103123242Y-95864389D01*
X103271610Y-96012757D01*
X103271615Y-96012761D01*
X103389959Y-96098742D01*
X103441356Y-96136084D01*
X103535993Y-96184304D01*
X103628305Y-96231340D01*
X103628308Y-96231341D01*
X103728080Y-96263758D01*
X103827855Y-96296177D01*
X104035091Y-96329000D01*
X104035092Y-96329000D01*
X104244908Y-96329000D01*
X104244909Y-96329000D01*
X104452145Y-96296177D01*
X104651694Y-96231340D01*
X104838644Y-96136084D01*
X105008391Y-96012756D01*
X105156756Y-95864391D01*
X105280084Y-95694644D01*
X105299796Y-95655956D01*
X105347768Y-95605162D01*
X105415589Y-95588366D01*
X105481724Y-95610902D01*
X105520764Y-95655956D01*
X105540340Y-95694375D01*
X105577257Y-95745188D01*
X106152129Y-95170315D01*
X106162822Y-95210222D01*
X106235890Y-95336778D01*
X106339222Y-95440110D01*
X106465778Y-95513178D01*
X106505682Y-95523870D01*
X105930809Y-96098741D01*
X105930810Y-96098742D01*
X105981614Y-96135653D01*
X106168493Y-96230874D01*
X106367971Y-96295689D01*
X106575131Y-96328500D01*
X106784869Y-96328500D01*
X106992028Y-96295689D01*
X107191506Y-96230874D01*
X107378374Y-96135659D01*
X107378387Y-96135651D01*
X107429188Y-96098742D01*
X107429189Y-96098741D01*
X106854317Y-95523870D01*
X106894222Y-95513178D01*
X107020778Y-95440110D01*
X107124110Y-95336778D01*
X107197178Y-95210222D01*
X107207870Y-95170318D01*
X107782741Y-95745189D01*
X107782742Y-95745188D01*
X107819651Y-95694387D01*
X107819662Y-95694370D01*
X107839234Y-95655958D01*
X107887208Y-95605162D01*
X107955029Y-95588366D01*
X108021164Y-95610903D01*
X108060203Y-95655956D01*
X108079785Y-95694387D01*
X108079918Y-95694647D01*
X108203238Y-95864384D01*
X108203242Y-95864389D01*
X108351610Y-96012757D01*
X108351615Y-96012761D01*
X108469959Y-96098742D01*
X108521356Y-96136084D01*
X108615993Y-96184304D01*
X108708305Y-96231340D01*
X108708308Y-96231341D01*
X108808080Y-96263758D01*
X108907855Y-96296177D01*
X109115091Y-96329000D01*
X109115092Y-96329000D01*
X109324908Y-96329000D01*
X109324909Y-96329000D01*
X109532145Y-96296177D01*
X109731694Y-96231340D01*
X109918644Y-96136084D01*
X110088391Y-96012756D01*
X110236756Y-95864391D01*
X110360084Y-95694644D01*
X110379515Y-95656507D01*
X110427489Y-95605712D01*
X110495310Y-95588917D01*
X110561445Y-95611454D01*
X110600485Y-95656508D01*
X110619918Y-95694648D01*
X110743238Y-95864384D01*
X110743242Y-95864389D01*
X110891610Y-96012757D01*
X110891615Y-96012761D01*
X111009959Y-96098742D01*
X111061356Y-96136084D01*
X111155993Y-96184304D01*
X111248305Y-96231340D01*
X111248308Y-96231341D01*
X111348080Y-96263758D01*
X111447855Y-96296177D01*
X111655091Y-96329000D01*
X111655092Y-96329000D01*
X111864908Y-96329000D01*
X111864909Y-96329000D01*
X112072145Y-96296177D01*
X112271694Y-96231340D01*
X112458644Y-96136084D01*
X112628391Y-96012756D01*
X112776756Y-95864391D01*
X112900084Y-95694644D01*
X112919515Y-95656507D01*
X112967489Y-95605712D01*
X113035310Y-95588917D01*
X113101445Y-95611454D01*
X113140485Y-95656508D01*
X113159918Y-95694648D01*
X113283238Y-95864384D01*
X113283242Y-95864389D01*
X113431610Y-96012757D01*
X113431615Y-96012761D01*
X113549959Y-96098742D01*
X113601356Y-96136084D01*
X113695993Y-96184304D01*
X113788305Y-96231340D01*
X113788308Y-96231341D01*
X113888080Y-96263758D01*
X113987855Y-96296177D01*
X114195091Y-96329000D01*
X114195092Y-96329000D01*
X114404908Y-96329000D01*
X114404909Y-96329000D01*
X114612145Y-96296177D01*
X114811694Y-96231340D01*
X114998644Y-96136084D01*
X115168391Y-96012756D01*
X115316756Y-95864391D01*
X115440084Y-95694644D01*
X115459515Y-95656507D01*
X115507489Y-95605712D01*
X115575310Y-95588917D01*
X115641445Y-95611454D01*
X115680485Y-95656508D01*
X115699918Y-95694648D01*
X115823238Y-95864384D01*
X115823242Y-95864389D01*
X115971610Y-96012757D01*
X115971615Y-96012761D01*
X116089959Y-96098742D01*
X116141356Y-96136084D01*
X116235993Y-96184304D01*
X116328305Y-96231340D01*
X116328308Y-96231341D01*
X116428080Y-96263758D01*
X116527855Y-96296177D01*
X116735091Y-96329000D01*
X116735092Y-96329000D01*
X116944908Y-96329000D01*
X116944909Y-96329000D01*
X117152145Y-96296177D01*
X117351694Y-96231340D01*
X117538644Y-96136084D01*
X117708391Y-96012756D01*
X117856756Y-95864391D01*
X117980084Y-95694644D01*
X117999515Y-95656507D01*
X118047489Y-95605712D01*
X118115310Y-95588917D01*
X118181445Y-95611454D01*
X118220485Y-95656508D01*
X118239918Y-95694648D01*
X118363238Y-95864384D01*
X118363242Y-95864389D01*
X118511610Y-96012757D01*
X118511615Y-96012761D01*
X118629959Y-96098742D01*
X118681356Y-96136084D01*
X118775993Y-96184304D01*
X118868305Y-96231340D01*
X118868308Y-96231341D01*
X118968080Y-96263758D01*
X119067855Y-96296177D01*
X119275091Y-96329000D01*
X119275092Y-96329000D01*
X119484908Y-96329000D01*
X119484909Y-96329000D01*
X119692145Y-96296177D01*
X119891694Y-96231340D01*
X120078644Y-96136084D01*
X120248391Y-96012756D01*
X120396756Y-95864391D01*
X120520084Y-95694644D01*
X120539515Y-95656507D01*
X120587489Y-95605712D01*
X120655310Y-95588917D01*
X120721445Y-95611454D01*
X120760485Y-95656508D01*
X120779918Y-95694648D01*
X120903238Y-95864384D01*
X120903242Y-95864389D01*
X121051610Y-96012757D01*
X121051615Y-96012761D01*
X121169959Y-96098742D01*
X121221356Y-96136084D01*
X121315993Y-96184304D01*
X121408305Y-96231340D01*
X121408308Y-96231341D01*
X121508080Y-96263758D01*
X121607855Y-96296177D01*
X121815091Y-96329000D01*
X121815092Y-96329000D01*
X122024908Y-96329000D01*
X122024909Y-96329000D01*
X122232145Y-96296177D01*
X122431694Y-96231340D01*
X122618644Y-96136084D01*
X122788391Y-96012756D01*
X122936756Y-95864391D01*
X123060084Y-95694644D01*
X123079515Y-95656507D01*
X123127489Y-95605712D01*
X123195310Y-95588917D01*
X123261445Y-95611454D01*
X123300485Y-95656508D01*
X123319918Y-95694648D01*
X123443238Y-95864384D01*
X123443242Y-95864389D01*
X123591610Y-96012757D01*
X123591615Y-96012761D01*
X123709959Y-96098742D01*
X123761356Y-96136084D01*
X123855993Y-96184304D01*
X123948305Y-96231340D01*
X123948308Y-96231341D01*
X124048080Y-96263758D01*
X124147855Y-96296177D01*
X124355091Y-96329000D01*
X124355092Y-96329000D01*
X124564908Y-96329000D01*
X124564909Y-96329000D01*
X124772145Y-96296177D01*
X124971694Y-96231340D01*
X125158644Y-96136084D01*
X125328391Y-96012756D01*
X125476756Y-95864391D01*
X125600084Y-95694644D01*
X125619515Y-95656507D01*
X125667489Y-95605712D01*
X125735310Y-95588917D01*
X125801445Y-95611454D01*
X125840485Y-95656508D01*
X125859918Y-95694648D01*
X125983238Y-95864384D01*
X125983242Y-95864389D01*
X126131610Y-96012757D01*
X126131615Y-96012761D01*
X126249959Y-96098742D01*
X126301356Y-96136084D01*
X126395993Y-96184304D01*
X126488305Y-96231340D01*
X126488308Y-96231341D01*
X126588080Y-96263758D01*
X126687855Y-96296177D01*
X126895091Y-96329000D01*
X126895092Y-96329000D01*
X127104908Y-96329000D01*
X127104909Y-96329000D01*
X127312145Y-96296177D01*
X127511694Y-96231340D01*
X127698644Y-96136084D01*
X127868391Y-96012756D01*
X128016756Y-95864391D01*
X128140084Y-95694644D01*
X128159515Y-95656507D01*
X128207489Y-95605712D01*
X128275310Y-95588917D01*
X128341445Y-95611454D01*
X128380485Y-95656508D01*
X128399918Y-95694648D01*
X128523238Y-95864384D01*
X128523242Y-95864389D01*
X128671610Y-96012757D01*
X128671615Y-96012761D01*
X128789959Y-96098742D01*
X128841356Y-96136084D01*
X128935993Y-96184304D01*
X129028305Y-96231340D01*
X129028308Y-96231341D01*
X129128080Y-96263758D01*
X129227855Y-96296177D01*
X129435091Y-96329000D01*
X129435092Y-96329000D01*
X129644908Y-96329000D01*
X129644909Y-96329000D01*
X129852145Y-96296177D01*
X130051694Y-96231340D01*
X130238644Y-96136084D01*
X130408391Y-96012756D01*
X130556756Y-95864391D01*
X130680084Y-95694644D01*
X130699515Y-95656507D01*
X130747489Y-95605712D01*
X130815310Y-95588917D01*
X130881445Y-95611454D01*
X130920485Y-95656508D01*
X130939918Y-95694648D01*
X131063238Y-95864384D01*
X131063242Y-95864389D01*
X131211610Y-96012757D01*
X131211615Y-96012761D01*
X131329959Y-96098742D01*
X131381356Y-96136084D01*
X131475993Y-96184304D01*
X131568305Y-96231340D01*
X131568308Y-96231341D01*
X131668080Y-96263758D01*
X131767855Y-96296177D01*
X131975091Y-96329000D01*
X131975092Y-96329000D01*
X132184908Y-96329000D01*
X132184909Y-96329000D01*
X132392145Y-96296177D01*
X132591694Y-96231340D01*
X132778644Y-96136084D01*
X132948391Y-96012756D01*
X133096756Y-95864391D01*
X133220084Y-95694644D01*
X133239515Y-95656507D01*
X133287489Y-95605712D01*
X133355310Y-95588917D01*
X133421445Y-95611454D01*
X133460485Y-95656508D01*
X133479918Y-95694648D01*
X133603238Y-95864384D01*
X133603242Y-95864389D01*
X133751610Y-96012757D01*
X133751615Y-96012761D01*
X133869959Y-96098742D01*
X133921356Y-96136084D01*
X134015993Y-96184304D01*
X134108305Y-96231340D01*
X134108308Y-96231341D01*
X134208080Y-96263758D01*
X134307855Y-96296177D01*
X134515091Y-96329000D01*
X134515092Y-96329000D01*
X134724908Y-96329000D01*
X134724909Y-96329000D01*
X134932145Y-96296177D01*
X135131694Y-96231340D01*
X135318644Y-96136084D01*
X135488391Y-96012756D01*
X135636756Y-95864391D01*
X135760084Y-95694644D01*
X135779515Y-95656507D01*
X135827489Y-95605712D01*
X135895310Y-95588917D01*
X135961445Y-95611454D01*
X136000485Y-95656508D01*
X136019918Y-95694648D01*
X136143238Y-95864384D01*
X136143242Y-95864389D01*
X136291610Y-96012757D01*
X136291615Y-96012761D01*
X136409959Y-96098742D01*
X136461356Y-96136084D01*
X136555993Y-96184304D01*
X136648305Y-96231340D01*
X136648308Y-96231341D01*
X136748080Y-96263758D01*
X136847855Y-96296177D01*
X137055091Y-96329000D01*
X137055092Y-96329000D01*
X137076980Y-96329000D01*
X137144019Y-96348685D01*
X137189774Y-96401489D01*
X137199718Y-96470647D01*
X137170693Y-96534203D01*
X137164661Y-96540681D01*
X123190162Y-110515181D01*
X123128839Y-110548666D01*
X123102481Y-110551500D01*
X99499004Y-110551500D01*
X99396175Y-110571954D01*
X99363677Y-110578418D01*
X99363666Y-110578421D01*
X99351603Y-110583418D01*
X99351594Y-110583422D01*
X99346620Y-110585483D01*
X99236189Y-110631225D01*
X99159387Y-110682543D01*
X99153736Y-110686319D01*
X99121454Y-110707888D01*
X99121453Y-110707889D01*
X94026162Y-115803181D01*
X93964839Y-115836666D01*
X93938481Y-115839500D01*
X93881457Y-115839500D01*
X93688170Y-115877947D01*
X93688160Y-115877950D01*
X93506092Y-115953364D01*
X93506079Y-115953371D01*
X93342218Y-116062860D01*
X93342214Y-116062863D01*
X93202863Y-116202214D01*
X93202860Y-116202218D01*
X93093371Y-116366079D01*
X93093364Y-116366092D01*
X93017950Y-116548160D01*
X93017947Y-116548170D01*
X92979500Y-116741456D01*
X92979500Y-116741459D01*
X92979500Y-116938541D01*
X92979500Y-116938543D01*
X92979499Y-116938543D01*
X93017947Y-117131829D01*
X93017950Y-117131839D01*
X93093364Y-117313907D01*
X93093371Y-117313920D01*
X93202860Y-117477781D01*
X93202863Y-117477785D01*
X93342214Y-117617136D01*
X93342218Y-117617139D01*
X93506079Y-117726628D01*
X93506092Y-117726635D01*
X93688160Y-117802049D01*
X93688165Y-117802051D01*
X93688169Y-117802051D01*
X93688170Y-117802052D01*
X93881456Y-117840500D01*
X93881459Y-117840500D01*
X94078543Y-117840500D01*
X94208582Y-117814632D01*
X94271835Y-117802051D01*
X94453914Y-117726632D01*
X94617782Y-117617139D01*
X94757139Y-117477782D01*
X94866632Y-117313914D01*
X94942051Y-117131835D01*
X94959601Y-117043608D01*
X94980500Y-116938543D01*
X94980500Y-116881518D01*
X95000185Y-116814479D01*
X95016819Y-116793837D01*
X99821837Y-111988819D01*
X99883160Y-111955334D01*
X99909518Y-111952500D01*
X123512996Y-111952500D01*
X123604040Y-111934389D01*
X123648328Y-111925580D01*
X123712069Y-111899177D01*
X123775807Y-111872777D01*
X123775808Y-111872776D01*
X123775811Y-111872775D01*
X123890543Y-111796114D01*
X139321338Y-96365317D01*
X139382661Y-96331833D01*
X139409019Y-96328999D01*
X140580371Y-96328999D01*
X140580372Y-96328999D01*
X140639983Y-96322591D01*
X140774831Y-96272296D01*
X140890046Y-96186046D01*
X140976296Y-96070831D01*
X141026591Y-95935983D01*
X141033000Y-95876373D01*
X141032999Y-94115628D01*
X141026591Y-94056017D01*
X141009186Y-94009353D01*
X140976297Y-93921171D01*
X140976293Y-93921164D01*
X140890047Y-93805955D01*
X140890044Y-93805952D01*
X140774835Y-93719706D01*
X140774828Y-93719702D01*
X140639982Y-93669408D01*
X140639983Y-93669408D01*
X140580383Y-93663001D01*
X140580381Y-93663000D01*
X140580373Y-93663000D01*
X140580364Y-93663000D01*
X138819629Y-93663000D01*
X138819623Y-93663001D01*
X138760016Y-93669408D01*
X138625171Y-93719702D01*
X138625164Y-93719706D01*
X138509955Y-93805952D01*
X138509952Y-93805955D01*
X138423706Y-93921164D01*
X138423702Y-93921171D01*
X138373407Y-94056019D01*
X138373270Y-94056603D01*
X138373038Y-94057009D01*
X138370698Y-94063285D01*
X138369680Y-94062905D01*
X138338695Y-94117319D01*
X138276783Y-94149703D01*
X138207192Y-94143474D01*
X138164913Y-94115766D01*
X138028389Y-93979242D01*
X138028384Y-93979238D01*
X137858647Y-93855918D01*
X137858646Y-93855917D01*
X137858644Y-93855916D01*
X137779545Y-93815613D01*
X137671694Y-93760659D01*
X137671691Y-93760658D01*
X137472146Y-93695823D01*
X137368527Y-93679411D01*
X137264909Y-93663000D01*
X137055091Y-93663000D01*
X136986012Y-93673941D01*
X136847853Y-93695823D01*
X136648308Y-93760658D01*
X136648305Y-93760659D01*
X136461352Y-93855918D01*
X136291615Y-93979238D01*
X136291610Y-93979242D01*
X136143242Y-94127610D01*
X136143238Y-94127615D01*
X136019916Y-94297354D01*
X136000484Y-94335492D01*
X135952510Y-94386287D01*
X135884689Y-94403082D01*
X135818554Y-94380544D01*
X135779516Y-94335492D01*
X135760083Y-94297354D01*
X135636761Y-94127615D01*
X135636757Y-94127610D01*
X135488389Y-93979242D01*
X135488384Y-93979238D01*
X135318647Y-93855918D01*
X135318646Y-93855917D01*
X135318644Y-93855916D01*
X135239545Y-93815613D01*
X135131694Y-93760659D01*
X135131691Y-93760658D01*
X134932146Y-93695823D01*
X134828527Y-93679411D01*
X134724909Y-93663000D01*
X134515091Y-93663000D01*
X134446012Y-93673941D01*
X134307853Y-93695823D01*
X134108308Y-93760658D01*
X134108305Y-93760659D01*
X133921352Y-93855918D01*
X133751615Y-93979238D01*
X133751610Y-93979242D01*
X133603242Y-94127610D01*
X133603238Y-94127615D01*
X133479916Y-94297354D01*
X133460484Y-94335492D01*
X133412510Y-94386287D01*
X133344689Y-94403082D01*
X133278554Y-94380544D01*
X133239516Y-94335492D01*
X133220083Y-94297354D01*
X133096761Y-94127615D01*
X133096757Y-94127610D01*
X132948389Y-93979242D01*
X132948384Y-93979238D01*
X132778647Y-93855918D01*
X132778646Y-93855917D01*
X132778644Y-93855916D01*
X132699545Y-93815613D01*
X132591694Y-93760659D01*
X132591691Y-93760658D01*
X132392146Y-93695823D01*
X132288527Y-93679411D01*
X132184909Y-93663000D01*
X131975091Y-93663000D01*
X131906012Y-93673941D01*
X131767853Y-93695823D01*
X131568308Y-93760658D01*
X131568305Y-93760659D01*
X131381352Y-93855918D01*
X131211615Y-93979238D01*
X131211610Y-93979242D01*
X131063242Y-94127610D01*
X131063238Y-94127615D01*
X130939916Y-94297354D01*
X130920484Y-94335492D01*
X130872510Y-94386287D01*
X130804689Y-94403082D01*
X130738554Y-94380544D01*
X130699516Y-94335492D01*
X130680083Y-94297354D01*
X130556761Y-94127615D01*
X130556757Y-94127610D01*
X130408389Y-93979242D01*
X130408384Y-93979238D01*
X130238647Y-93855918D01*
X130238646Y-93855917D01*
X130238644Y-93855916D01*
X130159545Y-93815613D01*
X130051694Y-93760659D01*
X130051691Y-93760658D01*
X129852146Y-93695823D01*
X129748527Y-93679411D01*
X129644909Y-93663000D01*
X129435091Y-93663000D01*
X129366012Y-93673941D01*
X129227853Y-93695823D01*
X129028308Y-93760658D01*
X129028305Y-93760659D01*
X128841352Y-93855918D01*
X128671615Y-93979238D01*
X128671610Y-93979242D01*
X128523242Y-94127610D01*
X128523238Y-94127615D01*
X128399916Y-94297354D01*
X128380484Y-94335492D01*
X128332510Y-94386287D01*
X128264689Y-94403082D01*
X128198554Y-94380544D01*
X128159516Y-94335492D01*
X128140083Y-94297354D01*
X128016761Y-94127615D01*
X128016757Y-94127610D01*
X127868389Y-93979242D01*
X127868384Y-93979238D01*
X127698647Y-93855918D01*
X127698646Y-93855917D01*
X127698644Y-93855916D01*
X127619545Y-93815613D01*
X127511694Y-93760659D01*
X127511691Y-93760658D01*
X127312146Y-93695823D01*
X127208527Y-93679411D01*
X127104909Y-93663000D01*
X127083018Y-93663000D01*
X127015979Y-93643315D01*
X126970224Y-93590511D01*
X126960280Y-93521353D01*
X126989305Y-93457797D01*
X126995337Y-93451319D01*
X129298487Y-91148170D01*
X131604114Y-88842543D01*
X131680775Y-88727811D01*
X131733580Y-88600328D01*
X131760500Y-88464993D01*
X131760500Y-88327006D01*
X131760500Y-77819499D01*
X131780185Y-77752460D01*
X131832989Y-77706705D01*
X131884500Y-77695499D01*
X132082871Y-77695499D01*
X132082872Y-77695499D01*
X132142483Y-77689091D01*
X132277331Y-77638796D01*
X132392546Y-77552546D01*
X132478796Y-77437331D01*
X132529091Y-77302483D01*
X132535500Y-77242873D01*
X132535499Y-75668499D01*
X132555184Y-75601461D01*
X132607987Y-75555706D01*
X132659499Y-75544500D01*
X134422481Y-75544500D01*
X134451921Y-75553144D01*
X134481908Y-75559668D01*
X134486923Y-75563422D01*
X134489520Y-75564185D01*
X134510162Y-75580819D01*
X134672358Y-75743015D01*
X134705843Y-75804338D01*
X134702611Y-75869004D01*
X134700832Y-75874480D01*
X134700831Y-75874483D01*
X134664500Y-76103870D01*
X134664500Y-76336129D01*
X134700831Y-76565514D01*
X134772601Y-76786400D01*
X134843652Y-76925843D01*
X134878039Y-76993331D01*
X135014551Y-77181224D01*
X135178776Y-77345449D01*
X135366669Y-77481961D01*
X135426185Y-77512286D01*
X135573599Y-77587398D01*
X135573601Y-77587398D01*
X135573604Y-77587400D01*
X135794486Y-77659169D01*
X135912668Y-77677886D01*
X136023871Y-77695500D01*
X136023876Y-77695500D01*
X136256129Y-77695500D01*
X136357502Y-77679443D01*
X136485514Y-77659169D01*
X136706396Y-77587400D01*
X136913331Y-77481961D01*
X137101224Y-77345449D01*
X137265449Y-77181224D01*
X137401961Y-76993331D01*
X137507400Y-76786396D01*
X137579169Y-76565514D01*
X137605894Y-76396777D01*
X137615500Y-76336129D01*
X137615500Y-76103909D01*
X139745000Y-76103909D01*
X139745000Y-76336090D01*
X139781318Y-76565393D01*
X139853065Y-76786205D01*
X139958465Y-76993064D01*
X140015238Y-77071207D01*
X140618958Y-76467487D01*
X140643978Y-76527890D01*
X140715112Y-76634351D01*
X140805649Y-76724888D01*
X140912110Y-76796022D01*
X140972510Y-76821041D01*
X140368791Y-77424759D01*
X140368791Y-77424760D01*
X140446935Y-77481534D01*
X140653794Y-77586934D01*
X140874606Y-77658681D01*
X141103910Y-77695000D01*
X141336090Y-77695000D01*
X141565393Y-77658681D01*
X141786205Y-77586934D01*
X141993071Y-77481530D01*
X142071207Y-77424762D01*
X142071208Y-77424760D01*
X141467488Y-76821041D01*
X141527890Y-76796022D01*
X141634351Y-76724888D01*
X141724888Y-76634351D01*
X141796022Y-76527890D01*
X141821041Y-76467489D01*
X142424760Y-77071208D01*
X142424762Y-77071207D01*
X142481530Y-76993071D01*
X142586934Y-76786205D01*
X142658681Y-76565393D01*
X142695000Y-76336090D01*
X142695000Y-76103909D01*
X142658681Y-75874606D01*
X142586934Y-75653794D01*
X142481534Y-75446935D01*
X142424760Y-75368791D01*
X142424759Y-75368791D01*
X141821041Y-75972510D01*
X141796022Y-75912110D01*
X141724888Y-75805649D01*
X141634351Y-75715112D01*
X141527890Y-75643978D01*
X141467487Y-75618957D01*
X142071207Y-75015238D01*
X141993064Y-74958465D01*
X141786205Y-74853065D01*
X141565393Y-74781318D01*
X141336090Y-74745000D01*
X141103910Y-74745000D01*
X140874606Y-74781318D01*
X140653794Y-74853065D01*
X140446925Y-74958470D01*
X140368791Y-75015237D01*
X140368791Y-75015238D01*
X140972511Y-75618958D01*
X140912110Y-75643978D01*
X140805649Y-75715112D01*
X140715112Y-75805649D01*
X140643978Y-75912110D01*
X140618958Y-75972511D01*
X140015238Y-75368791D01*
X140015237Y-75368791D01*
X139958470Y-75446925D01*
X139853065Y-75653794D01*
X139781318Y-75874606D01*
X139745000Y-76103909D01*
X137615500Y-76103909D01*
X137615500Y-76103870D01*
X137591004Y-75949211D01*
X137579169Y-75874486D01*
X137507400Y-75653604D01*
X137507398Y-75653601D01*
X137507398Y-75653599D01*
X137415967Y-75474157D01*
X137401961Y-75446669D01*
X137265449Y-75258776D01*
X137101224Y-75094551D01*
X136913331Y-74958039D01*
X136879869Y-74940989D01*
X136706400Y-74852601D01*
X136485514Y-74780831D01*
X136256129Y-74744500D01*
X136256124Y-74744500D01*
X136023876Y-74744500D01*
X136023871Y-74744500D01*
X135794483Y-74780831D01*
X135794480Y-74780832D01*
X135789004Y-74782611D01*
X135719163Y-74784600D01*
X135663015Y-74752358D01*
X135210546Y-74299888D01*
X135210545Y-74299887D01*
X135095807Y-74223222D01*
X134968332Y-74170421D01*
X134968322Y-74170418D01*
X134832996Y-74143500D01*
X134832994Y-74143500D01*
X134832993Y-74143500D01*
X129752994Y-74143500D01*
X129615006Y-74143500D01*
X129615004Y-74143500D01*
X129479677Y-74170418D01*
X129479667Y-74170421D01*
X129352192Y-74223222D01*
X129237454Y-74299887D01*
X127621615Y-75915726D01*
X127560292Y-75949211D01*
X127490600Y-75944227D01*
X127434667Y-75902355D01*
X127416003Y-75866363D01*
X127346934Y-75653794D01*
X127241534Y-75446935D01*
X127184760Y-75368791D01*
X127184759Y-75368791D01*
X126581041Y-75972511D01*
X126556022Y-75912110D01*
X126484888Y-75805649D01*
X126394351Y-75715112D01*
X126287890Y-75643978D01*
X126227487Y-75618957D01*
X126831207Y-75015238D01*
X126753064Y-74958465D01*
X126546205Y-74853065D01*
X126325393Y-74781318D01*
X126096090Y-74745000D01*
X125863910Y-74745000D01*
X125634606Y-74781318D01*
X125413794Y-74853065D01*
X125206925Y-74958470D01*
X125128791Y-75015237D01*
X125128791Y-75015238D01*
X125732511Y-75618958D01*
X125672110Y-75643978D01*
X125565649Y-75715112D01*
X125475112Y-75805649D01*
X125403978Y-75912110D01*
X125378958Y-75972511D01*
X124775238Y-75368791D01*
X124775237Y-75368791D01*
X124718470Y-75446925D01*
X124613065Y-75653794D01*
X124541318Y-75874606D01*
X124505000Y-76103909D01*
X124505000Y-76336090D01*
X124541318Y-76565393D01*
X124613065Y-76786205D01*
X124718465Y-76993064D01*
X124775238Y-77071207D01*
X125378958Y-76467487D01*
X125403978Y-76527890D01*
X125475112Y-76634351D01*
X125565649Y-76724888D01*
X125672110Y-76796022D01*
X125732511Y-76821041D01*
X125128791Y-77424759D01*
X125128791Y-77424760D01*
X125206935Y-77481534D01*
X125413794Y-77586934D01*
X125626363Y-77656003D01*
X125684039Y-77695441D01*
X125711237Y-77759799D01*
X125699322Y-77828646D01*
X125675726Y-77861615D01*
X121375887Y-82161454D01*
X121299222Y-82276192D01*
X121246421Y-82403667D01*
X121246418Y-82403677D01*
X121219500Y-82539004D01*
X121219500Y-93794083D01*
X121199815Y-93861122D01*
X121168387Y-93894399D01*
X121097484Y-93945914D01*
X121051606Y-93979246D01*
X120903242Y-94127610D01*
X120903238Y-94127615D01*
X120779916Y-94297354D01*
X120760484Y-94335492D01*
X120712510Y-94386287D01*
X120644689Y-94403082D01*
X120578554Y-94380544D01*
X120539516Y-94335492D01*
X120520083Y-94297354D01*
X120396761Y-94127615D01*
X120396757Y-94127610D01*
X120248393Y-93979246D01*
X120248391Y-93979244D01*
X120131613Y-93894399D01*
X120088949Y-93839071D01*
X120080500Y-93794083D01*
X120080500Y-87331005D01*
X120069577Y-87276097D01*
X120069577Y-87276095D01*
X120053581Y-87195679D01*
X120053580Y-87195672D01*
X120000775Y-87068189D01*
X119924114Y-86953457D01*
X119827639Y-86856982D01*
X119794156Y-86795662D01*
X119797393Y-86730977D01*
X119799169Y-86725514D01*
X119815316Y-86623562D01*
X119835500Y-86496129D01*
X119835500Y-86263870D01*
X119813537Y-86125202D01*
X119799169Y-86034486D01*
X119727400Y-85813604D01*
X119727398Y-85813601D01*
X119727398Y-85813599D01*
X119621960Y-85606668D01*
X119621266Y-85605713D01*
X119485449Y-85418776D01*
X119321224Y-85254551D01*
X119133331Y-85118039D01*
X118926400Y-85012601D01*
X118705514Y-84940831D01*
X118476129Y-84904500D01*
X118476124Y-84904500D01*
X118243876Y-84904500D01*
X118243871Y-84904500D01*
X118014485Y-84940831D01*
X117793599Y-85012601D01*
X117586668Y-85118039D01*
X117398773Y-85254553D01*
X117337181Y-85316146D01*
X117275858Y-85349631D01*
X117206166Y-85344647D01*
X117150233Y-85302775D01*
X117125816Y-85237311D01*
X117125500Y-85228465D01*
X117125500Y-84068519D01*
X117145185Y-84001480D01*
X117161819Y-83980838D01*
X123480112Y-77662545D01*
X123480114Y-77662543D01*
X123556775Y-77547811D01*
X123609580Y-77420328D01*
X123618389Y-77376041D01*
X123636500Y-77284995D01*
X123636500Y-75115007D01*
X123630867Y-75086687D01*
X123630867Y-75086684D01*
X123609581Y-74979677D01*
X123609580Y-74979676D01*
X123609580Y-74979672D01*
X123571383Y-74887455D01*
X123556778Y-74852195D01*
X123556771Y-74852182D01*
X123489102Y-74750909D01*
X123489099Y-74750905D01*
X123480114Y-74737457D01*
X122366546Y-73623888D01*
X122366545Y-73623887D01*
X122251807Y-73547222D01*
X122124332Y-73494421D01*
X122124322Y-73494418D01*
X121988996Y-73467500D01*
X121988994Y-73467500D01*
X121988993Y-73467500D01*
X117803007Y-73467500D01*
X117803003Y-73467500D01*
X117694590Y-73489065D01*
X117694589Y-73489065D01*
X117667681Y-73494418D01*
X117667671Y-73494420D01*
X117540190Y-73547224D01*
X117425454Y-73623887D01*
X116341160Y-74708181D01*
X116279837Y-74741666D01*
X116253479Y-74744500D01*
X114797129Y-74744500D01*
X114797123Y-74744501D01*
X114737516Y-74750908D01*
X114602671Y-74801202D01*
X114602664Y-74801206D01*
X114487455Y-74887452D01*
X114487452Y-74887455D01*
X114401206Y-75002664D01*
X114401202Y-75002671D01*
X114350908Y-75137517D01*
X114344501Y-75197116D01*
X114344501Y-75197123D01*
X114344500Y-75197135D01*
X114344500Y-77242870D01*
X114344501Y-77242876D01*
X114350908Y-77302483D01*
X114401202Y-77437328D01*
X114401206Y-77437335D01*
X114487452Y-77552544D01*
X114487455Y-77552547D01*
X114602664Y-77638793D01*
X114602671Y-77638797D01*
X114737517Y-77689091D01*
X114737516Y-77689091D01*
X114744444Y-77689835D01*
X114797127Y-77695500D01*
X116842872Y-77695499D01*
X116902483Y-77689091D01*
X117037331Y-77638796D01*
X117152546Y-77552546D01*
X117238796Y-77437331D01*
X117289091Y-77302483D01*
X117295500Y-77242873D01*
X117295499Y-75786518D01*
X117315184Y-75719480D01*
X117331818Y-75698838D01*
X118125838Y-74904819D01*
X118187161Y-74871334D01*
X118213519Y-74868500D01*
X119868276Y-74868500D01*
X119935315Y-74888185D01*
X119981070Y-74940989D01*
X119991014Y-75010147D01*
X119961989Y-75073703D01*
X119941163Y-75092817D01*
X119938776Y-75094550D01*
X119774553Y-75258773D01*
X119638039Y-75446668D01*
X119532601Y-75653599D01*
X119460831Y-75874485D01*
X119424500Y-76103870D01*
X119424500Y-76336129D01*
X119460831Y-76565514D01*
X119460831Y-76565517D01*
X119462608Y-76570984D01*
X119464603Y-76640825D01*
X119432358Y-76696983D01*
X115279887Y-80849454D01*
X115203222Y-80964192D01*
X115150421Y-81091667D01*
X115150418Y-81091677D01*
X115123500Y-81227004D01*
X115123500Y-87542480D01*
X115103815Y-87609519D01*
X115087181Y-87630161D01*
X111215888Y-91501453D01*
X111215887Y-91501454D01*
X111139223Y-91616192D01*
X111086421Y-91743668D01*
X111086418Y-91743678D01*
X111073500Y-91808623D01*
X111059500Y-91879004D01*
X111059500Y-93794083D01*
X111039815Y-93861122D01*
X111008387Y-93894399D01*
X110937484Y-93945914D01*
X110891606Y-93979246D01*
X110743242Y-94127610D01*
X110743238Y-94127615D01*
X110619916Y-94297354D01*
X110600484Y-94335492D01*
X110596409Y-94339806D01*
X110594776Y-94345514D01*
X110572692Y-94364918D01*
X110552510Y-94386287D01*
X110546748Y-94387713D01*
X110542289Y-94391632D01*
X110513220Y-94396016D01*
X110484689Y-94403082D01*
X110479070Y-94401167D01*
X110473200Y-94402053D01*
X110446373Y-94390024D01*
X110418554Y-94380544D01*
X110413465Y-94375269D01*
X110409446Y-94373467D01*
X110399263Y-94360547D01*
X110386150Y-94346954D01*
X110382523Y-94341395D01*
X110360084Y-94297356D01*
X110298353Y-94212390D01*
X110296650Y-94209780D01*
X110287438Y-94179192D01*
X110276702Y-94149101D01*
X110276526Y-94142956D01*
X110276503Y-94142878D01*
X110276522Y-94142809D01*
X110276500Y-94142022D01*
X110276500Y-86263870D01*
X111804500Y-86263870D01*
X111804500Y-86496129D01*
X111840831Y-86725514D01*
X111912601Y-86946400D01*
X111974658Y-87068192D01*
X112018039Y-87153331D01*
X112154551Y-87341224D01*
X112318776Y-87505449D01*
X112506669Y-87641961D01*
X112603394Y-87691245D01*
X112713599Y-87747398D01*
X112713601Y-87747398D01*
X112713604Y-87747400D01*
X112934486Y-87819169D01*
X113052668Y-87837886D01*
X113163871Y-87855500D01*
X113163876Y-87855500D01*
X113396129Y-87855500D01*
X113497502Y-87839443D01*
X113625514Y-87819169D01*
X113846396Y-87747400D01*
X114053331Y-87641961D01*
X114241224Y-87505449D01*
X114405449Y-87341224D01*
X114541961Y-87153331D01*
X114647400Y-86946396D01*
X114719169Y-86725514D01*
X114739443Y-86597502D01*
X114755500Y-86496129D01*
X114755500Y-86263870D01*
X114733537Y-86125202D01*
X114719169Y-86034486D01*
X114647400Y-85813604D01*
X114647398Y-85813601D01*
X114647398Y-85813599D01*
X114541960Y-85606668D01*
X114541266Y-85605713D01*
X114405449Y-85418776D01*
X114241224Y-85254551D01*
X114053331Y-85118039D01*
X113846400Y-85012601D01*
X113625514Y-84940831D01*
X113396129Y-84904500D01*
X113396124Y-84904500D01*
X113163876Y-84904500D01*
X113163871Y-84904500D01*
X112934485Y-84940831D01*
X112713599Y-85012601D01*
X112506668Y-85118039D01*
X112318773Y-85254553D01*
X112154553Y-85418773D01*
X112018039Y-85606668D01*
X111912601Y-85813599D01*
X111840831Y-86034485D01*
X111804500Y-86263870D01*
X110276500Y-86263870D01*
X110276500Y-85741046D01*
X110249581Y-85605719D01*
X110249580Y-85605718D01*
X110249580Y-85605714D01*
X110196775Y-85478231D01*
X110180226Y-85453463D01*
X110120114Y-85363499D01*
X110120111Y-85363495D01*
X109216503Y-84459887D01*
X109101765Y-84383222D01*
X108974290Y-84330421D01*
X108974280Y-84330418D01*
X108838954Y-84303500D01*
X108838952Y-84303500D01*
X108838951Y-84303500D01*
X104564994Y-84303500D01*
X104427006Y-84303500D01*
X104427004Y-84303500D01*
X104291677Y-84330418D01*
X104291667Y-84330421D01*
X104164192Y-84383222D01*
X104049454Y-84459887D01*
X103596983Y-84912358D01*
X103535660Y-84945843D01*
X103470984Y-84942608D01*
X103465515Y-84940831D01*
X103236129Y-84904500D01*
X103236124Y-84904500D01*
X103003876Y-84904500D01*
X103003871Y-84904500D01*
X102774485Y-84940831D01*
X102553599Y-85012601D01*
X102346668Y-85118039D01*
X102158773Y-85254553D01*
X101994553Y-85418773D01*
X101858039Y-85606668D01*
X101752601Y-85813599D01*
X101680831Y-86034485D01*
X101644500Y-86263870D01*
X101644500Y-86496129D01*
X101680831Y-86725514D01*
X101752601Y-86946400D01*
X101814658Y-87068192D01*
X101858039Y-87153331D01*
X101994551Y-87341224D01*
X102158776Y-87505449D01*
X102346669Y-87641961D01*
X102443394Y-87691245D01*
X102553599Y-87747398D01*
X102553601Y-87747398D01*
X102553604Y-87747400D01*
X102774486Y-87819169D01*
X102892668Y-87837886D01*
X103003871Y-87855500D01*
X103003876Y-87855500D01*
X103236129Y-87855500D01*
X103337502Y-87839443D01*
X103465514Y-87819169D01*
X103686396Y-87747400D01*
X103893331Y-87641961D01*
X104081224Y-87505449D01*
X104245449Y-87341224D01*
X104381961Y-87153331D01*
X104487400Y-86946396D01*
X104559169Y-86725514D01*
X104579443Y-86597502D01*
X104595500Y-86496129D01*
X104595500Y-86263870D01*
X104573537Y-86125202D01*
X104559169Y-86034486D01*
X104557391Y-86029013D01*
X104556956Y-86013799D01*
X104551638Y-85999540D01*
X104555979Y-85979584D01*
X104555396Y-85959172D01*
X104563483Y-85945085D01*
X104566490Y-85931267D01*
X104587634Y-85903021D01*
X104749839Y-85740816D01*
X104811162Y-85707334D01*
X104837519Y-85704500D01*
X106697379Y-85704500D01*
X106764418Y-85724185D01*
X106810173Y-85776989D01*
X106820117Y-85846147D01*
X106815311Y-85866812D01*
X106803549Y-85903013D01*
X106760830Y-86034485D01*
X106724500Y-86263870D01*
X106724500Y-86496129D01*
X106760831Y-86725514D01*
X106832601Y-86946400D01*
X106894658Y-87068192D01*
X106938039Y-87153331D01*
X107074551Y-87341224D01*
X107238776Y-87505449D01*
X107426669Y-87641961D01*
X107431790Y-87644570D01*
X107482587Y-87692540D01*
X107499500Y-87755057D01*
X107499500Y-90594480D01*
X107479815Y-90661519D01*
X107463181Y-90682161D01*
X104494553Y-93650788D01*
X104433230Y-93684273D01*
X104387474Y-93685580D01*
X104318837Y-93674709D01*
X104244909Y-93663000D01*
X104035091Y-93663000D01*
X103966012Y-93673941D01*
X103827853Y-93695823D01*
X103628308Y-93760658D01*
X103628305Y-93760659D01*
X103441352Y-93855918D01*
X103271615Y-93979238D01*
X103271610Y-93979242D01*
X103123242Y-94127610D01*
X103123238Y-94127615D01*
X102999916Y-94297354D01*
X102980484Y-94335492D01*
X102932510Y-94386287D01*
X102864689Y-94403082D01*
X102798554Y-94380544D01*
X102759516Y-94335492D01*
X102740083Y-94297354D01*
X102616761Y-94127615D01*
X102616757Y-94127610D01*
X102468389Y-93979242D01*
X102468384Y-93979238D01*
X102298647Y-93855918D01*
X102298646Y-93855917D01*
X102298644Y-93855916D01*
X102219545Y-93815613D01*
X102111694Y-93760659D01*
X102111691Y-93760658D01*
X101912146Y-93695823D01*
X101808527Y-93679411D01*
X101704909Y-93663000D01*
X101495091Y-93663000D01*
X101426012Y-93673941D01*
X101287853Y-93695823D01*
X101088308Y-93760658D01*
X101088305Y-93760659D01*
X100901352Y-93855918D01*
X100731615Y-93979238D01*
X100731610Y-93979242D01*
X100583242Y-94127610D01*
X100583238Y-94127615D01*
X100459916Y-94297354D01*
X100440484Y-94335492D01*
X100392510Y-94386287D01*
X100324689Y-94403082D01*
X100258554Y-94380544D01*
X100219516Y-94335492D01*
X100200083Y-94297354D01*
X100076761Y-94127615D01*
X100076757Y-94127610D01*
X99928389Y-93979242D01*
X99928384Y-93979238D01*
X99758647Y-93855918D01*
X99758646Y-93855917D01*
X99758644Y-93855916D01*
X99679545Y-93815613D01*
X99571694Y-93760659D01*
X99571691Y-93760658D01*
X99372146Y-93695823D01*
X99268527Y-93679411D01*
X99164909Y-93663000D01*
X98955091Y-93663000D01*
X98886012Y-93673941D01*
X98747853Y-93695823D01*
X98548308Y-93760658D01*
X98548305Y-93760659D01*
X98361352Y-93855918D01*
X98191615Y-93979238D01*
X98191610Y-93979242D01*
X98043242Y-94127610D01*
X98043238Y-94127615D01*
X97919916Y-94297354D01*
X97900484Y-94335492D01*
X97852510Y-94386287D01*
X97784689Y-94403082D01*
X97718554Y-94380544D01*
X97679516Y-94335492D01*
X97660083Y-94297354D01*
X97536761Y-94127615D01*
X97536757Y-94127610D01*
X97388389Y-93979242D01*
X97388384Y-93979238D01*
X97218647Y-93855918D01*
X97218646Y-93855917D01*
X97218644Y-93855916D01*
X97139545Y-93815613D01*
X97031694Y-93760659D01*
X97031691Y-93760658D01*
X96832146Y-93695823D01*
X96728527Y-93679411D01*
X96624909Y-93663000D01*
X96415091Y-93663000D01*
X96346012Y-93673941D01*
X96207853Y-93695823D01*
X96008308Y-93760658D01*
X96008305Y-93760659D01*
X95821352Y-93855918D01*
X95651615Y-93979238D01*
X95651610Y-93979242D01*
X95503242Y-94127610D01*
X95503238Y-94127615D01*
X95379916Y-94297354D01*
X95360484Y-94335492D01*
X95312510Y-94386287D01*
X95244689Y-94403082D01*
X95178554Y-94380544D01*
X95139516Y-94335492D01*
X95120083Y-94297354D01*
X94996761Y-94127615D01*
X94996757Y-94127610D01*
X94848389Y-93979242D01*
X94848384Y-93979238D01*
X94678647Y-93855918D01*
X94678646Y-93855917D01*
X94678644Y-93855916D01*
X94599545Y-93815613D01*
X94491694Y-93760659D01*
X94491691Y-93760658D01*
X94292146Y-93695823D01*
X94188527Y-93679411D01*
X94084909Y-93663000D01*
X93875091Y-93663000D01*
X93806012Y-93673941D01*
X93667853Y-93695823D01*
X93468308Y-93760658D01*
X93468305Y-93760659D01*
X93281350Y-93855918D01*
X93278377Y-93858079D01*
X93212569Y-93881553D01*
X93144516Y-93865723D01*
X93095826Y-93815613D01*
X93081500Y-93757755D01*
X93081500Y-89734451D01*
X93101185Y-89667412D01*
X93117814Y-89646775D01*
X96352819Y-86411769D01*
X96414142Y-86378285D01*
X96483834Y-86383269D01*
X96539767Y-86425141D01*
X96564184Y-86490605D01*
X96564282Y-86493368D01*
X96564499Y-86496127D01*
X96600831Y-86725514D01*
X96672601Y-86946400D01*
X96734658Y-87068192D01*
X96778039Y-87153331D01*
X96914551Y-87341224D01*
X97078776Y-87505449D01*
X97266669Y-87641961D01*
X97363394Y-87691245D01*
X97473599Y-87747398D01*
X97473601Y-87747398D01*
X97473604Y-87747400D01*
X97694486Y-87819169D01*
X97812668Y-87837886D01*
X97923871Y-87855500D01*
X97923876Y-87855500D01*
X98156129Y-87855500D01*
X98257502Y-87839443D01*
X98385514Y-87819169D01*
X98606396Y-87747400D01*
X98813331Y-87641961D01*
X99001224Y-87505449D01*
X99165449Y-87341224D01*
X99301961Y-87153331D01*
X99407400Y-86946396D01*
X99479169Y-86725514D01*
X99499443Y-86597502D01*
X99515500Y-86496129D01*
X99515500Y-86263870D01*
X99493537Y-86125202D01*
X99479169Y-86034486D01*
X99407400Y-85813604D01*
X99407398Y-85813601D01*
X99407398Y-85813599D01*
X99301960Y-85606668D01*
X99301266Y-85605713D01*
X99165449Y-85418776D01*
X99001224Y-85254551D01*
X98813331Y-85118039D01*
X98606400Y-85012601D01*
X98385514Y-84940831D01*
X98156127Y-84904499D01*
X98151274Y-84904118D01*
X98151429Y-84902144D01*
X98092412Y-84884815D01*
X98046657Y-84832011D01*
X98036713Y-84762853D01*
X98065738Y-84699297D01*
X98071770Y-84692819D01*
X101537585Y-81227004D01*
X105102961Y-77661627D01*
X105164282Y-77628144D01*
X105228957Y-77631378D01*
X105277791Y-77647246D01*
X105314485Y-77659169D01*
X105543871Y-77695500D01*
X105543876Y-77695500D01*
X105776129Y-77695500D01*
X105877502Y-77679443D01*
X106005514Y-77659169D01*
X106226396Y-77587400D01*
X106433331Y-77481961D01*
X106621224Y-77345449D01*
X106785449Y-77181224D01*
X106921961Y-76993331D01*
X107027400Y-76786396D01*
X107099169Y-76565514D01*
X107125894Y-76396777D01*
X107135500Y-76336129D01*
X107135500Y-76103909D01*
X109265000Y-76103909D01*
X109265000Y-76336090D01*
X109301318Y-76565393D01*
X109373065Y-76786205D01*
X109478465Y-76993064D01*
X109535238Y-77071207D01*
X110138958Y-76467487D01*
X110163978Y-76527890D01*
X110235112Y-76634351D01*
X110325649Y-76724888D01*
X110432110Y-76796022D01*
X110492510Y-76821041D01*
X109888791Y-77424759D01*
X109888791Y-77424760D01*
X109966935Y-77481534D01*
X110173794Y-77586934D01*
X110394606Y-77658681D01*
X110623910Y-77695000D01*
X110856090Y-77695000D01*
X111085393Y-77658681D01*
X111306205Y-77586934D01*
X111513071Y-77481530D01*
X111591207Y-77424762D01*
X111591208Y-77424760D01*
X110987488Y-76821041D01*
X111047890Y-76796022D01*
X111154351Y-76724888D01*
X111244888Y-76634351D01*
X111316022Y-76527890D01*
X111341041Y-76467489D01*
X111944760Y-77071208D01*
X111944762Y-77071207D01*
X112001530Y-76993071D01*
X112106934Y-76786205D01*
X112178681Y-76565393D01*
X112215000Y-76336090D01*
X112215000Y-76103909D01*
X112178681Y-75874606D01*
X112106934Y-75653794D01*
X112001534Y-75446935D01*
X111944760Y-75368791D01*
X111944759Y-75368791D01*
X111341041Y-75972510D01*
X111316022Y-75912110D01*
X111244888Y-75805649D01*
X111154351Y-75715112D01*
X111047890Y-75643978D01*
X110987487Y-75618957D01*
X111591207Y-75015238D01*
X111513064Y-74958465D01*
X111306205Y-74853065D01*
X111085393Y-74781318D01*
X110856090Y-74745000D01*
X110623910Y-74745000D01*
X110394606Y-74781318D01*
X110173794Y-74853065D01*
X109966925Y-74958470D01*
X109888791Y-75015237D01*
X109888791Y-75015238D01*
X110492511Y-75618958D01*
X110432110Y-75643978D01*
X110325649Y-75715112D01*
X110235112Y-75805649D01*
X110163978Y-75912110D01*
X110138958Y-75972511D01*
X109535238Y-75368791D01*
X109535237Y-75368791D01*
X109478470Y-75446925D01*
X109373065Y-75653794D01*
X109301318Y-75874606D01*
X109265000Y-76103909D01*
X107135500Y-76103909D01*
X107135500Y-76103870D01*
X107111004Y-75949211D01*
X107099169Y-75874486D01*
X107027400Y-75653604D01*
X107027398Y-75653601D01*
X107027398Y-75653599D01*
X106935967Y-75474157D01*
X106921961Y-75446669D01*
X106785449Y-75258776D01*
X106621224Y-75094551D01*
X106433331Y-74958039D01*
X106399869Y-74940989D01*
X106226400Y-74852601D01*
X106005514Y-74780831D01*
X105776129Y-74744500D01*
X105776124Y-74744500D01*
X105543876Y-74744500D01*
X105543871Y-74744500D01*
X105314485Y-74780831D01*
X105093599Y-74852601D01*
X104886668Y-74958039D01*
X104698773Y-75094553D01*
X104534553Y-75258773D01*
X104398039Y-75446668D01*
X104292601Y-75653599D01*
X104220831Y-75874485D01*
X104184500Y-76103870D01*
X104184500Y-76336129D01*
X104220831Y-76565514D01*
X104220832Y-76565521D01*
X104248619Y-76651041D01*
X104250614Y-76720882D01*
X104218369Y-76777039D01*
X94647181Y-86348228D01*
X94585858Y-86381713D01*
X94516166Y-86376729D01*
X94460233Y-86334857D01*
X94435816Y-86269393D01*
X94435717Y-86266633D01*
X94435500Y-86263872D01*
X94417711Y-86151560D01*
X94399169Y-86034486D01*
X94327400Y-85813604D01*
X94327398Y-85813601D01*
X94327398Y-85813599D01*
X94221960Y-85606668D01*
X94221266Y-85605713D01*
X94085449Y-85418776D01*
X93921224Y-85254551D01*
X93733331Y-85118039D01*
X93526400Y-85012601D01*
X93305514Y-84940831D01*
X93076127Y-84904499D01*
X93071274Y-84904118D01*
X93071429Y-84902144D01*
X93012412Y-84884815D01*
X92966657Y-84832011D01*
X92956713Y-84762853D01*
X92985738Y-84699297D01*
X92991770Y-84692819D01*
X96457583Y-81227007D01*
X99952772Y-77731818D01*
X100014095Y-77698333D01*
X100040453Y-77695499D01*
X101602871Y-77695499D01*
X101602872Y-77695499D01*
X101662483Y-77689091D01*
X101797331Y-77638796D01*
X101912546Y-77552546D01*
X101998796Y-77437331D01*
X102049091Y-77302483D01*
X102055500Y-77242873D01*
X102055499Y-75197128D01*
X102049091Y-75137517D01*
X102040695Y-75115007D01*
X101998797Y-75002671D01*
X101998793Y-75002664D01*
X101912547Y-74887455D01*
X101912544Y-74887452D01*
X101797335Y-74801206D01*
X101797328Y-74801202D01*
X101662482Y-74750908D01*
X101662483Y-74750908D01*
X101602883Y-74744501D01*
X101602881Y-74744500D01*
X101602873Y-74744500D01*
X101602864Y-74744500D01*
X99557129Y-74744500D01*
X99557123Y-74744501D01*
X99497516Y-74750908D01*
X99362671Y-74801202D01*
X99362664Y-74801206D01*
X99247455Y-74887452D01*
X99247452Y-74887455D01*
X99161206Y-75002664D01*
X99161202Y-75002671D01*
X99110908Y-75137517D01*
X99104501Y-75197116D01*
X99104501Y-75197123D01*
X99104500Y-75197135D01*
X99104500Y-76759546D01*
X99084815Y-76826585D01*
X99068181Y-76847227D01*
X91758260Y-84157148D01*
X91752835Y-84160110D01*
X91749361Y-84165224D01*
X91722528Y-84176659D01*
X91696937Y-84190633D01*
X91690772Y-84190192D01*
X91685085Y-84192616D01*
X91656331Y-84187729D01*
X91627245Y-84185649D01*
X91622296Y-84181944D01*
X91616203Y-84180909D01*
X91594656Y-84161252D01*
X91571312Y-84143777D01*
X91567992Y-84136928D01*
X91564585Y-84133820D01*
X91556858Y-84113958D01*
X91550748Y-84101351D01*
X91549732Y-84097534D01*
X91533463Y-84015739D01*
X91521255Y-83986267D01*
X91486311Y-83901904D01*
X91486309Y-83901901D01*
X91486307Y-83901897D01*
X91417858Y-83799457D01*
X91417855Y-83799453D01*
X91327637Y-83709235D01*
X91327606Y-83709206D01*
X86001819Y-78383419D01*
X85968334Y-78322096D01*
X85965500Y-78295738D01*
X85965500Y-77819499D01*
X85985185Y-77752460D01*
X86037989Y-77706705D01*
X86089500Y-77695499D01*
X86362871Y-77695499D01*
X86362872Y-77695499D01*
X86422483Y-77689091D01*
X86557331Y-77638796D01*
X86672546Y-77552546D01*
X86758796Y-77437331D01*
X86809091Y-77302483D01*
X86815500Y-77242873D01*
X86815499Y-75425499D01*
X86835184Y-75358461D01*
X86887987Y-75312706D01*
X86939499Y-75301500D01*
X88565548Y-75301500D01*
X88632587Y-75321185D01*
X88653229Y-75337819D01*
X88978369Y-75662959D01*
X89011854Y-75724282D01*
X89008620Y-75788956D01*
X88980831Y-75874485D01*
X88944500Y-76103870D01*
X88944500Y-76336129D01*
X88980831Y-76565514D01*
X89052601Y-76786400D01*
X89123652Y-76925843D01*
X89158039Y-76993331D01*
X89294551Y-77181224D01*
X89458776Y-77345449D01*
X89646669Y-77481961D01*
X89706185Y-77512286D01*
X89853599Y-77587398D01*
X89853601Y-77587398D01*
X89853604Y-77587400D01*
X90074486Y-77659169D01*
X90192668Y-77677886D01*
X90303871Y-77695500D01*
X90303876Y-77695500D01*
X90536129Y-77695500D01*
X90637502Y-77679443D01*
X90765514Y-77659169D01*
X90986396Y-77587400D01*
X91193331Y-77481961D01*
X91381224Y-77345449D01*
X91545449Y-77181224D01*
X91681961Y-76993331D01*
X91787400Y-76786396D01*
X91859169Y-76565514D01*
X91885894Y-76396777D01*
X91895500Y-76336129D01*
X91895500Y-76103909D01*
X94025000Y-76103909D01*
X94025000Y-76336090D01*
X94061318Y-76565393D01*
X94133065Y-76786205D01*
X94238465Y-76993064D01*
X94295238Y-77071207D01*
X94898958Y-76467487D01*
X94923978Y-76527890D01*
X94995112Y-76634351D01*
X95085649Y-76724888D01*
X95192110Y-76796022D01*
X95252510Y-76821041D01*
X94648791Y-77424759D01*
X94648791Y-77424760D01*
X94726935Y-77481534D01*
X94933794Y-77586934D01*
X95154606Y-77658681D01*
X95383910Y-77695000D01*
X95616090Y-77695000D01*
X95845393Y-77658681D01*
X96066205Y-77586934D01*
X96273071Y-77481530D01*
X96351207Y-77424762D01*
X96351208Y-77424760D01*
X95747488Y-76821041D01*
X95807890Y-76796022D01*
X95914351Y-76724888D01*
X96004888Y-76634351D01*
X96076022Y-76527890D01*
X96101041Y-76467489D01*
X96704760Y-77071208D01*
X96704762Y-77071207D01*
X96761530Y-76993071D01*
X96866934Y-76786205D01*
X96938681Y-76565393D01*
X96975000Y-76336090D01*
X96975000Y-76103909D01*
X96938681Y-75874606D01*
X96866934Y-75653794D01*
X96761534Y-75446935D01*
X96704760Y-75368791D01*
X96704759Y-75368791D01*
X96101041Y-75972510D01*
X96076022Y-75912110D01*
X96004888Y-75805649D01*
X95914351Y-75715112D01*
X95807890Y-75643978D01*
X95747487Y-75618957D01*
X96351207Y-75015238D01*
X96273064Y-74958465D01*
X96066205Y-74853065D01*
X95845393Y-74781318D01*
X95616090Y-74745000D01*
X95383910Y-74745000D01*
X95154606Y-74781318D01*
X94933794Y-74853065D01*
X94726925Y-74958470D01*
X94648791Y-75015237D01*
X94648791Y-75015238D01*
X95252511Y-75618958D01*
X95192110Y-75643978D01*
X95085649Y-75715112D01*
X94995112Y-75805649D01*
X94923978Y-75912110D01*
X94898958Y-75972511D01*
X94295238Y-75368791D01*
X94295237Y-75368791D01*
X94238470Y-75446925D01*
X94133065Y-75653794D01*
X94061318Y-75874606D01*
X94025000Y-76103909D01*
X91895500Y-76103909D01*
X91895500Y-76103870D01*
X91871004Y-75949211D01*
X91859169Y-75874486D01*
X91787400Y-75653604D01*
X91787398Y-75653601D01*
X91787398Y-75653599D01*
X91695967Y-75474157D01*
X91681961Y-75446669D01*
X91545449Y-75258776D01*
X91381224Y-75094551D01*
X91193331Y-74958039D01*
X91159869Y-74940989D01*
X90986400Y-74852601D01*
X90765514Y-74780831D01*
X90536129Y-74744500D01*
X90536124Y-74744500D01*
X90303876Y-74744500D01*
X90303871Y-74744500D01*
X90074485Y-74780831D01*
X89988956Y-74808620D01*
X89919115Y-74810614D01*
X89862959Y-74778369D01*
X89369150Y-74284560D01*
X89361860Y-74277270D01*
X89361858Y-74277267D01*
X89274733Y-74190142D01*
X89223509Y-74155915D01*
X89172286Y-74121688D01*
X89172283Y-74121686D01*
X89172280Y-74121685D01*
X89098603Y-74091168D01*
X89098601Y-74091167D01*
X89091792Y-74088347D01*
X89058452Y-74074537D01*
X88998029Y-74062518D01*
X88993306Y-74061578D01*
X88993304Y-74061578D01*
X88937610Y-74050500D01*
X88937607Y-74050500D01*
X88937606Y-74050500D01*
X83373606Y-74050500D01*
X83250394Y-74050500D01*
X83250389Y-74050500D01*
X83129555Y-74074535D01*
X83129545Y-74074538D01*
X83015716Y-74121687D01*
X83015707Y-74121692D01*
X82913267Y-74190141D01*
X82913263Y-74190144D01*
X82826144Y-74277263D01*
X82826141Y-74277267D01*
X82757692Y-74379707D01*
X82757687Y-74379716D01*
X82710538Y-74493545D01*
X82710535Y-74493555D01*
X82686500Y-74614389D01*
X82686500Y-74614394D01*
X82686500Y-77154393D01*
X82686500Y-77277607D01*
X82691448Y-77302483D01*
X82710537Y-77398452D01*
X82724347Y-77431792D01*
X82727591Y-77439624D01*
X82727593Y-77439631D01*
X82757685Y-77512281D01*
X82757690Y-77512290D01*
X82781426Y-77547812D01*
X82781427Y-77547813D01*
X82826141Y-77614732D01*
X82826144Y-77614736D01*
X82917586Y-77706178D01*
X82917608Y-77706198D01*
X89819181Y-84607771D01*
X89852666Y-84669094D01*
X89855500Y-84695452D01*
X89855500Y-85626719D01*
X89879535Y-85747552D01*
X89879540Y-85747569D01*
X89926685Y-85861389D01*
X89926688Y-85861394D01*
X89948571Y-85894143D01*
X89995142Y-85963841D01*
X90082267Y-86050966D01*
X90082270Y-86050968D01*
X90090093Y-86058791D01*
X90095181Y-86063879D01*
X90128666Y-86125202D01*
X90131500Y-86151560D01*
X90131500Y-87354117D01*
X90149283Y-87443523D01*
X90143054Y-87513114D01*
X90100191Y-87568291D01*
X90034301Y-87591535D01*
X89966304Y-87575467D01*
X89939986Y-87555396D01*
X89321628Y-86937038D01*
X89288144Y-86875716D01*
X89291378Y-86811042D01*
X89319169Y-86725514D01*
X89338985Y-86600392D01*
X89355500Y-86496129D01*
X89355500Y-86263870D01*
X89333537Y-86125202D01*
X89319169Y-86034486D01*
X89247400Y-85813604D01*
X89247398Y-85813601D01*
X89247398Y-85813599D01*
X89141960Y-85606668D01*
X89141266Y-85605713D01*
X89005449Y-85418776D01*
X88841224Y-85254551D01*
X88653331Y-85118039D01*
X88446400Y-85012601D01*
X88225514Y-84940831D01*
X87996129Y-84904500D01*
X87996124Y-84904500D01*
X87763876Y-84904500D01*
X87763871Y-84904500D01*
X87534485Y-84940831D01*
X87313599Y-85012601D01*
X87106668Y-85118039D01*
X86918773Y-85254553D01*
X86754553Y-85418773D01*
X86618039Y-85606668D01*
X86512601Y-85813599D01*
X86440831Y-86034485D01*
X86404500Y-86263870D01*
X86404500Y-86496129D01*
X86440831Y-86725514D01*
X86512601Y-86946400D01*
X86574658Y-87068192D01*
X86618039Y-87153331D01*
X86754551Y-87341224D01*
X86918776Y-87505449D01*
X87106669Y-87641961D01*
X87203394Y-87691245D01*
X87313599Y-87747398D01*
X87313601Y-87747398D01*
X87313604Y-87747400D01*
X87534486Y-87819169D01*
X87652668Y-87837886D01*
X87763871Y-87855500D01*
X87763876Y-87855500D01*
X87996129Y-87855500D01*
X88100392Y-87838985D01*
X88225514Y-87819169D01*
X88311042Y-87791378D01*
X88380880Y-87789384D01*
X88437039Y-87821629D01*
X89819181Y-89203771D01*
X89852666Y-89265094D01*
X89855500Y-89291452D01*
X89855500Y-95945974D01*
X89835815Y-96013013D01*
X89783011Y-96058768D01*
X89713853Y-96068712D01*
X89705849Y-96066935D01*
X89705809Y-96067137D01*
X89506543Y-96027500D01*
X89506541Y-96027500D01*
X89309459Y-96027500D01*
X89309457Y-96027500D01*
X89116170Y-96065947D01*
X89116169Y-96065948D01*
X89116168Y-96065948D01*
X89116165Y-96065949D01*
X89055952Y-96090890D01*
X88986482Y-96098358D01*
X88924003Y-96067082D01*
X88888351Y-96006993D01*
X88884500Y-95976328D01*
X88884500Y-95913456D01*
X88846052Y-95720170D01*
X88846051Y-95720169D01*
X88846051Y-95720165D01*
X88835480Y-95694644D01*
X88770635Y-95538092D01*
X88770628Y-95538079D01*
X88661139Y-95374218D01*
X88661136Y-95374214D01*
X88624603Y-95337682D01*
X88591117Y-95276360D01*
X88596101Y-95206668D01*
X88624603Y-95162318D01*
X88661136Y-95125785D01*
X88661139Y-95125782D01*
X88770632Y-94961914D01*
X88846051Y-94779835D01*
X88869929Y-94659793D01*
X88884500Y-94586543D01*
X88884500Y-94389456D01*
X88846052Y-94196170D01*
X88846051Y-94196169D01*
X88846051Y-94196165D01*
X88823979Y-94142878D01*
X88770635Y-94014092D01*
X88770628Y-94014079D01*
X88661139Y-93850218D01*
X88661136Y-93850214D01*
X88521785Y-93710863D01*
X88521781Y-93710860D01*
X88357920Y-93601371D01*
X88357907Y-93601364D01*
X88175839Y-93525950D01*
X88175829Y-93525947D01*
X87982543Y-93487500D01*
X87982541Y-93487500D01*
X87785459Y-93487500D01*
X87785457Y-93487500D01*
X87592170Y-93525947D01*
X87592160Y-93525950D01*
X87410092Y-93601364D01*
X87410079Y-93601371D01*
X87246218Y-93710860D01*
X87246214Y-93710863D01*
X87106861Y-93850216D01*
X87079600Y-93891015D01*
X87025987Y-93935819D01*
X86956662Y-93944525D01*
X86893635Y-93914369D01*
X86856917Y-93854925D01*
X86852499Y-93822127D01*
X86852499Y-92668128D01*
X86846091Y-92608517D01*
X86837455Y-92585364D01*
X86795797Y-92473671D01*
X86795793Y-92473664D01*
X86709547Y-92358455D01*
X86709544Y-92358452D01*
X86617609Y-92289629D01*
X86575738Y-92233695D01*
X86570754Y-92164004D01*
X86604240Y-92102681D01*
X86629139Y-92077782D01*
X86738632Y-91913914D01*
X86814051Y-91731835D01*
X86837055Y-91616189D01*
X86852500Y-91538543D01*
X86852500Y-91341456D01*
X86814052Y-91148170D01*
X86814051Y-91148169D01*
X86814051Y-91148165D01*
X86810805Y-91140328D01*
X86738635Y-90966092D01*
X86738628Y-90966079D01*
X86629139Y-90802218D01*
X86629136Y-90802214D01*
X86489785Y-90662863D01*
X86489781Y-90662860D01*
X86325920Y-90553371D01*
X86325907Y-90553364D01*
X86143839Y-90477950D01*
X86143829Y-90477947D01*
X85950543Y-90439500D01*
X85950541Y-90439500D01*
X85753459Y-90439500D01*
X85753457Y-90439500D01*
X85560170Y-90477947D01*
X85560160Y-90477950D01*
X85378092Y-90553364D01*
X85378079Y-90553371D01*
X85214218Y-90662860D01*
X85214214Y-90662863D01*
X85074863Y-90802214D01*
X85074860Y-90802218D01*
X84965371Y-90966079D01*
X84965364Y-90966092D01*
X84889950Y-91148160D01*
X84889947Y-91148170D01*
X84851500Y-91341456D01*
X84851500Y-91341459D01*
X84851500Y-91538541D01*
X84851500Y-91538543D01*
X84851499Y-91538543D01*
X84889947Y-91731829D01*
X84889950Y-91731839D01*
X84965364Y-91913907D01*
X84965371Y-91913920D01*
X85037995Y-92022609D01*
X85058873Y-92089287D01*
X85040388Y-92156667D01*
X84988410Y-92203357D01*
X84934893Y-92215500D01*
X84004129Y-92215500D01*
X84004123Y-92215501D01*
X83944516Y-92221908D01*
X83809671Y-92272202D01*
X83809664Y-92272206D01*
X83694455Y-92358452D01*
X83694452Y-92358455D01*
X83608206Y-92473664D01*
X83608203Y-92473669D01*
X83563728Y-92592913D01*
X83521856Y-92648846D01*
X83456392Y-92673263D01*
X83388119Y-92658411D01*
X83378655Y-92652681D01*
X83277920Y-92585371D01*
X83277907Y-92585364D01*
X83095839Y-92509950D01*
X83095829Y-92509947D01*
X82902543Y-92471500D01*
X82902541Y-92471500D01*
X82705459Y-92471500D01*
X82705457Y-92471500D01*
X82512170Y-92509947D01*
X82512160Y-92509950D01*
X82330092Y-92585364D01*
X82330079Y-92585371D01*
X82166218Y-92694860D01*
X82166214Y-92694863D01*
X82026863Y-92834214D01*
X82026860Y-92834218D01*
X81917371Y-92998079D01*
X81917364Y-92998092D01*
X81841950Y-93180160D01*
X81841947Y-93180170D01*
X81803500Y-93373456D01*
X81803500Y-93373459D01*
X81803500Y-93570541D01*
X81803500Y-93570543D01*
X81803499Y-93570543D01*
X81841947Y-93763829D01*
X81841950Y-93763839D01*
X81917364Y-93945907D01*
X81917371Y-93945920D01*
X82026860Y-94109781D01*
X82026863Y-94109785D01*
X82166214Y-94249136D01*
X82166218Y-94249139D01*
X82330079Y-94358628D01*
X82330092Y-94358635D01*
X82512160Y-94434049D01*
X82512165Y-94434051D01*
X82512169Y-94434051D01*
X82512170Y-94434052D01*
X82705456Y-94472500D01*
X82705459Y-94472500D01*
X82902543Y-94472500D01*
X83060900Y-94441000D01*
X83095835Y-94434051D01*
X83277914Y-94358632D01*
X83382241Y-94288922D01*
X83448914Y-94268046D01*
X83516295Y-94286530D01*
X83562985Y-94338508D01*
X83567311Y-94348693D01*
X83608202Y-94458328D01*
X83608206Y-94458335D01*
X83694452Y-94573544D01*
X83694455Y-94573547D01*
X83809664Y-94659793D01*
X83809671Y-94659797D01*
X83944517Y-94710091D01*
X83944516Y-94710091D01*
X83951444Y-94710835D01*
X84004127Y-94716500D01*
X85027500Y-94716499D01*
X85094539Y-94736183D01*
X85140294Y-94788987D01*
X85151500Y-94840499D01*
X85151500Y-96161500D01*
X85131815Y-96228539D01*
X85079011Y-96274294D01*
X85027500Y-96285500D01*
X84004129Y-96285500D01*
X84004123Y-96285501D01*
X83944516Y-96291908D01*
X83809671Y-96342202D01*
X83809664Y-96342206D01*
X83694455Y-96428452D01*
X83694452Y-96428455D01*
X83608206Y-96543664D01*
X83608202Y-96543671D01*
X83557910Y-96678513D01*
X83557909Y-96678517D01*
X83552937Y-96724757D01*
X83526201Y-96789306D01*
X83468809Y-96829154D01*
X83429649Y-96835500D01*
X81719005Y-96835500D01*
X81583677Y-96862418D01*
X81583667Y-96862421D01*
X81471952Y-96908695D01*
X81402483Y-96916164D01*
X81340004Y-96884888D01*
X81304352Y-96824799D01*
X81300500Y-96794134D01*
X81300500Y-71424500D01*
X81320185Y-71357461D01*
X81372989Y-71311706D01*
X81424500Y-71300500D01*
X149575500Y-71300500D01*
X149642539Y-71320185D01*
G37*
G04 #@! TD.AperFunction*
G04 #@! TA.AperFunction,Conductor*
G36*
X108794834Y-91434337D02*
G01*
X108850767Y-91476209D01*
X108875184Y-91541673D01*
X108875500Y-91550519D01*
X108875500Y-93616244D01*
X108855815Y-93683283D01*
X108803011Y-93729038D01*
X108789824Y-93734172D01*
X108759874Y-93743904D01*
X108708301Y-93760661D01*
X108521352Y-93855918D01*
X108351615Y-93979238D01*
X108351610Y-93979242D01*
X108203242Y-94127610D01*
X108203238Y-94127615D01*
X108079916Y-94297354D01*
X108060203Y-94336043D01*
X108012228Y-94386839D01*
X107944407Y-94403633D01*
X107878272Y-94381095D01*
X107839234Y-94336042D01*
X107819653Y-94297614D01*
X107782742Y-94246810D01*
X107782741Y-94246809D01*
X107207870Y-94821681D01*
X107197178Y-94781778D01*
X107124110Y-94655222D01*
X107020778Y-94551890D01*
X106894222Y-94478822D01*
X106854315Y-94468129D01*
X107429188Y-93893257D01*
X107378378Y-93856342D01*
X107191506Y-93761125D01*
X106992028Y-93696310D01*
X106784869Y-93663500D01*
X106762517Y-93663500D01*
X106695478Y-93643815D01*
X106649723Y-93591011D01*
X106639779Y-93521853D01*
X106668804Y-93458297D01*
X106674817Y-93451838D01*
X108663819Y-91462838D01*
X108725142Y-91429353D01*
X108794834Y-91434337D01*
G37*
G04 #@! TD.AperFunction*
M02*
