M48
; DRILL file {KiCad 9.0.1} date 2025-05-26T13:20:41+0200
; FORMAT={-:-/ absolute / metric / decimal}
; #@! TF.CreationDate,2025-05-26T13:20:41+02:00
; #@! TF.GenerationSoftware,Kicad,Pcbnew,9.0.1
; #@! TF.FileFunction,Plated,1,2,PTH
FMAT,2
METRIC
; #@! TA.AperFunction,Plated,PTH,ViaDrill
T1C0.350
; #@! TA.AperFunction,Plated,PTH,ViaDrill
T2C0.450
; #@! TA.AperFunction,Plated,PTH,ComponentDrill
T3C0.800
; #@! TA.AperFunction,Plated,PTH,ComponentDrill
T4C0.850
; #@! TA.AperFunction,Plated,PTH,ComponentDrill
T5C0.890
; #@! TA.AperFunction,Plated,PTH,ComponentDrill
T6C0.900
; #@! TA.AperFunction,Plated,PTH,ComponentDrill
T7C1.000
; #@! TA.AperFunction,Plated,PTH,ComponentDrill
T8C1.110
; #@! TA.AperFunction,Plated,PTH,ComponentDrill
T9C1.300
; #@! TA.AperFunction,Plated,PTH,ComponentDrill
T10C1.570
%
G90
G05
T1
X113.284Y-130.048
X113.284Y-131.572
X142.748Y-111.252
T2
X82.804Y-93.472
X82.804Y-101.6
X82.804Y-109.728
X82.804Y-117.856
X85.852Y-91.44
X87.884Y-94.488
X87.884Y-96.012
X87.884Y-121.92
X89.408Y-97.028
X89.5Y-118.0
X90.0Y-134.5
X91.0Y-124.0
X91.948Y-128.016
X93.98Y-105.156
X93.98Y-116.84
X94.488Y-107.188
X103.5Y-128.5
X106.5Y-133.5
T3
X106.172Y-142.28
X106.172Y-147.28
X110.236Y-140.462
X110.236Y-148.082
X117.347Y-131.652
X117.347Y-136.652
X129.031Y-131.652
X129.031Y-136.652
X133.35Y-132.08
X137.24Y-138.176
X137.668Y-142.24
X137.668Y-149.86
X140.97Y-132.08
X142.24Y-138.176
X142.24Y-142.24
X142.24Y-149.86
X146.812Y-142.24
X146.812Y-149.86
T4
X121.919Y-135.208
X123.189Y-133.938
X124.459Y-135.208
T5
X120.396Y-145.796
X121.411Y-147.576
X122.426Y-145.796
X123.441Y-147.576
X124.461Y-145.796
X125.476Y-147.576
X126.491Y-145.796
X127.506Y-147.576
T6
X107.696Y-151.892
X107.696Y-154.432
T7
X134.112Y-125.984
X136.652Y-125.984
X139.192Y-125.984
X141.732Y-125.984
X144.272Y-125.984
X146.812Y-125.984
T8
X93.98Y-94.996
X93.98Y-120.396
X96.52Y-94.996
X96.52Y-120.396
X99.06Y-94.996
X99.06Y-120.396
X101.6Y-94.996
X101.6Y-120.396
X104.14Y-94.996
X104.14Y-120.396
X106.68Y-94.996
X106.68Y-120.396
X109.22Y-94.996
X109.22Y-120.396
X111.76Y-94.996
X111.76Y-120.396
X114.3Y-94.996
X114.3Y-120.396
X116.84Y-94.996
X116.84Y-120.396
X119.38Y-94.996
X119.38Y-120.396
X121.92Y-94.996
X121.92Y-120.396
X124.46Y-94.996
X124.46Y-120.396
X127.0Y-94.996
X127.0Y-120.396
X129.54Y-94.996
X129.54Y-120.396
X132.08Y-94.996
X132.08Y-120.396
X134.62Y-94.996
X134.62Y-120.396
X137.16Y-94.996
X137.16Y-120.396
X139.7Y-94.996
X139.7Y-120.396
T9
X85.34Y-76.22
X87.88Y-86.38
X90.42Y-76.22
X92.96Y-86.38
X95.5Y-76.22
X98.04Y-86.38
X100.58Y-76.22
X103.12Y-86.38
X105.66Y-76.22
X108.2Y-86.38
X110.74Y-76.22
X113.28Y-86.38
X115.82Y-76.22
X118.36Y-86.38
X120.9Y-76.22
X123.44Y-86.38
X125.98Y-76.22
X128.52Y-86.38
X131.06Y-76.22
X133.6Y-86.38
X136.14Y-76.22
X138.68Y-86.38
X141.22Y-76.22
X143.76Y-86.38
T10
X115.851Y-146.686
X132.051Y-146.686
M30
