G04 #@! TF.GenerationSoftware,KiCad,Pcbnew,9.0.1*
G04 #@! TF.CreationDate,2025-11-10T23:51:25+01:00*
G04 #@! TF.ProjectId,CAN Tram Adapter,43414e20-5472-4616-9d20-416461707465,rev?*
G04 #@! TF.SameCoordinates,Original*
G04 #@! TF.FileFunction,Soldermask,Top*
G04 #@! TF.FilePolarity,Negative*
%FSLAX46Y46*%
G04 Gerber Fmt 4.6, Leading zero omitted, Abs format (unit mm)*
G04 Created by KiCad (PCBNEW 9.0.1) date 2025-11-10 23:51:25*
%MOMM*%
%LPD*%
G01*
G04 APERTURE LIST*
G04 Aperture macros list*
%AMRoundRect*
0 Rectangle with rounded corners*
0 $1 Rounding radius*
0 $2 $3 $4 $5 $6 $7 $8 $9 X,Y pos of 4 corners*
0 Add a 4 corners polygon primitive as box body*
4,1,4,$2,$3,$4,$5,$6,$7,$8,$9,$2,$3,0*
0 Add four circle primitives for the rounded corners*
1,1,$1+$1,$2,$3*
1,1,$1+$1,$4,$5*
1,1,$1+$1,$6,$7*
1,1,$1+$1,$8,$9*
0 Add four rect primitives between the rounded corners*
20,1,$1+$1,$2,$3,$4,$5,0*
20,1,$1+$1,$4,$5,$6,$7,0*
20,1,$1+$1,$6,$7,$8,$9,0*
20,1,$1+$1,$8,$9,$2,$3,0*%
G04 Aperture macros list end*
%ADD10R,1.700000X1.700000*%
%ADD11C,1.700000*%
%ADD12C,3.200000*%
%ADD13C,2.550000*%
%ADD14C,1.400000*%
%ADD15R,1.400000X1.400000*%
%ADD16C,1.800000*%
%ADD17C,1.000000*%
%ADD18C,1.600000*%
%ADD19O,1.600000X1.600000*%
%ADD20RoundRect,0.250000X-1.050000X-1.050000X1.050000X-1.050000X1.050000X1.050000X-1.050000X1.050000X0*%
%ADD21C,2.600000*%
%ADD22R,1.800000X1.800000*%
G04 APERTURE END LIST*
D10*
X83220000Y-89500000D03*
D11*
X85760000Y-89500000D03*
X88300000Y-89500000D03*
X90840000Y-89500000D03*
X93380000Y-89500000D03*
X95920000Y-89500000D03*
X98460000Y-89500000D03*
X101000000Y-89500000D03*
D12*
X114450000Y-78350000D03*
X103020000Y-78350000D03*
D13*
X116610000Y-81400000D03*
X100860000Y-81400000D03*
D14*
X113180000Y-69460000D03*
X111910000Y-72000000D03*
X110640000Y-69460000D03*
X109370000Y-72000000D03*
X108100000Y-69460000D03*
X106830000Y-72000000D03*
X105560000Y-69460000D03*
D15*
X104290000Y-72000000D03*
D12*
X93770000Y-78350000D03*
X82340000Y-78350000D03*
D13*
X95930000Y-81400000D03*
X80180000Y-81400000D03*
D14*
X92500000Y-69460000D03*
X91230000Y-72000000D03*
X89960000Y-69460000D03*
X88690000Y-72000000D03*
X87420000Y-69460000D03*
X86150000Y-72000000D03*
X84880000Y-69460000D03*
D15*
X83610000Y-72000000D03*
D16*
X128355000Y-75135000D03*
X125805000Y-75135000D03*
X125805000Y-71935000D03*
X128355000Y-71935000D03*
D17*
X133125000Y-74645000D03*
X121085000Y-74645000D03*
D18*
X115460000Y-88500000D03*
D19*
X118000000Y-88500000D03*
D20*
X123000000Y-87500000D03*
D21*
X128080000Y-87500000D03*
D22*
X108960000Y-89500000D03*
D16*
X111500000Y-89500000D03*
M02*
