G04 #@! TF.GenerationSoftware,KiCad,Pcbnew,9.0.1*
G04 #@! TF.CreationDate,2025-11-10T23:51:25+01:00*
G04 #@! TF.ProjectId,CAN Tram Adapter,43414e20-5472-4616-9d20-416461707465,rev?*
G04 #@! TF.SameCoordinates,Original*
G04 #@! TF.FileFunction,Copper,L1,Top*
G04 #@! TF.FilePolarity,Positive*
%FSLAX46Y46*%
G04 Gerber Fmt 4.6, Leading zero omitted, Abs format (unit mm)*
G04 Created by KiCad (PCBNEW 9.0.1) date 2025-11-10 23:51:25*
%MOMM*%
%LPD*%
G01*
G04 APERTURE LIST*
G04 Aperture macros list*
%AMRoundRect*
0 Rectangle with rounded corners*
0 $1 Rounding radius*
0 $2 $3 $4 $5 $6 $7 $8 $9 X,Y pos of 4 corners*
0 Add a 4 corners polygon primitive as box body*
4,1,4,$2,$3,$4,$5,$6,$7,$8,$9,$2,$3,0*
0 Add four circle primitives for the rounded corners*
1,1,$1+$1,$2,$3*
1,1,$1+$1,$4,$5*
1,1,$1+$1,$6,$7*
1,1,$1+$1,$8,$9*
0 Add four rect primitives between the rounded corners*
20,1,$1+$1,$2,$3,$4,$5,0*
20,1,$1+$1,$4,$5,$6,$7,0*
20,1,$1+$1,$6,$7,$8,$9,0*
20,1,$1+$1,$8,$9,$2,$3,0*%
G04 Aperture macros list end*
G04 #@! TA.AperFunction,ComponentPad*
%ADD10R,1.700000X1.700000*%
G04 #@! TD*
G04 #@! TA.AperFunction,ComponentPad*
%ADD11C,1.700000*%
G04 #@! TD*
G04 #@! TA.AperFunction,ComponentPad*
%ADD12C,2.550000*%
G04 #@! TD*
G04 #@! TA.AperFunction,ComponentPad*
%ADD13C,1.400000*%
G04 #@! TD*
G04 #@! TA.AperFunction,ComponentPad*
%ADD14R,1.400000X1.400000*%
G04 #@! TD*
G04 #@! TA.AperFunction,ComponentPad*
%ADD15C,1.800000*%
G04 #@! TD*
G04 #@! TA.AperFunction,ComponentPad*
%ADD16C,1.600000*%
G04 #@! TD*
G04 #@! TA.AperFunction,ComponentPad*
%ADD17O,1.600000X1.600000*%
G04 #@! TD*
G04 #@! TA.AperFunction,ComponentPad*
%ADD18RoundRect,0.250000X-1.050000X-1.050000X1.050000X-1.050000X1.050000X1.050000X-1.050000X1.050000X0*%
G04 #@! TD*
G04 #@! TA.AperFunction,ComponentPad*
%ADD19C,2.600000*%
G04 #@! TD*
G04 #@! TA.AperFunction,ComponentPad*
%ADD20R,1.800000X1.800000*%
G04 #@! TD*
G04 #@! TA.AperFunction,Conductor*
%ADD21C,0.400000*%
G04 #@! TD*
G04 #@! TA.AperFunction,Conductor*
%ADD22C,0.200000*%
G04 #@! TD*
G04 APERTURE END LIST*
D10*
X83220000Y-89500000D03*
D11*
X85760000Y-89500000D03*
X88300000Y-89500000D03*
X90840000Y-89500000D03*
X93380000Y-89500000D03*
X95920000Y-89500000D03*
X98460000Y-89500000D03*
X101000000Y-89500000D03*
D12*
X116610000Y-81400000D03*
X100860000Y-81400000D03*
D13*
X113180000Y-69460000D03*
X111910000Y-72000000D03*
X110640000Y-69460000D03*
X109370000Y-72000000D03*
X108100000Y-69460000D03*
X106830000Y-72000000D03*
X105560000Y-69460000D03*
D14*
X104290000Y-72000000D03*
D12*
X95930000Y-81400000D03*
X80180000Y-81400000D03*
D13*
X92500000Y-69460000D03*
X91230000Y-72000000D03*
X89960000Y-69460000D03*
X88690000Y-72000000D03*
X87420000Y-69460000D03*
X86150000Y-72000000D03*
X84880000Y-69460000D03*
D14*
X83610000Y-72000000D03*
D15*
X128355000Y-75135000D03*
X125805000Y-75135000D03*
X125805000Y-71935000D03*
X128355000Y-71935000D03*
D16*
X115460000Y-88500000D03*
D17*
X118000000Y-88500000D03*
D18*
X123000000Y-87500000D03*
D19*
X128080000Y-87500000D03*
D20*
X108960000Y-89500000D03*
D15*
X111500000Y-89500000D03*
D21*
X98460000Y-76110000D02*
X98460000Y-89500000D01*
X97100000Y-74750000D02*
X98460000Y-76110000D01*
X97100000Y-73107106D02*
X97100000Y-74750000D01*
X97093894Y-73101000D02*
X97100000Y-73107106D01*
D22*
X84880000Y-88620000D02*
X85760000Y-89500000D01*
X84880000Y-69460000D02*
X84880000Y-88620000D01*
X84291000Y-88429000D02*
X83220000Y-89500000D01*
X84291000Y-72681000D02*
X84291000Y-88429000D01*
X83610000Y-72000000D02*
X84291000Y-72681000D01*
D21*
X115460000Y-88500000D02*
X112500000Y-88500000D01*
X112500000Y-88500000D02*
X111500000Y-89500000D01*
D22*
X109639000Y-70461000D02*
X110640000Y-69460000D01*
X90961000Y-70461000D02*
X109639000Y-70461000D01*
X89960000Y-69460000D02*
X90961000Y-70461000D01*
X105829000Y-70999000D02*
X106830000Y-72000000D01*
X87151000Y-70999000D02*
X105829000Y-70999000D01*
X86150000Y-72000000D02*
X87151000Y-70999000D01*
X122460555Y-70239000D02*
X122460555Y-70759000D01*
X123060555Y-70759000D02*
X123060555Y-70239000D01*
X123660555Y-70759000D02*
X123660555Y-70999000D01*
X123060555Y-71759000D02*
X123060555Y-70999000D01*
X123060555Y-70999000D02*
X123060555Y-70759000D01*
X122100555Y-70999000D02*
X121828845Y-70999000D01*
X112179000Y-70999000D02*
X110640000Y-69460000D01*
X122220555Y-70999000D02*
X122100555Y-70999000D01*
X125805000Y-71935000D02*
X124869000Y-70999000D01*
X121828845Y-70999000D02*
X112179000Y-70999000D01*
X124020555Y-69999000D02*
X123900555Y-69999000D01*
X123660555Y-70239000D02*
X123660555Y-70759000D01*
X123420555Y-71999000D02*
X123300555Y-71999000D01*
X124260555Y-70759000D02*
X124260555Y-70239000D01*
X124869000Y-70999000D02*
X124500555Y-70999000D01*
X123660555Y-70999000D02*
X123660555Y-71759000D01*
X122820555Y-69999000D02*
X122700555Y-69999000D01*
X122700555Y-69999000D02*
G75*
G03*
X122460600Y-70239000I45J-240000D01*
G01*
X124260555Y-70239000D02*
G75*
G03*
X124020555Y-69999045I-239955J0D01*
G01*
X122460555Y-70759000D02*
G75*
G02*
X122220555Y-70998955I-239955J0D01*
G01*
X124500555Y-70999000D02*
G75*
G02*
X124260600Y-70759000I45J240000D01*
G01*
X123900555Y-69999000D02*
G75*
G03*
X123660600Y-70239000I45J-240000D01*
G01*
X123660555Y-71759000D02*
G75*
G02*
X123420555Y-71998955I-239955J0D01*
G01*
X123060555Y-70239000D02*
G75*
G03*
X122820555Y-69999045I-239955J0D01*
G01*
X123300555Y-71999000D02*
G75*
G02*
X123060600Y-71759000I45J240000D01*
G01*
D21*
X110809000Y-73101000D02*
X111910000Y-72000000D01*
X97093894Y-73101000D02*
X110809000Y-73101000D01*
X95992894Y-72000000D02*
X97093894Y-73101000D01*
X91230000Y-72000000D02*
X95992894Y-72000000D01*
D22*
X112179000Y-68459000D02*
X113180000Y-69460000D01*
X93501000Y-68459000D02*
X112179000Y-68459000D01*
X92500000Y-69460000D02*
X93501000Y-68459000D01*
G04 #@! TA.AperFunction,Conductor*
G36*
X88270667Y-72173694D02*
G01*
X88329910Y-72276306D01*
X88413694Y-72360090D01*
X88516306Y-72419333D01*
X88601414Y-72442137D01*
X87677595Y-73365955D01*
X87677595Y-73365956D01*
X87743507Y-73416533D01*
X87936485Y-73527949D01*
X87936497Y-73527954D01*
X88142381Y-73613236D01*
X88357632Y-73670911D01*
X88357645Y-73670914D01*
X88578575Y-73700000D01*
X88801425Y-73700000D01*
X89022354Y-73670914D01*
X89022367Y-73670911D01*
X89237618Y-73613236D01*
X89443502Y-73527954D01*
X89443514Y-73527949D01*
X89636498Y-73416530D01*
X89702403Y-73365957D01*
X89702404Y-73365956D01*
X88778585Y-72442138D01*
X88863694Y-72419333D01*
X88966306Y-72360090D01*
X89050090Y-72276306D01*
X89109333Y-72173694D01*
X89132138Y-72088585D01*
X90055956Y-73012404D01*
X90055957Y-73012403D01*
X90106530Y-72946497D01*
X90106531Y-72946497D01*
X90161965Y-72850480D01*
X90212531Y-72802263D01*
X90281138Y-72789039D01*
X90346003Y-72815006D01*
X90357034Y-72824797D01*
X90447927Y-72915690D01*
X90600801Y-73026760D01*
X90661218Y-73057544D01*
X90769163Y-73112545D01*
X90769165Y-73112545D01*
X90769168Y-73112547D01*
X90831537Y-73132812D01*
X90948881Y-73170940D01*
X91135514Y-73200500D01*
X91135519Y-73200500D01*
X91324486Y-73200500D01*
X91511118Y-73170940D01*
X91690832Y-73112547D01*
X91859199Y-73026760D01*
X92012073Y-72915690D01*
X92145690Y-72782073D01*
X92167821Y-72751613D01*
X92223152Y-72708948D01*
X92268138Y-72700500D01*
X95651375Y-72700500D01*
X95718414Y-72720185D01*
X95739056Y-72736819D01*
X96363181Y-73360944D01*
X96396666Y-73422267D01*
X96399500Y-73448625D01*
X96399500Y-74681006D01*
X96399500Y-74818994D01*
X96399500Y-74818996D01*
X96399499Y-74818996D01*
X96426418Y-74954322D01*
X96426421Y-74954332D01*
X96479222Y-75081807D01*
X96555887Y-75196545D01*
X96555888Y-75196546D01*
X97723181Y-76363837D01*
X97756666Y-76425160D01*
X97759500Y-76451518D01*
X97759500Y-80555089D01*
X97739815Y-80622128D01*
X97687011Y-80667883D01*
X97617853Y-80677827D01*
X97554297Y-80648802D01*
X97528910Y-80615930D01*
X97527845Y-80616546D01*
X97409446Y-80411475D01*
X97409442Y-80411468D01*
X97267756Y-80226819D01*
X97267751Y-80226813D01*
X97103186Y-80062248D01*
X97103179Y-80062242D01*
X96918540Y-79920564D01*
X96918538Y-79920562D01*
X96918532Y-79920558D01*
X96918527Y-79920555D01*
X96918524Y-79920553D01*
X96716976Y-79804188D01*
X96716960Y-79804180D01*
X96501947Y-79715120D01*
X96438894Y-79698225D01*
X96277126Y-79654879D01*
X96277125Y-79654878D01*
X96277122Y-79654878D01*
X96046382Y-79624501D01*
X96046377Y-79624500D01*
X96046372Y-79624500D01*
X95813628Y-79624500D01*
X95813622Y-79624500D01*
X95813617Y-79624501D01*
X95582877Y-79654878D01*
X95358056Y-79715119D01*
X95341362Y-79722034D01*
X95271892Y-79729501D01*
X95209414Y-79698225D01*
X95173762Y-79638136D01*
X95176257Y-79568311D01*
X95195535Y-79531986D01*
X95311936Y-79380289D01*
X95433224Y-79170212D01*
X95526054Y-78946100D01*
X95588838Y-78711789D01*
X95620500Y-78471288D01*
X95620500Y-78228712D01*
X95588838Y-77988211D01*
X95526054Y-77753900D01*
X95433224Y-77529788D01*
X95311936Y-77319711D01*
X95164265Y-77127262D01*
X95164260Y-77127256D01*
X94992743Y-76955739D01*
X94992736Y-76955733D01*
X94800293Y-76808067D01*
X94800292Y-76808066D01*
X94800289Y-76808064D01*
X94590212Y-76686776D01*
X94590205Y-76686773D01*
X94366104Y-76593947D01*
X94131785Y-76531161D01*
X93891289Y-76499500D01*
X93891288Y-76499500D01*
X93648712Y-76499500D01*
X93648711Y-76499500D01*
X93408214Y-76531161D01*
X93173895Y-76593947D01*
X92949794Y-76686773D01*
X92949785Y-76686777D01*
X92767851Y-76791817D01*
X92749657Y-76802322D01*
X92739706Y-76808067D01*
X92547263Y-76955733D01*
X92547256Y-76955739D01*
X92375739Y-77127256D01*
X92375733Y-77127263D01*
X92228067Y-77319706D01*
X92106777Y-77529785D01*
X92106773Y-77529794D01*
X92013947Y-77753895D01*
X91951161Y-77988214D01*
X91919500Y-78228711D01*
X91919500Y-78471288D01*
X91951161Y-78711785D01*
X92013947Y-78946104D01*
X92106773Y-79170205D01*
X92106776Y-79170212D01*
X92228064Y-79380289D01*
X92228066Y-79380292D01*
X92228067Y-79380293D01*
X92375733Y-79572736D01*
X92375739Y-79572743D01*
X92547256Y-79744260D01*
X92547262Y-79744265D01*
X92739711Y-79891936D01*
X92949788Y-80013224D01*
X93173900Y-80106054D01*
X93408211Y-80168838D01*
X93588586Y-80192584D01*
X93648711Y-80200500D01*
X93648712Y-80200500D01*
X93891289Y-80200500D01*
X93939388Y-80194167D01*
X94131789Y-80168838D01*
X94366100Y-80106054D01*
X94405903Y-80089566D01*
X94475372Y-80082098D01*
X94537851Y-80113373D01*
X94573504Y-80173461D01*
X94571011Y-80243286D01*
X94551732Y-80279614D01*
X94450564Y-80411458D01*
X94450553Y-80411475D01*
X94334188Y-80613023D01*
X94334180Y-80613039D01*
X94245120Y-80828052D01*
X94184878Y-81052877D01*
X94154501Y-81283617D01*
X94154500Y-81283634D01*
X94154500Y-81516365D01*
X94154501Y-81516382D01*
X94184878Y-81747122D01*
X94245120Y-81971947D01*
X94334180Y-82186960D01*
X94334188Y-82186976D01*
X94450553Y-82388524D01*
X94450564Y-82388540D01*
X94592242Y-82573179D01*
X94592248Y-82573186D01*
X94756813Y-82737751D01*
X94756819Y-82737756D01*
X94941468Y-82879442D01*
X94941475Y-82879446D01*
X95143023Y-82995811D01*
X95143039Y-82995819D01*
X95358052Y-83084879D01*
X95358054Y-83084879D01*
X95358060Y-83084882D01*
X95582874Y-83145121D01*
X95813628Y-83175500D01*
X95813635Y-83175500D01*
X96046365Y-83175500D01*
X96046372Y-83175500D01*
X96277126Y-83145121D01*
X96501940Y-83084882D01*
X96559953Y-83060852D01*
X96716960Y-82995819D01*
X96716963Y-82995817D01*
X96716969Y-82995815D01*
X96918532Y-82879442D01*
X97103181Y-82737756D01*
X97267756Y-82573181D01*
X97409442Y-82388532D01*
X97520179Y-82196731D01*
X97527845Y-82183454D01*
X97529504Y-82184412D01*
X97571551Y-82138672D01*
X97639139Y-82120963D01*
X97705572Y-82142607D01*
X97749757Y-82196731D01*
X97759500Y-82244910D01*
X97759500Y-88276452D01*
X97739815Y-88343491D01*
X97708385Y-88376770D01*
X97580213Y-88469890D01*
X97429890Y-88620213D01*
X97304949Y-88792182D01*
X97300484Y-88800946D01*
X97252509Y-88851742D01*
X97184688Y-88868536D01*
X97118553Y-88845998D01*
X97079516Y-88800946D01*
X97075050Y-88792182D01*
X96950109Y-88620213D01*
X96799786Y-88469890D01*
X96627820Y-88344951D01*
X96438414Y-88248444D01*
X96438413Y-88248443D01*
X96438412Y-88248443D01*
X96236243Y-88182754D01*
X96236241Y-88182753D01*
X96236240Y-88182753D01*
X96074957Y-88157208D01*
X96026287Y-88149500D01*
X95813713Y-88149500D01*
X95765042Y-88157208D01*
X95603760Y-88182753D01*
X95401585Y-88248444D01*
X95212179Y-88344951D01*
X95061681Y-88454294D01*
X94995874Y-88477774D01*
X94927821Y-88461948D01*
X94890420Y-88429462D01*
X94852938Y-88380614D01*
X94852936Y-88380614D01*
X93862962Y-89370589D01*
X93845925Y-89307007D01*
X93780099Y-89192993D01*
X93687007Y-89099901D01*
X93572993Y-89034075D01*
X93509407Y-89017037D01*
X94499384Y-88027061D01*
X94410010Y-87958481D01*
X94199992Y-87837227D01*
X94199978Y-87837220D01*
X93975939Y-87744421D01*
X93741687Y-87681653D01*
X93501264Y-87650001D01*
X93501248Y-87650000D01*
X93258752Y-87650000D01*
X93258735Y-87650001D01*
X93018312Y-87681653D01*
X92784060Y-87744421D01*
X92560021Y-87837220D01*
X92560006Y-87837227D01*
X92349990Y-87958480D01*
X92260614Y-88027060D01*
X92260614Y-88027061D01*
X93250590Y-89017037D01*
X93187007Y-89034075D01*
X93072993Y-89099901D01*
X92979901Y-89192993D01*
X92914075Y-89307007D01*
X92897037Y-89370590D01*
X91907061Y-88380614D01*
X91907059Y-88380614D01*
X91869579Y-88429461D01*
X91813151Y-88470664D01*
X91743405Y-88474819D01*
X91698318Y-88454294D01*
X91547815Y-88344948D01*
X91358414Y-88248444D01*
X91358413Y-88248443D01*
X91358412Y-88248443D01*
X91156243Y-88182754D01*
X90946287Y-88149500D01*
X90733713Y-88149500D01*
X90685042Y-88157208D01*
X90523760Y-88182753D01*
X90321585Y-88248444D01*
X90132179Y-88344951D01*
X89960213Y-88469890D01*
X89809890Y-88620213D01*
X89684949Y-88792182D01*
X89680484Y-88800946D01*
X89632509Y-88851742D01*
X89564688Y-88868536D01*
X89498553Y-88845998D01*
X89459516Y-88800946D01*
X89455050Y-88792182D01*
X89330109Y-88620213D01*
X89179786Y-88469890D01*
X89007820Y-88344951D01*
X88818414Y-88248444D01*
X88818413Y-88248443D01*
X88818412Y-88248443D01*
X88616243Y-88182754D01*
X88616241Y-88182753D01*
X88616240Y-88182753D01*
X88454957Y-88157208D01*
X88406287Y-88149500D01*
X88193713Y-88149500D01*
X88145042Y-88157208D01*
X87983760Y-88182753D01*
X87781585Y-88248444D01*
X87592179Y-88344951D01*
X87420213Y-88469890D01*
X87269890Y-88620213D01*
X87144949Y-88792182D01*
X87140484Y-88800946D01*
X87092509Y-88851742D01*
X87024688Y-88868536D01*
X86958553Y-88845998D01*
X86919516Y-88800946D01*
X86915050Y-88792182D01*
X86790109Y-88620213D01*
X86639786Y-88469890D01*
X86467820Y-88344951D01*
X86278414Y-88248444D01*
X86278413Y-88248443D01*
X86278412Y-88248443D01*
X86076243Y-88182754D01*
X86076241Y-88182753D01*
X86076240Y-88182753D01*
X85914957Y-88157208D01*
X85866287Y-88149500D01*
X85653713Y-88149500D01*
X85623897Y-88154222D01*
X85554603Y-88145266D01*
X85501152Y-88100269D01*
X85480513Y-88033517D01*
X85480500Y-88031748D01*
X85480500Y-73208575D01*
X85500185Y-73141536D01*
X85552989Y-73095781D01*
X85622147Y-73085837D01*
X85660796Y-73098091D01*
X85689161Y-73112544D01*
X85689164Y-73112544D01*
X85689168Y-73112547D01*
X85785333Y-73143793D01*
X85868881Y-73170940D01*
X86055514Y-73200500D01*
X86055519Y-73200500D01*
X86244486Y-73200500D01*
X86275865Y-73195530D01*
X86431118Y-73170940D01*
X86610832Y-73112547D01*
X86779199Y-73026760D01*
X86932073Y-72915690D01*
X87022967Y-72824795D01*
X87084286Y-72791313D01*
X87153978Y-72796297D01*
X87209912Y-72838168D01*
X87218032Y-72850479D01*
X87273468Y-72946497D01*
X87273473Y-72946504D01*
X87324040Y-73012403D01*
X87324043Y-73012403D01*
X88247861Y-72088584D01*
X88270667Y-72173694D01*
G37*
G04 #@! TD.AperFunction*
G04 #@! TA.AperFunction,Conductor*
G36*
X110963045Y-70644228D02*
G01*
X111000831Y-70670066D01*
X111191579Y-70860814D01*
X111197485Y-70871631D01*
X111206949Y-70879528D01*
X111213916Y-70901722D01*
X111225064Y-70922137D01*
X111224184Y-70934429D01*
X111227877Y-70946190D01*
X111221739Y-70968626D01*
X111220080Y-70991829D01*
X111212692Y-71001696D01*
X111209441Y-71013584D01*
X111186828Y-71040683D01*
X111182015Y-71045012D01*
X111127927Y-71084310D01*
X111034722Y-71177514D01*
X111032283Y-71179709D01*
X111003608Y-71193453D01*
X110975710Y-71208687D01*
X110972333Y-71208445D01*
X110969278Y-71209910D01*
X110937731Y-71205970D01*
X110906019Y-71203703D01*
X110903306Y-71201672D01*
X110899947Y-71201253D01*
X110875544Y-71180889D01*
X110850085Y-71161831D01*
X110848901Y-71158656D01*
X110846302Y-71156488D01*
X110841965Y-71149520D01*
X110786531Y-71053504D01*
X110735956Y-70987595D01*
X110735955Y-70987595D01*
X109812137Y-71911413D01*
X109789333Y-71826306D01*
X109730090Y-71723694D01*
X109646306Y-71639910D01*
X109543694Y-71580667D01*
X109458584Y-71557861D01*
X110337190Y-70679255D01*
X110398513Y-70645770D01*
X110444264Y-70644463D01*
X110504985Y-70654080D01*
X110545515Y-70660500D01*
X110545519Y-70660500D01*
X110734486Y-70660500D01*
X110851017Y-70642042D01*
X110893753Y-70635274D01*
X110963045Y-70644228D01*
G37*
G04 #@! TD.AperFunction*
G04 #@! TA.AperFunction,Conductor*
G36*
X134442539Y-67520185D02*
G01*
X134488294Y-67572989D01*
X134499500Y-67624500D01*
X134499500Y-73772530D01*
X134479815Y-73839569D01*
X134427011Y-73885324D01*
X134357853Y-73895268D01*
X134294297Y-73866243D01*
X134275182Y-73845415D01*
X134193247Y-73732641D01*
X134193243Y-73732636D01*
X134037363Y-73576756D01*
X134037358Y-73576752D01*
X133859025Y-73447187D01*
X133859024Y-73447186D01*
X133859022Y-73447185D01*
X133761046Y-73397263D01*
X133662606Y-73347104D01*
X133662603Y-73347103D01*
X133452952Y-73278985D01*
X133344086Y-73261742D01*
X133235222Y-73244500D01*
X133014778Y-73244500D01*
X132942201Y-73255995D01*
X132797047Y-73278985D01*
X132587396Y-73347103D01*
X132587393Y-73347104D01*
X132390974Y-73447187D01*
X132212641Y-73576752D01*
X132212636Y-73576756D01*
X132056756Y-73732636D01*
X132056752Y-73732641D01*
X131927187Y-73910974D01*
X131827104Y-74107393D01*
X131827103Y-74107396D01*
X131758985Y-74317047D01*
X131724500Y-74534778D01*
X131724500Y-74755221D01*
X131758985Y-74972952D01*
X131827103Y-75182603D01*
X131827104Y-75182606D01*
X131927187Y-75379025D01*
X132056752Y-75557358D01*
X132056756Y-75557363D01*
X132212636Y-75713243D01*
X132212641Y-75713247D01*
X132368192Y-75826260D01*
X132390978Y-75842815D01*
X132514331Y-75905667D01*
X132587393Y-75942895D01*
X132587396Y-75942896D01*
X132692221Y-75976955D01*
X132797049Y-76011015D01*
X133014778Y-76045500D01*
X133014779Y-76045500D01*
X133235221Y-76045500D01*
X133235222Y-76045500D01*
X133452951Y-76011015D01*
X133662606Y-75942895D01*
X133859022Y-75842815D01*
X134037365Y-75713242D01*
X134193242Y-75557365D01*
X134275182Y-75444582D01*
X134330511Y-75401918D01*
X134400124Y-75395939D01*
X134461920Y-75428544D01*
X134496277Y-75489383D01*
X134499500Y-75517469D01*
X134499500Y-92375500D01*
X134479815Y-92442539D01*
X134427011Y-92488294D01*
X134375500Y-92499500D01*
X78124500Y-92499500D01*
X78057461Y-92479815D01*
X78011706Y-92427011D01*
X78000500Y-92375500D01*
X78000500Y-81283634D01*
X78404500Y-81283634D01*
X78404500Y-81516365D01*
X78404501Y-81516382D01*
X78434878Y-81747122D01*
X78495120Y-81971947D01*
X78584180Y-82186960D01*
X78584188Y-82186976D01*
X78700553Y-82388524D01*
X78700564Y-82388540D01*
X78842242Y-82573179D01*
X78842248Y-82573186D01*
X79006813Y-82737751D01*
X79006819Y-82737756D01*
X79191468Y-82879442D01*
X79191475Y-82879446D01*
X79393023Y-82995811D01*
X79393039Y-82995819D01*
X79608052Y-83084879D01*
X79608054Y-83084879D01*
X79608060Y-83084882D01*
X79832874Y-83145121D01*
X80063628Y-83175500D01*
X80063635Y-83175500D01*
X80296365Y-83175500D01*
X80296372Y-83175500D01*
X80527126Y-83145121D01*
X80751940Y-83084882D01*
X80809953Y-83060852D01*
X80966960Y-82995819D01*
X80966963Y-82995817D01*
X80966969Y-82995815D01*
X81168532Y-82879442D01*
X81353181Y-82737756D01*
X81517756Y-82573181D01*
X81659442Y-82388532D01*
X81775815Y-82186969D01*
X81864882Y-81971940D01*
X81925121Y-81747126D01*
X81955500Y-81516372D01*
X81955500Y-81283628D01*
X81925121Y-81052874D01*
X81864882Y-80828060D01*
X81864879Y-80828052D01*
X81775819Y-80613039D01*
X81775811Y-80613023D01*
X81659446Y-80411475D01*
X81659442Y-80411468D01*
X81558267Y-80279614D01*
X81533073Y-80214445D01*
X81547111Y-80146000D01*
X81595925Y-80096011D01*
X81664017Y-80080347D01*
X81704096Y-80089567D01*
X81743895Y-80106052D01*
X81743900Y-80106054D01*
X81978211Y-80168838D01*
X82158586Y-80192584D01*
X82218711Y-80200500D01*
X82218712Y-80200500D01*
X82461289Y-80200500D01*
X82509388Y-80194167D01*
X82701789Y-80168838D01*
X82936100Y-80106054D01*
X83160212Y-80013224D01*
X83370289Y-79891936D01*
X83491014Y-79799301D01*
X83556183Y-79774107D01*
X83624628Y-79788145D01*
X83674617Y-79836959D01*
X83690500Y-79897677D01*
X83690500Y-88025500D01*
X83670815Y-88092539D01*
X83618011Y-88138294D01*
X83566500Y-88149500D01*
X82322129Y-88149500D01*
X82322123Y-88149501D01*
X82262516Y-88155908D01*
X82127671Y-88206202D01*
X82127664Y-88206206D01*
X82012455Y-88292452D01*
X82012452Y-88292455D01*
X81926206Y-88407664D01*
X81926202Y-88407671D01*
X81875908Y-88542517D01*
X81869501Y-88602116D01*
X81869500Y-88602135D01*
X81869500Y-90397870D01*
X81869501Y-90397876D01*
X81875908Y-90457483D01*
X81926202Y-90592328D01*
X81926206Y-90592335D01*
X82012452Y-90707544D01*
X82012455Y-90707547D01*
X82127664Y-90793793D01*
X82127671Y-90793797D01*
X82262517Y-90844091D01*
X82262516Y-90844091D01*
X82269444Y-90844835D01*
X82322127Y-90850500D01*
X84117872Y-90850499D01*
X84177483Y-90844091D01*
X84312331Y-90793796D01*
X84427546Y-90707546D01*
X84513796Y-90592331D01*
X84562810Y-90460916D01*
X84604681Y-90404984D01*
X84670145Y-90380566D01*
X84738418Y-90395417D01*
X84766673Y-90416569D01*
X84880213Y-90530109D01*
X85052179Y-90655048D01*
X85052181Y-90655049D01*
X85052184Y-90655051D01*
X85241588Y-90751557D01*
X85443757Y-90817246D01*
X85653713Y-90850500D01*
X85653714Y-90850500D01*
X85866286Y-90850500D01*
X85866287Y-90850500D01*
X86076243Y-90817246D01*
X86278412Y-90751557D01*
X86467816Y-90655051D01*
X86554138Y-90592335D01*
X86639786Y-90530109D01*
X86639788Y-90530106D01*
X86639792Y-90530104D01*
X86790104Y-90379792D01*
X86790106Y-90379788D01*
X86790109Y-90379786D01*
X86915048Y-90207820D01*
X86915047Y-90207820D01*
X86915051Y-90207816D01*
X86919514Y-90199054D01*
X86967488Y-90148259D01*
X87035308Y-90131463D01*
X87101444Y-90153999D01*
X87140486Y-90199056D01*
X87144951Y-90207820D01*
X87269890Y-90379786D01*
X87420213Y-90530109D01*
X87592179Y-90655048D01*
X87592181Y-90655049D01*
X87592184Y-90655051D01*
X87781588Y-90751557D01*
X87983757Y-90817246D01*
X88193713Y-90850500D01*
X88193714Y-90850500D01*
X88406286Y-90850500D01*
X88406287Y-90850500D01*
X88616243Y-90817246D01*
X88818412Y-90751557D01*
X89007816Y-90655051D01*
X89094138Y-90592335D01*
X89179786Y-90530109D01*
X89179788Y-90530106D01*
X89179792Y-90530104D01*
X89330104Y-90379792D01*
X89330106Y-90379788D01*
X89330109Y-90379786D01*
X89455048Y-90207820D01*
X89455047Y-90207820D01*
X89455051Y-90207816D01*
X89459514Y-90199054D01*
X89507488Y-90148259D01*
X89575308Y-90131463D01*
X89641444Y-90153999D01*
X89680486Y-90199056D01*
X89684951Y-90207820D01*
X89809890Y-90379786D01*
X89960213Y-90530109D01*
X90132179Y-90655048D01*
X90132181Y-90655049D01*
X90132184Y-90655051D01*
X90321588Y-90751557D01*
X90523757Y-90817246D01*
X90733713Y-90850500D01*
X90733714Y-90850500D01*
X90946286Y-90850500D01*
X90946287Y-90850500D01*
X91156243Y-90817246D01*
X91358412Y-90751557D01*
X91547816Y-90655051D01*
X91698318Y-90545706D01*
X91764124Y-90522226D01*
X91832178Y-90538052D01*
X91869579Y-90570537D01*
X91907061Y-90619384D01*
X92897037Y-89629408D01*
X92914075Y-89692993D01*
X92979901Y-89807007D01*
X93072993Y-89900099D01*
X93187007Y-89965925D01*
X93250590Y-89982962D01*
X92260614Y-90972936D01*
X92260614Y-90972937D01*
X92349989Y-91041517D01*
X92349996Y-91041522D01*
X92560007Y-91162772D01*
X92560021Y-91162779D01*
X92784060Y-91255578D01*
X93018312Y-91318346D01*
X93258735Y-91349998D01*
X93258752Y-91350000D01*
X93501248Y-91350000D01*
X93501264Y-91349998D01*
X93741687Y-91318346D01*
X93975939Y-91255578D01*
X94199978Y-91162779D01*
X94199992Y-91162772D01*
X94410016Y-91041515D01*
X94499384Y-90972939D01*
X94499384Y-90972936D01*
X93509409Y-89982962D01*
X93572993Y-89965925D01*
X93687007Y-89900099D01*
X93780099Y-89807007D01*
X93845925Y-89692993D01*
X93862962Y-89629409D01*
X94852936Y-90619384D01*
X94852937Y-90619384D01*
X94890420Y-90570537D01*
X94946848Y-90529335D01*
X95016595Y-90525180D01*
X95061681Y-90545706D01*
X95212179Y-90655048D01*
X95212181Y-90655049D01*
X95212184Y-90655051D01*
X95401588Y-90751557D01*
X95603757Y-90817246D01*
X95813713Y-90850500D01*
X95813714Y-90850500D01*
X96026286Y-90850500D01*
X96026287Y-90850500D01*
X96236243Y-90817246D01*
X96438412Y-90751557D01*
X96627816Y-90655051D01*
X96714138Y-90592335D01*
X96799786Y-90530109D01*
X96799788Y-90530106D01*
X96799792Y-90530104D01*
X96950104Y-90379792D01*
X96950106Y-90379788D01*
X96950109Y-90379786D01*
X97075048Y-90207820D01*
X97075047Y-90207820D01*
X97075051Y-90207816D01*
X97079514Y-90199054D01*
X97127488Y-90148259D01*
X97195308Y-90131463D01*
X97261444Y-90153999D01*
X97300486Y-90199056D01*
X97304951Y-90207820D01*
X97429890Y-90379786D01*
X97580213Y-90530109D01*
X97752179Y-90655048D01*
X97752181Y-90655049D01*
X97752184Y-90655051D01*
X97941588Y-90751557D01*
X98143757Y-90817246D01*
X98353713Y-90850500D01*
X98353714Y-90850500D01*
X98566286Y-90850500D01*
X98566287Y-90850500D01*
X98776243Y-90817246D01*
X98978412Y-90751557D01*
X99167816Y-90655051D01*
X99254138Y-90592335D01*
X99339786Y-90530109D01*
X99339788Y-90530106D01*
X99339792Y-90530104D01*
X99490104Y-90379792D01*
X99490106Y-90379788D01*
X99490109Y-90379786D01*
X99615048Y-90207820D01*
X99615047Y-90207820D01*
X99615051Y-90207816D01*
X99619514Y-90199054D01*
X99667488Y-90148259D01*
X99735308Y-90131463D01*
X99801444Y-90153999D01*
X99840486Y-90199056D01*
X99844951Y-90207820D01*
X99969890Y-90379786D01*
X100120213Y-90530109D01*
X100292179Y-90655048D01*
X100292181Y-90655049D01*
X100292184Y-90655051D01*
X100481588Y-90751557D01*
X100683757Y-90817246D01*
X100893713Y-90850500D01*
X100893714Y-90850500D01*
X101106286Y-90850500D01*
X101106287Y-90850500D01*
X101316243Y-90817246D01*
X101518412Y-90751557D01*
X101707816Y-90655051D01*
X101794138Y-90592335D01*
X101879786Y-90530109D01*
X101879788Y-90530106D01*
X101879792Y-90530104D01*
X102030104Y-90379792D01*
X102030106Y-90379788D01*
X102030109Y-90379786D01*
X102155048Y-90207820D01*
X102155047Y-90207820D01*
X102155051Y-90207816D01*
X102251557Y-90018412D01*
X102317246Y-89816243D01*
X102350500Y-89606287D01*
X102350500Y-89393713D01*
X102317246Y-89183757D01*
X102251557Y-88981588D01*
X102155051Y-88792184D01*
X102155049Y-88792181D01*
X102155048Y-88792179D01*
X102030111Y-88620216D01*
X102030103Y-88620207D01*
X101951895Y-88541999D01*
X107060000Y-88541999D01*
X107060000Y-89250000D01*
X108584722Y-89250000D01*
X108540667Y-89326306D01*
X108510000Y-89440756D01*
X108510000Y-89559244D01*
X108540667Y-89673694D01*
X108584722Y-89750000D01*
X107060000Y-89750000D01*
X107060000Y-90458000D01*
X107070608Y-90577325D01*
X107070609Y-90577328D01*
X107126557Y-90772861D01*
X107220721Y-90953129D01*
X107349246Y-91110753D01*
X107506870Y-91239278D01*
X107687138Y-91333442D01*
X107882671Y-91389390D01*
X107882674Y-91389391D01*
X108001999Y-91399999D01*
X108002002Y-91400000D01*
X108710000Y-91400000D01*
X108710000Y-89875277D01*
X108786306Y-89919333D01*
X108900756Y-89950000D01*
X109019244Y-89950000D01*
X109133694Y-89919333D01*
X109210000Y-89875277D01*
X109210000Y-91400000D01*
X109917998Y-91400000D01*
X109918000Y-91399999D01*
X110037325Y-91389391D01*
X110037328Y-91389390D01*
X110232861Y-91333442D01*
X110413129Y-91239278D01*
X110570753Y-91110753D01*
X110699278Y-90953129D01*
X110761797Y-90833444D01*
X110810284Y-90783136D01*
X110878271Y-90767029D01*
X110927999Y-90780370D01*
X110962394Y-90797895D01*
X110962395Y-90797895D01*
X110962396Y-90797896D01*
X111021951Y-90817246D01*
X111172049Y-90866015D01*
X111389778Y-90900500D01*
X111389779Y-90900500D01*
X111610221Y-90900500D01*
X111610222Y-90900500D01*
X111827951Y-90866015D01*
X112037606Y-90797895D01*
X112234022Y-90697815D01*
X112412365Y-90568242D01*
X112568242Y-90412365D01*
X112697815Y-90234022D01*
X112797895Y-90037606D01*
X112866015Y-89827951D01*
X112900500Y-89610222D01*
X112900500Y-89389778D01*
X112893233Y-89343897D01*
X112902187Y-89274605D01*
X112947183Y-89221153D01*
X113013935Y-89200513D01*
X113015706Y-89200500D01*
X114298256Y-89200500D01*
X114365295Y-89220185D01*
X114398575Y-89251616D01*
X114468030Y-89347215D01*
X114612786Y-89491971D01*
X114714441Y-89565826D01*
X114778390Y-89612287D01*
X114894607Y-89671503D01*
X114960776Y-89705218D01*
X114960778Y-89705218D01*
X114960781Y-89705220D01*
X115065137Y-89739127D01*
X115155465Y-89768477D01*
X115256557Y-89784488D01*
X115357648Y-89800500D01*
X115357649Y-89800500D01*
X115562351Y-89800500D01*
X115562352Y-89800500D01*
X115764534Y-89768477D01*
X115959219Y-89705220D01*
X116141610Y-89612287D01*
X116234590Y-89544732D01*
X116307213Y-89491971D01*
X116307215Y-89491968D01*
X116307219Y-89491966D01*
X116451966Y-89347219D01*
X116451968Y-89347215D01*
X116451971Y-89347213D01*
X116572284Y-89181614D01*
X116572285Y-89181613D01*
X116572287Y-89181610D01*
X116619516Y-89088917D01*
X116667489Y-89038123D01*
X116735310Y-89021328D01*
X116801445Y-89043865D01*
X116840483Y-89088917D01*
X116867894Y-89142713D01*
X116887715Y-89181614D01*
X117008028Y-89347213D01*
X117152786Y-89491971D01*
X117254441Y-89565826D01*
X117318390Y-89612287D01*
X117434607Y-89671503D01*
X117500776Y-89705218D01*
X117500778Y-89705218D01*
X117500781Y-89705220D01*
X117605137Y-89739127D01*
X117695465Y-89768477D01*
X117796557Y-89784488D01*
X117897648Y-89800500D01*
X117897649Y-89800500D01*
X118102351Y-89800500D01*
X118102352Y-89800500D01*
X118304534Y-89768477D01*
X118499219Y-89705220D01*
X118681610Y-89612287D01*
X118774590Y-89544732D01*
X118847213Y-89491971D01*
X118847215Y-89491968D01*
X118847219Y-89491966D01*
X118991966Y-89347219D01*
X118991968Y-89347215D01*
X118991971Y-89347213D01*
X119073632Y-89234814D01*
X119112287Y-89181610D01*
X119205220Y-88999219D01*
X119268477Y-88804534D01*
X119300500Y-88602352D01*
X119300500Y-88397648D01*
X119297193Y-88376770D01*
X119268477Y-88195465D01*
X119220195Y-88046870D01*
X119205220Y-88000781D01*
X119205218Y-88000778D01*
X119205218Y-88000776D01*
X119171503Y-87934607D01*
X119112287Y-87818390D01*
X119092424Y-87791051D01*
X118991971Y-87652786D01*
X118847213Y-87508028D01*
X118681613Y-87387715D01*
X118681612Y-87387714D01*
X118681610Y-87387713D01*
X118606103Y-87349240D01*
X118499223Y-87294781D01*
X118304534Y-87231522D01*
X118129995Y-87203878D01*
X118102352Y-87199500D01*
X117897648Y-87199500D01*
X117873329Y-87203351D01*
X117695465Y-87231522D01*
X117500776Y-87294781D01*
X117318386Y-87387715D01*
X117152786Y-87508028D01*
X117008028Y-87652786D01*
X116887715Y-87818386D01*
X116840485Y-87911080D01*
X116792510Y-87961876D01*
X116724689Y-87978671D01*
X116658554Y-87956134D01*
X116619515Y-87911080D01*
X116603284Y-87879225D01*
X116572287Y-87818390D01*
X116552424Y-87791051D01*
X116451971Y-87652786D01*
X116307213Y-87508028D01*
X116141613Y-87387715D01*
X116141612Y-87387714D01*
X116141610Y-87387713D01*
X116066103Y-87349240D01*
X115959223Y-87294781D01*
X115764534Y-87231522D01*
X115589995Y-87203878D01*
X115562352Y-87199500D01*
X115357648Y-87199500D01*
X115333329Y-87203351D01*
X115155465Y-87231522D01*
X114960776Y-87294781D01*
X114778386Y-87387715D01*
X114612786Y-87508028D01*
X114468030Y-87652784D01*
X114398575Y-87748384D01*
X114343245Y-87791051D01*
X114298256Y-87799500D01*
X112431004Y-87799500D01*
X112295677Y-87826418D01*
X112295667Y-87826421D01*
X112168192Y-87879222D01*
X112053459Y-87955884D01*
X112053457Y-87955886D01*
X111913549Y-88095792D01*
X111852228Y-88129276D01*
X111806472Y-88130583D01*
X111610222Y-88099500D01*
X111389778Y-88099500D01*
X111317201Y-88110995D01*
X111172047Y-88133985D01*
X110962396Y-88202103D01*
X110962387Y-88202107D01*
X110927999Y-88219629D01*
X110859329Y-88232525D01*
X110794589Y-88206248D01*
X110761796Y-88166555D01*
X110699278Y-88046870D01*
X110570753Y-87889246D01*
X110413129Y-87760721D01*
X110232861Y-87666557D01*
X110037328Y-87610609D01*
X110037325Y-87610608D01*
X109918000Y-87600000D01*
X109210000Y-87600000D01*
X109210000Y-89124722D01*
X109133694Y-89080667D01*
X109019244Y-89050000D01*
X108900756Y-89050000D01*
X108786306Y-89080667D01*
X108710000Y-89124722D01*
X108710000Y-87600000D01*
X108001999Y-87600000D01*
X107882674Y-87610608D01*
X107882671Y-87610609D01*
X107687138Y-87666557D01*
X107506870Y-87760721D01*
X107349246Y-87889246D01*
X107220721Y-88046870D01*
X107126557Y-88227138D01*
X107070609Y-88422671D01*
X107070608Y-88422674D01*
X107060000Y-88541999D01*
X101951895Y-88541999D01*
X101879786Y-88469890D01*
X101707820Y-88344951D01*
X101518414Y-88248444D01*
X101518413Y-88248443D01*
X101518412Y-88248443D01*
X101316243Y-88182754D01*
X101316241Y-88182753D01*
X101316240Y-88182753D01*
X101154957Y-88157208D01*
X101106287Y-88149500D01*
X100893713Y-88149500D01*
X100845042Y-88157208D01*
X100683760Y-88182753D01*
X100481585Y-88248444D01*
X100292179Y-88344951D01*
X100120213Y-88469890D01*
X99969890Y-88620213D01*
X99844949Y-88792182D01*
X99840484Y-88800946D01*
X99792509Y-88851742D01*
X99724688Y-88868536D01*
X99658553Y-88845998D01*
X99619516Y-88800946D01*
X99615050Y-88792182D01*
X99490109Y-88620213D01*
X99339786Y-88469890D01*
X99211615Y-88376770D01*
X99168949Y-88321441D01*
X99160500Y-88276452D01*
X99160500Y-86399983D01*
X121199500Y-86399983D01*
X121199500Y-88600001D01*
X121199501Y-88600018D01*
X121210000Y-88702796D01*
X121210001Y-88702799D01*
X121235769Y-88780561D01*
X121265186Y-88869334D01*
X121357288Y-89018656D01*
X121481344Y-89142712D01*
X121630666Y-89234814D01*
X121797203Y-89289999D01*
X121899991Y-89300500D01*
X124100008Y-89300499D01*
X124202797Y-89289999D01*
X124369334Y-89234814D01*
X124518656Y-89142712D01*
X124642712Y-89018656D01*
X124734814Y-88869334D01*
X124789999Y-88702797D01*
X124800500Y-88600009D01*
X124800499Y-87349256D01*
X125780000Y-87349256D01*
X125780000Y-87650743D01*
X125780001Y-87650759D01*
X125819353Y-87949667D01*
X125897389Y-88240901D01*
X126012765Y-88519443D01*
X126012770Y-88519454D01*
X126163512Y-88780545D01*
X126163523Y-88780561D01*
X126286115Y-88940328D01*
X126286117Y-88940328D01*
X127478958Y-87747487D01*
X127503978Y-87807890D01*
X127575112Y-87914351D01*
X127665649Y-88004888D01*
X127772110Y-88076022D01*
X127832511Y-88101041D01*
X126639670Y-89293881D01*
X126639670Y-89293882D01*
X126799438Y-89416476D01*
X126799454Y-89416487D01*
X127060545Y-89567229D01*
X127060556Y-89567234D01*
X127339098Y-89682610D01*
X127630332Y-89760646D01*
X127929240Y-89799998D01*
X127929257Y-89800000D01*
X128230743Y-89800000D01*
X128230759Y-89799998D01*
X128529667Y-89760646D01*
X128820901Y-89682610D01*
X129099443Y-89567234D01*
X129099454Y-89567229D01*
X129360545Y-89416487D01*
X129360553Y-89416481D01*
X129520328Y-89293881D01*
X128327488Y-88101041D01*
X128387890Y-88076022D01*
X128494351Y-88004888D01*
X128584888Y-87914351D01*
X128656022Y-87807890D01*
X128681041Y-87747488D01*
X129873881Y-88940328D01*
X129996481Y-88780553D01*
X129996487Y-88780545D01*
X130147229Y-88519454D01*
X130147234Y-88519443D01*
X130262610Y-88240901D01*
X130340646Y-87949667D01*
X130379998Y-87650759D01*
X130380000Y-87650743D01*
X130380000Y-87349256D01*
X130379998Y-87349240D01*
X130340646Y-87050332D01*
X130262610Y-86759098D01*
X130147234Y-86480556D01*
X130147229Y-86480545D01*
X129996487Y-86219454D01*
X129996476Y-86219438D01*
X129873881Y-86059670D01*
X128681041Y-87252510D01*
X128656022Y-87192110D01*
X128584888Y-87085649D01*
X128494351Y-86995112D01*
X128387890Y-86923978D01*
X128327487Y-86898957D01*
X129520328Y-85706117D01*
X129520328Y-85706115D01*
X129360561Y-85583523D01*
X129360545Y-85583512D01*
X129099454Y-85432770D01*
X129099443Y-85432765D01*
X128820901Y-85317389D01*
X128529667Y-85239353D01*
X128230759Y-85200001D01*
X128230743Y-85200000D01*
X127929257Y-85200000D01*
X127929240Y-85200001D01*
X127630332Y-85239353D01*
X127339098Y-85317389D01*
X127060556Y-85432765D01*
X127060545Y-85432770D01*
X126799442Y-85583520D01*
X126639670Y-85706116D01*
X126639670Y-85706117D01*
X127832511Y-86898958D01*
X127772110Y-86923978D01*
X127665649Y-86995112D01*
X127575112Y-87085649D01*
X127503978Y-87192110D01*
X127478958Y-87252511D01*
X126286117Y-86059670D01*
X126286116Y-86059670D01*
X126163520Y-86219442D01*
X126012770Y-86480545D01*
X126012765Y-86480556D01*
X125897389Y-86759098D01*
X125819353Y-87050332D01*
X125780001Y-87349240D01*
X125780000Y-87349256D01*
X124800499Y-87349256D01*
X124800499Y-86399992D01*
X124789999Y-86297203D01*
X124734814Y-86130666D01*
X124642712Y-85981344D01*
X124518656Y-85857288D01*
X124369334Y-85765186D01*
X124202797Y-85710001D01*
X124202795Y-85710000D01*
X124100010Y-85699500D01*
X121899998Y-85699500D01*
X121899981Y-85699501D01*
X121797203Y-85710000D01*
X121797200Y-85710001D01*
X121630668Y-85765185D01*
X121630663Y-85765187D01*
X121481342Y-85857289D01*
X121357289Y-85981342D01*
X121265187Y-86130663D01*
X121265186Y-86130666D01*
X121210001Y-86297203D01*
X121210001Y-86297204D01*
X121210000Y-86297204D01*
X121199500Y-86399983D01*
X99160500Y-86399983D01*
X99160500Y-82467039D01*
X99180185Y-82400000D01*
X99232989Y-82354245D01*
X99302147Y-82344301D01*
X99365703Y-82373326D01*
X99382876Y-82391553D01*
X99522242Y-82573179D01*
X99522248Y-82573186D01*
X99686813Y-82737751D01*
X99686819Y-82737756D01*
X99871468Y-82879442D01*
X99871475Y-82879446D01*
X100073023Y-82995811D01*
X100073039Y-82995819D01*
X100288052Y-83084879D01*
X100288054Y-83084879D01*
X100288060Y-83084882D01*
X100512874Y-83145121D01*
X100743628Y-83175500D01*
X100743635Y-83175500D01*
X100976365Y-83175500D01*
X100976372Y-83175500D01*
X101207126Y-83145121D01*
X101431940Y-83084882D01*
X101489953Y-83060852D01*
X101646960Y-82995819D01*
X101646963Y-82995817D01*
X101646969Y-82995815D01*
X101848532Y-82879442D01*
X102033181Y-82737756D01*
X102197756Y-82573181D01*
X102339442Y-82388532D01*
X102455815Y-82186969D01*
X102544882Y-81971940D01*
X102605121Y-81747126D01*
X102635500Y-81516372D01*
X102635500Y-81283628D01*
X102605121Y-81052874D01*
X102544882Y-80828060D01*
X102544879Y-80828052D01*
X102455819Y-80613039D01*
X102455811Y-80613023D01*
X102339446Y-80411475D01*
X102339442Y-80411468D01*
X102238267Y-80279614D01*
X102213073Y-80214445D01*
X102227111Y-80146000D01*
X102275925Y-80096011D01*
X102344017Y-80080347D01*
X102384096Y-80089567D01*
X102423895Y-80106052D01*
X102423900Y-80106054D01*
X102658211Y-80168838D01*
X102838586Y-80192584D01*
X102898711Y-80200500D01*
X102898712Y-80200500D01*
X103141289Y-80200500D01*
X103189388Y-80194167D01*
X103381789Y-80168838D01*
X103616100Y-80106054D01*
X103840212Y-80013224D01*
X104050289Y-79891936D01*
X104242738Y-79744265D01*
X104414265Y-79572738D01*
X104561936Y-79380289D01*
X104683224Y-79170212D01*
X104776054Y-78946100D01*
X104838838Y-78711789D01*
X104870500Y-78471288D01*
X104870500Y-78228712D01*
X104870500Y-78228711D01*
X112599500Y-78228711D01*
X112599500Y-78471288D01*
X112631161Y-78711785D01*
X112693947Y-78946104D01*
X112786773Y-79170205D01*
X112786776Y-79170212D01*
X112908064Y-79380289D01*
X112908066Y-79380292D01*
X112908067Y-79380293D01*
X113055733Y-79572736D01*
X113055739Y-79572743D01*
X113227256Y-79744260D01*
X113227262Y-79744265D01*
X113419711Y-79891936D01*
X113629788Y-80013224D01*
X113853900Y-80106054D01*
X114088211Y-80168838D01*
X114268586Y-80192584D01*
X114328711Y-80200500D01*
X114328712Y-80200500D01*
X114571289Y-80200500D01*
X114619388Y-80194167D01*
X114811789Y-80168838D01*
X115046100Y-80106054D01*
X115085903Y-80089566D01*
X115155372Y-80082098D01*
X115217851Y-80113373D01*
X115253504Y-80173461D01*
X115251011Y-80243286D01*
X115231732Y-80279614D01*
X115130564Y-80411458D01*
X115130553Y-80411475D01*
X115014188Y-80613023D01*
X115014180Y-80613039D01*
X114925120Y-80828052D01*
X114864878Y-81052877D01*
X114834501Y-81283617D01*
X114834500Y-81283634D01*
X114834500Y-81516365D01*
X114834501Y-81516382D01*
X114864878Y-81747122D01*
X114925120Y-81971947D01*
X115014180Y-82186960D01*
X115014188Y-82186976D01*
X115130553Y-82388524D01*
X115130564Y-82388540D01*
X115272242Y-82573179D01*
X115272248Y-82573186D01*
X115436813Y-82737751D01*
X115436819Y-82737756D01*
X115621468Y-82879442D01*
X115621475Y-82879446D01*
X115823023Y-82995811D01*
X115823039Y-82995819D01*
X116038052Y-83084879D01*
X116038054Y-83084879D01*
X116038060Y-83084882D01*
X116262874Y-83145121D01*
X116493628Y-83175500D01*
X116493635Y-83175500D01*
X116726365Y-83175500D01*
X116726372Y-83175500D01*
X116957126Y-83145121D01*
X117181940Y-83084882D01*
X117239953Y-83060852D01*
X117396960Y-82995819D01*
X117396963Y-82995817D01*
X117396969Y-82995815D01*
X117598532Y-82879442D01*
X117783181Y-82737756D01*
X117947756Y-82573181D01*
X118089442Y-82388532D01*
X118205815Y-82186969D01*
X118294882Y-81971940D01*
X118355121Y-81747126D01*
X118385500Y-81516372D01*
X118385500Y-81283628D01*
X118355121Y-81052874D01*
X118294882Y-80828060D01*
X118294879Y-80828052D01*
X118205819Y-80613039D01*
X118205811Y-80613023D01*
X118089446Y-80411475D01*
X118089442Y-80411468D01*
X117947756Y-80226819D01*
X117947751Y-80226813D01*
X117783186Y-80062248D01*
X117783179Y-80062242D01*
X117598540Y-79920564D01*
X117598538Y-79920562D01*
X117598532Y-79920558D01*
X117598527Y-79920555D01*
X117598524Y-79920553D01*
X117396976Y-79804188D01*
X117396960Y-79804180D01*
X117181947Y-79715120D01*
X117118894Y-79698225D01*
X116957126Y-79654879D01*
X116957125Y-79654878D01*
X116957122Y-79654878D01*
X116726382Y-79624501D01*
X116726377Y-79624500D01*
X116726372Y-79624500D01*
X116493628Y-79624500D01*
X116493622Y-79624500D01*
X116493617Y-79624501D01*
X116262877Y-79654878D01*
X116038056Y-79715119D01*
X116021362Y-79722034D01*
X115951892Y-79729501D01*
X115889414Y-79698225D01*
X115853762Y-79638136D01*
X115856257Y-79568311D01*
X115875535Y-79531986D01*
X115991936Y-79380289D01*
X116113224Y-79170212D01*
X116206054Y-78946100D01*
X116268838Y-78711789D01*
X116300500Y-78471288D01*
X116300500Y-78228712D01*
X116268838Y-77988211D01*
X116206054Y-77753900D01*
X116113224Y-77529788D01*
X115991936Y-77319711D01*
X115844265Y-77127262D01*
X115844260Y-77127256D01*
X115672743Y-76955739D01*
X115672736Y-76955733D01*
X115480293Y-76808067D01*
X115480292Y-76808066D01*
X115480289Y-76808064D01*
X115270212Y-76686776D01*
X115270205Y-76686773D01*
X115046104Y-76593947D01*
X114811785Y-76531161D01*
X114571289Y-76499500D01*
X114571288Y-76499500D01*
X114328712Y-76499500D01*
X114328711Y-76499500D01*
X114088214Y-76531161D01*
X113853895Y-76593947D01*
X113629794Y-76686773D01*
X113629785Y-76686777D01*
X113447851Y-76791817D01*
X113429657Y-76802322D01*
X113419706Y-76808067D01*
X113227263Y-76955733D01*
X113227256Y-76955739D01*
X113055739Y-77127256D01*
X113055733Y-77127263D01*
X112908067Y-77319706D01*
X112786777Y-77529785D01*
X112786773Y-77529794D01*
X112693947Y-77753895D01*
X112631161Y-77988214D01*
X112599500Y-78228711D01*
X104870500Y-78228711D01*
X104838838Y-77988211D01*
X104776054Y-77753900D01*
X104683224Y-77529788D01*
X104561936Y-77319711D01*
X104414265Y-77127262D01*
X104414260Y-77127256D01*
X104242743Y-76955739D01*
X104242736Y-76955733D01*
X104050293Y-76808067D01*
X104050292Y-76808066D01*
X104050289Y-76808064D01*
X103840212Y-76686776D01*
X103840205Y-76686773D01*
X103616104Y-76593947D01*
X103381785Y-76531161D01*
X103141289Y-76499500D01*
X103141288Y-76499500D01*
X102898712Y-76499500D01*
X102898711Y-76499500D01*
X102658214Y-76531161D01*
X102423895Y-76593947D01*
X102199794Y-76686773D01*
X102199785Y-76686777D01*
X102017851Y-76791817D01*
X101999657Y-76802322D01*
X101989706Y-76808067D01*
X101797263Y-76955733D01*
X101797256Y-76955739D01*
X101625739Y-77127256D01*
X101625733Y-77127263D01*
X101478067Y-77319706D01*
X101356777Y-77529785D01*
X101356773Y-77529794D01*
X101263947Y-77753895D01*
X101201161Y-77988214D01*
X101169500Y-78228711D01*
X101169500Y-78471288D01*
X101201161Y-78711785D01*
X101263947Y-78946104D01*
X101356773Y-79170205D01*
X101356776Y-79170212D01*
X101478064Y-79380289D01*
X101478066Y-79380292D01*
X101478067Y-79380293D01*
X101594464Y-79531986D01*
X101619658Y-79597155D01*
X101605619Y-79665600D01*
X101556805Y-79715590D01*
X101488714Y-79731253D01*
X101448635Y-79722033D01*
X101431944Y-79715119D01*
X101207122Y-79654878D01*
X100976382Y-79624501D01*
X100976377Y-79624500D01*
X100976372Y-79624500D01*
X100743628Y-79624500D01*
X100743622Y-79624500D01*
X100743617Y-79624501D01*
X100512877Y-79654878D01*
X100288052Y-79715120D01*
X100073039Y-79804180D01*
X100073023Y-79804188D01*
X99871475Y-79920553D01*
X99871459Y-79920564D01*
X99686820Y-80062242D01*
X99686813Y-80062248D01*
X99522248Y-80226813D01*
X99522242Y-80226820D01*
X99382876Y-80408446D01*
X99326448Y-80449649D01*
X99256702Y-80453804D01*
X99195782Y-80419592D01*
X99163029Y-80357874D01*
X99160500Y-80332960D01*
X99160500Y-76041004D01*
X99133581Y-75905677D01*
X99133580Y-75905676D01*
X99133580Y-75905672D01*
X99124944Y-75884823D01*
X99080778Y-75778195D01*
X99080771Y-75778182D01*
X99004115Y-75663459D01*
X99004114Y-75663458D01*
X98906542Y-75565886D01*
X98523259Y-75182603D01*
X97958244Y-74617587D01*
X97875435Y-74534778D01*
X119684500Y-74534778D01*
X119684500Y-74755221D01*
X119718985Y-74972952D01*
X119787103Y-75182603D01*
X119787104Y-75182606D01*
X119887187Y-75379025D01*
X120016752Y-75557358D01*
X120016756Y-75557363D01*
X120172636Y-75713243D01*
X120172641Y-75713247D01*
X120328192Y-75826260D01*
X120350978Y-75842815D01*
X120474331Y-75905667D01*
X120547393Y-75942895D01*
X120547396Y-75942896D01*
X120652221Y-75976955D01*
X120757049Y-76011015D01*
X120974778Y-76045500D01*
X120974779Y-76045500D01*
X121195221Y-76045500D01*
X121195222Y-76045500D01*
X121412951Y-76011015D01*
X121622606Y-75942895D01*
X121819022Y-75842815D01*
X121997365Y-75713242D01*
X122153242Y-75557365D01*
X122282815Y-75379022D01*
X122382895Y-75182606D01*
X122434176Y-75024778D01*
X124404500Y-75024778D01*
X124404500Y-75245221D01*
X124438985Y-75462952D01*
X124507103Y-75672603D01*
X124507104Y-75672606D01*
X124560899Y-75778182D01*
X124601669Y-75858197D01*
X124607187Y-75869025D01*
X124736752Y-76047358D01*
X124736756Y-76047363D01*
X124892636Y-76203243D01*
X124892641Y-76203247D01*
X125048192Y-76316260D01*
X125070978Y-76332815D01*
X125199375Y-76398237D01*
X125267393Y-76432895D01*
X125267396Y-76432896D01*
X125372221Y-76466955D01*
X125477049Y-76501015D01*
X125694778Y-76535500D01*
X125694779Y-76535500D01*
X125915221Y-76535500D01*
X125915222Y-76535500D01*
X126132951Y-76501015D01*
X126342606Y-76432895D01*
X126539022Y-76332815D01*
X126717365Y-76203242D01*
X126873242Y-76047365D01*
X126949143Y-75942896D01*
X126979682Y-75900863D01*
X127035011Y-75858197D01*
X127104625Y-75852218D01*
X127166420Y-75884823D01*
X127180318Y-75900863D01*
X127286752Y-76047358D01*
X127286756Y-76047363D01*
X127442636Y-76203243D01*
X127442641Y-76203247D01*
X127598192Y-76316260D01*
X127620978Y-76332815D01*
X127749375Y-76398237D01*
X127817393Y-76432895D01*
X127817396Y-76432896D01*
X127922221Y-76466955D01*
X128027049Y-76501015D01*
X128244778Y-76535500D01*
X128244779Y-76535500D01*
X128465221Y-76535500D01*
X128465222Y-76535500D01*
X128682951Y-76501015D01*
X128892606Y-76432895D01*
X129089022Y-76332815D01*
X129267365Y-76203242D01*
X129423242Y-76047365D01*
X129552815Y-75869022D01*
X129652895Y-75672606D01*
X129721015Y-75462951D01*
X129755500Y-75245222D01*
X129755500Y-75024778D01*
X129721015Y-74807049D01*
X129652895Y-74597394D01*
X129652895Y-74597393D01*
X129601314Y-74496162D01*
X129552815Y-74400978D01*
X129536260Y-74378192D01*
X129423247Y-74222641D01*
X129423243Y-74222636D01*
X129267363Y-74066756D01*
X129267358Y-74066752D01*
X129089025Y-73937187D01*
X129089024Y-73937186D01*
X129089022Y-73937185D01*
X129006756Y-73895268D01*
X128892606Y-73837104D01*
X128892603Y-73837103D01*
X128682952Y-73768985D01*
X128574086Y-73751742D01*
X128465222Y-73734500D01*
X128244778Y-73734500D01*
X128172201Y-73745995D01*
X128027047Y-73768985D01*
X127817396Y-73837103D01*
X127817393Y-73837104D01*
X127620974Y-73937187D01*
X127442641Y-74066752D01*
X127442636Y-74066756D01*
X127286756Y-74222636D01*
X127286752Y-74222641D01*
X127180318Y-74369136D01*
X127124988Y-74411802D01*
X127055375Y-74417781D01*
X126993580Y-74385175D01*
X126979682Y-74369136D01*
X126873247Y-74222641D01*
X126873243Y-74222636D01*
X126717363Y-74066756D01*
X126717358Y-74066752D01*
X126539025Y-73937187D01*
X126539024Y-73937186D01*
X126539022Y-73937185D01*
X126456756Y-73895268D01*
X126342606Y-73837104D01*
X126342603Y-73837103D01*
X126132952Y-73768985D01*
X126024086Y-73751742D01*
X125915222Y-73734500D01*
X125694778Y-73734500D01*
X125622201Y-73745995D01*
X125477047Y-73768985D01*
X125267396Y-73837103D01*
X125267393Y-73837104D01*
X125070974Y-73937187D01*
X124892641Y-74066752D01*
X124892636Y-74066756D01*
X124736756Y-74222636D01*
X124736752Y-74222641D01*
X124607187Y-74400974D01*
X124507104Y-74597393D01*
X124507103Y-74597396D01*
X124438985Y-74807047D01*
X124404500Y-75024778D01*
X122434176Y-75024778D01*
X122451015Y-74972951D01*
X122485500Y-74755222D01*
X122485500Y-74534778D01*
X122451015Y-74317049D01*
X122382895Y-74107394D01*
X122382895Y-74107393D01*
X122290214Y-73925500D01*
X122282815Y-73910978D01*
X122250313Y-73866243D01*
X122153247Y-73732641D01*
X122153243Y-73732636D01*
X121997363Y-73576756D01*
X121997358Y-73576752D01*
X121819025Y-73447187D01*
X121819024Y-73447186D01*
X121819022Y-73447185D01*
X121721046Y-73397263D01*
X121622606Y-73347104D01*
X121622603Y-73347103D01*
X121412952Y-73278985D01*
X121304086Y-73261742D01*
X121195222Y-73244500D01*
X120974778Y-73244500D01*
X120902201Y-73255995D01*
X120757047Y-73278985D01*
X120547396Y-73347103D01*
X120547393Y-73347104D01*
X120350974Y-73447187D01*
X120172641Y-73576752D01*
X120172636Y-73576756D01*
X120016756Y-73732636D01*
X120016752Y-73732641D01*
X119887187Y-73910974D01*
X119787104Y-74107393D01*
X119787103Y-74107396D01*
X119718985Y-74317047D01*
X119684500Y-74534778D01*
X97875435Y-74534778D01*
X97836819Y-74496162D01*
X97803334Y-74434839D01*
X97800500Y-74408481D01*
X97800500Y-73925500D01*
X97820185Y-73858461D01*
X97872989Y-73812706D01*
X97924500Y-73801500D01*
X110877996Y-73801500D01*
X110969040Y-73783389D01*
X111013328Y-73774580D01*
X111110090Y-73734500D01*
X111140807Y-73721777D01*
X111140808Y-73721776D01*
X111140811Y-73721775D01*
X111255543Y-73645114D01*
X111671254Y-73229401D01*
X111732577Y-73195917D01*
X111778333Y-73194610D01*
X111815519Y-73200500D01*
X111815520Y-73200500D01*
X112004486Y-73200500D01*
X112191118Y-73170940D01*
X112370832Y-73112547D01*
X112539199Y-73026760D01*
X112692073Y-72915690D01*
X112825690Y-72782073D01*
X112936760Y-72629199D01*
X113022547Y-72460832D01*
X113080940Y-72281118D01*
X113094727Y-72194069D01*
X113110500Y-72094486D01*
X113110500Y-71905513D01*
X113084744Y-71742898D01*
X113093699Y-71673605D01*
X113138695Y-71620153D01*
X113205446Y-71599513D01*
X113207217Y-71599500D01*
X122298832Y-71599500D01*
X122299612Y-71599500D01*
X122299726Y-71599469D01*
X122303230Y-71599470D01*
X122314986Y-71597133D01*
X122318082Y-71596680D01*
X122349689Y-71601138D01*
X122381467Y-71603986D01*
X122384039Y-71605984D01*
X122387267Y-71606440D01*
X122411440Y-71627274D01*
X122436640Y-71646854D01*
X122437724Y-71649927D01*
X122440192Y-71652055D01*
X122449263Y-71682648D01*
X122459878Y-71712746D01*
X122460045Y-71719009D01*
X122460055Y-71719042D01*
X122460046Y-71719069D01*
X122460055Y-71719371D01*
X122460055Y-71841323D01*
X122460099Y-71841772D01*
X122492390Y-72004134D01*
X122492392Y-72004140D01*
X122555731Y-72157074D01*
X122555735Y-72157083D01*
X122555780Y-72157150D01*
X122647697Y-72294734D01*
X122647699Y-72294736D01*
X122647702Y-72294740D01*
X122764742Y-72411801D01*
X122764747Y-72411806D01*
X122902376Y-72503789D01*
X122902381Y-72503792D01*
X123055310Y-72567162D01*
X123055311Y-72567163D01*
X123136491Y-72583324D01*
X123217670Y-72599486D01*
X123217671Y-72599486D01*
X123221450Y-72599486D01*
X123221498Y-72599500D01*
X123300440Y-72599500D01*
X123300442Y-72599500D01*
X123373356Y-72599513D01*
X123373360Y-72599511D01*
X123380688Y-72599513D01*
X123380921Y-72599500D01*
X123502926Y-72599500D01*
X123503226Y-72599469D01*
X123503230Y-72599470D01*
X123503234Y-72599469D01*
X123503236Y-72599469D01*
X123556779Y-72588827D01*
X123665629Y-72567195D01*
X123818609Y-72503853D01*
X123956290Y-72411881D01*
X124073380Y-72294813D01*
X124165379Y-72157149D01*
X124182930Y-72114782D01*
X124226771Y-72060383D01*
X124293066Y-72038320D01*
X124360765Y-72055601D01*
X124408374Y-72106740D01*
X124419961Y-72142843D01*
X124438984Y-72262952D01*
X124507103Y-72472603D01*
X124507104Y-72472606D01*
X124571746Y-72599469D01*
X124601669Y-72658197D01*
X124607187Y-72669025D01*
X124736752Y-72847358D01*
X124736756Y-72847363D01*
X124892636Y-73003243D01*
X124892641Y-73003247D01*
X125006318Y-73085837D01*
X125070978Y-73132815D01*
X125172858Y-73184726D01*
X125267393Y-73232895D01*
X125267396Y-73232896D01*
X125372221Y-73266955D01*
X125477049Y-73301015D01*
X125694778Y-73335500D01*
X125694779Y-73335500D01*
X125915221Y-73335500D01*
X125915222Y-73335500D01*
X126132951Y-73301015D01*
X126342606Y-73232895D01*
X126539022Y-73132815D01*
X126717365Y-73003242D01*
X126873242Y-72847365D01*
X126920678Y-72782075D01*
X126979682Y-72700863D01*
X127035011Y-72658197D01*
X127104625Y-72652218D01*
X127166420Y-72684823D01*
X127180318Y-72700863D01*
X127286752Y-72847358D01*
X127286756Y-72847363D01*
X127442636Y-73003243D01*
X127442641Y-73003247D01*
X127556318Y-73085837D01*
X127620978Y-73132815D01*
X127722858Y-73184726D01*
X127817393Y-73232895D01*
X127817396Y-73232896D01*
X127922221Y-73266955D01*
X128027049Y-73301015D01*
X128244778Y-73335500D01*
X128244779Y-73335500D01*
X128465221Y-73335500D01*
X128465222Y-73335500D01*
X128682951Y-73301015D01*
X128892606Y-73232895D01*
X129089022Y-73132815D01*
X129267365Y-73003242D01*
X129423242Y-72847365D01*
X129552815Y-72669022D01*
X129652895Y-72472606D01*
X129721015Y-72262951D01*
X129755500Y-72045222D01*
X129755500Y-71824778D01*
X129721015Y-71607049D01*
X129652895Y-71397394D01*
X129652895Y-71397393D01*
X129618237Y-71329375D01*
X129552815Y-71200978D01*
X129524373Y-71161831D01*
X129423247Y-71022641D01*
X129423243Y-71022636D01*
X129267363Y-70866756D01*
X129267358Y-70866752D01*
X129089025Y-70737187D01*
X129089024Y-70737186D01*
X129089022Y-70737185D01*
X129026096Y-70705122D01*
X128892606Y-70637104D01*
X128892603Y-70637103D01*
X128682952Y-70568985D01*
X128574086Y-70551742D01*
X128465222Y-70534500D01*
X128244778Y-70534500D01*
X128236217Y-70535856D01*
X128027047Y-70568985D01*
X127817396Y-70637103D01*
X127817393Y-70637104D01*
X127620974Y-70737187D01*
X127442641Y-70866752D01*
X127442636Y-70866756D01*
X127286756Y-71022636D01*
X127286752Y-71022641D01*
X127180318Y-71169136D01*
X127124988Y-71211802D01*
X127055375Y-71217781D01*
X126993580Y-71185175D01*
X126979682Y-71169136D01*
X126873247Y-71022641D01*
X126873243Y-71022636D01*
X126717363Y-70866756D01*
X126717358Y-70866752D01*
X126539025Y-70737187D01*
X126539024Y-70737186D01*
X126539022Y-70737185D01*
X126476096Y-70705122D01*
X126342606Y-70637104D01*
X126342603Y-70637103D01*
X126132952Y-70568985D01*
X126024086Y-70551742D01*
X125915222Y-70534500D01*
X125694778Y-70534500D01*
X125686217Y-70535856D01*
X125477047Y-70568985D01*
X125406796Y-70591811D01*
X125336955Y-70593806D01*
X125295645Y-70574236D01*
X125287721Y-70568485D01*
X125237716Y-70518480D01*
X125150904Y-70468360D01*
X125100785Y-70439423D01*
X124953003Y-70399824D01*
X124893346Y-70363461D01*
X124862817Y-70300614D01*
X124861100Y-70280052D01*
X124861099Y-70216479D01*
X124861099Y-70156208D01*
X124828792Y-69993807D01*
X124765418Y-69840830D01*
X124673415Y-69703159D01*
X124673413Y-69703157D01*
X124673410Y-69703153D01*
X124556321Y-69586085D01*
X124556315Y-69586081D01*
X124418634Y-69494109D01*
X124418631Y-69494107D01*
X124418630Y-69494107D01*
X124265642Y-69430762D01*
X124265637Y-69430761D01*
X124265635Y-69430760D01*
X124103237Y-69398485D01*
X124103236Y-69398485D01*
X124103234Y-69398485D01*
X124020442Y-69398500D01*
X123980921Y-69398500D01*
X123980688Y-69398486D01*
X123973357Y-69398487D01*
X123973356Y-69398487D01*
X123951854Y-69398490D01*
X123951701Y-69398446D01*
X123817665Y-69398469D01*
X123817660Y-69398470D01*
X123655300Y-69430793D01*
X123655297Y-69430794D01*
X123502360Y-69494167D01*
X123502357Y-69494169D01*
X123429461Y-69542889D01*
X123362786Y-69563774D01*
X123295404Y-69545297D01*
X123291681Y-69542905D01*
X123218630Y-69494107D01*
X123065642Y-69430762D01*
X123065637Y-69430761D01*
X123065635Y-69430760D01*
X122903237Y-69398485D01*
X122903236Y-69398485D01*
X122903234Y-69398485D01*
X122820442Y-69398500D01*
X122780921Y-69398500D01*
X122780688Y-69398486D01*
X122773357Y-69398487D01*
X122773356Y-69398487D01*
X122751854Y-69398490D01*
X122751701Y-69398446D01*
X122617665Y-69398469D01*
X122617660Y-69398470D01*
X122455300Y-69430793D01*
X122455297Y-69430794D01*
X122302360Y-69494167D01*
X122302355Y-69494170D01*
X122164716Y-69586161D01*
X122164710Y-69586166D01*
X122047667Y-69703230D01*
X122047664Y-69703234D01*
X121955695Y-69840894D01*
X121955691Y-69840903D01*
X121892349Y-69993845D01*
X121892347Y-69993851D01*
X121860054Y-70156223D01*
X121860055Y-70198302D01*
X121860055Y-70274500D01*
X121840370Y-70341539D01*
X121787566Y-70387294D01*
X121736055Y-70398500D01*
X114225403Y-70398500D01*
X114158364Y-70378815D01*
X114112609Y-70326011D01*
X114102665Y-70256853D01*
X114125085Y-70201614D01*
X114206760Y-70089199D01*
X114292547Y-69920832D01*
X114350940Y-69741118D01*
X114356952Y-69703159D01*
X114380500Y-69554486D01*
X114380500Y-69365513D01*
X114350940Y-69178881D01*
X114292545Y-68999163D01*
X114206759Y-68830800D01*
X114095690Y-68677927D01*
X113962073Y-68544310D01*
X113809199Y-68433240D01*
X113640836Y-68347454D01*
X113461118Y-68289059D01*
X113274486Y-68259500D01*
X113274481Y-68259500D01*
X113085519Y-68259500D01*
X113085514Y-68259500D01*
X112926247Y-68284725D01*
X112920821Y-68284023D01*
X112915695Y-68285936D01*
X112886539Y-68279593D01*
X112856953Y-68275770D01*
X112851349Y-68271938D01*
X112847422Y-68271084D01*
X112819168Y-68249933D01*
X112666590Y-68097355D01*
X112666588Y-68097352D01*
X112547717Y-67978481D01*
X112547716Y-67978480D01*
X112460904Y-67928360D01*
X112460904Y-67928359D01*
X112460900Y-67928358D01*
X112410785Y-67899423D01*
X112258057Y-67858499D01*
X112099943Y-67858499D01*
X112092347Y-67858499D01*
X112092331Y-67858500D01*
X93587670Y-67858500D01*
X93587654Y-67858499D01*
X93580058Y-67858499D01*
X93421943Y-67858499D01*
X93345579Y-67878961D01*
X93269214Y-67899423D01*
X93269209Y-67899426D01*
X93132290Y-67978475D01*
X93132286Y-67978478D01*
X92860829Y-68249934D01*
X92799506Y-68283418D01*
X92753750Y-68284725D01*
X92594486Y-68259500D01*
X92594481Y-68259500D01*
X92405519Y-68259500D01*
X92405514Y-68259500D01*
X92218881Y-68289059D01*
X92039163Y-68347454D01*
X91870800Y-68433240D01*
X91783579Y-68496610D01*
X91717927Y-68544310D01*
X91717925Y-68544312D01*
X91717924Y-68544312D01*
X91584312Y-68677924D01*
X91584312Y-68677925D01*
X91584310Y-68677927D01*
X91536610Y-68743579D01*
X91473240Y-68830800D01*
X91387454Y-68999163D01*
X91347931Y-69120803D01*
X91308493Y-69178478D01*
X91244134Y-69205676D01*
X91175288Y-69193761D01*
X91123812Y-69146516D01*
X91112069Y-69120803D01*
X91072545Y-68999163D01*
X90986759Y-68830800D01*
X90875690Y-68677927D01*
X90742073Y-68544310D01*
X90589199Y-68433240D01*
X90420836Y-68347454D01*
X90241118Y-68289059D01*
X90054486Y-68259500D01*
X90054481Y-68259500D01*
X89865519Y-68259500D01*
X89865514Y-68259500D01*
X89678881Y-68289059D01*
X89499163Y-68347454D01*
X89330800Y-68433240D01*
X89243579Y-68496610D01*
X89177927Y-68544310D01*
X89177925Y-68544312D01*
X89177924Y-68544312D01*
X89044312Y-68677924D01*
X89044312Y-68677925D01*
X89044310Y-68677927D01*
X88996610Y-68743579D01*
X88933240Y-68830800D01*
X88847454Y-68999163D01*
X88807931Y-69120803D01*
X88768493Y-69178478D01*
X88704134Y-69205676D01*
X88635288Y-69193761D01*
X88583812Y-69146516D01*
X88572069Y-69120803D01*
X88532545Y-68999163D01*
X88446759Y-68830800D01*
X88335690Y-68677927D01*
X88202073Y-68544310D01*
X88049199Y-68433240D01*
X87880836Y-68347454D01*
X87701118Y-68289059D01*
X87514486Y-68259500D01*
X87514481Y-68259500D01*
X87325519Y-68259500D01*
X87325514Y-68259500D01*
X87138881Y-68289059D01*
X86959163Y-68347454D01*
X86790800Y-68433240D01*
X86703579Y-68496610D01*
X86637927Y-68544310D01*
X86637925Y-68544312D01*
X86637924Y-68544312D01*
X86504312Y-68677924D01*
X86504312Y-68677925D01*
X86504310Y-68677927D01*
X86456610Y-68743579D01*
X86393240Y-68830800D01*
X86307454Y-68999163D01*
X86267931Y-69120803D01*
X86228493Y-69178478D01*
X86164134Y-69205676D01*
X86095288Y-69193761D01*
X86043812Y-69146516D01*
X86032069Y-69120803D01*
X85992545Y-68999163D01*
X85906759Y-68830800D01*
X85795690Y-68677927D01*
X85662073Y-68544310D01*
X85509199Y-68433240D01*
X85340836Y-68347454D01*
X85161118Y-68289059D01*
X84974486Y-68259500D01*
X84974481Y-68259500D01*
X84785519Y-68259500D01*
X84785514Y-68259500D01*
X84598881Y-68289059D01*
X84419163Y-68347454D01*
X84250800Y-68433240D01*
X84163579Y-68496610D01*
X84097927Y-68544310D01*
X84097925Y-68544312D01*
X84097924Y-68544312D01*
X83964312Y-68677924D01*
X83964312Y-68677925D01*
X83964310Y-68677927D01*
X83916610Y-68743579D01*
X83853240Y-68830800D01*
X83767454Y-68999163D01*
X83709059Y-69178881D01*
X83679500Y-69365513D01*
X83679500Y-69554486D01*
X83709059Y-69741118D01*
X83767454Y-69920836D01*
X83853240Y-70089199D01*
X83964310Y-70242073D01*
X84097927Y-70375690D01*
X84228386Y-70470474D01*
X84231725Y-70474804D01*
X84236703Y-70477078D01*
X84252835Y-70502180D01*
X84271051Y-70525803D01*
X84272303Y-70532474D01*
X84274477Y-70535856D01*
X84279500Y-70570791D01*
X84279500Y-70675500D01*
X84259815Y-70742539D01*
X84207011Y-70788294D01*
X84155500Y-70799500D01*
X82862129Y-70799500D01*
X82862123Y-70799501D01*
X82802516Y-70805908D01*
X82667671Y-70856202D01*
X82667664Y-70856206D01*
X82552455Y-70942452D01*
X82552452Y-70942455D01*
X82466206Y-71057664D01*
X82466202Y-71057671D01*
X82415908Y-71192517D01*
X82409501Y-71252116D01*
X82409500Y-71252135D01*
X82409500Y-72747870D01*
X82409501Y-72747876D01*
X82415908Y-72807483D01*
X82466202Y-72942328D01*
X82466206Y-72942335D01*
X82552452Y-73057544D01*
X82552455Y-73057547D01*
X82667664Y-73143793D01*
X82667671Y-73143797D01*
X82802517Y-73194091D01*
X82802516Y-73194091D01*
X82807344Y-73194610D01*
X82862127Y-73200500D01*
X83566500Y-73200499D01*
X83633539Y-73220183D01*
X83679294Y-73272987D01*
X83690500Y-73324499D01*
X83690500Y-76802322D01*
X83670815Y-76869361D01*
X83618011Y-76915116D01*
X83548853Y-76925060D01*
X83491014Y-76900698D01*
X83370293Y-76808067D01*
X83370292Y-76808066D01*
X83370289Y-76808064D01*
X83160212Y-76686776D01*
X83160205Y-76686773D01*
X82936104Y-76593947D01*
X82701785Y-76531161D01*
X82461289Y-76499500D01*
X82461288Y-76499500D01*
X82218712Y-76499500D01*
X82218711Y-76499500D01*
X81978214Y-76531161D01*
X81743895Y-76593947D01*
X81519794Y-76686773D01*
X81519785Y-76686777D01*
X81337851Y-76791817D01*
X81319657Y-76802322D01*
X81309706Y-76808067D01*
X81117263Y-76955733D01*
X81117256Y-76955739D01*
X80945739Y-77127256D01*
X80945733Y-77127263D01*
X80798067Y-77319706D01*
X80676777Y-77529785D01*
X80676773Y-77529794D01*
X80583947Y-77753895D01*
X80521161Y-77988214D01*
X80489500Y-78228711D01*
X80489500Y-78471288D01*
X80521161Y-78711785D01*
X80583947Y-78946104D01*
X80676773Y-79170205D01*
X80676776Y-79170212D01*
X80798064Y-79380289D01*
X80798066Y-79380292D01*
X80798067Y-79380293D01*
X80914464Y-79531986D01*
X80939658Y-79597155D01*
X80925619Y-79665600D01*
X80876805Y-79715590D01*
X80808714Y-79731253D01*
X80768635Y-79722033D01*
X80751944Y-79715119D01*
X80527122Y-79654878D01*
X80296382Y-79624501D01*
X80296377Y-79624500D01*
X80296372Y-79624500D01*
X80063628Y-79624500D01*
X80063622Y-79624500D01*
X80063617Y-79624501D01*
X79832877Y-79654878D01*
X79608052Y-79715120D01*
X79393039Y-79804180D01*
X79393023Y-79804188D01*
X79191475Y-79920553D01*
X79191459Y-79920564D01*
X79006820Y-80062242D01*
X79006813Y-80062248D01*
X78842248Y-80226813D01*
X78842242Y-80226820D01*
X78700564Y-80411459D01*
X78700553Y-80411475D01*
X78584188Y-80613023D01*
X78584180Y-80613039D01*
X78495120Y-80828052D01*
X78434878Y-81052877D01*
X78404501Y-81283617D01*
X78404500Y-81283634D01*
X78000500Y-81283634D01*
X78000500Y-67624500D01*
X78020185Y-67557461D01*
X78072989Y-67511706D01*
X78124500Y-67500500D01*
X134375500Y-67500500D01*
X134442539Y-67520185D01*
G37*
G04 #@! TD.AperFunction*
M02*
