G04 #@! TF.GenerationSoftware,KiCad,Pcbnew,9.0.1*
G04 #@! TF.CreationDate,2025-11-10T23:51:25+01:00*
G04 #@! TF.ProjectId,CAN Tram Adapter,43414e20-5472-4616-9d20-416461707465,rev?*
G04 #@! TF.SameCoordinates,Original*
G04 #@! TF.FileFunction,Legend,Top*
G04 #@! TF.FilePolarity,Positive*
%FSLAX46Y46*%
G04 Gerber Fmt 4.6, Leading zero omitted, Abs format (unit mm)*
G04 Created by KiCad (PCBNEW 9.0.1) date 2025-11-10 23:51:25*
%MOMM*%
%LPD*%
G01*
G04 APERTURE LIST*
G04 Aperture macros list*
%AMRoundRect*
0 Rectangle with rounded corners*
0 $1 Rounding radius*
0 $2 $3 $4 $5 $6 $7 $8 $9 X,Y pos of 4 corners*
0 Add a 4 corners polygon primitive as box body*
4,1,4,$2,$3,$4,$5,$6,$7,$8,$9,$2,$3,0*
0 Add four circle primitives for the rounded corners*
1,1,$1+$1,$2,$3*
1,1,$1+$1,$4,$5*
1,1,$1+$1,$6,$7*
1,1,$1+$1,$8,$9*
0 Add four rect primitives between the rounded corners*
20,1,$1+$1,$2,$3,$4,$5,0*
20,1,$1+$1,$4,$5,$6,$7,0*
20,1,$1+$1,$6,$7,$8,$9,0*
20,1,$1+$1,$8,$9,$2,$3,0*%
G04 Aperture macros list end*
%ADD10C,0.100000*%
%ADD11C,0.254000*%
%ADD12C,0.150000*%
%ADD13C,0.200000*%
%ADD14C,0.120000*%
%ADD15R,1.700000X1.700000*%
%ADD16C,1.700000*%
%ADD17C,3.200000*%
%ADD18C,2.550000*%
%ADD19C,1.400000*%
%ADD20R,1.400000X1.400000*%
%ADD21C,1.800000*%
%ADD22C,1.000000*%
%ADD23C,1.600000*%
%ADD24O,1.600000X1.600000*%
%ADD25RoundRect,0.250000X-1.050000X-1.050000X1.050000X-1.050000X1.050000X1.050000X-1.050000X1.050000X0*%
%ADD26C,2.600000*%
%ADD27R,1.800000X1.800000*%
G04 APERTURE END LIST*
D10*
X128122931Y-80705038D02*
X128065789Y-80657419D01*
X128065789Y-80657419D02*
X127980074Y-80657419D01*
X127980074Y-80657419D02*
X127894360Y-80705038D01*
X127894360Y-80705038D02*
X127837217Y-80800276D01*
X127837217Y-80800276D02*
X127808646Y-80895514D01*
X127808646Y-80895514D02*
X127780074Y-81085990D01*
X127780074Y-81085990D02*
X127780074Y-81228847D01*
X127780074Y-81228847D02*
X127808646Y-81419323D01*
X127808646Y-81419323D02*
X127837217Y-81514561D01*
X127837217Y-81514561D02*
X127894360Y-81609800D01*
X127894360Y-81609800D02*
X127980074Y-81657419D01*
X127980074Y-81657419D02*
X128037217Y-81657419D01*
X128037217Y-81657419D02*
X128122931Y-81609800D01*
X128122931Y-81609800D02*
X128151503Y-81562180D01*
X128151503Y-81562180D02*
X128151503Y-81228847D01*
X128151503Y-81228847D02*
X128037217Y-81228847D01*
X128408646Y-81657419D02*
X128408646Y-80657419D01*
X128408646Y-80657419D02*
X128751503Y-81657419D01*
X128751503Y-81657419D02*
X128751503Y-80657419D01*
X129037217Y-81657419D02*
X129037217Y-80657419D01*
X129037217Y-80657419D02*
X129180074Y-80657419D01*
X129180074Y-80657419D02*
X129265788Y-80705038D01*
X129265788Y-80705038D02*
X129322931Y-80800276D01*
X129322931Y-80800276D02*
X129351502Y-80895514D01*
X129351502Y-80895514D02*
X129380074Y-81085990D01*
X129380074Y-81085990D02*
X129380074Y-81228847D01*
X129380074Y-81228847D02*
X129351502Y-81419323D01*
X129351502Y-81419323D02*
X129322931Y-81514561D01*
X129322931Y-81514561D02*
X129265788Y-81609800D01*
X129265788Y-81609800D02*
X129180074Y-81657419D01*
X129180074Y-81657419D02*
X129037217Y-81657419D01*
X121980074Y-80752657D02*
X122008646Y-80705038D01*
X122008646Y-80705038D02*
X122065789Y-80657419D01*
X122065789Y-80657419D02*
X122208646Y-80657419D01*
X122208646Y-80657419D02*
X122265789Y-80705038D01*
X122265789Y-80705038D02*
X122294360Y-80752657D01*
X122294360Y-80752657D02*
X122322931Y-80847895D01*
X122322931Y-80847895D02*
X122322931Y-80943133D01*
X122322931Y-80943133D02*
X122294360Y-81085990D01*
X122294360Y-81085990D02*
X121951503Y-81657419D01*
X121951503Y-81657419D02*
X122322931Y-81657419D01*
X122837218Y-80990752D02*
X122837218Y-81657419D01*
X122694360Y-80609800D02*
X122551503Y-81324085D01*
X122551503Y-81324085D02*
X122922932Y-81324085D01*
X123522932Y-80657419D02*
X123722932Y-81657419D01*
X123722932Y-81657419D02*
X123922932Y-80657419D01*
X97152447Y-88077068D02*
X97152447Y-87962782D01*
X97152447Y-87962782D02*
X97200066Y-87905639D01*
X97200066Y-87905639D02*
X97295304Y-87848496D01*
X97295304Y-87848496D02*
X97485780Y-87819925D01*
X97485780Y-87819925D02*
X97819113Y-87819925D01*
X97819113Y-87819925D02*
X98009589Y-87848496D01*
X98009589Y-87848496D02*
X98104828Y-87905639D01*
X98104828Y-87905639D02*
X98152447Y-87962782D01*
X98152447Y-87962782D02*
X98152447Y-88077068D01*
X98152447Y-88077068D02*
X98104828Y-88134211D01*
X98104828Y-88134211D02*
X98009589Y-88191353D01*
X98009589Y-88191353D02*
X97819113Y-88219925D01*
X97819113Y-88219925D02*
X97485780Y-88219925D01*
X97485780Y-88219925D02*
X97295304Y-88191353D01*
X97295304Y-88191353D02*
X97200066Y-88134211D01*
X97200066Y-88134211D02*
X97152447Y-88077068D01*
X97485780Y-87562782D02*
X98485780Y-87562782D01*
X97533399Y-87562782D02*
X97485780Y-87505640D01*
X97485780Y-87505640D02*
X97485780Y-87391354D01*
X97485780Y-87391354D02*
X97533399Y-87334211D01*
X97533399Y-87334211D02*
X97581018Y-87305640D01*
X97581018Y-87305640D02*
X97676256Y-87277068D01*
X97676256Y-87277068D02*
X97961970Y-87277068D01*
X97961970Y-87277068D02*
X98057208Y-87305640D01*
X98057208Y-87305640D02*
X98104828Y-87334211D01*
X98104828Y-87334211D02*
X98152447Y-87391354D01*
X98152447Y-87391354D02*
X98152447Y-87505640D01*
X98152447Y-87505640D02*
X98104828Y-87562782D01*
X98104828Y-86791354D02*
X98152447Y-86848497D01*
X98152447Y-86848497D02*
X98152447Y-86962783D01*
X98152447Y-86962783D02*
X98104828Y-87019925D01*
X98104828Y-87019925D02*
X98009589Y-87048497D01*
X98009589Y-87048497D02*
X97628637Y-87048497D01*
X97628637Y-87048497D02*
X97533399Y-87019925D01*
X97533399Y-87019925D02*
X97485780Y-86962783D01*
X97485780Y-86962783D02*
X97485780Y-86848497D01*
X97485780Y-86848497D02*
X97533399Y-86791354D01*
X97533399Y-86791354D02*
X97628637Y-86762783D01*
X97628637Y-86762783D02*
X97723875Y-86762783D01*
X97723875Y-86762783D02*
X97819113Y-87048497D01*
X97485780Y-86505639D02*
X98152447Y-86505639D01*
X97581018Y-86505639D02*
X97533399Y-86477068D01*
X97533399Y-86477068D02*
X97485780Y-86419925D01*
X97485780Y-86419925D02*
X97485780Y-86334211D01*
X97485780Y-86334211D02*
X97533399Y-86277068D01*
X97533399Y-86277068D02*
X97628637Y-86248497D01*
X97628637Y-86248497D02*
X98152447Y-86248497D01*
X99667152Y-87848496D02*
X99714772Y-87877068D01*
X99714772Y-87877068D02*
X99762391Y-87962782D01*
X99762391Y-87962782D02*
X99762391Y-88019925D01*
X99762391Y-88019925D02*
X99714772Y-88105639D01*
X99714772Y-88105639D02*
X99619533Y-88162782D01*
X99619533Y-88162782D02*
X99524295Y-88191353D01*
X99524295Y-88191353D02*
X99333819Y-88219925D01*
X99333819Y-88219925D02*
X99190962Y-88219925D01*
X99190962Y-88219925D02*
X99000486Y-88191353D01*
X99000486Y-88191353D02*
X98905248Y-88162782D01*
X98905248Y-88162782D02*
X98810010Y-88105639D01*
X98810010Y-88105639D02*
X98762391Y-88019925D01*
X98762391Y-88019925D02*
X98762391Y-87962782D01*
X98762391Y-87962782D02*
X98810010Y-87877068D01*
X98810010Y-87877068D02*
X98857629Y-87848496D01*
X99762391Y-87505639D02*
X99714772Y-87562782D01*
X99714772Y-87562782D02*
X99667152Y-87591353D01*
X99667152Y-87591353D02*
X99571914Y-87619925D01*
X99571914Y-87619925D02*
X99286200Y-87619925D01*
X99286200Y-87619925D02*
X99190962Y-87591353D01*
X99190962Y-87591353D02*
X99143343Y-87562782D01*
X99143343Y-87562782D02*
X99095724Y-87505639D01*
X99095724Y-87505639D02*
X99095724Y-87419925D01*
X99095724Y-87419925D02*
X99143343Y-87362782D01*
X99143343Y-87362782D02*
X99190962Y-87334211D01*
X99190962Y-87334211D02*
X99286200Y-87305639D01*
X99286200Y-87305639D02*
X99571914Y-87305639D01*
X99571914Y-87305639D02*
X99667152Y-87334211D01*
X99667152Y-87334211D02*
X99714772Y-87362782D01*
X99714772Y-87362782D02*
X99762391Y-87419925D01*
X99762391Y-87419925D02*
X99762391Y-87505639D01*
X99762391Y-86962782D02*
X99714772Y-87019925D01*
X99714772Y-87019925D02*
X99619533Y-87048496D01*
X99619533Y-87048496D02*
X98762391Y-87048496D01*
X99762391Y-86648496D02*
X99714772Y-86705639D01*
X99714772Y-86705639D02*
X99619533Y-86734210D01*
X99619533Y-86734210D02*
X98762391Y-86734210D01*
X99714772Y-86191353D02*
X99762391Y-86248496D01*
X99762391Y-86248496D02*
X99762391Y-86362782D01*
X99762391Y-86362782D02*
X99714772Y-86419924D01*
X99714772Y-86419924D02*
X99619533Y-86448496D01*
X99619533Y-86448496D02*
X99238581Y-86448496D01*
X99238581Y-86448496D02*
X99143343Y-86419924D01*
X99143343Y-86419924D02*
X99095724Y-86362782D01*
X99095724Y-86362782D02*
X99095724Y-86248496D01*
X99095724Y-86248496D02*
X99143343Y-86191353D01*
X99143343Y-86191353D02*
X99238581Y-86162782D01*
X99238581Y-86162782D02*
X99333819Y-86162782D01*
X99333819Y-86162782D02*
X99429057Y-86448496D01*
X99714772Y-85648496D02*
X99762391Y-85705638D01*
X99762391Y-85705638D02*
X99762391Y-85819924D01*
X99762391Y-85819924D02*
X99714772Y-85877067D01*
X99714772Y-85877067D02*
X99667152Y-85905638D01*
X99667152Y-85905638D02*
X99571914Y-85934210D01*
X99571914Y-85934210D02*
X99286200Y-85934210D01*
X99286200Y-85934210D02*
X99190962Y-85905638D01*
X99190962Y-85905638D02*
X99143343Y-85877067D01*
X99143343Y-85877067D02*
X99095724Y-85819924D01*
X99095724Y-85819924D02*
X99095724Y-85705638D01*
X99095724Y-85705638D02*
X99143343Y-85648496D01*
X99095724Y-85477067D02*
X99095724Y-85248495D01*
X98762391Y-85391352D02*
X99619533Y-85391352D01*
X99619533Y-85391352D02*
X99714772Y-85362781D01*
X99714772Y-85362781D02*
X99762391Y-85305638D01*
X99762391Y-85305638D02*
X99762391Y-85248495D01*
X99762391Y-84962781D02*
X99714772Y-85019924D01*
X99714772Y-85019924D02*
X99667152Y-85048495D01*
X99667152Y-85048495D02*
X99571914Y-85077067D01*
X99571914Y-85077067D02*
X99286200Y-85077067D01*
X99286200Y-85077067D02*
X99190962Y-85048495D01*
X99190962Y-85048495D02*
X99143343Y-85019924D01*
X99143343Y-85019924D02*
X99095724Y-84962781D01*
X99095724Y-84962781D02*
X99095724Y-84877067D01*
X99095724Y-84877067D02*
X99143343Y-84819924D01*
X99143343Y-84819924D02*
X99190962Y-84791353D01*
X99190962Y-84791353D02*
X99286200Y-84762781D01*
X99286200Y-84762781D02*
X99571914Y-84762781D01*
X99571914Y-84762781D02*
X99667152Y-84791353D01*
X99667152Y-84791353D02*
X99714772Y-84819924D01*
X99714772Y-84819924D02*
X99762391Y-84877067D01*
X99762391Y-84877067D02*
X99762391Y-84962781D01*
X99762391Y-84505638D02*
X99095724Y-84505638D01*
X99286200Y-84505638D02*
X99190962Y-84477067D01*
X99190962Y-84477067D02*
X99143343Y-84448496D01*
X99143343Y-84448496D02*
X99095724Y-84391353D01*
X99095724Y-84391353D02*
X99095724Y-84334210D01*
X92905038Y-87877068D02*
X92857419Y-87934211D01*
X92857419Y-87934211D02*
X92857419Y-88019925D01*
X92857419Y-88019925D02*
X92905038Y-88105639D01*
X92905038Y-88105639D02*
X93000276Y-88162782D01*
X93000276Y-88162782D02*
X93095514Y-88191353D01*
X93095514Y-88191353D02*
X93285990Y-88219925D01*
X93285990Y-88219925D02*
X93428847Y-88219925D01*
X93428847Y-88219925D02*
X93619323Y-88191353D01*
X93619323Y-88191353D02*
X93714561Y-88162782D01*
X93714561Y-88162782D02*
X93809800Y-88105639D01*
X93809800Y-88105639D02*
X93857419Y-88019925D01*
X93857419Y-88019925D02*
X93857419Y-87962782D01*
X93857419Y-87962782D02*
X93809800Y-87877068D01*
X93809800Y-87877068D02*
X93762180Y-87848496D01*
X93762180Y-87848496D02*
X93428847Y-87848496D01*
X93428847Y-87848496D02*
X93428847Y-87962782D01*
X93857419Y-87591353D02*
X92857419Y-87591353D01*
X92857419Y-87591353D02*
X93857419Y-87248496D01*
X93857419Y-87248496D02*
X92857419Y-87248496D01*
X93857419Y-86962782D02*
X92857419Y-86962782D01*
X92857419Y-86962782D02*
X92857419Y-86819925D01*
X92857419Y-86819925D02*
X92905038Y-86734211D01*
X92905038Y-86734211D02*
X93000276Y-86677068D01*
X93000276Y-86677068D02*
X93095514Y-86648497D01*
X93095514Y-86648497D02*
X93285990Y-86619925D01*
X93285990Y-86619925D02*
X93428847Y-86619925D01*
X93428847Y-86619925D02*
X93619323Y-86648497D01*
X93619323Y-86648497D02*
X93714561Y-86677068D01*
X93714561Y-86677068D02*
X93809800Y-86734211D01*
X93809800Y-86734211D02*
X93857419Y-86819925D01*
X93857419Y-86819925D02*
X93857419Y-86962782D01*
X90452657Y-88219925D02*
X90405038Y-88191353D01*
X90405038Y-88191353D02*
X90357419Y-88134211D01*
X90357419Y-88134211D02*
X90357419Y-87991353D01*
X90357419Y-87991353D02*
X90405038Y-87934211D01*
X90405038Y-87934211D02*
X90452657Y-87905639D01*
X90452657Y-87905639D02*
X90547895Y-87877068D01*
X90547895Y-87877068D02*
X90643133Y-87877068D01*
X90643133Y-87877068D02*
X90785990Y-87905639D01*
X90785990Y-87905639D02*
X91357419Y-88248496D01*
X91357419Y-88248496D02*
X91357419Y-87877068D01*
X90690752Y-87362782D02*
X91357419Y-87362782D01*
X90309800Y-87505639D02*
X91024085Y-87648496D01*
X91024085Y-87648496D02*
X91024085Y-87277067D01*
X90357419Y-86677067D02*
X91357419Y-86477067D01*
X91357419Y-86477067D02*
X90357419Y-86277067D01*
X86162180Y-87848496D02*
X86209800Y-87877068D01*
X86209800Y-87877068D02*
X86257419Y-87962782D01*
X86257419Y-87962782D02*
X86257419Y-88019925D01*
X86257419Y-88019925D02*
X86209800Y-88105639D01*
X86209800Y-88105639D02*
X86114561Y-88162782D01*
X86114561Y-88162782D02*
X86019323Y-88191353D01*
X86019323Y-88191353D02*
X85828847Y-88219925D01*
X85828847Y-88219925D02*
X85685990Y-88219925D01*
X85685990Y-88219925D02*
X85495514Y-88191353D01*
X85495514Y-88191353D02*
X85400276Y-88162782D01*
X85400276Y-88162782D02*
X85305038Y-88105639D01*
X85305038Y-88105639D02*
X85257419Y-88019925D01*
X85257419Y-88019925D02*
X85257419Y-87962782D01*
X85257419Y-87962782D02*
X85305038Y-87877068D01*
X85305038Y-87877068D02*
X85352657Y-87848496D01*
X85971704Y-87619925D02*
X85971704Y-87334211D01*
X86257419Y-87677068D02*
X85257419Y-87477068D01*
X85257419Y-87477068D02*
X86257419Y-87277068D01*
X86257419Y-87077067D02*
X85257419Y-87077067D01*
X85257419Y-87077067D02*
X86257419Y-86734210D01*
X86257419Y-86734210D02*
X85257419Y-86734210D01*
X86257419Y-85991353D02*
X85257419Y-85991353D01*
X85733609Y-85991353D02*
X85733609Y-85648496D01*
X86257419Y-85648496D02*
X85257419Y-85648496D01*
X83662180Y-87748496D02*
X83709800Y-87777068D01*
X83709800Y-87777068D02*
X83757419Y-87862782D01*
X83757419Y-87862782D02*
X83757419Y-87919925D01*
X83757419Y-87919925D02*
X83709800Y-88005639D01*
X83709800Y-88005639D02*
X83614561Y-88062782D01*
X83614561Y-88062782D02*
X83519323Y-88091353D01*
X83519323Y-88091353D02*
X83328847Y-88119925D01*
X83328847Y-88119925D02*
X83185990Y-88119925D01*
X83185990Y-88119925D02*
X82995514Y-88091353D01*
X82995514Y-88091353D02*
X82900276Y-88062782D01*
X82900276Y-88062782D02*
X82805038Y-88005639D01*
X82805038Y-88005639D02*
X82757419Y-87919925D01*
X82757419Y-87919925D02*
X82757419Y-87862782D01*
X82757419Y-87862782D02*
X82805038Y-87777068D01*
X82805038Y-87777068D02*
X82852657Y-87748496D01*
X83471704Y-87519925D02*
X83471704Y-87234211D01*
X83757419Y-87577068D02*
X82757419Y-87377068D01*
X82757419Y-87377068D02*
X83757419Y-87177068D01*
X83757419Y-86977067D02*
X82757419Y-86977067D01*
X82757419Y-86977067D02*
X83757419Y-86634210D01*
X83757419Y-86634210D02*
X82757419Y-86634210D01*
X83757419Y-85891353D02*
X82757419Y-85891353D01*
X83233609Y-85891353D02*
X83233609Y-85548496D01*
X83757419Y-85548496D02*
X82757419Y-85548496D01*
D11*
X117976667Y-83504318D02*
X117976667Y-84411461D01*
X117976667Y-84411461D02*
X117916190Y-84592889D01*
X117916190Y-84592889D02*
X117795238Y-84713842D01*
X117795238Y-84713842D02*
X117613809Y-84774318D01*
X117613809Y-84774318D02*
X117492857Y-84774318D01*
X119246667Y-84774318D02*
X118520952Y-84774318D01*
X118883809Y-84774318D02*
X118883809Y-83504318D01*
X118883809Y-83504318D02*
X118762857Y-83685746D01*
X118762857Y-83685746D02*
X118641905Y-83806699D01*
X118641905Y-83806699D02*
X118520952Y-83867175D01*
X97476667Y-83604318D02*
X97476667Y-84511461D01*
X97476667Y-84511461D02*
X97416190Y-84692889D01*
X97416190Y-84692889D02*
X97295238Y-84813842D01*
X97295238Y-84813842D02*
X97113809Y-84874318D01*
X97113809Y-84874318D02*
X96992857Y-84874318D01*
X98020952Y-83725270D02*
X98081428Y-83664794D01*
X98081428Y-83664794D02*
X98202381Y-83604318D01*
X98202381Y-83604318D02*
X98504762Y-83604318D01*
X98504762Y-83604318D02*
X98625714Y-83664794D01*
X98625714Y-83664794D02*
X98686190Y-83725270D01*
X98686190Y-83725270D02*
X98746667Y-83846222D01*
X98746667Y-83846222D02*
X98746667Y-83967175D01*
X98746667Y-83967175D02*
X98686190Y-84148603D01*
X98686190Y-84148603D02*
X97960476Y-84874318D01*
X97960476Y-84874318D02*
X98746667Y-84874318D01*
D10*
X131641666Y-79757419D02*
X131641666Y-80471704D01*
X131641666Y-80471704D02*
X131594047Y-80614561D01*
X131594047Y-80614561D02*
X131498809Y-80709800D01*
X131498809Y-80709800D02*
X131355952Y-80757419D01*
X131355952Y-80757419D02*
X131260714Y-80757419D01*
X132022619Y-79757419D02*
X132641666Y-79757419D01*
X132641666Y-79757419D02*
X132308333Y-80138371D01*
X132308333Y-80138371D02*
X132451190Y-80138371D01*
X132451190Y-80138371D02*
X132546428Y-80185990D01*
X132546428Y-80185990D02*
X132594047Y-80233609D01*
X132594047Y-80233609D02*
X132641666Y-80328847D01*
X132641666Y-80328847D02*
X132641666Y-80566942D01*
X132641666Y-80566942D02*
X132594047Y-80662180D01*
X132594047Y-80662180D02*
X132546428Y-80709800D01*
X132546428Y-80709800D02*
X132451190Y-80757419D01*
X132451190Y-80757419D02*
X132165476Y-80757419D01*
X132165476Y-80757419D02*
X132070238Y-80709800D01*
X132070238Y-80709800D02*
X132022619Y-80662180D01*
D12*
X116563333Y-86584819D02*
X116230000Y-86108628D01*
X115991905Y-86584819D02*
X115991905Y-85584819D01*
X115991905Y-85584819D02*
X116372857Y-85584819D01*
X116372857Y-85584819D02*
X116468095Y-85632438D01*
X116468095Y-85632438D02*
X116515714Y-85680057D01*
X116515714Y-85680057D02*
X116563333Y-85775295D01*
X116563333Y-85775295D02*
X116563333Y-85918152D01*
X116563333Y-85918152D02*
X116515714Y-86013390D01*
X116515714Y-86013390D02*
X116468095Y-86061009D01*
X116468095Y-86061009D02*
X116372857Y-86108628D01*
X116372857Y-86108628D02*
X115991905Y-86108628D01*
X117515714Y-86584819D02*
X116944286Y-86584819D01*
X117230000Y-86584819D02*
X117230000Y-85584819D01*
X117230000Y-85584819D02*
X117134762Y-85727676D01*
X117134762Y-85727676D02*
X117039524Y-85822914D01*
X117039524Y-85822914D02*
X116944286Y-85870533D01*
X131566666Y-88354819D02*
X131566666Y-89069104D01*
X131566666Y-89069104D02*
X131519047Y-89211961D01*
X131519047Y-89211961D02*
X131423809Y-89307200D01*
X131423809Y-89307200D02*
X131280952Y-89354819D01*
X131280952Y-89354819D02*
X131185714Y-89354819D01*
X132471428Y-88688152D02*
X132471428Y-89354819D01*
X132233333Y-88307200D02*
X131995238Y-89021485D01*
X131995238Y-89021485D02*
X132614285Y-89021485D01*
X104661905Y-90054819D02*
X104661905Y-89054819D01*
X104661905Y-89054819D02*
X104900000Y-89054819D01*
X104900000Y-89054819D02*
X105042857Y-89102438D01*
X105042857Y-89102438D02*
X105138095Y-89197676D01*
X105138095Y-89197676D02*
X105185714Y-89292914D01*
X105185714Y-89292914D02*
X105233333Y-89483390D01*
X105233333Y-89483390D02*
X105233333Y-89626247D01*
X105233333Y-89626247D02*
X105185714Y-89816723D01*
X105185714Y-89816723D02*
X105138095Y-89911961D01*
X105138095Y-89911961D02*
X105042857Y-90007200D01*
X105042857Y-90007200D02*
X104900000Y-90054819D01*
X104900000Y-90054819D02*
X104661905Y-90054819D01*
X105614286Y-89150057D02*
X105661905Y-89102438D01*
X105661905Y-89102438D02*
X105757143Y-89054819D01*
X105757143Y-89054819D02*
X105995238Y-89054819D01*
X105995238Y-89054819D02*
X106090476Y-89102438D01*
X106090476Y-89102438D02*
X106138095Y-89150057D01*
X106138095Y-89150057D02*
X106185714Y-89245295D01*
X106185714Y-89245295D02*
X106185714Y-89340533D01*
X106185714Y-89340533D02*
X106138095Y-89483390D01*
X106138095Y-89483390D02*
X105566667Y-90054819D01*
X105566667Y-90054819D02*
X106185714Y-90054819D01*
D13*
X104290000Y-67700000D02*
G75*
G02*
X104290000Y-67600000I0J50000D01*
G01*
X104290000Y-67600000D02*
G75*
G02*
X104290000Y-67700000I0J-50000D01*
G01*
X104290000Y-67700000D02*
G75*
G02*
X104290000Y-67600000I0J50000D01*
G01*
X104290000Y-67600000D02*
X104290000Y-67600000D01*
X104290000Y-67700000D02*
X104290000Y-67700000D01*
X104290000Y-67600000D02*
X104290000Y-67600000D01*
X100735000Y-84950000D02*
X100735000Y-82960000D01*
X116735000Y-84950000D02*
X100735000Y-84950000D01*
X116735000Y-83260000D02*
X116735000Y-84950000D01*
X116735000Y-68260000D02*
X116735000Y-79660000D01*
X100735000Y-68250000D02*
X116735000Y-68260000D01*
X100735000Y-79660000D02*
X100735000Y-68250000D01*
X83610000Y-67700000D02*
G75*
G02*
X83610000Y-67600000I0J50000D01*
G01*
X83610000Y-67600000D02*
G75*
G02*
X83610000Y-67700000I0J-50000D01*
G01*
X83610000Y-67700000D02*
G75*
G02*
X83610000Y-67600000I0J50000D01*
G01*
X83610000Y-67600000D02*
X83610000Y-67600000D01*
X83610000Y-67700000D02*
X83610000Y-67700000D01*
X83610000Y-67600000D02*
X83610000Y-67600000D01*
X80055000Y-84950000D02*
X80055000Y-82960000D01*
X96055000Y-84950000D02*
X80055000Y-84950000D01*
X96055000Y-83260000D02*
X96055000Y-84950000D01*
X96055000Y-68260000D02*
X96055000Y-79660000D01*
X80055000Y-68250000D02*
X96055000Y-68260000D01*
X80055000Y-79660000D02*
X80055000Y-68250000D01*
D10*
X133255000Y-79335000D02*
X120955000Y-79335000D01*
X133255000Y-78935000D02*
X133255000Y-79335000D01*
X133255000Y-67835000D02*
X133255000Y-68535000D01*
X120955000Y-79335000D02*
X120955000Y-78935000D01*
X120955000Y-68535000D02*
X120955000Y-67835000D01*
X120955000Y-67835000D02*
X133255000Y-67835000D01*
D14*
X116830000Y-88500000D02*
X116900000Y-88500000D01*
X116830000Y-88500000D02*
G75*
G02*
X114090000Y-88500000I-1370000J0D01*
G01*
X114090000Y-88500000D02*
G75*
G02*
X116830000Y-88500000I1370000J0D01*
G01*
X120340000Y-82180000D02*
X120340000Y-92220000D01*
X120340000Y-82180000D02*
X130740000Y-82180000D01*
X120340000Y-85200000D02*
X130740000Y-85200000D01*
X120340000Y-90100000D02*
X130740000Y-90100000D01*
X120340000Y-91600000D02*
X130740000Y-91600000D01*
X120340000Y-92220000D02*
X122700000Y-92220000D01*
X123300000Y-92220000D02*
X130740000Y-92220000D01*
X130740000Y-82180000D02*
X130740000Y-92220000D01*
X123440000Y-92830000D02*
X122560000Y-92830000D01*
X123000000Y-92220000D01*
X123440000Y-92830000D01*
G36*
X123440000Y-92830000D02*
G01*
X122560000Y-92830000D01*
X123000000Y-92220000D01*
X123440000Y-92830000D01*
G37*
X107670000Y-87955000D02*
X107670000Y-91045000D01*
X107670000Y-87955170D02*
G75*
G02*
X113220000Y-89499952I2560000J-1544830D01*
G01*
X113220000Y-89500048D02*
G75*
G02*
X107670000Y-91044830I-2990000J48D01*
G01*
X112730000Y-89500000D02*
G75*
G02*
X107730000Y-89500000I-2500000J0D01*
G01*
X107730000Y-89500000D02*
G75*
G02*
X112730000Y-89500000I2500000J0D01*
G01*
%LPC*%
D15*
X83220000Y-89500000D03*
D16*
X85760000Y-89500000D03*
X88300000Y-89500000D03*
X90840000Y-89500000D03*
X93380000Y-89500000D03*
X95920000Y-89500000D03*
X98460000Y-89500000D03*
X101000000Y-89500000D03*
D17*
X114450000Y-78350000D03*
X103020000Y-78350000D03*
D18*
X116610000Y-81400000D03*
X100860000Y-81400000D03*
D19*
X113180000Y-69460000D03*
X111910000Y-72000000D03*
X110640000Y-69460000D03*
X109370000Y-72000000D03*
X108100000Y-69460000D03*
X106830000Y-72000000D03*
X105560000Y-69460000D03*
D20*
X104290000Y-72000000D03*
D17*
X93770000Y-78350000D03*
X82340000Y-78350000D03*
D18*
X95930000Y-81400000D03*
X80180000Y-81400000D03*
D19*
X92500000Y-69460000D03*
X91230000Y-72000000D03*
X89960000Y-69460000D03*
X88690000Y-72000000D03*
X87420000Y-69460000D03*
X86150000Y-72000000D03*
X84880000Y-69460000D03*
D20*
X83610000Y-72000000D03*
D21*
X128355000Y-75135000D03*
X125805000Y-75135000D03*
X125805000Y-71935000D03*
X128355000Y-71935000D03*
D22*
X133125000Y-74645000D03*
X121085000Y-74645000D03*
D23*
X115460000Y-88500000D03*
D24*
X118000000Y-88500000D03*
D25*
X123000000Y-87500000D03*
D26*
X128080000Y-87500000D03*
D27*
X108960000Y-89500000D03*
D21*
X111500000Y-89500000D03*
%LPD*%
M02*
